<svg xmlns="http://www.w3.org/2000/svg" xmlns:xlink="http://www.w3.org/1999/xlink" width="1920" zoomAndPan="magnify" viewBox="0 0 1440 809.999993" height="1080" preserveAspectRatio="xMidYMid meet" version="1.0"><defs><g/><clipPath id="bf15bd5bed"><path d="M 56.246094 81 L 151.75 81 L 151.75 176.503906 L 56.246094 176.503906 Z M 56.246094 81 " clip-rule="nonzero"/></clipPath><clipPath id="d81a8d5ebc"><path d="M 103.996094 81 C 77.625 81 56.246094 102.378906 56.246094 128.75 C 56.246094 155.125 77.625 176.503906 103.996094 176.503906 C 130.371094 176.503906 151.75 155.125 151.75 128.75 C 151.75 102.378906 130.371094 81 103.996094 81 Z M 103.996094 81 " clip-rule="nonzero"/></clipPath><clipPath id="705ae9de9a"><path d="M 0.246094 0 L 95.75 0 L 95.75 95.503906 L 0.246094 95.503906 Z M 0.246094 0 " clip-rule="nonzero"/></clipPath><clipPath id="c67b44bdf5"><path d="M 47.996094 0 C 21.625 0 0.246094 21.378906 0.246094 47.75 C 0.246094 74.125 21.625 95.503906 47.996094 95.503906 C 74.371094 95.503906 95.75 74.125 95.75 47.75 C 95.75 21.378906 74.371094 0 47.996094 0 Z M 47.996094 0 " clip-rule="nonzero"/></clipPath><clipPath id="3a53257ae1"><rect x="0" width="96" y="0" height="96"/></clipPath><clipPath id="001ffc20ef"><path d="M 56.246094 194.757812 L 151.75 194.757812 L 151.75 290.257812 L 56.246094 290.257812 Z M 56.246094 194.757812 " clip-rule="nonzero"/></clipPath><clipPath id="f7054ee239"><path d="M 103.996094 194.757812 C 77.625 194.757812 56.246094 216.136719 56.246094 242.507812 C 56.246094 268.878906 77.625 290.257812 103.996094 290.257812 C 130.371094 290.257812 151.75 268.878906 151.75 242.507812 C 151.75 216.136719 130.371094 194.757812 103.996094 194.757812 Z M 103.996094 194.757812 " clip-rule="nonzero"/></clipPath><clipPath id="fe49f46d19"><path d="M 0.246094 0.757812 L 95.75 0.757812 L 95.75 96.257812 L 0.246094 96.257812 Z M 0.246094 0.757812 " clip-rule="nonzero"/></clipPath><clipPath id="648abf4077"><path d="M 47.996094 0.757812 C 21.625 0.757812 0.246094 22.136719 0.246094 48.507812 C 0.246094 74.878906 21.625 96.257812 47.996094 96.257812 C 74.371094 96.257812 95.75 74.878906 95.75 48.507812 C 95.75 22.136719 74.371094 0.757812 47.996094 0.757812 Z M 47.996094 0.757812 " clip-rule="nonzero"/></clipPath><clipPath id="7d0a1208a3"><rect x="0" width="96" y="0" height="97"/></clipPath><clipPath id="2038b4c1c6"><path d="M 56.246094 194.757812 L 151.496094 194.757812 L 151.496094 290.007812 L 56.246094 290.007812 Z M 56.246094 194.757812 " clip-rule="nonzero"/></clipPath><clipPath id="56101e4bb1"><path d="M 103.996094 194.757812 C 77.625 194.757812 56.246094 216.132812 56.246094 242.503906 C 56.246094 268.875 77.625 290.253906 103.996094 290.253906 C 130.367188 290.253906 151.742188 268.875 151.742188 242.503906 C 151.742188 216.132812 130.367188 194.757812 103.996094 194.757812 Z M 103.996094 194.757812 " clip-rule="nonzero"/></clipPath><clipPath id="c7679f69fd"><path d="M 176.21875 194.757812 L 271.722656 194.757812 L 271.722656 290.257812 L 176.21875 290.257812 Z M 176.21875 194.757812 " clip-rule="nonzero"/></clipPath><clipPath id="0b2b833898"><path d="M 223.96875 194.757812 C 197.597656 194.757812 176.21875 216.136719 176.21875 242.507812 C 176.21875 268.878906 197.597656 290.257812 223.96875 290.257812 C 250.34375 290.257812 271.722656 268.878906 271.722656 242.507812 C 271.722656 216.136719 250.34375 194.757812 223.96875 194.757812 Z M 223.96875 194.757812 " clip-rule="nonzero"/></clipPath><clipPath id="b11e4b0c0e"><path d="M 0.21875 0.757812 L 95.722656 0.757812 L 95.722656 96.257812 L 0.21875 96.257812 Z M 0.21875 0.757812 " clip-rule="nonzero"/></clipPath><clipPath id="d4d9e2069f"><path d="M 47.96875 0.757812 C 21.597656 0.757812 0.21875 22.136719 0.21875 48.507812 C 0.21875 74.878906 21.597656 96.257812 47.96875 96.257812 C 74.34375 96.257812 95.722656 74.878906 95.722656 48.507812 C 95.722656 22.136719 74.34375 0.757812 47.96875 0.757812 Z M 47.96875 0.757812 " clip-rule="nonzero"/></clipPath><clipPath id="2974a4cc00"><rect x="0" width="96" y="0" height="97"/></clipPath><clipPath id="facfe2373e"><path d="M 56.246094 483.894531 L 151.75 483.894531 L 151.75 579.394531 L 56.246094 579.394531 Z M 56.246094 483.894531 " clip-rule="nonzero"/></clipPath><clipPath id="889c86131e"><path d="M 103.996094 483.894531 C 77.625 483.894531 56.246094 505.273438 56.246094 531.644531 C 56.246094 558.015625 77.625 579.394531 103.996094 579.394531 C 130.371094 579.394531 151.75 558.015625 151.75 531.644531 C 151.75 505.273438 130.371094 483.894531 103.996094 483.894531 Z M 103.996094 483.894531 " clip-rule="nonzero"/></clipPath><clipPath id="885b457241"><path d="M 0.246094 0.894531 L 95.75 0.894531 L 95.75 96.394531 L 0.246094 96.394531 Z M 0.246094 0.894531 " clip-rule="nonzero"/></clipPath><clipPath id="4271c315e0"><path d="M 47.996094 0.894531 C 21.625 0.894531 0.246094 22.273438 0.246094 48.644531 C 0.246094 75.015625 21.625 96.394531 47.996094 96.394531 C 74.371094 96.394531 95.75 75.015625 95.75 48.644531 C 95.75 22.273438 74.371094 0.894531 47.996094 0.894531 Z M 47.996094 0.894531 " clip-rule="nonzero"/></clipPath><clipPath id="4f770c9aab"><rect x="0" width="96" y="0" height="97"/></clipPath><clipPath id="0467b67bc4"><path d="M 176.441406 483.894531 L 271.945312 483.894531 L 271.945312 579.394531 L 176.441406 579.394531 Z M 176.441406 483.894531 " clip-rule="nonzero"/></clipPath><clipPath id="5b0f1ce365"><path d="M 224.195312 483.894531 C 197.820312 483.894531 176.441406 505.273438 176.441406 531.644531 C 176.441406 558.015625 197.820312 579.394531 224.195312 579.394531 C 250.566406 579.394531 271.945312 558.015625 271.945312 531.644531 C 271.945312 505.273438 250.566406 483.894531 224.195312 483.894531 Z M 224.195312 483.894531 " clip-rule="nonzero"/></clipPath><clipPath id="78176118e7"><path d="M 0.441406 0.894531 L 95.945312 0.894531 L 95.945312 96.394531 L 0.441406 96.394531 Z M 0.441406 0.894531 " clip-rule="nonzero"/></clipPath><clipPath id="ce35f081f4"><path d="M 48.195312 0.894531 C 21.820312 0.894531 0.441406 22.273438 0.441406 48.644531 C 0.441406 75.015625 21.820312 96.394531 48.195312 96.394531 C 74.566406 96.394531 95.945312 75.015625 95.945312 48.644531 C 95.945312 22.273438 74.566406 0.894531 48.195312 0.894531 Z M 48.195312 0.894531 " clip-rule="nonzero"/></clipPath><clipPath id="e99c8ee778"><rect x="0" width="96" y="0" height="97"/></clipPath><clipPath id="071eef2c02"><path d="M 296.640625 483.894531 L 392.140625 483.894531 L 392.140625 579.394531 L 296.640625 579.394531 Z M 296.640625 483.894531 " clip-rule="nonzero"/></clipPath><clipPath id="7818b943ae"><path d="M 344.390625 483.894531 C 318.019531 483.894531 296.640625 505.273438 296.640625 531.644531 C 296.640625 558.015625 318.019531 579.394531 344.390625 579.394531 C 370.761719 579.394531 392.140625 558.015625 392.140625 531.644531 C 392.140625 505.273438 370.761719 483.894531 344.390625 483.894531 Z M 344.390625 483.894531 " clip-rule="nonzero"/></clipPath><clipPath id="bab2bee7f5"><path d="M 0.640625 0.894531 L 96.140625 0.894531 L 96.140625 96.394531 L 0.640625 96.394531 Z M 0.640625 0.894531 " clip-rule="nonzero"/></clipPath><clipPath id="3b6fba0eb2"><path d="M 48.390625 0.894531 C 22.019531 0.894531 0.640625 22.273438 0.640625 48.644531 C 0.640625 75.015625 22.019531 96.394531 48.390625 96.394531 C 74.761719 96.394531 96.140625 75.015625 96.140625 48.644531 C 96.140625 22.273438 74.761719 0.894531 48.390625 0.894531 Z M 48.390625 0.894531 " clip-rule="nonzero"/></clipPath><clipPath id="9e19b50a6b"><rect x="0" width="97" y="0" height="97"/></clipPath><clipPath id="0dcd5c8cfe"><path d="M 416.835938 483.894531 L 512.339844 483.894531 L 512.339844 579.394531 L 416.835938 579.394531 Z M 416.835938 483.894531 " clip-rule="nonzero"/></clipPath><clipPath id="1d7d5fa51c"><path d="M 464.585938 483.894531 C 438.214844 483.894531 416.835938 505.273438 416.835938 531.644531 C 416.835938 558.015625 438.214844 579.394531 464.585938 579.394531 C 490.960938 579.394531 512.339844 558.015625 512.339844 531.644531 C 512.339844 505.273438 490.960938 483.894531 464.585938 483.894531 Z M 464.585938 483.894531 " clip-rule="nonzero"/></clipPath><clipPath id="723d44506c"><path d="M 0.835938 0.894531 L 96.339844 0.894531 L 96.339844 96.394531 L 0.835938 96.394531 Z M 0.835938 0.894531 " clip-rule="nonzero"/></clipPath><clipPath id="bf56dd7e3e"><path d="M 48.585938 0.894531 C 22.214844 0.894531 0.835938 22.273438 0.835938 48.644531 C 0.835938 75.015625 22.214844 96.394531 48.585938 96.394531 C 74.960938 96.394531 96.339844 75.015625 96.339844 48.644531 C 96.339844 22.273438 74.960938 0.894531 48.585938 0.894531 Z M 48.585938 0.894531 " clip-rule="nonzero"/></clipPath><clipPath id="60dd8e7dbd"><rect x="0" width="97" y="0" height="97"/></clipPath><clipPath id="8c029c1c98"><path d="M 537.03125 483.894531 L 632.535156 483.894531 L 632.535156 579.394531 L 537.03125 579.394531 Z M 537.03125 483.894531 " clip-rule="nonzero"/></clipPath><clipPath id="395f2d3911"><path d="M 584.78125 483.894531 C 558.410156 483.894531 537.03125 505.273438 537.03125 531.644531 C 537.03125 558.015625 558.410156 579.394531 584.78125 579.394531 C 611.15625 579.394531 632.535156 558.015625 632.535156 531.644531 C 632.535156 505.273438 611.15625 483.894531 584.78125 483.894531 Z M 584.78125 483.894531 " clip-rule="nonzero"/></clipPath><clipPath id="b7d4d132b9"><path d="M 0.03125 0.894531 L 95.535156 0.894531 L 95.535156 96.394531 L 0.03125 96.394531 Z M 0.03125 0.894531 " clip-rule="nonzero"/></clipPath><clipPath id="3fd908b46e"><path d="M 47.78125 0.894531 C 21.410156 0.894531 0.03125 22.273438 0.03125 48.644531 C 0.03125 75.015625 21.410156 96.394531 47.78125 96.394531 C 74.15625 96.394531 95.535156 75.015625 95.535156 48.644531 C 95.535156 22.273438 74.15625 0.894531 47.78125 0.894531 Z M 47.78125 0.894531 " clip-rule="nonzero"/></clipPath><clipPath id="1089ed9409"><rect x="0" width="96" y="0" height="97"/></clipPath><clipPath id="c58e6fea78"><path d="M 657.226562 483.894531 L 752.730469 483.894531 L 752.730469 579.394531 L 657.226562 579.394531 Z M 657.226562 483.894531 " clip-rule="nonzero"/></clipPath><clipPath id="e503f7a22c"><path d="M 704.980469 483.894531 C 678.605469 483.894531 657.226562 505.273438 657.226562 531.644531 C 657.226562 558.015625 678.605469 579.394531 704.980469 579.394531 C 731.351562 579.394531 752.730469 558.015625 752.730469 531.644531 C 752.730469 505.273438 731.351562 483.894531 704.980469 483.894531 Z M 704.980469 483.894531 " clip-rule="nonzero"/></clipPath><clipPath id="de99364ab6"><path d="M 0.226562 0.894531 L 95.730469 0.894531 L 95.730469 96.394531 L 0.226562 96.394531 Z M 0.226562 0.894531 " clip-rule="nonzero"/></clipPath><clipPath id="c2edeec2db"><path d="M 47.980469 0.894531 C 21.605469 0.894531 0.226562 22.273438 0.226562 48.644531 C 0.226562 75.015625 21.605469 96.394531 47.980469 96.394531 C 74.351562 96.394531 95.730469 75.015625 95.730469 48.644531 C 95.730469 22.273438 74.351562 0.894531 47.980469 0.894531 Z M 47.980469 0.894531 " clip-rule="nonzero"/></clipPath><clipPath id="e06325c61b"><rect x="0" width="96" y="0" height="97"/></clipPath><clipPath id="452219e812"><path d="M 176.441406 598.085938 L 271.945312 598.085938 L 271.945312 693.585938 L 176.441406 693.585938 Z M 176.441406 598.085938 " clip-rule="nonzero"/></clipPath><clipPath id="44d78b52fa"><path d="M 224.195312 598.085938 C 197.820312 598.085938 176.441406 619.464844 176.441406 645.835938 C 176.441406 672.207031 197.820312 693.585938 224.195312 693.585938 C 250.566406 693.585938 271.945312 672.207031 271.945312 645.835938 C 271.945312 619.464844 250.566406 598.085938 224.195312 598.085938 Z M 224.195312 598.085938 " clip-rule="nonzero"/></clipPath><clipPath id="2bf6443f5f"><path d="M 0.441406 0.0859375 L 95.945312 0.0859375 L 95.945312 95.585938 L 0.441406 95.585938 Z M 0.441406 0.0859375 " clip-rule="nonzero"/></clipPath><clipPath id="6d6917b2e4"><path d="M 48.195312 0.0859375 C 21.820312 0.0859375 0.441406 21.464844 0.441406 47.835938 C 0.441406 74.207031 21.820312 95.585938 48.195312 95.585938 C 74.566406 95.585938 95.945312 74.207031 95.945312 47.835938 C 95.945312 21.464844 74.566406 0.0859375 48.195312 0.0859375 Z M 48.195312 0.0859375 " clip-rule="nonzero"/></clipPath><clipPath id="e865910118"><rect x="0" width="96" y="0" height="96"/></clipPath><clipPath id="4ed48a6a63"><path d="M 56.246094 598.085938 L 151.75 598.085938 L 151.75 693.585938 L 56.246094 693.585938 Z M 56.246094 598.085938 " clip-rule="nonzero"/></clipPath><clipPath id="ec20631222"><path d="M 103.996094 598.085938 C 77.625 598.085938 56.246094 619.464844 56.246094 645.835938 C 56.246094 672.207031 77.625 693.585938 103.996094 693.585938 C 130.371094 693.585938 151.75 672.207031 151.75 645.835938 C 151.75 619.464844 130.371094 598.085938 103.996094 598.085938 Z M 103.996094 598.085938 " clip-rule="nonzero"/></clipPath><clipPath id="6c1eac4edb"><path d="M 0.246094 0.0859375 L 95.75 0.0859375 L 95.75 95.585938 L 0.246094 95.585938 Z M 0.246094 0.0859375 " clip-rule="nonzero"/></clipPath><clipPath id="f2e652c4dd"><path d="M 47.996094 0.0859375 C 21.625 0.0859375 0.246094 21.464844 0.246094 47.835938 C 0.246094 74.207031 21.625 95.585938 47.996094 95.585938 C 74.371094 95.585938 95.75 74.207031 95.75 47.835938 C 95.75 21.464844 74.371094 0.0859375 47.996094 0.0859375 Z M 47.996094 0.0859375 " clip-rule="nonzero"/></clipPath><clipPath id="64a94611ff"><rect x="0" width="96" y="0" height="96"/></clipPath><clipPath id="6f455846e6"><path d="M 657.226562 598.085938 L 752.730469 598.085938 L 752.730469 693.585938 L 657.226562 693.585938 Z M 657.226562 598.085938 " clip-rule="nonzero"/></clipPath><clipPath id="e1efa2fab5"><path d="M 704.980469 598.085938 C 678.605469 598.085938 657.226562 619.464844 657.226562 645.835938 C 657.226562 672.207031 678.605469 693.585938 704.980469 693.585938 C 731.351562 693.585938 752.730469 672.207031 752.730469 645.835938 C 752.730469 619.464844 731.351562 598.085938 704.980469 598.085938 Z M 704.980469 598.085938 " clip-rule="nonzero"/></clipPath><clipPath id="5090dc5709"><path d="M 0.226562 0.0859375 L 95.730469 0.0859375 L 95.730469 95.585938 L 0.226562 95.585938 Z M 0.226562 0.0859375 " clip-rule="nonzero"/></clipPath><clipPath id="0484d26da2"><path d="M 47.980469 0.0859375 C 21.605469 0.0859375 0.226562 21.464844 0.226562 47.835938 C 0.226562 74.207031 21.605469 95.585938 47.980469 95.585938 C 74.351562 95.585938 95.730469 74.207031 95.730469 47.835938 C 95.730469 21.464844 74.351562 0.0859375 47.980469 0.0859375 Z M 47.980469 0.0859375 " clip-rule="nonzero"/></clipPath><clipPath id="d66c066f43"><rect x="0" width="96" y="0" height="96"/></clipPath><clipPath id="9f973b4392"><path d="M 296.640625 598.085938 L 392.140625 598.085938 L 392.140625 693.585938 L 296.640625 693.585938 Z M 296.640625 598.085938 " clip-rule="nonzero"/></clipPath><clipPath id="3039f6401a"><path d="M 344.390625 598.085938 C 318.019531 598.085938 296.640625 619.464844 296.640625 645.835938 C 296.640625 672.207031 318.019531 693.585938 344.390625 693.585938 C 370.761719 693.585938 392.140625 672.207031 392.140625 645.835938 C 392.140625 619.464844 370.761719 598.085938 344.390625 598.085938 Z M 344.390625 598.085938 " clip-rule="nonzero"/></clipPath><clipPath id="bfab1f5afa"><path d="M 0.640625 0.0859375 L 96.140625 0.0859375 L 96.140625 95.585938 L 0.640625 95.585938 Z M 0.640625 0.0859375 " clip-rule="nonzero"/></clipPath><clipPath id="4dfd1d7019"><path d="M 48.390625 0.0859375 C 22.019531 0.0859375 0.640625 21.464844 0.640625 47.835938 C 0.640625 74.207031 22.019531 95.585938 48.390625 95.585938 C 74.761719 95.585938 96.140625 74.207031 96.140625 47.835938 C 96.140625 21.464844 74.761719 0.0859375 48.390625 0.0859375 Z M 48.390625 0.0859375 " clip-rule="nonzero"/></clipPath><clipPath id="db772b592c"><rect x="0" width="97" y="0" height="96"/></clipPath><clipPath id="828f9c59f3"><path d="M 416.835938 598.085938 L 512.339844 598.085938 L 512.339844 693.585938 L 416.835938 693.585938 Z M 416.835938 598.085938 " clip-rule="nonzero"/></clipPath><clipPath id="11925f3e9f"><path d="M 464.585938 598.085938 C 438.214844 598.085938 416.835938 619.464844 416.835938 645.835938 C 416.835938 672.207031 438.214844 693.585938 464.585938 693.585938 C 490.960938 693.585938 512.339844 672.207031 512.339844 645.835938 C 512.339844 619.464844 490.960938 598.085938 464.585938 598.085938 Z M 464.585938 598.085938 " clip-rule="nonzero"/></clipPath><clipPath id="d5b46e57b0"><path d="M 0.835938 0.0859375 L 96.339844 0.0859375 L 96.339844 95.585938 L 0.835938 95.585938 Z M 0.835938 0.0859375 " clip-rule="nonzero"/></clipPath><clipPath id="2bb68bcb6d"><path d="M 48.585938 0.0859375 C 22.214844 0.0859375 0.835938 21.464844 0.835938 47.835938 C 0.835938 74.207031 22.214844 95.585938 48.585938 95.585938 C 74.960938 95.585938 96.339844 74.207031 96.339844 47.835938 C 96.339844 21.464844 74.960938 0.0859375 48.585938 0.0859375 Z M 48.585938 0.0859375 " clip-rule="nonzero"/></clipPath><clipPath id="d34712de8d"><rect x="0" width="97" y="0" height="96"/></clipPath><clipPath id="bc105d8098"><path d="M 537.03125 598.085938 L 632.535156 598.085938 L 632.535156 693.585938 L 537.03125 693.585938 Z M 537.03125 598.085938 " clip-rule="nonzero"/></clipPath><clipPath id="1556013cee"><path d="M 584.78125 598.085938 C 558.410156 598.085938 537.03125 619.464844 537.03125 645.835938 C 537.03125 672.207031 558.410156 693.585938 584.78125 693.585938 C 611.15625 693.585938 632.535156 672.207031 632.535156 645.835938 C 632.535156 619.464844 611.15625 598.085938 584.78125 598.085938 Z M 584.78125 598.085938 " clip-rule="nonzero"/></clipPath><clipPath id="a47bb694a1"><path d="M 0.03125 0.0859375 L 95.535156 0.0859375 L 95.535156 95.585938 L 0.03125 95.585938 Z M 0.03125 0.0859375 " clip-rule="nonzero"/></clipPath><clipPath id="359ee1d95d"><path d="M 47.78125 0.0859375 C 21.410156 0.0859375 0.03125 21.464844 0.03125 47.835938 C 0.03125 74.207031 21.410156 95.585938 47.78125 95.585938 C 74.15625 95.585938 95.535156 74.207031 95.535156 47.835938 C 95.535156 21.464844 74.15625 0.0859375 47.78125 0.0859375 Z M 47.78125 0.0859375 " clip-rule="nonzero"/></clipPath><clipPath id="9474fbf1ff"><rect x="0" width="96" y="0" height="96"/></clipPath><clipPath id="7a4a6a4931"><path d="M 296.472656 194.757812 L 391.972656 194.757812 L 391.972656 290.257812 L 296.472656 290.257812 Z M 296.472656 194.757812 " clip-rule="nonzero"/></clipPath><clipPath id="11efa66f72"><path d="M 344.222656 194.757812 C 317.851562 194.757812 296.472656 216.136719 296.472656 242.507812 C 296.472656 268.878906 317.851562 290.257812 344.222656 290.257812 C 370.59375 290.257812 391.972656 268.878906 391.972656 242.507812 C 391.972656 216.136719 370.59375 194.757812 344.222656 194.757812 Z M 344.222656 194.757812 " clip-rule="nonzero"/></clipPath><clipPath id="ad012adefd"><path d="M 0.472656 0.757812 L 95.972656 0.757812 L 95.972656 96.257812 L 0.472656 96.257812 Z M 0.472656 0.757812 " clip-rule="nonzero"/></clipPath><clipPath id="50354610bc"><path d="M 48.222656 0.757812 C 21.851562 0.757812 0.472656 22.136719 0.472656 48.507812 C 0.472656 74.878906 21.851562 96.257812 48.222656 96.257812 C 74.59375 96.257812 95.972656 74.878906 95.972656 48.507812 C 95.972656 22.136719 74.59375 0.757812 48.222656 0.757812 Z M 48.222656 0.757812 " clip-rule="nonzero"/></clipPath><clipPath id="0f202b31d1"><rect x="0" width="96" y="0" height="97"/></clipPath><clipPath id="cdffc83776"><path d="M 56.246094 369.894531 L 151.75 369.894531 L 151.75 465.394531 L 56.246094 465.394531 Z M 56.246094 369.894531 " clip-rule="nonzero"/></clipPath><clipPath id="681203dd8b"><path d="M 103.996094 369.894531 C 77.625 369.894531 56.246094 391.273438 56.246094 417.644531 C 56.246094 444.015625 77.625 465.394531 103.996094 465.394531 C 130.371094 465.394531 151.75 444.015625 151.75 417.644531 C 151.75 391.273438 130.371094 369.894531 103.996094 369.894531 Z M 103.996094 369.894531 " clip-rule="nonzero"/></clipPath><clipPath id="7707d18036"><path d="M 0.246094 0.894531 L 95.75 0.894531 L 95.75 96.394531 L 0.246094 96.394531 Z M 0.246094 0.894531 " clip-rule="nonzero"/></clipPath><clipPath id="7f44f66bf5"><path d="M 47.996094 0.894531 C 21.625 0.894531 0.246094 22.273438 0.246094 48.644531 C 0.246094 75.015625 21.625 96.394531 47.996094 96.394531 C 74.371094 96.394531 95.75 75.015625 95.75 48.644531 C 95.75 22.273438 74.371094 0.894531 47.996094 0.894531 Z M 47.996094 0.894531 " clip-rule="nonzero"/></clipPath><clipPath id="91650ff0a4"><rect x="0" width="96" y="0" height="97"/></clipPath><clipPath id="18a7acc78c"><path d="M 176.441406 369.894531 L 271.945312 369.894531 L 271.945312 465.394531 L 176.441406 465.394531 Z M 176.441406 369.894531 " clip-rule="nonzero"/></clipPath><clipPath id="b435f1887e"><path d="M 224.195312 369.894531 C 197.820312 369.894531 176.441406 391.273438 176.441406 417.644531 C 176.441406 444.015625 197.820312 465.394531 224.195312 465.394531 C 250.566406 465.394531 271.945312 444.015625 271.945312 417.644531 C 271.945312 391.273438 250.566406 369.894531 224.195312 369.894531 Z M 224.195312 369.894531 " clip-rule="nonzero"/></clipPath><clipPath id="dd15b1cd42"><path d="M 0.441406 0.894531 L 95.945312 0.894531 L 95.945312 96.394531 L 0.441406 96.394531 Z M 0.441406 0.894531 " clip-rule="nonzero"/></clipPath><clipPath id="3d518ebf48"><path d="M 48.195312 0.894531 C 21.820312 0.894531 0.441406 22.273438 0.441406 48.644531 C 0.441406 75.015625 21.820312 96.394531 48.195312 96.394531 C 74.566406 96.394531 95.945312 75.015625 95.945312 48.644531 C 95.945312 22.273438 74.566406 0.894531 48.195312 0.894531 Z M 48.195312 0.894531 " clip-rule="nonzero"/></clipPath><clipPath id="cf95444feb"><rect x="0" width="96" y="0" height="97"/></clipPath><clipPath id="c58a089d5b"><path d="M 296.640625 369.894531 L 392.140625 369.894531 L 392.140625 465.394531 L 296.640625 465.394531 Z M 296.640625 369.894531 " clip-rule="nonzero"/></clipPath><clipPath id="ef228ef638"><path d="M 344.390625 369.894531 C 318.019531 369.894531 296.640625 391.273438 296.640625 417.644531 C 296.640625 444.015625 318.019531 465.394531 344.390625 465.394531 C 370.761719 465.394531 392.140625 444.015625 392.140625 417.644531 C 392.140625 391.273438 370.761719 369.894531 344.390625 369.894531 Z M 344.390625 369.894531 " clip-rule="nonzero"/></clipPath><clipPath id="dfb39ecb30"><path d="M 0.640625 0.894531 L 96.140625 0.894531 L 96.140625 96.394531 L 0.640625 96.394531 Z M 0.640625 0.894531 " clip-rule="nonzero"/></clipPath><clipPath id="1778f983fa"><path d="M 48.390625 0.894531 C 22.019531 0.894531 0.640625 22.273438 0.640625 48.644531 C 0.640625 75.015625 22.019531 96.394531 48.390625 96.394531 C 74.761719 96.394531 96.140625 75.015625 96.140625 48.644531 C 96.140625 22.273438 74.761719 0.894531 48.390625 0.894531 Z M 48.390625 0.894531 " clip-rule="nonzero"/></clipPath><clipPath id="df48cae271"><rect x="0" width="97" y="0" height="97"/></clipPath><clipPath id="ed6e96a8d9"><path d="M 416.835938 369.894531 L 512.339844 369.894531 L 512.339844 465.394531 L 416.835938 465.394531 Z M 416.835938 369.894531 " clip-rule="nonzero"/></clipPath><clipPath id="6cc5286531"><path d="M 464.585938 369.894531 C 438.214844 369.894531 416.835938 391.273438 416.835938 417.644531 C 416.835938 444.015625 438.214844 465.394531 464.585938 465.394531 C 490.960938 465.394531 512.339844 444.015625 512.339844 417.644531 C 512.339844 391.273438 490.960938 369.894531 464.585938 369.894531 Z M 464.585938 369.894531 " clip-rule="nonzero"/></clipPath><clipPath id="0975d2fec9"><path d="M 0.835938 0.894531 L 96.339844 0.894531 L 96.339844 96.394531 L 0.835938 96.394531 Z M 0.835938 0.894531 " clip-rule="nonzero"/></clipPath><clipPath id="67cc99b091"><path d="M 48.585938 0.894531 C 22.214844 0.894531 0.835938 22.273438 0.835938 48.644531 C 0.835938 75.015625 22.214844 96.394531 48.585938 96.394531 C 74.960938 96.394531 96.339844 75.015625 96.339844 48.644531 C 96.339844 22.273438 74.960938 0.894531 48.585938 0.894531 Z M 48.585938 0.894531 " clip-rule="nonzero"/></clipPath><clipPath id="ca2b4ad67b"><rect x="0" width="97" y="0" height="97"/></clipPath><clipPath id="373e1536d8"><path d="M 537.03125 369.894531 L 632.535156 369.894531 L 632.535156 465.394531 L 537.03125 465.394531 Z M 537.03125 369.894531 " clip-rule="nonzero"/></clipPath><clipPath id="ab7cb5fe33"><path d="M 584.78125 369.894531 C 558.410156 369.894531 537.03125 391.273438 537.03125 417.644531 C 537.03125 444.015625 558.410156 465.394531 584.78125 465.394531 C 611.15625 465.394531 632.535156 444.015625 632.535156 417.644531 C 632.535156 391.273438 611.15625 369.894531 584.78125 369.894531 Z M 584.78125 369.894531 " clip-rule="nonzero"/></clipPath><clipPath id="2327b63a15"><path d="M 0.03125 0.894531 L 95.535156 0.894531 L 95.535156 96.394531 L 0.03125 96.394531 Z M 0.03125 0.894531 " clip-rule="nonzero"/></clipPath><clipPath id="ebfc4267cf"><path d="M 47.78125 0.894531 C 21.410156 0.894531 0.03125 22.273438 0.03125 48.644531 C 0.03125 75.015625 21.410156 96.394531 47.78125 96.394531 C 74.15625 96.394531 95.535156 75.015625 95.535156 48.644531 C 95.535156 22.273438 74.15625 0.894531 47.78125 0.894531 Z M 47.78125 0.894531 " clip-rule="nonzero"/></clipPath><clipPath id="62019bb134"><rect x="0" width="96" y="0" height="97"/></clipPath><clipPath id="9a76b9514c"><path d="M 657.226562 369.894531 L 752.730469 369.894531 L 752.730469 465.394531 L 657.226562 465.394531 Z M 657.226562 369.894531 " clip-rule="nonzero"/></clipPath><clipPath id="f53ecc8717"><path d="M 704.980469 369.894531 C 678.605469 369.894531 657.226562 391.273438 657.226562 417.644531 C 657.226562 444.015625 678.605469 465.394531 704.980469 465.394531 C 731.351562 465.394531 752.730469 444.015625 752.730469 417.644531 C 752.730469 391.273438 731.351562 369.894531 704.980469 369.894531 Z M 704.980469 369.894531 " clip-rule="nonzero"/></clipPath><clipPath id="f2f539336f"><path d="M 0.226562 0.894531 L 95.730469 0.894531 L 95.730469 96.394531 L 0.226562 96.394531 Z M 0.226562 0.894531 " clip-rule="nonzero"/></clipPath><clipPath id="11da4dc72f"><path d="M 47.980469 0.894531 C 21.605469 0.894531 0.226562 22.273438 0.226562 48.644531 C 0.226562 75.015625 21.605469 96.394531 47.980469 96.394531 C 74.351562 96.394531 95.730469 75.015625 95.730469 48.644531 C 95.730469 22.273438 74.351562 0.894531 47.980469 0.894531 Z M 47.980469 0.894531 " clip-rule="nonzero"/></clipPath><clipPath id="1e58a5fa00"><rect x="0" width="96" y="0" height="97"/></clipPath></defs><rect x="-144" width="1728" fill="#ffffff" y="-80.999999" height="971.999992" fill-opacity="1"/><rect x="-144" width="1728" fill="#151620" y="-80.999999" height="971.999992" fill-opacity="1"/><g clip-path="url(#bf15bd5bed)"><g clip-path="url(#d81a8d5ebc)"><g transform="matrix(1, 0, 0, 1, 56, 81)"><g clip-path="url(#3a53257ae1)"><g clip-path="url(#705ae9de9a)"><g clip-path="url(#c67b44bdf5)"><path fill="#5ec269" d="M 0.246094 0 L 95.75 0 L 95.75 95.503906 L 0.246094 95.503906 Z M 0.246094 0 " fill-opacity="1" fill-rule="nonzero"/></g></g></g></g></g></g><g clip-path="url(#001ffc20ef)"><g clip-path="url(#f7054ee239)"><g transform="matrix(1, 0, 0, 1, 56, 194)"><g clip-path="url(#7d0a1208a3)"><g clip-path="url(#fe49f46d19)"><g clip-path="url(#648abf4077)"><path fill="#151620" d="M 0.246094 0.757812 L 95.75 0.757812 L 95.75 96.257812 L 0.246094 96.257812 Z M 0.246094 0.757812 " fill-opacity="1" fill-rule="nonzero"/></g></g></g></g></g></g><g clip-path="url(#2038b4c1c6)"><g clip-path="url(#56101e4bb1)"><path stroke-linecap="butt" transform="matrix(0.75, 0, 0, 0.75, 56.246792, 194.756377)" fill="none" stroke-linejoin="miter" d="M 63.665743 0.00191453 C 28.50428 0.00191453 -0.000931257 28.501918 -0.000931257 63.66338 C -0.000931257 98.824842 28.50428 127.330054 63.665743 127.330054 C 98.827205 127.330054 127.327208 98.824842 127.327208 63.66338 C 127.327208 28.501918 98.827205 0.00191453 63.665743 0.00191453 Z M 63.665743 0.00191453 " stroke="#5ec269" stroke-width="8" stroke-opacity="1" stroke-miterlimit="4"/></g></g><g clip-path="url(#c7679f69fd)"><g clip-path="url(#0b2b833898)"><g transform="matrix(1, 0, 0, 1, 176, 194)"><g clip-path="url(#2974a4cc00)"><g clip-path="url(#b11e4b0c0e)"><g clip-path="url(#d4d9e2069f)"><path fill="#222a35" d="M 0.21875 0.757812 L 95.722656 0.757812 L 95.722656 96.257812 L 0.21875 96.257812 Z M 0.21875 0.757812 " fill-opacity="1" fill-rule="nonzero"/></g></g></g></g></g></g><g clip-path="url(#facfe2373e)"><g clip-path="url(#889c86131e)"><g transform="matrix(1, 0, 0, 1, 56, 483)"><g clip-path="url(#4f770c9aab)"><g clip-path="url(#885b457241)"><g clip-path="url(#4271c315e0)"><path fill="#8b8b8b" d="M 0.246094 0.894531 L 95.75 0.894531 L 95.75 96.394531 L 0.246094 96.394531 Z M 0.246094 0.894531 " fill-opacity="1" fill-rule="nonzero"/></g></g></g></g></g></g><g clip-path="url(#0467b67bc4)"><g clip-path="url(#5b0f1ce365)"><g transform="matrix(1, 0, 0, 1, 176, 483)"><g clip-path="url(#e99c8ee778)"><g clip-path="url(#78176118e7)"><g clip-path="url(#ce35f081f4)"><path fill="#5ec269" d="M 0.441406 0.894531 L 95.945312 0.894531 L 95.945312 96.394531 L 0.441406 96.394531 Z M 0.441406 0.894531 " fill-opacity="1" fill-rule="nonzero"/></g></g></g></g></g></g><g clip-path="url(#071eef2c02)"><g clip-path="url(#7818b943ae)"><g transform="matrix(1, 0, 0, 1, 296, 483)"><g clip-path="url(#9e19b50a6b)"><g clip-path="url(#bab2bee7f5)"><g clip-path="url(#3b6fba0eb2)"><path fill="#6797df" d="M 0.640625 0.894531 L 96.140625 0.894531 L 96.140625 96.394531 L 0.640625 96.394531 Z M 0.640625 0.894531 " fill-opacity="1" fill-rule="nonzero"/></g></g></g></g></g></g><g clip-path="url(#0dcd5c8cfe)"><g clip-path="url(#1d7d5fa51c)"><g transform="matrix(1, 0, 0, 1, 416, 483)"><g clip-path="url(#60dd8e7dbd)"><g clip-path="url(#723d44506c)"><g clip-path="url(#bf56dd7e3e)"><path fill="#b07be5" d="M 0.835938 0.894531 L 96.339844 0.894531 L 96.339844 96.394531 L 0.835938 96.394531 Z M 0.835938 0.894531 " fill-opacity="1" fill-rule="nonzero"/></g></g></g></g></g></g><g clip-path="url(#8c029c1c98)"><g clip-path="url(#395f2d3911)"><g transform="matrix(1, 0, 0, 1, 537, 483)"><g clip-path="url(#1089ed9409)"><g clip-path="url(#b7d4d132b9)"><g clip-path="url(#3fd908b46e)"><path fill="#ffbd58" d="M 0.03125 0.894531 L 95.535156 0.894531 L 95.535156 96.394531 L 0.03125 96.394531 Z M 0.03125 0.894531 " fill-opacity="1" fill-rule="nonzero"/></g></g></g></g></g></g><g clip-path="url(#c58e6fea78)"><g clip-path="url(#e503f7a22c)"><g transform="matrix(1, 0, 0, 1, 657, 483)"><g clip-path="url(#e06325c61b)"><g clip-path="url(#de99364ab6)"><g clip-path="url(#c2edeec2db)"><path fill="#da4140" d="M 0.226562 0.894531 L 95.730469 0.894531 L 95.730469 96.394531 L 0.226562 96.394531 Z M 0.226562 0.894531 " fill-opacity="1" fill-rule="nonzero"/></g></g></g></g></g></g><g clip-path="url(#452219e812)"><g clip-path="url(#44d78b52fa)"><g transform="matrix(1, 0, 0, 1, 176, 598)"><g clip-path="url(#e865910118)"><g clip-path="url(#2bf6443f5f)"><g clip-path="url(#6d6917b2e4)"><path fill="#102412" d="M 0.441406 0.0859375 L 95.945312 0.0859375 L 95.945312 95.585938 L 0.441406 95.585938 Z M 0.441406 0.0859375 " fill-opacity="1" fill-rule="nonzero"/></g></g></g></g></g></g><g clip-path="url(#4ed48a6a63)"><g clip-path="url(#ec20631222)"><g transform="matrix(1, 0, 0, 1, 56, 598)"><g clip-path="url(#64a94611ff)"><g clip-path="url(#6c1eac4edb)"><g clip-path="url(#f2e652c4dd)"><path fill="#232323" d="M 0.246094 0.0859375 L 95.75 0.0859375 L 95.75 95.585938 L 0.246094 95.585938 Z M 0.246094 0.0859375 " fill-opacity="1" fill-rule="nonzero"/></g></g></g></g></g></g><g clip-path="url(#6f455846e6)"><g clip-path="url(#e1efa2fab5)"><g transform="matrix(1, 0, 0, 1, 657, 598)"><g clip-path="url(#d66c066f43)"><g clip-path="url(#5090dc5709)"><g clip-path="url(#0484d26da2)"><path fill="#382122" d="M 0.226562 0.0859375 L 95.730469 0.0859375 L 95.730469 95.585938 L 0.226562 95.585938 Z M 0.226562 0.0859375 " fill-opacity="1" fill-rule="nonzero"/></g></g></g></g></g></g><g clip-path="url(#9f973b4392)"><g clip-path="url(#3039f6401a)"><g transform="matrix(1, 0, 0, 1, 296, 598)"><g clip-path="url(#db772b592c)"><g clip-path="url(#bfab1f5afa)"><g clip-path="url(#4dfd1d7019)"><path fill="#1a2738" d="M 0.640625 0.0859375 L 96.140625 0.0859375 L 96.140625 95.585938 L 0.640625 95.585938 Z M 0.640625 0.0859375 " fill-opacity="1" fill-rule="nonzero"/></g></g></g></g></g></g><g clip-path="url(#828f9c59f3)"><g clip-path="url(#11925f3e9f)"><g transform="matrix(1, 0, 0, 1, 416, 598)"><g clip-path="url(#d34712de8d)"><g clip-path="url(#d5b46e57b0)"><g clip-path="url(#2bb68bcb6d)"><path fill="#271837" d="M 0.835938 0.0859375 L 96.339844 0.0859375 L 96.339844 95.585938 L 0.835938 95.585938 Z M 0.835938 0.0859375 " fill-opacity="1" fill-rule="nonzero"/></g></g></g></g></g></g><g clip-path="url(#bc105d8098)"><g clip-path="url(#1556013cee)"><g transform="matrix(1, 0, 0, 1, 537, 598)"><g clip-path="url(#9474fbf1ff)"><g clip-path="url(#a47bb694a1)"><g clip-path="url(#359ee1d95d)"><path fill="#2f220d" d="M 0.03125 0.0859375 L 95.535156 0.0859375 L 95.535156 95.585938 L 0.03125 95.585938 Z M 0.03125 0.0859375 " fill-opacity="1" fill-rule="nonzero"/></g></g></g></g></g></g><g fill="#ffffff" fill-opacity="1"><g transform="translate(56.281948, 58.577477)"><g><path d="M 6.0625 0.15625 C 5.019531 0.15625 4.082031 -0.0664062 3.25 -0.515625 C 2.414062 -0.972656 1.753906 -1.640625 1.265625 -2.515625 C 0.773438 -3.390625 0.53125 -4.460938 0.53125 -5.734375 C 0.53125 -7.003906 0.773438 -8.078125 1.265625 -8.953125 C 1.765625 -9.835938 2.429688 -10.503906 3.265625 -10.953125 C 4.109375 -11.398438 5.039062 -11.625 6.0625 -11.625 C 7.019531 -11.625 7.867188 -11.453125 8.609375 -11.109375 C 9.359375 -10.773438 9.960938 -10.285156 10.421875 -9.640625 C 10.890625 -8.992188 11.171875 -8.207031 11.265625 -7.28125 L 8.109375 -7.28125 C 8.046875 -7.769531 7.847656 -8.164062 7.515625 -8.46875 C 7.191406 -8.769531 6.738281 -8.921875 6.15625 -8.921875 C 5.375 -8.921875 4.773438 -8.640625 4.359375 -8.078125 C 3.941406 -7.515625 3.734375 -6.734375 3.734375 -5.734375 C 3.734375 -4.679688 3.941406 -3.890625 4.359375 -3.359375 C 4.785156 -2.828125 5.378906 -2.5625 6.140625 -2.5625 C 6.710938 -2.5625 7.164062 -2.707031 7.5 -3 C 7.84375 -3.300781 8.050781 -3.695312 8.125 -4.1875 L 11.28125 -4.1875 C 11.25 -3.695312 11.113281 -3.195312 10.875 -2.6875 C 10.644531 -2.1875 10.3125 -1.71875 9.875 -1.28125 C 9.445312 -0.851562 8.914062 -0.503906 8.28125 -0.234375 C 7.644531 0.0234375 6.90625 0.15625 6.0625 0.15625 Z M 6.0625 0.15625 "/></g></g></g><g fill="#ffffff" fill-opacity="1"><g transform="translate(68.064762, 58.577477)"><g><path d="M 4.9375 0.15625 C 4 0.15625 3.195312 -0.03125 2.53125 -0.40625 C 1.863281 -0.78125 1.351562 -1.296875 1 -1.953125 C 0.65625 -2.617188 0.484375 -3.394531 0.484375 -4.28125 C 0.484375 -5.164062 0.65625 -5.9375 1 -6.59375 C 1.351562 -7.257812 1.863281 -7.78125 2.53125 -8.15625 C 3.195312 -8.53125 4 -8.71875 4.9375 -8.71875 C 5.863281 -8.71875 6.660156 -8.53125 7.328125 -8.15625 C 7.992188 -7.78125 8.5 -7.257812 8.84375 -6.59375 C 9.195312 -5.9375 9.375 -5.164062 9.375 -4.28125 C 9.375 -3.394531 9.195312 -2.617188 8.84375 -1.953125 C 8.5 -1.296875 7.992188 -0.78125 7.328125 -0.40625 C 6.660156 -0.03125 5.863281 0.15625 4.9375 0.15625 Z M 4.9375 -2.15625 C 5.332031 -2.15625 5.644531 -2.34375 5.875 -2.71875 C 6.101562 -3.09375 6.21875 -3.617188 6.21875 -4.296875 C 6.21875 -4.972656 6.101562 -5.492188 5.875 -5.859375 C 5.644531 -6.222656 5.332031 -6.40625 4.9375 -6.40625 C 4.53125 -6.40625 4.210938 -6.222656 3.984375 -5.859375 C 3.753906 -5.492188 3.640625 -4.972656 3.640625 -4.296875 C 3.640625 -3.617188 3.753906 -3.09375 3.984375 -2.71875 C 4.210938 -2.34375 4.53125 -2.15625 4.9375 -2.15625 Z M 4.9375 -2.15625 "/></g></g></g><g fill="#ffffff" fill-opacity="1"><g transform="translate(77.915836, 58.577477)"><g><path d="M 0.78125 0 L 0.78125 -8.609375 L 3.78125 -8.609375 L 3.78125 -6.953125 L 3.875 -6.953125 C 4.03125 -7.566406 4.28125 -8.015625 4.625 -8.296875 C 4.96875 -8.578125 5.363281 -8.71875 5.8125 -8.71875 C 6.082031 -8.71875 6.347656 -8.675781 6.609375 -8.59375 L 6.609375 -5.953125 C 6.453125 -6.015625 6.257812 -6.054688 6.03125 -6.078125 C 5.8125 -6.097656 5.625 -6.109375 5.46875 -6.109375 C 5.007812 -6.109375 4.628906 -5.957031 4.328125 -5.65625 C 4.023438 -5.363281 3.875 -4.972656 3.875 -4.484375 L 3.875 0 Z M 0.78125 0 "/></g></g></g><g fill="#ffffff" fill-opacity="1"><g transform="translate(84.257132, 58.577477)"><g><path d="M 4.90625 0.15625 C 3.53125 0.15625 2.445312 -0.234375 1.65625 -1.015625 C 0.875 -1.796875 0.484375 -2.882812 0.484375 -4.28125 C 0.484375 -5.164062 0.660156 -5.941406 1.015625 -6.609375 C 1.367188 -7.273438 1.867188 -7.789062 2.515625 -8.15625 C 3.171875 -8.53125 3.941406 -8.71875 4.828125 -8.71875 C 5.703125 -8.71875 6.457031 -8.535156 7.09375 -8.171875 C 7.738281 -7.816406 8.234375 -7.3125 8.578125 -6.65625 C 8.929688 -6 9.109375 -5.210938 9.109375 -4.296875 L 9.109375 -3.59375 L 3.515625 -3.59375 C 3.535156 -3.050781 3.675781 -2.648438 3.9375 -2.390625 C 4.195312 -2.140625 4.539062 -2.015625 4.96875 -2.015625 C 5.289062 -2.015625 5.5625 -2.078125 5.78125 -2.203125 C 6.007812 -2.335938 6.171875 -2.523438 6.265625 -2.765625 L 8.984375 -2.359375 C 8.765625 -1.585938 8.304688 -0.972656 7.609375 -0.515625 C 6.910156 -0.0664062 6.007812 0.15625 4.90625 0.15625 Z M 3.53125 -5.28125 L 6.203125 -5.28125 C 6.097656 -6.125 5.648438 -6.546875 4.859375 -6.546875 C 4.066406 -6.546875 3.625 -6.125 3.53125 -5.28125 Z M 3.53125 -5.28125 "/></g></g></g><g fill="#ffffff" fill-opacity="1"><g transform="translate(93.815752, 58.577477)"><g/></g></g><g fill="#ffffff" fill-opacity="1"><g transform="translate(96.955782, 58.577477)"><g><path d="M 0.734375 0 L 0.734375 -11.46875 L 8.8125 -11.46875 L 8.8125 -8.953125 L 3.84375 -8.953125 L 3.84375 -6.375 L 8.3125 -6.375 L 8.3125 -3.921875 L 3.84375 -3.921875 L 3.84375 0 Z M 0.734375 0 "/></g></g></g><g fill="#ffffff" fill-opacity="1"><g transform="translate(106.006353, 58.577477)"><g><path d="M 3.1875 0.140625 C 2.363281 0.140625 1.691406 -0.0625 1.171875 -0.46875 C 0.648438 -0.882812 0.390625 -1.519531 0.390625 -2.375 C 0.390625 -3 0.523438 -3.503906 0.796875 -3.890625 C 1.078125 -4.273438 1.457031 -4.5625 1.9375 -4.75 C 2.414062 -4.945312 2.953125 -5.066406 3.546875 -5.109375 C 4.265625 -5.160156 4.773438 -5.234375 5.078125 -5.328125 C 5.378906 -5.429688 5.53125 -5.609375 5.53125 -5.859375 L 5.53125 -5.890625 C 5.53125 -6.117188 5.441406 -6.289062 5.265625 -6.40625 C 5.085938 -6.53125 4.851562 -6.59375 4.5625 -6.59375 C 4.269531 -6.59375 4.019531 -6.53125 3.8125 -6.40625 C 3.601562 -6.28125 3.472656 -6.082031 3.421875 -5.8125 L 0.625 -6.09375 C 0.707031 -6.582031 0.90625 -7.019531 1.21875 -7.40625 C 1.539062 -7.800781 1.984375 -8.117188 2.546875 -8.359375 C 3.109375 -8.597656 3.796875 -8.71875 4.609375 -8.71875 C 5.421875 -8.71875 6.128906 -8.59375 6.734375 -8.34375 C 7.335938 -8.09375 7.800781 -7.753906 8.125 -7.328125 C 8.457031 -6.898438 8.625 -6.421875 8.625 -5.890625 L 8.625 0 L 5.734375 0 L 5.734375 -1.21875 L 5.671875 -1.21875 C 5.398438 -0.738281 5.054688 -0.390625 4.640625 -0.171875 C 4.234375 0.0351562 3.75 0.140625 3.1875 0.140625 Z M 4.1875 -1.8125 C 4.539062 -1.8125 4.859375 -1.921875 5.140625 -2.140625 C 5.421875 -2.359375 5.5625 -2.660156 5.5625 -3.046875 L 5.5625 -3.75 C 5.238281 -3.632812 4.828125 -3.535156 4.328125 -3.453125 C 3.960938 -3.390625 3.695312 -3.28125 3.53125 -3.125 C 3.375 -2.96875 3.296875 -2.78125 3.296875 -2.5625 C 3.296875 -2.3125 3.378906 -2.125 3.546875 -2 C 3.710938 -1.875 3.925781 -1.8125 4.1875 -1.8125 Z M 4.1875 -1.8125 "/></g></g></g><g fill="#ffffff" fill-opacity="1"><g transform="translate(115.41105, 58.577477)"><g><path d="M 0.78125 0 L 0.78125 -8.609375 L 3.78125 -8.609375 L 3.78125 -6.953125 L 3.875 -6.953125 C 4.03125 -7.566406 4.28125 -8.015625 4.625 -8.296875 C 4.96875 -8.578125 5.363281 -8.71875 5.8125 -8.71875 C 6.082031 -8.71875 6.347656 -8.675781 6.609375 -8.59375 L 6.609375 -5.953125 C 6.453125 -6.015625 6.257812 -6.054688 6.03125 -6.078125 C 5.8125 -6.097656 5.625 -6.109375 5.46875 -6.109375 C 5.007812 -6.109375 4.628906 -5.957031 4.328125 -5.65625 C 4.023438 -5.363281 3.875 -4.972656 3.875 -4.484375 L 3.875 0 Z M 0.78125 0 "/></g></g></g><g fill="#ffffff" fill-opacity="1"><g transform="translate(122.491681, 58.577477)"><g><path d="M 6.3125 0.109375 C 5.707031 0.109375 5.203125 -0.0351562 4.796875 -0.328125 C 4.398438 -0.617188 4.109375 -0.984375 3.921875 -1.421875 L 3.84375 -1.421875 L 3.84375 0 L 0.78125 0 L 0.78125 -11.46875 L 3.875 -11.46875 L 3.875 -7.09375 L 3.921875 -7.09375 C 4.085938 -7.539062 4.375 -7.921875 4.78125 -8.234375 C 5.1875 -8.554688 5.707031 -8.71875 6.34375 -8.71875 C 6.914062 -8.71875 7.457031 -8.566406 7.96875 -8.265625 C 8.476562 -7.960938 8.894531 -7.484375 9.21875 -6.828125 C 9.539062 -6.179688 9.703125 -5.335938 9.703125 -4.296875 C 9.703125 -3.304688 9.546875 -2.484375 9.234375 -1.828125 C 8.929688 -1.179688 8.519531 -0.695312 8 -0.375 C 7.488281 -0.0507812 6.925781 0.109375 6.3125 0.109375 Z M 5.171875 -2.265625 C 5.597656 -2.265625 5.925781 -2.441406 6.15625 -2.796875 C 6.394531 -3.160156 6.515625 -3.660156 6.515625 -4.296875 C 6.515625 -4.929688 6.394531 -5.429688 6.15625 -5.796875 C 5.925781 -6.160156 5.597656 -6.34375 5.171875 -6.34375 C 4.753906 -6.34375 4.421875 -6.160156 4.171875 -5.796875 C 3.921875 -5.429688 3.796875 -4.929688 3.796875 -4.296875 C 3.796875 -3.671875 3.921875 -3.175781 4.171875 -2.8125 C 4.421875 -2.445312 4.753906 -2.265625 5.171875 -2.265625 Z M 5.171875 -2.265625 "/></g></g></g><g fill="#ffffff" fill-opacity="1"><g transform="translate(132.665993, 58.577477)"><g><path d="M 0.78125 3.21875 L 0.78125 -8.609375 L 3.84375 -8.609375 L 3.84375 -7.09375 L 3.921875 -7.09375 C 4.085938 -7.539062 4.375 -7.921875 4.78125 -8.234375 C 5.1875 -8.554688 5.707031 -8.71875 6.34375 -8.71875 C 6.914062 -8.71875 7.457031 -8.566406 7.96875 -8.265625 C 8.476562 -7.960938 8.894531 -7.484375 9.21875 -6.828125 C 9.539062 -6.179688 9.703125 -5.335938 9.703125 -4.296875 C 9.703125 -3.304688 9.546875 -2.484375 9.234375 -1.828125 C 8.929688 -1.179688 8.519531 -0.695312 8 -0.375 C 7.488281 -0.0507812 6.925781 0.109375 6.3125 0.109375 C 5.707031 0.109375 5.203125 -0.0351562 4.796875 -0.328125 C 4.398438 -0.617188 4.109375 -0.984375 3.921875 -1.421875 L 3.875 -1.421875 L 3.875 3.21875 Z M 5.171875 -2.265625 C 5.597656 -2.265625 5.925781 -2.441406 6.15625 -2.796875 C 6.394531 -3.160156 6.515625 -3.660156 6.515625 -4.296875 C 6.515625 -4.929688 6.394531 -5.429688 6.15625 -5.796875 C 5.925781 -6.160156 5.597656 -6.34375 5.171875 -6.34375 C 4.753906 -6.34375 4.421875 -6.160156 4.171875 -5.796875 C 3.921875 -5.429688 3.796875 -4.929688 3.796875 -4.296875 C 3.796875 -3.671875 3.921875 -3.175781 4.171875 -2.8125 C 4.421875 -2.445312 4.753906 -2.265625 5.171875 -2.265625 Z M 5.171875 -2.265625 "/></g></g></g><g fill="#ffffff" fill-opacity="1"><g transform="translate(142.994331, 58.577477)"><g><path d="M 3.1875 0.140625 C 2.363281 0.140625 1.691406 -0.0625 1.171875 -0.46875 C 0.648438 -0.882812 0.390625 -1.519531 0.390625 -2.375 C 0.390625 -3 0.523438 -3.503906 0.796875 -3.890625 C 1.078125 -4.273438 1.457031 -4.5625 1.9375 -4.75 C 2.414062 -4.945312 2.953125 -5.066406 3.546875 -5.109375 C 4.265625 -5.160156 4.773438 -5.234375 5.078125 -5.328125 C 5.378906 -5.429688 5.53125 -5.609375 5.53125 -5.859375 L 5.53125 -5.890625 C 5.53125 -6.117188 5.441406 -6.289062 5.265625 -6.40625 C 5.085938 -6.53125 4.851562 -6.59375 4.5625 -6.59375 C 4.269531 -6.59375 4.019531 -6.53125 3.8125 -6.40625 C 3.601562 -6.28125 3.472656 -6.082031 3.421875 -5.8125 L 0.625 -6.09375 C 0.707031 -6.582031 0.90625 -7.019531 1.21875 -7.40625 C 1.539062 -7.800781 1.984375 -8.117188 2.546875 -8.359375 C 3.109375 -8.597656 3.796875 -8.71875 4.609375 -8.71875 C 5.421875 -8.71875 6.128906 -8.59375 6.734375 -8.34375 C 7.335938 -8.09375 7.800781 -7.753906 8.125 -7.328125 C 8.457031 -6.898438 8.625 -6.421875 8.625 -5.890625 L 8.625 0 L 5.734375 0 L 5.734375 -1.21875 L 5.671875 -1.21875 C 5.398438 -0.738281 5.054688 -0.390625 4.640625 -0.171875 C 4.234375 0.0351562 3.75 0.140625 3.1875 0.140625 Z M 4.1875 -1.8125 C 4.539062 -1.8125 4.859375 -1.921875 5.140625 -2.140625 C 5.421875 -2.359375 5.5625 -2.660156 5.5625 -3.046875 L 5.5625 -3.75 C 5.238281 -3.632812 4.828125 -3.535156 4.328125 -3.453125 C 3.960938 -3.390625 3.695312 -3.28125 3.53125 -3.125 C 3.375 -2.96875 3.296875 -2.78125 3.296875 -2.5625 C 3.296875 -2.3125 3.378906 -2.125 3.546875 -2 C 3.710938 -1.875 3.925781 -1.8125 4.1875 -1.8125 Z M 4.1875 -1.8125 "/></g></g></g><g fill="#ffffff" fill-opacity="1"><g transform="translate(152.399028, 58.577477)"><g><path d="M 3.875 -11.46875 L 3.875 0 L 0.78125 0 L 0.78125 -11.46875 Z M 3.875 -11.46875 "/></g></g></g><g fill="#ffffff" fill-opacity="1"><g transform="translate(157.062896, 58.577477)"><g><path d="M 4.90625 0.15625 C 3.53125 0.15625 2.445312 -0.234375 1.65625 -1.015625 C 0.875 -1.796875 0.484375 -2.882812 0.484375 -4.28125 C 0.484375 -5.164062 0.660156 -5.941406 1.015625 -6.609375 C 1.367188 -7.273438 1.867188 -7.789062 2.515625 -8.15625 C 3.171875 -8.53125 3.941406 -8.71875 4.828125 -8.71875 C 5.703125 -8.71875 6.457031 -8.535156 7.09375 -8.171875 C 7.738281 -7.816406 8.234375 -7.3125 8.578125 -6.65625 C 8.929688 -6 9.109375 -5.210938 9.109375 -4.296875 L 9.109375 -3.59375 L 3.515625 -3.59375 C 3.535156 -3.050781 3.675781 -2.648438 3.9375 -2.390625 C 4.195312 -2.140625 4.539062 -2.015625 4.96875 -2.015625 C 5.289062 -2.015625 5.5625 -2.078125 5.78125 -2.203125 C 6.007812 -2.335938 6.171875 -2.523438 6.265625 -2.765625 L 8.984375 -2.359375 C 8.765625 -1.585938 8.304688 -0.972656 7.609375 -0.515625 C 6.910156 -0.0664062 6.007812 0.15625 4.90625 0.15625 Z M 3.53125 -5.28125 L 6.203125 -5.28125 C 6.097656 -6.125 5.648438 -6.546875 4.859375 -6.546875 C 4.066406 -6.546875 3.625 -6.125 3.53125 -5.28125 Z M 3.53125 -5.28125 "/></g></g></g><g fill="#ffffff" fill-opacity="1"><g transform="translate(166.621516, 58.577477)"><g><path d="M 5.8125 -8.609375 L 5.8125 -6.359375 L 4.34375 -6.359375 L 4.34375 -2.765625 C 4.34375 -2.398438 4.535156 -2.21875 4.921875 -2.21875 C 5.015625 -2.21875 5.148438 -2.226562 5.328125 -2.25 C 5.503906 -2.28125 5.625 -2.304688 5.6875 -2.328125 L 6.046875 -0.109375 C 5.691406 -0.015625 5.359375 0.046875 5.046875 0.078125 C 4.734375 0.109375 4.441406 0.125 4.171875 0.125 C 2.222656 0.125 1.25 -0.742188 1.25 -2.484375 L 1.25 -6.359375 L 0.15625 -6.359375 L 0.15625 -8.609375 L 1.25 -8.609375 L 1.25 -10.65625 L 4.34375 -10.65625 L 4.34375 -8.609375 Z M 5.8125 -8.609375 "/></g></g></g><g fill="#ffffff" fill-opacity="1"><g transform="translate(172.608916, 58.577477)"><g><path d="M 5.8125 -8.609375 L 5.8125 -6.359375 L 4.34375 -6.359375 L 4.34375 -2.765625 C 4.34375 -2.398438 4.535156 -2.21875 4.921875 -2.21875 C 5.015625 -2.21875 5.148438 -2.226562 5.328125 -2.25 C 5.503906 -2.28125 5.625 -2.304688 5.6875 -2.328125 L 6.046875 -0.109375 C 5.691406 -0.015625 5.359375 0.046875 5.046875 0.078125 C 4.734375 0.109375 4.441406 0.125 4.171875 0.125 C 2.222656 0.125 1.25 -0.742188 1.25 -2.484375 L 1.25 -6.359375 L 0.15625 -6.359375 L 0.15625 -8.609375 L 1.25 -8.609375 L 1.25 -10.65625 L 4.34375 -10.65625 L 4.34375 -8.609375 Z M 5.8125 -8.609375 "/></g></g></g><g fill="#ffffff" fill-opacity="1"><g transform="translate(178.750341, 58.577477)"><g><path d="M 4.90625 0.15625 C 3.53125 0.15625 2.445312 -0.234375 1.65625 -1.015625 C 0.875 -1.796875 0.484375 -2.882812 0.484375 -4.28125 C 0.484375 -5.164062 0.660156 -5.941406 1.015625 -6.609375 C 1.367188 -7.273438 1.867188 -7.789062 2.515625 -8.15625 C 3.171875 -8.53125 3.941406 -8.71875 4.828125 -8.71875 C 5.703125 -8.71875 6.457031 -8.535156 7.09375 -8.171875 C 7.738281 -7.816406 8.234375 -7.3125 8.578125 -6.65625 C 8.929688 -6 9.109375 -5.210938 9.109375 -4.296875 L 9.109375 -3.59375 L 3.515625 -3.59375 C 3.535156 -3.050781 3.675781 -2.648438 3.9375 -2.390625 C 4.195312 -2.140625 4.539062 -2.015625 4.96875 -2.015625 C 5.289062 -2.015625 5.5625 -2.078125 5.78125 -2.203125 C 6.007812 -2.335938 6.171875 -2.523438 6.265625 -2.765625 L 8.984375 -2.359375 C 8.765625 -1.585938 8.304688 -0.972656 7.609375 -0.515625 C 6.910156 -0.0664062 6.007812 0.15625 4.90625 0.15625 Z M 3.53125 -5.28125 L 6.203125 -5.28125 C 6.097656 -6.125 5.648438 -6.546875 4.859375 -6.546875 C 4.066406 -6.546875 3.625 -6.125 3.53125 -5.28125 Z M 3.53125 -5.28125 "/></g></g></g><g fill="#ffffff" fill-opacity="1"><g transform="translate(56.293667, 347.47008)"><g><path d="M 0.734375 0 L 0.734375 -11.46875 L 5.71875 -11.46875 C 7.019531 -11.46875 8.007812 -11.207031 8.6875 -10.6875 C 9.375 -10.175781 9.71875 -9.484375 9.71875 -8.609375 C 9.71875 -7.972656 9.515625 -7.425781 9.109375 -6.96875 C 8.703125 -6.519531 8.164062 -6.226562 7.5 -6.09375 L 7.5 -5.96875 C 7.988281 -5.957031 8.4375 -5.835938 8.84375 -5.609375 C 9.25 -5.378906 9.566406 -5.0625 9.796875 -4.65625 C 10.035156 -4.257812 10.15625 -3.789062 10.15625 -3.25 C 10.15625 -2.625 9.992188 -2.066406 9.671875 -1.578125 C 9.347656 -1.085938 8.882812 -0.703125 8.28125 -0.421875 C 7.6875 -0.140625 6.972656 0 6.140625 0 Z M 3.84375 -2.484375 L 5.3125 -2.484375 C 6.351562 -2.484375 6.875 -2.875 6.875 -3.65625 C 6.875 -4.050781 6.738281 -4.359375 6.46875 -4.578125 C 6.195312 -4.796875 5.828125 -4.90625 5.359375 -4.90625 L 3.84375 -4.90625 Z M 3.84375 -6.828125 L 5.125 -6.828125 C 5.539062 -6.828125 5.875 -6.921875 6.125 -7.109375 C 6.382812 -7.296875 6.515625 -7.566406 6.515625 -7.921875 C 6.515625 -8.273438 6.382812 -8.546875 6.125 -8.734375 C 5.875 -8.921875 5.554688 -9.015625 5.171875 -9.015625 L 3.84375 -9.015625 Z M 3.84375 -6.828125 "/></g></g></g><g fill="#ffffff" fill-opacity="1"><g transform="translate(66.822002, 347.47008)"><g><path d="M 3.78125 0.109375 C 3.175781 0.109375 2.648438 -0.0234375 2.203125 -0.296875 C 1.753906 -0.578125 1.40625 -0.960938 1.15625 -1.453125 C 0.90625 -1.941406 0.78125 -2.5 0.78125 -3.125 L 0.78125 -8.609375 L 3.875 -8.609375 L 3.875 -3.765625 C 3.875 -3.347656 3.984375 -3.015625 4.203125 -2.765625 C 4.421875 -2.523438 4.722656 -2.40625 5.109375 -2.40625 C 5.492188 -2.40625 5.796875 -2.523438 6.015625 -2.765625 C 6.242188 -3.015625 6.359375 -3.347656 6.359375 -3.765625 L 6.359375 -8.609375 L 9.453125 -8.609375 L 9.453125 0 L 6.546875 0 L 6.5 -1.9375 C 6.289062 -1.351562 5.96875 -0.863281 5.53125 -0.46875 C 5.101562 -0.0820312 4.519531 0.109375 3.78125 0.109375 Z M 3.78125 0.109375 "/></g></g></g><g fill="#ffffff" fill-opacity="1"><g transform="translate(77.057884, 347.47008)"><g><path d="M 3.875 -4.828125 L 3.875 0 L 0.78125 0 L 0.78125 -8.609375 L 3.6875 -8.609375 L 3.734375 -6.671875 C 3.953125 -7.253906 4.273438 -7.738281 4.703125 -8.125 C 5.128906 -8.519531 5.710938 -8.71875 6.453125 -8.71875 C 7.054688 -8.71875 7.582031 -8.578125 8.03125 -8.296875 C 8.488281 -8.023438 8.835938 -7.644531 9.078125 -7.15625 C 9.328125 -6.664062 9.453125 -6.109375 9.453125 -5.484375 L 9.453125 0 L 6.359375 0 L 6.359375 -4.828125 C 6.359375 -5.253906 6.25 -5.585938 6.03125 -5.828125 C 5.820312 -6.078125 5.519531 -6.203125 5.125 -6.203125 C 4.75 -6.203125 4.445312 -6.078125 4.21875 -5.828125 C 3.988281 -5.585938 3.875 -5.253906 3.875 -4.828125 Z M 3.875 -4.828125 "/></g></g></g><g fill="#ffffff" fill-opacity="1"><g transform="translate(87.293765, 347.47008)"><g><path d="M 5.8125 -8.609375 L 5.8125 -6.359375 L 4.34375 -6.359375 L 4.34375 -2.765625 C 4.34375 -2.398438 4.535156 -2.21875 4.921875 -2.21875 C 5.015625 -2.21875 5.148438 -2.226562 5.328125 -2.25 C 5.503906 -2.28125 5.625 -2.304688 5.6875 -2.328125 L 6.046875 -0.109375 C 5.691406 -0.015625 5.359375 0.046875 5.046875 0.078125 C 4.734375 0.109375 4.441406 0.125 4.171875 0.125 C 2.222656 0.125 1.25 -0.742188 1.25 -2.484375 L 1.25 -6.359375 L 0.15625 -6.359375 L 0.15625 -8.609375 L 1.25 -8.609375 L 1.25 -10.65625 L 4.34375 -10.65625 L 4.34375 -8.609375 Z M 5.8125 -8.609375 "/></g></g></g><g fill="#ffffff" fill-opacity="1"><g transform="translate(93.435191, 347.47008)"><g><path d="M 4.90625 0.15625 C 3.53125 0.15625 2.445312 -0.234375 1.65625 -1.015625 C 0.875 -1.796875 0.484375 -2.882812 0.484375 -4.28125 C 0.484375 -5.164062 0.660156 -5.941406 1.015625 -6.609375 C 1.367188 -7.273438 1.867188 -7.789062 2.515625 -8.15625 C 3.171875 -8.53125 3.941406 -8.71875 4.828125 -8.71875 C 5.703125 -8.71875 6.457031 -8.535156 7.09375 -8.171875 C 7.738281 -7.816406 8.234375 -7.3125 8.578125 -6.65625 C 8.929688 -6 9.109375 -5.210938 9.109375 -4.296875 L 9.109375 -3.59375 L 3.515625 -3.59375 C 3.535156 -3.050781 3.675781 -2.648438 3.9375 -2.390625 C 4.195312 -2.140625 4.539062 -2.015625 4.96875 -2.015625 C 5.289062 -2.015625 5.5625 -2.078125 5.78125 -2.203125 C 6.007812 -2.335938 6.171875 -2.523438 6.265625 -2.765625 L 8.984375 -2.359375 C 8.765625 -1.585938 8.304688 -0.972656 7.609375 -0.515625 C 6.910156 -0.0664062 6.007812 0.15625 4.90625 0.15625 Z M 3.53125 -5.28125 L 6.203125 -5.28125 C 6.097656 -6.125 5.648438 -6.546875 4.859375 -6.546875 C 4.066406 -6.546875 3.625 -6.125 3.53125 -5.28125 Z M 3.53125 -5.28125 "/></g></g></g><g fill="#ffffff" fill-opacity="1"><g transform="translate(102.993811, 347.47008)"><g/></g></g><g fill="#ffffff" fill-opacity="1"><g transform="translate(106.13384, 347.47008)"><g><path d="M 0.734375 0 L 0.734375 -11.46875 L 8.8125 -11.46875 L 8.8125 -8.953125 L 3.84375 -8.953125 L 3.84375 -6.375 L 8.3125 -6.375 L 8.3125 -3.921875 L 3.84375 -3.921875 L 3.84375 0 Z M 0.734375 0 "/></g></g></g><g fill="#ffffff" fill-opacity="1"><g transform="translate(115.184411, 347.47008)"><g><path d="M 3.1875 0.140625 C 2.363281 0.140625 1.691406 -0.0625 1.171875 -0.46875 C 0.648438 -0.882812 0.390625 -1.519531 0.390625 -2.375 C 0.390625 -3 0.523438 -3.503906 0.796875 -3.890625 C 1.078125 -4.273438 1.457031 -4.5625 1.9375 -4.75 C 2.414062 -4.945312 2.953125 -5.066406 3.546875 -5.109375 C 4.265625 -5.160156 4.773438 -5.234375 5.078125 -5.328125 C 5.378906 -5.429688 5.53125 -5.609375 5.53125 -5.859375 L 5.53125 -5.890625 C 5.53125 -6.117188 5.441406 -6.289062 5.265625 -6.40625 C 5.085938 -6.53125 4.851562 -6.59375 4.5625 -6.59375 C 4.269531 -6.59375 4.019531 -6.53125 3.8125 -6.40625 C 3.601562 -6.28125 3.472656 -6.082031 3.421875 -5.8125 L 0.625 -6.09375 C 0.707031 -6.582031 0.90625 -7.019531 1.21875 -7.40625 C 1.539062 -7.800781 1.984375 -8.117188 2.546875 -8.359375 C 3.109375 -8.597656 3.796875 -8.71875 4.609375 -8.71875 C 5.421875 -8.71875 6.128906 -8.59375 6.734375 -8.34375 C 7.335938 -8.09375 7.800781 -7.753906 8.125 -7.328125 C 8.457031 -6.898438 8.625 -6.421875 8.625 -5.890625 L 8.625 0 L 5.734375 0 L 5.734375 -1.21875 L 5.671875 -1.21875 C 5.398438 -0.738281 5.054688 -0.390625 4.640625 -0.171875 C 4.234375 0.0351562 3.75 0.140625 3.1875 0.140625 Z M 4.1875 -1.8125 C 4.539062 -1.8125 4.859375 -1.921875 5.140625 -2.140625 C 5.421875 -2.359375 5.5625 -2.660156 5.5625 -3.046875 L 5.5625 -3.75 C 5.238281 -3.632812 4.828125 -3.535156 4.328125 -3.453125 C 3.960938 -3.390625 3.695312 -3.28125 3.53125 -3.125 C 3.375 -2.96875 3.296875 -2.78125 3.296875 -2.5625 C 3.296875 -2.3125 3.378906 -2.125 3.546875 -2 C 3.710938 -1.875 3.925781 -1.8125 4.1875 -1.8125 Z M 4.1875 -1.8125 "/></g></g></g><g fill="#ffffff" fill-opacity="1"><g transform="translate(124.589108, 347.47008)"><g><path d="M 0.78125 0 L 0.78125 -8.609375 L 3.78125 -8.609375 L 3.78125 -6.953125 L 3.875 -6.953125 C 4.03125 -7.566406 4.28125 -8.015625 4.625 -8.296875 C 4.96875 -8.578125 5.363281 -8.71875 5.8125 -8.71875 C 6.082031 -8.71875 6.347656 -8.675781 6.609375 -8.59375 L 6.609375 -5.953125 C 6.453125 -6.015625 6.257812 -6.054688 6.03125 -6.078125 C 5.8125 -6.097656 5.625 -6.109375 5.46875 -6.109375 C 5.007812 -6.109375 4.628906 -5.957031 4.328125 -5.65625 C 4.023438 -5.363281 3.875 -4.972656 3.875 -4.484375 L 3.875 0 Z M 0.78125 0 "/></g></g></g><g fill="#ffffff" fill-opacity="1"><g transform="translate(131.669739, 347.47008)"><g><path d="M 6.3125 0.109375 C 5.707031 0.109375 5.203125 -0.0351562 4.796875 -0.328125 C 4.398438 -0.617188 4.109375 -0.984375 3.921875 -1.421875 L 3.84375 -1.421875 L 3.84375 0 L 0.78125 0 L 0.78125 -11.46875 L 3.875 -11.46875 L 3.875 -7.09375 L 3.921875 -7.09375 C 4.085938 -7.539062 4.375 -7.921875 4.78125 -8.234375 C 5.1875 -8.554688 5.707031 -8.71875 6.34375 -8.71875 C 6.914062 -8.71875 7.457031 -8.566406 7.96875 -8.265625 C 8.476562 -7.960938 8.894531 -7.484375 9.21875 -6.828125 C 9.539062 -6.179688 9.703125 -5.335938 9.703125 -4.296875 C 9.703125 -3.304688 9.546875 -2.484375 9.234375 -1.828125 C 8.929688 -1.179688 8.519531 -0.695312 8 -0.375 C 7.488281 -0.0507812 6.925781 0.109375 6.3125 0.109375 Z M 5.171875 -2.265625 C 5.597656 -2.265625 5.925781 -2.441406 6.15625 -2.796875 C 6.394531 -3.160156 6.515625 -3.660156 6.515625 -4.296875 C 6.515625 -4.929688 6.394531 -5.429688 6.15625 -5.796875 C 5.925781 -6.160156 5.597656 -6.34375 5.171875 -6.34375 C 4.753906 -6.34375 4.421875 -6.160156 4.171875 -5.796875 C 3.921875 -5.429688 3.796875 -4.929688 3.796875 -4.296875 C 3.796875 -3.671875 3.921875 -3.175781 4.171875 -2.8125 C 4.421875 -2.445312 4.753906 -2.265625 5.171875 -2.265625 Z M 5.171875 -2.265625 "/></g></g></g><g fill="#ffffff" fill-opacity="1"><g transform="translate(141.844051, 347.47008)"><g><path d="M 0.78125 3.21875 L 0.78125 -8.609375 L 3.84375 -8.609375 L 3.84375 -7.09375 L 3.921875 -7.09375 C 4.085938 -7.539062 4.375 -7.921875 4.78125 -8.234375 C 5.1875 -8.554688 5.707031 -8.71875 6.34375 -8.71875 C 6.914062 -8.71875 7.457031 -8.566406 7.96875 -8.265625 C 8.476562 -7.960938 8.894531 -7.484375 9.21875 -6.828125 C 9.539062 -6.179688 9.703125 -5.335938 9.703125 -4.296875 C 9.703125 -3.304688 9.546875 -2.484375 9.234375 -1.828125 C 8.929688 -1.179688 8.519531 -0.695312 8 -0.375 C 7.488281 -0.0507812 6.925781 0.109375 6.3125 0.109375 C 5.707031 0.109375 5.203125 -0.0351562 4.796875 -0.328125 C 4.398438 -0.617188 4.109375 -0.984375 3.921875 -1.421875 L 3.875 -1.421875 L 3.875 3.21875 Z M 5.171875 -2.265625 C 5.597656 -2.265625 5.925781 -2.441406 6.15625 -2.796875 C 6.394531 -3.160156 6.515625 -3.660156 6.515625 -4.296875 C 6.515625 -4.929688 6.394531 -5.429688 6.15625 -5.796875 C 5.925781 -6.160156 5.597656 -6.34375 5.171875 -6.34375 C 4.753906 -6.34375 4.421875 -6.160156 4.171875 -5.796875 C 3.921875 -5.429688 3.796875 -4.929688 3.796875 -4.296875 C 3.796875 -3.671875 3.921875 -3.175781 4.171875 -2.8125 C 4.421875 -2.445312 4.753906 -2.265625 5.171875 -2.265625 Z M 5.171875 -2.265625 "/></g></g></g><g fill="#ffffff" fill-opacity="1"><g transform="translate(152.172389, 347.47008)"><g><path d="M 3.1875 0.140625 C 2.363281 0.140625 1.691406 -0.0625 1.171875 -0.46875 C 0.648438 -0.882812 0.390625 -1.519531 0.390625 -2.375 C 0.390625 -3 0.523438 -3.503906 0.796875 -3.890625 C 1.078125 -4.273438 1.457031 -4.5625 1.9375 -4.75 C 2.414062 -4.945312 2.953125 -5.066406 3.546875 -5.109375 C 4.265625 -5.160156 4.773438 -5.234375 5.078125 -5.328125 C 5.378906 -5.429688 5.53125 -5.609375 5.53125 -5.859375 L 5.53125 -5.890625 C 5.53125 -6.117188 5.441406 -6.289062 5.265625 -6.40625 C 5.085938 -6.53125 4.851562 -6.59375 4.5625 -6.59375 C 4.269531 -6.59375 4.019531 -6.53125 3.8125 -6.40625 C 3.601562 -6.28125 3.472656 -6.082031 3.421875 -5.8125 L 0.625 -6.09375 C 0.707031 -6.582031 0.90625 -7.019531 1.21875 -7.40625 C 1.539062 -7.800781 1.984375 -8.117188 2.546875 -8.359375 C 3.109375 -8.597656 3.796875 -8.71875 4.609375 -8.71875 C 5.421875 -8.71875 6.128906 -8.59375 6.734375 -8.34375 C 7.335938 -8.09375 7.800781 -7.753906 8.125 -7.328125 C 8.457031 -6.898438 8.625 -6.421875 8.625 -5.890625 L 8.625 0 L 5.734375 0 L 5.734375 -1.21875 L 5.671875 -1.21875 C 5.398438 -0.738281 5.054688 -0.390625 4.640625 -0.171875 C 4.234375 0.0351562 3.75 0.140625 3.1875 0.140625 Z M 4.1875 -1.8125 C 4.539062 -1.8125 4.859375 -1.921875 5.140625 -2.140625 C 5.421875 -2.359375 5.5625 -2.660156 5.5625 -3.046875 L 5.5625 -3.75 C 5.238281 -3.632812 4.828125 -3.535156 4.328125 -3.453125 C 3.960938 -3.390625 3.695312 -3.28125 3.53125 -3.125 C 3.375 -2.96875 3.296875 -2.78125 3.296875 -2.5625 C 3.296875 -2.3125 3.378906 -2.125 3.546875 -2 C 3.710938 -1.875 3.925781 -1.8125 4.1875 -1.8125 Z M 4.1875 -1.8125 "/></g></g></g><g fill="#ffffff" fill-opacity="1"><g transform="translate(161.577086, 347.47008)"><g><path d="M 3.875 -11.46875 L 3.875 0 L 0.78125 0 L 0.78125 -11.46875 Z M 3.875 -11.46875 "/></g></g></g><g fill="#ffffff" fill-opacity="1"><g transform="translate(166.240954, 347.47008)"><g><path d="M 4.90625 0.15625 C 3.53125 0.15625 2.445312 -0.234375 1.65625 -1.015625 C 0.875 -1.796875 0.484375 -2.882812 0.484375 -4.28125 C 0.484375 -5.164062 0.660156 -5.941406 1.015625 -6.609375 C 1.367188 -7.273438 1.867188 -7.789062 2.515625 -8.15625 C 3.171875 -8.53125 3.941406 -8.71875 4.828125 -8.71875 C 5.703125 -8.71875 6.457031 -8.535156 7.09375 -8.171875 C 7.738281 -7.816406 8.234375 -7.3125 8.578125 -6.65625 C 8.929688 -6 9.109375 -5.210938 9.109375 -4.296875 L 9.109375 -3.59375 L 3.515625 -3.59375 C 3.535156 -3.050781 3.675781 -2.648438 3.9375 -2.390625 C 4.195312 -2.140625 4.539062 -2.015625 4.96875 -2.015625 C 5.289062 -2.015625 5.5625 -2.078125 5.78125 -2.203125 C 6.007812 -2.335938 6.171875 -2.523438 6.265625 -2.765625 L 8.984375 -2.359375 C 8.765625 -1.585938 8.304688 -0.972656 7.609375 -0.515625 C 6.910156 -0.0664062 6.007812 0.15625 4.90625 0.15625 Z M 3.53125 -5.28125 L 6.203125 -5.28125 C 6.097656 -6.125 5.648438 -6.546875 4.859375 -6.546875 C 4.066406 -6.546875 3.625 -6.125 3.53125 -5.28125 Z M 3.53125 -5.28125 "/></g></g></g><g fill="#ffffff" fill-opacity="1"><g transform="translate(175.799574, 347.47008)"><g><path d="M 5.8125 -8.609375 L 5.8125 -6.359375 L 4.34375 -6.359375 L 4.34375 -2.765625 C 4.34375 -2.398438 4.535156 -2.21875 4.921875 -2.21875 C 5.015625 -2.21875 5.148438 -2.226562 5.328125 -2.25 C 5.503906 -2.28125 5.625 -2.304688 5.6875 -2.328125 L 6.046875 -0.109375 C 5.691406 -0.015625 5.359375 0.046875 5.046875 0.078125 C 4.734375 0.109375 4.441406 0.125 4.171875 0.125 C 2.222656 0.125 1.25 -0.742188 1.25 -2.484375 L 1.25 -6.359375 L 0.15625 -6.359375 L 0.15625 -8.609375 L 1.25 -8.609375 L 1.25 -10.65625 L 4.34375 -10.65625 L 4.34375 -8.609375 Z M 5.8125 -8.609375 "/></g></g></g><g fill="#ffffff" fill-opacity="1"><g transform="translate(181.786974, 347.47008)"><g><path d="M 5.8125 -8.609375 L 5.8125 -6.359375 L 4.34375 -6.359375 L 4.34375 -2.765625 C 4.34375 -2.398438 4.535156 -2.21875 4.921875 -2.21875 C 5.015625 -2.21875 5.148438 -2.226562 5.328125 -2.25 C 5.503906 -2.28125 5.625 -2.304688 5.6875 -2.328125 L 6.046875 -0.109375 C 5.691406 -0.015625 5.359375 0.046875 5.046875 0.078125 C 4.734375 0.109375 4.441406 0.125 4.171875 0.125 C 2.222656 0.125 1.25 -0.742188 1.25 -2.484375 L 1.25 -6.359375 L 0.15625 -6.359375 L 0.15625 -8.609375 L 1.25 -8.609375 L 1.25 -10.65625 L 4.34375 -10.65625 L 4.34375 -8.609375 Z M 5.8125 -8.609375 "/></g></g></g><g fill="#ffffff" fill-opacity="1"><g transform="translate(187.9284, 347.47008)"><g><path d="M 4.90625 0.15625 C 3.53125 0.15625 2.445312 -0.234375 1.65625 -1.015625 C 0.875 -1.796875 0.484375 -2.882812 0.484375 -4.28125 C 0.484375 -5.164062 0.660156 -5.941406 1.015625 -6.609375 C 1.367188 -7.273438 1.867188 -7.789062 2.515625 -8.15625 C 3.171875 -8.53125 3.941406 -8.71875 4.828125 -8.71875 C 5.703125 -8.71875 6.457031 -8.535156 7.09375 -8.171875 C 7.738281 -7.816406 8.234375 -7.3125 8.578125 -6.65625 C 8.929688 -6 9.109375 -5.210938 9.109375 -4.296875 L 9.109375 -3.59375 L 3.515625 -3.59375 C 3.535156 -3.050781 3.675781 -2.648438 3.9375 -2.390625 C 4.195312 -2.140625 4.539062 -2.015625 4.96875 -2.015625 C 5.289062 -2.015625 5.5625 -2.078125 5.78125 -2.203125 C 6.007812 -2.335938 6.171875 -2.523438 6.265625 -2.765625 L 8.984375 -2.359375 C 8.765625 -1.585938 8.304688 -0.972656 7.609375 -0.515625 C 6.910156 -0.0664062 6.007812 0.15625 4.90625 0.15625 Z M 3.53125 -5.28125 L 6.203125 -5.28125 C 6.097656 -6.125 5.648438 -6.546875 4.859375 -6.546875 C 4.066406 -6.546875 3.625 -6.125 3.53125 -5.28125 Z M 3.53125 -5.28125 "/></g></g></g><g clip-path="url(#7a4a6a4931)"><g clip-path="url(#11efa66f72)"><g transform="matrix(1, 0, 0, 1, 296, 194)"><g clip-path="url(#0f202b31d1)"><g clip-path="url(#ad012adefd)"><g clip-path="url(#50354610bc)"><path fill="#fafafa" d="M 0.472656 0.757812 L 95.972656 0.757812 L 95.972656 96.257812 L 0.472656 96.257812 Z M 0.472656 0.757812 " fill-opacity="1" fill-rule="nonzero"/></g></g></g></g></g></g><g clip-path="url(#cdffc83776)"><g clip-path="url(#681203dd8b)"><g transform="matrix(1, 0, 0, 1, 56, 369)"><g clip-path="url(#91650ff0a4)"><g clip-path="url(#7707d18036)"><g clip-path="url(#7f44f66bf5)"><path fill="#b4b4b4" d="M 0.246094 0.894531 L 95.75 0.894531 L 95.75 96.394531 L 0.246094 96.394531 Z M 0.246094 0.894531 " fill-opacity="1" fill-rule="nonzero"/></g></g></g></g></g></g><g clip-path="url(#18a7acc78c)"><g clip-path="url(#b435f1887e)"><g transform="matrix(1, 0, 0, 1, 176, 369)"><g clip-path="url(#cf95444feb)"><g clip-path="url(#dd15b1cd42)"><g clip-path="url(#3d518ebf48)"><path fill="#7ee489" d="M 0.441406 0.894531 L 95.945312 0.894531 L 95.945312 96.394531 L 0.441406 96.394531 Z M 0.441406 0.894531 " fill-opacity="1" fill-rule="nonzero"/></g></g></g></g></g></g><g clip-path="url(#c58a089d5b)"><g clip-path="url(#ef228ef638)"><g transform="matrix(1, 0, 0, 1, 296, 369)"><g clip-path="url(#df48cae271)"><g clip-path="url(#dfb39ecb30)"><g clip-path="url(#1778f983fa)"><path fill="#8cbaff" d="M 0.640625 0.894531 L 96.140625 0.894531 L 96.140625 96.394531 L 0.640625 96.394531 Z M 0.640625 0.894531 " fill-opacity="1" fill-rule="nonzero"/></g></g></g></g></g></g><g clip-path="url(#ed6e96a8d9)"><g clip-path="url(#6cc5286531)"><g transform="matrix(1, 0, 0, 1, 416, 369)"><g clip-path="url(#ca2b4ad67b)"><g clip-path="url(#0975d2fec9)"><g clip-path="url(#67cc99b091)"><path fill="#cb98ff" d="M 0.835938 0.894531 L 96.339844 0.894531 L 96.339844 96.394531 L 0.835938 96.394531 Z M 0.835938 0.894531 " fill-opacity="1" fill-rule="nonzero"/></g></g></g></g></g></g><g clip-path="url(#373e1536d8)"><g clip-path="url(#ab7cb5fe33)"><g transform="matrix(1, 0, 0, 1, 537, 369)"><g clip-path="url(#62019bb134)"><g clip-path="url(#2327b63a15)"><g clip-path="url(#ebfc4267cf)"><path fill="#ffcb7c" d="M 0.03125 0.894531 L 95.535156 0.894531 L 95.535156 96.394531 L 0.03125 96.394531 Z M 0.03125 0.894531 " fill-opacity="1" fill-rule="nonzero"/></g></g></g></g></g></g><g clip-path="url(#9a76b9514c)"><g clip-path="url(#f53ecc8717)"><g transform="matrix(1, 0, 0, 1, 657, 369)"><g clip-path="url(#1e58a5fa00)"><g clip-path="url(#f2f539336f)"><g clip-path="url(#11da4dc72f)"><path fill="#ef5857" d="M 0.226562 0.894531 L 95.730469 0.894531 L 95.730469 96.394531 L 0.226562 96.394531 Z M 0.226562 0.894531 " fill-opacity="1" fill-rule="nonzero"/></g></g></g></g></g></g></svg>