<svg xmlns="http://www.w3.org/2000/svg" xmlns:xlink="http://www.w3.org/1999/xlink" width="353" zoomAndPan="magnify" viewBox="0 0 264.75 29.25" height="39" preserveAspectRatio="xMidYMid meet" version="1.0"><defs><clipPath id="d05acb1bd3"><path d="M 3.1875 0 L 261.273438 0 L 261.273438 27.972656 L 3.1875 27.972656 Z M 3.1875 0 " clip-rule="nonzero"/></clipPath><clipPath id="a68fd3d103"><path d="M 16.917969 0 L 247.519531 0 C 255.101562 0 261.25 6.148438 261.25 13.730469 L 261.25 14.238281 C 261.25 21.824219 255.101562 27.972656 247.519531 27.972656 L 16.917969 27.972656 C 9.335938 27.972656 3.1875 21.824219 3.1875 14.238281 L 3.1875 13.730469 C 3.1875 6.148438 9.335938 0 16.917969 0 Z M 16.917969 0 " clip-rule="nonzero"/></clipPath><clipPath id="aafc759797"><path d="M 0.1875 0 L 258.273438 0 L 258.273438 27.972656 L 0.1875 27.972656 Z M 0.1875 0 " clip-rule="nonzero"/></clipPath><clipPath id="121f7d010d"><path d="M 13.917969 0 L 244.519531 0 C 252.101562 0 258.25 6.148438 258.25 13.730469 L 258.25 14.238281 C 258.25 21.824219 252.101562 27.972656 244.519531 27.972656 L 13.917969 27.972656 C 6.335938 27.972656 0.1875 21.824219 0.1875 14.238281 L 0.1875 13.730469 C 0.1875 6.148438 6.335938 0 13.917969 0 Z M 13.917969 0 " clip-rule="nonzero"/></clipPath><clipPath id="1e2be263dc"><rect x="0" width="259" y="0" height="28"/></clipPath><clipPath id="1b58323ff1"><path d="M 3.195312 0 L 261.320312 0 L 261.320312 27.789062 L 3.195312 27.789062 Z M 3.195312 0 " clip-rule="nonzero"/></clipPath><clipPath id="2ff788ab22"><path d="M 16.925781 0 L 247.511719 0 C 255.09375 0 261.242188 6.148438 261.242188 13.730469 L 261.242188 14.238281 C 261.242188 21.824219 255.09375 27.96875 247.511719 27.96875 L 16.925781 27.96875 C 9.34375 27.96875 3.195312 21.824219 3.195312 14.238281 L 3.195312 13.730469 C 3.195312 6.148438 9.34375 0 16.925781 0 Z M 16.925781 0 " clip-rule="nonzero"/></clipPath></defs><g clip-path="url(#d05acb1bd3)"><g clip-path="url(#a68fd3d103)"><g transform="matrix(1, 0, 0, 1, 3, -0.000000000000002597)"><g clip-path="url(#1e2be263dc)"><g clip-path="url(#aafc759797)"><g clip-path="url(#121f7d010d)"><path fill="#1a2427" d="M 0.1875 0 L 258.273438 0 L 258.273438 27.972656 L 0.1875 27.972656 Z M 0.1875 0 " fill-opacity="1" fill-rule="nonzero"/></g></g></g></g></g></g><g clip-path="url(#1b58323ff1)"><g clip-path="url(#2ff788ab22)"><path stroke-linecap="butt" transform="matrix(0.73125, 0, 0, 0.73125, 3.1875, 0.000000975)" fill="none" stroke-linejoin="miter" d="M 18.787395 -0.00000133333 L 334.118625 -0.00000133333 C 344.487216 -0.00000133333 352.895336 8.408119 352.895336 18.77671 L 352.895336 19.471155 C 352.895336 29.845087 344.487216 38.247866 334.118625 38.247866 L 18.787395 38.247866 C 8.418804 38.247866 0.0106838 29.845087 0.0106838 19.471155 L 0.0106838 18.77671 C 0.0106838 8.408119 8.418804 -0.00000133333 18.787395 -0.00000133333 Z M 18.787395 -0.00000133333 " stroke="#274234" stroke-width="6" stroke-opacity="1" stroke-miterlimit="4"/></g></g></svg>