<svg xmlns="http://www.w3.org/2000/svg" xmlns:xlink="http://www.w3.org/1999/xlink" width="396" zoomAndPan="magnify" viewBox="0 0 297 426.749984" height="569" preserveAspectRatio="xMidYMid meet" version="1.0"><defs><clipPath id="0ec7d604fa"><path d="M 0.0859375 0 L 296.511719 0 L 296.511719 426.5 L 0.0859375 426.5 Z M 0.0859375 0 " clip-rule="nonzero"/></clipPath><clipPath id="e55a76cc5d"><path d="M 14.164062 0 L 282.433594 0 C 290.207031 0 296.511719 6.300781 296.511719 14.078125 L 296.511719 412.0625 C 296.511719 419.835938 290.207031 426.140625 282.433594 426.140625 L 14.164062 426.140625 C 6.390625 426.140625 0.0859375 419.835938 0.0859375 412.0625 L 0.0859375 14.078125 C 0.0859375 6.300781 6.390625 0 14.164062 0 Z M 14.164062 0 " clip-rule="nonzero"/></clipPath><clipPath id="4590016a85"><path d="M 0.0859375 0 L 296.511719 0 L 296.511719 426.230469 L 0.0859375 426.230469 Z M 0.0859375 0 " clip-rule="nonzero"/></clipPath><clipPath id="65d0706ab8"><path d="M 14.164062 0 L 282.433594 0 C 290.207031 0 296.511719 6.300781 296.511719 14.078125 L 296.511719 412.0625 C 296.511719 419.835938 290.207031 426.140625 282.433594 426.140625 L 14.164062 426.140625 C 6.390625 426.140625 0.0859375 419.835938 0.0859375 412.0625 L 0.0859375 14.078125 C 0.0859375 6.300781 6.390625 0 14.164062 0 Z M 14.164062 0 " clip-rule="nonzero"/></clipPath><clipPath id="728f648e54"><rect x="0" width="297" y="0" height="427"/></clipPath><clipPath id="12739ec1b5"><path d="M 0.0859375 0.00390625 L 296.164062 0.00390625 L 296.164062 426.300781 L 0.0859375 426.300781 Z M 0.0859375 0.00390625 " clip-rule="nonzero"/></clipPath><clipPath id="db5d1086df"><path d="M 14.164062 0.00390625 L 282.425781 0.00390625 C 290.199219 0.00390625 296.503906 6.304688 296.503906 14.082031 L 296.503906 412.054688 C 296.503906 419.832031 290.199219 426.132812 282.425781 426.132812 L 14.164062 426.132812 C 6.390625 426.132812 0.0859375 419.832031 0.0859375 412.054688 L 0.0859375 14.082031 C 0.0859375 6.304688 6.390625 0.00390625 14.164062 0.00390625 Z M 14.164062 0.00390625 " clip-rule="nonzero"/></clipPath></defs><g clip-path="url(#0ec7d604fa)"><g clip-path="url(#e55a76cc5d)"><g transform="matrix(1, 0, 0, 1, -0.000000000000000014, 0)"><g clip-path="url(#728f648e54)"><g clip-path="url(#4590016a85)"><g clip-path="url(#65d0706ab8)"><path fill="#151620" d="M 0.0859375 0 L 296.511719 0 L 296.511719 426.109375 L 0.0859375 426.109375 Z M 0.0859375 0 " fill-opacity="1" fill-rule="nonzero"/></g></g></g></g></g></g><g clip-path="url(#12739ec1b5)"><g clip-path="url(#db5d1086df)"><path stroke-linecap="butt" transform="matrix(0.749561, 0, 0, 0.749561, 0.0869494, 0)" fill="none" stroke-linejoin="miter" d="M 18.780481 0.00521138 L 376.67234 0.00521138 C 387.042996 0.00521138 395.454171 8.411175 395.454171 18.787043 L 395.454171 549.728148 C 395.454171 560.104016 387.042996 568.50998 376.67234 568.50998 L 18.780481 568.50998 C 8.409825 568.50998 -0.00134993 560.104016 -0.00134993 549.728148 L -0.00134993 18.787043 C -0.00134993 8.411175 8.409825 0.00521138 18.780481 0.00521138 Z M 18.780481 0.00521138 " stroke="#535e6d" stroke-width="4" stroke-opacity="1" stroke-miterlimit="4"/></g></g></svg>