<svg xmlns="http://www.w3.org/2000/svg" xmlns:xlink="http://www.w3.org/1999/xlink" width="319" zoomAndPan="magnify" viewBox="0 0 239.25 148.499996" height="198" preserveAspectRatio="xMidYMid meet" version="1.0"><defs><g/><clipPath id="61fb05440f"><rect x="0" width="205" y="0" height="114"/></clipPath></defs><g transform="matrix(1, 0, 0, 1, 17, 16)"><g clip-path="url(#61fb05440f)"><g fill="#5ec269" fill-opacity="1"><g transform="translate(0.475482, 50.370306)"><g><path d="M 1.421875 -29.5625 L 1.421875 -37.84375 L 34.28125 -37.84375 L 34.28125 -29.5625 L 22.984375 -29.5625 L 22.984375 0 L 12.71875 0 L 12.71875 -29.5625 Z M 1.421875 -29.5625 "/></g></g></g><g fill="#5ec269" fill-opacity="1"><g transform="translate(31.381638, 50.370306)"><g><path d="M 1.171875 0 L 13.4375 -37.84375 L 27.453125 -37.84375 L 40.1875 0 L 28.546875 0 L 26.359375 -7.265625 L 14.734375 -7.265625 L 12.640625 0 Z M 16.921875 -14.9375 L 24.078125 -14.9375 C 23.378906 -17.238281 22.722656 -19.613281 22.109375 -22.0625 C 21.492188 -24.507812 20.90625 -26.96875 20.34375 -29.4375 C 19.820312 -26.96875 19.285156 -24.507812 18.734375 -22.0625 C 18.179688 -19.613281 17.578125 -17.238281 16.921875 -14.9375 Z M 16.921875 -14.9375 "/></g></g></g><g fill="#5ec269" fill-opacity="1"><g transform="translate(70.186455, 50.370306)"><g><path d="M 20.015625 0.515625 C 16.554688 0.515625 13.453125 -0.226562 10.703125 -1.71875 C 7.953125 -3.21875 5.773438 -5.410156 4.171875 -8.296875 C 2.578125 -11.179688 1.78125 -14.710938 1.78125 -18.890625 C 1.78125 -23.109375 2.59375 -26.664062 4.21875 -29.5625 C 5.84375 -32.457031 8.035156 -34.644531 10.796875 -36.125 C 13.554688 -37.601562 16.628906 -38.34375 20.015625 -38.34375 C 23.160156 -38.34375 25.960938 -37.785156 28.421875 -36.671875 C 30.890625 -35.554688 32.890625 -33.929688 34.421875 -31.796875 C 35.953125 -29.660156 36.875 -27.070312 37.1875 -24.03125 L 26.765625 -24.03125 C 26.566406 -25.632812 25.921875 -26.929688 24.828125 -27.921875 C 23.734375 -28.910156 22.226562 -29.40625 20.3125 -29.40625 C 17.738281 -29.40625 15.765625 -28.476562 14.390625 -26.625 C 13.023438 -24.769531 12.34375 -22.191406 12.34375 -18.890625 C 12.34375 -15.421875 13.035156 -12.8125 14.421875 -11.0625 C 15.816406 -9.3125 17.765625 -8.4375 20.265625 -8.4375 C 22.148438 -8.4375 23.648438 -8.929688 24.765625 -9.921875 C 25.878906 -10.910156 26.566406 -12.207031 26.828125 -13.8125 L 37.234375 -13.8125 C 37.117188 -12.207031 36.675781 -10.566406 35.90625 -8.890625 C 35.132812 -7.210938 34.03125 -5.660156 32.59375 -4.234375 C 31.164062 -2.816406 29.40625 -1.671875 27.3125 -0.796875 C 25.21875 0.078125 22.785156 0.515625 20.015625 0.515625 Z M 20.015625 0.515625 "/></g></g></g><g fill="#5ec269" fill-opacity="1"><g transform="translate(109.067973, 50.370306)"><g><path d="M 1.421875 -29.5625 L 1.421875 -37.84375 L 34.28125 -37.84375 L 34.28125 -29.5625 L 22.984375 -29.5625 L 22.984375 0 L 12.71875 0 L 12.71875 -29.5625 Z M 1.421875 -29.5625 "/></g></g></g><g fill="#5ec269" fill-opacity="1"><g transform="translate(144.774972, 50.370306)"><g><path d="M 12.703125 -37.84375 L 12.703125 0 L 2.4375 0 L 2.4375 -37.84375 Z M 12.703125 -37.84375 "/></g></g></g><g fill="#5ec269" fill-opacity="1"><g transform="translate(159.911082, 50.370306)"><g><path d="M 20.015625 0.515625 C 16.554688 0.515625 13.453125 -0.226562 10.703125 -1.71875 C 7.953125 -3.21875 5.773438 -5.410156 4.171875 -8.296875 C 2.578125 -11.179688 1.78125 -14.710938 1.78125 -18.890625 C 1.78125 -23.109375 2.59375 -26.664062 4.21875 -29.5625 C 5.84375 -32.457031 8.035156 -34.644531 10.796875 -36.125 C 13.554688 -37.601562 16.628906 -38.34375 20.015625 -38.34375 C 23.160156 -38.34375 25.960938 -37.785156 28.421875 -36.671875 C 30.890625 -35.554688 32.890625 -33.929688 34.421875 -31.796875 C 35.953125 -29.660156 36.875 -27.070312 37.1875 -24.03125 L 26.765625 -24.03125 C 26.566406 -25.632812 25.921875 -26.929688 24.828125 -27.921875 C 23.734375 -28.910156 22.226562 -29.40625 20.3125 -29.40625 C 17.738281 -29.40625 15.765625 -28.476562 14.390625 -26.625 C 13.023438 -24.769531 12.34375 -22.191406 12.34375 -18.890625 C 12.34375 -15.421875 13.035156 -12.8125 14.421875 -11.0625 C 15.816406 -9.3125 17.765625 -8.4375 20.265625 -8.4375 C 22.148438 -8.4375 23.648438 -8.929688 24.765625 -9.921875 C 25.878906 -10.910156 26.566406 -12.207031 26.828125 -13.8125 L 37.234375 -13.8125 C 37.117188 -12.207031 36.675781 -10.566406 35.90625 -8.890625 C 35.132812 -7.210938 34.03125 -5.660156 32.59375 -4.234375 C 31.164062 -2.816406 29.40625 -1.671875 27.3125 -0.796875 C 25.21875 0.078125 22.785156 0.515625 20.015625 0.515625 Z M 20.015625 0.515625 "/></g></g></g><g fill="#ffffff" fill-opacity="1"><g transform="translate(0.475482, 100.77725)"><g><path d="M 4.578125 0 L 4.578125 -37.84375 L 17.53125 -37.84375 C 20.46875 -37.84375 22.890625 -37.335938 24.796875 -36.328125 C 26.703125 -35.328125 28.113281 -33.941406 29.03125 -32.171875 C 29.957031 -30.410156 30.421875 -28.40625 30.421875 -26.15625 C 30.421875 -23.65625 29.847656 -21.472656 28.703125 -19.609375 C 27.566406 -17.742188 25.804688 -16.394531 23.421875 -15.5625 L 31.90625 0 L 26.3125 0 L 18.4375 -14.703125 C 18.144531 -14.691406 17.847656 -14.6875 17.546875 -14.6875 L 9.390625 -14.6875 L 9.390625 0 Z M 9.390625 -18.96875 L 17.328125 -18.96875 C 20.304688 -18.96875 22.429688 -19.609375 23.703125 -20.890625 C 24.984375 -22.179688 25.625 -23.9375 25.625 -26.15625 C 25.625 -28.40625 24.984375 -30.207031 23.703125 -31.5625 C 22.429688 -32.925781 20.285156 -33.609375 17.265625 -33.609375 L 9.390625 -33.609375 Z M 9.390625 -18.96875 "/></g></g></g><g fill="#ffffff" fill-opacity="1"><g transform="translate(38.161914, 100.77725)"><g><path d="M 19.90625 0.515625 C 16.675781 0.515625 13.796875 -0.265625 11.265625 -1.828125 C 8.734375 -3.398438 6.738281 -5.640625 5.28125 -8.546875 C 3.820312 -11.453125 3.09375 -14.898438 3.09375 -18.890625 C 3.09375 -22.910156 3.820312 -26.367188 5.28125 -29.265625 C 6.738281 -32.171875 8.734375 -34.410156 11.265625 -35.984375 C 13.796875 -37.554688 16.675781 -38.34375 19.90625 -38.34375 C 23.144531 -38.34375 26.023438 -37.554688 28.546875 -35.984375 C 31.066406 -34.410156 33.050781 -32.171875 34.5 -29.265625 C 35.945312 -26.367188 36.671875 -22.910156 36.671875 -18.890625 C 36.671875 -14.898438 35.945312 -11.453125 34.5 -8.546875 C 33.050781 -5.640625 31.066406 -3.398438 28.546875 -1.828125 C 26.023438 -0.265625 23.144531 0.515625 19.90625 0.515625 Z M 19.90625 -3.96875 C 22.164062 -3.96875 24.203125 -4.535156 26.015625 -5.671875 C 27.835938 -6.816406 29.285156 -8.503906 30.359375 -10.734375 C 31.429688 -12.960938 31.96875 -15.679688 31.96875 -18.890625 C 31.96875 -22.140625 31.429688 -24.878906 30.359375 -27.109375 C 29.285156 -29.335938 27.835938 -31.019531 26.015625 -32.15625 C 24.203125 -33.300781 22.164062 -33.875 19.90625 -33.875 C 17.644531 -33.875 15.597656 -33.296875 13.765625 -32.140625 C 11.929688 -30.992188 10.476562 -29.304688 9.40625 -27.078125 C 8.332031 -24.859375 7.796875 -22.128906 7.796875 -18.890625 C 7.796875 -15.679688 8.332031 -12.96875 9.40625 -10.75 C 10.476562 -8.53125 11.929688 -6.84375 13.765625 -5.6875 C 15.597656 -4.539062 17.644531 -3.96875 19.90625 -3.96875 Z M 19.90625 -3.96875 "/></g></g></g><g fill="#ffffff" fill-opacity="1"><g transform="translate(82.146592, 100.77725)"><g><path d="M 20.046875 0.515625 C 16.671875 0.515625 13.710938 -0.269531 11.171875 -1.84375 C 8.628906 -3.425781 6.644531 -5.664062 5.21875 -8.5625 C 3.800781 -11.46875 3.09375 -14.910156 3.09375 -18.890625 C 3.09375 -22.910156 3.800781 -26.367188 5.21875 -29.265625 C 6.644531 -32.171875 8.613281 -34.410156 11.125 -35.984375 C 13.632812 -37.554688 16.503906 -38.34375 19.734375 -38.34375 C 22.410156 -38.34375 24.835938 -37.820312 27.015625 -36.78125 C 29.191406 -35.75 31 -34.304688 32.4375 -32.453125 C 33.875 -30.597656 34.820312 -28.441406 35.28125 -25.984375 L 30.296875 -25.984375 C 29.515625 -28.398438 28.226562 -30.316406 26.4375 -31.734375 C 24.65625 -33.160156 22.429688 -33.875 19.765625 -33.875 C 17.546875 -33.875 15.53125 -33.300781 13.71875 -32.15625 C 11.90625 -31.019531 10.460938 -29.335938 9.390625 -27.109375 C 8.328125 -24.878906 7.796875 -22.140625 7.796875 -18.890625 C 7.796875 -15.679688 8.332031 -12.96875 9.40625 -10.75 C 10.476562 -8.53125 11.9375 -6.84375 13.78125 -5.6875 C 15.632812 -4.539062 17.722656 -3.96875 20.046875 -3.96875 C 22.140625 -3.96875 23.988281 -4.40625 25.59375 -5.28125 C 27.207031 -6.164062 28.472656 -7.421875 29.390625 -9.046875 C 30.316406 -10.671875 30.796875 -12.59375 30.828125 -14.8125 L 21.03125 -14.8125 L 21.03125 -19.015625 L 35.5625 -19.015625 L 35.5625 -14.890625 C 35.5625 -11.753906 34.890625 -9.035156 33.546875 -6.734375 C 32.210938 -4.429688 30.378906 -2.644531 28.046875 -1.375 C 25.722656 -0.113281 23.054688 0.515625 20.046875 0.515625 Z M 20.046875 0.515625 "/></g></g></g><g fill="#ffffff" fill-opacity="1"><g transform="translate(125.166217, 100.77725)"><g><path d="M 19.375 0.609375 C 16.394531 0.609375 13.789062 0.0234375 11.5625 -1.140625 C 9.34375 -2.304688 7.625 -3.90625 6.40625 -5.9375 C 5.1875 -7.96875 4.578125 -10.28125 4.578125 -12.875 L 4.578125 -37.84375 L 9.390625 -37.84375 L 9.390625 -13.265625 C 9.390625 -11.453125 9.789062 -9.835938 10.59375 -8.421875 C 11.40625 -7.003906 12.554688 -5.890625 14.046875 -5.078125 C 15.535156 -4.265625 17.3125 -3.859375 19.375 -3.859375 C 21.445312 -3.859375 23.222656 -4.265625 24.703125 -5.078125 C 26.179688 -5.890625 27.316406 -7.003906 28.109375 -8.421875 C 28.910156 -9.835938 29.3125 -11.453125 29.3125 -13.265625 L 29.3125 -37.84375 L 34.140625 -37.84375 L 34.140625 -12.875 C 34.140625 -10.28125 33.53125 -7.96875 32.3125 -5.9375 C 31.09375 -3.90625 29.375 -2.304688 27.15625 -1.140625 C 24.945312 0.0234375 22.351562 0.609375 19.375 0.609375 Z M 19.375 0.609375 "/></g></g></g><g fill="#ffffff" fill-opacity="1"><g transform="translate(168.084257, 100.77725)"><g><path d="M 4.578125 0 L 4.578125 -37.84375 L 27.640625 -37.84375 L 27.640625 -33.578125 L 9.390625 -33.578125 L 9.390625 -21.234375 L 26.390625 -21.234375 L 26.390625 -16.96875 L 9.390625 -16.96875 L 9.390625 -4.265625 L 27.859375 -4.265625 L 27.859375 0 Z M 4.578125 0 "/></g></g></g></g></g></svg>