<svg xmlns="http://www.w3.org/2000/svg" xmlns:xlink="http://www.w3.org/1999/xlink" width="199" zoomAndPan="magnify" viewBox="0 0 149.25 119.999999" height="160" preserveAspectRatio="xMidYMid meet" version="1.0"><defs><clipPath id="30adb90542"><path d="M 0 0.300781 L 148 0.300781 L 148 119.175781 L 0 119.175781 Z M 0 0.300781 " clip-rule="nonzero"/></clipPath><clipPath id="e68ab93f0c"><path d="M 29.851562 0.300781 L 118.070312 0.300781 C 134.558594 0.300781 147.921875 13.664062 147.921875 30.148438 L 147.921875 89.324219 C 147.921875 105.808594 134.558594 119.175781 118.070312 119.175781 L 29.851562 119.175781 C 13.363281 119.175781 0 105.808594 0 89.324219 L 0 30.148438 C 0 13.664062 13.363281 0.300781 29.851562 0.300781 Z M 29.851562 0.300781 " clip-rule="nonzero"/></clipPath><clipPath id="7b58bac78b"><path d="M 0 0.300781 L 148 0.300781 L 148 119.175781 L 0 119.175781 Z M 0 0.300781 " clip-rule="nonzero"/></clipPath><clipPath id="a950905da9"><path d="M 29.851562 0.300781 L 118.070312 0.300781 C 134.558594 0.300781 147.921875 13.664062 147.921875 30.148438 L 147.921875 89.324219 C 147.921875 105.808594 134.558594 119.175781 118.070312 119.175781 L 29.851562 119.175781 C 13.363281 119.175781 0 105.808594 0 89.324219 L 0 30.148438 C 0 13.664062 13.363281 0.300781 29.851562 0.300781 Z M 29.851562 0.300781 " clip-rule="nonzero"/></clipPath><clipPath id="dbd4c91a68"><rect x="0" width="148" y="0" height="120"/></clipPath><clipPath id="fbebfb4fab"><path d="M 45.757812 14.171875 L 63.578125 14.171875 L 63.578125 102.101562 L 45.757812 102.101562 Z M 45.757812 14.171875 " clip-rule="nonzero"/></clipPath><clipPath id="0f873dda4b"><path d="M 45.757812 93.191406 L 45.757812 23.113281 C 45.757812 20.75 46.695312 18.484375 48.367188 16.8125 C 50.039062 15.140625 52.304688 14.203125 54.667969 14.203125 C 57.03125 14.203125 59.296875 15.140625 60.96875 16.8125 C 62.640625 18.484375 63.578125 20.75 63.578125 23.113281 L 63.578125 93.191406 C 63.578125 95.554688 62.640625 97.820312 60.96875 99.492188 C 59.296875 101.164062 57.03125 102.101562 54.667969 102.101562 C 52.304688 102.101562 50.039062 101.164062 48.367188 99.492188 C 46.695312 97.820312 45.757812 95.554688 45.757812 93.191406 Z M 45.757812 93.191406 " clip-rule="nonzero"/></clipPath><clipPath id="578a0f87f9"><path d="M 0.757812 0.171875 L 18.578125 0.171875 L 18.578125 88.101562 L 0.757812 88.101562 Z M 0.757812 0.171875 " clip-rule="nonzero"/></clipPath><clipPath id="5a5978d792"><path d="M 0.757812 79.191406 L 0.757812 9.113281 C 0.757812 6.75 1.695312 4.484375 3.367188 2.8125 C 5.039062 1.140625 7.304688 0.203125 9.667969 0.203125 C 12.03125 0.203125 14.296875 1.140625 15.96875 2.8125 C 17.640625 4.484375 18.578125 6.75 18.578125 9.113281 L 18.578125 79.191406 C 18.578125 81.554688 17.640625 83.820312 15.96875 85.492188 C 14.296875 87.164062 12.03125 88.101562 9.667969 88.101562 C 7.304688 88.101562 5.039062 87.164062 3.367188 85.492188 C 1.695312 83.820312 0.757812 81.554688 0.757812 79.191406 Z M 0.757812 79.191406 " clip-rule="nonzero"/></clipPath><clipPath id="ffaadf9b33"><rect x="0" width="19" y="0" height="89"/></clipPath><clipPath id="d9e108102a"><path d="M 11.449219 14.207031 L 95.019531 14.207031 L 95.019531 31.09375 L 11.449219 31.09375 Z M 11.449219 14.207031 " clip-rule="nonzero"/></clipPath><clipPath id="462b9811e8"><path d="M 86.574219 31.09375 L 19.949219 31.09375 C 17.710938 31.09375 15.5625 30.203125 13.980469 28.621094 C 12.394531 27.035156 11.507812 24.886719 11.507812 22.648438 C 11.507812 20.410156 12.394531 18.261719 13.980469 16.679688 C 15.5625 15.097656 17.710938 14.207031 19.949219 14.207031 L 86.574219 14.207031 C 88.816406 14.207031 90.960938 15.097656 92.546875 16.679688 C 94.128906 18.261719 95.019531 20.410156 95.019531 22.648438 C 95.019531 24.886719 94.128906 27.035156 92.546875 28.621094 C 90.960938 30.203125 88.816406 31.09375 86.574219 31.09375 Z M 86.574219 31.09375 " clip-rule="nonzero"/></clipPath><clipPath id="5ef8b9ef80"><path d="M 0.460938 0.207031 L 84.019531 0.207031 L 84.019531 17.09375 L 0.460938 17.09375 Z M 0.460938 0.207031 " clip-rule="nonzero"/></clipPath><clipPath id="6f444d48b5"><path d="M 75.574219 17.09375 L 8.949219 17.09375 C 6.710938 17.09375 4.5625 16.203125 2.980469 14.621094 C 1.394531 13.035156 0.507812 10.886719 0.507812 8.648438 C 0.507812 6.410156 1.394531 4.261719 2.980469 2.679688 C 4.5625 1.097656 6.710938 0.207031 8.949219 0.207031 L 75.574219 0.207031 C 77.816406 0.207031 79.960938 1.097656 81.546875 2.679688 C 83.128906 4.261719 84.019531 6.410156 84.019531 8.648438 C 84.019531 10.886719 83.128906 13.035156 81.546875 14.621094 C 79.960938 16.203125 77.816406 17.09375 75.574219 17.09375 Z M 75.574219 17.09375 " clip-rule="nonzero"/></clipPath><clipPath id="fff7bd7ce3"><rect x="0" width="85" y="0" height="18"/></clipPath><clipPath id="e4fd34eb9b"><path d="M 50.332031 14.207031 L 110.820312 14.207031 L 110.820312 31.09375 L 50.332031 31.09375 Z M 50.332031 14.207031 " clip-rule="nonzero"/></clipPath><clipPath id="6b8df54fe7"><path d="M 102.375 31.09375 L 58.796875 31.09375 C 56.554688 31.09375 54.410156 30.203125 52.824219 28.621094 C 51.242188 27.035156 50.351562 24.886719 50.351562 22.648438 C 50.351562 20.410156 51.242188 18.261719 52.824219 16.679688 C 54.410156 15.097656 56.554688 14.207031 58.796875 14.207031 L 102.375 14.207031 C 104.617188 14.207031 106.761719 15.097656 108.347656 16.679688 C 109.929688 18.261719 110.820312 20.410156 110.820312 22.648438 C 110.820312 24.886719 109.929688 27.035156 108.347656 28.621094 C 106.761719 30.203125 104.617188 31.09375 102.375 31.09375 Z M 102.375 31.09375 " clip-rule="nonzero"/></clipPath><clipPath id="ef6001a2e5"><path d="M 0.332031 0.207031 L 60.820312 0.207031 L 60.820312 17.09375 L 0.332031 17.09375 Z M 0.332031 0.207031 " clip-rule="nonzero"/></clipPath><clipPath id="4db10e3b02"><path d="M 52.375 17.09375 L 8.796875 17.09375 C 6.554688 17.09375 4.410156 16.203125 2.824219 14.621094 C 1.242188 13.035156 0.351562 10.886719 0.351562 8.648438 C 0.351562 6.410156 1.242188 4.261719 2.824219 2.679688 C 4.410156 1.097656 6.554688 0.207031 8.796875 0.207031 L 52.375 0.207031 C 54.617188 0.207031 56.761719 1.097656 58.347656 2.679688 C 59.929688 4.261719 60.820312 6.410156 60.820312 8.648438 C 60.820312 10.886719 59.929688 13.035156 58.347656 14.621094 C 56.761719 16.203125 54.617188 17.09375 52.375 17.09375 Z M 52.375 17.09375 " clip-rule="nonzero"/></clipPath><clipPath id="0c6003caab"><rect x="0" width="61" y="0" height="18"/></clipPath><clipPath id="4c110be711"><path d="M 88.667969 58.335938 L 108.160156 58.335938 L 108.160156 75.195312 L 88.667969 75.195312 Z M 88.667969 58.335938 " clip-rule="nonzero"/></clipPath><clipPath id="084e292e71"><path d="M 99.730469 75.195312 L 97.101562 75.195312 C 94.867188 75.195312 92.722656 74.304688 91.140625 72.726562 C 89.5625 71.144531 88.671875 69 88.671875 66.765625 C 88.671875 64.527344 89.5625 62.386719 91.140625 60.804688 C 92.722656 59.222656 94.867188 58.335938 97.101562 58.335938 L 99.730469 58.335938 C 101.96875 58.335938 104.113281 59.222656 105.691406 60.804688 C 107.273438 62.386719 108.160156 64.527344 108.160156 66.765625 C 108.160156 69 107.273438 71.144531 105.691406 72.726562 C 104.113281 74.304688 101.96875 75.195312 99.730469 75.195312 Z M 99.730469 75.195312 " clip-rule="nonzero"/></clipPath><clipPath id="ec4364de07"><path d="M 0.667969 0.335938 L 20.160156 0.335938 L 20.160156 17.195312 L 0.667969 17.195312 Z M 0.667969 0.335938 " clip-rule="nonzero"/></clipPath><clipPath id="1827a3e990"><path d="M 11.730469 17.195312 L 9.101562 17.195312 C 6.867188 17.195312 4.722656 16.304688 3.140625 14.726562 C 1.5625 13.144531 0.671875 11 0.671875 8.765625 C 0.671875 6.527344 1.5625 4.386719 3.140625 2.804688 C 4.722656 1.222656 6.867188 0.335938 9.101562 0.335938 L 11.730469 0.335938 C 13.96875 0.335938 16.113281 1.222656 17.691406 2.804688 C 19.273438 4.386719 20.160156 6.527344 20.160156 8.765625 C 20.160156 11 19.273438 13.144531 17.691406 14.726562 C 16.113281 16.304688 13.96875 17.195312 11.730469 17.195312 Z M 11.730469 17.195312 " clip-rule="nonzero"/></clipPath><clipPath id="f788928fc1"><rect x="0" width="21" y="0" height="18"/></clipPath><clipPath id="75be471de0"><path d="M 72.785156 14.207031 L 129.644531 14.207031 L 129.644531 68.933594 L 72.785156 68.933594 Z M 72.785156 14.207031 " clip-rule="nonzero"/></clipPath><clipPath id="5e8b6654c1"><path d="M 101.113281 14.207031 C 85.46875 14.207031 72.785156 26.457031 72.785156 41.570312 C 72.785156 56.679688 85.46875 68.933594 101.113281 68.933594 C 116.757812 68.933594 129.4375 56.679688 129.4375 41.570312 C 129.4375 26.457031 116.757812 14.207031 101.113281 14.207031 Z M 101.113281 14.207031 " clip-rule="nonzero"/></clipPath><clipPath id="fe3dbbd698"><path d="M 0.785156 0.207031 L 57.644531 0.207031 L 57.644531 54.933594 L 0.785156 54.933594 Z M 0.785156 0.207031 " clip-rule="nonzero"/></clipPath><clipPath id="7ee6ac371d"><path d="M 29.113281 0.207031 C 13.46875 0.207031 0.785156 12.457031 0.785156 27.570312 C 0.785156 42.679688 13.46875 54.933594 29.113281 54.933594 C 44.757812 54.933594 57.4375 42.679688 57.4375 27.570312 C 57.4375 12.457031 44.757812 0.207031 29.113281 0.207031 Z M 29.113281 0.207031 " clip-rule="nonzero"/></clipPath><clipPath id="a613dd4b33"><rect x="0" width="58" y="0" height="55"/></clipPath><clipPath id="8938c49d1d"><path d="M 72.785156 14.210938 L 129.5 14.210938 L 129.5 68.683594 L 72.785156 68.683594 Z M 72.785156 14.210938 " clip-rule="nonzero"/></clipPath><clipPath id="ec5400e243"><path d="M 101.105469 14.210938 C 85.464844 14.210938 72.785156 26.460938 72.785156 41.570312 C 72.785156 56.679688 85.464844 68.925781 101.105469 68.925781 C 116.75 68.925781 129.429688 56.679688 129.429688 41.570312 C 129.429688 26.460938 116.75 14.210938 101.105469 14.210938 Z M 101.105469 14.210938 " clip-rule="nonzero"/></clipPath><clipPath id="89257ee201"><path d="M 65.964844 31.09375 L 92.664062 31.09375 L 92.664062 88.554688 L 65.964844 88.554688 Z M 65.964844 31.09375 " clip-rule="nonzero"/></clipPath><clipPath id="e87091070e"><path d="M 0.964844 0.09375 L 27.664062 0.09375 L 27.664062 57.554688 L 0.964844 57.554688 Z M 0.964844 0.09375 " clip-rule="nonzero"/></clipPath><clipPath id="625d726584"><rect x="0" width="28" y="0" height="58"/></clipPath><clipPath id="8eac0bb2e8"><path d="M 85.054688 51.171875 L 108.425781 51.171875 L 108.425781 68.925781 L 85.054688 68.925781 Z M 85.054688 51.171875 " clip-rule="nonzero"/></clipPath><clipPath id="93e62de847"><path d="M 99.546875 68.925781 L 93.964844 68.925781 C 91.609375 68.925781 89.351562 67.988281 87.6875 66.324219 C 86.023438 64.660156 85.085938 62.402344 85.085938 60.046875 C 85.085938 57.691406 86.023438 55.433594 87.6875 53.769531 C 89.351562 52.105469 91.609375 51.171875 93.964844 51.171875 L 99.546875 51.171875 C 101.902344 51.171875 104.160156 52.105469 105.824219 53.769531 C 107.488281 55.433594 108.425781 57.691406 108.425781 60.046875 C 108.425781 62.402344 107.488281 64.660156 105.824219 66.324219 C 104.160156 67.988281 101.902344 68.925781 99.546875 68.925781 Z M 99.546875 68.925781 " clip-rule="nonzero"/></clipPath><clipPath id="a9145988eb"><path d="M 0.0546875 0.171875 L 23.425781 0.171875 L 23.425781 17.925781 L 0.0546875 17.925781 Z M 0.0546875 0.171875 " clip-rule="nonzero"/></clipPath><clipPath id="cfccd85dec"><path d="M 14.546875 17.925781 L 8.964844 17.925781 C 6.609375 17.925781 4.351562 16.988281 2.6875 15.324219 C 1.023438 13.660156 0.0859375 11.402344 0.0859375 9.046875 C 0.0859375 6.691406 1.023438 4.433594 2.6875 2.769531 C 4.351562 1.105469 6.609375 0.171875 8.964844 0.171875 L 14.546875 0.171875 C 16.902344 0.171875 19.160156 1.105469 20.824219 2.769531 C 22.488281 4.433594 23.425781 6.691406 23.425781 9.046875 C 23.425781 11.402344 22.488281 13.660156 20.824219 15.324219 C 19.160156 16.988281 16.902344 17.925781 14.546875 17.925781 Z M 14.546875 17.925781 " clip-rule="nonzero"/></clipPath><clipPath id="f79b90e11d"><rect x="0" width="24" y="0" height="18"/></clipPath><clipPath id="2766e5434b"><path d="M 86 53 L 124 53 L 124 102 L 86 102 Z M 86 53 " clip-rule="nonzero"/></clipPath><clipPath id="a58d38db10"><path d="M 112.152344 105.257812 L 82.835938 59.300781 L 97.804688 49.753906 L 127.121094 95.710938 Z M 112.152344 105.257812 " clip-rule="nonzero"/></clipPath><clipPath id="290494186f"><path d="M 107.378906 97.773438 L 87.628906 66.8125 C 86.363281 64.824219 85.9375 62.417969 86.445312 60.121094 C 86.953125 57.820312 88.355469 55.820312 90.339844 54.550781 C 92.324219 53.285156 94.730469 52.859375 97.027344 53.371094 C 99.328125 53.878906 101.332031 55.277344 102.597656 57.261719 L 122.347656 88.226562 C 123.613281 90.210938 124.039062 92.617188 123.53125 94.917969 C 123.019531 97.214844 121.621094 99.21875 119.636719 100.484375 C 117.648438 101.75 115.242188 102.175781 112.945312 101.667969 C 110.644531 101.160156 108.644531 99.757812 107.378906 97.773438 Z M 107.378906 97.773438 " clip-rule="nonzero"/></clipPath><clipPath id="69d2639939"><path d="M 0 0 L 38 0 L 38 49 L 0 49 Z M 0 0 " clip-rule="nonzero"/></clipPath><clipPath id="effd885eb4"><path d="M 26.152344 52.257812 L -3.164062 6.300781 L 11.804688 -3.246094 L 41.121094 42.710938 Z M 26.152344 52.257812 " clip-rule="nonzero"/></clipPath><clipPath id="9bde33f829"><path d="M 21.378906 44.773438 L 1.628906 13.8125 C 0.363281 11.824219 -0.0625 9.417969 0.445312 7.121094 C 0.953125 4.820312 2.355469 2.820312 4.339844 1.550781 C 6.324219 0.285156 8.730469 -0.140625 11.027344 0.371094 C 13.328125 0.878906 15.332031 2.277344 16.597656 4.261719 L 36.347656 35.226562 C 37.613281 37.210938 38.039062 39.617188 37.53125 41.917969 C 37.019531 44.214844 35.621094 46.21875 33.636719 47.484375 C 31.648438 48.75 29.242188 49.175781 26.945312 48.667969 C 24.644531 48.160156 22.644531 46.757812 21.378906 44.773438 Z M 21.378906 44.773438 " clip-rule="nonzero"/></clipPath><clipPath id="0f75344bf9"><rect x="0" width="38" y="0" height="49"/></clipPath><clipPath id="7c77e8e977"><path d="M 76.808594 31.09375 L 112.585938 31.09375 L 112.585938 51.175781 L 76.808594 51.175781 Z M 76.808594 31.09375 " clip-rule="nonzero"/></clipPath><clipPath id="aaef5e0dcf"><path d="M 86.851562 31.09375 L 102.492188 31.09375 C 105.152344 31.09375 107.707031 32.152344 109.589844 34.035156 C 111.476562 35.917969 112.53125 38.472656 112.53125 41.136719 C 112.53125 43.800781 111.476562 46.351562 109.589844 48.238281 C 107.707031 50.121094 105.152344 51.175781 102.492188 51.175781 L 86.851562 51.175781 C 84.1875 51.175781 81.636719 50.121094 79.75 48.238281 C 77.867188 46.351562 76.808594 43.800781 76.808594 41.136719 C 76.808594 38.472656 77.867188 35.917969 79.75 34.035156 C 81.636719 32.152344 84.1875 31.09375 86.851562 31.09375 Z M 86.851562 31.09375 " clip-rule="nonzero"/></clipPath><clipPath id="c3097a8ef2"><path d="M 0.808594 0.09375 L 36.585938 0.09375 L 36.585938 20.175781 L 0.808594 20.175781 Z M 0.808594 0.09375 " clip-rule="nonzero"/></clipPath><clipPath id="6a1fc15a8a"><path d="M 10.851562 0.09375 L 26.492188 0.09375 C 29.152344 0.09375 31.707031 1.152344 33.589844 3.035156 C 35.476562 4.917969 36.53125 7.472656 36.53125 10.136719 C 36.53125 12.800781 35.476562 15.351562 33.589844 17.238281 C 31.707031 19.121094 29.152344 20.175781 26.492188 20.175781 L 10.851562 20.175781 C 8.1875 20.175781 5.636719 19.121094 3.75 17.238281 C 1.867188 15.351562 0.808594 12.800781 0.808594 10.136719 C 0.808594 7.472656 1.867188 4.917969 3.75 3.035156 C 5.636719 1.152344 8.1875 0.09375 10.851562 0.09375 Z M 10.851562 0.09375 " clip-rule="nonzero"/></clipPath><clipPath id="b2ca5eb4e9"><rect x="0" width="37" y="0" height="21"/></clipPath><clipPath id="cc567d3685"><path d="M 85.15625 50.011719 L 119.542969 50.011719 L 119.542969 65.457031 L 85.15625 65.457031 Z M 85.15625 50.011719 " clip-rule="nonzero"/></clipPath><clipPath id="2712527a96"><path d="M 92.878906 50.011719 L 111.8125 50.011719 C 116.074219 50.011719 119.53125 53.46875 119.53125 57.734375 C 119.53125 62 116.074219 65.457031 111.8125 65.457031 L 92.878906 65.457031 C 88.613281 65.457031 85.15625 62 85.15625 57.734375 C 85.15625 53.46875 88.613281 50.011719 92.878906 50.011719 Z M 92.878906 50.011719 " clip-rule="nonzero"/></clipPath><clipPath id="f4ae31b216"><path d="M 0.15625 0.0117188 L 34.542969 0.0117188 L 34.542969 15.457031 L 0.15625 15.457031 Z M 0.15625 0.0117188 " clip-rule="nonzero"/></clipPath><clipPath id="70f70202e6"><path d="M 7.878906 0.0117188 L 26.8125 0.0117188 C 31.074219 0.0117188 34.53125 3.46875 34.53125 7.734375 C 34.53125 12 31.074219 15.457031 26.8125 15.457031 L 7.878906 15.457031 C 3.613281 15.457031 0.15625 12 0.15625 7.734375 C 0.15625 3.46875 3.613281 0.0117188 7.878906 0.0117188 Z M 7.878906 0.0117188 " clip-rule="nonzero"/></clipPath><clipPath id="2f6436d04f"><rect x="0" width="35" y="0" height="16"/></clipPath></defs><g clip-path="url(#30adb90542)"><g clip-path="url(#e68ab93f0c)"><g transform="matrix(1, 0, 0, 1, -0, 0.000000000000025535)"><g clip-path="url(#dbd4c91a68)"><g clip-path="url(#7b58bac78b)"><g clip-path="url(#a950905da9)"><path fill="#5ec269" d="M 0 0.300781 L 148.128906 0.300781 L 148.128906 119.175781 L 0 119.175781 Z M 0 0.300781 " fill-opacity="1" fill-rule="nonzero"/></g></g></g></g></g></g><g clip-path="url(#fbebfb4fab)"><g clip-path="url(#0f873dda4b)"><g transform="matrix(1, 0, 0, 1, 45, 14)"><g clip-path="url(#ffaadf9b33)"><g clip-path="url(#578a0f87f9)"><g clip-path="url(#5a5978d792)"><path fill="#151620" d="M 0.757812 88.101562 L 0.757812 0.171875 L 18.578125 0.171875 L 18.578125 88.101562 Z M 0.757812 88.101562 " fill-opacity="1" fill-rule="nonzero"/></g></g></g></g></g></g><g clip-path="url(#d9e108102a)"><g clip-path="url(#462b9811e8)"><g transform="matrix(1, 0, 0, 1, 11, 14)"><g clip-path="url(#fff7bd7ce3)"><g clip-path="url(#5ef8b9ef80)"><g clip-path="url(#6f444d48b5)"><path fill="#151620" d="M 84.019531 17.09375 L 0.511719 17.09375 L 0.511719 0.207031 L 84.019531 0.207031 Z M 84.019531 17.09375 " fill-opacity="1" fill-rule="nonzero"/></g></g></g></g></g></g><g clip-path="url(#e4fd34eb9b)"><g clip-path="url(#6b8df54fe7)"><g transform="matrix(1, 0, 0, 1, 50, 14)"><g clip-path="url(#0c6003caab)"><g clip-path="url(#ef6001a2e5)"><g clip-path="url(#4db10e3b02)"><path fill="#151620" d="M 60.820312 17.09375 L 0.332031 17.09375 L 0.332031 0.207031 L 60.820312 0.207031 Z M 60.820312 17.09375 " fill-opacity="1" fill-rule="nonzero"/></g></g></g></g></g></g><g clip-path="url(#4c110be711)"><g clip-path="url(#084e292e71)"><g transform="matrix(1, 0, 0, 1, 88, 58)"><g clip-path="url(#f788928fc1)"><g clip-path="url(#ec4364de07)"><g clip-path="url(#1827a3e990)"><path fill="#ffffff" d="M 20.160156 17.195312 L 0.667969 17.195312 L 0.667969 0.335938 L 20.160156 0.335938 Z M 20.160156 17.195312 " fill-opacity="1" fill-rule="nonzero"/></g></g></g></g></g></g><g clip-path="url(#75be471de0)"><g clip-path="url(#5e8b6654c1)"><g transform="matrix(1, 0, 0, 1, 72, 14)"><g clip-path="url(#a613dd4b33)"><g clip-path="url(#fe3dbbd698)"><g clip-path="url(#7ee6ac371d)"><path fill="#5ec269" d="M 0.785156 0.207031 L 57.433594 0.207031 L 57.433594 54.933594 L 0.785156 54.933594 Z M 0.785156 0.207031 " fill-opacity="1" fill-rule="nonzero"/></g></g></g></g></g></g><g clip-path="url(#8938c49d1d)"><g clip-path="url(#ec5400e243)"><path stroke-linecap="butt" transform="matrix(0.74625, 0, 0, 0.74625, 72.78453, 14.20814)" fill="none" stroke-linejoin="miter" d="M 37.951009 0.00374827 C 16.992047 0.00374827 0.000839803 16.419159 0.000839803 36.666229 C 0.000839803 56.913298 16.992047 73.323475 37.951009 73.323475 C 58.915206 73.323475 75.906412 56.913298 75.906412 36.666229 C 75.906412 16.419159 58.915206 0.00374827 37.951009 0.00374827 Z M 37.951009 0.00374827 " stroke="#151620" stroke-width="46" stroke-opacity="1" stroke-miterlimit="4"/></g></g><g clip-path="url(#89257ee201)"><g transform="matrix(1, 0, 0, 1, 65, 31)"><g clip-path="url(#625d726584)"><g clip-path="url(#e87091070e)"><path fill="#5ec269" d="M 0.964844 0.09375 L 27.664062 0.09375 L 27.664062 57.5625 L 0.964844 57.5625 Z M 0.964844 0.09375 " fill-opacity="1" fill-rule="nonzero"/></g></g></g></g><g clip-path="url(#8eac0bb2e8)"><g clip-path="url(#93e62de847)"><g transform="matrix(1, 0, 0, 1, 85, 51)"><g clip-path="url(#f79b90e11d)"><g clip-path="url(#a9145988eb)"><g clip-path="url(#cfccd85dec)"><path fill="#151620" d="M 23.425781 17.925781 L 0.0546875 17.925781 L 0.0546875 0.171875 L 23.425781 0.171875 Z M 23.425781 17.925781 " fill-opacity="1" fill-rule="nonzero"/></g></g></g></g></g></g><g clip-path="url(#2766e5434b)"><g clip-path="url(#a58d38db10)"><g clip-path="url(#290494186f)"><g transform="matrix(1, 0, 0, 1, 86, 53)"><g clip-path="url(#0f75344bf9)"><g clip-path="url(#69d2639939)"><g clip-path="url(#effd885eb4)"><g clip-path="url(#9bde33f829)"><path fill="#151620" d="M 26.152344 52.257812 L -3.164062 6.300781 L 11.804688 -3.246094 L 41.121094 42.710938 Z M 26.152344 52.257812 " fill-opacity="1" fill-rule="nonzero"/></g></g></g></g></g></g></g></g><g clip-path="url(#7c77e8e977)"><g clip-path="url(#aaef5e0dcf)"><g transform="matrix(1, 0, 0, 1, 76, 31)"><g clip-path="url(#b2ca5eb4e9)"><g clip-path="url(#c3097a8ef2)"><g clip-path="url(#6a1fc15a8a)"><path fill="#5ec269" d="M 0.808594 0.09375 L 36.507812 0.09375 L 36.507812 20.175781 L 0.808594 20.175781 Z M 0.808594 0.09375 " fill-opacity="1" fill-rule="nonzero"/></g></g></g></g></g></g><g clip-path="url(#cc567d3685)"><g clip-path="url(#2712527a96)"><g transform="matrix(1, 0, 0, 1, 85, 50)"><g clip-path="url(#2f6436d04f)"><g clip-path="url(#f4ae31b216)"><g clip-path="url(#70f70202e6)"><path fill="#151620" d="M 0.15625 0.0117188 L 34.542969 0.0117188 L 34.542969 15.457031 L 0.15625 15.457031 Z M 0.15625 0.0117188 " fill-opacity="1" fill-rule="nonzero"/></g></g></g></g></g></g></svg>