<svg xmlns="http://www.w3.org/2000/svg" xmlns:xlink="http://www.w3.org/1999/xlink" width="520" zoomAndPan="magnify" viewBox="0 0 390 148.499996" height="198" preserveAspectRatio="xMidYMid meet" version="1.0"><defs><g/><clipPath id="6ba18fa6d2"><path d="M 0.65625 14.300781 L 149 14.300781 L 149 133.375 L 0.65625 133.375 Z M 0.65625 14.300781 " clip-rule="nonzero"/></clipPath><clipPath id="e95dcd62d2"><path d="M 30.554688 14.300781 L 118.921875 14.300781 C 135.433594 14.300781 148.820312 27.6875 148.820312 44.203125 L 148.820312 103.472656 C 148.820312 119.988281 135.433594 133.375 118.921875 133.375 L 30.554688 133.375 C 14.039062 133.375 0.65625 119.988281 0.65625 103.472656 L 0.65625 44.203125 C 0.65625 27.6875 14.039062 14.300781 30.554688 14.300781 Z M 30.554688 14.300781 " clip-rule="nonzero"/></clipPath><clipPath id="ff7ed66cd4"><path d="M 0.65625 0.300781 L 148.953125 0.300781 L 148.953125 119.375 L 0.65625 119.375 Z M 0.65625 0.300781 " clip-rule="nonzero"/></clipPath><clipPath id="e58df1d216"><path d="M 30.554688 0.300781 L 118.921875 0.300781 C 135.433594 0.300781 148.820312 13.6875 148.820312 30.203125 L 148.820312 89.472656 C 148.820312 105.988281 135.433594 119.375 118.921875 119.375 L 30.554688 119.375 C 14.039062 119.375 0.65625 105.988281 0.65625 89.472656 L 0.65625 30.203125 C 0.65625 13.6875 14.039062 0.300781 30.554688 0.300781 Z M 30.554688 0.300781 " clip-rule="nonzero"/></clipPath><clipPath id="9122a767ab"><rect x="0" width="149" y="0" height="120"/></clipPath><clipPath id="e5cdf8dcc4"><path d="M 46.488281 28.199219 L 64.339844 28.199219 L 64.339844 116.273438 L 46.488281 116.273438 Z M 46.488281 28.199219 " clip-rule="nonzero"/></clipPath><clipPath id="7bb35ad200"><path d="M 46.488281 107.347656 L 46.488281 37.152344 C 46.488281 34.785156 47.425781 32.515625 49.101562 30.839844 C 50.773438 29.167969 53.046875 28.226562 55.414062 28.226562 C 57.78125 28.226562 60.050781 29.167969 61.722656 30.839844 C 63.398438 32.515625 64.339844 34.785156 64.339844 37.152344 L 64.339844 107.347656 C 64.339844 109.714844 63.398438 111.984375 61.722656 113.660156 C 60.050781 115.332031 57.78125 116.273438 55.414062 116.273438 C 53.046875 116.273438 50.773438 115.332031 49.101562 113.660156 C 47.425781 111.984375 46.488281 109.714844 46.488281 107.347656 Z M 46.488281 107.347656 " clip-rule="nonzero"/></clipPath><clipPath id="f6f028c366"><path d="M 0.488281 0.226562 L 18.339844 0.226562 L 18.339844 88.273438 L 0.488281 88.273438 Z M 0.488281 0.226562 " clip-rule="nonzero"/></clipPath><clipPath id="c43c339fcc"><path d="M 0.488281 79.347656 L 0.488281 9.152344 C 0.488281 6.785156 1.425781 4.515625 3.101562 2.839844 C 4.773438 1.167969 7.046875 0.226562 9.414062 0.226562 C 11.78125 0.226562 14.050781 1.167969 15.722656 2.839844 C 17.398438 4.515625 18.339844 6.785156 18.339844 9.152344 L 18.339844 79.347656 C 18.339844 81.714844 17.398438 83.984375 15.722656 85.660156 C 14.050781 87.332031 11.78125 88.273438 9.414062 88.273438 C 7.046875 88.273438 4.773438 87.332031 3.101562 85.660156 C 1.425781 83.984375 0.488281 81.714844 0.488281 79.347656 Z M 0.488281 79.347656 " clip-rule="nonzero"/></clipPath><clipPath id="59f30a900e"><rect x="0" width="19" y="0" height="89"/></clipPath><clipPath id="177cf122d1"><path d="M 12.121094 28.230469 L 95.832031 28.230469 L 95.832031 45.144531 L 12.121094 45.144531 Z M 12.121094 28.230469 " clip-rule="nonzero"/></clipPath><clipPath id="be59dd064b"><path d="M 87.375 45.144531 L 20.636719 45.144531 C 18.394531 45.144531 16.242188 44.253906 14.65625 42.667969 C 13.070312 41.082031 12.179688 38.929688 12.179688 36.6875 C 12.179688 34.445312 13.070312 32.292969 14.65625 30.707031 C 16.242188 29.121094 18.394531 28.230469 20.636719 28.230469 L 87.375 28.230469 C 89.617188 28.230469 91.765625 29.121094 93.351562 30.707031 C 94.9375 32.292969 95.832031 34.445312 95.832031 36.6875 C 95.832031 38.929688 94.9375 41.082031 93.351562 42.667969 C 91.765625 44.253906 89.617188 45.144531 87.375 45.144531 Z M 87.375 45.144531 " clip-rule="nonzero"/></clipPath><clipPath id="3d902651ee"><path d="M 0.136719 0.230469 L 83.832031 0.230469 L 83.832031 17.144531 L 0.136719 17.144531 Z M 0.136719 0.230469 " clip-rule="nonzero"/></clipPath><clipPath id="0d381e5ca5"><path d="M 75.375 17.144531 L 8.636719 17.144531 C 6.394531 17.144531 4.242188 16.253906 2.65625 14.667969 C 1.070312 13.082031 0.179688 10.929688 0.179688 8.6875 C 0.179688 6.445312 1.070312 4.292969 2.65625 2.707031 C 4.242188 1.121094 6.394531 0.230469 8.636719 0.230469 L 75.375 0.230469 C 77.617188 0.230469 79.765625 1.121094 81.351562 2.707031 C 82.9375 4.292969 83.832031 6.445312 83.832031 8.6875 C 83.832031 10.929688 82.9375 13.082031 81.351562 14.667969 C 79.765625 16.253906 77.617188 17.144531 75.375 17.144531 Z M 75.375 17.144531 " clip-rule="nonzero"/></clipPath><clipPath id="9b313cb29a"><rect x="0" width="84" y="0" height="18"/></clipPath><clipPath id="16d975f95a"><path d="M 51.070312 28.230469 L 111.65625 28.230469 L 111.65625 45.144531 L 51.070312 45.144531 Z M 51.070312 28.230469 " clip-rule="nonzero"/></clipPath><clipPath id="b97537b787"><path d="M 103.199219 45.144531 L 59.546875 45.144531 C 57.304688 45.144531 55.152344 44.253906 53.566406 42.667969 C 51.980469 41.082031 51.089844 38.929688 51.089844 36.6875 C 51.089844 34.445312 51.980469 32.292969 53.566406 30.707031 C 55.152344 29.121094 57.304688 28.230469 59.546875 28.230469 L 103.199219 28.230469 C 105.441406 28.230469 107.59375 29.121094 109.179688 30.707031 C 110.765625 32.292969 111.65625 34.445312 111.65625 36.6875 C 111.65625 38.929688 110.765625 41.082031 109.179688 42.667969 C 107.59375 44.253906 105.441406 45.144531 103.199219 45.144531 Z M 103.199219 45.144531 " clip-rule="nonzero"/></clipPath><clipPath id="b73d771054"><path d="M 0.0703125 0.230469 L 60.65625 0.230469 L 60.65625 17.144531 L 0.0703125 17.144531 Z M 0.0703125 0.230469 " clip-rule="nonzero"/></clipPath><clipPath id="341b091027"><path d="M 52.199219 17.144531 L 8.546875 17.144531 C 6.304688 17.144531 4.152344 16.253906 2.566406 14.667969 C 0.980469 13.082031 0.0898438 10.929688 0.0898438 8.6875 C 0.0898438 6.445312 0.980469 4.292969 2.566406 2.707031 C 4.152344 1.121094 6.304688 0.230469 8.546875 0.230469 L 52.199219 0.230469 C 54.441406 0.230469 56.59375 1.121094 58.179688 2.707031 C 59.765625 4.292969 60.65625 6.445312 60.65625 8.6875 C 60.65625 10.929688 59.765625 13.082031 58.179688 14.667969 C 56.59375 16.253906 54.441406 17.144531 52.199219 17.144531 Z M 52.199219 17.144531 " clip-rule="nonzero"/></clipPath><clipPath id="ed8082c8c1"><rect x="0" width="61" y="0" height="18"/></clipPath><clipPath id="03e2460032"><path d="M 89.46875 72.433594 L 108.996094 72.433594 L 108.996094 89.320312 L 89.46875 89.320312 Z M 89.46875 72.433594 " clip-rule="nonzero"/></clipPath><clipPath id="ad80e42ac9"><path d="M 100.550781 89.320312 L 97.917969 89.320312 C 95.679688 89.320312 93.53125 88.429688 91.949219 86.847656 C 90.363281 85.265625 89.472656 83.117188 89.472656 80.875 C 89.472656 78.636719 90.363281 76.488281 91.949219 74.90625 C 93.53125 73.324219 95.679688 72.433594 97.917969 72.433594 L 100.550781 72.433594 C 102.789062 72.433594 104.9375 73.324219 106.523438 74.90625 C 108.105469 76.488281 108.996094 78.636719 108.996094 80.875 C 108.996094 83.117188 108.105469 85.265625 106.523438 86.847656 C 104.9375 88.429688 102.789062 89.320312 100.550781 89.320312 Z M 100.550781 89.320312 " clip-rule="nonzero"/></clipPath><clipPath id="10aec7ca94"><path d="M 0.46875 0.433594 L 19.996094 0.433594 L 19.996094 17.320312 L 0.46875 17.320312 Z M 0.46875 0.433594 " clip-rule="nonzero"/></clipPath><clipPath id="d56d17c24c"><path d="M 11.550781 17.320312 L 8.917969 17.320312 C 6.679688 17.320312 4.53125 16.429688 2.949219 14.847656 C 1.363281 13.265625 0.472656 11.117188 0.472656 8.875 C 0.472656 6.636719 1.363281 4.488281 2.949219 2.90625 C 4.53125 1.324219 6.679688 0.433594 8.917969 0.433594 L 11.550781 0.433594 C 13.789062 0.433594 15.9375 1.324219 17.523438 2.90625 C 19.105469 4.488281 19.996094 6.636719 19.996094 8.875 C 19.996094 11.117188 19.105469 13.265625 17.523438 14.847656 C 15.9375 16.429688 13.789062 17.320312 11.550781 17.320312 Z M 11.550781 17.320312 " clip-rule="nonzero"/></clipPath><clipPath id="d5641b6635"><rect x="0" width="20" y="0" height="18"/></clipPath><clipPath id="f501029921"><path d="M 73.558594 28.234375 L 130.515625 28.234375 L 130.515625 83.046875 L 73.558594 83.046875 Z M 73.558594 28.234375 " clip-rule="nonzero"/></clipPath><clipPath id="9a77657cad"><path d="M 101.933594 28.234375 C 86.261719 28.234375 73.558594 40.503906 73.558594 55.640625 C 73.558594 70.777344 86.261719 83.046875 101.933594 83.046875 C 117.601562 83.046875 130.304688 70.777344 130.304688 55.640625 C 130.304688 40.503906 117.601562 28.234375 101.933594 28.234375 Z M 101.933594 28.234375 " clip-rule="nonzero"/></clipPath><clipPath id="5a2d8ce6a1"><path d="M 0.558594 0.234375 L 57.515625 0.234375 L 57.515625 55.046875 L 0.558594 55.046875 Z M 0.558594 0.234375 " clip-rule="nonzero"/></clipPath><clipPath id="8f94ff6188"><path d="M 28.933594 0.234375 C 13.261719 0.234375 0.558594 12.503906 0.558594 27.640625 C 0.558594 42.777344 13.261719 55.046875 28.933594 55.046875 C 44.601562 55.046875 57.304688 42.777344 57.304688 27.640625 C 57.304688 12.503906 44.601562 0.234375 28.933594 0.234375 Z M 28.933594 0.234375 " clip-rule="nonzero"/></clipPath><clipPath id="860ce2b543"><rect x="0" width="58" y="0" height="56"/></clipPath><clipPath id="98a7900736"><path d="M 73.558594 28.238281 L 130.367188 28.238281 L 130.367188 82.800781 L 73.558594 82.800781 Z M 73.558594 28.238281 " clip-rule="nonzero"/></clipPath><clipPath id="317d69a5cf"><path d="M 101.929688 28.238281 C 86.261719 28.238281 73.558594 40.503906 73.558594 55.640625 C 73.558594 70.773438 86.261719 83.042969 101.929688 83.042969 C 117.597656 83.042969 130.296875 70.773438 130.296875 55.640625 C 130.296875 40.503906 117.597656 28.238281 101.929688 28.238281 Z M 101.929688 28.238281 " clip-rule="nonzero"/></clipPath><clipPath id="3ccef191a8"><path d="M 66.726562 45.148438 L 93.46875 45.148438 L 93.46875 102.703125 L 66.726562 102.703125 Z M 66.726562 45.148438 " clip-rule="nonzero"/></clipPath><clipPath id="cdb9cbfee5"><path d="M 0.726562 0.148438 L 27.46875 0.148438 L 27.46875 57.703125 L 0.726562 57.703125 Z M 0.726562 0.148438 " clip-rule="nonzero"/></clipPath><clipPath id="92415c7559"><rect x="0" width="28" y="0" height="58"/></clipPath><clipPath id="038620a8f1"><path d="M 85.847656 65.257812 L 109.257812 65.257812 L 109.257812 83.039062 L 85.847656 83.039062 Z M 85.847656 65.257812 " clip-rule="nonzero"/></clipPath><clipPath id="8f5d60ea45"><path d="M 100.367188 83.039062 L 94.773438 83.039062 C 92.414062 83.039062 90.152344 82.101562 88.484375 80.4375 C 86.820312 78.769531 85.882812 76.507812 85.882812 74.148438 C 85.882812 71.789062 86.820312 69.527344 88.484375 67.859375 C 90.152344 66.195312 92.414062 65.257812 94.773438 65.257812 L 100.367188 65.257812 C 102.726562 65.257812 104.988281 66.195312 106.652344 67.859375 C 108.320312 69.527344 109.257812 71.789062 109.257812 74.148438 C 109.257812 76.507812 108.320312 78.769531 106.652344 80.4375 C 104.988281 82.101562 102.726562 83.039062 100.367188 83.039062 Z M 100.367188 83.039062 " clip-rule="nonzero"/></clipPath><clipPath id="9bae2436de"><path d="M 0.847656 0.257812 L 24.257812 0.257812 L 24.257812 18.039062 L 0.847656 18.039062 Z M 0.847656 0.257812 " clip-rule="nonzero"/></clipPath><clipPath id="022904973c"><path d="M 15.367188 18.039062 L 9.773438 18.039062 C 7.414062 18.039062 5.152344 17.101562 3.484375 15.4375 C 1.820312 13.769531 0.882812 11.507812 0.882812 9.148438 C 0.882812 6.789062 1.820312 4.527344 3.484375 2.859375 C 5.152344 1.195312 7.414062 0.257812 9.773438 0.257812 L 15.367188 0.257812 C 17.726562 0.257812 19.988281 1.195312 21.652344 2.859375 C 23.320312 4.527344 24.257812 6.789062 24.257812 9.148438 C 24.257812 11.507812 23.320312 13.769531 21.652344 15.4375 C 19.988281 17.101562 17.726562 18.039062 15.367188 18.039062 Z M 15.367188 18.039062 " clip-rule="nonzero"/></clipPath><clipPath id="56b319e67f"><rect x="0" width="25" y="0" height="19"/></clipPath><clipPath id="40a087baba"><path d="M 87 67 L 125 67 L 125 117 L 87 117 Z M 87 67 " clip-rule="nonzero"/></clipPath><clipPath id="6f1430226f"><path d="M 112.992188 119.433594 L 83.628906 73.402344 L 98.621094 63.835938 L 127.984375 109.871094 Z M 112.992188 119.433594 " clip-rule="nonzero"/></clipPath><clipPath id="d3efa7f605"><path d="M 108.210938 111.9375 L 88.425781 80.921875 C 87.160156 78.933594 86.734375 76.523438 87.242188 74.222656 C 87.75 71.917969 89.152344 69.914062 91.140625 68.644531 C 93.128906 67.375 95.542969 66.949219 97.84375 67.460938 C 100.144531 67.96875 102.152344 69.371094 103.421875 71.359375 L 123.203125 102.375 C 124.46875 104.363281 124.898438 106.773438 124.386719 109.078125 C 123.878906 111.378906 122.476562 113.386719 120.488281 114.652344 C 118.5 115.921875 116.089844 116.347656 113.785156 115.839844 C 111.484375 115.328125 109.476562 113.925781 108.210938 111.9375 Z M 108.210938 111.9375 " clip-rule="nonzero"/></clipPath><clipPath id="9d6b6173b5"><path d="M 0 0 L 38 0 L 38 49.488281 L 0 49.488281 Z M 0 0 " clip-rule="nonzero"/></clipPath><clipPath id="1cb3aba965"><path d="M 25.992188 52.433594 L -3.371094 6.402344 L 11.621094 -3.164062 L 40.984375 42.871094 Z M 25.992188 52.433594 " clip-rule="nonzero"/></clipPath><clipPath id="1c2aacb377"><path d="M 21.210938 44.9375 L 1.425781 13.921875 C 0.160156 11.933594 -0.265625 9.523438 0.242188 7.222656 C 0.75 4.917969 2.152344 2.914062 4.140625 1.644531 C 6.128906 0.375 8.542969 -0.0507812 10.84375 0.460938 C 13.144531 0.96875 15.152344 2.371094 16.421875 4.359375 L 36.203125 35.375 C 37.46875 37.363281 37.898438 39.773438 37.386719 42.078125 C 36.878906 44.378906 35.476562 46.386719 33.488281 47.652344 C 31.5 48.921875 29.089844 49.347656 26.785156 48.839844 C 24.484375 48.328125 22.476562 46.925781 21.210938 44.9375 Z M 21.210938 44.9375 " clip-rule="nonzero"/></clipPath><clipPath id="70faee801a"><rect x="0" width="38" y="0" height="50"/></clipPath><clipPath id="416d0f2a1c"><path d="M 77.589844 45.148438 L 113.425781 45.148438 L 113.425781 65.265625 L 77.589844 65.265625 Z M 77.589844 45.148438 " clip-rule="nonzero"/></clipPath><clipPath id="c4e1300310"><path d="M 87.648438 45.148438 L 103.316406 45.148438 C 105.980469 45.148438 108.539062 46.207031 110.425781 48.09375 C 112.3125 49.980469 113.371094 52.539062 113.371094 55.207031 C 113.371094 57.875 112.3125 60.433594 110.425781 62.316406 C 108.539062 64.203125 105.980469 65.265625 103.316406 65.265625 L 87.648438 65.265625 C 84.984375 65.265625 82.425781 64.203125 80.539062 62.316406 C 78.652344 60.433594 77.589844 57.875 77.589844 55.207031 C 77.589844 52.539062 78.652344 49.980469 80.539062 48.09375 C 82.425781 46.207031 84.984375 45.148438 87.648438 45.148438 Z M 87.648438 45.148438 " clip-rule="nonzero"/></clipPath><clipPath id="88aa92855b"><path d="M 0.589844 0.148438 L 36.425781 0.148438 L 36.425781 20.265625 L 0.589844 20.265625 Z M 0.589844 0.148438 " clip-rule="nonzero"/></clipPath><clipPath id="90ddd59de7"><path d="M 10.648438 0.148438 L 26.316406 0.148438 C 28.980469 0.148438 31.539062 1.207031 33.425781 3.09375 C 35.3125 4.980469 36.371094 7.539062 36.371094 10.207031 C 36.371094 12.875 35.3125 15.433594 33.425781 17.316406 C 31.539062 19.203125 28.980469 20.265625 26.316406 20.265625 L 10.648438 20.265625 C 7.984375 20.265625 5.425781 19.203125 3.539062 17.316406 C 1.652344 15.433594 0.589844 12.875 0.589844 10.207031 C 0.589844 7.539062 1.652344 4.980469 3.539062 3.09375 C 5.425781 1.207031 7.984375 0.148438 10.648438 0.148438 Z M 10.648438 0.148438 " clip-rule="nonzero"/></clipPath><clipPath id="592c87370c"><rect x="0" width="37" y="0" height="21"/></clipPath><clipPath id="bed4fa4bea"><path d="M 85.953125 64.097656 L 120.398438 64.097656 L 120.398438 79.566406 L 85.953125 79.566406 Z M 85.953125 64.097656 " clip-rule="nonzero"/></clipPath><clipPath id="c33e69d3d4"><path d="M 93.6875 64.097656 L 112.648438 64.097656 C 116.921875 64.097656 120.386719 67.558594 120.386719 71.832031 C 120.386719 76.105469 116.921875 79.566406 112.648438 79.566406 L 93.6875 79.566406 C 89.414062 79.566406 85.953125 76.105469 85.953125 71.832031 C 85.953125 67.558594 89.414062 64.097656 93.6875 64.097656 Z M 93.6875 64.097656 " clip-rule="nonzero"/></clipPath><clipPath id="b241434c6f"><path d="M 0.953125 0.0976562 L 35.398438 0.0976562 L 35.398438 15.566406 L 0.953125 15.566406 Z M 0.953125 0.0976562 " clip-rule="nonzero"/></clipPath><clipPath id="3befe20693"><path d="M 8.6875 0.0976562 L 27.648438 0.0976562 C 31.921875 0.0976562 35.386719 3.558594 35.386719 7.832031 C 35.386719 12.105469 31.921875 15.566406 27.648438 15.566406 L 8.6875 15.566406 C 4.414062 15.566406 0.953125 12.105469 0.953125 7.832031 C 0.953125 3.558594 4.414062 0.0976562 8.6875 0.0976562 Z M 8.6875 0.0976562 " clip-rule="nonzero"/></clipPath><clipPath id="925870f4f5"><rect x="0" width="36" y="0" height="16"/></clipPath><clipPath id="7196a519f3"><rect x="0" width="205" y="0" height="114"/></clipPath></defs><g clip-path="url(#6ba18fa6d2)"><g clip-path="url(#e95dcd62d2)"><g transform="matrix(1, 0, 0, 1, 0, 14)"><g clip-path="url(#9122a767ab)"><g clip-path="url(#ff7ed66cd4)"><g clip-path="url(#e58df1d216)"><path fill="#5ec269" d="M 0.65625 0.300781 L 149.027344 0.300781 L 149.027344 119.375 L 0.65625 119.375 Z M 0.65625 0.300781 " fill-opacity="1" fill-rule="nonzero"/></g></g></g></g></g></g><g clip-path="url(#e5cdf8dcc4)"><g clip-path="url(#7bb35ad200)"><g transform="matrix(1, 0, 0, 1, 46, 28)"><g clip-path="url(#59f30a900e)"><g clip-path="url(#f6f028c366)"><g clip-path="url(#c43c339fcc)"><path fill="#151620" d="M 0.488281 88.273438 L 0.488281 0.199219 L 18.339844 0.199219 L 18.339844 88.273438 Z M 0.488281 88.273438 " fill-opacity="1" fill-rule="nonzero"/></g></g></g></g></g></g><g clip-path="url(#177cf122d1)"><g clip-path="url(#be59dd064b)"><g transform="matrix(1, 0, 0, 1, 12, 28)"><g clip-path="url(#9b313cb29a)"><g clip-path="url(#3d902651ee)"><g clip-path="url(#0d381e5ca5)"><path fill="#151620" d="M 83.832031 17.144531 L 0.1875 17.144531 L 0.1875 0.230469 L 83.832031 0.230469 Z M 83.832031 17.144531 " fill-opacity="1" fill-rule="nonzero"/></g></g></g></g></g></g><g clip-path="url(#16d975f95a)"><g clip-path="url(#b97537b787)"><g transform="matrix(1, 0, 0, 1, 51, 28)"><g clip-path="url(#ed8082c8c1)"><g clip-path="url(#b73d771054)"><g clip-path="url(#341b091027)"><path fill="#151620" d="M 60.65625 17.144531 L 0.0703125 17.144531 L 0.0703125 0.230469 L 60.65625 0.230469 Z M 60.65625 17.144531 " fill-opacity="1" fill-rule="nonzero"/></g></g></g></g></g></g><g clip-path="url(#03e2460032)"><g clip-path="url(#ad80e42ac9)"><g transform="matrix(1, 0, 0, 1, 89, 72)"><g clip-path="url(#d5641b6635)"><g clip-path="url(#10aec7ca94)"><g clip-path="url(#d56d17c24c)"><path fill="#ffffff" d="M 19.996094 17.320312 L 0.46875 17.320312 L 0.46875 0.433594 L 19.996094 0.433594 Z M 19.996094 17.320312 " fill-opacity="1" fill-rule="nonzero"/></g></g></g></g></g></g><g clip-path="url(#f501029921)"><g clip-path="url(#9a77657cad)"><g transform="matrix(1, 0, 0, 1, 73, 28)"><g clip-path="url(#860ce2b543)"><g clip-path="url(#5a2d8ce6a1)"><g clip-path="url(#8f94ff6188)"><path fill="#5ec269" d="M 0.558594 0.234375 L 57.300781 0.234375 L 57.300781 55.046875 L 0.558594 55.046875 Z M 0.558594 0.234375 " fill-opacity="1" fill-rule="nonzero"/></g></g></g></g></g></g><g clip-path="url(#98a7900736)"><g clip-path="url(#317d69a5cf)"><path stroke-linecap="butt" transform="matrix(0.747483, 0, 0, 0.747483, 73.559176, 28.233655)" fill="none" stroke-linejoin="miter" d="M 37.954716 0.0061896 C 16.993751 0.0061896 -0.000779139 16.415422 -0.000779139 36.665669 C -0.000779139 56.91069 16.993751 73.325148 37.954716 73.325148 C 58.915681 73.325148 75.904985 56.91069 75.904985 36.665669 C 75.904985 16.415422 58.915681 0.0061896 37.954716 0.0061896 Z M 37.954716 0.0061896 " stroke="#151620" stroke-width="46" stroke-opacity="1" stroke-miterlimit="4"/></g></g><g clip-path="url(#3ccef191a8)"><g transform="matrix(1, 0, 0, 1, 66, 45)"><g clip-path="url(#92415c7559)"><g clip-path="url(#cdb9cbfee5)"><path fill="#5ec269" d="M 0.726562 0.148438 L 27.46875 0.148438 L 27.46875 57.710938 L 0.726562 57.710938 Z M 0.726562 0.148438 " fill-opacity="1" fill-rule="nonzero"/></g></g></g></g><g clip-path="url(#038620a8f1)"><g clip-path="url(#8f5d60ea45)"><g transform="matrix(1, 0, 0, 1, 85, 65)"><g clip-path="url(#56b319e67f)"><g clip-path="url(#9bae2436de)"><g clip-path="url(#022904973c)"><path fill="#151620" d="M 24.257812 18.039062 L 0.847656 18.039062 L 0.847656 0.257812 L 24.257812 0.257812 Z M 24.257812 18.039062 " fill-opacity="1" fill-rule="nonzero"/></g></g></g></g></g></g><g clip-path="url(#40a087baba)"><g clip-path="url(#6f1430226f)"><g clip-path="url(#d3efa7f605)"><g transform="matrix(1, 0, 0, 1, 87, 67)"><g clip-path="url(#70faee801a)"><g clip-path="url(#9d6b6173b5)"><g clip-path="url(#1cb3aba965)"><g clip-path="url(#1c2aacb377)"><path fill="#151620" d="M 25.992188 52.433594 L -3.371094 6.402344 L 11.621094 -3.164062 L 40.984375 42.871094 Z M 25.992188 52.433594 " fill-opacity="1" fill-rule="nonzero"/></g></g></g></g></g></g></g></g><g clip-path="url(#416d0f2a1c)"><g clip-path="url(#c4e1300310)"><g transform="matrix(1, 0, 0, 1, 77, 45)"><g clip-path="url(#592c87370c)"><g clip-path="url(#88aa92855b)"><g clip-path="url(#90ddd59de7)"><path fill="#5ec269" d="M 0.589844 0.148438 L 36.347656 0.148438 L 36.347656 20.265625 L 0.589844 20.265625 Z M 0.589844 0.148438 " fill-opacity="1" fill-rule="nonzero"/></g></g></g></g></g></g><g clip-path="url(#bed4fa4bea)"><g clip-path="url(#c33e69d3d4)"><g transform="matrix(1, 0, 0, 1, 85, 64)"><g clip-path="url(#925870f4f5)"><g clip-path="url(#b241434c6f)"><g clip-path="url(#3befe20693)"><path fill="#151620" d="M 0.953125 0.0976562 L 35.398438 0.0976562 L 35.398438 15.566406 L 0.953125 15.566406 Z M 0.953125 0.0976562 " fill-opacity="1" fill-rule="nonzero"/></g></g></g></g></g></g><g transform="matrix(1, 0, 0, 1, 168, 16)"><g clip-path="url(#7196a519f3)"><g fill="#5ec269" fill-opacity="1"><g transform="translate(0.647721, 50.370306)"><g><path d="M 1.421875 -29.5625 L 1.421875 -37.84375 L 34.28125 -37.84375 L 34.28125 -29.5625 L 22.984375 -29.5625 L 22.984375 0 L 12.71875 0 L 12.71875 -29.5625 Z M 1.421875 -29.5625 "/></g></g></g><g fill="#5ec269" fill-opacity="1"><g transform="translate(31.553877, 50.370306)"><g><path d="M 1.171875 0 L 13.4375 -37.84375 L 27.453125 -37.84375 L 40.1875 0 L 28.546875 0 L 26.359375 -7.265625 L 14.734375 -7.265625 L 12.640625 0 Z M 16.921875 -14.9375 L 24.078125 -14.9375 C 23.378906 -17.238281 22.722656 -19.613281 22.109375 -22.0625 C 21.492188 -24.507812 20.90625 -26.96875 20.34375 -29.4375 C 19.820312 -26.96875 19.285156 -24.507812 18.734375 -22.0625 C 18.179688 -19.613281 17.578125 -17.238281 16.921875 -14.9375 Z M 16.921875 -14.9375 "/></g></g></g><g fill="#5ec269" fill-opacity="1"><g transform="translate(70.358694, 50.370306)"><g><path d="M 20.015625 0.515625 C 16.554688 0.515625 13.453125 -0.226562 10.703125 -1.71875 C 7.953125 -3.21875 5.773438 -5.410156 4.171875 -8.296875 C 2.578125 -11.179688 1.78125 -14.710938 1.78125 -18.890625 C 1.78125 -23.109375 2.59375 -26.664062 4.21875 -29.5625 C 5.84375 -32.457031 8.035156 -34.644531 10.796875 -36.125 C 13.554688 -37.601562 16.628906 -38.34375 20.015625 -38.34375 C 23.160156 -38.34375 25.960938 -37.785156 28.421875 -36.671875 C 30.890625 -35.554688 32.890625 -33.929688 34.421875 -31.796875 C 35.953125 -29.660156 36.875 -27.070312 37.1875 -24.03125 L 26.765625 -24.03125 C 26.566406 -25.632812 25.921875 -26.929688 24.828125 -27.921875 C 23.734375 -28.910156 22.226562 -29.40625 20.3125 -29.40625 C 17.738281 -29.40625 15.765625 -28.476562 14.390625 -26.625 C 13.023438 -24.769531 12.34375 -22.191406 12.34375 -18.890625 C 12.34375 -15.421875 13.035156 -12.8125 14.421875 -11.0625 C 15.816406 -9.3125 17.765625 -8.4375 20.265625 -8.4375 C 22.148438 -8.4375 23.648438 -8.929688 24.765625 -9.921875 C 25.878906 -10.910156 26.566406 -12.207031 26.828125 -13.8125 L 37.234375 -13.8125 C 37.117188 -12.207031 36.675781 -10.566406 35.90625 -8.890625 C 35.132812 -7.210938 34.03125 -5.660156 32.59375 -4.234375 C 31.164062 -2.816406 29.40625 -1.671875 27.3125 -0.796875 C 25.21875 0.078125 22.785156 0.515625 20.015625 0.515625 Z M 20.015625 0.515625 "/></g></g></g><g fill="#5ec269" fill-opacity="1"><g transform="translate(109.240212, 50.370306)"><g><path d="M 1.421875 -29.5625 L 1.421875 -37.84375 L 34.28125 -37.84375 L 34.28125 -29.5625 L 22.984375 -29.5625 L 22.984375 0 L 12.71875 0 L 12.71875 -29.5625 Z M 1.421875 -29.5625 "/></g></g></g><g fill="#5ec269" fill-opacity="1"><g transform="translate(144.947211, 50.370306)"><g><path d="M 12.703125 -37.84375 L 12.703125 0 L 2.4375 0 L 2.4375 -37.84375 Z M 12.703125 -37.84375 "/></g></g></g><g fill="#5ec269" fill-opacity="1"><g transform="translate(160.083321, 50.370306)"><g><path d="M 20.015625 0.515625 C 16.554688 0.515625 13.453125 -0.226562 10.703125 -1.71875 C 7.953125 -3.21875 5.773438 -5.410156 4.171875 -8.296875 C 2.578125 -11.179688 1.78125 -14.710938 1.78125 -18.890625 C 1.78125 -23.109375 2.59375 -26.664062 4.21875 -29.5625 C 5.84375 -32.457031 8.035156 -34.644531 10.796875 -36.125 C 13.554688 -37.601562 16.628906 -38.34375 20.015625 -38.34375 C 23.160156 -38.34375 25.960938 -37.785156 28.421875 -36.671875 C 30.890625 -35.554688 32.890625 -33.929688 34.421875 -31.796875 C 35.953125 -29.660156 36.875 -27.070312 37.1875 -24.03125 L 26.765625 -24.03125 C 26.566406 -25.632812 25.921875 -26.929688 24.828125 -27.921875 C 23.734375 -28.910156 22.226562 -29.40625 20.3125 -29.40625 C 17.738281 -29.40625 15.765625 -28.476562 14.390625 -26.625 C 13.023438 -24.769531 12.34375 -22.191406 12.34375 -18.890625 C 12.34375 -15.421875 13.035156 -12.8125 14.421875 -11.0625 C 15.816406 -9.3125 17.765625 -8.4375 20.265625 -8.4375 C 22.148438 -8.4375 23.648438 -8.929688 24.765625 -9.921875 C 25.878906 -10.910156 26.566406 -12.207031 26.828125 -13.8125 L 37.234375 -13.8125 C 37.117188 -12.207031 36.675781 -10.566406 35.90625 -8.890625 C 35.132812 -7.210938 34.03125 -5.660156 32.59375 -4.234375 C 31.164062 -2.816406 29.40625 -1.671875 27.3125 -0.796875 C 25.21875 0.078125 22.785156 0.515625 20.015625 0.515625 Z M 20.015625 0.515625 "/></g></g></g><g fill="#ffffff" fill-opacity="1"><g transform="translate(0.647721, 100.77725)"><g><path d="M 4.578125 0 L 4.578125 -37.84375 L 17.53125 -37.84375 C 20.46875 -37.84375 22.890625 -37.335938 24.796875 -36.328125 C 26.703125 -35.328125 28.113281 -33.941406 29.03125 -32.171875 C 29.957031 -30.410156 30.421875 -28.40625 30.421875 -26.15625 C 30.421875 -23.65625 29.847656 -21.472656 28.703125 -19.609375 C 27.566406 -17.742188 25.804688 -16.394531 23.421875 -15.5625 L 31.90625 0 L 26.3125 0 L 18.4375 -14.703125 C 18.144531 -14.691406 17.847656 -14.6875 17.546875 -14.6875 L 9.390625 -14.6875 L 9.390625 0 Z M 9.390625 -18.96875 L 17.328125 -18.96875 C 20.304688 -18.96875 22.429688 -19.609375 23.703125 -20.890625 C 24.984375 -22.179688 25.625 -23.9375 25.625 -26.15625 C 25.625 -28.40625 24.984375 -30.207031 23.703125 -31.5625 C 22.429688 -32.925781 20.285156 -33.609375 17.265625 -33.609375 L 9.390625 -33.609375 Z M 9.390625 -18.96875 "/></g></g></g><g fill="#ffffff" fill-opacity="1"><g transform="translate(38.334153, 100.77725)"><g><path d="M 19.90625 0.515625 C 16.675781 0.515625 13.796875 -0.265625 11.265625 -1.828125 C 8.734375 -3.398438 6.738281 -5.640625 5.28125 -8.546875 C 3.820312 -11.453125 3.09375 -14.898438 3.09375 -18.890625 C 3.09375 -22.910156 3.820312 -26.367188 5.28125 -29.265625 C 6.738281 -32.171875 8.734375 -34.410156 11.265625 -35.984375 C 13.796875 -37.554688 16.675781 -38.34375 19.90625 -38.34375 C 23.144531 -38.34375 26.023438 -37.554688 28.546875 -35.984375 C 31.066406 -34.410156 33.050781 -32.171875 34.5 -29.265625 C 35.945312 -26.367188 36.671875 -22.910156 36.671875 -18.890625 C 36.671875 -14.898438 35.945312 -11.453125 34.5 -8.546875 C 33.050781 -5.640625 31.066406 -3.398438 28.546875 -1.828125 C 26.023438 -0.265625 23.144531 0.515625 19.90625 0.515625 Z M 19.90625 -3.96875 C 22.164062 -3.96875 24.203125 -4.535156 26.015625 -5.671875 C 27.835938 -6.816406 29.285156 -8.503906 30.359375 -10.734375 C 31.429688 -12.960938 31.96875 -15.679688 31.96875 -18.890625 C 31.96875 -22.140625 31.429688 -24.878906 30.359375 -27.109375 C 29.285156 -29.335938 27.835938 -31.019531 26.015625 -32.15625 C 24.203125 -33.300781 22.164062 -33.875 19.90625 -33.875 C 17.644531 -33.875 15.597656 -33.296875 13.765625 -32.140625 C 11.929688 -30.992188 10.476562 -29.304688 9.40625 -27.078125 C 8.332031 -24.859375 7.796875 -22.128906 7.796875 -18.890625 C 7.796875 -15.679688 8.332031 -12.96875 9.40625 -10.75 C 10.476562 -8.53125 11.929688 -6.84375 13.765625 -5.6875 C 15.597656 -4.539062 17.644531 -3.96875 19.90625 -3.96875 Z M 19.90625 -3.96875 "/></g></g></g><g fill="#ffffff" fill-opacity="1"><g transform="translate(82.318831, 100.77725)"><g><path d="M 20.046875 0.515625 C 16.671875 0.515625 13.710938 -0.269531 11.171875 -1.84375 C 8.628906 -3.425781 6.644531 -5.664062 5.21875 -8.5625 C 3.800781 -11.46875 3.09375 -14.910156 3.09375 -18.890625 C 3.09375 -22.910156 3.800781 -26.367188 5.21875 -29.265625 C 6.644531 -32.171875 8.613281 -34.410156 11.125 -35.984375 C 13.632812 -37.554688 16.503906 -38.34375 19.734375 -38.34375 C 22.410156 -38.34375 24.835938 -37.820312 27.015625 -36.78125 C 29.191406 -35.75 31 -34.304688 32.4375 -32.453125 C 33.875 -30.597656 34.820312 -28.441406 35.28125 -25.984375 L 30.296875 -25.984375 C 29.515625 -28.398438 28.226562 -30.316406 26.4375 -31.734375 C 24.65625 -33.160156 22.429688 -33.875 19.765625 -33.875 C 17.546875 -33.875 15.53125 -33.300781 13.71875 -32.15625 C 11.90625 -31.019531 10.460938 -29.335938 9.390625 -27.109375 C 8.328125 -24.878906 7.796875 -22.140625 7.796875 -18.890625 C 7.796875 -15.679688 8.332031 -12.96875 9.40625 -10.75 C 10.476562 -8.53125 11.9375 -6.84375 13.78125 -5.6875 C 15.632812 -4.539062 17.722656 -3.96875 20.046875 -3.96875 C 22.140625 -3.96875 23.988281 -4.40625 25.59375 -5.28125 C 27.207031 -6.164062 28.472656 -7.421875 29.390625 -9.046875 C 30.316406 -10.671875 30.796875 -12.59375 30.828125 -14.8125 L 21.03125 -14.8125 L 21.03125 -19.015625 L 35.5625 -19.015625 L 35.5625 -14.890625 C 35.5625 -11.753906 34.890625 -9.035156 33.546875 -6.734375 C 32.210938 -4.429688 30.378906 -2.644531 28.046875 -1.375 C 25.722656 -0.113281 23.054688 0.515625 20.046875 0.515625 Z M 20.046875 0.515625 "/></g></g></g><g fill="#ffffff" fill-opacity="1"><g transform="translate(125.338456, 100.77725)"><g><path d="M 19.375 0.609375 C 16.394531 0.609375 13.789062 0.0234375 11.5625 -1.140625 C 9.34375 -2.304688 7.625 -3.90625 6.40625 -5.9375 C 5.1875 -7.96875 4.578125 -10.28125 4.578125 -12.875 L 4.578125 -37.84375 L 9.390625 -37.84375 L 9.390625 -13.265625 C 9.390625 -11.453125 9.789062 -9.835938 10.59375 -8.421875 C 11.40625 -7.003906 12.554688 -5.890625 14.046875 -5.078125 C 15.535156 -4.265625 17.3125 -3.859375 19.375 -3.859375 C 21.445312 -3.859375 23.222656 -4.265625 24.703125 -5.078125 C 26.179688 -5.890625 27.316406 -7.003906 28.109375 -8.421875 C 28.910156 -9.835938 29.3125 -11.453125 29.3125 -13.265625 L 29.3125 -37.84375 L 34.140625 -37.84375 L 34.140625 -12.875 C 34.140625 -10.28125 33.53125 -7.96875 32.3125 -5.9375 C 31.09375 -3.90625 29.375 -2.304688 27.15625 -1.140625 C 24.945312 0.0234375 22.351562 0.609375 19.375 0.609375 Z M 19.375 0.609375 "/></g></g></g><g fill="#ffffff" fill-opacity="1"><g transform="translate(168.256497, 100.77725)"><g><path d="M 4.578125 0 L 4.578125 -37.84375 L 27.640625 -37.84375 L 27.640625 -33.578125 L 9.390625 -33.578125 L 9.390625 -21.234375 L 26.390625 -21.234375 L 26.390625 -16.96875 L 9.390625 -16.96875 L 9.390625 -4.265625 L 27.859375 -4.265625 L 27.859375 0 Z M 4.578125 0 "/></g></g></g></g></g></svg>