<svg xmlns="http://www.w3.org/2000/svg" xmlns:xlink="http://www.w3.org/1999/xlink" width="252" zoomAndPan="magnify" viewBox="0 0 189 281.25" height="375" preserveAspectRatio="none" version="1.0"><defs><g/><clipPath id="148650230b"><path d="M 0.25 0 L 188.355469 0 L 188.355469 280.503906 L 0.25 280.503906 Z M 0.25 0 " clip-rule="nonzero"/></clipPath><clipPath id="cb1470ca5a"><path d="M 188.355469 14.046875 L 188.355469 266.207031 C 188.355469 273.964844 182.066406 280.253906 174.308594 280.253906 L 14.296875 280.253906 C 6.539062 280.253906 0.25 273.964844 0.25 266.207031 L 0.25 14.046875 C 0.25 6.289062 6.539062 0 14.296875 0 L 174.308594 0 C 182.066406 0 188.355469 6.289062 188.355469 14.046875 Z M 188.355469 14.046875 " clip-rule="nonzero"/></clipPath><clipPath id="b0f346042c"><path d="M 0.25 0 L 188.355469 0 L 188.355469 280 L 0.25 280 Z M 0.25 0 " clip-rule="nonzero"/></clipPath><clipPath id="d3ec75a09f"><path d="M 188.355469 14.046875 L 188.355469 266.207031 C 188.355469 273.964844 182.066406 280.253906 174.308594 280.253906 L 14.296875 280.253906 C 6.539062 280.253906 0.25 273.964844 0.25 266.207031 L 0.25 14.046875 C 0.25 6.289062 6.539062 0 14.296875 0 L 174.308594 0 C 182.066406 0 188.355469 6.289062 188.355469 14.046875 Z M 188.355469 14.046875 " clip-rule="nonzero"/></clipPath><clipPath id="ff49d74b58"><rect x="0" width="189" y="0" height="281"/></clipPath><clipPath id="41fb6c3f4f"><path d="M 0.253906 0 L 188 0 L 188 280.246094 L 0.253906 280.246094 Z M 0.253906 0 " clip-rule="nonzero"/></clipPath><clipPath id="50f256a9ac"><path d="M 188.351562 14.046875 L 188.351562 266.199219 C 188.351562 273.957031 182.0625 280.246094 174.304688 280.246094 L 14.296875 280.246094 C 6.539062 280.246094 0.253906 273.957031 0.253906 266.199219 L 0.253906 14.046875 C 0.253906 6.289062 6.539062 0 14.296875 0 L 174.304688 0 C 182.0625 0 188.351562 6.289062 188.351562 14.046875 Z M 188.351562 14.046875 " clip-rule="nonzero"/></clipPath><clipPath id="fee7bdd2a9"><path d="M 0.25 30.949219 L 185.382812 30.949219 L 185.382812 39.582031 L 0.25 39.582031 Z M 0.25 30.949219 " clip-rule="nonzero"/></clipPath><clipPath id="320510a7f4"><path d="M 0.25 0.949219 L 185.382812 0.949219 L 185.382812 9.582031 L 0.25 9.582031 Z M 0.25 0.949219 " clip-rule="nonzero"/></clipPath><clipPath id="b6ea9df5eb"><rect x="0" width="186" y="0" height="10"/></clipPath><clipPath id="3981b6f0c0"><path d="M 38.535156 0.304688 L 94.523438 0.304688 L 94.523438 39.574219 L 38.535156 39.574219 Z M 38.535156 0.304688 " clip-rule="nonzero"/></clipPath><clipPath id="cde53d70b2"><path d="M 94.441406 0.304688 L 94.441406 39.574219 L 38.535156 39.574219 Z M 94.441406 0.304688 " clip-rule="nonzero"/></clipPath><clipPath id="7079a03c5f"><path d="M 0.535156 0.304688 L 56.523438 0.304688 L 56.523438 39.574219 L 0.535156 39.574219 Z M 0.535156 0.304688 " clip-rule="nonzero"/></clipPath><clipPath id="c5f3e9a298"><path d="M 56.441406 0.304688 L 56.441406 39.574219 L 0.535156 39.574219 Z M 56.441406 0.304688 " clip-rule="nonzero"/></clipPath><clipPath id="03b04890da"><rect x="0" width="57" y="0" height="40"/></clipPath><clipPath id="34d020867b"><path d="M 81.851562 5.960938 L 184.867188 5.960938 L 184.867188 39.582031 L 81.851562 39.582031 Z M 81.851562 5.960938 " clip-rule="nonzero"/></clipPath><clipPath id="20bf878edf"><path d="M 0.851562 0.960938 L 103.867188 0.960938 L 103.867188 34.582031 L 0.851562 34.582031 Z M 0.851562 0.960938 " clip-rule="nonzero"/></clipPath><clipPath id="9e3ae2f462"><rect x="0" width="104" y="0" height="35"/></clipPath><clipPath id="49eda34dd4"><path d="M 5.707031 174.257812 L 183.183594 174.257812 L 183.183594 222.511719 L 5.707031 222.511719 Z M 5.707031 174.257812 " clip-rule="nonzero"/></clipPath><clipPath id="422c196bbb"><path d="M 0.707031 0.257812 L 178.183594 0.257812 L 178.183594 48.511719 L 0.707031 48.511719 Z M 0.707031 0.257812 " clip-rule="nonzero"/></clipPath><clipPath id="44f6d8e01a"><rect x="0" width="179" y="0" height="49"/></clipPath><clipPath id="a39647d35a"><path d="M 3.230469 161.707031 L 92.257812 161.707031 L 92.257812 189.148438 L 3.230469 189.148438 Z M 3.230469 161.707031 " clip-rule="nonzero"/></clipPath><clipPath id="6bab1c966c"><path d="M 0.230469 0.707031 L 89.257812 0.707031 L 89.257812 28.148438 L 0.230469 28.148438 Z M 0.230469 0.707031 " clip-rule="nonzero"/></clipPath><clipPath id="204fc1f439"><rect x="0" width="90" y="0" height="29"/></clipPath><clipPath id="784fce3f06"><path d="M 91.695312 161.707031 L 138.101562 161.707031 L 138.101562 197.597656 L 91.695312 197.597656 Z M 91.695312 161.707031 " clip-rule="nonzero"/></clipPath><clipPath id="90d5843c75"><path d="M 138.042969 197.597656 L 91.695312 197.597656 L 91.695312 161.707031 Z M 138.042969 197.597656 " clip-rule="nonzero"/></clipPath><clipPath id="b9e058c748"><path d="M 0.695312 0.707031 L 47.101562 0.707031 L 47.101562 36.597656 L 0.695312 36.597656 Z M 0.695312 0.707031 " clip-rule="nonzero"/></clipPath><clipPath id="e4699d7ff3"><path d="M 47.042969 36.597656 L 0.695312 36.597656 L 0.695312 0.707031 Z M 47.042969 36.597656 " clip-rule="nonzero"/></clipPath><clipPath id="612290a1df"><rect x="0" width="48" y="0" height="37"/></clipPath><clipPath id="10c1b93ff4"><path d="M 38 11.902344 L 51.414062 11.902344 L 51.414062 26.863281 L 38 26.863281 Z M 38 11.902344 " clip-rule="nonzero"/></clipPath><clipPath id="f852e8a425"><path d="M 31 11.902344 L 42 11.902344 L 42 26.863281 L 31 26.863281 Z M 31 11.902344 " clip-rule="nonzero"/></clipPath><clipPath id="deb0519597"><path d="M 24.484375 11.902344 L 35 11.902344 L 35 26.863281 L 24.484375 26.863281 Z M 24.484375 11.902344 " clip-rule="nonzero"/></clipPath><clipPath id="c3b53934e6"><path d="M 0.25 34 L 188 34 L 188 37 L 0.25 37 Z M 0.25 34 " clip-rule="nonzero"/></clipPath><clipPath id="6089ec19b1"><rect x="0" width="126" y="0" height="74"/></clipPath><clipPath id="4c6fa7e6c2"><path d="M 0.398438 1 L 4 1 L 4 5 L 0.398438 5 Z M 0.398438 1 " clip-rule="nonzero"/></clipPath><clipPath id="d2f6ffa615"><rect x="0" width="87" y="0" height="7"/></clipPath><clipPath id="8af6d93e41"><rect x="0" width="142" y="0" height="33"/></clipPath><clipPath id="f1d9e5dc7f"><path d="M 0.0078125 2 L 3 2 L 3 6 L 0.0078125 6 Z M 0.0078125 2 " clip-rule="nonzero"/></clipPath><clipPath id="9b6d56b402"><rect x="0" width="71" y="0" height="7"/></clipPath><clipPath id="c6aeb67701"><path d="M 0.25 1 L 6 1 L 6 8 L 0.25 8 Z M 0.25 1 " clip-rule="nonzero"/></clipPath><clipPath id="c4c57f1866"><rect x="0" width="49" y="0" height="10"/></clipPath></defs><g clip-path="url(#148650230b)"><g clip-path="url(#cb1470ca5a)"><g transform="matrix(1, 0, 0, 1, 0, -0.000000000000023702)"><g clip-path="url(#ff49d74b58)"><g clip-path="url(#b0f346042c)"><g clip-path="url(#d3ec75a09f)"><path fill="#151620" d="M 0.25 0 L 188.355469 0 L 188.355469 279.953125 L 0.25 279.953125 Z M 0.25 0 " fill-opacity="1" fill-rule="nonzero"/></g></g></g></g></g></g><g clip-path="url(#41fb6c3f4f)"><g clip-path="url(#50f256a9ac)"><path stroke-linecap="butt" transform="matrix(0.748005, 0, 0, 0.748005, 0.25133, 0.0000099734)" fill="none" stroke-linejoin="miter" d="M 251.469122 18.779099 L 251.469122 355.878779 C 251.469122 366.250113 243.061343 374.657891 232.69001 374.657891 L 18.777334 374.657891 C 8.406 374.657891 0.00344444 366.250113 0.00344444 355.878779 L 0.00344444 18.779099 C 0.00344444 8.407765 8.406 -0.0000133333 18.777334 -0.0000133333 L 232.69001 -0.0000133333 C 243.061343 -0.0000133333 251.469122 8.407765 251.469122 18.779099 Z M 251.469122 18.779099 " stroke="#5ec269" stroke-width="20" stroke-opacity="1" stroke-miterlimit="4"/></g></g><g clip-path="url(#fee7bdd2a9)"><g transform="matrix(1, 0, 0, 1, 0, 30)"><g clip-path="url(#b6ea9df5eb)"><g clip-path="url(#320510a7f4)"><path fill="#5ec269" d="M 0.25 0.949219 L 185.398438 0.949219 L 185.398438 9.582031 L 0.25 9.582031 Z M 0.25 0.949219 " fill-opacity="1" fill-rule="nonzero"/></g></g></g></g><g clip-path="url(#3981b6f0c0)"><g clip-path="url(#cde53d70b2)"><g transform="matrix(1, 0, 0, 1, 38, -0.000000000000023703)"><g clip-path="url(#03b04890da)"><g clip-path="url(#7079a03c5f)"><g clip-path="url(#c5f3e9a298)"><path fill="#5ec269" d="M 0.535156 39.574219 L 0.535156 0.304688 L 56.371094 0.304688 L 56.371094 39.574219 Z M 0.535156 39.574219 " fill-opacity="1" fill-rule="nonzero"/></g></g></g></g></g></g><g clip-path="url(#34d020867b)"><g transform="matrix(1, 0, 0, 1, 81, 5)"><g clip-path="url(#9e3ae2f462)"><g clip-path="url(#20bf878edf)"><path fill="#5ec269" d="M 0.851562 0.960938 L 103.8125 0.960938 L 103.8125 34.582031 L 0.851562 34.582031 Z M 0.851562 0.960938 " fill-opacity="1" fill-rule="nonzero"/></g></g></g></g><g clip-path="url(#49eda34dd4)"><g transform="matrix(1, 0, 0, 1, 5, 174)"><g clip-path="url(#44f6d8e01a)"><g clip-path="url(#422c196bbb)"><path fill="#5ec269" d="M 0.707031 0.257812 L 178.269531 0.257812 L 178.269531 48.511719 L 0.707031 48.511719 Z M 0.707031 0.257812 " fill-opacity="1" fill-rule="nonzero"/></g></g></g></g><g clip-path="url(#a39647d35a)"><g transform="matrix(1, 0, 0, 1, 3, 161)"><g clip-path="url(#204fc1f439)"><g clip-path="url(#6bab1c966c)"><path fill="#5ec269" d="M 0.230469 0.707031 L 89.203125 0.707031 L 89.203125 28.148438 L 0.230469 28.148438 Z M 0.230469 0.707031 " fill-opacity="1" fill-rule="nonzero"/></g></g></g></g><g clip-path="url(#784fce3f06)"><g clip-path="url(#90d5843c75)"><g transform="matrix(1, 0, 0, 1, 91, 161)"><g clip-path="url(#612290a1df)"><g clip-path="url(#b9e058c748)"><g clip-path="url(#e4699d7ff3)"><path fill="#5ec269" d="M 0.695312 0.707031 L 47.101562 0.707031 L 47.101562 36.597656 L 0.695312 36.597656 Z M 0.695312 0.707031 " fill-opacity="1" fill-rule="nonzero"/></g></g></g></g></g></g><g clip-path="url(#10c1b93ff4)"><path fill="#5ec269" d="M 44.355469 19.335938 Z M 44.355469 19.335938 Z M 44.355469 19.335938 Z M 44.425781 19.300781 Z M 45.953125 11.902344 L 38.703125 11.902344 L 44.355469 19.269531 L 38.671875 26.675781 L 45.921875 26.675781 L 51.578125 19.269531 Z M 45.953125 11.902344 " fill-opacity="1" fill-rule="evenodd"/></g><g clip-path="url(#f852e8a425)"><path fill="#5ec269" d="M 37.117188 19.335938 Z M 37.117188 19.335938 Z M 37.117188 19.335938 Z M 37.183594 19.300781 Z M 35.585938 11.902344 L 31.464844 11.902344 L 37.117188 19.269531 L 31.429688 26.675781 L 35.554688 26.675781 L 41.242188 19.269531 Z M 35.585938 11.902344 " fill-opacity="0.502" fill-rule="evenodd"/></g><g clip-path="url(#deb0519597)"><path fill="#5ec269" d="M 30.167969 19.335938 Z M 30.167969 19.335938 Z M 30.167969 19.335938 Z M 30.234375 19.300781 Z M 28.640625 11.902344 L 24.527344 11.902344 L 30.167969 19.269531 L 24.496094 26.675781 L 28.609375 26.675781 L 34.277344 19.269531 Z M 28.640625 11.902344 " fill-opacity="0.251" fill-rule="evenodd"/></g><g clip-path="url(#c3b53934e6)"><path fill="#102412" d="M 1 34.515625 L 8.480469 34.515625 C 8.6875 34.515625 8.863281 34.589844 9.007812 34.738281 C 9.15625 34.882812 9.226562 35.058594 9.226562 35.265625 C 9.226562 35.472656 9.15625 35.648438 9.007812 35.792969 C 8.863281 35.941406 8.6875 36.011719 8.480469 36.011719 L 1 36.011719 C 0.792969 36.011719 0.617188 35.941406 0.46875 35.792969 C 0.324219 35.648438 0.25 35.472656 0.25 35.265625 C 0.25 35.058594 0.324219 34.882812 0.46875 34.738281 C 0.617188 34.589844 0.792969 34.515625 1 34.515625 Z M 11.472656 34.515625 L 18.953125 34.515625 C 19.15625 34.515625 19.335938 34.589844 19.480469 34.738281 C 19.625 34.882812 19.699219 35.058594 19.699219 35.265625 C 19.699219 35.472656 19.625 35.648438 19.480469 35.792969 C 19.335938 35.941406 19.15625 36.011719 18.953125 36.011719 L 11.472656 36.011719 C 11.265625 36.011719 11.089844 35.941406 10.941406 35.792969 C 10.796875 35.648438 10.722656 35.472656 10.722656 35.265625 C 10.722656 35.058594 10.796875 34.882812 10.941406 34.738281 C 11.089844 34.589844 11.265625 34.515625 11.472656 34.515625 Z M 21.945312 34.515625 L 29.421875 34.515625 C 29.628906 34.515625 29.804688 34.589844 29.953125 34.738281 C 30.097656 34.882812 30.171875 35.058594 30.171875 35.265625 C 30.171875 35.472656 30.097656 35.648438 29.953125 35.792969 C 29.804688 35.941406 29.628906 36.011719 29.421875 36.011719 L 21.945312 36.011719 C 21.738281 36.011719 21.5625 35.941406 21.414062 35.792969 C 21.269531 35.648438 21.195312 35.472656 21.195312 35.265625 C 21.195312 35.058594 21.269531 34.882812 21.414062 34.738281 C 21.5625 34.589844 21.738281 34.515625 21.945312 34.515625 Z M 32.414062 34.515625 L 39.894531 34.515625 C 40.101562 34.515625 40.277344 34.589844 40.425781 34.738281 C 40.570312 34.882812 40.644531 35.058594 40.644531 35.265625 C 40.644531 35.472656 40.570312 35.648438 40.425781 35.792969 C 40.277344 35.941406 40.101562 36.011719 39.894531 36.011719 L 32.414062 36.011719 C 32.210938 36.011719 32.03125 35.941406 31.886719 35.792969 C 31.742188 35.648438 31.667969 35.472656 31.667969 35.265625 C 31.667969 35.058594 31.742188 34.882812 31.886719 34.738281 C 32.03125 34.589844 32.210938 34.515625 32.414062 34.515625 Z M 42.886719 34.515625 L 50.367188 34.515625 C 50.574219 34.515625 50.75 34.589844 50.898438 34.738281 C 51.042969 34.882812 51.117188 35.058594 51.117188 35.265625 C 51.117188 35.472656 51.042969 35.648438 50.898438 35.792969 C 50.75 35.941406 50.574219 36.011719 50.367188 36.011719 L 42.886719 36.011719 C 42.679688 36.011719 42.503906 35.941406 42.359375 35.792969 C 42.210938 35.648438 42.140625 35.472656 42.140625 35.265625 C 42.140625 35.058594 42.210938 34.882812 42.359375 34.738281 C 42.503906 34.589844 42.679688 34.515625 42.886719 34.515625 Z M 53.359375 34.515625 L 60.839844 34.515625 C 61.046875 34.515625 61.222656 34.589844 61.367188 34.738281 C 61.515625 34.882812 61.585938 35.058594 61.585938 35.265625 C 61.585938 35.472656 61.515625 35.648438 61.367188 35.792969 C 61.222656 35.941406 61.046875 36.011719 60.839844 36.011719 L 53.359375 36.011719 C 53.152344 36.011719 52.976562 35.941406 52.832031 35.792969 C 52.683594 35.648438 52.613281 35.472656 52.613281 35.265625 C 52.613281 35.058594 52.683594 34.882812 52.832031 34.738281 C 52.976562 34.589844 53.152344 34.515625 53.359375 34.515625 Z M 63.832031 34.515625 L 71.3125 34.515625 C 71.519531 34.515625 71.695312 34.589844 71.839844 34.738281 C 71.988281 34.882812 72.058594 35.058594 72.058594 35.265625 C 72.058594 35.472656 71.988281 35.648438 71.839844 35.792969 C 71.695312 35.941406 71.519531 36.011719 71.3125 36.011719 L 63.832031 36.011719 C 63.625 36.011719 63.449219 35.941406 63.304688 35.792969 C 63.15625 35.648438 63.082031 35.472656 63.082031 35.265625 C 63.082031 35.058594 63.15625 34.882812 63.304688 34.738281 C 63.449219 34.589844 63.625 34.515625 63.832031 34.515625 Z M 74.304688 34.515625 L 81.785156 34.515625 C 81.992188 34.515625 82.167969 34.589844 82.3125 34.738281 C 82.457031 34.882812 82.53125 35.058594 82.53125 35.265625 C 82.53125 35.472656 82.457031 35.648438 82.3125 35.792969 C 82.167969 35.941406 81.992188 36.011719 81.785156 36.011719 L 74.304688 36.011719 C 74.097656 36.011719 73.921875 35.941406 73.773438 35.792969 C 73.628906 35.648438 73.554688 35.472656 73.554688 35.265625 C 73.554688 35.058594 73.628906 34.882812 73.773438 34.738281 C 73.921875 34.589844 74.097656 34.515625 74.304688 34.515625 Z M 84.777344 34.515625 L 92.257812 34.515625 C 92.460938 34.515625 92.640625 34.589844 92.785156 34.738281 C 92.929688 34.882812 93.003906 35.058594 93.003906 35.265625 C 93.003906 35.472656 92.929688 35.648438 92.785156 35.792969 C 92.640625 35.941406 92.460938 36.011719 92.257812 36.011719 L 84.777344 36.011719 C 84.570312 36.011719 84.394531 35.941406 84.246094 35.792969 C 84.101562 35.648438 84.027344 35.472656 84.027344 35.265625 C 84.027344 35.058594 84.101562 34.882812 84.246094 34.738281 C 84.394531 34.589844 84.570312 34.515625 84.777344 34.515625 Z M 95.246094 34.515625 L 102.726562 34.515625 C 102.933594 34.515625 103.109375 34.589844 103.257812 34.738281 C 103.402344 34.882812 103.476562 35.058594 103.476562 35.265625 C 103.476562 35.472656 103.402344 35.648438 103.257812 35.792969 C 103.109375 35.941406 102.933594 36.011719 102.726562 36.011719 L 95.246094 36.011719 C 95.042969 36.011719 94.863281 35.941406 94.71875 35.792969 C 94.574219 35.648438 94.5 35.472656 94.5 35.265625 C 94.5 35.058594 94.574219 34.882812 94.71875 34.738281 C 94.863281 34.589844 95.042969 34.515625 95.246094 34.515625 Z M 105.71875 34.515625 L 113.199219 34.515625 C 113.40625 34.515625 113.582031 34.589844 113.730469 34.738281 C 113.875 34.882812 113.949219 35.058594 113.949219 35.265625 C 113.949219 35.472656 113.875 35.648438 113.730469 35.792969 C 113.582031 35.941406 113.40625 36.011719 113.199219 36.011719 L 105.71875 36.011719 C 105.511719 36.011719 105.335938 35.941406 105.191406 35.792969 C 105.046875 35.648438 104.972656 35.472656 104.972656 35.265625 C 104.972656 35.058594 105.046875 34.882812 105.191406 34.738281 C 105.335938 34.589844 105.511719 34.515625 105.71875 34.515625 Z M 116.191406 34.515625 L 123.671875 34.515625 C 123.878906 34.515625 124.054688 34.589844 124.199219 34.738281 C 124.347656 34.882812 124.421875 35.058594 124.421875 35.265625 C 124.421875 35.472656 124.347656 35.648438 124.199219 35.792969 C 124.054688 35.941406 123.878906 36.011719 123.671875 36.011719 L 116.191406 36.011719 C 115.984375 36.011719 115.808594 35.941406 115.664062 35.792969 C 115.515625 35.648438 115.445312 35.472656 115.445312 35.265625 C 115.445312 35.058594 115.515625 34.882812 115.664062 34.738281 C 115.808594 34.589844 115.984375 34.515625 116.191406 34.515625 Z M 126.664062 34.515625 L 134.144531 34.515625 C 134.351562 34.515625 134.527344 34.589844 134.671875 34.738281 C 134.820312 34.882812 134.890625 35.058594 134.890625 35.265625 C 134.890625 35.472656 134.820312 35.648438 134.671875 35.792969 C 134.527344 35.941406 134.351562 36.011719 134.144531 36.011719 L 126.664062 36.011719 C 126.457031 36.011719 126.28125 35.941406 126.136719 35.792969 C 125.988281 35.648438 125.917969 35.472656 125.917969 35.265625 C 125.917969 35.058594 125.988281 34.882812 126.136719 34.738281 C 126.28125 34.589844 126.457031 34.515625 126.664062 34.515625 Z M 137.136719 34.515625 L 144.617188 34.515625 C 144.824219 34.515625 145 34.589844 145.144531 34.738281 C 145.292969 34.882812 145.363281 35.058594 145.363281 35.265625 C 145.363281 35.472656 145.292969 35.648438 145.144531 35.792969 C 145 35.941406 144.824219 36.011719 144.617188 36.011719 L 137.136719 36.011719 C 136.929688 36.011719 136.753906 35.941406 136.605469 35.792969 C 136.460938 35.648438 136.386719 35.472656 136.386719 35.265625 C 136.386719 35.058594 136.460938 34.882812 136.605469 34.738281 C 136.753906 34.589844 136.929688 34.515625 137.136719 34.515625 Z M 147.609375 34.515625 L 155.089844 34.515625 C 155.296875 34.515625 155.472656 34.589844 155.617188 34.738281 C 155.761719 34.882812 155.835938 35.058594 155.835938 35.265625 C 155.835938 35.472656 155.761719 35.648438 155.617188 35.792969 C 155.472656 35.941406 155.296875 36.011719 155.089844 36.011719 L 147.609375 36.011719 C 147.402344 36.011719 147.226562 35.941406 147.078125 35.792969 C 146.933594 35.648438 146.859375 35.472656 146.859375 35.265625 C 146.859375 35.058594 146.933594 34.882812 147.078125 34.738281 C 147.226562 34.589844 147.402344 34.515625 147.609375 34.515625 Z M 158.082031 34.515625 L 165.558594 34.515625 C 165.765625 34.515625 165.941406 34.589844 166.089844 34.738281 C 166.234375 34.882812 166.308594 35.058594 166.308594 35.265625 C 166.308594 35.472656 166.234375 35.648438 166.089844 35.792969 C 165.941406 35.941406 165.765625 36.011719 165.558594 36.011719 L 158.082031 36.011719 C 157.875 36.011719 157.699219 35.941406 157.550781 35.792969 C 157.40625 35.648438 157.332031 35.472656 157.332031 35.265625 C 157.332031 35.058594 157.40625 34.882812 157.550781 34.738281 C 157.699219 34.589844 157.875 34.515625 158.082031 34.515625 Z M 168.550781 34.515625 L 176.03125 34.515625 C 176.238281 34.515625 176.414062 34.589844 176.5625 34.738281 C 176.707031 34.882812 176.78125 35.058594 176.78125 35.265625 C 176.78125 35.472656 176.707031 35.648438 176.5625 35.792969 C 176.414062 35.941406 176.238281 36.011719 176.03125 36.011719 L 168.550781 36.011719 C 168.347656 36.011719 168.167969 35.941406 168.023438 35.792969 C 167.878906 35.648438 167.804688 35.472656 167.804688 35.265625 C 167.804688 35.058594 167.878906 34.882812 168.023438 34.738281 C 168.167969 34.589844 168.347656 34.515625 168.550781 34.515625 Z M 179.023438 34.515625 L 186.503906 34.515625 C 186.710938 34.515625 186.886719 34.589844 187.035156 34.738281 C 187.179688 34.882812 187.253906 35.058594 187.253906 35.265625 C 187.253906 35.472656 187.179688 35.648438 187.035156 35.792969 C 186.886719 35.941406 186.710938 36.011719 186.503906 36.011719 L 179.023438 36.011719 C 178.816406 36.011719 178.640625 35.941406 178.496094 35.792969 C 178.347656 35.648438 178.277344 35.472656 178.277344 35.265625 C 178.277344 35.058594 178.347656 34.882812 178.496094 34.738281 C 178.640625 34.589844 178.816406 34.515625 179.023438 34.515625 Z M 179.023438 34.515625 " fill-opacity="1" fill-rule="nonzero"/></g><g transform="matrix(1, 0, 0, 1, 16, 66)"><g clip-path="url(#6089ec19b1)"><g fill="#ffffff" fill-opacity="1"><g transform="translate(0.860968, 31.474857)"><g><path d="M 0.859375 -17.875 L 0.859375 -22.875 L 20.71875 -22.875 L 20.71875 -17.875 L 13.890625 -17.875 L 13.890625 0 L 7.6875 0 L 7.6875 -17.875 Z M 0.859375 -17.875 "/></g></g></g><g fill="#ffffff" fill-opacity="1"><g transform="translate(22.443026, 31.474857)"><g><path d="M 0.703125 0 L 8.125 -22.875 L 16.59375 -22.875 L 24.28125 0 L 17.25 0 L 15.9375 -4.390625 L 8.90625 -4.390625 L 7.640625 0 Z M 10.21875 -9.03125 L 14.546875 -9.03125 C 14.128906 -10.414062 13.734375 -11.847656 13.359375 -13.328125 C 12.984375 -14.804688 12.628906 -16.296875 12.296875 -17.796875 C 11.972656 -16.296875 11.644531 -14.804688 11.3125 -13.328125 C 10.988281 -11.847656 10.625 -10.414062 10.21875 -9.03125 Z M 10.21875 -9.03125 "/></g></g></g><g fill="#ffffff" fill-opacity="1"><g transform="translate(47.432776, 31.474857)"><g><path d="M 12.09375 0.3125 C 10.007812 0.3125 8.132812 -0.132812 6.46875 -1.03125 C 4.800781 -1.9375 3.484375 -3.257812 2.515625 -5 C 1.554688 -6.75 1.078125 -8.890625 1.078125 -11.421875 C 1.078125 -13.972656 1.566406 -16.125 2.546875 -17.875 C 3.523438 -19.625 4.847656 -20.941406 6.515625 -21.828125 C 8.191406 -22.722656 10.050781 -23.171875 12.09375 -23.171875 C 14 -23.171875 15.695312 -22.832031 17.1875 -22.15625 C 18.675781 -21.488281 19.882812 -20.507812 20.8125 -19.21875 C 21.738281 -17.925781 22.289062 -16.359375 22.46875 -14.515625 L 16.171875 -14.515625 C 16.054688 -15.492188 15.664062 -16.28125 15 -16.875 C 14.34375 -17.476562 13.4375 -17.78125 12.28125 -17.78125 C 10.726562 -17.78125 9.535156 -17.21875 8.703125 -16.09375 C 7.867188 -14.96875 7.453125 -13.410156 7.453125 -11.421875 C 7.453125 -9.328125 7.875 -7.75 8.71875 -6.6875 C 9.5625 -5.625 10.738281 -5.09375 12.25 -5.09375 C 13.382812 -5.09375 14.289062 -5.390625 14.96875 -5.984375 C 15.644531 -6.585938 16.054688 -7.375 16.203125 -8.34375 L 22.5 -8.34375 C 22.425781 -7.375 22.15625 -6.382812 21.6875 -5.375 C 21.226562 -4.363281 20.566406 -3.425781 19.703125 -2.5625 C 18.835938 -1.707031 17.769531 -1.015625 16.5 -0.484375 C 15.238281 0.0429688 13.769531 0.3125 12.09375 0.3125 Z M 12.09375 0.3125 "/></g></g></g><g fill="#ffffff" fill-opacity="1"><g transform="translate(70.933585, 31.474857)"><g><path d="M 0.859375 -17.875 L 0.859375 -22.875 L 20.71875 -22.875 L 20.71875 -17.875 L 13.890625 -17.875 L 13.890625 0 L 7.6875 0 L 7.6875 -17.875 Z M 0.859375 -17.875 "/></g></g></g><g fill="#ffffff" fill-opacity="1"><g transform="translate(92.515643, 31.474857)"><g><path d="M 7.671875 -22.875 L 7.671875 0 L 1.46875 0 L 1.46875 -22.875 Z M 7.671875 -22.875 "/></g></g></g><g fill="#ffffff" fill-opacity="1"><g transform="translate(101.664225, 31.474857)"><g><path d="M 12.09375 0.3125 C 10.007812 0.3125 8.132812 -0.132812 6.46875 -1.03125 C 4.800781 -1.9375 3.484375 -3.257812 2.515625 -5 C 1.554688 -6.75 1.078125 -8.890625 1.078125 -11.421875 C 1.078125 -13.972656 1.566406 -16.125 2.546875 -17.875 C 3.523438 -19.625 4.847656 -20.941406 6.515625 -21.828125 C 8.191406 -22.722656 10.050781 -23.171875 12.09375 -23.171875 C 14 -23.171875 15.695312 -22.832031 17.1875 -22.15625 C 18.675781 -21.488281 19.882812 -20.507812 20.8125 -19.21875 C 21.738281 -17.925781 22.289062 -16.359375 22.46875 -14.515625 L 16.171875 -14.515625 C 16.054688 -15.492188 15.664062 -16.28125 15 -16.875 C 14.34375 -17.476562 13.4375 -17.78125 12.28125 -17.78125 C 10.726562 -17.78125 9.535156 -17.21875 8.703125 -16.09375 C 7.867188 -14.96875 7.453125 -13.410156 7.453125 -11.421875 C 7.453125 -9.328125 7.875 -7.75 8.71875 -6.6875 C 9.5625 -5.625 10.738281 -5.09375 12.25 -5.09375 C 13.382812 -5.09375 14.289062 -5.390625 14.96875 -5.984375 C 15.644531 -6.585938 16.054688 -7.375 16.203125 -8.34375 L 22.5 -8.34375 C 22.425781 -7.375 22.15625 -6.382812 21.6875 -5.375 C 21.226562 -4.363281 20.566406 -3.425781 19.703125 -2.5625 C 18.835938 -1.707031 17.769531 -1.015625 16.5 -0.484375 C 15.238281 0.0429688 13.769531 0.3125 12.09375 0.3125 Z M 12.09375 0.3125 "/></g></g></g><g fill="#5ec269" fill-opacity="1"><g transform="translate(0.860968, 65.972889)"><g><path d="M 1.46875 0 L 1.46875 -22.875 L 11.328125 -22.875 C 13.023438 -22.875 14.507812 -22.5625 15.78125 -21.9375 C 17.0625 -21.320312 18.054688 -20.429688 18.765625 -19.265625 C 19.472656 -18.109375 19.828125 -16.722656 19.828125 -15.109375 C 19.828125 -13.515625 19.484375 -12.164062 18.796875 -11.0625 C 18.109375 -9.957031 17.15625 -9.113281 15.9375 -8.53125 L 20.59375 0 L 13.84375 0 L 9.828125 -7.546875 L 7.671875 -7.546875 L 7.671875 0 Z M 7.671875 -12.375 L 9.859375 -12.375 C 10.953125 -12.375 11.804688 -12.582031 12.421875 -13 C 13.046875 -13.414062 13.359375 -14.117188 13.359375 -15.109375 C 13.359375 -16.078125 13.046875 -16.785156 12.421875 -17.234375 C 11.804688 -17.679688 10.953125 -17.90625 9.859375 -17.90625 L 7.671875 -17.90625 Z M 7.671875 -12.375 "/></g></g></g><g fill="#5ec269" fill-opacity="1"><g transform="translate(24.532538, 65.972889)"><g><path d="M 12.1875 0.3125 C 10.113281 0.3125 8.234375 -0.132812 6.546875 -1.03125 C 4.859375 -1.9375 3.523438 -3.257812 2.546875 -5 C 1.566406 -6.75 1.078125 -8.890625 1.078125 -11.421875 C 1.078125 -13.972656 1.566406 -16.125 2.546875 -17.875 C 3.523438 -19.625 4.859375 -20.941406 6.546875 -21.828125 C 8.234375 -22.722656 10.113281 -23.171875 12.1875 -23.171875 C 14.257812 -23.171875 16.132812 -22.722656 17.8125 -21.828125 C 19.5 -20.941406 20.832031 -19.625 21.8125 -17.875 C 22.800781 -16.125 23.296875 -13.972656 23.296875 -11.421875 C 23.296875 -8.878906 22.800781 -6.734375 21.8125 -4.984375 C 20.832031 -3.242188 19.5 -1.925781 17.8125 -1.03125 C 16.132812 -0.132812 14.257812 0.3125 12.1875 0.3125 Z M 12.1875 -5.09375 C 13.726562 -5.09375 14.898438 -5.632812 15.703125 -6.71875 C 16.515625 -7.800781 16.921875 -9.367188 16.921875 -11.421875 C 16.921875 -13.472656 16.515625 -15.046875 15.703125 -16.140625 C 14.898438 -17.234375 13.726562 -17.78125 12.1875 -17.78125 C 10.65625 -17.78125 9.484375 -17.234375 8.671875 -16.140625 C 7.859375 -15.046875 7.453125 -13.472656 7.453125 -11.421875 C 7.453125 -9.367188 7.859375 -7.800781 8.671875 -6.71875 C 9.484375 -5.632812 10.65625 -5.09375 12.1875 -5.09375 Z M 12.1875 -5.09375 "/></g></g></g><g fill="#5ec269" fill-opacity="1"><g transform="translate(51.581102, 65.972889)"><g><path d="M 12.28125 0.3125 C 10.0625 0.3125 8.109375 -0.160156 6.421875 -1.109375 C 4.742188 -2.054688 3.429688 -3.40625 2.484375 -5.15625 C 1.546875 -6.90625 1.078125 -8.984375 1.078125 -11.390625 C 1.078125 -13.910156 1.578125 -16.046875 2.578125 -17.796875 C 3.585938 -19.554688 4.9375 -20.890625 6.625 -21.796875 C 8.320312 -22.710938 10.195312 -23.171875 12.25 -23.171875 C 14.050781 -23.171875 15.675781 -22.835938 17.125 -22.171875 C 18.582031 -21.503906 19.769531 -20.578125 20.6875 -19.390625 C 21.601562 -18.210938 22.132812 -16.851562 22.28125 -15.3125 L 16.03125 -15.3125 C 15.832031 -16.101562 15.414062 -16.710938 14.78125 -17.140625 C 14.144531 -17.566406 13.34375 -17.78125 12.375 -17.78125 C 10.820312 -17.78125 9.613281 -17.222656 8.75 -16.109375 C 7.882812 -15.003906 7.453125 -13.460938 7.453125 -11.484375 C 7.453125 -9.472656 7.863281 -7.90625 8.6875 -6.78125 C 9.519531 -5.65625 10.738281 -5.09375 12.34375 -5.09375 C 13.71875 -5.09375 14.757812 -5.382812 15.46875 -5.96875 C 16.175781 -6.550781 16.546875 -7.34375 16.578125 -8.34375 L 12.4375 -8.34375 L 12.4375 -12.765625 L 22.5625 -12.765625 L 22.5625 -9.609375 C 22.5625 -7.523438 22.117188 -5.742188 21.234375 -4.265625 C 20.359375 -2.785156 19.144531 -1.648438 17.59375 -0.859375 C 16.050781 -0.078125 14.28125 0.3125 12.28125 0.3125 Z M 12.28125 0.3125 "/></g></g></g><g fill="#5ec269" fill-opacity="1"><g transform="translate(77.969622, 65.972889)"><g><path d="M 11.328125 0.28125 C 9.359375 0.28125 7.632812 -0.0625 6.15625 -0.75 C 4.675781 -1.445312 3.523438 -2.429688 2.703125 -3.703125 C 1.878906 -4.984375 1.46875 -6.492188 1.46875 -8.234375 L 1.46875 -22.875 L 7.671875 -22.875 L 7.671875 -8.75 C 7.671875 -7.6875 8.015625 -6.8125 8.703125 -6.125 C 9.398438 -5.4375 10.273438 -5.09375 11.328125 -5.09375 C 12.398438 -5.09375 13.28125 -5.4375 13.96875 -6.125 C 14.664062 -6.8125 15.015625 -7.6875 15.015625 -8.75 L 15.015625 -22.875 L 21.21875 -22.875 L 21.21875 -8.234375 C 21.21875 -6.492188 20.800781 -4.984375 19.96875 -3.703125 C 19.144531 -2.429688 17.988281 -1.445312 16.5 -0.75 C 15.019531 -0.0625 13.296875 0.28125 11.328125 0.28125 Z M 11.328125 0.28125 "/></g></g></g><g fill="#5ec269" fill-opacity="1"><g transform="translate(103.329689, 65.972889)"><g><path d="M 1.46875 0 L 1.46875 -22.875 L 17.953125 -22.875 L 17.953125 -17.875 L 7.671875 -17.875 L 7.671875 -14 L 17.09375 -14 L 17.09375 -9.125 L 7.671875 -9.125 L 7.671875 -5 L 17.90625 -5 L 17.90625 0 Z M 1.46875 0 "/></g></g></g></g></g><g transform="matrix(1, 0, 0, 1, 19, 58)"><g clip-path="url(#d2f6ffa615)"><g clip-path="url(#4c6fa7e6c2)"><g fill="#5ec269" fill-opacity="1"><g transform="translate(0.464594, 4.957412)"><g><path d="M 0.375 0 L 0.375 -3.65625 L 1.734375 -3.65625 C 2.015625 -3.65625 2.25 -3.597656 2.4375 -3.484375 C 2.625 -3.378906 2.765625 -3.238281 2.859375 -3.0625 C 2.960938 -2.882812 3.015625 -2.675781 3.015625 -2.4375 C 3.015625 -2.207031 2.960938 -2 2.859375 -1.8125 C 2.765625 -1.632812 2.617188 -1.492188 2.421875 -1.390625 C 2.234375 -1.285156 2 -1.234375 1.71875 -1.234375 L 1.015625 -1.234375 L 1.015625 0 Z M 1.015625 -1.765625 L 1.640625 -1.765625 C 1.878906 -1.765625 2.054688 -1.828125 2.171875 -1.953125 C 2.285156 -2.085938 2.34375 -2.25 2.34375 -2.4375 C 2.34375 -2.632812 2.285156 -2.789062 2.171875 -2.90625 C 2.054688 -3.03125 1.875 -3.09375 1.625 -3.09375 L 1.015625 -3.09375 Z M 1.015625 -1.765625 "/></g></g></g></g><g fill="#5ec269" fill-opacity="1"><g transform="translate(7.143949, 4.957412)"><g><path d="M 0.125 0 L 1.390625 -3.65625 L 2.21875 -3.65625 L 3.53125 0 L 2.8125 0 L 2.5 -0.90625 L 1.140625 -0.90625 L 0.84375 0 Z M 1.3125 -1.4375 L 2.328125 -1.4375 L 2.15625 -1.890625 C 2.101562 -2.054688 2.046875 -2.242188 1.984375 -2.453125 C 1.929688 -2.660156 1.875 -2.890625 1.8125 -3.140625 C 1.738281 -2.878906 1.675781 -2.644531 1.625 -2.4375 C 1.570312 -2.238281 1.519531 -2.054688 1.46875 -1.890625 Z M 1.3125 -1.4375 "/></g></g></g><g fill="#5ec269" fill-opacity="1"><g transform="translate(14.440699, 4.957412)"><g><path d="M 1.921875 0.046875 C 1.597656 0.046875 1.3125 -0.0234375 1.0625 -0.171875 C 0.8125 -0.316406 0.613281 -0.53125 0.46875 -0.8125 C 0.320312 -1.09375 0.25 -1.429688 0.25 -1.828125 C 0.25 -2.210938 0.320312 -2.546875 0.46875 -2.828125 C 0.613281 -3.109375 0.8125 -3.320312 1.0625 -3.46875 C 1.3125 -3.625 1.597656 -3.703125 1.921875 -3.703125 C 2.191406 -3.703125 2.429688 -3.648438 2.640625 -3.546875 C 2.859375 -3.453125 3.039062 -3.304688 3.1875 -3.109375 C 3.332031 -2.921875 3.421875 -2.695312 3.453125 -2.4375 L 2.796875 -2.4375 C 2.753906 -2.644531 2.65625 -2.804688 2.5 -2.921875 C 2.34375 -3.046875 2.15625 -3.109375 1.9375 -3.109375 C 1.632812 -3.109375 1.382812 -2.992188 1.1875 -2.765625 C 1 -2.546875 0.90625 -2.234375 0.90625 -1.828125 C 0.90625 -1.398438 1 -1.078125 1.1875 -0.859375 C 1.382812 -0.640625 1.632812 -0.53125 1.9375 -0.53125 C 2.15625 -0.53125 2.34375 -0.585938 2.5 -0.703125 C 2.65625 -0.828125 2.753906 -1 2.796875 -1.21875 L 3.46875 -1.21875 C 3.425781 -0.976562 3.335938 -0.765625 3.203125 -0.578125 C 3.078125 -0.390625 2.90625 -0.238281 2.6875 -0.125 C 2.46875 -0.0078125 2.210938 0.046875 1.921875 0.046875 Z M 1.921875 0.046875 "/></g></g></g><g fill="#5ec269" fill-opacity="1"><g transform="translate(21.982482, 4.957412)"><g><path d="M 0.375 0 L 0.375 -3.65625 L 1.015625 -3.65625 L 1.015625 -1.78125 C 1.097656 -1.914062 1.1875 -2.039062 1.28125 -2.15625 C 1.375 -2.28125 1.484375 -2.414062 1.609375 -2.5625 L 2.5625 -3.65625 L 3.375 -3.65625 L 1.96875 -2.0625 L 3.390625 0 L 2.625 0 L 1.515625 -1.640625 L 1.015625 -1.09375 L 1.015625 0 Z M 0.375 0 "/></g></g></g><g fill="#5ec269" fill-opacity="1"><g transform="translate(29.355223, 4.957412)"><g/></g></g><g fill="#5ec269" fill-opacity="1"><g transform="translate(34.464315, 4.957412)"><g><path d="M 0.375 0 L 0.375 -3.65625 L 1.734375 -3.65625 C 2.148438 -3.65625 2.46875 -3.546875 2.6875 -3.328125 C 2.90625 -3.109375 3.015625 -2.828125 3.015625 -2.484375 C 3.015625 -2.234375 2.957031 -2.019531 2.84375 -1.84375 C 2.738281 -1.664062 2.578125 -1.535156 2.359375 -1.453125 L 3.15625 0 L 2.421875 0 L 1.703125 -1.34375 L 1.015625 -1.34375 L 1.015625 0 Z M 1.015625 -1.875 L 1.640625 -1.875 C 1.878906 -1.875 2.054688 -1.925781 2.171875 -2.03125 C 2.285156 -2.132812 2.34375 -2.285156 2.34375 -2.484375 C 2.34375 -2.679688 2.285156 -2.832031 2.171875 -2.9375 C 2.054688 -3.039062 1.875 -3.09375 1.625 -3.09375 L 1.015625 -3.09375 Z M 1.015625 -1.875 "/></g></g></g><g fill="#5ec269" fill-opacity="1"><g transform="translate(41.582273, 4.957412)"><g><path d="M 0.375 0 L 0.375 -3.65625 L 2.734375 -3.65625 L 2.734375 -3.09375 L 1.015625 -3.09375 L 1.015625 -2.109375 L 2.609375 -2.109375 L 2.609375 -1.5625 L 1.015625 -1.5625 L 1.015625 -0.546875 L 2.75 -0.546875 L 2.75 0 Z M 0.375 0 "/></g></g></g><g fill="#5ec269" fill-opacity="1"><g transform="translate(48.465046, 4.957412)"><g><path d="M 1.109375 0 L 0.125 -3.65625 L 0.828125 -3.65625 L 1.296875 -1.703125 C 1.335938 -1.535156 1.375 -1.359375 1.40625 -1.171875 C 1.4375 -0.992188 1.46875 -0.816406 1.5 -0.640625 C 1.53125 -0.816406 1.5625 -0.992188 1.59375 -1.171875 C 1.632812 -1.359375 1.675781 -1.535156 1.71875 -1.703125 L 2.21875 -3.65625 L 2.90625 -3.65625 L 3.390625 -1.703125 C 3.429688 -1.546875 3.46875 -1.375 3.5 -1.1875 C 3.539062 -1.007812 3.578125 -0.832031 3.609375 -0.65625 C 3.640625 -0.832031 3.671875 -1.007812 3.703125 -1.1875 C 3.742188 -1.375 3.78125 -1.546875 3.8125 -1.703125 L 4.28125 -3.65625 L 5 -3.65625 L 4 0 L 3.25 0 L 2.71875 -2.015625 C 2.6875 -2.140625 2.65625 -2.273438 2.625 -2.421875 C 2.601562 -2.566406 2.578125 -2.71875 2.546875 -2.875 C 2.523438 -2.71875 2.5 -2.566406 2.46875 -2.421875 C 2.445312 -2.285156 2.421875 -2.148438 2.390625 -2.015625 L 1.859375 0 Z M 1.109375 0 "/></g></g></g><g fill="#5ec269" fill-opacity="1"><g transform="translate(57.092034, 4.957412)"><g><path d="M 0.125 0 L 1.390625 -3.65625 L 2.21875 -3.65625 L 3.53125 0 L 2.8125 0 L 2.5 -0.90625 L 1.140625 -0.90625 L 0.84375 0 Z M 1.3125 -1.4375 L 2.328125 -1.4375 L 2.15625 -1.890625 C 2.101562 -2.054688 2.046875 -2.242188 1.984375 -2.453125 C 1.929688 -2.660156 1.875 -2.890625 1.8125 -3.140625 C 1.738281 -2.878906 1.675781 -2.644531 1.625 -2.4375 C 1.570312 -2.238281 1.519531 -2.054688 1.46875 -1.890625 Z M 1.3125 -1.4375 "/></g></g></g><g fill="#5ec269" fill-opacity="1"><g transform="translate(64.587267, 4.957412)"><g><path d="M 0.375 0 L 0.375 -3.65625 L 1.734375 -3.65625 C 2.148438 -3.65625 2.46875 -3.546875 2.6875 -3.328125 C 2.90625 -3.109375 3.015625 -2.828125 3.015625 -2.484375 C 3.015625 -2.234375 2.957031 -2.019531 2.84375 -1.84375 C 2.738281 -1.664062 2.578125 -1.535156 2.359375 -1.453125 L 3.15625 0 L 2.421875 0 L 1.703125 -1.34375 L 1.015625 -1.34375 L 1.015625 0 Z M 1.015625 -1.875 L 1.640625 -1.875 C 1.878906 -1.875 2.054688 -1.925781 2.171875 -2.03125 C 2.285156 -2.132812 2.34375 -2.285156 2.34375 -2.484375 C 2.34375 -2.679688 2.285156 -2.832031 2.171875 -2.9375 C 2.054688 -3.039062 1.875 -3.09375 1.625 -3.09375 L 1.015625 -3.09375 Z M 1.015625 -1.875 "/></g></g></g><g fill="#5ec269" fill-opacity="1"><g transform="translate(71.705225, 4.957412)"><g><path d="M 1.609375 0 L 0.375 0 L 0.375 -3.65625 L 1.625 -3.65625 C 1.988281 -3.65625 2.300781 -3.578125 2.5625 -3.421875 C 2.820312 -3.273438 3.019531 -3.066406 3.15625 -2.796875 C 3.300781 -2.523438 3.375 -2.203125 3.375 -1.828125 C 3.375 -1.453125 3.300781 -1.125 3.15625 -0.84375 C 3.019531 -0.570312 2.816406 -0.363281 2.546875 -0.21875 C 2.285156 -0.0703125 1.972656 0 1.609375 0 Z M 1.015625 -0.5625 L 1.5625 -0.5625 C 2.332031 -0.5625 2.71875 -0.984375 2.71875 -1.828125 C 2.71875 -2.660156 2.34375 -3.078125 1.59375 -3.078125 L 1.015625 -3.078125 Z M 1.015625 -0.5625 "/></g></g></g><g fill="#5ec269" fill-opacity="1"><g transform="translate(79.173512, 4.957412)"><g><path d="M 1.640625 0.0625 C 1.222656 0.0625 0.882812 -0.0351562 0.625 -0.234375 C 0.375 -0.429688 0.242188 -0.710938 0.234375 -1.078125 L 0.875 -1.078125 C 0.894531 -0.878906 0.972656 -0.734375 1.109375 -0.640625 C 1.253906 -0.546875 1.429688 -0.5 1.640625 -0.5 C 1.859375 -0.5 2.035156 -0.546875 2.171875 -0.640625 C 2.304688 -0.742188 2.375 -0.875 2.375 -1.03125 C 2.375 -1.164062 2.3125 -1.269531 2.1875 -1.34375 C 2.070312 -1.414062 1.914062 -1.476562 1.71875 -1.53125 L 1.296875 -1.640625 C 0.992188 -1.722656 0.753906 -1.84375 0.578125 -2 C 0.410156 -2.15625 0.328125 -2.363281 0.328125 -2.625 C 0.328125 -2.84375 0.382812 -3.03125 0.5 -3.1875 C 0.625 -3.34375 0.785156 -3.46875 0.984375 -3.5625 C 1.179688 -3.65625 1.410156 -3.703125 1.671875 -3.703125 C 1.929688 -3.703125 2.15625 -3.65625 2.34375 -3.5625 C 2.539062 -3.46875 2.691406 -3.34375 2.796875 -3.1875 C 2.910156 -3.03125 2.972656 -2.851562 2.984375 -2.65625 L 2.34375 -2.65625 C 2.332031 -2.800781 2.265625 -2.914062 2.140625 -3 C 2.015625 -3.09375 1.851562 -3.140625 1.65625 -3.140625 C 1.445312 -3.140625 1.285156 -3.09375 1.171875 -3 C 1.054688 -2.914062 1 -2.800781 1 -2.65625 C 1 -2.5625 1.03125 -2.476562 1.09375 -2.40625 C 1.15625 -2.34375 1.234375 -2.289062 1.328125 -2.25 C 1.421875 -2.21875 1.515625 -2.1875 1.609375 -2.15625 L 1.953125 -2.078125 C 2.128906 -2.023438 2.300781 -1.957031 2.46875 -1.875 C 2.632812 -1.800781 2.769531 -1.691406 2.875 -1.546875 C 2.976562 -1.410156 3.03125 -1.238281 3.03125 -1.03125 C 3.03125 -0.8125 2.972656 -0.617188 2.859375 -0.453125 C 2.753906 -0.296875 2.597656 -0.171875 2.390625 -0.078125 C 2.179688 0.0117188 1.929688 0.0625 1.640625 0.0625 Z M 1.640625 0.0625 "/></g></g></g></g></g><g transform="matrix(1, 0, 0, 1, 23, 181)"><g clip-path="url(#8af6d93e41)"><g fill="#151620" fill-opacity="1"><g transform="translate(1.280042, 25.870215)"><g><path d="M 1.1875 0 L 1.1875 -18.53125 L 6.21875 -18.53125 L 6.21875 -4.046875 L 13.703125 -4.046875 L 13.703125 0 Z M 1.1875 0 "/></g></g></g><g fill="#151620" fill-opacity="1"><g transform="translate(15.706464, 25.870215)"><g><path d="M 5.15625 0.21875 C 3.8125 0.21875 2.71875 -0.109375 1.875 -0.765625 C 1.039062 -1.429688 0.625 -2.453125 0.625 -3.828125 C 0.625 -4.847656 0.847656 -5.664062 1.296875 -6.28125 C 1.753906 -6.90625 2.367188 -7.375 3.140625 -7.6875 C 3.910156 -8 4.769531 -8.1875 5.71875 -8.25 C 6.882812 -8.332031 7.707031 -8.453125 8.1875 -8.609375 C 8.675781 -8.773438 8.921875 -9.0625 8.921875 -9.46875 L 8.921875 -9.53125 C 8.921875 -9.882812 8.78125 -10.15625 8.5 -10.34375 C 8.21875 -10.539062 7.835938 -10.640625 7.359375 -10.640625 C 6.890625 -10.640625 6.484375 -10.535156 6.140625 -10.328125 C 5.804688 -10.128906 5.597656 -9.820312 5.515625 -9.40625 L 1.015625 -9.84375 C 1.148438 -10.625 1.472656 -11.332031 1.984375 -11.96875 C 2.503906 -12.613281 3.21875 -13.125 4.125 -13.5 C 5.03125 -13.882812 6.132812 -14.078125 7.4375 -14.078125 C 8.75 -14.078125 9.894531 -13.875 10.875 -13.46875 C 11.851562 -13.070312 12.601562 -12.53125 13.125 -11.84375 C 13.65625 -11.15625 13.921875 -10.382812 13.921875 -9.53125 L 13.921875 0 L 9.25 0 L 9.25 -1.96875 L 9.15625 -1.96875 C 8.726562 -1.1875 8.175781 -0.625 7.5 -0.28125 C 6.832031 0.0507812 6.050781 0.21875 5.15625 0.21875 Z M 6.765625 -2.9375 C 7.328125 -2.9375 7.835938 -3.109375 8.296875 -3.453125 C 8.753906 -3.804688 8.984375 -4.296875 8.984375 -4.921875 L 8.984375 -6.0625 C 8.460938 -5.863281 7.796875 -5.703125 6.984375 -5.578125 C 6.410156 -5.484375 5.988281 -5.304688 5.71875 -5.046875 C 5.457031 -4.785156 5.328125 -4.476562 5.328125 -4.125 C 5.328125 -3.738281 5.457031 -3.441406 5.71875 -3.234375 C 5.988281 -3.035156 6.335938 -2.9375 6.765625 -2.9375 Z M 6.765625 -2.9375 "/></g></g></g><g fill="#151620" fill-opacity="1"><g transform="translate(30.928794, 25.870215)"><g><path d="M 6.265625 -7.8125 L 6.265625 0 L 1.265625 0 L 1.265625 -13.90625 L 5.953125 -13.90625 L 6.046875 -10.765625 C 6.378906 -11.710938 6.894531 -12.5 7.59375 -13.125 C 8.289062 -13.757812 9.234375 -14.078125 10.421875 -14.078125 C 11.410156 -14.078125 12.265625 -13.851562 12.984375 -13.40625 C 13.710938 -12.957031 14.273438 -12.335938 14.671875 -11.546875 C 15.066406 -10.765625 15.265625 -9.867188 15.265625 -8.859375 L 15.265625 0 L 10.265625 0 L 10.265625 -7.8125 C 10.265625 -8.5 10.09375 -9.035156 9.75 -9.421875 C 9.40625 -9.816406 8.914062 -10.015625 8.28125 -10.015625 C 7.664062 -10.015625 7.175781 -9.816406 6.8125 -9.421875 C 6.445312 -9.035156 6.265625 -8.5 6.265625 -7.8125 Z M 6.265625 -7.8125 "/></g></g></g><g fill="#151620" fill-opacity="1"><g transform="translate(47.494218, 25.870215)"><g><path d="M 6.25 0.171875 C 5.257812 0.171875 4.347656 -0.0820312 3.515625 -0.59375 C 2.679688 -1.113281 2.015625 -1.898438 1.515625 -2.953125 C 1.015625 -4.015625 0.765625 -5.34375 0.765625 -6.9375 C 0.765625 -8.625 1.023438 -9.988281 1.546875 -11.03125 C 2.078125 -12.082031 2.753906 -12.851562 3.578125 -13.34375 C 4.410156 -13.832031 5.28125 -14.078125 6.1875 -14.078125 C 7.226562 -14.078125 8.070312 -13.816406 8.71875 -13.296875 C 9.375 -12.785156 9.832031 -12.175781 10.09375 -11.46875 L 10.171875 -11.46875 L 10.171875 -18.53125 L 15.171875 -18.53125 L 15.171875 0 L 10.21875 0 L 10.21875 -2.28125 L 10.09375 -2.28125 C 9.8125 -1.582031 9.34375 -1 8.6875 -0.53125 C 8.03125 -0.0625 7.21875 0.171875 6.25 0.171875 Z M 8.078125 -3.65625 C 8.765625 -3.65625 9.304688 -3.953125 9.703125 -4.546875 C 10.097656 -5.140625 10.296875 -5.9375 10.296875 -6.9375 C 10.296875 -7.976562 10.097656 -8.789062 9.703125 -9.375 C 9.304688 -9.957031 8.765625 -10.25 8.078125 -10.25 C 7.390625 -10.25 6.859375 -9.957031 6.484375 -9.375 C 6.109375 -8.789062 5.921875 -7.976562 5.921875 -6.9375 C 5.921875 -5.90625 6.109375 -5.097656 6.484375 -4.515625 C 6.859375 -3.941406 7.390625 -3.65625 8.078125 -3.65625 Z M 8.078125 -3.65625 "/></g></g></g><g fill="#151620" fill-opacity="1"><g transform="translate(63.960155, 25.870215)"><g><path d="M 7.9375 0.25 C 5.707031 0.25 3.953125 -0.378906 2.671875 -1.640625 C 1.398438 -2.910156 0.765625 -4.671875 0.765625 -6.921875 C 0.765625 -8.347656 1.050781 -9.597656 1.625 -10.671875 C 2.207031 -11.742188 3.023438 -12.578125 4.078125 -13.171875 C 5.128906 -13.773438 6.375 -14.078125 7.8125 -14.078125 C 9.207031 -14.078125 10.421875 -13.785156 11.453125 -13.203125 C 12.492188 -12.628906 13.296875 -11.8125 13.859375 -10.75 C 14.429688 -9.6875 14.71875 -8.414062 14.71875 -6.9375 L 14.71875 -5.796875 L 5.671875 -5.796875 C 5.703125 -4.929688 5.929688 -4.289062 6.359375 -3.875 C 6.785156 -3.46875 7.34375 -3.265625 8.03125 -3.265625 C 8.539062 -3.265625 8.976562 -3.367188 9.34375 -3.578125 C 9.71875 -3.785156 9.976562 -4.082031 10.125 -4.46875 L 14.53125 -3.8125 C 14.164062 -2.5625 13.414062 -1.570312 12.28125 -0.84375 C 11.15625 -0.113281 9.707031 0.25 7.9375 0.25 Z M 5.703125 -8.53125 L 10.015625 -8.53125 C 9.859375 -9.894531 9.140625 -10.578125 7.859375 -10.578125 C 6.578125 -10.578125 5.859375 -9.894531 5.703125 -8.53125 Z M 5.703125 -8.53125 "/></g></g></g><g fill="#151620" fill-opacity="1"><g transform="translate(79.431206, 25.870215)"><g><path d="M 7.46875 0.25 C 5.582031 0.25 4.03125 -0.140625 2.8125 -0.921875 C 1.601562 -1.710938 0.878906 -2.796875 0.640625 -4.171875 L 5.265625 -4.84375 C 5.429688 -4.289062 5.703125 -3.867188 6.078125 -3.578125 C 6.453125 -3.285156 6.992188 -3.140625 7.703125 -3.140625 C 8.734375 -3.140625 9.25 -3.425781 9.25 -4 C 9.25 -4.488281 8.71875 -4.832031 7.65625 -5.03125 L 5.203125 -5.46875 C 2.378906 -5.976562 0.96875 -7.335938 0.96875 -9.546875 C 0.96875 -11.003906 1.539062 -12.125 2.6875 -12.90625 C 3.832031 -13.6875 5.398438 -14.078125 7.390625 -14.078125 C 9.222656 -14.078125 10.707031 -13.722656 11.84375 -13.015625 C 12.988281 -12.304688 13.664062 -11.320312 13.875 -10.0625 L 9.46875 -9.421875 C 9.363281 -9.878906 9.128906 -10.210938 8.765625 -10.421875 C 8.398438 -10.640625 7.972656 -10.75 7.484375 -10.75 C 7.054688 -10.75 6.691406 -10.671875 6.390625 -10.515625 C 6.085938 -10.359375 5.9375 -10.132812 5.9375 -9.84375 C 5.9375 -9.632812 6.023438 -9.4375 6.203125 -9.25 C 6.390625 -9.070312 6.742188 -8.941406 7.265625 -8.859375 L 10.09375 -8.359375 C 12.914062 -7.859375 14.328125 -6.601562 14.328125 -4.59375 C 14.328125 -3.601562 14.03125 -2.742188 13.4375 -2.015625 C 12.84375 -1.296875 12.03125 -0.738281 11 -0.34375 C 9.976562 0.0507812 8.800781 0.25 7.46875 0.25 Z M 7.46875 0.25 "/></g></g></g><g fill="#151620" fill-opacity="1"><g transform="translate(94.429687, 25.870215)"><g><path d="M 6.265625 -18.53125 L 6.265625 0 L 1.265625 0 L 1.265625 -18.53125 Z M 6.265625 -18.53125 "/></g></g></g><g fill="#151620" fill-opacity="1"><g transform="translate(101.991404, 25.870215)"><g><path d="M 1.265625 0 L 1.265625 -13.90625 L 6.265625 -13.90625 L 6.265625 0 Z M 3.765625 -15.328125 C 3.085938 -15.328125 2.503906 -15.550781 2.015625 -16 C 1.535156 -16.445312 1.296875 -16.984375 1.296875 -17.609375 C 1.296875 -18.242188 1.535156 -18.78125 2.015625 -19.21875 C 2.503906 -19.664062 3.085938 -19.890625 3.765625 -19.890625 C 4.441406 -19.890625 5.019531 -19.664062 5.5 -19.21875 C 5.976562 -18.78125 6.21875 -18.242188 6.21875 -17.609375 C 6.21875 -16.984375 5.976562 -16.445312 5.5 -16 C 5.019531 -15.550781 4.441406 -15.328125 3.765625 -15.328125 Z M 3.765625 -15.328125 "/></g></g></g><g fill="#151620" fill-opacity="1"><g transform="translate(109.55312, 25.870215)"><g><path d="M 7.90625 5.5 C 6.007812 5.5 4.46875 5.144531 3.28125 4.4375 C 2.101562 3.726562 1.414062 2.78125 1.21875 1.59375 L 5.609375 0.9375 C 5.679688 1.3125 5.914062 1.601562 6.3125 1.8125 C 6.71875 2.03125 7.242188 2.140625 7.890625 2.140625 C 9.492188 2.140625 10.296875 1.414062 10.296875 -0.03125 L 10.296875 -2.390625 L 9.9375 -2.390625 C 9.664062 -1.679688 9.210938 -1.132812 8.578125 -0.75 C 7.953125 -0.363281 7.175781 -0.171875 6.25 -0.171875 C 5.257812 -0.171875 4.347656 -0.398438 3.515625 -0.859375 C 2.691406 -1.316406 2.023438 -2.046875 1.515625 -3.046875 C 1.015625 -4.046875 0.765625 -5.34375 0.765625 -6.9375 C 0.765625 -8.625 1.023438 -9.988281 1.546875 -11.03125 C 2.078125 -12.082031 2.757812 -12.851562 3.59375 -13.34375 C 4.425781 -13.832031 5.300781 -14.078125 6.21875 -14.078125 C 7.25 -14.078125 8.097656 -13.816406 8.765625 -13.296875 C 9.429688 -12.785156 9.898438 -12.175781 10.171875 -11.46875 L 10.265625 -11.46875 L 10.265625 -13.90625 L 15.21875 -13.90625 L 15.21875 -0.515625 C 15.21875 0.785156 14.910156 1.878906 14.296875 2.765625 C 13.691406 3.660156 12.84375 4.335938 11.75 4.796875 C 10.65625 5.265625 9.375 5.5 7.90625 5.5 Z M 8.078125 -3.734375 C 8.765625 -3.734375 9.304688 -4.015625 9.703125 -4.578125 C 10.097656 -5.148438 10.296875 -5.9375 10.296875 -6.9375 C 10.296875 -7.976562 10.097656 -8.789062 9.703125 -9.375 C 9.304688 -9.957031 8.765625 -10.25 8.078125 -10.25 C 7.398438 -10.25 6.867188 -9.957031 6.484375 -9.375 C 6.109375 -8.789062 5.921875 -7.976562 5.921875 -6.9375 C 5.921875 -5.90625 6.109375 -5.113281 6.484375 -4.5625 C 6.867188 -4.007812 7.398438 -3.734375 8.078125 -3.734375 Z M 8.078125 -3.734375 "/></g></g></g><g fill="#151620" fill-opacity="1"><g transform="translate(126.068801, 25.870215)"><g><path d="M 5.15625 0.21875 C 3.8125 0.21875 2.71875 -0.109375 1.875 -0.765625 C 1.039062 -1.429688 0.625 -2.453125 0.625 -3.828125 C 0.625 -4.847656 0.847656 -5.664062 1.296875 -6.28125 C 1.753906 -6.90625 2.367188 -7.375 3.140625 -7.6875 C 3.910156 -8 4.769531 -8.1875 5.71875 -8.25 C 6.882812 -8.332031 7.707031 -8.453125 8.1875 -8.609375 C 8.675781 -8.773438 8.921875 -9.0625 8.921875 -9.46875 L 8.921875 -9.53125 C 8.921875 -9.882812 8.78125 -10.15625 8.5 -10.34375 C 8.21875 -10.539062 7.835938 -10.640625 7.359375 -10.640625 C 6.890625 -10.640625 6.484375 -10.535156 6.140625 -10.328125 C 5.804688 -10.128906 5.597656 -9.820312 5.515625 -9.40625 L 1.015625 -9.84375 C 1.148438 -10.625 1.472656 -11.332031 1.984375 -11.96875 C 2.503906 -12.613281 3.21875 -13.125 4.125 -13.5 C 5.03125 -13.882812 6.132812 -14.078125 7.4375 -14.078125 C 8.75 -14.078125 9.894531 -13.875 10.875 -13.46875 C 11.851562 -13.070312 12.601562 -12.53125 13.125 -11.84375 C 13.65625 -11.15625 13.921875 -10.382812 13.921875 -9.53125 L 13.921875 0 L 9.25 0 L 9.25 -1.96875 L 9.15625 -1.96875 C 8.726562 -1.1875 8.175781 -0.625 7.5 -0.28125 C 6.832031 0.0507812 6.050781 0.21875 5.15625 0.21875 Z M 6.765625 -2.9375 C 7.328125 -2.9375 7.835938 -3.109375 8.296875 -3.453125 C 8.753906 -3.804688 8.984375 -4.296875 8.984375 -4.921875 L 8.984375 -6.0625 C 8.460938 -5.863281 7.796875 -5.703125 6.984375 -5.578125 C 6.410156 -5.484375 5.988281 -5.304688 5.71875 -5.046875 C 5.457031 -4.785156 5.328125 -4.476562 5.328125 -4.125 C 5.328125 -3.738281 5.457031 -3.441406 5.71875 -3.234375 C 5.988281 -3.035156 6.335938 -2.9375 6.765625 -2.9375 Z M 6.765625 -2.9375 "/></g></g></g></g></g><g transform="matrix(1, 0, 0, 1, 17, 166)"><g clip-path="url(#9b6d56b402)"><g clip-path="url(#f1d9e5dc7f)"><g fill="#222a35" fill-opacity="1"><g transform="translate(0.289239, 5.193694)"><g><path d="M 1.421875 0.046875 C 1.054688 0.046875 0.765625 -0.0351562 0.546875 -0.203125 C 0.328125 -0.367188 0.210938 -0.609375 0.203125 -0.921875 L 0.75 -0.921875 C 0.769531 -0.753906 0.84375 -0.628906 0.96875 -0.546875 C 1.09375 -0.472656 1.242188 -0.4375 1.421875 -0.4375 C 1.609375 -0.4375 1.757812 -0.476562 1.875 -0.5625 C 1.988281 -0.644531 2.046875 -0.753906 2.046875 -0.890625 C 2.046875 -1.015625 1.992188 -1.109375 1.890625 -1.171875 C 1.785156 -1.234375 1.648438 -1.285156 1.484375 -1.328125 L 1.125 -1.421875 C 0.863281 -1.484375 0.65625 -1.582031 0.5 -1.71875 C 0.351562 -1.851562 0.28125 -2.035156 0.28125 -2.265625 C 0.28125 -2.453125 0.332031 -2.613281 0.4375 -2.75 C 0.539062 -2.882812 0.675781 -2.988281 0.84375 -3.0625 C 1.019531 -3.144531 1.21875 -3.1875 1.4375 -3.1875 C 1.65625 -3.1875 1.847656 -3.144531 2.015625 -3.0625 C 2.191406 -2.988281 2.328125 -2.882812 2.421875 -2.75 C 2.515625 -2.613281 2.566406 -2.457031 2.578125 -2.28125 L 2.03125 -2.28125 C 2.007812 -2.414062 1.945312 -2.519531 1.84375 -2.59375 C 1.738281 -2.675781 1.597656 -2.71875 1.421875 -2.71875 C 1.242188 -2.71875 1.101562 -2.675781 1 -2.59375 C 0.90625 -2.519531 0.859375 -2.421875 0.859375 -2.296875 C 0.859375 -2.210938 0.882812 -2.140625 0.9375 -2.078125 C 0.988281 -2.023438 1.054688 -1.976562 1.140625 -1.9375 C 1.222656 -1.90625 1.304688 -1.878906 1.390625 -1.859375 L 1.6875 -1.78125 C 1.84375 -1.75 1.988281 -1.695312 2.125 -1.625 C 2.269531 -1.550781 2.382812 -1.453125 2.46875 -1.328125 C 2.5625 -1.210938 2.609375 -1.066406 2.609375 -0.890625 C 2.609375 -0.703125 2.5625 -0.535156 2.46875 -0.390625 C 2.375 -0.253906 2.238281 -0.144531 2.0625 -0.0625 C 1.882812 0.0078125 1.671875 0.046875 1.421875 0.046875 Z M 1.421875 0.046875 "/></g></g></g></g><g fill="#222a35" fill-opacity="1"><g transform="translate(6.38207, 5.193694)"><g><path d="M 0.109375 0 L 1.203125 -3.15625 L 1.921875 -3.15625 L 3.046875 0 L 2.421875 0 L 2.15625 -0.78125 L 0.984375 -0.78125 L 0.71875 0 Z M 1.125 -1.234375 L 2 -1.234375 L 1.859375 -1.640625 C 1.816406 -1.785156 1.769531 -1.941406 1.71875 -2.109375 C 1.664062 -2.285156 1.613281 -2.484375 1.5625 -2.703125 C 1.5 -2.484375 1.441406 -2.285156 1.390625 -2.109375 C 1.347656 -1.929688 1.304688 -1.773438 1.265625 -1.640625 Z M 1.125 -1.234375 "/></g></g></g><g fill="#222a35" fill-opacity="1"><g transform="translate(12.853618, 5.193694)"><g><path d="M 0.875 -3.15625 L 0.875 0 L 0.3125 0 L 0.3125 -3.15625 Z M 0.875 -3.15625 "/></g></g></g><g fill="#222a35" fill-opacity="1"><g transform="translate(17.37234, 5.193694)"><g><path d="M 1.421875 0.046875 C 1.054688 0.046875 0.765625 -0.0351562 0.546875 -0.203125 C 0.328125 -0.367188 0.210938 -0.609375 0.203125 -0.921875 L 0.75 -0.921875 C 0.769531 -0.753906 0.84375 -0.628906 0.96875 -0.546875 C 1.09375 -0.472656 1.242188 -0.4375 1.421875 -0.4375 C 1.609375 -0.4375 1.757812 -0.476562 1.875 -0.5625 C 1.988281 -0.644531 2.046875 -0.753906 2.046875 -0.890625 C 2.046875 -1.015625 1.992188 -1.109375 1.890625 -1.171875 C 1.785156 -1.234375 1.648438 -1.285156 1.484375 -1.328125 L 1.125 -1.421875 C 0.863281 -1.484375 0.65625 -1.582031 0.5 -1.71875 C 0.351562 -1.851562 0.28125 -2.035156 0.28125 -2.265625 C 0.28125 -2.453125 0.332031 -2.613281 0.4375 -2.75 C 0.539062 -2.882812 0.675781 -2.988281 0.84375 -3.0625 C 1.019531 -3.144531 1.21875 -3.1875 1.4375 -3.1875 C 1.65625 -3.1875 1.847656 -3.144531 2.015625 -3.0625 C 2.191406 -2.988281 2.328125 -2.882812 2.421875 -2.75 C 2.515625 -2.613281 2.566406 -2.457031 2.578125 -2.28125 L 2.03125 -2.28125 C 2.007812 -2.414062 1.945312 -2.519531 1.84375 -2.59375 C 1.738281 -2.675781 1.597656 -2.71875 1.421875 -2.71875 C 1.242188 -2.71875 1.101562 -2.675781 1 -2.59375 C 0.90625 -2.519531 0.859375 -2.421875 0.859375 -2.296875 C 0.859375 -2.210938 0.882812 -2.140625 0.9375 -2.078125 C 0.988281 -2.023438 1.054688 -1.976562 1.140625 -1.9375 C 1.222656 -1.90625 1.304688 -1.878906 1.390625 -1.859375 L 1.6875 -1.78125 C 1.84375 -1.75 1.988281 -1.695312 2.125 -1.625 C 2.269531 -1.550781 2.382812 -1.453125 2.46875 -1.328125 C 2.5625 -1.210938 2.609375 -1.066406 2.609375 -0.890625 C 2.609375 -0.703125 2.5625 -0.535156 2.46875 -0.390625 C 2.375 -0.253906 2.238281 -0.144531 2.0625 -0.0625 C 1.882812 0.0078125 1.671875 0.046875 1.421875 0.046875 Z M 1.421875 0.046875 "/></g></g></g><g fill="#222a35" fill-opacity="1"><g transform="translate(23.509601, 5.193694)"><g><path d="M 1.671875 0.046875 C 1.390625 0.046875 1.140625 -0.015625 0.921875 -0.140625 C 0.703125 -0.273438 0.53125 -0.460938 0.40625 -0.703125 C 0.28125 -0.941406 0.21875 -1.234375 0.21875 -1.578125 C 0.21875 -1.910156 0.28125 -2.195312 0.40625 -2.4375 C 0.53125 -2.6875 0.703125 -2.875 0.921875 -3 C 1.140625 -3.125 1.390625 -3.1875 1.671875 -3.1875 C 1.941406 -3.1875 2.1875 -3.125 2.40625 -3 C 2.625 -2.875 2.796875 -2.6875 2.921875 -2.4375 C 3.046875 -2.195312 3.109375 -1.910156 3.109375 -1.578125 C 3.109375 -1.234375 3.046875 -0.941406 2.921875 -0.703125 C 2.796875 -0.460938 2.625 -0.273438 2.40625 -0.140625 C 2.1875 -0.015625 1.941406 0.046875 1.671875 0.046875 Z M 1.671875 -0.46875 C 1.921875 -0.46875 2.128906 -0.5625 2.296875 -0.75 C 2.460938 -0.9375 2.546875 -1.210938 2.546875 -1.578125 C 2.546875 -1.929688 2.460938 -2.203125 2.296875 -2.390625 C 2.128906 -2.585938 1.921875 -2.6875 1.671875 -2.6875 C 1.410156 -2.6875 1.195312 -2.585938 1.03125 -2.390625 C 0.863281 -2.203125 0.78125 -1.929688 0.78125 -1.578125 C 0.78125 -1.210938 0.863281 -0.9375 1.03125 -0.75 C 1.195312 -0.5625 1.410156 -0.46875 1.671875 -0.46875 Z M 1.671875 -0.46875 "/></g></g></g><g fill="#222a35" fill-opacity="1"><g transform="translate(30.158872, 5.193694)"><g><path d="M 0.3125 0 L 0.3125 -3.15625 L 0.953125 -3.15625 L 2.046875 -1.40625 C 2.097656 -1.320312 2.15625 -1.21875 2.21875 -1.09375 C 2.289062 -0.976562 2.363281 -0.84375 2.4375 -0.6875 C 2.414062 -0.832031 2.398438 -0.976562 2.390625 -1.125 C 2.390625 -1.28125 2.390625 -1.40625 2.390625 -1.5 L 2.390625 -3.15625 L 2.96875 -3.15625 L 2.96875 0 L 2.328125 0 L 1.34375 -1.5625 C 1.289062 -1.644531 1.238281 -1.726562 1.1875 -1.8125 C 1.144531 -1.90625 1.09375 -2 1.03125 -2.09375 C 0.976562 -2.195312 0.921875 -2.316406 0.859375 -2.453125 C 0.859375 -2.265625 0.863281 -2.085938 0.875 -1.921875 C 0.882812 -1.765625 0.890625 -1.644531 0.890625 -1.5625 L 0.890625 0 Z M 0.3125 0 "/></g></g></g><g fill="#222a35" fill-opacity="1"><g transform="translate(36.767943, 5.193694)"><g/></g></g><g fill="#222a35" fill-opacity="1"><g transform="translate(41.178762, 5.193694)"><g><path d="M 0.28125 0 L 0.28125 -0.40625 L 1.375 -1.484375 C 1.53125 -1.640625 1.644531 -1.769531 1.71875 -1.875 C 1.800781 -1.988281 1.84375 -2.113281 1.84375 -2.25 C 1.84375 -2.394531 1.789062 -2.507812 1.6875 -2.59375 C 1.59375 -2.6875 1.472656 -2.734375 1.328125 -2.734375 C 1.171875 -2.734375 1.046875 -2.6875 0.953125 -2.59375 C 0.859375 -2.5 0.8125 -2.367188 0.8125 -2.203125 L 0.265625 -2.203125 C 0.265625 -2.398438 0.304688 -2.570312 0.390625 -2.71875 C 0.484375 -2.875 0.609375 -2.988281 0.765625 -3.0625 C 0.929688 -3.144531 1.117188 -3.1875 1.328125 -3.1875 C 1.535156 -3.1875 1.71875 -3.144531 1.875 -3.0625 C 2.039062 -2.988281 2.164062 -2.882812 2.25 -2.75 C 2.34375 -2.613281 2.390625 -2.457031 2.390625 -2.28125 C 2.390625 -2.164062 2.363281 -2.050781 2.3125 -1.9375 C 2.269531 -1.820312 2.191406 -1.691406 2.078125 -1.546875 C 1.972656 -1.410156 1.816406 -1.242188 1.609375 -1.046875 L 1.0625 -0.5 L 1.0625 -0.46875 L 2.4375 -0.46875 L 2.4375 0 Z M 0.28125 0 "/></g></g></g><g fill="#222a35" fill-opacity="1"><g transform="translate(47.197542, 5.193694)"><g><path d="M 1.3125 0.046875 C 1.101562 0.046875 0.914062 0.0078125 0.75 -0.0625 C 0.59375 -0.144531 0.46875 -0.253906 0.375 -0.390625 C 0.28125 -0.523438 0.226562 -0.679688 0.21875 -0.859375 L 0.765625 -0.859375 C 0.773438 -0.722656 0.832031 -0.613281 0.9375 -0.53125 C 1.039062 -0.457031 1.164062 -0.421875 1.3125 -0.421875 C 1.476562 -0.421875 1.613281 -0.472656 1.71875 -0.578125 C 1.832031 -0.691406 1.890625 -0.835938 1.890625 -1.015625 C 1.890625 -1.203125 1.832031 -1.351562 1.71875 -1.46875 C 1.601562 -1.582031 1.460938 -1.640625 1.296875 -1.640625 C 1.191406 -1.640625 1.09375 -1.617188 1 -1.578125 C 0.914062 -1.546875 0.847656 -1.5 0.796875 -1.4375 L 0.28125 -1.53125 L 0.453125 -3.15625 L 2.265625 -3.15625 L 2.265625 -2.671875 L 0.90625 -2.671875 L 0.828125 -1.84375 L 0.84375 -1.84375 C 0.90625 -1.90625 0.988281 -1.957031 1.09375 -2 C 1.195312 -2.050781 1.3125 -2.078125 1.4375 -2.078125 C 1.625 -2.078125 1.789062 -2.03125 1.9375 -1.9375 C 2.09375 -1.851562 2.210938 -1.726562 2.296875 -1.5625 C 2.390625 -1.40625 2.4375 -1.226562 2.4375 -1.03125 C 2.4375 -0.820312 2.382812 -0.632812 2.28125 -0.46875 C 2.1875 -0.3125 2.054688 -0.1875 1.890625 -0.09375 C 1.722656 0 1.53125 0.046875 1.3125 0.046875 Z M 1.3125 0.046875 "/></g></g></g><g fill="#222a35" fill-opacity="1"><g transform="translate(53.169776, 5.193694)"><g><path d="M 1.5625 -3.296875 L 0.546875 0.46875 L 0.078125 0.46875 L 1.09375 -3.296875 Z M 1.5625 -3.296875 "/></g></g></g><g fill="#222a35" fill-opacity="1"><g transform="translate(58.130687, 5.193694)"><g><path d="M 0.28125 0 L 0.28125 -0.40625 L 1.375 -1.484375 C 1.53125 -1.640625 1.644531 -1.769531 1.71875 -1.875 C 1.800781 -1.988281 1.84375 -2.113281 1.84375 -2.25 C 1.84375 -2.394531 1.789062 -2.507812 1.6875 -2.59375 C 1.59375 -2.6875 1.472656 -2.734375 1.328125 -2.734375 C 1.171875 -2.734375 1.046875 -2.6875 0.953125 -2.59375 C 0.859375 -2.5 0.8125 -2.367188 0.8125 -2.203125 L 0.265625 -2.203125 C 0.265625 -2.398438 0.304688 -2.570312 0.390625 -2.71875 C 0.484375 -2.875 0.609375 -2.988281 0.765625 -3.0625 C 0.929688 -3.144531 1.117188 -3.1875 1.328125 -3.1875 C 1.535156 -3.1875 1.71875 -3.144531 1.875 -3.0625 C 2.039062 -2.988281 2.164062 -2.882812 2.25 -2.75 C 2.34375 -2.613281 2.390625 -2.457031 2.390625 -2.28125 C 2.390625 -2.164062 2.363281 -2.050781 2.3125 -1.9375 C 2.269531 -1.820312 2.191406 -1.691406 2.078125 -1.546875 C 1.972656 -1.410156 1.816406 -1.242188 1.609375 -1.046875 L 1.0625 -0.5 L 1.0625 -0.46875 L 2.4375 -0.46875 L 2.4375 0 Z M 0.28125 0 "/></g></g></g><g fill="#222a35" fill-opacity="1"><g transform="translate(64.149467, 5.193694)"><g><path d="M 1.421875 0.046875 C 1.265625 0.046875 1.113281 0.0195312 0.96875 -0.03125 C 0.832031 -0.0820312 0.707031 -0.164062 0.59375 -0.28125 C 0.476562 -0.40625 0.382812 -0.5625 0.3125 -0.75 C 0.25 -0.945312 0.21875 -1.191406 0.21875 -1.484375 C 0.21875 -1.835938 0.265625 -2.140625 0.359375 -2.390625 C 0.460938 -2.648438 0.609375 -2.847656 0.796875 -2.984375 C 0.984375 -3.117188 1.203125 -3.1875 1.453125 -3.1875 C 1.648438 -3.1875 1.820312 -3.144531 1.96875 -3.0625 C 2.125 -2.988281 2.25 -2.882812 2.34375 -2.75 C 2.4375 -2.625 2.492188 -2.472656 2.515625 -2.296875 L 1.96875 -2.296875 C 1.9375 -2.421875 1.875 -2.519531 1.78125 -2.59375 C 1.695312 -2.664062 1.585938 -2.703125 1.453125 -2.703125 C 1.234375 -2.703125 1.0625 -2.601562 0.9375 -2.40625 C 0.820312 -2.21875 0.765625 -1.957031 0.765625 -1.625 L 0.796875 -1.625 C 0.867188 -1.769531 0.972656 -1.878906 1.109375 -1.953125 C 1.253906 -2.023438 1.410156 -2.0625 1.578125 -2.0625 C 1.753906 -2.0625 1.914062 -2.015625 2.0625 -1.921875 C 2.21875 -1.835938 2.335938 -1.71875 2.421875 -1.5625 C 2.503906 -1.414062 2.546875 -1.242188 2.546875 -1.046875 C 2.546875 -0.835938 2.5 -0.648438 2.40625 -0.484375 C 2.3125 -0.316406 2.179688 -0.1875 2.015625 -0.09375 C 1.847656 0 1.648438 0.046875 1.421875 0.046875 Z M 1.421875 -0.421875 C 1.523438 -0.421875 1.617188 -0.445312 1.703125 -0.5 C 1.796875 -0.550781 1.867188 -0.625 1.921875 -0.71875 C 1.972656 -0.8125 2 -0.914062 2 -1.03125 C 2 -1.144531 1.972656 -1.242188 1.921875 -1.328125 C 1.878906 -1.421875 1.8125 -1.492188 1.71875 -1.546875 C 1.632812 -1.609375 1.535156 -1.640625 1.421875 -1.640625 C 1.304688 -1.640625 1.203125 -1.609375 1.109375 -1.546875 C 1.023438 -1.492188 0.957031 -1.421875 0.90625 -1.328125 C 0.851562 -1.234375 0.828125 -1.132812 0.828125 -1.03125 C 0.828125 -0.914062 0.851562 -0.8125 0.90625 -0.71875 C 0.957031 -0.625 1.023438 -0.550781 1.109375 -0.5 C 1.203125 -0.445312 1.304688 -0.421875 1.421875 -0.421875 Z M 1.421875 -0.421875 "/></g></g></g></g></g><g transform="matrix(1, 0, 0, 1, 135, 22)"><g clip-path="url(#c4c57f1866)"><g clip-path="url(#c6aeb67701)"><g fill="#102412" fill-opacity="1"><g transform="translate(0.679772, 7.413864)"><g><path d="M 2.546875 0.0625 C 2.109375 0.0625 1.71875 -0.03125 1.375 -0.21875 C 1.039062 -0.40625 0.769531 -0.679688 0.5625 -1.046875 C 0.363281 -1.421875 0.265625 -1.867188 0.265625 -2.390625 C 0.265625 -2.921875 0.363281 -3.367188 0.5625 -3.734375 C 0.769531 -4.097656 1.039062 -4.375 1.375 -4.5625 C 1.71875 -4.75 2.109375 -4.84375 2.546875 -4.84375 C 2.972656 -4.84375 3.359375 -4.75 3.703125 -4.5625 C 4.046875 -4.375 4.316406 -4.097656 4.515625 -3.734375 C 4.710938 -3.367188 4.8125 -2.921875 4.8125 -2.390625 C 4.8125 -1.867188 4.710938 -1.421875 4.515625 -1.046875 C 4.316406 -0.679688 4.046875 -0.40625 3.703125 -0.21875 C 3.359375 -0.03125 2.972656 0.0625 2.546875 0.0625 Z M 2.546875 -0.9375 C 2.890625 -0.9375 3.160156 -1.0625 3.359375 -1.3125 C 3.554688 -1.5625 3.65625 -1.921875 3.65625 -2.390625 C 3.65625 -2.867188 3.554688 -3.234375 3.359375 -3.484375 C 3.160156 -3.734375 2.890625 -3.859375 2.546875 -3.859375 C 2.191406 -3.859375 1.914062 -3.734375 1.71875 -3.484375 C 1.519531 -3.234375 1.421875 -2.867188 1.421875 -2.390625 C 1.421875 -1.921875 1.519531 -1.5625 1.71875 -1.3125 C 1.914062 -1.0625 2.191406 -0.9375 2.546875 -0.9375 Z M 3.265625 -5.234375 C 3.128906 -5.234375 3.007812 -5.28125 2.90625 -5.375 C 2.800781 -5.476562 2.75 -5.597656 2.75 -5.734375 C 2.75 -5.878906 2.800781 -6 2.90625 -6.09375 C 3.007812 -6.195312 3.128906 -6.25 3.265625 -6.25 C 3.410156 -6.25 3.535156 -6.195312 3.640625 -6.09375 C 3.742188 -6 3.796875 -5.878906 3.796875 -5.734375 C 3.796875 -5.597656 3.742188 -5.476562 3.640625 -5.375 C 3.535156 -5.28125 3.410156 -5.234375 3.265625 -5.234375 Z M 1.8125 -5.234375 C 1.664062 -5.234375 1.539062 -5.28125 1.4375 -5.375 C 1.34375 -5.476562 1.296875 -5.597656 1.296875 -5.734375 C 1.296875 -5.878906 1.34375 -6 1.4375 -6.09375 C 1.539062 -6.195312 1.664062 -6.25 1.8125 -6.25 C 1.957031 -6.25 2.082031 -6.195312 2.1875 -6.09375 C 2.289062 -6 2.34375 -5.878906 2.34375 -5.734375 C 2.34375 -5.597656 2.289062 -5.476562 2.1875 -5.375 C 2.082031 -5.28125 1.957031 -5.234375 1.8125 -5.234375 Z M 1.8125 -5.234375 "/></g></g></g></g><g fill="#102412" fill-opacity="1"><g transform="translate(9.174976, 7.413864)"><g><path d="M 0.375 0 L 0.375 -4.78125 L 3.625 -4.78125 L 3.625 -3.859375 L 1.5 -3.859375 L 1.5 -2.640625 L 3.421875 -2.640625 L 3.421875 -1.734375 L 1.5 -1.734375 L 1.5 0 Z M 0.375 0 "/></g></g></g><g fill="#102412" fill-opacity="1"><g transform="translate(16.436319, 7.413864)"><g><path d="M 0.375 0 L 0.375 -4.78125 L 3.625 -4.78125 L 3.625 -3.859375 L 1.5 -3.859375 L 1.5 -2.640625 L 3.421875 -2.640625 L 3.421875 -1.734375 L 1.5 -1.734375 L 1.5 0 Z M 0.375 0 "/></g></g></g><g fill="#102412" fill-opacity="1"><g transform="translate(23.697662, 7.413864)"><g><path d="M 0.375 0 L 0.375 -4.78125 L 1.625 -4.78125 L 2.953125 -2.625 C 3.054688 -2.445312 3.160156 -2.257812 3.265625 -2.0625 C 3.367188 -1.875 3.46875 -1.648438 3.5625 -1.390625 C 3.550781 -1.628906 3.535156 -1.875 3.515625 -2.125 C 3.503906 -2.375 3.5 -2.582031 3.5 -2.75 L 3.5 -4.78125 L 4.65625 -4.78125 L 4.65625 0 L 3.421875 0 L 2.1875 -1.984375 C 2.09375 -2.140625 2.007812 -2.285156 1.9375 -2.421875 C 1.863281 -2.554688 1.785156 -2.703125 1.703125 -2.859375 C 1.628906 -3.015625 1.550781 -3.1875 1.46875 -3.375 C 1.488281 -3.09375 1.503906 -2.828125 1.515625 -2.578125 C 1.523438 -2.328125 1.53125 -2.128906 1.53125 -1.984375 L 1.53125 0 Z M 0.375 0 "/></g></g></g><g fill="#102412" fill-opacity="1"><g transform="translate(32.144668, 7.413864)"><g><path d="M 0.375 0 L 0.375 -4.78125 L 3.6875 -4.78125 L 3.6875 -3.859375 L 1.5 -3.859375 L 1.5 -2.875 L 3.515625 -2.875 L 3.515625 -1.96875 L 1.5 -1.96875 L 1.5 -0.921875 L 3.6875 -0.921875 L 3.6875 0 Z M 0.375 0 "/></g></g></g><g fill="#102412" fill-opacity="1"><g transform="translate(39.56667, 7.413864)"><g><path d="M 0.375 0 L 0.375 -4.78125 L 1.625 -4.78125 L 2.953125 -2.625 C 3.054688 -2.445312 3.160156 -2.257812 3.265625 -2.0625 C 3.367188 -1.875 3.46875 -1.648438 3.5625 -1.390625 C 3.550781 -1.628906 3.535156 -1.875 3.515625 -2.125 C 3.503906 -2.375 3.5 -2.582031 3.5 -2.75 L 3.5 -4.78125 L 4.65625 -4.78125 L 4.65625 0 L 3.421875 0 L 2.1875 -1.984375 C 2.09375 -2.140625 2.007812 -2.285156 1.9375 -2.421875 C 1.863281 -2.554688 1.785156 -2.703125 1.703125 -2.859375 C 1.628906 -3.015625 1.550781 -3.1875 1.46875 -3.375 C 1.488281 -3.09375 1.503906 -2.828125 1.515625 -2.578125 C 1.523438 -2.328125 1.53125 -2.128906 1.53125 -1.984375 L 1.53125 0 Z M 0.375 0 "/></g></g></g></g></g></svg>