<svg xmlns="http://www.w3.org/2000/svg" xmlns:xlink="http://www.w3.org/1999/xlink" width="535" zoomAndPan="magnify" viewBox="0 0 401.25 43.499998" height="58" preserveAspectRatio="xMidYMid meet" version="1.0"><defs><clipPath id="9dcca6a7d8"><path d="M 1.910156 0.558594 L 398 0.558594 L 398 42.394531 L 1.910156 42.394531 Z M 1.910156 0.558594 " clip-rule="nonzero"/></clipPath><clipPath id="0394b216e9"><path d="M 15.832031 0.558594 L 383.980469 0.558594 C 391.671875 0.558594 397.90625 6.792969 397.90625 14.480469 L 397.90625 28.472656 C 397.90625 36.160156 391.671875 42.394531 383.980469 42.394531 L 15.832031 42.394531 C 8.144531 42.394531 1.910156 36.160156 1.910156 28.472656 L 1.910156 14.480469 C 1.910156 6.792969 8.144531 0.558594 15.832031 0.558594 Z M 15.832031 0.558594 " clip-rule="nonzero"/></clipPath><clipPath id="a1254bfdf1"><path d="M 0.910156 0.558594 L 396.917969 0.558594 L 396.917969 42.394531 L 0.910156 42.394531 Z M 0.910156 0.558594 " clip-rule="nonzero"/></clipPath><clipPath id="f1077f62a2"><path d="M 14.832031 0.558594 L 382.980469 0.558594 C 390.671875 0.558594 396.90625 6.792969 396.90625 14.480469 L 396.90625 28.472656 C 396.90625 36.160156 390.671875 42.394531 382.980469 42.394531 L 14.832031 42.394531 C 7.144531 42.394531 0.910156 36.160156 0.910156 28.472656 L 0.910156 14.480469 C 0.910156 6.792969 7.144531 0.558594 14.832031 0.558594 Z M 14.832031 0.558594 " clip-rule="nonzero"/></clipPath><clipPath id="79b58f48d6"><rect x="0" width="397" y="0" height="43"/></clipPath><clipPath id="6bf29420b5"><path d="M 1.921875 0.558594 L 397.859375 0.558594 L 397.859375 42.078125 L 1.921875 42.078125 Z M 1.921875 0.558594 " clip-rule="nonzero"/></clipPath><clipPath id="3c682a07f8"><path d="M 15.84375 0.558594 L 383.96875 0.558594 C 391.65625 0.558594 397.890625 6.789062 397.890625 14.480469 L 397.890625 28.46875 C 397.890625 36.160156 391.65625 42.390625 383.96875 42.390625 L 15.84375 42.390625 C 8.15625 42.390625 1.921875 36.160156 1.921875 28.46875 L 1.921875 14.480469 C 1.921875 6.789062 8.15625 0.558594 15.84375 0.558594 Z M 15.84375 0.558594 " clip-rule="nonzero"/></clipPath><clipPath id="fcbe1c9e00"><path d="M 1.910156 0 L 146.371094 0 L 146.371094 42.953125 L 1.910156 42.953125 Z M 1.910156 0 " clip-rule="nonzero"/></clipPath><clipPath id="31c2aa2ea7"><path d="M 15.832031 0 L 132.445312 0 C 140.132812 0 146.367188 6.234375 146.367188 13.925781 L 146.367188 29.027344 C 146.367188 36.71875 140.132812 42.953125 132.445312 42.953125 L 15.832031 42.953125 C 8.144531 42.953125 1.910156 36.71875 1.910156 29.027344 L 1.910156 13.925781 C 1.910156 6.234375 8.144531 0 15.832031 0 Z M 15.832031 0 " clip-rule="nonzero"/></clipPath><clipPath id="f77a799d98"><path d="M 0.910156 0 L 145.371094 0 L 145.371094 42.953125 L 0.910156 42.953125 Z M 0.910156 0 " clip-rule="nonzero"/></clipPath><clipPath id="95a8a609de"><path d="M 14.832031 0 L 131.445312 0 C 139.132812 0 145.367188 6.234375 145.367188 13.925781 L 145.367188 29.027344 C 145.367188 36.71875 139.132812 42.953125 131.445312 42.953125 L 14.832031 42.953125 C 7.144531 42.953125 0.910156 36.71875 0.910156 29.027344 L 0.910156 13.925781 C 0.910156 6.234375 7.144531 0 14.832031 0 Z M 14.832031 0 " clip-rule="nonzero"/></clipPath><clipPath id="2e2d74bf03"><rect x="0" width="146" y="0" height="43"/></clipPath><clipPath id="eb109e9b54"><path d="M 1.910156 0 L 146.496094 0 L 146.496094 43 L 1.910156 43 Z M 1.910156 0 " clip-rule="nonzero"/></clipPath><clipPath id="f94936088e"><path d="M 15.835938 0 L 132.433594 0 C 140.121094 0 146.355469 6.234375 146.355469 13.921875 L 146.355469 29.023438 C 146.355469 36.714844 140.121094 42.949219 132.433594 42.949219 L 15.835938 42.949219 C 8.144531 42.949219 1.910156 36.714844 1.910156 29.023438 L 1.910156 13.921875 C 1.910156 6.234375 8.144531 0 15.835938 0 Z M 15.835938 0 " clip-rule="nonzero"/></clipPath></defs><g clip-path="url(#9dcca6a7d8)"><g clip-path="url(#0394b216e9)"><g transform="matrix(1, 0, 0, 1, 1, 0)"><g clip-path="url(#79b58f48d6)"><g clip-path="url(#a1254bfdf1)"><g clip-path="url(#f1077f62a2)"><path fill="#251f25" d="M 0.910156 0.558594 L 396.902344 0.558594 L 396.902344 42.394531 L 0.910156 42.394531 Z M 0.910156 0.558594 " fill-opacity="1" fill-rule="nonzero"/></g></g></g></g></g></g><g clip-path="url(#6bf29420b5)"><g clip-path="url(#3c682a07f8)"><path stroke-linecap="butt" transform="matrix(0.741477, 0, 0, 0.741477, 1.909099, 0.556978)" fill="none" stroke-linejoin="miter" d="M 18.793094 0.00217886 L 515.26823 0.00217886 C 525.636047 0.00217886 534.044094 8.404957 534.044094 18.778042 L 534.044094 37.643465 C 534.044094 48.016551 525.636047 56.419329 515.26823 56.419329 L 18.793094 56.419329 C 8.425278 56.419329 0.0172309 48.016551 0.0172309 37.643465 L 0.0172309 18.778042 C 0.0172309 8.404957 8.425278 0.00217886 18.793094 0.00217886 Z M 18.793094 0.00217886 " stroke="#3a2428" stroke-width="2" stroke-opacity="1" stroke-miterlimit="4"/></g></g><g clip-path="url(#fcbe1c9e00)"><g clip-path="url(#31c2aa2ea7)"><g transform="matrix(1, 0, 0, 1, 1, 0)"><g clip-path="url(#2e2d74bf03)"><g clip-path="url(#f77a799d98)"><g clip-path="url(#95a8a609de)"><path fill="#251f25" d="M 0.910156 0 L 145.371094 0 L 145.371094 42.953125 L 0.910156 42.953125 Z M 0.910156 0 " fill-opacity="1" fill-rule="nonzero"/></g></g></g></g></g></g><g clip-path="url(#eb109e9b54)"><g clip-path="url(#f94936088e)"><path stroke-linecap="butt" transform="matrix(0.741477, 0, 0, 0.741477, 1.909099, 0.000000000000031611)" fill="none" stroke-linejoin="miter" d="M 18.782558 -0.000000000000042633 L 176.03305 -0.000000000000042633 C 186.400867 -0.000000000000042633 194.808913 8.408047 194.808913 18.775864 L 194.808913 39.142723 C 194.808913 49.515809 186.400867 57.923855 176.03305 57.923855 L 18.782558 57.923855 C 8.409473 57.923855 0.00142631 49.515809 0.00142631 39.142723 L 0.00142631 18.775864 C 0.00142631 8.408047 8.409473 -0.000000000000042633 18.782558 -0.000000000000042633 Z M 18.782558 -0.000000000000042633 " stroke="#4e272b" stroke-width="6" stroke-opacity="1" stroke-miterlimit="4"/></g></g></svg>