<svg xmlns="http://www.w3.org/2000/svg" xmlns:xlink="http://www.w3.org/1999/xlink" width="211" zoomAndPan="magnify" viewBox="0 0 158.25 32.249999" height="43" preserveAspectRatio="xMidYMid meet" version="1.0"><defs><clipPath id="92bdbb31bf"><path d="M 1.433594 0 L 155.730469 0 L 155.730469 30.8125 L 1.433594 30.8125 Z M 1.433594 0 " clip-rule="nonzero"/></clipPath><clipPath id="49a7ac08d9"><path d="M 7.488281 0 L 149.644531 0 C 151.253906 0 152.792969 0.636719 153.929688 1.773438 C 155.0625 2.910156 155.703125 4.449219 155.703125 6.054688 L 155.703125 24.753906 C 155.703125 26.359375 155.0625 27.902344 153.929688 29.039062 C 152.792969 30.171875 151.253906 30.8125 149.644531 30.8125 L 7.488281 30.8125 C 5.882812 30.8125 4.339844 30.171875 3.207031 29.039062 C 2.070312 27.902344 1.433594 26.359375 1.433594 24.753906 L 1.433594 6.054688 C 1.433594 4.449219 2.070312 2.910156 3.207031 1.773438 C 4.339844 0.636719 5.882812 0 7.488281 0 Z M 7.488281 0 " clip-rule="nonzero"/></clipPath><clipPath id="bc822d0da5"><path d="M 0.433594 0 L 154.730469 0 L 154.730469 30.8125 L 0.433594 30.8125 Z M 0.433594 0 " clip-rule="nonzero"/></clipPath><clipPath id="5af25b8e76"><path d="M 6.488281 0 L 148.644531 0 C 150.253906 0 151.792969 0.636719 152.929688 1.773438 C 154.0625 2.910156 154.703125 4.449219 154.703125 6.054688 L 154.703125 24.753906 C 154.703125 26.359375 154.0625 27.902344 152.929688 29.039062 C 151.792969 30.171875 150.253906 30.8125 148.644531 30.8125 L 6.488281 30.8125 C 4.882812 30.8125 3.339844 30.171875 2.207031 29.039062 C 1.070312 27.902344 0.433594 26.359375 0.433594 24.753906 L 0.433594 6.054688 C 0.433594 4.449219 1.070312 2.910156 2.207031 1.773438 C 3.339844 0.636719 4.882812 0 6.488281 0 Z M 6.488281 0 " clip-rule="nonzero"/></clipPath><clipPath id="980bda88b6"><rect x="0" width="155" y="0" height="31"/></clipPath><clipPath id="eec00049c5"><path d="M 1.441406 0 L 155.351562 0 L 155.351562 30.785156 L 1.441406 30.785156 Z M 1.441406 0 " clip-rule="nonzero"/></clipPath><clipPath id="84b19ba572"><path d="M 7.496094 0 L 149.632812 0 C 151.238281 0 152.777344 0.636719 153.914062 1.773438 C 155.050781 2.910156 155.6875 4.449219 155.6875 6.054688 L 155.6875 24.75 C 155.6875 26.359375 155.050781 27.898438 153.914062 29.035156 C 152.777344 30.167969 151.238281 30.808594 149.632812 30.808594 L 7.496094 30.808594 C 5.890625 30.808594 4.347656 30.167969 3.214844 29.035156 C 2.078125 27.898438 1.441406 26.359375 1.441406 24.75 L 1.441406 6.054688 C 1.441406 4.449219 2.078125 2.910156 3.214844 1.773438 C 4.347656 0.636719 5.890625 0 7.496094 0 Z M 7.496094 0 " clip-rule="nonzero"/></clipPath></defs><g clip-path="url(#92bdbb31bf)"><g clip-path="url(#49a7ac08d9)"><g transform="matrix(1, 0, 0, 1, 1, 0)"><g clip-path="url(#980bda88b6)"><g clip-path="url(#bc822d0da5)"><g clip-path="url(#5af25b8e76)"><path fill="#222a35" d="M 0.433594 0 L 154.730469 0 L 154.730469 30.8125 L 0.433594 30.8125 Z M 0.433594 0 " fill-opacity="1" fill-rule="nonzero"/></g></g></g></g></g></g><g clip-path="url(#eec00049c5)"><g clip-path="url(#84b19ba572)"><path stroke-linecap="butt" transform="matrix(0.732954, 0, 0, 0.732954, 1.431821, -0.000000000000010416)" fill="none" stroke-linejoin="miter" d="M 8.273738 0.000000000000014211 L 202.196717 0.000000000000014211 C 204.387124 0.000000000000014211 206.48693 0.868702 208.037803 2.419574 C 209.588675 3.970446 210.457376 6.070252 210.457376 8.26066 L 210.457376 33.767444 C 210.457376 35.963181 209.588675 38.062987 208.037803 39.613859 C 206.48693 41.159402 204.387124 42.033433 202.196717 42.033433 L 8.273738 42.033433 C 6.08333 42.033433 3.978195 41.159402 2.432652 39.613859 C 0.88178 38.062987 0.0130781 35.963181 0.0130781 33.767444 L 0.0130781 8.26066 C 0.0130781 6.070252 0.88178 3.970446 2.432652 2.419574 C 3.978195 0.868702 6.08333 0.000000000000014211 8.273738 0.000000000000014211 Z M 8.273738 0.000000000000014211 " stroke="#313d4d" stroke-width="4" stroke-opacity="1" stroke-miterlimit="4"/></g></g></svg>