<svg xmlns="http://www.w3.org/2000/svg" xmlns:xlink="http://www.w3.org/1999/xlink" width="50" zoomAndPan="magnify" viewBox="0 0 37.5 32.249999" height="43" preserveAspectRatio="xMidYMid meet" version="1.0"><defs><clipPath id="232fca250f"><path d="M 0.183594 0 L 36.167969 0 L 36.167969 30.8125 L 0.183594 30.8125 Z M 0.183594 0 " clip-rule="nonzero"/></clipPath><clipPath id="f2c3e28e68"><path d="M 6.238281 0 L 30.066406 0 C 31.671875 0 33.210938 0.636719 34.347656 1.773438 C 35.484375 2.910156 36.121094 4.449219 36.121094 6.054688 L 36.121094 24.753906 C 36.121094 26.359375 35.484375 27.902344 34.347656 29.039062 C 33.210938 30.171875 31.671875 30.8125 30.066406 30.8125 L 6.238281 30.8125 C 4.632812 30.8125 3.089844 30.171875 1.957031 29.039062 C 0.820312 27.902344 0.183594 26.359375 0.183594 24.753906 L 0.183594 6.054688 C 0.183594 4.449219 0.820312 2.910156 1.957031 1.773438 C 3.089844 0.636719 4.632812 0 6.238281 0 Z M 6.238281 0 " clip-rule="nonzero"/></clipPath><clipPath id="26d58c07f2"><path d="M 0.183594 0 L 36.167969 0 L 36.167969 30.8125 L 0.183594 30.8125 Z M 0.183594 0 " clip-rule="nonzero"/></clipPath><clipPath id="e3e63a54ac"><path d="M 6.238281 0 L 30.066406 0 C 31.671875 0 33.210938 0.636719 34.347656 1.773438 C 35.484375 2.910156 36.121094 4.449219 36.121094 6.054688 L 36.121094 24.753906 C 36.121094 26.359375 35.484375 27.902344 34.347656 29.039062 C 33.210938 30.171875 31.671875 30.8125 30.066406 30.8125 L 6.238281 30.8125 C 4.632812 30.8125 3.089844 30.171875 1.957031 29.039062 C 0.820312 27.902344 0.183594 26.359375 0.183594 24.753906 L 0.183594 6.054688 C 0.183594 4.449219 0.820312 2.910156 1.957031 1.773438 C 3.089844 0.636719 4.632812 0 6.238281 0 Z M 6.238281 0 " clip-rule="nonzero"/></clipPath><clipPath id="e6b60ac4d1"><rect x="0" width="37" y="0" height="31"/></clipPath><clipPath id="ba811346f9"><path d="M 0.183594 0 L 36.097656 0 L 36.097656 30.785156 L 0.183594 30.785156 Z M 0.183594 0 " clip-rule="nonzero"/></clipPath><clipPath id="247c74ea6c"><path d="M 6.238281 0 L 30.0625 0 C 31.667969 0 33.207031 0.636719 34.34375 1.773438 C 35.480469 2.910156 36.117188 4.449219 36.117188 6.054688 L 36.117188 24.75 C 36.117188 26.359375 35.480469 27.898438 34.34375 29.035156 C 33.207031 30.167969 31.667969 30.808594 30.0625 30.808594 L 6.238281 30.808594 C 4.632812 30.808594 3.09375 30.167969 1.957031 29.035156 C 0.820312 27.898438 0.183594 26.359375 0.183594 24.75 L 0.183594 6.054688 C 0.183594 4.449219 0.820312 2.910156 1.957031 1.773438 C 3.09375 0.636719 4.632812 0 6.238281 0 Z M 6.238281 0 " clip-rule="nonzero"/></clipPath></defs><g clip-path="url(#232fca250f)"><g clip-path="url(#f2c3e28e68)"><g transform="matrix(1, 0, 0, 1, 0.000000000000000056, 0)"><g clip-path="url(#e6b60ac4d1)"><g clip-path="url(#26d58c07f2)"><g clip-path="url(#e3e63a54ac)"><path fill="#222a35" d="M 0.183594 0 L 36.167969 0 L 36.167969 30.8125 L 0.183594 30.8125 Z M 0.183594 0 " fill-opacity="1" fill-rule="nonzero"/></g></g></g></g></g></g><g clip-path="url(#ba811346f9)"><g clip-path="url(#247c74ea6c)"><path stroke-linecap="butt" transform="matrix(0.732954, 0, 0, 0.732954, 0.181819, -0.000000000000010416)" fill="none" stroke-linejoin="miter" d="M 8.263081 0.000000000000014211 L 40.767444 0.000000000000014211 C 42.957851 0.000000000000014211 45.057658 0.868702 46.60853 2.419574 C 48.159402 3.970446 49.028104 6.070252 49.028104 8.26066 L 49.028104 33.767444 C 49.028104 35.963181 48.159402 38.062987 46.60853 39.613859 C 45.057658 41.159402 42.957851 42.033433 40.767444 42.033433 L 8.263081 42.033433 C 6.072674 42.033433 3.972868 41.159402 2.421996 39.613859 C 0.871123 38.062987 0.0024217 35.963181 0.0024217 33.767444 L 0.0024217 8.26066 C 0.0024217 6.070252 0.871123 3.970446 2.421996 2.419574 C 3.972868 0.868702 6.072674 0.000000000000014211 8.263081 0.000000000000014211 Z M 8.263081 0.000000000000014211 " stroke="#313d4d" stroke-width="4" stroke-opacity="1" stroke-miterlimit="4"/></g></g></svg>