<svg xmlns="http://www.w3.org/2000/svg" xmlns:xlink="http://www.w3.org/1999/xlink" width="193" zoomAndPan="magnify" viewBox="0 0 144.75 36.750001" height="49" preserveAspectRatio="xMidYMid meet" version="1.0"><defs><clipPath id="5f15a59651"><path d="M 0.363281 0 L 143.699219 0 L 143.699219 36.042969 L 0.363281 36.042969 Z M 0.363281 0 " clip-rule="nonzero"/></clipPath><clipPath id="7efda2251e"><path d="M 14.355469 0 L 129.699219 0 C 137.425781 0 143.6875 6.261719 143.6875 13.988281 L 143.6875 22.054688 C 143.6875 29.78125 137.425781 36.042969 129.699219 36.042969 L 14.355469 36.042969 C 6.628906 36.042969 0.363281 29.78125 0.363281 22.054688 L 0.363281 13.988281 C 0.363281 6.261719 6.628906 0 14.355469 0 Z M 14.355469 0 " clip-rule="nonzero"/></clipPath><clipPath id="929232ab2c"><path d="M 0.363281 0 L 143.699219 0 L 143.699219 36.042969 L 0.363281 36.042969 Z M 0.363281 0 " clip-rule="nonzero"/></clipPath><clipPath id="93ee630abb"><path d="M 14.355469 0 L 129.699219 0 C 137.425781 0 143.6875 6.261719 143.6875 13.988281 L 143.6875 22.054688 C 143.6875 29.78125 137.425781 36.042969 129.699219 36.042969 L 14.355469 36.042969 C 6.628906 36.042969 0.363281 29.78125 0.363281 22.054688 L 0.363281 13.988281 C 0.363281 6.261719 6.628906 0 14.355469 0 Z M 14.355469 0 " clip-rule="nonzero"/></clipPath><clipPath id="5003511606"><rect x="0" width="144" y="0" height="37"/></clipPath><clipPath id="66378a8a9f"><path d="M 0.378906 0 L 143.390625 0 L 143.390625 35.757812 L 0.378906 35.757812 Z M 0.378906 0 " clip-rule="nonzero"/></clipPath><clipPath id="e40691495a"><path d="M 14.363281 0 L 129.683594 0 C 137.40625 0 143.667969 6.261719 143.667969 13.984375 L 143.667969 22.050781 C 143.667969 29.773438 137.40625 36.035156 129.683594 36.035156 L 14.363281 36.035156 C 6.640625 36.035156 0.378906 29.773438 0.378906 22.050781 L 0.378906 13.984375 C 0.378906 6.261719 6.640625 0 14.363281 0 Z M 14.363281 0 " clip-rule="nonzero"/></clipPath></defs><g clip-path="url(#5f15a59651)"><g clip-path="url(#7efda2251e)"><g transform="matrix(1, 0, 0, 1, 0, 0.000000000000002571)"><g clip-path="url(#5003511606)"><g clip-path="url(#929232ab2c)"><g clip-path="url(#93ee630abb)"><path fill="#5ec269" d="M 0.363281 0 L 143.699219 0 L 143.699219 36.042969 L 0.363281 36.042969 Z M 0.363281 0 " fill-opacity="1" fill-rule="nonzero"/></g></g></g></g></g></g><g clip-path="url(#66378a8a9f)"><g clip-path="url(#e40691495a)"><path stroke-linecap="butt" transform="matrix(0.744932, 0, 0, 0.744932, 0.364863, 0.00000198649)" fill="none" stroke-linejoin="miter" d="M 18.791527 -0.00000266667 L 173.597925 -0.00000266667 C 183.964846 -0.00000266667 192.3706 8.405751 192.3706 18.772672 L 192.3706 29.601045 C 192.3706 39.967966 183.964846 48.373719 173.597925 48.373719 L 18.791527 48.373719 C 8.424605 48.373719 0.0188518 39.967966 0.0188518 29.601045 L 0.0188518 18.772672 C 0.0188518 8.405751 8.424605 -0.00000266667 18.791527 -0.00000266667 Z M 18.791527 -0.00000266667 " stroke="#4bde80" stroke-width="4" stroke-opacity="1" stroke-miterlimit="4"/></g></g></svg>