<svg xmlns="http://www.w3.org/2000/svg" xmlns:xlink="http://www.w3.org/1999/xlink" width="398" zoomAndPan="magnify" viewBox="0 0 298.5 31.5" height="42" preserveAspectRatio="none" version="1.0"><defs><clipPath id="233f440083"><path d="M 2.085938 0 L 295.785156 0 L 295.785156 30.6875 L 2.085938 30.6875 Z M 2.085938 0 " clip-rule="nonzero"/></clipPath><clipPath id="af7c49600e"><path d="M 15.949219 0 L 281.839844 0 C 289.496094 0 295.703125 6.207031 295.703125 13.863281 L 295.703125 16.824219 C 295.703125 24.480469 289.496094 30.6875 281.839844 30.6875 L 15.949219 30.6875 C 8.292969 30.6875 2.085938 24.480469 2.085938 16.824219 L 2.085938 13.863281 C 2.085938 6.207031 8.292969 0 15.949219 0 Z M 15.949219 0 " clip-rule="nonzero"/></clipPath><clipPath id="0a7b583c75"><path d="M 0.0859375 0 L 293.746094 0 L 293.746094 30.6875 L 0.0859375 30.6875 Z M 0.0859375 0 " clip-rule="nonzero"/></clipPath><clipPath id="3bcbaa2568"><path d="M 13.949219 0 L 279.839844 0 C 287.496094 0 293.703125 6.207031 293.703125 13.863281 L 293.703125 16.824219 C 293.703125 24.480469 287.496094 30.6875 279.839844 30.6875 L 13.949219 30.6875 C 6.292969 30.6875 0.0859375 24.480469 0.0859375 16.824219 L 0.0859375 13.863281 C 0.0859375 6.207031 6.292969 0 13.949219 0 Z M 13.949219 0 " clip-rule="nonzero"/></clipPath><clipPath id="9f8534c323"><rect x="0" width="294" y="0" height="31"/></clipPath><clipPath id="dcc31f5096"><path d="M 2.101562 0 L 295.921875 0 L 295.921875 31 L 2.101562 31 Z M 2.101562 0 " clip-rule="nonzero"/></clipPath><clipPath id="262347dfca"><path d="M 15.964844 0 L 281.824219 0 C 289.480469 0 295.683594 6.207031 295.683594 13.863281 L 295.683594 16.820312 C 295.683594 24.476562 289.480469 30.683594 281.824219 30.683594 L 15.964844 30.683594 C 8.308594 30.683594 2.101562 24.476562 2.101562 16.820312 L 2.101562 13.863281 C 2.101562 6.207031 8.308594 0 15.964844 0 Z M 15.964844 0 " clip-rule="nonzero"/></clipPath></defs><g clip-path="url(#233f440083)"><g clip-path="url(#af7c49600e)"><g transform="matrix(1, 0, 0, 1, 2, -0.000000000000002895)"><g clip-path="url(#9f8534c323)"><g clip-path="url(#0a7b583c75)"><g clip-path="url(#3bcbaa2568)"><path fill="#5ec269" d="M 0.0859375 0 L 293.664062 0 L 293.664062 30.6875 L 0.0859375 30.6875 Z M 0.0859375 0 " fill-opacity="1" fill-rule="nonzero"/></g></g></g></g></g></g><g clip-path="url(#dcc31f5096)"><g clip-path="url(#262347dfca)"><path stroke-linecap="butt" transform="matrix(0.738281, 0, 0, 0.738281, 2.085938, 0.000000984375)" fill="none" stroke-linejoin="miter" d="M 18.798944 -0.00000133333 L 378.904802 -0.00000133333 C 389.275173 -0.00000133333 397.677291 8.407407 397.677291 18.777778 L 397.677291 22.78307 C 397.677291 33.153441 389.275173 41.56085 378.904802 41.56085 L 18.798944 41.56085 C 8.428572 41.56085 0.021164 33.153441 0.021164 22.78307 L 0.021164 18.777778 C 0.021164 8.407407 8.428572 -0.00000133333 18.798944 -0.00000133333 Z M 18.798944 -0.00000133333 " stroke="#4bde80" stroke-width="4" stroke-opacity="1" stroke-miterlimit="4"/></g></g></svg>