<svg xmlns="http://www.w3.org/2000/svg" xmlns:xlink="http://www.w3.org/1999/xlink" width="592" zoomAndPan="magnify" viewBox="0 0 444 547.499989" height="730" preserveAspectRatio="none" version="1.0"><defs><clipPath id="08277a37b5"><path d="M 0.203125 0 L 443.691406 0 L 443.691406 547 L 0.203125 547 Z M 0.203125 0 " clip-rule="nonzero"/></clipPath><clipPath id="4c60e7e7b2"><path d="M 14.273438 0 L 429.621094 0 C 437.390625 0 443.691406 6.300781 443.691406 14.070312 L 443.691406 532.832031 C 443.691406 540.601562 437.390625 546.902344 429.621094 546.902344 L 14.273438 546.902344 C 6.503906 546.902344 0.203125 540.601562 0.203125 532.832031 L 0.203125 14.070312 C 0.203125 6.300781 6.503906 0 14.273438 0 Z M 14.273438 0 " clip-rule="nonzero"/></clipPath><clipPath id="99cafcee02"><path d="M 0.203125 0 L 443.691406 0 L 443.691406 546.941406 L 0.203125 546.941406 Z M 0.203125 0 " clip-rule="nonzero"/></clipPath><clipPath id="fd29e27d4f"><path d="M 14.273438 0 L 429.621094 0 C 437.390625 0 443.691406 6.300781 443.691406 14.070312 L 443.691406 532.832031 C 443.691406 540.601562 437.390625 546.902344 429.621094 546.902344 L 14.273438 546.902344 C 6.503906 546.902344 0.203125 540.601562 0.203125 532.832031 L 0.203125 14.070312 C 0.203125 6.300781 6.503906 0 14.273438 0 Z M 14.273438 0 " clip-rule="nonzero"/></clipPath><clipPath id="911b0af4f5"><rect x="0" width="444" y="0" height="547"/></clipPath><clipPath id="b5473844ef"><path d="M 0.207031 0 L 443.796875 0 L 443.796875 547 L 0.207031 547 Z M 0.207031 0 " clip-rule="nonzero"/></clipPath><clipPath id="eb6299b8af"><path d="M 14.277344 0 L 429.617188 0 C 437.390625 0 443.691406 6.300781 443.691406 14.070312 L 443.691406 532.824219 C 443.691406 540.59375 437.390625 546.894531 429.617188 546.894531 L 14.277344 546.894531 C 6.503906 546.894531 0.207031 540.59375 0.207031 532.824219 L 0.207031 14.070312 C 0.207031 6.300781 6.503906 0 14.277344 0 Z M 14.277344 0 " clip-rule="nonzero"/></clipPath></defs><g clip-path="url(#08277a37b5)"><g clip-path="url(#4c60e7e7b2)"><g transform="matrix(1, 0, 0, 1, 0.000000000000000028, 0)"><g clip-path="url(#911b0af4f5)"><g clip-path="url(#99cafcee02)"><g clip-path="url(#fd29e27d4f)"><path fill="#151620" d="M 0.203125 0 L 443.691406 0 L 443.691406 547.433594 L 0.203125 547.433594 Z M 0.203125 0 " fill-opacity="1" fill-rule="nonzero"/></g></g></g></g></g></g><g clip-path="url(#b5473844ef)"><g clip-path="url(#eb6299b8af)"><path stroke-linecap="butt" transform="matrix(0.749316, 0, 0, 0.749316, 0.202559, 0)" fill="none" stroke-linejoin="miter" d="M 18.78352 0 L 573.075789 0 C 583.449839 0 591.858554 8.408715 591.858554 18.777552 L 591.858554 711.081178 C 591.858554 721.450015 583.449839 729.85873 573.075789 729.85873 L 18.78352 729.85873 C 8.40947 729.85873 0.00596802 721.450015 0.00596802 711.081178 L 0.00596802 18.777552 C 0.00596802 8.408715 8.40947 0 18.78352 0 Z M 18.78352 0 " stroke="#7c1e1c" stroke-width="4" stroke-opacity="1" stroke-miterlimit="4"/></g></g></svg>