<svg xmlns="http://www.w3.org/2000/svg" xmlns:xlink="http://www.w3.org/1999/xlink" width="365" zoomAndPan="magnify" viewBox="0 0 273.75 10.5" height="14" preserveAspectRatio="xMidYMid meet" version="1.0"><defs><clipPath id="ffbd4dd6f3"><path d="M 6.101562 0 L 267.390625 0 L 267.390625 9.644531 L 6.101562 9.644531 Z M 6.101562 0 " clip-rule="nonzero"/></clipPath><clipPath id="d38ebd2918"><path d="M 10.925781 0 L 262.539062 0 C 265.203125 0 267.359375 2.160156 267.359375 4.820312 C 267.359375 7.484375 265.203125 9.644531 262.539062 9.644531 L 10.925781 9.644531 C 8.261719 9.644531 6.101562 7.484375 6.101562 4.820312 C 6.101562 2.160156 8.261719 0 10.925781 0 Z M 10.925781 0 " clip-rule="nonzero"/></clipPath><clipPath id="3db4f43a05"><path d="M 0.101562 0 L 261.390625 0 L 261.390625 9.644531 L 0.101562 9.644531 Z M 0.101562 0 " clip-rule="nonzero"/></clipPath><clipPath id="d935e343ed"><path d="M 4.925781 0 L 256.539062 0 C 259.203125 0 261.359375 2.160156 261.359375 4.820312 C 261.359375 7.484375 259.203125 9.644531 256.539062 9.644531 L 4.925781 9.644531 C 2.261719 9.644531 0.101562 7.484375 0.101562 4.820312 C 0.101562 2.160156 2.261719 0 4.925781 0 Z M 4.925781 0 " clip-rule="nonzero"/></clipPath><clipPath id="b7abca3236"><rect x="0" width="262" y="0" height="10"/></clipPath><clipPath id="0aeba1477b"><path d="M 6.117188 0 L 267.410156 0 L 267.410156 9.308594 L 6.117188 9.308594 Z M 6.117188 0 " clip-rule="nonzero"/></clipPath><clipPath id="08dacbeec2"><path d="M 10.9375 0 L 262.515625 0 C 265.179688 0 267.335938 2.160156 267.335938 4.820312 C 267.335938 7.484375 265.179688 9.640625 262.515625 9.640625 L 10.9375 9.640625 C 8.277344 9.640625 6.117188 7.484375 6.117188 4.820312 C 6.117188 2.160156 8.277344 0 10.9375 0 Z M 10.9375 0 " clip-rule="nonzero"/></clipPath></defs><g clip-path="url(#ffbd4dd6f3)"><g clip-path="url(#d38ebd2918)"><g transform="matrix(1, 0, 0, 1, 6, 0)"><g clip-path="url(#b7abca3236)"><g clip-path="url(#3db4f43a05)"><g clip-path="url(#d935e343ed)"><path fill="#222a35" d="M 0.101562 0 L 261.351562 0 L 261.351562 9.644531 L 0.101562 9.644531 Z M 0.101562 0 " fill-opacity="1" fill-rule="nonzero"/></g></g></g></g></g></g><g clip-path="url(#0aeba1477b)"><g clip-path="url(#08dacbeec2)"><path stroke-linecap="butt" transform="matrix(0.715909, 0, 0, 0.715909, 6.102279, 0)" fill="none" stroke-linejoin="miter" d="M 6.75396 0 L 358.164706 0 C 361.885936 0 364.897841 3.017361 364.897841 6.733136 C 364.897841 10.454366 361.885936 13.466271 358.164706 13.466271 L 6.75396 13.466271 C 3.038186 13.466271 0.0208246 10.454366 0.0208246 6.733136 C 0.0208246 3.017361 3.038186 0 6.75396 0 Z M 6.75396 0 " stroke="#323d4d" stroke-width="2" stroke-opacity="1" stroke-miterlimit="4"/></g></g></svg>