<svg xmlns="http://www.w3.org/2000/svg" xmlns:xlink="http://www.w3.org/1999/xlink" width="1088" zoomAndPan="magnify" viewBox="0 0 816 36.750001" height="49" preserveAspectRatio="xMidYMid meet" version="1.0"><defs><clipPath id="ea39e20ab2"><path d="M 2.757812 0 L 813.050781 0 L 813.050781 36.042969 L 2.757812 36.042969 Z M 2.757812 0 " clip-rule="nonzero"/></clipPath><clipPath id="1b4ad946f0"><path d="M 16.746094 0 L 799.019531 0 C 806.746094 0 813.007812 6.261719 813.007812 13.988281 L 813.007812 22.054688 C 813.007812 29.78125 806.746094 36.042969 799.019531 36.042969 L 16.746094 36.042969 C 9.019531 36.042969 2.757812 29.78125 2.757812 22.054688 L 2.757812 13.988281 C 2.757812 6.261719 9.019531 0 16.746094 0 Z M 16.746094 0 " clip-rule="nonzero"/></clipPath><clipPath id="0e9ccc15bc"><path d="M 0.757812 0 L 811.050781 0 L 811.050781 36.042969 L 0.757812 36.042969 Z M 0.757812 0 " clip-rule="nonzero"/></clipPath><clipPath id="4b5a0aa32f"><path d="M 14.746094 0 L 797.019531 0 C 804.746094 0 811.007812 6.261719 811.007812 13.988281 L 811.007812 22.054688 C 811.007812 29.78125 804.746094 36.042969 797.019531 36.042969 L 14.746094 36.042969 C 7.019531 36.042969 0.757812 29.78125 0.757812 22.054688 L 0.757812 13.988281 C 0.757812 6.261719 7.019531 0 14.746094 0 Z M 14.746094 0 " clip-rule="nonzero"/></clipPath><clipPath id="70fcaaf9c3"><rect x="0" width="812" y="0" height="37"/></clipPath><clipPath id="6417253e1f"><path d="M 2.84375 0 L 813 0 L 813 35.757812 L 2.84375 35.757812 Z M 2.84375 0 " clip-rule="nonzero"/></clipPath><clipPath id="a539531224"><path d="M 16.832031 0 L 798.925781 0 C 806.648438 0 812.910156 6.261719 812.910156 13.984375 L 812.910156 22.050781 C 812.910156 29.773438 806.648438 36.035156 798.925781 36.035156 L 16.832031 36.035156 C 9.105469 36.035156 2.84375 29.773438 2.84375 22.050781 L 2.84375 13.984375 C 2.84375 6.261719 9.105469 0 16.832031 0 Z M 16.832031 0 " clip-rule="nonzero"/></clipPath></defs><g clip-path="url(#ea39e20ab2)"><g clip-path="url(#1b4ad946f0)"><g transform="matrix(1, 0, 0, 1, 2, 0.000000000000002571)"><g clip-path="url(#70fcaaf9c3)"><g clip-path="url(#0e9ccc15bc)"><g clip-path="url(#4b5a0aa32f)"><path fill="#222a35" d="M 0.757812 0 L 811.050781 0 L 811.050781 36.042969 L 0.757812 36.042969 Z M 0.757812 0 " fill-opacity="1" fill-rule="nonzero"/></g></g></g></g></g></g><g clip-path="url(#6417253e1f)"><g clip-path="url(#a539531224)"><path stroke-linecap="butt" transform="matrix(0.744932, 0, 0, 0.744932, 2.756746, 0.00000198649)" fill="none" stroke-linejoin="miter" d="M 18.894713 -0.00000266667 L 1068.780149 -0.00000266667 C 1079.14707 -0.00000266667 1087.552824 8.405751 1087.552824 18.772672 L 1087.552824 29.601045 C 1087.552824 39.967966 1079.14707 48.373719 1068.780149 48.373719 L 18.894713 48.373719 C 8.522548 48.373719 0.116795 39.967966 0.116795 29.601045 L 0.116795 18.772672 C 0.116795 8.405751 8.522548 -0.00000266667 18.894713 -0.00000266667 Z M 18.894713 -0.00000266667 " stroke="#323d4d" stroke-width="4" stroke-opacity="1" stroke-miterlimit="4"/></g></g></svg>