<svg xmlns="http://www.w3.org/2000/svg" xmlns:xlink="http://www.w3.org/1999/xlink" width="1088" zoomAndPan="magnify" viewBox="0 0 816 32.249999" height="43" preserveAspectRatio="xMidYMid meet" version="1.0"><defs><clipPath id="3fe38dc0c8"><path d="M 9.273438 0 L 806.503906 0 L 806.503906 31.3125 L 9.273438 31.3125 Z M 9.273438 0 " clip-rule="nonzero"/></clipPath><clipPath id="bdce3b2adc"><path d="M 23.039062 0 L 792.730469 0 C 800.332031 0 806.496094 6.164062 806.496094 13.765625 L 806.496094 17.546875 C 806.496094 25.148438 800.332031 31.3125 792.730469 31.3125 L 23.039062 31.3125 C 15.433594 31.3125 9.273438 25.148438 9.273438 17.546875 L 9.273438 13.765625 C 9.273438 6.164062 15.433594 0 23.039062 0 Z M 23.039062 0 " clip-rule="nonzero"/></clipPath><clipPath id="1c086bb7db"><path d="M 0.273438 0 L 797.503906 0 L 797.503906 31.3125 L 0.273438 31.3125 Z M 0.273438 0 " clip-rule="nonzero"/></clipPath><clipPath id="cc3c39a86b"><path d="M 14.039062 0 L 783.730469 0 C 791.332031 0 797.496094 6.164062 797.496094 13.765625 L 797.496094 17.546875 C 797.496094 25.148438 791.332031 31.3125 783.730469 31.3125 L 14.039062 31.3125 C 6.433594 31.3125 0.273438 25.148438 0.273438 17.546875 L 0.273438 13.765625 C 0.273438 6.164062 6.433594 0 14.039062 0 Z M 14.039062 0 " clip-rule="nonzero"/></clipPath><clipPath id="454f9c226a"><rect x="0" width="798" y="0" height="32"/></clipPath><clipPath id="450e8df3b8"><path d="M 9.28125 0 L 806.726562 0 L 806.726562 31.515625 L 9.28125 31.515625 Z M 9.28125 0 " clip-rule="nonzero"/></clipPath><clipPath id="6431a3072e"><path d="M 23.046875 0 L 792.714844 0 C 800.316406 0 806.476562 6.164062 806.476562 13.765625 L 806.476562 17.546875 C 806.476562 25.148438 800.316406 31.3125 792.714844 31.3125 L 23.046875 31.3125 C 15.445312 31.3125 9.28125 25.148438 9.28125 17.546875 L 9.28125 13.765625 C 9.28125 6.164062 15.445312 0 23.046875 0 Z M 23.046875 0 " clip-rule="nonzero"/></clipPath></defs><g clip-path="url(#3fe38dc0c8)"><g clip-path="url(#bdce3b2adc)"><g transform="matrix(1, 0, 0, 1, 9, 0)"><g clip-path="url(#454f9c226a)"><g clip-path="url(#1c086bb7db)"><g clip-path="url(#cc3c39a86b)"><path fill="#222a35" d="M 0.273438 0 L 797.503906 0 L 797.503906 31.3125 L 0.273438 31.3125 Z M 0.273438 0 " fill-opacity="1" fill-rule="nonzero"/></g></g></g></g></g></g><g clip-path="url(#450e8df3b8)"><g clip-path="url(#6431a3072e)"><path stroke-linecap="butt" transform="matrix(0.732955, 0, 0, 0.732955, 9.27274, -0.000000000000041664)" fill="none" stroke-linejoin="miter" d="M 18.792619 0.000000000000056843 L 1068.88226 0.000000000000056843 C 1079.253384 0.000000000000056843 1087.657938 8.409884 1087.657938 18.781008 L 1087.657938 23.939923 C 1087.657938 34.311047 1079.253384 42.720931 1068.88226 42.720931 L 18.792619 42.720931 C 8.421495 42.720931 0.011611 34.311047 0.011611 23.939923 L 0.011611 18.781008 C 0.011611 8.409884 8.421495 0.000000000000056843 18.792619 0.000000000000056843 Z M 18.792619 0.000000000000056843 " stroke="#323d4d" stroke-width="4" stroke-opacity="1" stroke-miterlimit="4"/></g></g></svg>