<svg xmlns="http://www.w3.org/2000/svg" xmlns:xlink="http://www.w3.org/1999/xlink" width="1178" zoomAndPan="magnify" viewBox="0 0 883.5 547.499989" height="730" preserveAspectRatio="none" version="1.0"><defs><clipPath id="22e6b52d82"><path d="M 0.152344 0 L 882.460938 0 L 882.460938 546.902344 L 0.152344 546.902344 Z M 0.152344 0 " clip-rule="nonzero"/></clipPath><clipPath id="0a714274aa"><path d="M 14.226562 0 L 868.34375 0 C 876.117188 0 882.417969 6.300781 882.417969 14.070312 L 882.417969 532.832031 C 882.417969 540.601562 876.117188 546.902344 868.34375 546.902344 L 14.226562 546.902344 C 6.453125 546.902344 0.152344 540.601562 0.152344 532.832031 L 0.152344 14.070312 C 0.152344 6.300781 6.453125 0 14.226562 0 Z M 14.226562 0 " clip-rule="nonzero"/></clipPath><clipPath id="2002db8784"><path d="M 0.152344 0 L 882.460938 0 L 882.460938 546.902344 L 0.152344 546.902344 Z M 0.152344 0 " clip-rule="nonzero"/></clipPath><clipPath id="40d9707b6c"><path d="M 14.226562 0 L 868.34375 0 C 876.117188 0 882.417969 6.300781 882.417969 14.070312 L 882.417969 532.832031 C 882.417969 540.601562 876.117188 546.902344 868.34375 546.902344 L 14.226562 546.902344 C 6.453125 546.902344 0.152344 540.601562 0.152344 532.832031 L 0.152344 14.070312 C 0.152344 6.300781 6.453125 0 14.226562 0 Z M 14.226562 0 " clip-rule="nonzero"/></clipPath><clipPath id="7800126fad"><rect x="0" width="883" y="0" height="547"/></clipPath><clipPath id="96204641bc"><path d="M 0.15625 0 L 882.097656 0 L 882.097656 547 L 0.15625 547 Z M 0.15625 0 " clip-rule="nonzero"/></clipPath><clipPath id="d559b2ae0a"><path d="M 14.230469 0 L 868.339844 0 C 876.109375 0 882.410156 6.300781 882.410156 14.070312 L 882.410156 532.824219 C 882.410156 540.59375 876.109375 546.894531 868.339844 546.894531 L 14.230469 546.894531 C 6.457031 546.894531 0.15625 540.59375 0.15625 532.824219 L 0.15625 14.070312 C 0.15625 6.300781 6.457031 0 14.230469 0 Z M 14.230469 0 " clip-rule="nonzero"/></clipPath></defs><g clip-path="url(#22e6b52d82)"><g clip-path="url(#0a714274aa)"><g transform="matrix(1, 0, 0, 1, 0.000000000000000028, 0)"><g clip-path="url(#7800126fad)"><g clip-path="url(#2002db8784)"><g clip-path="url(#40d9707b6c)"><path fill="#151620" d="M 0.152344 0 L 882.460938 0 L 882.460938 546.902344 L 0.152344 546.902344 Z M 0.152344 0 " fill-opacity="1" fill-rule="nonzero"/></g></g></g></g></g></g><g clip-path="url(#96204641bc)"><g clip-path="url(#d559b2ae0a)"><path stroke-linecap="butt" transform="matrix(0.749316, 0, 0, 0.749316, 0.153294, 0)" fill="none" stroke-linejoin="miter" d="M 18.78671 0 L 1158.639366 0 C 1169.008202 0 1177.416917 8.408715 1177.416917 18.777552 L 1177.416917 711.081178 C 1177.416917 721.450015 1169.008202 729.85873 1158.639366 729.85873 L 18.78671 729.85873 C 8.41266 729.85873 0.00394522 721.450015 0.00394522 711.081178 L 0.00394522 18.777552 C 0.00394522 8.408715 8.41266 0 18.78671 0 Z M 18.78671 0 " stroke="#5ec269" stroke-width="4" stroke-opacity="1" stroke-miterlimit="4"/></g></g></svg>