<svg xmlns="http://www.w3.org/2000/svg" xmlns:xlink="http://www.w3.org/1999/xlink" width="89" zoomAndPan="magnify" viewBox="0 0 66.75 30.000001" height="40" preserveAspectRatio="xMidYMid meet" version="1.0"><defs><clipPath id="3f716cdc44"><path d="M 0.957031 0 L 65.550781 0 L 65.550781 29.03125 L 0.957031 29.03125 Z M 0.957031 0 " clip-rule="nonzero"/></clipPath><clipPath id="cd8c5b19cc"><path d="M 0.957031 1.476562 L 65 1.476562 L 65 26.972656 L 0.957031 26.972656 Z M 0.957031 1.476562 " clip-rule="nonzero"/></clipPath><clipPath id="71fec11dd8"><path d="M 13.703125 1.476562 L 52.199219 1.476562 C 55.578125 1.476562 58.824219 2.820312 61.214844 5.210938 C 63.605469 7.601562 64.949219 10.84375 64.949219 14.222656 C 64.949219 17.605469 63.605469 20.847656 61.214844 23.238281 C 58.824219 25.628906 55.578125 26.972656 52.199219 26.972656 L 13.703125 26.972656 C 10.324219 26.972656 7.082031 25.628906 4.691406 23.238281 C 2.300781 20.847656 0.957031 17.605469 0.957031 14.222656 C 0.957031 10.84375 2.300781 7.601562 4.691406 5.210938 C 7.082031 2.820312 10.324219 1.476562 13.703125 1.476562 Z M 13.703125 1.476562 " clip-rule="nonzero"/></clipPath><clipPath id="a9a2d653ad"><path d="M 0.957031 0.476562 L 65 0.476562 L 65 25.972656 L 0.957031 25.972656 Z M 0.957031 0.476562 " clip-rule="nonzero"/></clipPath><clipPath id="510d636bef"><path d="M 13.703125 0.476562 L 52.199219 0.476562 C 55.578125 0.476562 58.824219 1.820312 61.214844 4.210938 C 63.605469 6.601562 64.949219 9.84375 64.949219 13.222656 C 64.949219 16.605469 63.605469 19.847656 61.214844 22.238281 C 58.824219 24.628906 55.578125 25.972656 52.199219 25.972656 L 13.703125 25.972656 C 10.324219 25.972656 7.082031 24.628906 4.691406 22.238281 C 2.300781 19.847656 0.957031 16.605469 0.957031 13.222656 C 0.957031 9.84375 2.300781 6.601562 4.691406 4.210938 C 7.082031 1.820312 10.324219 0.476562 13.703125 0.476562 Z M 13.703125 0.476562 " clip-rule="nonzero"/></clipPath><clipPath id="2b557daa01"><rect x="0" width="65" y="0" height="26"/></clipPath><clipPath id="b409681dd9"><path d="M 0.957031 1.476562 L 64.746094 1.476562 L 64.746094 27 L 0.957031 27 Z M 0.957031 1.476562 " clip-rule="nonzero"/></clipPath><clipPath id="e50ae728b1"><path d="M 13.703125 1.476562 L 52.191406 1.476562 C 55.574219 1.476562 58.816406 2.820312 61.207031 5.210938 C 63.597656 7.601562 64.941406 10.84375 64.941406 14.222656 C 64.941406 17.605469 63.597656 20.847656 61.207031 23.238281 C 58.816406 25.628906 55.574219 26.972656 52.191406 26.972656 L 13.703125 26.972656 C 10.324219 26.972656 7.078125 25.628906 4.6875 23.238281 C 2.296875 20.847656 0.957031 17.605469 0.957031 14.222656 C 0.957031 10.84375 2.296875 7.601562 4.6875 5.210938 C 7.078125 2.820312 10.324219 1.476562 13.703125 1.476562 Z M 13.703125 1.476562 " clip-rule="nonzero"/></clipPath><clipPath id="4427f64f26"><rect x="0" width="66" y="0" height="30"/></clipPath></defs><g clip-path="url(#3f716cdc44)"><g transform="matrix(1, 0, 0, 1, 0.000000000000000222, 0.000000000000005692)"><g clip-path="url(#4427f64f26)"><g clip-path="url(#cd8c5b19cc)"><g clip-path="url(#71fec11dd8)"><g transform="matrix(1, 0, 0, 1, 0.000000000000000222, 1)"><g clip-path="url(#2b557daa01)"><g clip-path="url(#a9a2d653ad)"><g clip-path="url(#510d636bef)"><path fill="#da4140" d="M 0.957031 0.476562 L 64.902344 0.476562 L 64.902344 25.972656 L 0.957031 25.972656 Z M 0.957031 0.476562 " fill-opacity="1" fill-rule="nonzero"/></g></g></g></g></g></g><g clip-path="url(#b409681dd9)"><g clip-path="url(#e50ae728b1)"><path stroke-linecap="butt" transform="matrix(0.545207, 0, 0, 0.545207, 0.955644, 1.475251)" fill="none" stroke-linejoin="miter" d="M 23.381007 0.00240605 L 93.974938 0.00240605 C 100.17958 0.00240605 106.126293 2.467068 110.511098 6.851873 C 114.895903 11.236678 117.360565 17.183391 117.360565 23.380869 C 117.360565 29.585512 114.895903 35.532224 110.511098 39.91703 C 106.126293 44.301835 100.17958 46.766497 93.974938 46.766497 L 23.381007 46.766497 C 17.183529 46.766497 11.229652 44.301835 6.844846 39.91703 C 2.460041 35.532224 0.0025443 29.585512 0.0025443 23.380869 C 0.0025443 17.183391 2.460041 11.236678 6.844846 6.851873 C 11.229652 2.467068 17.183529 0.00240605 23.381007 0.00240605 Z M 23.381007 0.00240605 " stroke="#eb5352" stroke-width="5.325" stroke-opacity="1" stroke-miterlimit="4"/></g></g></g></g></g></svg>