<svg xmlns="http://www.w3.org/2000/svg" xmlns:xlink="http://www.w3.org/1999/xlink" width="252" zoomAndPan="magnify" viewBox="0 0 189 281.25" height="375" preserveAspectRatio="xMidYMid meet" version="1.0"><defs><g/><clipPath id="768753ad05"><path d="M 0.25 0 L 188.355469 0 L 188.355469 280.503906 L 0.25 280.503906 Z M 0.25 0 " clip-rule="nonzero"/></clipPath><clipPath id="50efee02e5"><path d="M 188.355469 18.699219 L 188.355469 261.554688 C 188.355469 266.515625 186.386719 271.269531 182.878906 274.777344 C 179.371094 278.285156 174.617188 280.253906 169.65625 280.253906 L 18.949219 280.253906 C 13.992188 280.253906 9.234375 278.285156 5.726562 274.777344 C 2.222656 271.269531 0.25 266.515625 0.25 261.554688 L 0.25 18.699219 C 0.25 13.738281 2.222656 8.984375 5.726562 5.476562 C 9.234375 1.96875 13.992188 0 18.949219 0 L 169.65625 0 C 174.617188 0 179.371094 1.96875 182.878906 5.476562 C 186.386719 8.984375 188.355469 13.738281 188.355469 18.699219 Z M 188.355469 18.699219 " clip-rule="nonzero"/></clipPath><clipPath id="63d6695b08"><path d="M 0.25 0 L 188.355469 0 L 188.355469 280 L 0.25 280 Z M 0.25 0 " clip-rule="nonzero"/></clipPath><clipPath id="a13f4c7e49"><path d="M 188.355469 18.699219 L 188.355469 261.554688 C 188.355469 266.515625 186.386719 271.269531 182.878906 274.777344 C 179.371094 278.285156 174.617188 280.253906 169.65625 280.253906 L 18.949219 280.253906 C 13.992188 280.253906 9.234375 278.285156 5.726562 274.777344 C 2.222656 271.269531 0.25 266.515625 0.25 261.554688 L 0.25 18.699219 C 0.25 13.738281 2.222656 8.984375 5.726562 5.476562 C 9.234375 1.96875 13.992188 0 18.949219 0 L 169.65625 0 C 174.617188 0 179.371094 1.96875 182.878906 5.476562 C 186.386719 8.984375 188.355469 13.738281 188.355469 18.699219 Z M 188.355469 18.699219 " clip-rule="nonzero"/></clipPath><clipPath id="4464bd9af6"><rect x="0" width="189" y="0" height="281"/></clipPath><clipPath id="a5540e1f25"><path d="M 0.253906 0 L 188 0 L 188 280.246094 L 0.253906 280.246094 Z M 0.253906 0 " clip-rule="nonzero"/></clipPath><clipPath id="3f0a5daf3f"><path d="M 188.351562 18.699219 L 188.351562 261.546875 C 188.351562 266.503906 186.378906 271.261719 182.875 274.769531 C 179.367188 278.273438 174.609375 280.246094 169.652344 280.246094 L 18.949219 280.246094 C 13.992188 280.246094 9.234375 278.273438 5.730469 274.769531 C 2.222656 271.261719 0.253906 266.503906 0.253906 261.546875 L 0.253906 18.699219 C 0.253906 13.738281 2.222656 8.984375 5.730469 5.476562 C 9.234375 1.96875 13.992188 0 18.949219 0 L 169.652344 0 C 174.609375 0 179.367188 1.96875 182.875 5.476562 C 186.378906 8.984375 188.351562 13.738281 188.351562 18.699219 Z M 188.351562 18.699219 " clip-rule="nonzero"/></clipPath><clipPath id="c38a310c8d"><path d="M 0.25 30.949219 L 185.382812 30.949219 L 185.382812 61.132812 L 0.25 61.132812 Z M 0.25 30.949219 " clip-rule="nonzero"/></clipPath><clipPath id="30a5f23672"><path d="M 0.25 0.949219 L 185.382812 0.949219 L 185.382812 31.132812 L 0.25 31.132812 Z M 0.25 0.949219 " clip-rule="nonzero"/></clipPath><clipPath id="e1804b8dd2"><rect x="0" width="186" y="0" height="32"/></clipPath><clipPath id="75f4c97cad"><path d="M 38.539062 0.308594 L 94.5 0.308594 L 94.5 50.054688 L 38.539062 50.054688 Z M 38.539062 0.308594 " clip-rule="nonzero"/></clipPath><clipPath id="6147d456d2"><path d="M 94.445312 0.308594 L 94.445312 50.054688 L 38.539062 50.054688 Z M 94.445312 0.308594 " clip-rule="nonzero"/></clipPath><clipPath id="5f4ea09bbb"><path d="M 0.539062 0.308594 L 56.5 0.308594 L 56.5 50.054688 L 0.539062 50.054688 Z M 0.539062 0.308594 " clip-rule="nonzero"/></clipPath><clipPath id="5b77ab1dbe"><path d="M 56.445312 0.308594 L 56.445312 50.054688 L 0.539062 50.054688 Z M 56.445312 0.308594 " clip-rule="nonzero"/></clipPath><clipPath id="10c6700f72"><rect x="0" width="57" y="0" height="51"/></clipPath><clipPath id="c01edc919e"><path d="M 81.851562 5.960938 L 184.867188 5.960938 L 184.867188 47.414062 L 81.851562 47.414062 Z M 81.851562 5.960938 " clip-rule="nonzero"/></clipPath><clipPath id="f981477674"><path d="M 0.851562 0.960938 L 103.867188 0.960938 L 103.867188 42.414062 L 0.851562 42.414062 Z M 0.851562 0.960938 " clip-rule="nonzero"/></clipPath><clipPath id="3a94e4a240"><rect x="0" width="104" y="0" height="43"/></clipPath><clipPath id="1f29af7826"><path d="M 5.707031 259.484375 L 183.183594 259.484375 L 183.183594 274.351562 L 5.707031 274.351562 Z M 5.707031 259.484375 " clip-rule="nonzero"/></clipPath><clipPath id="3952e637b7"><path d="M 0.707031 0.484375 L 178.183594 0.484375 L 178.183594 15.351562 L 0.707031 15.351562 Z M 0.707031 0.484375 " clip-rule="nonzero"/></clipPath><clipPath id="a1b9be8bf3"><rect x="0" width="179" y="0" height="16"/></clipPath><clipPath id="dff0436421"><path d="M 3.230469 236.222656 L 92.257812 236.222656 L 92.257812 263.667969 L 3.230469 263.667969 Z M 3.230469 236.222656 " clip-rule="nonzero"/></clipPath><clipPath id="710b8196a2"><path d="M 0.230469 0.222656 L 89.257812 0.222656 L 89.257812 27.667969 L 0.230469 27.667969 Z M 0.230469 0.222656 " clip-rule="nonzero"/></clipPath><clipPath id="3f54b51b5e"><rect x="0" width="90" y="0" height="28"/></clipPath><clipPath id="1a50d5ef57"><path d="M 91.695312 236.222656 L 138.101562 236.222656 L 138.101562 272.117188 L 91.695312 272.117188 Z M 91.695312 236.222656 " clip-rule="nonzero"/></clipPath><clipPath id="bedc122e14"><path d="M 138.042969 272.117188 L 91.695312 272.117188 L 91.695312 236.222656 Z M 138.042969 272.117188 " clip-rule="nonzero"/></clipPath><clipPath id="5e5ac86612"><path d="M 0.695312 0.222656 L 47.101562 0.222656 L 47.101562 36.117188 L 0.695312 36.117188 Z M 0.695312 0.222656 " clip-rule="nonzero"/></clipPath><clipPath id="7dde3a616b"><path d="M 47.042969 36.117188 L 0.695312 36.117188 L 0.695312 0.222656 Z M 47.042969 36.117188 " clip-rule="nonzero"/></clipPath><clipPath id="dab041577e"><rect x="0" width="48" y="0" height="37"/></clipPath><clipPath id="98a552e189"><path d="M 8.210938 244.652344 L 23.796875 244.652344 L 23.796875 259.484375 L 8.210938 259.484375 Z M 8.210938 244.652344 " clip-rule="nonzero"/></clipPath><clipPath id="268d1f9fa2"><path d="M 15.992188 244.652344 L 17.828125 250.316406 L 23.773438 250.316406 L 18.964844 253.820312 L 20.800781 259.484375 L 15.992188 255.984375 L 11.179688 259.484375 L 13.019531 253.820312 L 8.210938 250.316406 L 14.152344 250.316406 Z M 15.992188 244.652344 " clip-rule="nonzero"/></clipPath><clipPath id="50dc164445"><path d="M 0.210938 0.652344 L 15.796875 0.652344 L 15.796875 15.484375 L 0.210938 15.484375 Z M 0.210938 0.652344 " clip-rule="nonzero"/></clipPath><clipPath id="1e407133e3"><path d="M 7.992188 0.652344 L 9.828125 6.316406 L 15.773438 6.316406 L 10.964844 9.820312 L 12.800781 15.484375 L 7.992188 11.984375 L 3.179688 15.484375 L 5.019531 9.820312 L 0.210938 6.316406 L 6.152344 6.316406 Z M 7.992188 0.652344 " clip-rule="nonzero"/></clipPath><clipPath id="88df12f8d5"><rect x="0" width="16" y="0" height="16"/></clipPath><clipPath id="b67c74fed8"><path d="M 26.15625 244.652344 L 41.746094 244.652344 L 41.746094 259.484375 L 26.15625 259.484375 Z M 26.15625 244.652344 " clip-rule="nonzero"/></clipPath><clipPath id="76eda2e236"><path d="M 33.941406 244.652344 L 35.777344 250.316406 L 41.722656 250.316406 L 36.910156 253.820312 L 38.75 259.484375 L 33.941406 255.984375 L 29.128906 259.484375 L 30.96875 253.820312 L 26.15625 250.316406 L 32.101562 250.316406 Z M 33.941406 244.652344 " clip-rule="nonzero"/></clipPath><clipPath id="ed810506bf"><path d="M 0.15625 0.652344 L 15.746094 0.652344 L 15.746094 15.484375 L 0.15625 15.484375 Z M 0.15625 0.652344 " clip-rule="nonzero"/></clipPath><clipPath id="612eba0bd4"><path d="M 7.941406 0.652344 L 9.777344 6.316406 L 15.722656 6.316406 L 10.910156 9.820312 L 12.75 15.484375 L 7.941406 11.984375 L 3.128906 15.484375 L 4.96875 9.820312 L 0.15625 6.316406 L 6.101562 6.316406 Z M 7.941406 0.652344 " clip-rule="nonzero"/></clipPath><clipPath id="8d0205a37d"><rect x="0" width="16" y="0" height="16"/></clipPath><clipPath id="486bd870b4"><path d="M 44.105469 244.652344 L 59.695312 244.652344 L 59.695312 259.484375 L 44.105469 259.484375 Z M 44.105469 244.652344 " clip-rule="nonzero"/></clipPath><clipPath id="f15e27285d"><path d="M 51.886719 244.652344 L 53.726562 250.316406 L 59.671875 250.316406 L 54.859375 253.820312 L 56.699219 259.484375 L 51.886719 255.984375 L 47.078125 259.484375 L 48.917969 253.820312 L 44.105469 250.316406 L 50.050781 250.316406 Z M 51.886719 244.652344 " clip-rule="nonzero"/></clipPath><clipPath id="947c62798f"><path d="M 0.105469 0.652344 L 15.695312 0.652344 L 15.695312 15.484375 L 0.105469 15.484375 Z M 0.105469 0.652344 " clip-rule="nonzero"/></clipPath><clipPath id="5db782a405"><path d="M 7.886719 0.652344 L 9.726562 6.316406 L 15.671875 6.316406 L 10.859375 9.820312 L 12.699219 15.484375 L 7.886719 11.984375 L 3.078125 15.484375 L 4.917969 9.820312 L 0.105469 6.316406 L 6.050781 6.316406 Z M 7.886719 0.652344 " clip-rule="nonzero"/></clipPath><clipPath id="648004951a"><rect x="0" width="16" y="0" height="16"/></clipPath><clipPath id="06c0a63364"><path d="M 62.054688 244.652344 L 77.644531 244.652344 L 77.644531 259.484375 L 62.054688 259.484375 Z M 62.054688 244.652344 " clip-rule="nonzero"/></clipPath><clipPath id="ce5308d7b1"><path d="M 69.835938 244.652344 L 71.675781 250.316406 L 77.617188 250.316406 L 72.808594 253.820312 L 74.648438 259.484375 L 69.835938 255.984375 L 65.027344 259.484375 L 66.863281 253.820312 L 62.054688 250.316406 L 68 250.316406 Z M 69.835938 244.652344 " clip-rule="nonzero"/></clipPath><clipPath id="9894927a33"><path d="M 0.0546875 0.652344 L 15.644531 0.652344 L 15.644531 15.484375 L 0.0546875 15.484375 Z M 0.0546875 0.652344 " clip-rule="nonzero"/></clipPath><clipPath id="c8cc10df61"><path d="M 7.835938 0.652344 L 9.675781 6.316406 L 15.617188 6.316406 L 10.808594 9.820312 L 12.648438 15.484375 L 7.835938 11.984375 L 3.027344 15.484375 L 4.863281 9.820312 L 0.0546875 6.316406 L 6 6.316406 Z M 7.835938 0.652344 " clip-rule="nonzero"/></clipPath><clipPath id="ad8c5d7050"><rect x="0" width="16" y="0" height="16"/></clipPath><clipPath id="846d36c6a7"><path d="M 80.003906 244.652344 L 95.589844 244.652344 L 95.589844 259.484375 L 80.003906 259.484375 Z M 80.003906 244.652344 " clip-rule="nonzero"/></clipPath><clipPath id="21133f723e"><path d="M 87.785156 244.652344 L 89.625 250.316406 L 95.566406 250.316406 L 90.757812 253.820312 L 92.59375 259.484375 L 87.785156 255.984375 L 82.976562 259.484375 L 84.8125 253.820312 L 80.003906 250.316406 L 85.949219 250.316406 Z M 87.785156 244.652344 " clip-rule="nonzero"/></clipPath><clipPath id="fe19224889"><path d="M 0.00390625 0.652344 L 15.589844 0.652344 L 15.589844 15.484375 L 0.00390625 15.484375 Z M 0.00390625 0.652344 " clip-rule="nonzero"/></clipPath><clipPath id="f62f03e2e7"><path d="M 7.785156 0.652344 L 9.625 6.316406 L 15.566406 6.316406 L 10.757812 9.820312 L 12.59375 15.484375 L 7.785156 11.984375 L 2.976562 15.484375 L 4.8125 9.820312 L 0.00390625 6.316406 L 5.949219 6.316406 Z M 7.785156 0.652344 " clip-rule="nonzero"/></clipPath><clipPath id="3bda02d8ea"><rect x="0" width="16" y="0" height="16"/></clipPath><clipPath id="dbd3c52c7d"><path d="M 152.390625 14.167969 L 154.015625 14.167969 L 154.015625 15.789062 L 152.390625 15.789062 Z M 152.390625 14.167969 " clip-rule="nonzero"/></clipPath><clipPath id="4d059c94ca"><path d="M 153.203125 14.167969 C 152.753906 14.167969 152.390625 14.53125 152.390625 14.976562 C 152.390625 15.425781 152.753906 15.789062 153.203125 15.789062 C 153.652344 15.789062 154.015625 15.425781 154.015625 14.976562 C 154.015625 14.53125 153.652344 14.167969 153.203125 14.167969 Z M 153.203125 14.167969 " clip-rule="nonzero"/></clipPath><clipPath id="8bc96ca683"><path d="M 0.390625 0.167969 L 2.015625 0.167969 L 2.015625 1.789062 L 0.390625 1.789062 Z M 0.390625 0.167969 " clip-rule="nonzero"/></clipPath><clipPath id="f8470e7550"><path d="M 1.203125 0.167969 C 0.753906 0.167969 0.390625 0.53125 0.390625 0.976562 C 0.390625 1.425781 0.753906 1.789062 1.203125 1.789062 C 1.652344 1.789062 2.015625 1.425781 2.015625 0.976562 C 2.015625 0.53125 1.652344 0.167969 1.203125 0.167969 Z M 1.203125 0.167969 " clip-rule="nonzero"/></clipPath><clipPath id="f2990699d4"><rect x="0" width="3" y="0" height="2"/></clipPath><clipPath id="99f4f65652"><rect x="0" width="26" y="0" height="9"/></clipPath></defs><g clip-path="url(#768753ad05)"><g clip-path="url(#50efee02e5)"><g transform="matrix(1, 0, 0, 1, 0, -0.000000000000023702)"><g clip-path="url(#4464bd9af6)"><g clip-path="url(#63d6695b08)"><g clip-path="url(#a13f4c7e49)"><path fill="#151620" d="M 0.25 0 L 188.355469 0 L 188.355469 279.953125 L 0.25 279.953125 Z M 0.25 0 " fill-opacity="1" fill-rule="nonzero"/></g></g></g></g></g></g><g clip-path="url(#a5540e1f25)"><g clip-path="url(#3f0a5daf3f)"><path stroke-linecap="butt" transform="matrix(0.748005, 0, 0, 0.748005, 0.25133, 0.0000099734)" fill="none" stroke-linejoin="miter" d="M 251.469122 24.998765 L 251.469122 349.659112 C 251.469122 356.286113 248.831899 362.64678 244.147566 367.336335 C 239.45801 372.020669 233.097343 374.657891 226.470343 374.657891 L 24.997001 374.657891 C 18.370001 374.657891 12.009334 372.020669 7.325 367.336335 C 2.635445 362.64678 0.00344444 356.286113 0.00344444 349.659112 L 0.00344444 24.998765 C 0.00344444 18.366543 2.635445 12.011098 7.325 7.321543 C 12.009334 2.631987 18.370001 -0.0000133333 24.997001 -0.0000133333 L 226.470343 -0.0000133333 C 233.097343 -0.0000133333 239.45801 2.631987 244.147566 7.321543 C 248.831899 12.011098 251.469122 18.366543 251.469122 24.998765 Z M 251.469122 24.998765 " stroke="#b07be5" stroke-width="26" stroke-opacity="1" stroke-miterlimit="4"/></g></g><g clip-path="url(#c38a310c8d)"><g transform="matrix(1, 0, 0, 1, 0, 30)"><g clip-path="url(#e1804b8dd2)"><g clip-path="url(#30a5f23672)"><path fill="#b07be5" d="M 0.25 0.949219 L 185.371094 0.949219 L 185.371094 31.132812 L 0.25 31.132812 Z M 0.25 0.949219 " fill-opacity="1" fill-rule="nonzero"/></g></g></g></g><g clip-path="url(#75f4c97cad)"><g clip-path="url(#6147d456d2)"><g transform="matrix(1, 0, 0, 1, 38, -0.000000000000023703)"><g clip-path="url(#10c6700f72)"><g clip-path="url(#5f4ea09bbb)"><g clip-path="url(#5b77ab1dbe)"><path fill="#b07be5" d="M 0.539062 50.054688 L 0.539062 0.308594 L 56.5 0.308594 L 56.5 50.054688 Z M 0.539062 50.054688 " fill-opacity="1" fill-rule="nonzero"/></g></g></g></g></g></g><g clip-path="url(#c01edc919e)"><g transform="matrix(1, 0, 0, 1, 81, 5)"><g clip-path="url(#3a94e4a240)"><g clip-path="url(#f981477674)"><path fill="#b07be5" d="M 0.851562 0.960938 L 103.835938 0.960938 L 103.835938 42.414062 L 0.851562 42.414062 Z M 0.851562 0.960938 " fill-opacity="1" fill-rule="nonzero"/></g></g></g></g><g clip-path="url(#1f29af7826)"><g transform="matrix(1, 0, 0, 1, 5, 259)"><g clip-path="url(#a1b9be8bf3)"><g clip-path="url(#3952e637b7)"><path fill="#b07be5" d="M 0.707031 0.484375 L 178.195312 0.484375 L 178.195312 15.351562 L 0.707031 15.351562 Z M 0.707031 0.484375 " fill-opacity="1" fill-rule="nonzero"/></g></g></g></g><g clip-path="url(#dff0436421)"><g transform="matrix(1, 0, 0, 1, 3, 236)"><g clip-path="url(#3f54b51b5e)"><g clip-path="url(#710b8196a2)"><path fill="#b07be5" d="M 0.230469 0.222656 L 89.203125 0.222656 L 89.203125 27.667969 L 0.230469 27.667969 Z M 0.230469 0.222656 " fill-opacity="1" fill-rule="nonzero"/></g></g></g></g><g clip-path="url(#1a50d5ef57)"><g clip-path="url(#bedc122e14)"><g transform="matrix(1, 0, 0, 1, 91, 236)"><g clip-path="url(#dab041577e)"><g clip-path="url(#5e5ac86612)"><g clip-path="url(#7dde3a616b)"><path fill="#b07be5" d="M 0.695312 0.222656 L 47.101562 0.222656 L 47.101562 36.117188 L 0.695312 36.117188 Z M 0.695312 0.222656 " fill-opacity="1" fill-rule="nonzero"/></g></g></g></g></g></g><g clip-path="url(#98a552e189)"><g clip-path="url(#268d1f9fa2)"><g transform="matrix(1, 0, 0, 1, 8, 244)"><g clip-path="url(#88df12f8d5)"><g clip-path="url(#50dc164445)"><g clip-path="url(#1e407133e3)"><path fill="#151620" d="M 0.210938 0.652344 L 15.796875 0.652344 L 15.796875 15.484375 L 0.210938 15.484375 Z M 0.210938 0.652344 " fill-opacity="1" fill-rule="nonzero"/></g></g></g></g></g></g><g clip-path="url(#b67c74fed8)"><g clip-path="url(#76eda2e236)"><g transform="matrix(1, 0, 0, 1, 26, 244)"><g clip-path="url(#8d0205a37d)"><g clip-path="url(#ed810506bf)"><g clip-path="url(#612eba0bd4)"><path fill="#151620" d="M 0.15625 0.652344 L 15.746094 0.652344 L 15.746094 15.484375 L 0.15625 15.484375 Z M 0.15625 0.652344 " fill-opacity="1" fill-rule="nonzero"/></g></g></g></g></g></g><g clip-path="url(#486bd870b4)"><g clip-path="url(#f15e27285d)"><g transform="matrix(1, 0, 0, 1, 44, 244)"><g clip-path="url(#648004951a)"><g clip-path="url(#947c62798f)"><g clip-path="url(#5db782a405)"><path fill="#151620" d="M 0.105469 0.652344 L 15.695312 0.652344 L 15.695312 15.484375 L 0.105469 15.484375 Z M 0.105469 0.652344 " fill-opacity="1" fill-rule="nonzero"/></g></g></g></g></g></g><g clip-path="url(#06c0a63364)"><g clip-path="url(#ce5308d7b1)"><g transform="matrix(1, 0, 0, 1, 62, 244)"><g clip-path="url(#ad8c5d7050)"><g clip-path="url(#9894927a33)"><g clip-path="url(#c8cc10df61)"><path fill="#9c68cf" d="M 0.0546875 0.652344 L 15.644531 0.652344 L 15.644531 15.484375 L 0.0546875 15.484375 Z M 0.0546875 0.652344 " fill-opacity="1" fill-rule="nonzero"/></g></g></g></g></g></g><g clip-path="url(#846d36c6a7)"><g clip-path="url(#21133f723e)"><g transform="matrix(1, 0, 0, 1, 80, 244)"><g clip-path="url(#3bda02d8ea)"><g clip-path="url(#fe19224889)"><g clip-path="url(#f62f03e2e7)"><path fill="#9c68cf" d="M 0.00390625 0.652344 L 15.589844 0.652344 L 15.589844 15.484375 L 0.00390625 15.484375 Z M 0.00390625 0.652344 " fill-opacity="1" fill-rule="nonzero"/></g></g></g></g></g></g><g clip-path="url(#dbd3c52c7d)"><g clip-path="url(#4d059c94ca)"><g transform="matrix(1, 0, 0, 1, 152, 14)"><g clip-path="url(#f2990699d4)"><g clip-path="url(#8bc96ca683)"><g clip-path="url(#f8470e7550)"><path fill="#222a35" d="M 0.390625 0.167969 L 2.015625 0.167969 L 2.015625 1.789062 L 0.390625 1.789062 Z M 0.390625 0.167969 " fill-opacity="1" fill-rule="nonzero"/></g></g></g></g></g></g><g transform="matrix(1, 0, 0, 1, 10, 264)"><g clip-path="url(#99f4f65652)"><g fill="#0d1623" fill-opacity="1"><g transform="translate(0.932104, 6.719014)"><g><path d="M 0.34375 0 L 0.34375 -4.359375 L 3.375 -4.359375 L 3.375 -3.515625 L 1.375 -3.515625 L 1.375 -2.625 L 3.21875 -2.625 L 3.21875 -1.796875 L 1.375 -1.796875 L 1.375 -0.84375 L 3.359375 -0.84375 L 3.359375 0 Z M 0.34375 0 "/></g></g></g><g fill="#0d1623" fill-opacity="1"><g transform="translate(7.20663, 6.719014)"><g><path d="M 0.34375 0 L 0.34375 -4.359375 L 2.125 -4.359375 C 2.457031 -4.359375 2.738281 -4.296875 2.96875 -4.171875 C 3.207031 -4.046875 3.390625 -3.867188 3.515625 -3.640625 C 3.648438 -3.421875 3.71875 -3.160156 3.71875 -2.859375 C 3.71875 -2.554688 3.648438 -2.289062 3.515625 -2.0625 C 3.390625 -1.84375 3.203125 -1.671875 2.953125 -1.546875 C 2.710938 -1.421875 2.425781 -1.359375 2.09375 -1.359375 L 1.375 -1.359375 L 1.375 0 Z M 1.375 -2.1875 L 1.90625 -2.1875 C 2.15625 -2.1875 2.335938 -2.242188 2.453125 -2.359375 C 2.578125 -2.484375 2.640625 -2.648438 2.640625 -2.859375 C 2.640625 -3.066406 2.578125 -3.226562 2.453125 -3.34375 C 2.328125 -3.46875 2.144531 -3.53125 1.90625 -3.53125 L 1.375 -3.53125 Z M 1.375 -2.1875 "/></g></g></g><g fill="#0d1623" fill-opacity="1"><g transform="translate(13.732843, 6.719014)"><g><path d="M 1.375 -4.359375 L 1.375 0 L 0.34375 0 L 0.34375 -4.359375 Z M 1.375 -4.359375 "/></g></g></g><g fill="#0d1623" fill-opacity="1"><g transform="translate(18.064116, 6.719014)"><g><path d="M 2.3125 0.0625 C 1.914062 0.0625 1.5625 -0.0234375 1.25 -0.203125 C 0.9375 -0.378906 0.6875 -0.632812 0.5 -0.96875 C 0.320312 -1.300781 0.234375 -1.707031 0.234375 -2.1875 C 0.234375 -2.664062 0.320312 -3.070312 0.5 -3.40625 C 0.6875 -3.738281 0.9375 -3.988281 1.25 -4.15625 C 1.5625 -4.332031 1.914062 -4.421875 2.3125 -4.421875 C 2.65625 -4.421875 2.960938 -4.359375 3.234375 -4.234375 C 3.515625 -4.109375 3.738281 -3.925781 3.90625 -3.6875 C 4.082031 -3.445312 4.191406 -3.160156 4.234375 -2.828125 L 3.1875 -2.828125 C 3.15625 -3.035156 3.0625 -3.203125 2.90625 -3.328125 C 2.757812 -3.453125 2.566406 -3.515625 2.328125 -3.515625 C 2.015625 -3.515625 1.765625 -3.394531 1.578125 -3.15625 C 1.390625 -2.925781 1.296875 -2.601562 1.296875 -2.1875 C 1.296875 -1.75 1.390625 -1.414062 1.578125 -1.1875 C 1.765625 -0.957031 2.015625 -0.84375 2.328125 -0.84375 C 2.554688 -0.84375 2.75 -0.90625 2.90625 -1.03125 C 3.0625 -1.15625 3.15625 -1.328125 3.1875 -1.546875 L 4.234375 -1.546875 C 4.210938 -1.347656 4.15625 -1.15625 4.0625 -0.96875 C 3.96875 -0.78125 3.835938 -0.609375 3.671875 -0.453125 C 3.515625 -0.296875 3.320312 -0.171875 3.09375 -0.078125 C 2.863281 0.0117188 2.601562 0.0625 2.3125 0.0625 Z M 2.3125 0.0625 "/></g></g></g></g></g></svg>