<svg xmlns="http://www.w3.org/2000/svg" xmlns:xlink="http://www.w3.org/1999/xlink" width="252" zoomAndPan="magnify" viewBox="0 0 189 281.25" height="375" preserveAspectRatio="xMidYMid meet" version="1.0"><defs><g/><clipPath id="850a31ac89"><path d="M 0.25 0 L 188.355469 0 L 188.355469 280.503906 L 0.25 280.503906 Z M 0.25 0 " clip-rule="nonzero"/></clipPath><clipPath id="68f5899428"><path d="M 188.355469 18.699219 L 188.355469 261.554688 C 188.355469 266.515625 186.386719 271.269531 182.878906 274.777344 C 179.371094 278.285156 174.617188 280.253906 169.65625 280.253906 L 18.949219 280.253906 C 13.992188 280.253906 9.234375 278.285156 5.726562 274.777344 C 2.222656 271.269531 0.25 266.515625 0.25 261.554688 L 0.25 18.699219 C 0.25 13.738281 2.222656 8.984375 5.726562 5.476562 C 9.234375 1.96875 13.992188 0 18.949219 0 L 169.65625 0 C 174.617188 0 179.371094 1.96875 182.878906 5.476562 C 186.386719 8.984375 188.355469 13.738281 188.355469 18.699219 Z M 188.355469 18.699219 " clip-rule="nonzero"/></clipPath><clipPath id="219ef250c3"><path d="M 0.25 0 L 188.355469 0 L 188.355469 280 L 0.25 280 Z M 0.25 0 " clip-rule="nonzero"/></clipPath><clipPath id="07fcaae62e"><path d="M 188.355469 18.699219 L 188.355469 261.554688 C 188.355469 266.515625 186.386719 271.269531 182.878906 274.777344 C 179.371094 278.285156 174.617188 280.253906 169.65625 280.253906 L 18.949219 280.253906 C 13.992188 280.253906 9.234375 278.285156 5.726562 274.777344 C 2.222656 271.269531 0.25 266.515625 0.25 261.554688 L 0.25 18.699219 C 0.25 13.738281 2.222656 8.984375 5.726562 5.476562 C 9.234375 1.96875 13.992188 0 18.949219 0 L 169.65625 0 C 174.617188 0 179.371094 1.96875 182.878906 5.476562 C 186.386719 8.984375 188.355469 13.738281 188.355469 18.699219 Z M 188.355469 18.699219 " clip-rule="nonzero"/></clipPath><clipPath id="58015fd574"><rect x="0" width="189" y="0" height="281"/></clipPath><clipPath id="7c6905afc2"><path d="M 0.253906 0 L 188 0 L 188 280.246094 L 0.253906 280.246094 Z M 0.253906 0 " clip-rule="nonzero"/></clipPath><clipPath id="80f2f413dc"><path d="M 188.351562 18.699219 L 188.351562 261.546875 C 188.351562 266.503906 186.378906 271.261719 182.875 274.769531 C 179.367188 278.273438 174.609375 280.246094 169.652344 280.246094 L 18.949219 280.246094 C 13.992188 280.246094 9.234375 278.273438 5.730469 274.769531 C 2.222656 271.261719 0.253906 266.503906 0.253906 261.546875 L 0.253906 18.699219 C 0.253906 13.738281 2.222656 8.984375 5.730469 5.476562 C 9.234375 1.96875 13.992188 0 18.949219 0 L 169.652344 0 C 174.609375 0 179.367188 1.96875 182.875 5.476562 C 186.378906 8.984375 188.351562 13.738281 188.351562 18.699219 Z M 188.351562 18.699219 " clip-rule="nonzero"/></clipPath><clipPath id="3931e84dc6"><path d="M 0.25 30.949219 L 185.382812 30.949219 L 185.382812 61.132812 L 0.25 61.132812 Z M 0.25 30.949219 " clip-rule="nonzero"/></clipPath><clipPath id="27a1fc1a9f"><path d="M 0.25 0.949219 L 185.382812 0.949219 L 185.382812 31.132812 L 0.25 31.132812 Z M 0.25 0.949219 " clip-rule="nonzero"/></clipPath><clipPath id="ced801e77e"><rect x="0" width="186" y="0" height="32"/></clipPath><clipPath id="c7af815a2a"><path d="M 38.539062 0.308594 L 94.5 0.308594 L 94.5 50.054688 L 38.539062 50.054688 Z M 38.539062 0.308594 " clip-rule="nonzero"/></clipPath><clipPath id="076ffc32b0"><path d="M 94.445312 0.308594 L 94.445312 50.054688 L 38.539062 50.054688 Z M 94.445312 0.308594 " clip-rule="nonzero"/></clipPath><clipPath id="f8e620e00b"><path d="M 0.539062 0.308594 L 56.5 0.308594 L 56.5 50.054688 L 0.539062 50.054688 Z M 0.539062 0.308594 " clip-rule="nonzero"/></clipPath><clipPath id="e8644ce930"><path d="M 56.445312 0.308594 L 56.445312 50.054688 L 0.539062 50.054688 Z M 56.445312 0.308594 " clip-rule="nonzero"/></clipPath><clipPath id="b588e6b786"><rect x="0" width="57" y="0" height="51"/></clipPath><clipPath id="10634af881"><path d="M 81.851562 5.960938 L 184.867188 5.960938 L 184.867188 47.414062 L 81.851562 47.414062 Z M 81.851562 5.960938 " clip-rule="nonzero"/></clipPath><clipPath id="688125bed9"><path d="M 0.851562 0.960938 L 103.867188 0.960938 L 103.867188 42.414062 L 0.851562 42.414062 Z M 0.851562 0.960938 " clip-rule="nonzero"/></clipPath><clipPath id="a3afe41d35"><rect x="0" width="104" y="0" height="43"/></clipPath><clipPath id="06ba86b6f7"><path d="M 5.707031 259.484375 L 183.183594 259.484375 L 183.183594 274.351562 L 5.707031 274.351562 Z M 5.707031 259.484375 " clip-rule="nonzero"/></clipPath><clipPath id="165739af44"><path d="M 0.707031 0.484375 L 178.183594 0.484375 L 178.183594 15.351562 L 0.707031 15.351562 Z M 0.707031 0.484375 " clip-rule="nonzero"/></clipPath><clipPath id="bc00f7f38f"><rect x="0" width="179" y="0" height="16"/></clipPath><clipPath id="8b6c75b5e2"><path d="M 3.230469 236.222656 L 92.257812 236.222656 L 92.257812 263.667969 L 3.230469 263.667969 Z M 3.230469 236.222656 " clip-rule="nonzero"/></clipPath><clipPath id="198c04f192"><path d="M 0.230469 0.222656 L 89.257812 0.222656 L 89.257812 27.667969 L 0.230469 27.667969 Z M 0.230469 0.222656 " clip-rule="nonzero"/></clipPath><clipPath id="5cf69bab8a"><rect x="0" width="90" y="0" height="28"/></clipPath><clipPath id="cf85889e1f"><path d="M 91.695312 236.222656 L 138.101562 236.222656 L 138.101562 272.117188 L 91.695312 272.117188 Z M 91.695312 236.222656 " clip-rule="nonzero"/></clipPath><clipPath id="563763ef60"><path d="M 138.042969 272.117188 L 91.695312 272.117188 L 91.695312 236.222656 Z M 138.042969 272.117188 " clip-rule="nonzero"/></clipPath><clipPath id="f6b10ae508"><path d="M 0.695312 0.222656 L 47.101562 0.222656 L 47.101562 36.117188 L 0.695312 36.117188 Z M 0.695312 0.222656 " clip-rule="nonzero"/></clipPath><clipPath id="c9d9e55e3b"><path d="M 47.042969 36.117188 L 0.695312 36.117188 L 0.695312 0.222656 Z M 47.042969 36.117188 " clip-rule="nonzero"/></clipPath><clipPath id="97bc415037"><rect x="0" width="48" y="0" height="37"/></clipPath><clipPath id="fae31a412e"><path d="M 8.210938 244.652344 L 23.796875 244.652344 L 23.796875 259.484375 L 8.210938 259.484375 Z M 8.210938 244.652344 " clip-rule="nonzero"/></clipPath><clipPath id="421ca24975"><path d="M 15.992188 244.652344 L 17.828125 250.316406 L 23.773438 250.316406 L 18.964844 253.820312 L 20.800781 259.484375 L 15.992188 255.984375 L 11.179688 259.484375 L 13.019531 253.820312 L 8.210938 250.316406 L 14.152344 250.316406 Z M 15.992188 244.652344 " clip-rule="nonzero"/></clipPath><clipPath id="35e5a41a7a"><path d="M 0.210938 0.652344 L 15.796875 0.652344 L 15.796875 15.484375 L 0.210938 15.484375 Z M 0.210938 0.652344 " clip-rule="nonzero"/></clipPath><clipPath id="e6d5e45174"><path d="M 7.992188 0.652344 L 9.828125 6.316406 L 15.773438 6.316406 L 10.964844 9.820312 L 12.800781 15.484375 L 7.992188 11.984375 L 3.179688 15.484375 L 5.019531 9.820312 L 0.210938 6.316406 L 6.152344 6.316406 Z M 7.992188 0.652344 " clip-rule="nonzero"/></clipPath><clipPath id="0d96fe78b6"><rect x="0" width="16" y="0" height="16"/></clipPath><clipPath id="12f1d6a526"><path d="M 26.15625 244.652344 L 41.746094 244.652344 L 41.746094 259.484375 L 26.15625 259.484375 Z M 26.15625 244.652344 " clip-rule="nonzero"/></clipPath><clipPath id="ef470e23fc"><path d="M 33.941406 244.652344 L 35.777344 250.316406 L 41.722656 250.316406 L 36.910156 253.820312 L 38.75 259.484375 L 33.941406 255.984375 L 29.128906 259.484375 L 30.96875 253.820312 L 26.15625 250.316406 L 32.101562 250.316406 Z M 33.941406 244.652344 " clip-rule="nonzero"/></clipPath><clipPath id="17e7a72d1b"><path d="M 0.15625 0.652344 L 15.746094 0.652344 L 15.746094 15.484375 L 0.15625 15.484375 Z M 0.15625 0.652344 " clip-rule="nonzero"/></clipPath><clipPath id="320f942474"><path d="M 7.941406 0.652344 L 9.777344 6.316406 L 15.722656 6.316406 L 10.910156 9.820312 L 12.75 15.484375 L 7.941406 11.984375 L 3.128906 15.484375 L 4.96875 9.820312 L 0.15625 6.316406 L 6.101562 6.316406 Z M 7.941406 0.652344 " clip-rule="nonzero"/></clipPath><clipPath id="71b8045847"><rect x="0" width="16" y="0" height="16"/></clipPath><clipPath id="52b774ab54"><path d="M 44.105469 244.652344 L 59.695312 244.652344 L 59.695312 259.484375 L 44.105469 259.484375 Z M 44.105469 244.652344 " clip-rule="nonzero"/></clipPath><clipPath id="299f5a8482"><path d="M 51.886719 244.652344 L 53.726562 250.316406 L 59.671875 250.316406 L 54.859375 253.820312 L 56.699219 259.484375 L 51.886719 255.984375 L 47.078125 259.484375 L 48.917969 253.820312 L 44.105469 250.316406 L 50.050781 250.316406 Z M 51.886719 244.652344 " clip-rule="nonzero"/></clipPath><clipPath id="a87bf9e7fa"><path d="M 0.105469 0.652344 L 15.695312 0.652344 L 15.695312 15.484375 L 0.105469 15.484375 Z M 0.105469 0.652344 " clip-rule="nonzero"/></clipPath><clipPath id="cc77bf9d04"><path d="M 7.886719 0.652344 L 9.726562 6.316406 L 15.671875 6.316406 L 10.859375 9.820312 L 12.699219 15.484375 L 7.886719 11.984375 L 3.078125 15.484375 L 4.917969 9.820312 L 0.105469 6.316406 L 6.050781 6.316406 Z M 7.886719 0.652344 " clip-rule="nonzero"/></clipPath><clipPath id="188f3d383d"><rect x="0" width="16" y="0" height="16"/></clipPath><clipPath id="fe6c49f30a"><path d="M 62.054688 244.652344 L 77.644531 244.652344 L 77.644531 259.484375 L 62.054688 259.484375 Z M 62.054688 244.652344 " clip-rule="nonzero"/></clipPath><clipPath id="7fd37e1ed0"><path d="M 69.835938 244.652344 L 71.675781 250.316406 L 77.617188 250.316406 L 72.808594 253.820312 L 74.648438 259.484375 L 69.835938 255.984375 L 65.027344 259.484375 L 66.863281 253.820312 L 62.054688 250.316406 L 68 250.316406 Z M 69.835938 244.652344 " clip-rule="nonzero"/></clipPath><clipPath id="00d060b317"><path d="M 0.0546875 0.652344 L 15.644531 0.652344 L 15.644531 15.484375 L 0.0546875 15.484375 Z M 0.0546875 0.652344 " clip-rule="nonzero"/></clipPath><clipPath id="500bf4a29c"><path d="M 7.835938 0.652344 L 9.675781 6.316406 L 15.617188 6.316406 L 10.808594 9.820312 L 12.648438 15.484375 L 7.835938 11.984375 L 3.027344 15.484375 L 4.863281 9.820312 L 0.0546875 6.316406 L 6 6.316406 Z M 7.835938 0.652344 " clip-rule="nonzero"/></clipPath><clipPath id="91abdac9af"><rect x="0" width="16" y="0" height="16"/></clipPath><clipPath id="eca322cd41"><path d="M 80.003906 244.652344 L 95.589844 244.652344 L 95.589844 259.484375 L 80.003906 259.484375 Z M 80.003906 244.652344 " clip-rule="nonzero"/></clipPath><clipPath id="dd7bc03df0"><path d="M 87.785156 244.652344 L 89.625 250.316406 L 95.566406 250.316406 L 90.757812 253.820312 L 92.59375 259.484375 L 87.785156 255.984375 L 82.976562 259.484375 L 84.8125 253.820312 L 80.003906 250.316406 L 85.949219 250.316406 Z M 87.785156 244.652344 " clip-rule="nonzero"/></clipPath><clipPath id="15a28a76ae"><path d="M 0.00390625 0.652344 L 15.589844 0.652344 L 15.589844 15.484375 L 0.00390625 15.484375 Z M 0.00390625 0.652344 " clip-rule="nonzero"/></clipPath><clipPath id="584f1a6755"><path d="M 7.785156 0.652344 L 9.625 6.316406 L 15.566406 6.316406 L 10.757812 9.820312 L 12.59375 15.484375 L 7.785156 11.984375 L 2.976562 15.484375 L 4.8125 9.820312 L 0.00390625 6.316406 L 5.949219 6.316406 Z M 7.785156 0.652344 " clip-rule="nonzero"/></clipPath><clipPath id="20cec5a87f"><rect x="0" width="16" y="0" height="16"/></clipPath><clipPath id="5560a2f1af"><path d="M 152.390625 14.167969 L 154.015625 14.167969 L 154.015625 15.789062 L 152.390625 15.789062 Z M 152.390625 14.167969 " clip-rule="nonzero"/></clipPath><clipPath id="14c3923010"><path d="M 153.203125 14.167969 C 152.753906 14.167969 152.390625 14.53125 152.390625 14.976562 C 152.390625 15.425781 152.753906 15.789062 153.203125 15.789062 C 153.652344 15.789062 154.015625 15.425781 154.015625 14.976562 C 154.015625 14.53125 153.652344 14.167969 153.203125 14.167969 Z M 153.203125 14.167969 " clip-rule="nonzero"/></clipPath><clipPath id="40afafe2b0"><path d="M 0.390625 0.167969 L 2.015625 0.167969 L 2.015625 1.789062 L 0.390625 1.789062 Z M 0.390625 0.167969 " clip-rule="nonzero"/></clipPath><clipPath id="21d4a82550"><path d="M 1.203125 0.167969 C 0.753906 0.167969 0.390625 0.53125 0.390625 0.976562 C 0.390625 1.425781 0.753906 1.789062 1.203125 1.789062 C 1.652344 1.789062 2.015625 1.425781 2.015625 0.976562 C 2.015625 0.53125 1.652344 0.167969 1.203125 0.167969 Z M 1.203125 0.167969 " clip-rule="nonzero"/></clipPath><clipPath id="d638edc600"><rect x="0" width="3" y="0" height="2"/></clipPath><clipPath id="e62839c5d8"><rect x="0" width="29" y="0" height="9"/></clipPath></defs><g clip-path="url(#850a31ac89)"><g clip-path="url(#68f5899428)"><g transform="matrix(1, 0, 0, 1, -0.000000000000000056, -0.000000000000023702)"><g clip-path="url(#58015fd574)"><g clip-path="url(#219ef250c3)"><g clip-path="url(#07fcaae62e)"><path fill="#151620" d="M 0.25 0 L 188.355469 0 L 188.355469 279.953125 L 0.25 279.953125 Z M 0.25 0 " fill-opacity="1" fill-rule="nonzero"/></g></g></g></g></g></g><g clip-path="url(#7c6905afc2)"><g clip-path="url(#80f2f413dc)"><path stroke-linecap="butt" transform="matrix(0.748005, 0, 0, 0.748005, 0.25133, 0.0000099734)" fill="none" stroke-linejoin="miter" d="M 251.469122 24.998765 L 251.469122 349.659112 C 251.469122 356.286113 248.831899 362.64678 244.147566 367.336335 C 239.45801 372.020669 233.097343 374.657891 226.470343 374.657891 L 24.997001 374.657891 C 18.370001 374.657891 12.009334 372.020669 7.325 367.336335 C 2.635445 362.64678 0.00344444 356.286113 0.00344444 349.659112 L 0.00344444 24.998765 C 0.00344444 18.366543 2.635445 12.011098 7.325 7.321543 C 12.009334 2.631987 18.370001 -0.0000133333 24.997001 -0.0000133333 L 226.470343 -0.0000133333 C 233.097343 -0.0000133333 239.45801 2.631987 244.147566 7.321543 C 248.831899 12.011098 251.469122 18.366543 251.469122 24.998765 Z M 251.469122 24.998765 " stroke="#6797df" stroke-width="26" stroke-opacity="1" stroke-miterlimit="4"/></g></g><g clip-path="url(#3931e84dc6)"><g transform="matrix(1, 0, 0, 1, -0.000000000000000056, 30)"><g clip-path="url(#ced801e77e)"><g clip-path="url(#27a1fc1a9f)"><path fill="#6797df" d="M 0.25 0.949219 L 185.371094 0.949219 L 185.371094 31.132812 L 0.25 31.132812 Z M 0.25 0.949219 " fill-opacity="1" fill-rule="nonzero"/></g></g></g></g><g clip-path="url(#c7af815a2a)"><g clip-path="url(#076ffc32b0)"><g transform="matrix(1, 0, 0, 1, 38, -0.000000000000023703)"><g clip-path="url(#b588e6b786)"><g clip-path="url(#f8e620e00b)"><g clip-path="url(#e8644ce930)"><path fill="#6797df" d="M 0.539062 50.054688 L 0.539062 0.308594 L 56.5 0.308594 L 56.5 50.054688 Z M 0.539062 50.054688 " fill-opacity="1" fill-rule="nonzero"/></g></g></g></g></g></g><g clip-path="url(#10634af881)"><g transform="matrix(1, 0, 0, 1, 81, 5)"><g clip-path="url(#a3afe41d35)"><g clip-path="url(#688125bed9)"><path fill="#6797df" d="M 0.851562 0.960938 L 103.835938 0.960938 L 103.835938 42.414062 L 0.851562 42.414062 Z M 0.851562 0.960938 " fill-opacity="1" fill-rule="nonzero"/></g></g></g></g><g clip-path="url(#06ba86b6f7)"><g transform="matrix(1, 0, 0, 1, 5, 259)"><g clip-path="url(#bc00f7f38f)"><g clip-path="url(#165739af44)"><path fill="#6797df" d="M 0.707031 0.484375 L 178.195312 0.484375 L 178.195312 15.351562 L 0.707031 15.351562 Z M 0.707031 0.484375 " fill-opacity="1" fill-rule="nonzero"/></g></g></g></g><g clip-path="url(#8b6c75b5e2)"><g transform="matrix(1, 0, 0, 1, 3, 236)"><g clip-path="url(#5cf69bab8a)"><g clip-path="url(#198c04f192)"><path fill="#6797df" d="M 0.230469 0.222656 L 89.203125 0.222656 L 89.203125 27.667969 L 0.230469 27.667969 Z M 0.230469 0.222656 " fill-opacity="1" fill-rule="nonzero"/></g></g></g></g><g clip-path="url(#cf85889e1f)"><g clip-path="url(#563763ef60)"><g transform="matrix(1, 0, 0, 1, 91, 236)"><g clip-path="url(#97bc415037)"><g clip-path="url(#f6b10ae508)"><g clip-path="url(#c9d9e55e3b)"><path fill="#6797df" d="M 0.695312 0.222656 L 47.101562 0.222656 L 47.101562 36.117188 L 0.695312 36.117188 Z M 0.695312 0.222656 " fill-opacity="1" fill-rule="nonzero"/></g></g></g></g></g></g><g clip-path="url(#fae31a412e)"><g clip-path="url(#421ca24975)"><g transform="matrix(1, 0, 0, 1, 8, 244)"><g clip-path="url(#0d96fe78b6)"><g clip-path="url(#35e5a41a7a)"><g clip-path="url(#e6d5e45174)"><path fill="#151620" d="M 0.210938 0.652344 L 15.796875 0.652344 L 15.796875 15.484375 L 0.210938 15.484375 Z M 0.210938 0.652344 " fill-opacity="1" fill-rule="nonzero"/></g></g></g></g></g></g><g clip-path="url(#12f1d6a526)"><g clip-path="url(#ef470e23fc)"><g transform="matrix(1, 0, 0, 1, 26, 244)"><g clip-path="url(#71b8045847)"><g clip-path="url(#17e7a72d1b)"><g clip-path="url(#320f942474)"><path fill="#151620" d="M 0.15625 0.652344 L 15.746094 0.652344 L 15.746094 15.484375 L 0.15625 15.484375 Z M 0.15625 0.652344 " fill-opacity="1" fill-rule="nonzero"/></g></g></g></g></g></g><g clip-path="url(#52b774ab54)"><g clip-path="url(#299f5a8482)"><g transform="matrix(1, 0, 0, 1, 44, 244)"><g clip-path="url(#188f3d383d)"><g clip-path="url(#a87bf9e7fa)"><g clip-path="url(#cc77bf9d04)"><path fill="#5480c2" d="M 0.105469 0.652344 L 15.695312 0.652344 L 15.695312 15.484375 L 0.105469 15.484375 Z M 0.105469 0.652344 " fill-opacity="1" fill-rule="nonzero"/></g></g></g></g></g></g><g clip-path="url(#fe6c49f30a)"><g clip-path="url(#7fd37e1ed0)"><g transform="matrix(1, 0, 0, 1, 62, 244)"><g clip-path="url(#91abdac9af)"><g clip-path="url(#00d060b317)"><g clip-path="url(#500bf4a29c)"><path fill="#5480c2" d="M 0.0546875 0.652344 L 15.644531 0.652344 L 15.644531 15.484375 L 0.0546875 15.484375 Z M 0.0546875 0.652344 " fill-opacity="1" fill-rule="nonzero"/></g></g></g></g></g></g><g clip-path="url(#eca322cd41)"><g clip-path="url(#dd7bc03df0)"><g transform="matrix(1, 0, 0, 1, 80, 244)"><g clip-path="url(#20cec5a87f)"><g clip-path="url(#15a28a76ae)"><g clip-path="url(#584f1a6755)"><path fill="#5480c2" d="M 0.00390625 0.652344 L 15.589844 0.652344 L 15.589844 15.484375 L 0.00390625 15.484375 Z M 0.00390625 0.652344 " fill-opacity="1" fill-rule="nonzero"/></g></g></g></g></g></g><g clip-path="url(#5560a2f1af)"><g clip-path="url(#14c3923010)"><g transform="matrix(1, 0, 0, 1, 152, 14)"><g clip-path="url(#d638edc600)"><g clip-path="url(#40afafe2b0)"><g clip-path="url(#21d4a82550)"><path fill="#222a35" d="M 0.390625 0.167969 L 2.015625 0.167969 L 2.015625 1.789062 L 0.390625 1.789062 Z M 0.390625 0.167969 " fill-opacity="1" fill-rule="nonzero"/></g></g></g></g></g></g><g transform="matrix(1, 0, 0, 1, 10, 264)"><g clip-path="url(#e62839c5d8)"><g fill="#0d1623" fill-opacity="1"><g transform="translate(0.932104, 6.719014)"><g><path d="M 0.34375 0 L 0.34375 -4.359375 L 2.125 -4.359375 C 2.613281 -4.359375 3 -4.226562 3.28125 -3.96875 C 3.570312 -3.707031 3.71875 -3.359375 3.71875 -2.921875 C 3.71875 -2.617188 3.648438 -2.359375 3.515625 -2.140625 C 3.390625 -1.929688 3.203125 -1.773438 2.953125 -1.671875 L 3.875 0 L 2.734375 0 L 1.9375 -1.5 L 1.375 -1.5 L 1.375 0 Z M 1.375 -2.328125 L 1.90625 -2.328125 C 2.394531 -2.328125 2.640625 -2.523438 2.640625 -2.921875 C 2.640625 -3.328125 2.394531 -3.53125 1.90625 -3.53125 L 1.375 -3.53125 Z M 1.375 -2.328125 "/></g></g></g><g fill="#0d1623" fill-opacity="1"><g transform="translate(7.519775, 6.719014)"><g><path d="M 0.140625 0 L 1.59375 -4.359375 L 2.984375 -4.359375 L 4.484375 0 L 3.3125 0 L 3.03125 -0.921875 L 1.578125 -0.921875 L 1.28125 0 Z M 1.8125 -1.71875 L 2.765625 -1.71875 L 2.71875 -1.90625 C 2.632812 -2.15625 2.554688 -2.414062 2.484375 -2.6875 C 2.410156 -2.96875 2.34375 -3.253906 2.28125 -3.546875 C 2.207031 -3.242188 2.140625 -2.957031 2.078125 -2.6875 C 2.015625 -2.414062 1.945312 -2.15625 1.875 -1.90625 Z M 1.8125 -1.71875 "/></g></g></g><g fill="#0d1623" fill-opacity="1"><g transform="translate(14.751295, 6.719014)"><g><path d="M 0.34375 0 L 0.34375 -4.359375 L 2.125 -4.359375 C 2.613281 -4.359375 3 -4.226562 3.28125 -3.96875 C 3.570312 -3.707031 3.71875 -3.359375 3.71875 -2.921875 C 3.71875 -2.617188 3.648438 -2.359375 3.515625 -2.140625 C 3.390625 -1.929688 3.203125 -1.773438 2.953125 -1.671875 L 3.875 0 L 2.734375 0 L 1.9375 -1.5 L 1.375 -1.5 L 1.375 0 Z M 1.375 -2.328125 L 1.90625 -2.328125 C 2.394531 -2.328125 2.640625 -2.523438 2.640625 -2.921875 C 2.640625 -3.328125 2.394531 -3.53125 1.90625 -3.53125 L 1.375 -3.53125 Z M 1.375 -2.328125 "/></g></g></g><g fill="#0d1623" fill-opacity="1"><g transform="translate(21.338966, 6.719014)"><g><path d="M 0.34375 0 L 0.34375 -4.359375 L 3.375 -4.359375 L 3.375 -3.515625 L 1.375 -3.515625 L 1.375 -2.625 L 3.21875 -2.625 L 3.21875 -1.796875 L 1.375 -1.796875 L 1.375 -0.84375 L 3.359375 -0.84375 L 3.359375 0 Z M 0.34375 0 "/></g></g></g></g></g></svg>