<svg xmlns="http://www.w3.org/2000/svg" xmlns:xlink="http://www.w3.org/1999/xlink" width="252" zoomAndPan="magnify" viewBox="0 0 189 281.25" height="375" preserveAspectRatio="xMidYMid meet" version="1.0"><defs><g/><clipPath id="a2e34ead13"><path d="M 0.25 0 L 188.355469 0 L 188.355469 280.503906 L 0.25 280.503906 Z M 0.25 0 " clip-rule="nonzero"/></clipPath><clipPath id="d04294dfed"><path d="M 188.355469 18.699219 L 188.355469 261.554688 C 188.355469 266.515625 186.386719 271.269531 182.878906 274.777344 C 179.371094 278.285156 174.617188 280.253906 169.65625 280.253906 L 18.949219 280.253906 C 13.992188 280.253906 9.234375 278.285156 5.726562 274.777344 C 2.222656 271.269531 0.25 266.515625 0.25 261.554688 L 0.25 18.699219 C 0.25 13.738281 2.222656 8.984375 5.726562 5.476562 C 9.234375 1.96875 13.992188 0 18.949219 0 L 169.65625 0 C 174.617188 0 179.371094 1.96875 182.878906 5.476562 C 186.386719 8.984375 188.355469 13.738281 188.355469 18.699219 Z M 188.355469 18.699219 " clip-rule="nonzero"/></clipPath><clipPath id="675ea61afc"><path d="M 0.25 0 L 188.355469 0 L 188.355469 280 L 0.25 280 Z M 0.25 0 " clip-rule="nonzero"/></clipPath><clipPath id="cdeb1eecf6"><path d="M 188.355469 18.699219 L 188.355469 261.554688 C 188.355469 266.515625 186.386719 271.269531 182.878906 274.777344 C 179.371094 278.285156 174.617188 280.253906 169.65625 280.253906 L 18.949219 280.253906 C 13.992188 280.253906 9.234375 278.285156 5.726562 274.777344 C 2.222656 271.269531 0.25 266.515625 0.25 261.554688 L 0.25 18.699219 C 0.25 13.738281 2.222656 8.984375 5.726562 5.476562 C 9.234375 1.96875 13.992188 0 18.949219 0 L 169.65625 0 C 174.617188 0 179.371094 1.96875 182.878906 5.476562 C 186.386719 8.984375 188.355469 13.738281 188.355469 18.699219 Z M 188.355469 18.699219 " clip-rule="nonzero"/></clipPath><clipPath id="8d12d87d8c"><rect x="0" width="189" y="0" height="281"/></clipPath><clipPath id="c7d8dd5a45"><path d="M 0.253906 0 L 188 0 L 188 280.246094 L 0.253906 280.246094 Z M 0.253906 0 " clip-rule="nonzero"/></clipPath><clipPath id="1678fd674f"><path d="M 188.351562 18.699219 L 188.351562 261.546875 C 188.351562 266.503906 186.378906 271.261719 182.875 274.769531 C 179.367188 278.273438 174.609375 280.246094 169.652344 280.246094 L 18.949219 280.246094 C 13.992188 280.246094 9.234375 278.273438 5.730469 274.769531 C 2.222656 271.261719 0.253906 266.503906 0.253906 261.546875 L 0.253906 18.699219 C 0.253906 13.738281 2.222656 8.984375 5.730469 5.476562 C 9.234375 1.96875 13.992188 0 18.949219 0 L 169.652344 0 C 174.609375 0 179.367188 1.96875 182.875 5.476562 C 186.378906 8.984375 188.351562 13.738281 188.351562 18.699219 Z M 188.351562 18.699219 " clip-rule="nonzero"/></clipPath><clipPath id="d740d560b0"><path d="M 0.25 30.949219 L 185.382812 30.949219 L 185.382812 61.132812 L 0.25 61.132812 Z M 0.25 30.949219 " clip-rule="nonzero"/></clipPath><clipPath id="d1066d0851"><path d="M 0.25 0.949219 L 185.382812 0.949219 L 185.382812 31.132812 L 0.25 31.132812 Z M 0.25 0.949219 " clip-rule="nonzero"/></clipPath><clipPath id="20934ac61d"><rect x="0" width="186" y="0" height="32"/></clipPath><clipPath id="ae694a46a7"><path d="M 38.539062 0.308594 L 94.5 0.308594 L 94.5 50.054688 L 38.539062 50.054688 Z M 38.539062 0.308594 " clip-rule="nonzero"/></clipPath><clipPath id="abc2197e39"><path d="M 94.445312 0.308594 L 94.445312 50.054688 L 38.539062 50.054688 Z M 94.445312 0.308594 " clip-rule="nonzero"/></clipPath><clipPath id="e1e0438bd2"><path d="M 0.539062 0.308594 L 56.5 0.308594 L 56.5 50.054688 L 0.539062 50.054688 Z M 0.539062 0.308594 " clip-rule="nonzero"/></clipPath><clipPath id="6937adcf2b"><path d="M 56.445312 0.308594 L 56.445312 50.054688 L 0.539062 50.054688 Z M 56.445312 0.308594 " clip-rule="nonzero"/></clipPath><clipPath id="a1dfc07d29"><rect x="0" width="57" y="0" height="51"/></clipPath><clipPath id="c3964fc57a"><path d="M 81.851562 5.960938 L 184.867188 5.960938 L 184.867188 47.414062 L 81.851562 47.414062 Z M 81.851562 5.960938 " clip-rule="nonzero"/></clipPath><clipPath id="04714affe8"><path d="M 0.851562 0.960938 L 103.867188 0.960938 L 103.867188 42.414062 L 0.851562 42.414062 Z M 0.851562 0.960938 " clip-rule="nonzero"/></clipPath><clipPath id="37e38c2359"><rect x="0" width="104" y="0" height="43"/></clipPath><clipPath id="53657153d3"><path d="M 5.707031 259.484375 L 183.183594 259.484375 L 183.183594 274.351562 L 5.707031 274.351562 Z M 5.707031 259.484375 " clip-rule="nonzero"/></clipPath><clipPath id="d6727ef655"><path d="M 0.707031 0.484375 L 178.183594 0.484375 L 178.183594 15.351562 L 0.707031 15.351562 Z M 0.707031 0.484375 " clip-rule="nonzero"/></clipPath><clipPath id="cf5b643da8"><rect x="0" width="179" y="0" height="16"/></clipPath><clipPath id="9ee7692ee4"><path d="M 3.230469 236.222656 L 92.257812 236.222656 L 92.257812 263.667969 L 3.230469 263.667969 Z M 3.230469 236.222656 " clip-rule="nonzero"/></clipPath><clipPath id="0c5b2f5738"><path d="M 0.230469 0.222656 L 89.257812 0.222656 L 89.257812 27.667969 L 0.230469 27.667969 Z M 0.230469 0.222656 " clip-rule="nonzero"/></clipPath><clipPath id="66dfbe770c"><rect x="0" width="90" y="0" height="28"/></clipPath><clipPath id="4ed7f15e49"><path d="M 91.695312 236.222656 L 138.101562 236.222656 L 138.101562 272.117188 L 91.695312 272.117188 Z M 91.695312 236.222656 " clip-rule="nonzero"/></clipPath><clipPath id="b4ddd3f71e"><path d="M 138.042969 272.117188 L 91.695312 272.117188 L 91.695312 236.222656 Z M 138.042969 272.117188 " clip-rule="nonzero"/></clipPath><clipPath id="bdfb0a6d67"><path d="M 0.695312 0.222656 L 47.101562 0.222656 L 47.101562 36.117188 L 0.695312 36.117188 Z M 0.695312 0.222656 " clip-rule="nonzero"/></clipPath><clipPath id="ad0b1d6603"><path d="M 47.042969 36.117188 L 0.695312 36.117188 L 0.695312 0.222656 Z M 47.042969 36.117188 " clip-rule="nonzero"/></clipPath><clipPath id="594b504d1a"><rect x="0" width="48" y="0" height="37"/></clipPath><clipPath id="ba95f513b0"><path d="M 8.210938 244.652344 L 23.796875 244.652344 L 23.796875 259.484375 L 8.210938 259.484375 Z M 8.210938 244.652344 " clip-rule="nonzero"/></clipPath><clipPath id="f70c58a6a4"><path d="M 15.992188 244.652344 L 17.828125 250.316406 L 23.773438 250.316406 L 18.964844 253.820312 L 20.800781 259.484375 L 15.992188 255.984375 L 11.179688 259.484375 L 13.019531 253.820312 L 8.210938 250.316406 L 14.152344 250.316406 Z M 15.992188 244.652344 " clip-rule="nonzero"/></clipPath><clipPath id="63198c8e67"><path d="M 0.210938 0.652344 L 15.796875 0.652344 L 15.796875 15.484375 L 0.210938 15.484375 Z M 0.210938 0.652344 " clip-rule="nonzero"/></clipPath><clipPath id="305aeb5c67"><path d="M 7.992188 0.652344 L 9.828125 6.316406 L 15.773438 6.316406 L 10.964844 9.820312 L 12.800781 15.484375 L 7.992188 11.984375 L 3.179688 15.484375 L 5.019531 9.820312 L 0.210938 6.316406 L 6.152344 6.316406 Z M 7.992188 0.652344 " clip-rule="nonzero"/></clipPath><clipPath id="86ec65eeaf"><rect x="0" width="16" y="0" height="16"/></clipPath><clipPath id="de763a7020"><path d="M 26.15625 244.652344 L 41.746094 244.652344 L 41.746094 259.484375 L 26.15625 259.484375 Z M 26.15625 244.652344 " clip-rule="nonzero"/></clipPath><clipPath id="612de54fd6"><path d="M 33.941406 244.652344 L 35.777344 250.316406 L 41.722656 250.316406 L 36.910156 253.820312 L 38.75 259.484375 L 33.941406 255.984375 L 29.128906 259.484375 L 30.96875 253.820312 L 26.15625 250.316406 L 32.101562 250.316406 Z M 33.941406 244.652344 " clip-rule="nonzero"/></clipPath><clipPath id="7ef4e053e0"><path d="M 0.15625 0.652344 L 15.746094 0.652344 L 15.746094 15.484375 L 0.15625 15.484375 Z M 0.15625 0.652344 " clip-rule="nonzero"/></clipPath><clipPath id="f9f50be3c4"><path d="M 7.941406 0.652344 L 9.777344 6.316406 L 15.722656 6.316406 L 10.910156 9.820312 L 12.75 15.484375 L 7.941406 11.984375 L 3.128906 15.484375 L 4.96875 9.820312 L 0.15625 6.316406 L 6.101562 6.316406 Z M 7.941406 0.652344 " clip-rule="nonzero"/></clipPath><clipPath id="8d6e9331ca"><rect x="0" width="16" y="0" height="16"/></clipPath><clipPath id="7329e8f04c"><path d="M 44.105469 244.652344 L 59.695312 244.652344 L 59.695312 259.484375 L 44.105469 259.484375 Z M 44.105469 244.652344 " clip-rule="nonzero"/></clipPath><clipPath id="6119c5f749"><path d="M 51.886719 244.652344 L 53.726562 250.316406 L 59.671875 250.316406 L 54.859375 253.820312 L 56.699219 259.484375 L 51.886719 255.984375 L 47.078125 259.484375 L 48.917969 253.820312 L 44.105469 250.316406 L 50.050781 250.316406 Z M 51.886719 244.652344 " clip-rule="nonzero"/></clipPath><clipPath id="28c2dcb69b"><path d="M 0.105469 0.652344 L 15.695312 0.652344 L 15.695312 15.484375 L 0.105469 15.484375 Z M 0.105469 0.652344 " clip-rule="nonzero"/></clipPath><clipPath id="9e962e9021"><path d="M 7.886719 0.652344 L 9.726562 6.316406 L 15.671875 6.316406 L 10.859375 9.820312 L 12.699219 15.484375 L 7.886719 11.984375 L 3.078125 15.484375 L 4.917969 9.820312 L 0.105469 6.316406 L 6.050781 6.316406 Z M 7.886719 0.652344 " clip-rule="nonzero"/></clipPath><clipPath id="9890043523"><rect x="0" width="16" y="0" height="16"/></clipPath><clipPath id="84f673e984"><path d="M 62.054688 244.652344 L 77.644531 244.652344 L 77.644531 259.484375 L 62.054688 259.484375 Z M 62.054688 244.652344 " clip-rule="nonzero"/></clipPath><clipPath id="8ca77eb600"><path d="M 69.835938 244.652344 L 71.675781 250.316406 L 77.617188 250.316406 L 72.808594 253.820312 L 74.648438 259.484375 L 69.835938 255.984375 L 65.027344 259.484375 L 66.863281 253.820312 L 62.054688 250.316406 L 68 250.316406 Z M 69.835938 244.652344 " clip-rule="nonzero"/></clipPath><clipPath id="74a6308570"><path d="M 0.0546875 0.652344 L 15.644531 0.652344 L 15.644531 15.484375 L 0.0546875 15.484375 Z M 0.0546875 0.652344 " clip-rule="nonzero"/></clipPath><clipPath id="3a0be09411"><path d="M 7.835938 0.652344 L 9.675781 6.316406 L 15.617188 6.316406 L 10.808594 9.820312 L 12.648438 15.484375 L 7.835938 11.984375 L 3.027344 15.484375 L 4.863281 9.820312 L 0.0546875 6.316406 L 6 6.316406 Z M 7.835938 0.652344 " clip-rule="nonzero"/></clipPath><clipPath id="0237932df3"><rect x="0" width="16" y="0" height="16"/></clipPath><clipPath id="324c23efd0"><path d="M 80.003906 244.652344 L 95.589844 244.652344 L 95.589844 259.484375 L 80.003906 259.484375 Z M 80.003906 244.652344 " clip-rule="nonzero"/></clipPath><clipPath id="1d7e81ef50"><path d="M 87.785156 244.652344 L 89.625 250.316406 L 95.566406 250.316406 L 90.757812 253.820312 L 92.59375 259.484375 L 87.785156 255.984375 L 82.976562 259.484375 L 84.8125 253.820312 L 80.003906 250.316406 L 85.949219 250.316406 Z M 87.785156 244.652344 " clip-rule="nonzero"/></clipPath><clipPath id="8a2680d41c"><path d="M 0.00390625 0.652344 L 15.589844 0.652344 L 15.589844 15.484375 L 0.00390625 15.484375 Z M 0.00390625 0.652344 " clip-rule="nonzero"/></clipPath><clipPath id="1de34804a2"><path d="M 7.785156 0.652344 L 9.625 6.316406 L 15.566406 6.316406 L 10.757812 9.820312 L 12.59375 15.484375 L 7.785156 11.984375 L 2.976562 15.484375 L 4.8125 9.820312 L 0.00390625 6.316406 L 5.949219 6.316406 Z M 7.785156 0.652344 " clip-rule="nonzero"/></clipPath><clipPath id="00e9f57bd5"><rect x="0" width="16" y="0" height="16"/></clipPath><clipPath id="3cb0f4042f"><path d="M 152.390625 14.167969 L 154.015625 14.167969 L 154.015625 15.789062 L 152.390625 15.789062 Z M 152.390625 14.167969 " clip-rule="nonzero"/></clipPath><clipPath id="f85636188e"><path d="M 153.203125 14.167969 C 152.753906 14.167969 152.390625 14.53125 152.390625 14.976562 C 152.390625 15.425781 152.753906 15.789062 153.203125 15.789062 C 153.652344 15.789062 154.015625 15.425781 154.015625 14.976562 C 154.015625 14.53125 153.652344 14.167969 153.203125 14.167969 Z M 153.203125 14.167969 " clip-rule="nonzero"/></clipPath><clipPath id="96c1048934"><path d="M 0.390625 0.167969 L 2.015625 0.167969 L 2.015625 1.789062 L 0.390625 1.789062 Z M 0.390625 0.167969 " clip-rule="nonzero"/></clipPath><clipPath id="b983e7fcce"><path d="M 1.203125 0.167969 C 0.753906 0.167969 0.390625 0.53125 0.390625 0.976562 C 0.390625 1.425781 0.753906 1.789062 1.203125 1.789062 C 1.652344 1.789062 2.015625 1.425781 2.015625 0.976562 C 2.015625 0.53125 1.652344 0.167969 1.203125 0.167969 Z M 1.203125 0.167969 " clip-rule="nonzero"/></clipPath><clipPath id="e75859bb22"><rect x="0" width="3" y="0" height="2"/></clipPath><clipPath id="c60e70e366"><rect x="0" width="62" y="0" height="9"/></clipPath></defs><g clip-path="url(#a2e34ead13)"><g clip-path="url(#d04294dfed)"><g transform="matrix(1, 0, 0, 1, -0.000000000000000056, -0.000000000000023702)"><g clip-path="url(#8d12d87d8c)"><g clip-path="url(#675ea61afc)"><g clip-path="url(#cdeb1eecf6)"><path fill="#151620" d="M 0.25 0 L 188.355469 0 L 188.355469 279.953125 L 0.25 279.953125 Z M 0.25 0 " fill-opacity="1" fill-rule="nonzero"/></g></g></g></g></g></g><g clip-path="url(#c7d8dd5a45)"><g clip-path="url(#1678fd674f)"><path stroke-linecap="butt" transform="matrix(0.748005, 0, 0, 0.748005, 0.25133, 0.0000099734)" fill="none" stroke-linejoin="miter" d="M 251.469122 24.998765 L 251.469122 349.659112 C 251.469122 356.286113 248.831899 362.64678 244.147566 367.336335 C 239.45801 372.020669 233.097343 374.657891 226.470343 374.657891 L 24.997001 374.657891 C 18.370001 374.657891 12.009334 372.020669 7.325 367.336335 C 2.635445 362.64678 0.00344444 356.286113 0.00344444 349.659112 L 0.00344444 24.998765 C 0.00344444 18.366543 2.635445 12.011098 7.325 7.321543 C 12.009334 2.631987 18.370001 -0.0000133333 24.997001 -0.0000133333 L 226.470343 -0.0000133333 C 233.097343 -0.0000133333 239.45801 2.631987 244.147566 7.321543 C 248.831899 12.011098 251.469122 18.366543 251.469122 24.998765 Z M 251.469122 24.998765 " stroke="#ffbd58" stroke-width="26" stroke-opacity="1" stroke-miterlimit="4"/></g></g><g clip-path="url(#d740d560b0)"><g transform="matrix(1, 0, 0, 1, -0.000000000000000056, 30)"><g clip-path="url(#20934ac61d)"><g clip-path="url(#d1066d0851)"><path fill="#ffbd58" d="M 0.25 0.949219 L 185.371094 0.949219 L 185.371094 31.132812 L 0.25 31.132812 Z M 0.25 0.949219 " fill-opacity="1" fill-rule="nonzero"/></g></g></g></g><g clip-path="url(#ae694a46a7)"><g clip-path="url(#abc2197e39)"><g transform="matrix(1, 0, 0, 1, 38, -0.000000000000023703)"><g clip-path="url(#a1dfc07d29)"><g clip-path="url(#e1e0438bd2)"><g clip-path="url(#6937adcf2b)"><path fill="#ffbd58" d="M 0.539062 50.054688 L 0.539062 0.308594 L 56.5 0.308594 L 56.5 50.054688 Z M 0.539062 50.054688 " fill-opacity="1" fill-rule="nonzero"/></g></g></g></g></g></g><g clip-path="url(#c3964fc57a)"><g transform="matrix(1, 0, 0, 1, 81, 5)"><g clip-path="url(#37e38c2359)"><g clip-path="url(#04714affe8)"><path fill="#ffbd58" d="M 0.851562 0.960938 L 103.835938 0.960938 L 103.835938 42.414062 L 0.851562 42.414062 Z M 0.851562 0.960938 " fill-opacity="1" fill-rule="nonzero"/></g></g></g></g><g clip-path="url(#53657153d3)"><g transform="matrix(1, 0, 0, 1, 5, 259)"><g clip-path="url(#cf5b643da8)"><g clip-path="url(#d6727ef655)"><path fill="#ffbd58" d="M 0.707031 0.484375 L 178.195312 0.484375 L 178.195312 15.351562 L 0.707031 15.351562 Z M 0.707031 0.484375 " fill-opacity="1" fill-rule="nonzero"/></g></g></g></g><g clip-path="url(#9ee7692ee4)"><g transform="matrix(1, 0, 0, 1, 3, 236)"><g clip-path="url(#66dfbe770c)"><g clip-path="url(#0c5b2f5738)"><path fill="#ffbd58" d="M 0.230469 0.222656 L 89.203125 0.222656 L 89.203125 27.667969 L 0.230469 27.667969 Z M 0.230469 0.222656 " fill-opacity="1" fill-rule="nonzero"/></g></g></g></g><g clip-path="url(#4ed7f15e49)"><g clip-path="url(#b4ddd3f71e)"><g transform="matrix(1, 0, 0, 1, 91, 236)"><g clip-path="url(#594b504d1a)"><g clip-path="url(#bdfb0a6d67)"><g clip-path="url(#ad0b1d6603)"><path fill="#ffbd58" d="M 0.695312 0.222656 L 47.101562 0.222656 L 47.101562 36.117188 L 0.695312 36.117188 Z M 0.695312 0.222656 " fill-opacity="1" fill-rule="nonzero"/></g></g></g></g></g></g><g clip-path="url(#ba95f513b0)"><g clip-path="url(#f70c58a6a4)"><g transform="matrix(1, 0, 0, 1, 8, 244)"><g clip-path="url(#86ec65eeaf)"><g clip-path="url(#63198c8e67)"><g clip-path="url(#305aeb5c67)"><path fill="#151620" d="M 0.210938 0.652344 L 15.796875 0.652344 L 15.796875 15.484375 L 0.210938 15.484375 Z M 0.210938 0.652344 " fill-opacity="1" fill-rule="nonzero"/></g></g></g></g></g></g><g clip-path="url(#de763a7020)"><g clip-path="url(#612de54fd6)"><g transform="matrix(1, 0, 0, 1, 26, 244)"><g clip-path="url(#8d6e9331ca)"><g clip-path="url(#7ef4e053e0)"><g clip-path="url(#f9f50be3c4)"><path fill="#151620" d="M 0.15625 0.652344 L 15.746094 0.652344 L 15.746094 15.484375 L 0.15625 15.484375 Z M 0.15625 0.652344 " fill-opacity="1" fill-rule="nonzero"/></g></g></g></g></g></g><g clip-path="url(#7329e8f04c)"><g clip-path="url(#6119c5f749)"><g transform="matrix(1, 0, 0, 1, 44, 244)"><g clip-path="url(#9890043523)"><g clip-path="url(#28c2dcb69b)"><g clip-path="url(#9e962e9021)"><path fill="#151620" d="M 0.105469 0.652344 L 15.695312 0.652344 L 15.695312 15.484375 L 0.105469 15.484375 Z M 0.105469 0.652344 " fill-opacity="1" fill-rule="nonzero"/></g></g></g></g></g></g><g clip-path="url(#84f673e984)"><g clip-path="url(#8ca77eb600)"><g transform="matrix(1, 0, 0, 1, 62, 244)"><g clip-path="url(#0237932df3)"><g clip-path="url(#74a6308570)"><g clip-path="url(#3a0be09411)"><path fill="#151620" d="M 0.0546875 0.652344 L 15.644531 0.652344 L 15.644531 15.484375 L 0.0546875 15.484375 Z M 0.0546875 0.652344 " fill-opacity="1" fill-rule="nonzero"/></g></g></g></g></g></g><g clip-path="url(#324c23efd0)"><g clip-path="url(#1d7e81ef50)"><g transform="matrix(1, 0, 0, 1, 80, 244)"><g clip-path="url(#00e9f57bd5)"><g clip-path="url(#8a2680d41c)"><g clip-path="url(#1de34804a2)"><path fill="#e4a74b" d="M 0.00390625 0.652344 L 15.589844 0.652344 L 15.589844 15.484375 L 0.00390625 15.484375 Z M 0.00390625 0.652344 " fill-opacity="1" fill-rule="nonzero"/></g></g></g></g></g></g><g clip-path="url(#3cb0f4042f)"><g clip-path="url(#f85636188e)"><g transform="matrix(1, 0, 0, 1, 152, 14)"><g clip-path="url(#e75859bb22)"><g clip-path="url(#96c1048934)"><g clip-path="url(#b983e7fcce)"><path fill="#222a35" d="M 0.390625 0.167969 L 2.015625 0.167969 L 2.015625 1.789062 L 0.390625 1.789062 Z M 0.390625 0.167969 " fill-opacity="1" fill-rule="nonzero"/></g></g></g></g></g></g><g transform="matrix(1, 0, 0, 1, 10, 264)"><g clip-path="url(#c60e70e366)"><g fill="#0d1623" fill-opacity="1"><g transform="translate(0.932104, 6.719014)"><g><path d="M 0.34375 0 L 0.34375 -4.359375 L 1.375 -4.359375 L 1.375 -0.84375 L 3.203125 -0.84375 L 3.203125 0 Z M 0.34375 0 "/></g></g></g><g fill="#0d1623" fill-opacity="1"><g transform="translate(6.940311, 6.719014)"><g><path d="M 0.34375 0 L 0.34375 -4.359375 L 3.375 -4.359375 L 3.375 -3.515625 L 1.375 -3.515625 L 1.375 -2.625 L 3.21875 -2.625 L 3.21875 -1.796875 L 1.375 -1.796875 L 1.375 -0.84375 L 3.359375 -0.84375 L 3.359375 0 Z M 0.34375 0 "/></g></g></g><g fill="#0d1623" fill-opacity="1"><g transform="translate(13.214837, 6.719014)"><g><path d="M 2.328125 0.0625 C 1.921875 0.0625 1.554688 -0.0234375 1.234375 -0.203125 C 0.921875 -0.390625 0.675781 -0.648438 0.5 -0.984375 C 0.320312 -1.316406 0.234375 -1.710938 0.234375 -2.171875 C 0.234375 -2.648438 0.328125 -3.054688 0.515625 -3.390625 C 0.703125 -3.722656 0.953125 -3.976562 1.265625 -4.15625 C 1.578125 -4.332031 1.929688 -4.421875 2.328125 -4.421875 C 2.660156 -4.421875 2.960938 -4.359375 3.234375 -4.234375 C 3.503906 -4.109375 3.722656 -3.929688 3.890625 -3.703125 C 4.066406 -3.484375 4.171875 -3.226562 4.203125 -2.9375 L 3.171875 -2.9375 C 3.117188 -3.125 3.019531 -3.265625 2.875 -3.359375 C 2.738281 -3.460938 2.5625 -3.515625 2.34375 -3.515625 C 2.019531 -3.515625 1.765625 -3.398438 1.578125 -3.171875 C 1.390625 -2.941406 1.296875 -2.613281 1.296875 -2.1875 C 1.296875 -1.757812 1.382812 -1.425781 1.5625 -1.1875 C 1.75 -0.957031 2.007812 -0.84375 2.34375 -0.84375 C 2.632812 -0.84375 2.859375 -0.910156 3.015625 -1.046875 C 3.171875 -1.191406 3.253906 -1.382812 3.265625 -1.625 L 2.390625 -1.625 L 2.390625 -2.375 L 4.25 -2.375 L 4.25 -1.8125 C 4.25 -1.414062 4.164062 -1.078125 4 -0.796875 C 3.84375 -0.523438 3.617188 -0.3125 3.328125 -0.15625 C 3.035156 -0.0078125 2.703125 0.0625 2.328125 0.0625 Z M 2.328125 0.0625 "/></g></g></g><g fill="#0d1623" fill-opacity="1"><g transform="translate(20.343927, 6.719014)"><g><path d="M 0.34375 0 L 0.34375 -4.359375 L 3.375 -4.359375 L 3.375 -3.515625 L 1.375 -3.515625 L 1.375 -2.625 L 3.21875 -2.625 L 3.21875 -1.796875 L 1.375 -1.796875 L 1.375 -0.84375 L 3.359375 -0.84375 L 3.359375 0 Z M 0.34375 0 "/></g></g></g><g fill="#0d1623" fill-opacity="1"><g transform="translate(26.618453, 6.719014)"><g><path d="M 0.34375 0 L 0.34375 -4.359375 L 1.484375 -4.359375 L 2.703125 -2.390625 C 2.796875 -2.234375 2.890625 -2.066406 2.984375 -1.890625 C 3.078125 -1.710938 3.164062 -1.503906 3.25 -1.265625 C 3.238281 -1.484375 3.222656 -1.707031 3.203125 -1.9375 C 3.191406 -2.164062 3.1875 -2.359375 3.1875 -2.515625 L 3.1875 -4.359375 L 4.25 -4.359375 L 4.25 0 L 3.109375 0 L 2 -1.8125 C 1.914062 -1.945312 1.835938 -2.078125 1.765625 -2.203125 C 1.691406 -2.335938 1.617188 -2.472656 1.546875 -2.609375 C 1.484375 -2.742188 1.414062 -2.898438 1.34375 -3.078125 C 1.351562 -2.816406 1.363281 -2.570312 1.375 -2.34375 C 1.394531 -2.125 1.40625 -1.945312 1.40625 -1.8125 L 1.40625 0 Z M 0.34375 0 "/></g></g></g><g fill="#0d1623" fill-opacity="1"><g transform="translate(33.826561, 6.719014)"><g><path d="M 1.953125 0 L 0.34375 0 L 0.34375 -4.359375 L 1.953125 -4.359375 C 2.390625 -4.359375 2.769531 -4.269531 3.09375 -4.09375 C 3.414062 -3.925781 3.660156 -3.675781 3.828125 -3.34375 C 4.003906 -3.019531 4.09375 -2.632812 4.09375 -2.1875 C 4.09375 -1.726562 4.003906 -1.335938 3.828125 -1.015625 C 3.660156 -0.691406 3.414062 -0.441406 3.09375 -0.265625 C 2.769531 -0.0859375 2.390625 0 1.953125 0 Z M 1.375 -0.890625 L 1.90625 -0.890625 C 2.28125 -0.890625 2.566406 -0.984375 2.765625 -1.171875 C 2.960938 -1.367188 3.0625 -1.707031 3.0625 -2.1875 C 3.0625 -2.65625 2.960938 -2.988281 2.765625 -3.1875 C 2.566406 -3.382812 2.273438 -3.484375 1.890625 -3.484375 L 1.375 -3.484375 Z M 1.375 -0.890625 "/></g></g></g><g fill="#0d1623" fill-opacity="1"><g transform="translate(40.504956, 6.719014)"><g><path d="M 0.140625 0 L 1.59375 -4.359375 L 2.984375 -4.359375 L 4.484375 0 L 3.3125 0 L 3.03125 -0.921875 L 1.578125 -0.921875 L 1.28125 0 Z M 1.8125 -1.71875 L 2.765625 -1.71875 L 2.71875 -1.90625 C 2.632812 -2.15625 2.554688 -2.414062 2.484375 -2.6875 C 2.410156 -2.96875 2.34375 -3.253906 2.28125 -3.546875 C 2.207031 -3.242188 2.140625 -2.957031 2.078125 -2.6875 C 2.015625 -2.414062 1.945312 -2.15625 1.875 -1.90625 Z M 1.8125 -1.71875 "/></g></g></g><g fill="#0d1623" fill-opacity="1"><g transform="translate(47.736476, 6.719014)"><g><path d="M 0.34375 0 L 0.34375 -4.359375 L 2.125 -4.359375 C 2.613281 -4.359375 3 -4.226562 3.28125 -3.96875 C 3.570312 -3.707031 3.71875 -3.359375 3.71875 -2.921875 C 3.71875 -2.617188 3.648438 -2.359375 3.515625 -2.140625 C 3.390625 -1.929688 3.203125 -1.773438 2.953125 -1.671875 L 3.875 0 L 2.734375 0 L 1.9375 -1.5 L 1.375 -1.5 L 1.375 0 Z M 1.375 -2.328125 L 1.90625 -2.328125 C 2.394531 -2.328125 2.640625 -2.523438 2.640625 -2.921875 C 2.640625 -3.328125 2.394531 -3.53125 1.90625 -3.53125 L 1.375 -3.53125 Z M 1.375 -2.328125 "/></g></g></g><g fill="#0d1623" fill-opacity="1"><g transform="translate(54.136846, 6.719014)"><g><path d="M 1.765625 0 L 1.765625 -1.578125 L 0.140625 -4.359375 L 1.34375 -4.359375 L 2.03125 -3.03125 C 2.125 -2.851562 2.207031 -2.664062 2.28125 -2.46875 C 2.34375 -2.664062 2.421875 -2.851562 2.515625 -3.03125 L 3.171875 -4.359375 L 4.375 -4.359375 L 2.796875 -1.578125 L 2.796875 0 Z M 1.765625 0 "/></g></g></g></g></g></svg>