<svg xmlns="http://www.w3.org/2000/svg" xmlns:xlink="http://www.w3.org/1999/xlink" width="252" zoomAndPan="magnify" viewBox="0 0 189 281.25" height="375" preserveAspectRatio="xMidYMid meet" version="1.0"><defs><g/><clipPath id="405c7743dd"><path d="M 0.25 0 L 188.355469 0 L 188.355469 280.503906 L 0.25 280.503906 Z M 0.25 0 " clip-rule="nonzero"/></clipPath><clipPath id="6884503acb"><path d="M 188.355469 18.699219 L 188.355469 261.554688 C 188.355469 266.515625 186.386719 271.269531 182.878906 274.777344 C 179.371094 278.285156 174.617188 280.253906 169.65625 280.253906 L 18.949219 280.253906 C 13.992188 280.253906 9.234375 278.285156 5.726562 274.777344 C 2.222656 271.269531 0.25 266.515625 0.25 261.554688 L 0.25 18.699219 C 0.25 13.738281 2.222656 8.984375 5.726562 5.476562 C 9.234375 1.96875 13.992188 0 18.949219 0 L 169.65625 0 C 174.617188 0 179.371094 1.96875 182.878906 5.476562 C 186.386719 8.984375 188.355469 13.738281 188.355469 18.699219 Z M 188.355469 18.699219 " clip-rule="nonzero"/></clipPath><clipPath id="ab9bded080"><path d="M 0.25 0 L 188.355469 0 L 188.355469 280 L 0.25 280 Z M 0.25 0 " clip-rule="nonzero"/></clipPath><clipPath id="ba9531fb81"><path d="M 188.355469 18.699219 L 188.355469 261.554688 C 188.355469 266.515625 186.386719 271.269531 182.878906 274.777344 C 179.371094 278.285156 174.617188 280.253906 169.65625 280.253906 L 18.949219 280.253906 C 13.992188 280.253906 9.234375 278.285156 5.726562 274.777344 C 2.222656 271.269531 0.25 266.515625 0.25 261.554688 L 0.25 18.699219 C 0.25 13.738281 2.222656 8.984375 5.726562 5.476562 C 9.234375 1.96875 13.992188 0 18.949219 0 L 169.65625 0 C 174.617188 0 179.371094 1.96875 182.878906 5.476562 C 186.386719 8.984375 188.355469 13.738281 188.355469 18.699219 Z M 188.355469 18.699219 " clip-rule="nonzero"/></clipPath><clipPath id="9c68ff7862"><rect x="0" width="189" y="0" height="281"/></clipPath><clipPath id="5fb28cff47"><path d="M 0.253906 0 L 188 0 L 188 280.246094 L 0.253906 280.246094 Z M 0.253906 0 " clip-rule="nonzero"/></clipPath><clipPath id="d63b44e8f0"><path d="M 188.351562 18.699219 L 188.351562 261.546875 C 188.351562 266.503906 186.378906 271.261719 182.875 274.769531 C 179.367188 278.273438 174.609375 280.246094 169.652344 280.246094 L 18.949219 280.246094 C 13.992188 280.246094 9.234375 278.273438 5.730469 274.769531 C 2.222656 271.261719 0.253906 266.503906 0.253906 261.546875 L 0.253906 18.699219 C 0.253906 13.738281 2.222656 8.984375 5.730469 5.476562 C 9.234375 1.96875 13.992188 0 18.949219 0 L 169.652344 0 C 174.609375 0 179.367188 1.96875 182.875 5.476562 C 186.378906 8.984375 188.351562 13.738281 188.351562 18.699219 Z M 188.351562 18.699219 " clip-rule="nonzero"/></clipPath><clipPath id="6a457a17ac"><path d="M 0.25 30.949219 L 185.382812 30.949219 L 185.382812 61.132812 L 0.25 61.132812 Z M 0.25 30.949219 " clip-rule="nonzero"/></clipPath><clipPath id="fc75f2b782"><path d="M 0.25 0.949219 L 185.382812 0.949219 L 185.382812 31.132812 L 0.25 31.132812 Z M 0.25 0.949219 " clip-rule="nonzero"/></clipPath><clipPath id="23a3cfddbf"><rect x="0" width="186" y="0" height="32"/></clipPath><clipPath id="d051c1520c"><path d="M 38.539062 0.308594 L 94.5 0.308594 L 94.5 50.054688 L 38.539062 50.054688 Z M 38.539062 0.308594 " clip-rule="nonzero"/></clipPath><clipPath id="b17f3bb792"><path d="M 94.445312 0.308594 L 94.445312 50.054688 L 38.539062 50.054688 Z M 94.445312 0.308594 " clip-rule="nonzero"/></clipPath><clipPath id="143b908d1e"><path d="M 0.539062 0.308594 L 56.5 0.308594 L 56.5 50.054688 L 0.539062 50.054688 Z M 0.539062 0.308594 " clip-rule="nonzero"/></clipPath><clipPath id="0d488cbb9e"><path d="M 56.445312 0.308594 L 56.445312 50.054688 L 0.539062 50.054688 Z M 56.445312 0.308594 " clip-rule="nonzero"/></clipPath><clipPath id="4bf8f099b7"><rect x="0" width="57" y="0" height="51"/></clipPath><clipPath id="0516e51adc"><path d="M 81.851562 5.960938 L 184.867188 5.960938 L 184.867188 47.414062 L 81.851562 47.414062 Z M 81.851562 5.960938 " clip-rule="nonzero"/></clipPath><clipPath id="f7132aedb9"><path d="M 0.851562 0.960938 L 103.867188 0.960938 L 103.867188 42.414062 L 0.851562 42.414062 Z M 0.851562 0.960938 " clip-rule="nonzero"/></clipPath><clipPath id="1e63517dca"><rect x="0" width="104" y="0" height="43"/></clipPath><clipPath id="3a12e016f1"><path d="M 5.707031 259.484375 L 183.183594 259.484375 L 183.183594 274.351562 L 5.707031 274.351562 Z M 5.707031 259.484375 " clip-rule="nonzero"/></clipPath><clipPath id="c0be49a063"><path d="M 0.707031 0.484375 L 178.183594 0.484375 L 178.183594 15.351562 L 0.707031 15.351562 Z M 0.707031 0.484375 " clip-rule="nonzero"/></clipPath><clipPath id="b67e51cfea"><rect x="0" width="179" y="0" height="16"/></clipPath><clipPath id="f0bcda1273"><path d="M 3.230469 236.222656 L 92.257812 236.222656 L 92.257812 263.667969 L 3.230469 263.667969 Z M 3.230469 236.222656 " clip-rule="nonzero"/></clipPath><clipPath id="6f2a06a149"><path d="M 0.230469 0.222656 L 89.257812 0.222656 L 89.257812 27.667969 L 0.230469 27.667969 Z M 0.230469 0.222656 " clip-rule="nonzero"/></clipPath><clipPath id="f580361231"><rect x="0" width="90" y="0" height="28"/></clipPath><clipPath id="4fb17c1169"><path d="M 91.695312 236.222656 L 138.101562 236.222656 L 138.101562 272.117188 L 91.695312 272.117188 Z M 91.695312 236.222656 " clip-rule="nonzero"/></clipPath><clipPath id="d9eff1bcc8"><path d="M 138.042969 272.117188 L 91.695312 272.117188 L 91.695312 236.222656 Z M 138.042969 272.117188 " clip-rule="nonzero"/></clipPath><clipPath id="7c9168c23b"><path d="M 0.695312 0.222656 L 47.101562 0.222656 L 47.101562 36.117188 L 0.695312 36.117188 Z M 0.695312 0.222656 " clip-rule="nonzero"/></clipPath><clipPath id="56e1229f5b"><path d="M 47.042969 36.117188 L 0.695312 36.117188 L 0.695312 0.222656 Z M 47.042969 36.117188 " clip-rule="nonzero"/></clipPath><clipPath id="5b05e3ba4c"><rect x="0" width="48" y="0" height="37"/></clipPath><clipPath id="1fb8b6a121"><path d="M 8.210938 244.652344 L 23.796875 244.652344 L 23.796875 259.484375 L 8.210938 259.484375 Z M 8.210938 244.652344 " clip-rule="nonzero"/></clipPath><clipPath id="4f845d5727"><path d="M 15.992188 244.652344 L 17.828125 250.316406 L 23.773438 250.316406 L 18.964844 253.820312 L 20.800781 259.484375 L 15.992188 255.984375 L 11.179688 259.484375 L 13.019531 253.820312 L 8.210938 250.316406 L 14.152344 250.316406 Z M 15.992188 244.652344 " clip-rule="nonzero"/></clipPath><clipPath id="bd05172721"><path d="M 0.210938 0.652344 L 15.796875 0.652344 L 15.796875 15.484375 L 0.210938 15.484375 Z M 0.210938 0.652344 " clip-rule="nonzero"/></clipPath><clipPath id="5b6fdae181"><path d="M 7.992188 0.652344 L 9.828125 6.316406 L 15.773438 6.316406 L 10.964844 9.820312 L 12.800781 15.484375 L 7.992188 11.984375 L 3.179688 15.484375 L 5.019531 9.820312 L 0.210938 6.316406 L 6.152344 6.316406 Z M 7.992188 0.652344 " clip-rule="nonzero"/></clipPath><clipPath id="360f31396d"><rect x="0" width="16" y="0" height="16"/></clipPath><clipPath id="37f930dd55"><path d="M 26.15625 244.652344 L 41.746094 244.652344 L 41.746094 259.484375 L 26.15625 259.484375 Z M 26.15625 244.652344 " clip-rule="nonzero"/></clipPath><clipPath id="c34f768166"><path d="M 33.941406 244.652344 L 35.777344 250.316406 L 41.722656 250.316406 L 36.910156 253.820312 L 38.75 259.484375 L 33.941406 255.984375 L 29.128906 259.484375 L 30.96875 253.820312 L 26.15625 250.316406 L 32.101562 250.316406 Z M 33.941406 244.652344 " clip-rule="nonzero"/></clipPath><clipPath id="5905f0572a"><path d="M 0.15625 0.652344 L 15.746094 0.652344 L 15.746094 15.484375 L 0.15625 15.484375 Z M 0.15625 0.652344 " clip-rule="nonzero"/></clipPath><clipPath id="8bdbdb334b"><path d="M 7.941406 0.652344 L 9.777344 6.316406 L 15.722656 6.316406 L 10.910156 9.820312 L 12.75 15.484375 L 7.941406 11.984375 L 3.128906 15.484375 L 4.96875 9.820312 L 0.15625 6.316406 L 6.101562 6.316406 Z M 7.941406 0.652344 " clip-rule="nonzero"/></clipPath><clipPath id="044eb2a1b2"><rect x="0" width="16" y="0" height="16"/></clipPath><clipPath id="b8b190a0ac"><path d="M 44.105469 244.652344 L 59.695312 244.652344 L 59.695312 259.484375 L 44.105469 259.484375 Z M 44.105469 244.652344 " clip-rule="nonzero"/></clipPath><clipPath id="830b8ef4e1"><path d="M 51.886719 244.652344 L 53.726562 250.316406 L 59.671875 250.316406 L 54.859375 253.820312 L 56.699219 259.484375 L 51.886719 255.984375 L 47.078125 259.484375 L 48.917969 253.820312 L 44.105469 250.316406 L 50.050781 250.316406 Z M 51.886719 244.652344 " clip-rule="nonzero"/></clipPath><clipPath id="0ccf35651d"><path d="M 0.105469 0.652344 L 15.695312 0.652344 L 15.695312 15.484375 L 0.105469 15.484375 Z M 0.105469 0.652344 " clip-rule="nonzero"/></clipPath><clipPath id="b770d53179"><path d="M 7.886719 0.652344 L 9.726562 6.316406 L 15.671875 6.316406 L 10.859375 9.820312 L 12.699219 15.484375 L 7.886719 11.984375 L 3.078125 15.484375 L 4.917969 9.820312 L 0.105469 6.316406 L 6.050781 6.316406 Z M 7.886719 0.652344 " clip-rule="nonzero"/></clipPath><clipPath id="e1617b1d4f"><rect x="0" width="16" y="0" height="16"/></clipPath><clipPath id="b8e4ce4d30"><path d="M 62.054688 244.652344 L 77.644531 244.652344 L 77.644531 259.484375 L 62.054688 259.484375 Z M 62.054688 244.652344 " clip-rule="nonzero"/></clipPath><clipPath id="573f954cf2"><path d="M 69.835938 244.652344 L 71.675781 250.316406 L 77.617188 250.316406 L 72.808594 253.820312 L 74.648438 259.484375 L 69.835938 255.984375 L 65.027344 259.484375 L 66.863281 253.820312 L 62.054688 250.316406 L 68 250.316406 Z M 69.835938 244.652344 " clip-rule="nonzero"/></clipPath><clipPath id="6fc1a82350"><path d="M 0.0546875 0.652344 L 15.644531 0.652344 L 15.644531 15.484375 L 0.0546875 15.484375 Z M 0.0546875 0.652344 " clip-rule="nonzero"/></clipPath><clipPath id="4ea8bb5bc5"><path d="M 7.835938 0.652344 L 9.675781 6.316406 L 15.617188 6.316406 L 10.808594 9.820312 L 12.648438 15.484375 L 7.835938 11.984375 L 3.027344 15.484375 L 4.863281 9.820312 L 0.0546875 6.316406 L 6 6.316406 Z M 7.835938 0.652344 " clip-rule="nonzero"/></clipPath><clipPath id="89051398c9"><rect x="0" width="16" y="0" height="16"/></clipPath><clipPath id="02e79c9796"><path d="M 80.003906 244.652344 L 95.589844 244.652344 L 95.589844 259.484375 L 80.003906 259.484375 Z M 80.003906 244.652344 " clip-rule="nonzero"/></clipPath><clipPath id="1bb3dcfa50"><path d="M 87.785156 244.652344 L 89.625 250.316406 L 95.566406 250.316406 L 90.757812 253.820312 L 92.59375 259.484375 L 87.785156 255.984375 L 82.976562 259.484375 L 84.8125 253.820312 L 80.003906 250.316406 L 85.949219 250.316406 Z M 87.785156 244.652344 " clip-rule="nonzero"/></clipPath><clipPath id="1d5a1f4717"><path d="M 0.00390625 0.652344 L 15.589844 0.652344 L 15.589844 15.484375 L 0.00390625 15.484375 Z M 0.00390625 0.652344 " clip-rule="nonzero"/></clipPath><clipPath id="d7a5d0cb1e"><path d="M 7.785156 0.652344 L 9.625 6.316406 L 15.566406 6.316406 L 10.757812 9.820312 L 12.59375 15.484375 L 7.785156 11.984375 L 2.976562 15.484375 L 4.8125 9.820312 L 0.00390625 6.316406 L 5.949219 6.316406 Z M 7.785156 0.652344 " clip-rule="nonzero"/></clipPath><clipPath id="5768b631a3"><rect x="0" width="16" y="0" height="16"/></clipPath><clipPath id="e807f15892"><path d="M 152.390625 14.167969 L 154.015625 14.167969 L 154.015625 15.789062 L 152.390625 15.789062 Z M 152.390625 14.167969 " clip-rule="nonzero"/></clipPath><clipPath id="3ae62a2237"><path d="M 153.203125 14.167969 C 152.753906 14.167969 152.390625 14.53125 152.390625 14.976562 C 152.390625 15.425781 152.753906 15.789062 153.203125 15.789062 C 153.652344 15.789062 154.015625 15.425781 154.015625 14.976562 C 154.015625 14.53125 153.652344 14.167969 153.203125 14.167969 Z M 153.203125 14.167969 " clip-rule="nonzero"/></clipPath><clipPath id="961537b513"><path d="M 0.390625 0.167969 L 2.015625 0.167969 L 2.015625 1.789062 L 0.390625 1.789062 Z M 0.390625 0.167969 " clip-rule="nonzero"/></clipPath><clipPath id="2ac919c18c"><path d="M 1.203125 0.167969 C 0.753906 0.167969 0.390625 0.53125 0.390625 0.976562 C 0.390625 1.425781 0.753906 1.789062 1.203125 1.789062 C 1.652344 1.789062 2.015625 1.425781 2.015625 0.976562 C 2.015625 0.53125 1.652344 0.167969 1.203125 0.167969 Z M 1.203125 0.167969 " clip-rule="nonzero"/></clipPath><clipPath id="713e054ed4"><rect x="0" width="3" y="0" height="2"/></clipPath><clipPath id="e2f5cbdae8"><rect x="0" width="47" y="0" height="9"/></clipPath></defs><g clip-path="url(#405c7743dd)"><g clip-path="url(#6884503acb)"><g transform="matrix(1, 0, 0, 1, -0.000000000000000056, -0.000000000000023702)"><g clip-path="url(#9c68ff7862)"><g clip-path="url(#ab9bded080)"><g clip-path="url(#ba9531fb81)"><path fill="#151620" d="M 0.25 0 L 188.355469 0 L 188.355469 279.953125 L 0.25 279.953125 Z M 0.25 0 " fill-opacity="1" fill-rule="nonzero"/></g></g></g></g></g></g><g clip-path="url(#5fb28cff47)"><g clip-path="url(#d63b44e8f0)"><path stroke-linecap="butt" transform="matrix(0.748005, 0, 0, 0.748005, 0.25133, 0.0000099734)" fill="none" stroke-linejoin="miter" d="M 251.469122 24.998765 L 251.469122 349.659112 C 251.469122 356.286113 248.831899 362.64678 244.147566 367.336335 C 239.45801 372.020669 233.097343 374.657891 226.470343 374.657891 L 24.997001 374.657891 C 18.370001 374.657891 12.009334 372.020669 7.325 367.336335 C 2.635445 362.64678 0.00344444 356.286113 0.00344444 349.659112 L 0.00344444 24.998765 C 0.00344444 18.366543 2.635445 12.011098 7.325 7.321543 C 12.009334 2.631987 18.370001 -0.0000133333 24.997001 -0.0000133333 L 226.470343 -0.0000133333 C 233.097343 -0.0000133333 239.45801 2.631987 244.147566 7.321543 C 248.831899 12.011098 251.469122 18.366543 251.469122 24.998765 Z M 251.469122 24.998765 " stroke="#8c8c8c" stroke-width="26" stroke-opacity="1" stroke-miterlimit="4"/></g></g><g clip-path="url(#6a457a17ac)"><g transform="matrix(1, 0, 0, 1, -0.000000000000000056, 30)"><g clip-path="url(#23a3cfddbf)"><g clip-path="url(#fc75f2b782)"><path fill="#8b8b8b" d="M 0.25 0.949219 L 185.371094 0.949219 L 185.371094 31.132812 L 0.25 31.132812 Z M 0.25 0.949219 " fill-opacity="1" fill-rule="nonzero"/></g></g></g></g><g clip-path="url(#d051c1520c)"><g clip-path="url(#b17f3bb792)"><g transform="matrix(1, 0, 0, 1, 38, -0.000000000000023703)"><g clip-path="url(#4bf8f099b7)"><g clip-path="url(#143b908d1e)"><g clip-path="url(#0d488cbb9e)"><path fill="#8b8b8b" d="M 0.539062 50.054688 L 0.539062 0.308594 L 56.5 0.308594 L 56.5 50.054688 Z M 0.539062 50.054688 " fill-opacity="1" fill-rule="nonzero"/></g></g></g></g></g></g><g clip-path="url(#0516e51adc)"><g transform="matrix(1, 0, 0, 1, 81, 5)"><g clip-path="url(#1e63517dca)"><g clip-path="url(#f7132aedb9)"><path fill="#8b8b8b" d="M 0.851562 0.960938 L 103.835938 0.960938 L 103.835938 42.414062 L 0.851562 42.414062 Z M 0.851562 0.960938 " fill-opacity="1" fill-rule="nonzero"/></g></g></g></g><g clip-path="url(#3a12e016f1)"><g transform="matrix(1, 0, 0, 1, 5, 259)"><g clip-path="url(#b67e51cfea)"><g clip-path="url(#c0be49a063)"><path fill="#8b8b8b" d="M 0.707031 0.484375 L 178.195312 0.484375 L 178.195312 15.351562 L 0.707031 15.351562 Z M 0.707031 0.484375 " fill-opacity="1" fill-rule="nonzero"/></g></g></g></g><g clip-path="url(#f0bcda1273)"><g transform="matrix(1, 0, 0, 1, 3, 236)"><g clip-path="url(#f580361231)"><g clip-path="url(#6f2a06a149)"><path fill="#8b8b8b" d="M 0.230469 0.222656 L 89.203125 0.222656 L 89.203125 27.667969 L 0.230469 27.667969 Z M 0.230469 0.222656 " fill-opacity="1" fill-rule="nonzero"/></g></g></g></g><g clip-path="url(#4fb17c1169)"><g clip-path="url(#d9eff1bcc8)"><g transform="matrix(1, 0, 0, 1, 91, 236)"><g clip-path="url(#5b05e3ba4c)"><g clip-path="url(#7c9168c23b)"><g clip-path="url(#56e1229f5b)"><path fill="#8b8b8b" d="M 0.695312 0.222656 L 47.101562 0.222656 L 47.101562 36.117188 L 0.695312 36.117188 Z M 0.695312 0.222656 " fill-opacity="1" fill-rule="nonzero"/></g></g></g></g></g></g><g clip-path="url(#1fb8b6a121)"><g clip-path="url(#4f845d5727)"><g transform="matrix(1, 0, 0, 1, 8, 244)"><g clip-path="url(#360f31396d)"><g clip-path="url(#bd05172721)"><g clip-path="url(#5b6fdae181)"><path fill="#747474" d="M 0.210938 0.652344 L 15.796875 0.652344 L 15.796875 15.484375 L 0.210938 15.484375 Z M 0.210938 0.652344 " fill-opacity="1" fill-rule="nonzero"/></g></g></g></g></g></g><g clip-path="url(#37f930dd55)"><g clip-path="url(#c34f768166)"><g transform="matrix(1, 0, 0, 1, 26, 244)"><g clip-path="url(#044eb2a1b2)"><g clip-path="url(#5905f0572a)"><g clip-path="url(#8bdbdb334b)"><path fill="#747474" d="M 0.15625 0.652344 L 15.746094 0.652344 L 15.746094 15.484375 L 0.15625 15.484375 Z M 0.15625 0.652344 " fill-opacity="1" fill-rule="nonzero"/></g></g></g></g></g></g><g clip-path="url(#b8b190a0ac)"><g clip-path="url(#830b8ef4e1)"><g transform="matrix(1, 0, 0, 1, 44, 244)"><g clip-path="url(#e1617b1d4f)"><g clip-path="url(#0ccf35651d)"><g clip-path="url(#b770d53179)"><path fill="#747474" d="M 0.105469 0.652344 L 15.695312 0.652344 L 15.695312 15.484375 L 0.105469 15.484375 Z M 0.105469 0.652344 " fill-opacity="1" fill-rule="nonzero"/></g></g></g></g></g></g><g clip-path="url(#b8e4ce4d30)"><g clip-path="url(#573f954cf2)"><g transform="matrix(1, 0, 0, 1, 62, 244)"><g clip-path="url(#89051398c9)"><g clip-path="url(#6fc1a82350)"><g clip-path="url(#4ea8bb5bc5)"><path fill="#747474" d="M 0.0546875 0.652344 L 15.644531 0.652344 L 15.644531 15.484375 L 0.0546875 15.484375 Z M 0.0546875 0.652344 " fill-opacity="1" fill-rule="nonzero"/></g></g></g></g></g></g><g clip-path="url(#02e79c9796)"><g clip-path="url(#1bb3dcfa50)"><g transform="matrix(1, 0, 0, 1, 80, 244)"><g clip-path="url(#5768b631a3)"><g clip-path="url(#1d5a1f4717)"><g clip-path="url(#d7a5d0cb1e)"><path fill="#747474" d="M 0.00390625 0.652344 L 15.589844 0.652344 L 15.589844 15.484375 L 0.00390625 15.484375 Z M 0.00390625 0.652344 " fill-opacity="1" fill-rule="nonzero"/></g></g></g></g></g></g><g clip-path="url(#e807f15892)"><g clip-path="url(#3ae62a2237)"><g transform="matrix(1, 0, 0, 1, 152, 14)"><g clip-path="url(#713e054ed4)"><g clip-path="url(#961537b513)"><g clip-path="url(#2ac919c18c)"><path fill="#222a35" d="M 0.390625 0.167969 L 2.015625 0.167969 L 2.015625 1.789062 L 0.390625 1.789062 Z M 0.390625 0.167969 " fill-opacity="1" fill-rule="nonzero"/></g></g></g></g></g></g><g transform="matrix(1, 0, 0, 1, 10, 264)"><g clip-path="url(#e2f5cbdae8)"><g fill="#0d1623" fill-opacity="1"><g transform="translate(0.932104, 6.719014)"><g><path d="M 2.3125 0.0625 C 1.914062 0.0625 1.5625 -0.0234375 1.25 -0.203125 C 0.9375 -0.378906 0.6875 -0.632812 0.5 -0.96875 C 0.320312 -1.300781 0.234375 -1.707031 0.234375 -2.1875 C 0.234375 -2.664062 0.320312 -3.070312 0.5 -3.40625 C 0.6875 -3.738281 0.9375 -3.988281 1.25 -4.15625 C 1.5625 -4.332031 1.914062 -4.421875 2.3125 -4.421875 C 2.65625 -4.421875 2.960938 -4.359375 3.234375 -4.234375 C 3.515625 -4.109375 3.738281 -3.925781 3.90625 -3.6875 C 4.082031 -3.445312 4.191406 -3.160156 4.234375 -2.828125 L 3.1875 -2.828125 C 3.15625 -3.035156 3.0625 -3.203125 2.90625 -3.328125 C 2.757812 -3.453125 2.566406 -3.515625 2.328125 -3.515625 C 2.015625 -3.515625 1.765625 -3.394531 1.578125 -3.15625 C 1.390625 -2.925781 1.296875 -2.601562 1.296875 -2.1875 C 1.296875 -1.75 1.390625 -1.414062 1.578125 -1.1875 C 1.765625 -0.957031 2.015625 -0.84375 2.328125 -0.84375 C 2.554688 -0.84375 2.75 -0.90625 2.90625 -1.03125 C 3.0625 -1.15625 3.15625 -1.328125 3.1875 -1.546875 L 4.234375 -1.546875 C 4.210938 -1.347656 4.15625 -1.15625 4.0625 -0.96875 C 3.96875 -0.78125 3.835938 -0.609375 3.671875 -0.453125 C 3.515625 -0.296875 3.320312 -0.171875 3.09375 -0.078125 C 2.863281 0.015625 2.601562 0.0625 2.3125 0.0625 Z M 2.3125 0.0625 "/></g></g></g><g fill="#0d1623" fill-opacity="1"><g transform="translate(8.008515, 6.719014)"><g><path d="M 2.328125 0.0625 C 1.929688 0.0625 1.578125 -0.0234375 1.265625 -0.203125 C 0.953125 -0.378906 0.703125 -0.632812 0.515625 -0.96875 C 0.328125 -1.300781 0.234375 -1.707031 0.234375 -2.1875 C 0.234375 -2.664062 0.328125 -3.070312 0.515625 -3.40625 C 0.703125 -3.738281 0.953125 -3.988281 1.265625 -4.15625 C 1.578125 -4.332031 1.929688 -4.421875 2.328125 -4.421875 C 2.710938 -4.421875 3.0625 -4.332031 3.375 -4.15625 C 3.6875 -3.988281 3.929688 -3.738281 4.109375 -3.40625 C 4.296875 -3.070312 4.390625 -2.664062 4.390625 -2.1875 C 4.390625 -1.707031 4.296875 -1.296875 4.109375 -0.953125 C 3.929688 -0.617188 3.6875 -0.363281 3.375 -0.1875 C 3.0625 -0.0195312 2.710938 0.0625 2.328125 0.0625 Z M 2.328125 -0.84375 C 2.640625 -0.84375 2.882812 -0.957031 3.0625 -1.1875 C 3.25 -1.414062 3.34375 -1.75 3.34375 -2.1875 C 3.34375 -2.613281 3.25 -2.941406 3.0625 -3.171875 C 2.882812 -3.398438 2.640625 -3.515625 2.328125 -3.515625 C 2.003906 -3.515625 1.75 -3.398438 1.5625 -3.171875 C 1.382812 -2.941406 1.296875 -2.613281 1.296875 -2.1875 C 1.296875 -1.75 1.382812 -1.414062 1.5625 -1.1875 C 1.75 -0.957031 2.003906 -0.84375 2.328125 -0.84375 Z M 2.328125 -0.84375 "/></g></g></g><g fill="#0d1623" fill-opacity="1"><g transform="translate(15.260521, 6.719014)"><g><path d="M 0.34375 0 L 0.34375 -4.359375 L 1.953125 -4.359375 L 2.515625 -2.671875 C 2.535156 -2.566406 2.566406 -2.429688 2.609375 -2.265625 C 2.648438 -2.109375 2.6875 -1.9375 2.71875 -1.75 C 2.757812 -1.570312 2.800781 -1.394531 2.84375 -1.21875 C 2.875 -1.394531 2.90625 -1.570312 2.9375 -1.75 C 2.976562 -1.9375 3.015625 -2.109375 3.046875 -2.265625 C 3.085938 -2.429688 3.125 -2.566406 3.15625 -2.671875 L 3.703125 -4.359375 L 5.328125 -4.359375 L 5.328125 0 L 4.28125 0 L 4.28125 -1.875 C 4.28125 -1.988281 4.28125 -2.132812 4.28125 -2.3125 C 4.289062 -2.5 4.296875 -2.695312 4.296875 -2.90625 C 4.304688 -3.113281 4.3125 -3.316406 4.3125 -3.515625 C 4.269531 -3.304688 4.21875 -3.097656 4.15625 -2.890625 C 4.101562 -2.679688 4.050781 -2.488281 4 -2.3125 C 3.957031 -2.132812 3.921875 -1.988281 3.890625 -1.875 L 3.265625 0 L 2.40625 0 L 1.765625 -1.875 C 1.734375 -1.988281 1.691406 -2.128906 1.640625 -2.296875 C 1.597656 -2.460938 1.546875 -2.644531 1.484375 -2.84375 C 1.429688 -3.050781 1.382812 -3.257812 1.34375 -3.46875 C 1.34375 -3.269531 1.34375 -3.066406 1.34375 -2.859375 C 1.351562 -2.660156 1.359375 -2.472656 1.359375 -2.296875 C 1.367188 -2.128906 1.375 -1.988281 1.375 -1.875 L 1.375 0 Z M 0.34375 0 "/></g></g></g><g fill="#0d1623" fill-opacity="1"><g transform="translate(23.533907, 6.719014)"><g><path d="M 0.34375 0 L 0.34375 -4.359375 L 1.953125 -4.359375 L 2.515625 -2.671875 C 2.535156 -2.566406 2.566406 -2.429688 2.609375 -2.265625 C 2.648438 -2.109375 2.6875 -1.9375 2.71875 -1.75 C 2.757812 -1.570312 2.800781 -1.394531 2.84375 -1.21875 C 2.875 -1.394531 2.90625 -1.570312 2.9375 -1.75 C 2.976562 -1.9375 3.015625 -2.109375 3.046875 -2.265625 C 3.085938 -2.429688 3.125 -2.566406 3.15625 -2.671875 L 3.703125 -4.359375 L 5.328125 -4.359375 L 5.328125 0 L 4.28125 0 L 4.28125 -1.875 C 4.28125 -1.988281 4.28125 -2.132812 4.28125 -2.3125 C 4.289062 -2.5 4.296875 -2.695312 4.296875 -2.90625 C 4.304688 -3.113281 4.3125 -3.316406 4.3125 -3.515625 C 4.269531 -3.304688 4.21875 -3.097656 4.15625 -2.890625 C 4.101562 -2.679688 4.050781 -2.488281 4 -2.3125 C 3.957031 -2.132812 3.921875 -1.988281 3.890625 -1.875 L 3.265625 0 L 2.40625 0 L 1.765625 -1.875 C 1.734375 -1.988281 1.691406 -2.128906 1.640625 -2.296875 C 1.597656 -2.460938 1.546875 -2.644531 1.484375 -2.84375 C 1.429688 -3.050781 1.382812 -3.257812 1.34375 -3.46875 C 1.34375 -3.269531 1.34375 -3.066406 1.34375 -2.859375 C 1.351562 -2.660156 1.359375 -2.472656 1.359375 -2.296875 C 1.367188 -2.128906 1.375 -1.988281 1.375 -1.875 L 1.375 0 Z M 0.34375 0 "/></g></g></g><g fill="#0d1623" fill-opacity="1"><g transform="translate(31.807292, 6.719014)"><g><path d="M 2.328125 0.0625 C 1.929688 0.0625 1.578125 -0.0234375 1.265625 -0.203125 C 0.953125 -0.378906 0.703125 -0.632812 0.515625 -0.96875 C 0.328125 -1.300781 0.234375 -1.707031 0.234375 -2.1875 C 0.234375 -2.664062 0.328125 -3.070312 0.515625 -3.40625 C 0.703125 -3.738281 0.953125 -3.988281 1.265625 -4.15625 C 1.578125 -4.332031 1.929688 -4.421875 2.328125 -4.421875 C 2.710938 -4.421875 3.0625 -4.332031 3.375 -4.15625 C 3.6875 -3.988281 3.929688 -3.738281 4.109375 -3.40625 C 4.296875 -3.070312 4.390625 -2.664062 4.390625 -2.1875 C 4.390625 -1.707031 4.296875 -1.296875 4.109375 -0.953125 C 3.929688 -0.617188 3.6875 -0.363281 3.375 -0.1875 C 3.0625 -0.0195312 2.710938 0.0625 2.328125 0.0625 Z M 2.328125 -0.84375 C 2.640625 -0.84375 2.882812 -0.957031 3.0625 -1.1875 C 3.25 -1.414062 3.34375 -1.75 3.34375 -2.1875 C 3.34375 -2.613281 3.25 -2.941406 3.0625 -3.171875 C 2.882812 -3.398438 2.640625 -3.515625 2.328125 -3.515625 C 2.003906 -3.515625 1.75 -3.398438 1.5625 -3.171875 C 1.382812 -2.941406 1.296875 -2.613281 1.296875 -2.1875 C 1.296875 -1.75 1.382812 -1.414062 1.5625 -1.1875 C 1.75 -0.957031 2.003906 -0.84375 2.328125 -0.84375 Z M 2.328125 -0.84375 "/></g></g></g><g fill="#0d1623" fill-opacity="1"><g transform="translate(39.059298, 6.719014)"><g><path d="M 0.34375 0 L 0.34375 -4.359375 L 1.484375 -4.359375 L 2.703125 -2.390625 C 2.796875 -2.234375 2.890625 -2.066406 2.984375 -1.890625 C 3.078125 -1.710938 3.164062 -1.503906 3.25 -1.265625 C 3.238281 -1.484375 3.222656 -1.707031 3.203125 -1.9375 C 3.191406 -2.164062 3.1875 -2.359375 3.1875 -2.515625 L 3.1875 -4.359375 L 4.25 -4.359375 L 4.25 0 L 3.109375 0 L 2 -1.8125 C 1.914062 -1.945312 1.835938 -2.078125 1.765625 -2.203125 C 1.691406 -2.335938 1.617188 -2.472656 1.546875 -2.609375 C 1.484375 -2.742188 1.414062 -2.898438 1.34375 -3.078125 C 1.351562 -2.816406 1.363281 -2.570312 1.375 -2.34375 C 1.394531 -2.125 1.40625 -1.945312 1.40625 -1.8125 L 1.40625 0 Z M 0.34375 0 "/></g></g></g></g></g></svg>