<svg xmlns="http://www.w3.org/2000/svg" xmlns:xlink="http://www.w3.org/1999/xlink" width="115" zoomAndPan="magnify" viewBox="0 0 86.25 128.250003" height="171" preserveAspectRatio="none" version="1.0"><defs><clipPath id="1498d1ec5f"><path d="M 0 0.179688 L 84.855469 0.179688 L 84.855469 126.800781 L 0 126.800781 Z M 0 0.179688 " clip-rule="nonzero"/></clipPath><clipPath id="58a8dc7a4b"><path d="M 84.855469 11.332031 L 84.855469 115.453125 C 84.855469 118.410156 83.679688 121.246094 81.589844 123.339844 C 79.496094 125.429688 76.660156 126.605469 73.703125 126.605469 L 11.152344 126.605469 C 8.195312 126.605469 5.359375 125.429688 3.265625 123.339844 C 1.175781 121.246094 0 118.410156 0 115.453125 L 0 11.332031 C 0 8.375 1.175781 5.539062 3.265625 3.449219 C 5.359375 1.355469 8.195312 0.179688 11.152344 0.179688 L 73.703125 0.179688 C 76.660156 0.179688 79.496094 1.355469 81.589844 3.449219 C 83.679688 5.539062 84.855469 8.375 84.855469 11.332031 Z M 84.855469 11.332031 " clip-rule="nonzero"/></clipPath><clipPath id="339cdff99d"><path d="M 0 0.179688 L 84.855469 0.179688 L 84.855469 126.761719 L 0 126.761719 Z M 0 0.179688 " clip-rule="nonzero"/></clipPath><clipPath id="947d8b907e"><path d="M 84.855469 11.332031 L 84.855469 115.453125 C 84.855469 118.410156 83.679688 121.246094 81.589844 123.339844 C 79.496094 125.429688 76.660156 126.605469 73.703125 126.605469 L 11.152344 126.605469 C 8.195312 126.605469 5.359375 125.429688 3.265625 123.339844 C 1.175781 121.246094 0 118.410156 0 115.453125 L 0 11.332031 C 0 8.375 1.175781 5.539062 3.265625 3.449219 C 5.359375 1.355469 8.195312 0.179688 11.152344 0.179688 L 73.703125 0.179688 C 76.660156 0.179688 79.496094 1.355469 81.589844 3.449219 C 83.679688 5.539062 84.855469 8.375 84.855469 11.332031 Z M 84.855469 11.332031 " clip-rule="nonzero"/></clipPath><clipPath id="c161b987a2"><rect x="0" width="85" y="0" height="127"/></clipPath><clipPath id="0072a6e603"><path d="M 0 0.179688 L 84.761719 0.179688 L 84.761719 126.582031 L 0 126.582031 Z M 0 0.179688 " clip-rule="nonzero"/></clipPath><clipPath id="1117b068eb"><path d="M 84.855469 11.332031 L 84.855469 115.453125 C 84.855469 118.410156 83.679688 121.246094 81.589844 123.339844 C 79.496094 125.429688 76.660156 126.605469 73.703125 126.605469 L 11.152344 126.605469 C 8.195312 126.605469 5.359375 125.429688 3.265625 123.339844 C 1.175781 121.246094 0 118.410156 0 115.453125 L 0 11.332031 C 0 8.375 1.175781 5.539062 3.265625 3.449219 C 5.359375 1.355469 8.195312 0.179688 11.152344 0.179688 L 73.703125 0.179688 C 76.660156 0.179688 79.496094 1.355469 81.589844 3.449219 C 83.679688 5.539062 84.855469 8.375 84.855469 11.332031 Z M 84.855469 11.332031 " clip-rule="nonzero"/></clipPath><clipPath id="6021b63fbf"><path d="M 0.671875 17.496094 L 84.1875 17.496094 L 84.1875 21.652344 L 0.671875 21.652344 Z M 0.671875 17.496094 " clip-rule="nonzero"/></clipPath><clipPath id="8232c5dba8"><path d="M 0.671875 0.496094 L 84.1875 0.496094 L 84.1875 4.652344 L 0.671875 4.652344 Z M 0.671875 0.496094 " clip-rule="nonzero"/></clipPath><clipPath id="4455b567bb"><rect x="0" width="85" y="0" height="5"/></clipPath><clipPath id="e46a327902"><path d="M 24.957031 0.367188 L 47.167969 0.367188 L 47.167969 20.320312 L 24.957031 20.320312 Z M 24.957031 0.367188 " clip-rule="nonzero"/></clipPath><clipPath id="eeef2f9767"><path d="M 47.144531 0.367188 L 47.144531 20.320312 L 24.957031 20.320312 Z M 47.144531 0.367188 " clip-rule="nonzero"/></clipPath><clipPath id="f3f9a3872a"><path d="M 0.957031 0.367188 L 23.167969 0.367188 L 23.167969 20.320312 L 0.957031 20.320312 Z M 0.957031 0.367188 " clip-rule="nonzero"/></clipPath><clipPath id="be40f3b569"><path d="M 23.144531 0.367188 L 23.144531 20.320312 L 0.957031 20.320312 Z M 23.144531 0.367188 " clip-rule="nonzero"/></clipPath><clipPath id="0bd6438b62"><rect x="0" width="24" y="0" height="21"/></clipPath><clipPath id="f0bc52c4d0"><path d="M 40.804688 2.195312 L 76.046875 2.195312 L 76.046875 19.261719 L 40.804688 19.261719 Z M 40.804688 2.195312 " clip-rule="nonzero"/></clipPath><clipPath id="e94c3ec1d3"><path d="M 0.804688 0.195312 L 36.046875 0.195312 L 36.046875 17.261719 L 0.804688 17.261719 Z M 0.804688 0.195312 " clip-rule="nonzero"/></clipPath><clipPath id="2b072e7fe2"><rect x="0" width="37" y="0" height="18"/></clipPath><clipPath id="df0a46be3f"><path d="M 6.300781 117.425781 L 78.726562 117.425781 L 78.726562 124.019531 L 6.300781 124.019531 Z M 6.300781 117.425781 " clip-rule="nonzero"/></clipPath><clipPath id="1ea380c4ec"><path d="M 0.300781 0.425781 L 72.726562 0.425781 L 72.726562 7.019531 L 0.300781 7.019531 Z M 0.300781 0.425781 " clip-rule="nonzero"/></clipPath><clipPath id="5a9599b6de"><rect x="0" width="73" y="0" height="8"/></clipPath><clipPath id="b0320e24f0"><path d="M 2.839844 109.195312 L 42.175781 109.195312 L 42.175781 120.722656 L 2.839844 120.722656 Z M 2.839844 109.195312 " clip-rule="nonzero"/></clipPath><clipPath id="2275765731"><path d="M 0.839844 0.195312 L 40.175781 0.195312 L 40.175781 11.722656 L 0.839844 11.722656 Z M 0.839844 0.195312 " clip-rule="nonzero"/></clipPath><clipPath id="ae91540746"><rect x="0" width="41" y="0" height="12"/></clipPath><clipPath id="583c63d54f"><path d="M 41.921875 109.195312 L 62.101562 109.195312 L 62.101562 126.414062 L 41.921875 126.414062 Z M 41.921875 109.195312 " clip-rule="nonzero"/></clipPath><clipPath id="3060e4ad83"><path d="M 62.074219 126.414062 L 41.921875 126.414062 L 41.921875 109.195312 Z M 62.074219 126.414062 " clip-rule="nonzero"/></clipPath><clipPath id="a8ae0cf509"><path d="M 0.921875 0.195312 L 21.101562 0.195312 L 21.101562 17.414062 L 0.921875 17.414062 Z M 0.921875 0.195312 " clip-rule="nonzero"/></clipPath><clipPath id="2aaaaa6ff9"><path d="M 21.074219 17.414062 L 0.921875 17.414062 L 0.921875 0.195312 Z M 21.074219 17.414062 " clip-rule="nonzero"/></clipPath><clipPath id="799da05d76"><rect x="0" width="22" y="0" height="18"/></clipPath><clipPath id="1ad38ab2f3"><path d="M 72.367188 4.648438 L 79.726562 4.648438 L 79.726562 19.574219 L 72.367188 19.574219 Z M 72.367188 4.648438 " clip-rule="nonzero"/></clipPath><clipPath id="68c7fd681c"><path d="M 0.367188 0.648438 L 7.726562 0.648438 L 7.726562 15.574219 L 0.367188 15.574219 Z M 0.367188 0.648438 " clip-rule="nonzero"/></clipPath><clipPath id="57ee88a101"><rect x="0" width="8" y="0" height="16"/></clipPath><clipPath id="ab3efd76ad"><path d="M 75.046875 7.328125 L 82.40625 7.328125 L 82.40625 19.574219 L 75.046875 19.574219 Z M 75.046875 7.328125 " clip-rule="nonzero"/></clipPath><clipPath id="53df14b131"><path d="M 0.046875 0.328125 L 7.40625 0.328125 L 7.40625 12.574219 L 0.046875 12.574219 Z M 0.046875 0.328125 " clip-rule="nonzero"/></clipPath><clipPath id="3d5bca1686"><rect x="0" width="8" y="0" height="13"/></clipPath><clipPath id="ed60d44fbb"><path d="M 13.046875 117.425781 L 81.34375 117.425781 L 81.34375 120.722656 L 13.046875 120.722656 Z M 13.046875 117.425781 " clip-rule="nonzero"/></clipPath><clipPath id="12e260b853"><path d="M 0.046875 0.425781 L 68.34375 0.425781 L 68.34375 3.722656 L 0.046875 3.722656 Z M 0.046875 0.425781 " clip-rule="nonzero"/></clipPath><clipPath id="a86514cb30"><rect x="0" width="69" y="0" height="4"/></clipPath></defs><g clip-path="url(#1498d1ec5f)"><g clip-path="url(#58a8dc7a4b)"><g transform="matrix(1, 0, 0, 1, 0, -0.000000000000012018)"><g clip-path="url(#c161b987a2)"><g clip-path="url(#339cdff99d)"><g clip-path="url(#947d8b907e)"><path fill="#151620" d="M 0 0.179688 L 84.855469 0.179688 L 84.855469 126.46875 L 0 126.46875 Z M 0 0.179688 " fill-opacity="1" fill-rule="nonzero"/></g></g></g></g></g></g><g clip-path="url(#0072a6e603)"><g clip-path="url(#1117b068eb)"><path stroke-linecap="butt" transform="matrix(0.743534, 0, 0, 0.743534, 0, 0.181043)" fill="none" stroke-linejoin="miter" d="M 114.124461 14.997272 L 114.124461 155.032604 C 114.124461 159.009597 112.543121 162.823727 109.732432 165.639669 C 106.91649 168.450358 103.102359 170.031699 99.125366 170.031699 L 14.999095 170.031699 C 11.022102 170.031699 7.207971 168.450358 4.392029 165.639669 C 1.581341 162.823727 0 159.009597 0 155.032604 L 0 14.997272 C 0 11.020279 1.581341 7.206148 4.392029 4.39546 C 7.207971 1.579518 11.022102 -0.00182295 14.999095 -0.00182295 L 99.125366 -0.00182295 C 103.102359 -0.00182295 106.91649 1.579518 109.732432 4.39546 C 112.543121 7.206148 114.124461 11.020279 114.124461 14.997272 Z M 114.124461 14.997272 " stroke="#da4140" stroke-width="12" stroke-opacity="1" stroke-miterlimit="4"/></g></g><g clip-path="url(#6021b63fbf)"><g transform="matrix(1, 0, 0, 1, 0, 17)"><g clip-path="url(#4455b567bb)"><g clip-path="url(#8232c5dba8)"><path fill="#da4140" d="M 0.671875 0.496094 L 84.1875 0.496094 L 84.1875 4.652344 L 0.671875 4.652344 Z M 0.671875 0.496094 " fill-opacity="1" fill-rule="nonzero"/></g></g></g></g><g clip-path="url(#e46a327902)"><g clip-path="url(#eeef2f9767)"><g transform="matrix(1, 0, 0, 1, 24, -0.000000000000012018)"><g clip-path="url(#0bd6438b62)"><g clip-path="url(#f3f9a3872a)"><g clip-path="url(#be40f3b569)"><path fill="#da4140" d="M 0.957031 20.320312 L 0.957031 0.367188 L 23.167969 0.367188 L 23.167969 20.320312 Z M 0.957031 20.320312 " fill-opacity="1" fill-rule="nonzero"/></g></g></g></g></g></g><g clip-path="url(#f0bc52c4d0)"><g transform="matrix(1, 0, 0, 1, 40, 2)"><g clip-path="url(#2b072e7fe2)"><g clip-path="url(#e94c3ec1d3)"><path fill="#da4140" d="M 0.804688 0.195312 L 36.078125 0.195312 L 36.078125 17.261719 L 0.804688 17.261719 Z M 0.804688 0.195312 " fill-opacity="1" fill-rule="nonzero"/></g></g></g></g><g clip-path="url(#df0a46be3f)"><g transform="matrix(1, 0, 0, 1, 6, 117)"><g clip-path="url(#5a9599b6de)"><g clip-path="url(#1ea380c4ec)"><path fill="#da4140" d="M 0.300781 0.425781 L 72.738281 0.425781 L 72.738281 7.019531 L 0.300781 7.019531 Z M 0.300781 0.425781 " fill-opacity="1" fill-rule="nonzero"/></g></g></g></g><g clip-path="url(#b0320e24f0)"><g transform="matrix(1, 0, 0, 1, 2, 109)"><g clip-path="url(#ae91540746)"><g clip-path="url(#2275765731)"><path fill="#da4140" d="M 0.839844 0.195312 L 40.195312 0.195312 L 40.195312 11.722656 L 0.839844 11.722656 Z M 0.839844 0.195312 " fill-opacity="1" fill-rule="nonzero"/></g></g></g></g><g clip-path="url(#583c63d54f)"><g clip-path="url(#3060e4ad83)"><g transform="matrix(1, 0, 0, 1, 41, 109)"><g clip-path="url(#799da05d76)"><g clip-path="url(#a8ae0cf509)"><g clip-path="url(#2aaaaa6ff9)"><path fill="#da4140" d="M 0.921875 0.195312 L 21.101562 0.195312 L 21.101562 17.414062 L 0.921875 17.414062 Z M 0.921875 0.195312 " fill-opacity="1" fill-rule="nonzero"/></g></g></g></g></g></g><g clip-path="url(#1ad38ab2f3)"><g transform="matrix(1, 0, 0, 1, 72, 4)"><g clip-path="url(#57ee88a101)"><g clip-path="url(#68c7fd681c)"><path fill="#da4140" d="M 0.367188 0.648438 L 7.726562 0.648438 L 7.726562 15.570312 L 0.367188 15.570312 Z M 0.367188 0.648438 " fill-opacity="1" fill-rule="nonzero"/></g></g></g></g><g clip-path="url(#ab3efd76ad)"><g transform="matrix(1, 0, 0, 1, 75, 7)"><g clip-path="url(#3d5bca1686)"><g clip-path="url(#53df14b131)"><path fill="#da4140" d="M 0.046875 0.328125 L 7.40625 0.328125 L 7.40625 12.578125 L 0.046875 12.578125 Z M 0.046875 0.328125 " fill-opacity="1" fill-rule="nonzero"/></g></g></g></g><g clip-path="url(#ed60d44fbb)"><g transform="matrix(1, 0, 0, 1, 13, 117)"><g clip-path="url(#a86514cb30)"><g clip-path="url(#12e260b853)"><path fill="#da4140" d="M 0.046875 0.425781 L 68.335938 0.425781 L 68.335938 3.722656 L 0.046875 3.722656 Z M 0.046875 0.425781 " fill-opacity="1" fill-rule="nonzero"/></g></g></g></g></svg>