<svg xmlns="http://www.w3.org/2000/svg" xmlns:xlink="http://www.w3.org/1999/xlink" width="115" zoomAndPan="magnify" viewBox="0 0 86.25 128.250003" height="171" preserveAspectRatio="none" version="1.0"><defs><clipPath id="cfa9341473"><path d="M 0 0.179688 L 84.855469 0.179688 L 84.855469 126.800781 L 0 126.800781 Z M 0 0.179688 " clip-rule="nonzero"/></clipPath><clipPath id="a2ae04f1d3"><path d="M 84.855469 14.144531 L 84.855469 112.644531 C 84.855469 116.347656 83.382812 119.898438 80.765625 122.515625 C 78.148438 125.132812 74.59375 126.605469 70.890625 126.605469 L 13.960938 126.605469 C 10.257812 126.605469 6.707031 125.132812 4.089844 122.515625 C 1.472656 119.898438 0 116.347656 0 112.644531 L 0 14.144531 C 0 10.441406 1.472656 6.890625 4.089844 4.269531 C 6.707031 1.652344 10.257812 0.179688 13.960938 0.179688 L 70.890625 0.179688 C 74.59375 0.179688 78.148438 1.652344 80.765625 4.269531 C 83.382812 6.890625 84.855469 10.441406 84.855469 14.144531 Z M 84.855469 14.144531 " clip-rule="nonzero"/></clipPath><clipPath id="e4e5c29f22"><path d="M 0 0.179688 L 84.855469 0.179688 L 84.855469 126.761719 L 0 126.761719 Z M 0 0.179688 " clip-rule="nonzero"/></clipPath><clipPath id="80322a396f"><path d="M 84.855469 14.144531 L 84.855469 112.644531 C 84.855469 116.347656 83.382812 119.898438 80.765625 122.515625 C 78.148438 125.132812 74.59375 126.605469 70.890625 126.605469 L 13.960938 126.605469 C 10.257812 126.605469 6.707031 125.132812 4.089844 122.515625 C 1.472656 119.898438 0 116.347656 0 112.644531 L 0 14.144531 C 0 10.441406 1.472656 6.890625 4.089844 4.269531 C 6.707031 1.652344 10.257812 0.179688 13.960938 0.179688 L 70.890625 0.179688 C 74.59375 0.179688 78.148438 1.652344 80.765625 4.269531 C 83.382812 6.890625 84.855469 10.441406 84.855469 14.144531 Z M 84.855469 14.144531 " clip-rule="nonzero"/></clipPath><clipPath id="73039c4184"><rect x="0" width="85" y="0" height="127"/></clipPath><clipPath id="66021d725c"><path d="M 0 0.179688 L 84.761719 0.179688 L 84.761719 126.582031 L 0 126.582031 Z M 0 0.179688 " clip-rule="nonzero"/></clipPath><clipPath id="d8478a05f6"><path d="M 84.855469 14.144531 L 84.855469 112.640625 C 84.855469 116.34375 83.382812 119.898438 80.765625 122.515625 C 78.148438 125.132812 74.597656 126.605469 70.894531 126.605469 L 13.964844 126.605469 C 10.261719 126.605469 6.707031 125.132812 4.089844 122.515625 C 1.472656 119.898438 0 116.34375 0 112.640625 L 0 14.144531 C 0 10.441406 1.472656 6.890625 4.089844 4.269531 C 6.707031 1.652344 10.261719 0.179688 13.964844 0.179688 L 70.894531 0.179688 C 74.597656 0.179688 78.148438 1.652344 80.765625 4.269531 C 83.382812 6.890625 84.855469 10.441406 84.855469 14.144531 Z M 84.855469 14.144531 " clip-rule="nonzero"/></clipPath><clipPath id="89c0a071c1"><path d="M 38.859375 53.875 L 46 53.875 L 46 59.824219 L 38.859375 59.824219 Z M 32.910156 59.824219 L 51.949219 59.824219 L 51.949219 66.960938 L 32.910156 66.960938 Z M 38.859375 66.960938 L 46 66.960938 L 46 72.910156 L 38.859375 72.910156 Z M 38.859375 66.960938 " clip-rule="nonzero"/></clipPath><clipPath id="efe54fd47b"><path d="M 6.859375 0.875 L 14 0.875 L 14 6.824219 L 6.859375 6.824219 Z M 0.910156 6.824219 L 19.949219 6.824219 L 19.949219 13.960938 L 0.910156 13.960938 Z M 6.859375 13.960938 L 14 13.960938 L 14 19.910156 L 6.859375 19.910156 Z M 6.859375 13.960938 " clip-rule="nonzero"/></clipPath><clipPath id="bd0d1c6aa2"><rect x="0" width="20" y="0" height="20"/></clipPath><clipPath id="070cf59f60"><path d="M 38.855469 53.875 L 45.992188 53.875 L 45.992188 59.820312 L 38.855469 59.820312 Z M 32.910156 59.820312 L 51.941406 59.820312 L 51.941406 66.957031 L 32.910156 66.957031 Z M 38.855469 66.957031 L 45.992188 66.957031 L 45.992188 72.90625 L 38.855469 72.90625 Z M 38.855469 66.957031 " clip-rule="nonzero"/></clipPath></defs><g clip-path="url(#cfa9341473)"><g clip-path="url(#a2ae04f1d3)"><g transform="matrix(1, 0, 0, 1, 0, -0.000000000000012018)"><g clip-path="url(#73039c4184)"><g clip-path="url(#e4e5c29f22)"><g clip-path="url(#80322a396f)"><path fill="#151620" d="M 0 0.179688 L 84.855469 0.179688 L 84.855469 126.46875 L 0 126.46875 Z M 0 0.179688 " fill-opacity="1" fill-rule="nonzero"/></g></g></g></g></g></g><g clip-path="url(#66021d725c)"><g clip-path="url(#d8478a05f6)"><path stroke-linecap="butt" transform="matrix(0.743534, 0, 0, 0.743534, 0, 0.181043)" fill="none" stroke-linejoin="miter" d="M 114.124461 18.779881 L 114.124461 151.249995 C 114.124461 156.23043 112.143845 161.011227 108.623918 164.531155 C 105.10399 168.051083 100.328446 170.031699 95.348011 170.031699 L 18.781704 170.031699 C 13.801269 170.031699 9.020471 168.051083 5.500544 164.531155 C 1.980616 161.011227 0 156.23043 0 151.249995 L 0 18.779881 C 0 13.799446 1.980616 9.023902 5.500544 5.498721 C 9.020471 1.978793 13.801269 -0.00182295 18.781704 -0.00182295 L 95.348011 -0.00182295 C 100.328446 -0.00182295 105.10399 1.978793 108.623918 5.498721 C 112.143845 9.023902 114.124461 13.799446 114.124461 18.779881 Z M 114.124461 18.779881 " stroke="#5ec269" stroke-width="4" stroke-opacity="1" stroke-miterlimit="4"/></g></g><g clip-path="url(#89c0a071c1)"><g transform="matrix(1, 0, 0, 1, 32, 53)"><g clip-path="url(#bd0d1c6aa2)"><g clip-path="url(#efe54fd47b)"><path fill="#5ec269" d="M 0.910156 0.875 L 19.949219 0.875 L 19.949219 19.910156 L 0.910156 19.910156 Z M 0.910156 0.875 " fill-opacity="1" fill-rule="nonzero"/></g></g></g></g><g clip-path="url(#070cf59f60)"><path stroke-linecap="butt" transform="matrix(0.743534, 0, 0, 0.743534, 32.910229, 53.874752)" fill="none" stroke-linejoin="miter" d="M 17.594287 0.000334012 L 7.995917 0.000334012 L 7.995917 7.996349 L -0.0000976734 7.996349 L -0.0000976734 17.594719 L 7.995917 17.594719 L 7.995917 25.595987 L 17.594287 25.595987 L 17.594287 17.594719 L 25.595556 17.594719 L 25.595556 7.996349 L 17.594287 7.996349 Z M 17.594287 0.000334012 " stroke="#000000" stroke-width="4" stroke-opacity="1" stroke-miterlimit="4"/></g></svg>