<svg xmlns="http://www.w3.org/2000/svg" xmlns:xlink="http://www.w3.org/1999/xlink" width="115" zoomAndPan="magnify" viewBox="0 0 86.25 128.250003" height="171" preserveAspectRatio="none" version="1.0"><defs><g/><clipPath id="519ac81c0a"><path d="M 0 0.179688 L 84.855469 0.179688 L 84.855469 126.800781 L 0 126.800781 Z M 0 0.179688 " clip-rule="nonzero"/></clipPath><clipPath id="024aaa0a5e"><path d="M 84.855469 11.332031 L 84.855469 115.453125 C 84.855469 118.410156 83.679688 121.246094 81.589844 123.339844 C 79.496094 125.429688 76.660156 126.605469 73.703125 126.605469 L 11.152344 126.605469 C 8.195312 126.605469 5.359375 125.429688 3.265625 123.339844 C 1.175781 121.246094 0 118.410156 0 115.453125 L 0 11.332031 C 0 8.375 1.175781 5.539062 3.265625 3.449219 C 5.359375 1.355469 8.195312 0.179688 11.152344 0.179688 L 73.703125 0.179688 C 76.660156 0.179688 79.496094 1.355469 81.589844 3.449219 C 83.679688 5.539062 84.855469 8.375 84.855469 11.332031 Z M 84.855469 11.332031 " clip-rule="nonzero"/></clipPath><clipPath id="e1c70f905c"><path d="M 0 0.179688 L 84.855469 0.179688 L 84.855469 126.761719 L 0 126.761719 Z M 0 0.179688 " clip-rule="nonzero"/></clipPath><clipPath id="57e8c95fa1"><path d="M 84.855469 11.332031 L 84.855469 115.453125 C 84.855469 118.410156 83.679688 121.246094 81.589844 123.339844 C 79.496094 125.429688 76.660156 126.605469 73.703125 126.605469 L 11.152344 126.605469 C 8.195312 126.605469 5.359375 125.429688 3.265625 123.339844 C 1.175781 121.246094 0 118.410156 0 115.453125 L 0 11.332031 C 0 8.375 1.175781 5.539062 3.265625 3.449219 C 5.359375 1.355469 8.195312 0.179688 11.152344 0.179688 L 73.703125 0.179688 C 76.660156 0.179688 79.496094 1.355469 81.589844 3.449219 C 83.679688 5.539062 84.855469 8.375 84.855469 11.332031 Z M 84.855469 11.332031 " clip-rule="nonzero"/></clipPath><clipPath id="206c7378bc"><rect x="0" width="85" y="0" height="127"/></clipPath><clipPath id="7252faee03"><path d="M 0 0.179688 L 84.761719 0.179688 L 84.761719 126.582031 L 0 126.582031 Z M 0 0.179688 " clip-rule="nonzero"/></clipPath><clipPath id="dc8b64d795"><path d="M 84.855469 11.332031 L 84.855469 115.453125 C 84.855469 118.410156 83.679688 121.246094 81.589844 123.339844 C 79.496094 125.429688 76.660156 126.605469 73.703125 126.605469 L 11.152344 126.605469 C 8.195312 126.605469 5.359375 125.429688 3.265625 123.339844 C 1.175781 121.246094 0 118.410156 0 115.453125 L 0 11.332031 C 0 8.375 1.175781 5.539062 3.265625 3.449219 C 5.359375 1.355469 8.195312 0.179688 11.152344 0.179688 L 73.703125 0.179688 C 76.660156 0.179688 79.496094 1.355469 81.589844 3.449219 C 83.679688 5.539062 84.855469 8.375 84.855469 11.332031 Z M 84.855469 11.332031 " clip-rule="nonzero"/></clipPath><clipPath id="81ab1095ae"><path d="M 0.671875 17.496094 L 84.1875 17.496094 L 84.1875 21.652344 L 0.671875 21.652344 Z M 0.671875 17.496094 " clip-rule="nonzero"/></clipPath><clipPath id="1dff0e8d10"><path d="M 0.671875 0.496094 L 84.1875 0.496094 L 84.1875 4.652344 L 0.671875 4.652344 Z M 0.671875 0.496094 " clip-rule="nonzero"/></clipPath><clipPath id="c69744d75f"><rect x="0" width="85" y="0" height="5"/></clipPath><clipPath id="a594850ef1"><path d="M 24.957031 0.367188 L 47.167969 0.367188 L 47.167969 20.320312 L 24.957031 20.320312 Z M 24.957031 0.367188 " clip-rule="nonzero"/></clipPath><clipPath id="cbe854cea0"><path d="M 47.144531 0.367188 L 47.144531 20.320312 L 24.957031 20.320312 Z M 47.144531 0.367188 " clip-rule="nonzero"/></clipPath><clipPath id="01d0b45bb6"><path d="M 0.957031 0.367188 L 23.167969 0.367188 L 23.167969 20.320312 L 0.957031 20.320312 Z M 0.957031 0.367188 " clip-rule="nonzero"/></clipPath><clipPath id="8b0bfeeeff"><path d="M 23.144531 0.367188 L 23.144531 20.320312 L 0.957031 20.320312 Z M 23.144531 0.367188 " clip-rule="nonzero"/></clipPath><clipPath id="4b53ead3a4"><rect x="0" width="24" y="0" height="21"/></clipPath><clipPath id="bce774b2fd"><path d="M 40.804688 2.195312 L 76.046875 2.195312 L 76.046875 19.261719 L 40.804688 19.261719 Z M 40.804688 2.195312 " clip-rule="nonzero"/></clipPath><clipPath id="b4bf4104af"><path d="M 0.804688 0.195312 L 36.046875 0.195312 L 36.046875 17.261719 L 0.804688 17.261719 Z M 0.804688 0.195312 " clip-rule="nonzero"/></clipPath><clipPath id="403c16bce1"><rect x="0" width="37" y="0" height="18"/></clipPath><clipPath id="1f3f663463"><path d="M 6.300781 117.425781 L 78.726562 117.425781 L 78.726562 124.019531 L 6.300781 124.019531 Z M 6.300781 117.425781 " clip-rule="nonzero"/></clipPath><clipPath id="872cd6dbb6"><path d="M 0.300781 0.425781 L 72.726562 0.425781 L 72.726562 7.019531 L 0.300781 7.019531 Z M 0.300781 0.425781 " clip-rule="nonzero"/></clipPath><clipPath id="c28b26d9c2"><rect x="0" width="73" y="0" height="8"/></clipPath><clipPath id="32490c22a1"><path d="M 2.839844 109.195312 L 42.175781 109.195312 L 42.175781 120.910156 L 2.839844 120.910156 Z M 2.839844 109.195312 " clip-rule="nonzero"/></clipPath><clipPath id="7ac56b07c2"><path d="M 0.839844 0.195312 L 40.175781 0.195312 L 40.175781 11.910156 L 0.839844 11.910156 Z M 0.839844 0.195312 " clip-rule="nonzero"/></clipPath><clipPath id="82cc0888b6"><rect x="0" width="41" y="0" height="12"/></clipPath><clipPath id="7a15bf12e6"><path d="M 41.921875 109.195312 L 62.101562 109.195312 L 62.101562 126.414062 L 41.921875 126.414062 Z M 41.921875 109.195312 " clip-rule="nonzero"/></clipPath><clipPath id="6ab9a06fac"><path d="M 62.074219 126.414062 L 41.921875 126.414062 L 41.921875 109.195312 Z M 62.074219 126.414062 " clip-rule="nonzero"/></clipPath><clipPath id="50c8ebc874"><path d="M 0.921875 0.195312 L 21.101562 0.195312 L 21.101562 17.414062 L 0.921875 17.414062 Z M 0.921875 0.195312 " clip-rule="nonzero"/></clipPath><clipPath id="7f7155cb3f"><path d="M 21.074219 17.414062 L 0.921875 17.414062 L 0.921875 0.195312 Z M 21.074219 17.414062 " clip-rule="nonzero"/></clipPath><clipPath id="c8509d2e4d"><rect x="0" width="22" y="0" height="18"/></clipPath><clipPath id="a72eefe0c6"><path d="M 72.367188 4.648438 L 79.726562 4.648438 L 79.726562 19.574219 L 72.367188 19.574219 Z M 72.367188 4.648438 " clip-rule="nonzero"/></clipPath><clipPath id="744db10dde"><path d="M 0.367188 0.648438 L 7.726562 0.648438 L 7.726562 15.574219 L 0.367188 15.574219 Z M 0.367188 0.648438 " clip-rule="nonzero"/></clipPath><clipPath id="2b2aa86cc4"><rect x="0" width="8" y="0" height="16"/></clipPath><clipPath id="b33a150be7"><path d="M 75.046875 7.328125 L 82.40625 7.328125 L 82.40625 19.574219 L 75.046875 19.574219 Z M 75.046875 7.328125 " clip-rule="nonzero"/></clipPath><clipPath id="5179fea65c"><path d="M 0.046875 0.328125 L 7.40625 0.328125 L 7.40625 12.574219 L 0.046875 12.574219 Z M 0.046875 0.328125 " clip-rule="nonzero"/></clipPath><clipPath id="15b8c9fed4"><rect x="0" width="8" y="0" height="13"/></clipPath><clipPath id="b4fba7ad4e"><path d="M 13.046875 117.425781 L 81.34375 117.425781 L 81.34375 120.722656 L 13.046875 120.722656 Z M 13.046875 117.425781 " clip-rule="nonzero"/></clipPath><clipPath id="a4fd58b5a7"><path d="M 0.046875 0.425781 L 68.34375 0.425781 L 68.34375 3.722656 L 0.046875 3.722656 Z M 0.046875 0.425781 " clip-rule="nonzero"/></clipPath><clipPath id="278a2f9c6b"><rect x="0" width="69" y="0" height="4"/></clipPath><clipPath id="933859022c"><rect x="0" width="13" y="0" height="7"/></clipPath></defs><g clip-path="url(#519ac81c0a)"><g clip-path="url(#024aaa0a5e)"><g transform="matrix(1, 0, 0, 1, -0, 0.000000000000016404)"><g clip-path="url(#206c7378bc)"><g clip-path="url(#e1c70f905c)"><g clip-path="url(#57e8c95fa1)"><path fill="#151620" d="M 0 0.179688 L 84.855469 0.179688 L 84.855469 126.46875 L 0 126.46875 Z M 0 0.179688 " fill-opacity="1" fill-rule="nonzero"/></g></g></g></g></g></g><g clip-path="url(#7252faee03)"><g clip-path="url(#dc8b64d795)"><path stroke-linecap="butt" transform="matrix(0.743534, 0, 0, 0.743534, -0.000000000000001665, 0.181043)" fill="none" stroke-linejoin="miter" d="M 114.124461 14.997272 L 114.124461 155.032604 C 114.124461 159.009597 112.543121 162.823727 109.732432 165.639669 C 106.91649 168.450358 103.102359 170.031699 99.125366 170.031699 L 14.999095 170.031699 C 11.022102 170.031699 7.207971 168.450358 4.392029 165.639669 C 1.581341 162.823727 0.00000000000000224 159.009597 0.00000000000000224 155.032604 L 0.00000000000000224 14.997272 C 0.00000000000000224 11.020279 1.581341 7.206148 4.392029 4.39546 C 7.207971 1.579518 11.022102 -0.00182295 14.999095 -0.00182295 L 99.125366 -0.00182295 C 103.102359 -0.00182295 106.91649 1.579518 109.732432 4.39546 C 112.543121 7.206148 114.124461 11.020279 114.124461 14.997272 Z M 114.124461 14.997272 " stroke="#6797df" stroke-width="12" stroke-opacity="1" stroke-miterlimit="4"/></g></g><g clip-path="url(#81ab1095ae)"><g transform="matrix(1, 0, 0, 1, 0, 17)"><g clip-path="url(#c69744d75f)"><g clip-path="url(#1dff0e8d10)"><path fill="#6797df" d="M 0.671875 0.496094 L 84.1875 0.496094 L 84.1875 4.652344 L 0.671875 4.652344 Z M 0.671875 0.496094 " fill-opacity="1" fill-rule="nonzero"/></g></g></g></g><g clip-path="url(#a594850ef1)"><g clip-path="url(#cbe854cea0)"><g transform="matrix(1, 0, 0, 1, 24, 0.000000000000016404)"><g clip-path="url(#4b53ead3a4)"><g clip-path="url(#01d0b45bb6)"><g clip-path="url(#8b0bfeeeff)"><path fill="#6797df" d="M 0.957031 20.320312 L 0.957031 0.367188 L 23.167969 0.367188 L 23.167969 20.320312 Z M 0.957031 20.320312 " fill-opacity="1" fill-rule="nonzero"/></g></g></g></g></g></g><g clip-path="url(#bce774b2fd)"><g transform="matrix(1, 0, 0, 1, 40, 2)"><g clip-path="url(#403c16bce1)"><g clip-path="url(#b4bf4104af)"><path fill="#6797df" d="M 0.804688 0.195312 L 36.078125 0.195312 L 36.078125 17.261719 L 0.804688 17.261719 Z M 0.804688 0.195312 " fill-opacity="1" fill-rule="nonzero"/></g></g></g></g><g clip-path="url(#1f3f663463)"><g transform="matrix(1, 0, 0, 1, 6, 117)"><g clip-path="url(#c28b26d9c2)"><g clip-path="url(#872cd6dbb6)"><path fill="#6797df" d="M 0.300781 0.425781 L 72.738281 0.425781 L 72.738281 7.019531 L 0.300781 7.019531 Z M 0.300781 0.425781 " fill-opacity="1" fill-rule="nonzero"/></g></g></g></g><g clip-path="url(#32490c22a1)"><g transform="matrix(1, 0, 0, 1, 2, 109)"><g clip-path="url(#82cc0888b6)"><g clip-path="url(#7ac56b07c2)"><path fill="#6797df" d="M 0.839844 0.195312 L 40.15625 0.195312 L 40.15625 11.910156 L 0.839844 11.910156 Z M 0.839844 0.195312 " fill-opacity="1" fill-rule="nonzero"/></g></g></g></g><g clip-path="url(#7a15bf12e6)"><g clip-path="url(#6ab9a06fac)"><g transform="matrix(1, 0, 0, 1, 41, 109)"><g clip-path="url(#c8509d2e4d)"><g clip-path="url(#50c8ebc874)"><g clip-path="url(#7f7155cb3f)"><path fill="#6797df" d="M 0.921875 0.195312 L 21.101562 0.195312 L 21.101562 17.414062 L 0.921875 17.414062 Z M 0.921875 0.195312 " fill-opacity="1" fill-rule="nonzero"/></g></g></g></g></g></g><g clip-path="url(#a72eefe0c6)"><g transform="matrix(1, 0, 0, 1, 72, 4)"><g clip-path="url(#2b2aa86cc4)"><g clip-path="url(#744db10dde)"><path fill="#6797df" d="M 0.367188 0.648438 L 7.726562 0.648438 L 7.726562 15.570312 L 0.367188 15.570312 Z M 0.367188 0.648438 " fill-opacity="1" fill-rule="nonzero"/></g></g></g></g><g clip-path="url(#b33a150be7)"><g transform="matrix(1, 0, 0, 1, 75, 7)"><g clip-path="url(#15b8c9fed4)"><g clip-path="url(#5179fea65c)"><path fill="#6797df" d="M 0.046875 0.328125 L 7.40625 0.328125 L 7.40625 12.578125 L 0.046875 12.578125 Z M 0.046875 0.328125 " fill-opacity="1" fill-rule="nonzero"/></g></g></g></g><g clip-path="url(#b4fba7ad4e)"><g transform="matrix(1, 0, 0, 1, 13, 117)"><g clip-path="url(#278a2f9c6b)"><g clip-path="url(#a4fd58b5a7)"><path fill="#6797df" d="M 0.046875 0.425781 L 68.335938 0.425781 L 68.335938 3.722656 L 0.046875 3.722656 Z M 0.046875 0.425781 " fill-opacity="1" fill-rule="nonzero"/></g></g></g></g><g transform="matrix(1, 0, 0, 1, 61, 104)"><g clip-path="url(#933859022c)"><g fill="#0d1623" fill-opacity="1"><g transform="translate(0.819893, 5.618606)"><g><path d="M 0.21875 0 L 0.21875 -3.359375 L 1.671875 -3.359375 C 1.921875 -3.359375 2.140625 -3.304688 2.328125 -3.203125 C 2.515625 -3.109375 2.660156 -2.972656 2.765625 -2.796875 C 2.867188 -2.617188 2.921875 -2.410156 2.921875 -2.171875 C 2.921875 -1.929688 2.863281 -1.722656 2.75 -1.546875 C 2.644531 -1.367188 2.492188 -1.234375 2.296875 -1.140625 C 2.109375 -1.046875 1.890625 -1 1.640625 -1 L 1.125 -1 L 1.125 0 Z M 1.125 -1.703125 L 1.453125 -1.703125 C 1.609375 -1.703125 1.734375 -1.742188 1.828125 -1.828125 C 1.921875 -1.910156 1.96875 -2.023438 1.96875 -2.171875 C 1.96875 -2.316406 1.921875 -2.429688 1.828125 -2.515625 C 1.734375 -2.597656 1.609375 -2.640625 1.453125 -2.640625 L 1.125 -2.640625 Z M 1.125 -1.703125 "/></g></g></g><g fill="#0d1623" fill-opacity="1"><g transform="translate(4.312988, 5.618606)"><g><path d="M 1.796875 0.046875 C 1.484375 0.046875 1.203125 -0.0195312 0.953125 -0.15625 C 0.710938 -0.289062 0.519531 -0.484375 0.375 -0.734375 C 0.226562 -0.992188 0.15625 -1.3125 0.15625 -1.6875 C 0.15625 -2.0625 0.226562 -2.375 0.375 -2.625 C 0.519531 -2.882812 0.710938 -3.078125 0.953125 -3.203125 C 1.203125 -3.335938 1.484375 -3.40625 1.796875 -3.40625 C 2.097656 -3.40625 2.375 -3.335938 2.625 -3.203125 C 2.875 -3.078125 3.066406 -2.882812 3.203125 -2.625 C 3.347656 -2.375 3.421875 -2.0625 3.421875 -1.6875 C 3.421875 -1.3125 3.347656 -0.992188 3.203125 -0.734375 C 3.066406 -0.472656 2.875 -0.273438 2.625 -0.140625 C 2.375 -0.015625 2.097656 0.046875 1.796875 0.046875 Z M 1.796875 -0.75 C 2.023438 -0.75 2.195312 -0.828125 2.3125 -0.984375 C 2.425781 -1.148438 2.484375 -1.382812 2.484375 -1.6875 C 2.484375 -1.988281 2.425781 -2.21875 2.3125 -2.375 C 2.195312 -2.53125 2.023438 -2.609375 1.796875 -2.609375 C 1.566406 -2.609375 1.390625 -2.53125 1.265625 -2.375 C 1.148438 -2.21875 1.09375 -1.988281 1.09375 -1.6875 C 1.09375 -1.382812 1.148438 -1.148438 1.265625 -0.984375 C 1.390625 -0.828125 1.566406 -0.75 1.796875 -0.75 Z M 1.796875 -0.75 "/></g></g></g><g fill="#0d1623" fill-opacity="1"><g transform="translate(8.20077, 5.618606)"><g><path d="M 0.125 -2.625 L 0.125 -3.359375 L 3.046875 -3.359375 L 3.046875 -2.625 L 2.046875 -2.625 L 2.046875 0 L 1.125 0 L 1.125 -2.625 Z M 0.125 -2.625 "/></g></g></g></g></g></svg>