<svg xmlns="http://www.w3.org/2000/svg" xmlns:xlink="http://www.w3.org/1999/xlink" width="115" zoomAndPan="magnify" viewBox="0 0 86.25 128.250003" height="171" preserveAspectRatio="none" version="1.0"><defs><clipPath id="35006221c6"><path d="M 75.046875 7.328125 L 82.40625 7.328125 L 82.40625 19.574219 L 75.046875 19.574219 Z M 75.046875 7.328125 " clip-rule="nonzero"/></clipPath><clipPath id="e7fa2d1ad6"><path d="M 0.046875 0.328125 L 7.40625 0.328125 L 7.40625 12.574219 L 0.046875 12.574219 Z M 0.046875 0.328125 " clip-rule="nonzero"/></clipPath><clipPath id="6fc21fe54c"><rect x="0" width="8" y="0" height="13"/></clipPath><clipPath id="598e402214"><path d="M 0 0.179688 L 84.855469 0.179688 L 84.855469 126.800781 L 0 126.800781 Z M 0 0.179688 " clip-rule="nonzero"/></clipPath><clipPath id="999373ed6d"><path d="M 84.855469 11.332031 L 84.855469 115.453125 C 84.855469 118.410156 83.679688 121.246094 81.589844 123.339844 C 79.496094 125.429688 76.660156 126.605469 73.703125 126.605469 L 11.152344 126.605469 C 8.195312 126.605469 5.359375 125.429688 3.265625 123.339844 C 1.175781 121.246094 0 118.410156 0 115.453125 L 0 11.332031 C 0 8.375 1.175781 5.539062 3.265625 3.449219 C 5.359375 1.355469 8.195312 0.179688 11.152344 0.179688 L 73.703125 0.179688 C 76.660156 0.179688 79.496094 1.355469 81.589844 3.449219 C 83.679688 5.539062 84.855469 8.375 84.855469 11.332031 Z M 84.855469 11.332031 " clip-rule="nonzero"/></clipPath><clipPath id="687d424e0e"><path d="M 0 0.179688 L 84.855469 0.179688 L 84.855469 126.761719 L 0 126.761719 Z M 0 0.179688 " clip-rule="nonzero"/></clipPath><clipPath id="d27417a253"><path d="M 84.855469 11.332031 L 84.855469 115.453125 C 84.855469 118.410156 83.679688 121.246094 81.589844 123.339844 C 79.496094 125.429688 76.660156 126.605469 73.703125 126.605469 L 11.152344 126.605469 C 8.195312 126.605469 5.359375 125.429688 3.265625 123.339844 C 1.175781 121.246094 0 118.410156 0 115.453125 L 0 11.332031 C 0 8.375 1.175781 5.539062 3.265625 3.449219 C 5.359375 1.355469 8.195312 0.179688 11.152344 0.179688 L 73.703125 0.179688 C 76.660156 0.179688 79.496094 1.355469 81.589844 3.449219 C 83.679688 5.539062 84.855469 8.375 84.855469 11.332031 Z M 84.855469 11.332031 " clip-rule="nonzero"/></clipPath><clipPath id="6e1612825d"><rect x="0" width="85" y="0" height="127"/></clipPath><clipPath id="515a3f9733"><path d="M 0 0.179688 L 84.761719 0.179688 L 84.761719 126.582031 L 0 126.582031 Z M 0 0.179688 " clip-rule="nonzero"/></clipPath><clipPath id="f8d6a05db6"><path d="M 84.855469 11.332031 L 84.855469 115.453125 C 84.855469 118.410156 83.679688 121.246094 81.589844 123.339844 C 79.496094 125.429688 76.660156 126.605469 73.703125 126.605469 L 11.152344 126.605469 C 8.195312 126.605469 5.359375 125.429688 3.265625 123.339844 C 1.175781 121.246094 0 118.410156 0 115.453125 L 0 11.332031 C 0 8.375 1.175781 5.539062 3.265625 3.449219 C 5.359375 1.355469 8.195312 0.179688 11.152344 0.179688 L 73.703125 0.179688 C 76.660156 0.179688 79.496094 1.355469 81.589844 3.449219 C 83.679688 5.539062 84.855469 8.375 84.855469 11.332031 Z M 84.855469 11.332031 " clip-rule="nonzero"/></clipPath><clipPath id="99ffe92620"><path d="M 0.671875 17.496094 L 84.1875 17.496094 L 84.1875 21.652344 L 0.671875 21.652344 Z M 0.671875 17.496094 " clip-rule="nonzero"/></clipPath><clipPath id="42d10cfee0"><path d="M 0.671875 0.496094 L 84.1875 0.496094 L 84.1875 4.652344 L 0.671875 4.652344 Z M 0.671875 0.496094 " clip-rule="nonzero"/></clipPath><clipPath id="cf5e2d1523"><rect x="0" width="85" y="0" height="5"/></clipPath><clipPath id="a39714bc9d"><path d="M 24.957031 0.367188 L 47.167969 0.367188 L 47.167969 20.320312 L 24.957031 20.320312 Z M 24.957031 0.367188 " clip-rule="nonzero"/></clipPath><clipPath id="a7b800a0d9"><path d="M 47.144531 0.367188 L 47.144531 20.320312 L 24.957031 20.320312 Z M 47.144531 0.367188 " clip-rule="nonzero"/></clipPath><clipPath id="f08d92825b"><path d="M 0.957031 0.367188 L 23.167969 0.367188 L 23.167969 20.320312 L 0.957031 20.320312 Z M 0.957031 0.367188 " clip-rule="nonzero"/></clipPath><clipPath id="f7cfb5884d"><path d="M 23.144531 0.367188 L 23.144531 20.320312 L 0.957031 20.320312 Z M 23.144531 0.367188 " clip-rule="nonzero"/></clipPath><clipPath id="f897de2685"><rect x="0" width="24" y="0" height="21"/></clipPath><clipPath id="c92bd0a223"><path d="M 40.804688 7.328125 L 82.40625 7.328125 L 82.40625 19.261719 L 40.804688 19.261719 Z M 40.804688 7.328125 " clip-rule="nonzero"/></clipPath><clipPath id="7b7ef9ae10"><path d="M 0.804688 0.328125 L 42.40625 0.328125 L 42.40625 12.261719 L 0.804688 12.261719 Z M 0.804688 0.328125 " clip-rule="nonzero"/></clipPath><clipPath id="2cdfef3885"><rect x="0" width="43" y="0" height="13"/></clipPath><clipPath id="23fe40a1ad"><path d="M 6.300781 117.425781 L 78.726562 117.425781 L 78.726562 124.019531 L 6.300781 124.019531 Z M 6.300781 117.425781 " clip-rule="nonzero"/></clipPath><clipPath id="ca766a5fc7"><path d="M 0.300781 0.425781 L 72.726562 0.425781 L 72.726562 7.019531 L 0.300781 7.019531 Z M 0.300781 0.425781 " clip-rule="nonzero"/></clipPath><clipPath id="56e91d3f51"><rect x="0" width="73" y="0" height="8"/></clipPath><clipPath id="0a0ef02b86"><path d="M 2.839844 109.195312 L 42.175781 109.195312 L 42.175781 122.15625 L 2.839844 122.15625 Z M 2.839844 109.195312 " clip-rule="nonzero"/></clipPath><clipPath id="3dea56b1b4"><path d="M 0.839844 0.195312 L 40.175781 0.195312 L 40.175781 13.15625 L 0.839844 13.15625 Z M 0.839844 0.195312 " clip-rule="nonzero"/></clipPath><clipPath id="5d8b716a1b"><rect x="0" width="41" y="0" height="14"/></clipPath><clipPath id="8ce63de291"><path d="M 41.921875 109.195312 L 62.101562 109.195312 L 62.101562 126.414062 L 41.921875 126.414062 Z M 41.921875 109.195312 " clip-rule="nonzero"/></clipPath><clipPath id="ec2de9398b"><path d="M 62.074219 126.414062 L 41.921875 126.414062 L 41.921875 109.195312 Z M 62.074219 126.414062 " clip-rule="nonzero"/></clipPath><clipPath id="bb661ef79b"><path d="M 0.921875 0.195312 L 21.101562 0.195312 L 21.101562 17.414062 L 0.921875 17.414062 Z M 0.921875 0.195312 " clip-rule="nonzero"/></clipPath><clipPath id="a8242de327"><path d="M 21.074219 17.414062 L 0.921875 17.414062 L 0.921875 0.195312 Z M 21.074219 17.414062 " clip-rule="nonzero"/></clipPath><clipPath id="f2adce59e7"><rect x="0" width="22" y="0" height="18"/></clipPath><clipPath id="27bf791be3"><path d="M 72.367188 4.648438 L 79.726562 4.648438 L 79.726562 19.574219 L 72.367188 19.574219 Z M 72.367188 4.648438 " clip-rule="nonzero"/></clipPath><clipPath id="077f6966ec"><path d="M 0.367188 0.648438 L 7.726562 0.648438 L 7.726562 15.574219 L 0.367188 15.574219 Z M 0.367188 0.648438 " clip-rule="nonzero"/></clipPath><clipPath id="74ec46b7df"><rect x="0" width="8" y="0" height="16"/></clipPath><clipPath id="ba80178cc1"><path d="M 44.46875 3.546875 L 81.34375 3.546875 L 81.34375 16 L 44.46875 16 Z M 44.46875 3.546875 " clip-rule="nonzero"/></clipPath><clipPath id="8578e7a052"><path d="M 0.46875 0.546875 L 37.34375 0.546875 L 37.34375 13 L 0.46875 13 Z M 0.46875 0.546875 " clip-rule="nonzero"/></clipPath><clipPath id="aacf93e45a"><rect x="0" width="38" y="0" height="13"/></clipPath><clipPath id="54999e8eaf"><path d="M 13.046875 117.425781 L 81.34375 117.425781 L 81.34375 120.722656 L 13.046875 120.722656 Z M 13.046875 117.425781 " clip-rule="nonzero"/></clipPath><clipPath id="8e3b5280ce"><path d="M 0.046875 0.425781 L 68.34375 0.425781 L 68.34375 3.722656 L 0.046875 3.722656 Z M 0.046875 0.425781 " clip-rule="nonzero"/></clipPath><clipPath id="1c4df0a62c"><rect x="0" width="69" y="0" height="4"/></clipPath></defs><g clip-path="url(#35006221c6)"><g transform="matrix(1, 0, 0, 1, 75, 7)"><g clip-path="url(#6fc21fe54c)"><g clip-path="url(#e7fa2d1ad6)"><path fill="#e5cc44" d="M 0.046875 0.328125 L 7.40625 0.328125 L 7.40625 12.578125 L 0.046875 12.578125 Z M 0.046875 0.328125 " fill-opacity="1" fill-rule="nonzero"/></g></g></g></g><g clip-path="url(#598e402214)"><g clip-path="url(#999373ed6d)"><g transform="matrix(1, 0, 0, 1, -0, 0.000000000000016404)"><g clip-path="url(#6e1612825d)"><g clip-path="url(#687d424e0e)"><g clip-path="url(#d27417a253)"><path fill="#151620" d="M 0 0.179688 L 84.855469 0.179688 L 84.855469 126.46875 L 0 126.46875 Z M 0 0.179688 " fill-opacity="1" fill-rule="nonzero"/></g></g></g></g></g></g><g clip-path="url(#515a3f9733)"><g clip-path="url(#f8d6a05db6)"><path stroke-linecap="butt" transform="matrix(0.743534, 0, 0, 0.743534, -0.000000000000001665, 0.181043)" fill="none" stroke-linejoin="miter" d="M 114.124461 14.997272 L 114.124461 155.032604 C 114.124461 159.009597 112.543121 162.823727 109.732432 165.639669 C 106.91649 168.450358 103.102359 170.031699 99.125366 170.031699 L 14.999095 170.031699 C 11.022102 170.031699 7.207971 168.450358 4.392029 165.639669 C 1.581341 162.823727 0.00000000000000224 159.009597 0.00000000000000224 155.032604 L 0.00000000000000224 14.997272 C 0.00000000000000224 11.020279 1.581341 7.206148 4.392029 4.39546 C 7.207971 1.579518 11.022102 -0.00182295 14.999095 -0.00182295 L 99.125366 -0.00182295 C 103.102359 -0.00182295 106.91649 1.579518 109.732432 4.39546 C 112.543121 7.206148 114.124461 11.020279 114.124461 14.997272 Z M 114.124461 14.997272 " stroke="#ffbd58" stroke-width="10" stroke-opacity="1" stroke-miterlimit="4"/></g></g><g clip-path="url(#99ffe92620)"><g transform="matrix(1, 0, 0, 1, 0, 17)"><g clip-path="url(#cf5e2d1523)"><g clip-path="url(#42d10cfee0)"><path fill="#ffbd58" d="M 0.671875 0.496094 L 84.1875 0.496094 L 84.1875 4.652344 L 0.671875 4.652344 Z M 0.671875 0.496094 " fill-opacity="1" fill-rule="nonzero"/></g></g></g></g><g clip-path="url(#a39714bc9d)"><g clip-path="url(#a7b800a0d9)"><g transform="matrix(1, 0, 0, 1, 24, 0.000000000000016404)"><g clip-path="url(#f897de2685)"><g clip-path="url(#f08d92825b)"><g clip-path="url(#f7cfb5884d)"><path fill="#ffbd58" d="M 0.957031 20.320312 L 0.957031 0.367188 L 23.167969 0.367188 L 23.167969 20.320312 Z M 0.957031 20.320312 " fill-opacity="1" fill-rule="nonzero"/></g></g></g></g></g></g><g clip-path="url(#c92bd0a223)"><g transform="matrix(1, 0, 0, 1, 40, 7)"><g clip-path="url(#2cdfef3885)"><g clip-path="url(#7b7ef9ae10)"><path fill="#ffbd58" d="M 0.804688 0.328125 L 42.386719 0.328125 L 42.386719 12.261719 L 0.804688 12.261719 Z M 0.804688 0.328125 " fill-opacity="1" fill-rule="nonzero"/></g></g></g></g><g clip-path="url(#23fe40a1ad)"><g transform="matrix(1, 0, 0, 1, 6, 117)"><g clip-path="url(#56e91d3f51)"><g clip-path="url(#ca766a5fc7)"><path fill="#ffbd58" d="M 0.300781 0.425781 L 72.738281 0.425781 L 72.738281 7.019531 L 0.300781 7.019531 Z M 0.300781 0.425781 " fill-opacity="1" fill-rule="nonzero"/></g></g></g></g><g clip-path="url(#0a0ef02b86)"><g transform="matrix(1, 0, 0, 1, 2, 109)"><g clip-path="url(#5d8b716a1b)"><g clip-path="url(#3dea56b1b4)"><path fill="#ffbd58" d="M 0.839844 0.195312 L 40.175781 0.195312 L 40.175781 13.15625 L 0.839844 13.15625 Z M 0.839844 0.195312 " fill-opacity="1" fill-rule="nonzero"/></g></g></g></g><g clip-path="url(#8ce63de291)"><g clip-path="url(#ec2de9398b)"><g transform="matrix(1, 0, 0, 1, 41, 109)"><g clip-path="url(#f2adce59e7)"><g clip-path="url(#bb661ef79b)"><g clip-path="url(#a8242de327)"><path fill="#ffbd58" d="M 0.921875 0.195312 L 21.101562 0.195312 L 21.101562 17.414062 L 0.921875 17.414062 Z M 0.921875 0.195312 " fill-opacity="1" fill-rule="nonzero"/></g></g></g></g></g></g><g clip-path="url(#27bf791be3)"><g transform="matrix(1, 0, 0, 1, 72, 4)"><g clip-path="url(#74ec46b7df)"><g clip-path="url(#077f6966ec)"><path fill="#ffbd58" d="M 0.367188 0.648438 L 7.726562 0.648438 L 7.726562 15.570312 L 0.367188 15.570312 Z M 0.367188 0.648438 " fill-opacity="1" fill-rule="nonzero"/></g></g></g></g><g clip-path="url(#ba80178cc1)"><g transform="matrix(1, 0, 0, 1, 44, 3)"><g clip-path="url(#aacf93e45a)"><g clip-path="url(#8578e7a052)"><path fill="#ffbd58" d="M 0.46875 0.546875 L 37.335938 0.546875 L 37.335938 13 L 0.46875 13 Z M 0.46875 0.546875 " fill-opacity="1" fill-rule="nonzero"/></g></g></g></g><g clip-path="url(#54999e8eaf)"><g transform="matrix(1, 0, 0, 1, 13, 117)"><g clip-path="url(#1c4df0a62c)"><g clip-path="url(#8e3b5280ce)"><path fill="#ffbd58" d="M 0.046875 0.425781 L 68.335938 0.425781 L 68.335938 3.722656 L 0.046875 3.722656 Z M 0.046875 0.425781 " fill-opacity="1" fill-rule="nonzero"/></g></g></g></g></svg>