<svg xmlns="http://www.w3.org/2000/svg" xmlns:xlink="http://www.w3.org/1999/xlink" width="51" zoomAndPan="magnify" viewBox="0 0 38.25 20.999999" height="28" preserveAspectRatio="xMidYMid meet" version="1.0"><defs><clipPath id="d5666159af"><path d="M 0 0.203125 L 37.515625 0.203125 L 37.515625 20.664062 L 0 20.664062 Z M 0 0.203125 " clip-rule="nonzero"/></clipPath><clipPath id="367771f438"><path d="M 10.230469 0.203125 L 27.28125 0.203125 C 29.996094 0.203125 32.597656 1.28125 34.515625 3.199219 C 36.4375 5.117188 37.511719 7.71875 37.511719 10.433594 C 37.511719 13.148438 36.4375 15.75 34.515625 17.667969 C 32.597656 19.585938 29.996094 20.664062 27.28125 20.664062 L 10.230469 20.664062 C 7.519531 20.664062 4.914062 19.585938 2.996094 17.667969 C 1.078125 15.75 0 13.148438 0 10.433594 C 0 7.71875 1.078125 5.117188 2.996094 3.199219 C 4.914062 1.28125 7.519531 0.203125 10.230469 0.203125 Z M 10.230469 0.203125 " clip-rule="nonzero"/></clipPath><clipPath id="84b3ec56a4"><path d="M 0 0.203125 L 37.515625 0.203125 L 37.515625 20.664062 L 0 20.664062 Z M 0 0.203125 " clip-rule="nonzero"/></clipPath><clipPath id="fe9b0e25a2"><path d="M 10.230469 0.203125 L 27.28125 0.203125 C 29.996094 0.203125 32.597656 1.28125 34.515625 3.199219 C 36.4375 5.117188 37.511719 7.71875 37.511719 10.433594 C 37.511719 13.148438 36.4375 15.75 34.515625 17.667969 C 32.597656 19.585938 29.996094 20.664062 27.28125 20.664062 L 10.230469 20.664062 C 7.519531 20.664062 4.914062 19.585938 2.996094 17.667969 C 1.078125 15.75 0 13.148438 0 10.433594 C 0 7.71875 1.078125 5.117188 2.996094 3.199219 C 4.914062 1.28125 7.519531 0.203125 10.230469 0.203125 Z M 10.230469 0.203125 " clip-rule="nonzero"/></clipPath><clipPath id="3fda7ca6e8"><rect x="0" width="38" y="0" height="21"/></clipPath><clipPath id="036fd10f7c"><path d="M 0 0.203125 L 37.515625 0.203125 L 37.515625 20.796875 L 0 20.796875 Z M 0 0.203125 " clip-rule="nonzero"/></clipPath><clipPath id="d23cf92280"><path d="M 10.230469 0.203125 L 27.273438 0.203125 C 29.988281 0.203125 32.589844 1.28125 34.507812 3.199219 C 36.425781 5.117188 37.503906 7.71875 37.503906 10.429688 C 37.503906 13.144531 36.425781 15.746094 34.507812 17.664062 C 32.589844 19.582031 29.988281 20.660156 27.273438 20.660156 L 10.230469 20.660156 C 7.515625 20.660156 4.914062 19.582031 2.996094 17.664062 C 1.078125 15.746094 0 13.144531 0 10.429688 C 0 7.71875 1.078125 5.117188 2.996094 3.199219 C 4.914062 1.28125 7.515625 0.203125 10.230469 0.203125 Z M 10.230469 0.203125 " clip-rule="nonzero"/></clipPath></defs><g clip-path="url(#d5666159af)"><g clip-path="url(#367771f438)"><g transform="matrix(1, 0, 0, 1, 0, -0.000000000000000555)"><g clip-path="url(#3fda7ca6e8)"><g clip-path="url(#84b3ec56a4)"><g clip-path="url(#fe9b0e25a2)"><path fill="#151620" d="M 0 0.203125 L 37.488281 0.203125 L 37.488281 20.664062 L 0 20.664062 Z M 0 0.203125 " fill-opacity="1" fill-rule="nonzero"/></g></g></g></g></g></g><g clip-path="url(#036fd10f7c)"><g clip-path="url(#d23cf92280)"><path stroke-linecap="butt" transform="matrix(0.735577, 0, 0, 0.735577, 0.000000000000133278, 0.201923)" fill="none" stroke-linejoin="miter" d="M 13.908089 0.00163467 L 37.077616 0.00163467 C 40.768384 0.00163467 44.305149 1.467321 46.912584 4.074756 C 49.520018 6.682191 50.985705 10.218955 50.985705 13.904413 C 50.985705 17.595181 49.520018 21.131946 46.912584 23.739381 C 44.305149 26.346816 40.768384 27.812502 37.077616 27.812502 L 13.908089 27.812502 C 10.217321 27.812502 6.680556 26.346816 4.073121 23.739381 C 1.465686 21.131946 -0.000000000000181188 17.595181 -0.000000000000181188 13.904413 C -0.000000000000181188 10.218955 1.465686 6.682191 4.073121 4.074756 C 6.680556 1.467321 10.217321 0.00163467 13.908089 0.00163467 Z M 13.908089 0.00163467 " stroke="#da4140" stroke-width="4" stroke-opacity="1" stroke-miterlimit="4"/></g></g></svg>
