<svg xmlns="http://www.w3.org/2000/svg" xmlns:xlink="http://www.w3.org/1999/xlink" width="125" zoomAndPan="magnify" viewBox="0 0 93.75 139.500001" height="186" preserveAspectRatio="xMidYMid meet" version="1.0"><defs><clipPath id="b5a75f2741"><path d="M 0.0429688 0 L 93.199219 0 L 93.199219 139 L 0.0429688 139 Z M 0.0429688 0 " clip-rule="nonzero"/></clipPath><clipPath id="ea26758682"><path d="M 93.199219 14.035156 L 93.199219 124.757812 C 93.199219 128.480469 91.722656 132.050781 89.089844 134.683594 C 86.457031 137.316406 82.886719 138.792969 79.167969 138.792969 L 14.078125 138.792969 C 10.355469 138.792969 6.785156 137.316406 4.152344 134.683594 C 1.519531 132.050781 0.0429688 128.480469 0.0429688 124.757812 L 0.0429688 14.035156 C 0.0429688 10.3125 1.519531 6.742188 4.152344 4.109375 C 6.785156 1.480469 10.355469 0 14.078125 0 L 79.167969 0 C 82.886719 0 86.457031 1.480469 89.089844 4.109375 C 91.722656 6.742188 93.199219 10.3125 93.199219 14.035156 Z M 93.199219 14.035156 " clip-rule="nonzero"/></clipPath><clipPath id="c8f98f48cf"><path d="M 0.0429688 0 L 93.199219 0 L 93.199219 138.941406 L 0.0429688 138.941406 Z M 0.0429688 0 " clip-rule="nonzero"/></clipPath><clipPath id="8bb3605cbf"><path d="M 93.199219 14.035156 L 93.199219 124.757812 C 93.199219 128.480469 91.722656 132.050781 89.089844 134.683594 C 86.457031 137.316406 82.886719 138.792969 79.167969 138.792969 L 14.078125 138.792969 C 10.355469 138.792969 6.785156 137.316406 4.152344 134.683594 C 1.519531 132.050781 0.0429688 128.480469 0.0429688 124.757812 L 0.0429688 14.035156 C 0.0429688 10.3125 1.519531 6.742188 4.152344 4.109375 C 6.785156 1.480469 10.355469 0 14.078125 0 L 79.167969 0 C 82.886719 0 86.457031 1.480469 89.089844 4.109375 C 91.722656 6.742188 93.199219 10.3125 93.199219 14.035156 Z M 93.199219 14.035156 " clip-rule="nonzero"/></clipPath><clipPath id="512c76861c"><rect x="0" width="94" y="0" height="139"/></clipPath><clipPath id="9fc759f44f"><path d="M 0.0429688 0 L 93.292969 0 L 93.292969 138.792969 L 0.0429688 138.792969 Z M 0.0429688 0 " clip-rule="nonzero"/></clipPath><clipPath id="7fc2578843"><path d="M 93.199219 14.035156 L 93.199219 124.757812 C 93.199219 128.480469 91.722656 132.050781 89.089844 134.679688 C 86.457031 137.3125 82.886719 138.792969 79.167969 138.792969 L 14.078125 138.792969 C 10.355469 138.792969 6.785156 137.3125 4.15625 134.679688 C 1.523438 132.050781 0.0429688 128.480469 0.0429688 124.757812 L 0.0429688 14.035156 C 0.0429688 10.3125 1.523438 6.742188 4.15625 4.109375 C 6.785156 1.480469 10.355469 0 14.078125 0 L 79.167969 0 C 82.886719 0 86.457031 1.480469 89.089844 4.109375 C 91.722656 6.742188 93.199219 10.3125 93.199219 14.035156 Z M 93.199219 14.035156 " clip-rule="nonzero"/></clipPath><clipPath id="d30821bcab"><path d="M 42.703125 58.945312 L 50.542969 58.945312 L 50.542969 65.476562 L 42.703125 65.476562 Z M 36.171875 65.476562 L 57.074219 65.476562 L 57.074219 73.316406 L 36.171875 73.316406 Z M 42.703125 73.316406 L 50.542969 73.316406 L 50.542969 79.847656 L 42.703125 79.847656 Z M 42.703125 73.316406 " clip-rule="nonzero"/></clipPath><clipPath id="8e0f007d8d"><path d="M 6.703125 0.945312 L 14.542969 0.945312 L 14.542969 7.476562 L 6.703125 7.476562 Z M 0.171875 7.476562 L 21.074219 7.476562 L 21.074219 15.316406 L 0.171875 15.316406 Z M 6.703125 15.316406 L 14.542969 15.316406 L 14.542969 21.847656 L 6.703125 21.847656 Z M 6.703125 15.316406 " clip-rule="nonzero"/></clipPath><clipPath id="6cc57969c9"><rect x="0" width="22" y="0" height="22"/></clipPath></defs><g clip-path="url(#b5a75f2741)"><g clip-path="url(#ea26758682)"><g transform="matrix(1, 0, 0, 1, 0.000000000000000007, -0.000000000000023296)"><g clip-path="url(#512c76861c)"><g clip-path="url(#c8f98f48cf)"><g clip-path="url(#8bb3605cbf)"><path fill="#151620" d="M 0.0429688 0 L 93.199219 0 L 93.199219 138.644531 L 0.0429688 138.644531 Z M 0.0429688 0 " fill-opacity="1" fill-rule="nonzero"/></g></g></g></g></g></g><g clip-path="url(#9fc759f44f)"><g clip-path="url(#7fc2578843)"><path stroke-linecap="butt" transform="matrix(0.747321, 0, 0, 0.747321, 0.0428569, 0.00000498214)" fill="none" stroke-linejoin="miter" d="M 124.653671 18.780608 L 124.653671 166.939953 C 124.653671 171.921285 122.677864 176.698764 119.154866 180.216536 C 115.631867 183.739534 110.854388 185.720568 105.878283 185.720568 L 18.780764 185.720568 C 13.799432 185.720568 9.021953 183.739534 5.504182 180.216536 C 1.981183 176.698764 0.000149613 171.921285 0.000149613 166.939953 L 0.000149613 18.780608 C 0.000149613 13.799276 1.981183 9.021797 5.504182 5.498798 C 9.021953 1.981027 13.799432 -0.00000666667 18.780764 -0.00000666667 L 105.878283 -0.00000666667 C 110.854388 -0.00000666667 115.631867 1.981027 119.154866 5.498798 C 122.677864 9.021797 124.653671 13.799276 124.653671 18.780608 Z M 124.653671 18.780608 " stroke="#5ec269" stroke-width="4" stroke-opacity="1" stroke-miterlimit="4"/></g></g><g clip-path="url(#d30821bcab)"><g transform="matrix(1, 0, 0, 1, 36, 58)"><g clip-path="url(#6cc57969c9)"><g clip-path="url(#8e0f007d8d)"><path fill="#5ec269" d="M 0.171875 0.945312 L 21.074219 0.945312 L 21.074219 21.847656 L 0.171875 21.847656 Z M 0.171875 0.945312 " fill-opacity="1" fill-rule="nonzero"/></g></g></g></g></svg>