<svg xmlns="http://www.w3.org/2000/svg" xmlns:xlink="http://www.w3.org/1999/xlink" width="194" zoomAndPan="magnify" viewBox="0 0 145.5 65.249999" height="87" preserveAspectRatio="xMidYMid meet" version="1.0"><defs><g/><clipPath id="6085fbf832"><path d="M 0.578125 20.386719 L 144.0625 20.386719 L 144.0625 63.910156 L 0.578125 63.910156 Z M 0.578125 20.386719 " clip-rule="nonzero"/></clipPath><clipPath id="16a19b014a"><path d="M 22.339844 20.386719 L 122.296875 20.386719 C 134.316406 20.386719 144.058594 30.128906 144.058594 42.148438 C 144.058594 54.164062 134.316406 63.910156 122.296875 63.910156 L 22.339844 63.910156 C 10.320312 63.910156 0.578125 54.164062 0.578125 42.148438 C 0.578125 30.128906 10.320312 20.386719 22.339844 20.386719 Z M 22.339844 20.386719 " clip-rule="nonzero"/></clipPath><clipPath id="768e37052d"><path d="M 0.578125 0.386719 L 144.0625 0.386719 L 144.0625 43.910156 L 0.578125 43.910156 Z M 0.578125 0.386719 " clip-rule="nonzero"/></clipPath><clipPath id="cef50f3982"><path d="M 22.339844 0.386719 L 122.296875 0.386719 C 134.316406 0.386719 144.058594 10.128906 144.058594 22.148438 C 144.058594 34.164062 134.316406 43.910156 122.296875 43.910156 L 22.339844 43.910156 C 10.320312 43.910156 0.578125 34.164062 0.578125 22.148438 C 0.578125 10.128906 10.320312 0.386719 22.339844 0.386719 Z M 22.339844 0.386719 " clip-rule="nonzero"/></clipPath><clipPath id="7222535dbb"><rect x="0" width="145" y="0" height="44"/></clipPath><clipPath id="c88d152400"><path d="M 0.578125 20.386719 L 144.425781 20.386719 L 144.425781 64 L 0.578125 64 Z M 0.578125 20.386719 " clip-rule="nonzero"/></clipPath><clipPath id="9077b7412e"><path d="M 22.34375 20.386719 L 122.289062 20.386719 C 134.304688 20.386719 144.046875 30.128906 144.046875 42.144531 C 144.046875 54.160156 134.304688 63.902344 122.289062 63.902344 L 22.34375 63.902344 C 10.328125 63.902344 0.589844 54.160156 0.589844 42.144531 C 0.589844 30.128906 10.328125 20.386719 22.34375 20.386719 Z M 22.34375 20.386719 " clip-rule="nonzero"/></clipPath><clipPath id="bc0facc1c3"><rect x="0" width="61" y="0" height="15"/></clipPath></defs><g clip-path="url(#6085fbf832)"><g clip-path="url(#16a19b014a)"><g transform="matrix(1, 0, 0, 1, 0.000000000000000111, 20)"><g clip-path="url(#7222535dbb)"><g clip-path="url(#768e37052d)"><g clip-path="url(#cef50f3982)"><path fill="#151620" d="M 0.578125 0.386719 L 144.0625 0.386719 L 144.0625 43.910156 L 0.578125 43.910156 Z M 0.578125 0.386719 " fill-opacity="1" fill-rule="nonzero"/></g></g></g></g></g></g><g clip-path="url(#c88d152400)"><g clip-path="url(#9077b7412e)"><path stroke-linecap="butt" transform="matrix(0.741477, 0, 0, 0.741477, 0.579547, 20.386863)" fill="none" stroke-linejoin="miter" d="M 29.352491 -0.000194686 L 164.144644 -0.000194686 C 180.349626 -0.000194686 193.488515 13.138695 193.488515 29.343677 C 193.488515 45.548658 180.349626 58.687548 164.144644 58.687548 L 29.352491 58.687548 C 13.147509 58.687548 0.0138874 45.548658 0.0138874 29.343677 C 0.0138874 13.138695 13.147509 -0.000194686 29.352491 -0.000194686 Z M 29.352491 -0.000194686 " stroke="#5ec269" stroke-width="4" stroke-opacity="1" stroke-miterlimit="4"/></g></g><g fill="#5ec269" fill-opacity="1"><g transform="translate(41.244938, 49.304475)"><g><path d="M 0.859375 -2.359375 L 0.859375 -5.546875 L 6.953125 -15.125 L 12.140625 -15.125 L 12.140625 -5.546875 L 13.890625 -5.546875 L 13.890625 -2.359375 L 12.140625 -2.359375 L 12.140625 0 L 8.203125 0 L 8.203125 -2.359375 Z M 8.3125 -5.546875 L 8.3125 -10.859375 L 8.1875 -10.859375 L 4.890625 -5.671875 L 4.890625 -5.546875 Z M 8.3125 -5.546875 "/></g></g></g><g fill="#5ec269" fill-opacity="1"><g transform="translate(55.838766, 49.304475)"><g><path d="M 8.484375 -7.5625 L 8.484375 -4.484375 L 1.390625 -4.484375 L 1.390625 -7.5625 Z M 8.484375 -7.5625 "/></g></g></g><g fill="#5ec269" fill-opacity="1"><g transform="translate(65.7033, 49.304475)"><g><path d="M 6.90625 0.203125 C 5.71875 0.203125 4.660156 0 3.734375 -0.40625 C 2.804688 -0.820312 2.078125 -1.390625 1.546875 -2.109375 C 1.023438 -2.835938 0.765625 -3.671875 0.765625 -4.609375 L 4.890625 -4.609375 C 4.890625 -4.171875 5.082031 -3.8125 5.46875 -3.53125 C 5.851562 -3.25 6.347656 -3.109375 6.953125 -3.109375 C 7.515625 -3.109375 7.972656 -3.253906 8.328125 -3.546875 C 8.679688 -3.835938 8.859375 -4.21875 8.859375 -4.6875 C 8.859375 -5.144531 8.648438 -5.519531 8.234375 -5.8125 C 7.816406 -6.101562 7.28125 -6.25 6.625 -6.25 L 5.078125 -6.25 L 5.078125 -9.09375 L 6.625 -9.09375 C 7.226562 -9.09375 7.722656 -9.238281 8.109375 -9.53125 C 8.492188 -9.832031 8.6875 -10.207031 8.6875 -10.65625 C 8.6875 -11.101562 8.523438 -11.46875 8.203125 -11.75 C 7.878906 -12.03125 7.460938 -12.171875 6.953125 -12.171875 C 6.378906 -12.171875 5.910156 -12.023438 5.546875 -11.734375 C 5.179688 -11.441406 5 -11.0625 5 -10.59375 L 1.0625 -10.59375 C 1.0625 -11.53125 1.3125 -12.351562 1.8125 -13.0625 C 2.3125 -13.769531 3.003906 -14.320312 3.890625 -14.71875 C 4.785156 -15.125 5.804688 -15.328125 6.953125 -15.328125 C 8.066406 -15.328125 9.050781 -15.140625 9.90625 -14.765625 C 10.769531 -14.390625 11.441406 -13.867188 11.921875 -13.203125 C 12.410156 -12.535156 12.65625 -11.773438 12.65625 -10.921875 C 12.65625 -10.085938 12.359375 -9.394531 11.765625 -8.84375 C 11.179688 -8.300781 10.441406 -7.976562 9.546875 -7.875 L 9.546875 -7.78125 C 10.765625 -7.644531 11.675781 -7.269531 12.28125 -6.65625 C 12.894531 -6.039062 13.203125 -5.269531 13.203125 -4.34375 C 13.203125 -3.457031 12.929688 -2.671875 12.390625 -1.984375 C 11.859375 -1.296875 11.117188 -0.757812 10.171875 -0.375 C 9.234375 0.0078125 8.144531 0.203125 6.90625 0.203125 Z M 6.90625 0.203125 "/></g></g></g><g fill="#5ec269" fill-opacity="1"><g transform="translate(79.607017, 49.304475)"><g><path d="M 8.484375 -7.5625 L 8.484375 -4.484375 L 1.390625 -4.484375 L 1.390625 -7.5625 Z M 8.484375 -7.5625 "/></g></g></g><g fill="#5ec269" fill-opacity="1"><g transform="translate(89.471551, 49.304475)"><g><path d="M 6.90625 0.203125 C 5.71875 0.203125 4.660156 0 3.734375 -0.40625 C 2.804688 -0.820312 2.078125 -1.390625 1.546875 -2.109375 C 1.023438 -2.835938 0.765625 -3.671875 0.765625 -4.609375 L 4.890625 -4.609375 C 4.890625 -4.171875 5.082031 -3.8125 5.46875 -3.53125 C 5.851562 -3.25 6.347656 -3.109375 6.953125 -3.109375 C 7.515625 -3.109375 7.972656 -3.253906 8.328125 -3.546875 C 8.679688 -3.835938 8.859375 -4.21875 8.859375 -4.6875 C 8.859375 -5.144531 8.648438 -5.519531 8.234375 -5.8125 C 7.816406 -6.101562 7.28125 -6.25 6.625 -6.25 L 5.078125 -6.25 L 5.078125 -9.09375 L 6.625 -9.09375 C 7.226562 -9.09375 7.722656 -9.238281 8.109375 -9.53125 C 8.492188 -9.832031 8.6875 -10.207031 8.6875 -10.65625 C 8.6875 -11.101562 8.523438 -11.46875 8.203125 -11.75 C 7.878906 -12.03125 7.460938 -12.171875 6.953125 -12.171875 C 6.378906 -12.171875 5.910156 -12.023438 5.546875 -11.734375 C 5.179688 -11.441406 5 -11.0625 5 -10.59375 L 1.0625 -10.59375 C 1.0625 -11.53125 1.3125 -12.351562 1.8125 -13.0625 C 2.3125 -13.769531 3.003906 -14.320312 3.890625 -14.71875 C 4.785156 -15.125 5.804688 -15.328125 6.953125 -15.328125 C 8.066406 -15.328125 9.050781 -15.140625 9.90625 -14.765625 C 10.769531 -14.390625 11.441406 -13.867188 11.921875 -13.203125 C 12.410156 -12.535156 12.65625 -11.773438 12.65625 -10.921875 C 12.65625 -10.085938 12.359375 -9.394531 11.765625 -8.84375 C 11.179688 -8.300781 10.441406 -7.976562 9.546875 -7.875 L 9.546875 -7.78125 C 10.765625 -7.644531 11.675781 -7.269531 12.28125 -6.65625 C 12.894531 -6.039062 13.203125 -5.269531 13.203125 -4.34375 C 13.203125 -3.457031 12.929688 -2.671875 12.390625 -1.984375 C 11.859375 -1.296875 11.117188 -0.757812 10.171875 -0.375 C 9.234375 0.0078125 8.144531 0.203125 6.90625 0.203125 Z M 6.90625 0.203125 "/></g></g></g><g transform="matrix(1, 0, 0, 1, 42, 0.000000000000000912)"><g clip-path="url(#bc0facc1c3)"><g fill="#ffffff" fill-opacity="1"><g transform="translate(0.448722, 11.028899)"><g><path d="M 0.890625 0 L 0.890625 -8.90625 L 6.609375 -8.90625 L 6.609375 -7.5625 L 2.5 -7.5625 L 2.5 -4.890625 L 6.203125 -4.890625 L 6.203125 -3.5625 L 2.5 -3.5625 L 2.5 0 Z M 0.890625 0 "/></g></g></g><g fill="#ffffff" fill-opacity="1"><g transform="translate(7.247687, 11.028899)"><g><path d="M 3.71875 0.140625 C 3.070312 0.140625 2.507812 -0.00390625 2.03125 -0.296875 C 1.550781 -0.585938 1.179688 -0.988281 0.921875 -1.5 C 0.660156 -2.019531 0.53125 -2.625 0.53125 -3.3125 C 0.53125 -4 0.660156 -4.601562 0.921875 -5.125 C 1.179688 -5.644531 1.550781 -6.046875 2.03125 -6.328125 C 2.507812 -6.617188 3.070312 -6.765625 3.71875 -6.765625 C 4.375 -6.765625 4.941406 -6.617188 5.421875 -6.328125 C 5.898438 -6.046875 6.269531 -5.644531 6.53125 -5.125 C 6.789062 -4.601562 6.921875 -4 6.921875 -3.3125 C 6.921875 -2.625 6.789062 -2.019531 6.53125 -1.5 C 6.269531 -0.988281 5.898438 -0.585938 5.421875 -0.296875 C 4.941406 -0.00390625 4.375 0.140625 3.71875 0.140625 Z M 3.71875 -1.125 C 4.082031 -1.125 4.382812 -1.21875 4.625 -1.40625 C 4.863281 -1.601562 5.039062 -1.867188 5.15625 -2.203125 C 5.28125 -2.535156 5.34375 -2.90625 5.34375 -3.3125 C 5.34375 -3.726562 5.28125 -4.097656 5.15625 -4.421875 C 5.039062 -4.753906 4.863281 -5.019531 4.625 -5.21875 C 4.382812 -5.414062 4.082031 -5.515625 3.71875 -5.515625 C 3.363281 -5.515625 3.066406 -5.414062 2.828125 -5.21875 C 2.585938 -5.019531 2.410156 -4.753906 2.296875 -4.421875 C 2.179688 -4.097656 2.125 -3.726562 2.125 -3.3125 C 2.125 -2.90625 2.179688 -2.535156 2.296875 -2.203125 C 2.410156 -1.867188 2.585938 -1.601562 2.828125 -1.40625 C 3.066406 -1.21875 3.363281 -1.125 3.71875 -1.125 Z M 3.71875 -1.125 "/></g></g></g><g fill="#ffffff" fill-opacity="1"><g transform="translate(14.698095, 11.028899)"><g><path d="M 0.828125 0 L 0.828125 -6.6875 L 2.328125 -6.6875 L 2.328125 -5.5625 L 2.40625 -5.5625 C 2.519531 -5.957031 2.726562 -6.257812 3.03125 -6.46875 C 3.332031 -6.675781 3.675781 -6.78125 4.0625 -6.78125 C 4.257812 -6.78125 4.445312 -6.765625 4.625 -6.734375 L 4.625 -5.3125 C 4.5625 -5.320312 4.457031 -5.335938 4.3125 -5.359375 C 4.164062 -5.378906 4.023438 -5.390625 3.890625 -5.390625 C 3.453125 -5.390625 3.085938 -5.253906 2.796875 -4.984375 C 2.515625 -4.710938 2.375 -4.363281 2.375 -3.9375 L 2.375 0 Z M 0.828125 0 "/></g></g></g><g fill="#ffffff" fill-opacity="1"><g transform="translate(19.675051, 11.028899)"><g><path d="M 0.828125 0 L 0.828125 -6.6875 L 2.28125 -6.6875 L 2.328125 -5.40625 C 2.503906 -5.882812 2.765625 -6.234375 3.109375 -6.453125 C 3.453125 -6.679688 3.828125 -6.796875 4.234375 -6.796875 C 5.085938 -6.796875 5.660156 -6.3125 5.953125 -5.34375 C 6.128906 -5.820312 6.410156 -6.179688 6.796875 -6.421875 C 7.179688 -6.671875 7.609375 -6.796875 8.078125 -6.796875 C 8.679688 -6.796875 9.1875 -6.597656 9.59375 -6.203125 C 10 -5.816406 10.203125 -5.253906 10.203125 -4.515625 L 10.203125 0 L 8.65625 0 L 8.65625 -4.265625 C 8.65625 -4.679688 8.539062 -4.984375 8.3125 -5.171875 C 8.082031 -5.367188 7.804688 -5.46875 7.484375 -5.46875 C 7.109375 -5.46875 6.8125 -5.347656 6.59375 -5.109375 C 6.382812 -4.878906 6.28125 -4.578125 6.28125 -4.203125 L 6.28125 0 L 4.75 0 L 4.75 -4.34375 C 4.75 -4.675781 4.644531 -4.945312 4.4375 -5.15625 C 4.226562 -5.363281 3.957031 -5.46875 3.625 -5.46875 C 3.28125 -5.46875 2.984375 -5.347656 2.734375 -5.109375 C 2.492188 -4.878906 2.375 -4.539062 2.375 -4.09375 L 2.375 0 Z M 0.828125 0 "/></g></g></g><g fill="#ffffff" fill-opacity="1"><g transform="translate(30.692334, 11.028899)"><g><path d="M 2.6875 0.140625 C 2.269531 0.140625 1.890625 0.0585938 1.546875 -0.09375 C 1.210938 -0.25 0.945312 -0.472656 0.75 -0.765625 C 0.550781 -1.066406 0.453125 -1.4375 0.453125 -1.875 C 0.453125 -2.375 0.570312 -2.765625 0.8125 -3.046875 C 1.0625 -3.328125 1.378906 -3.53125 1.765625 -3.65625 C 2.160156 -3.78125 2.570312 -3.863281 3 -3.90625 C 3.582031 -3.96875 4.003906 -4.023438 4.265625 -4.078125 C 4.523438 -4.128906 4.65625 -4.273438 4.65625 -4.515625 L 4.65625 -4.546875 C 4.65625 -4.867188 4.554688 -5.117188 4.359375 -5.296875 C 4.160156 -5.484375 3.867188 -5.578125 3.484375 -5.578125 C 3.097656 -5.578125 2.785156 -5.488281 2.546875 -5.3125 C 2.316406 -5.144531 2.164062 -4.953125 2.09375 -4.734375 L 0.640625 -5.03125 C 0.835938 -5.613281 1.191406 -6.046875 1.703125 -6.328125 C 2.210938 -6.617188 2.804688 -6.765625 3.484375 -6.765625 C 3.796875 -6.765625 4.113281 -6.726562 4.4375 -6.65625 C 4.757812 -6.582031 5.050781 -6.457031 5.3125 -6.28125 C 5.582031 -6.113281 5.796875 -5.878906 5.953125 -5.578125 C 6.117188 -5.285156 6.203125 -4.914062 6.203125 -4.46875 L 6.203125 0 L 4.71875 0 L 4.71875 -0.921875 L 4.65625 -0.921875 C 4.507812 -0.628906 4.273438 -0.378906 3.953125 -0.171875 C 3.628906 0.0351562 3.207031 0.140625 2.6875 0.140625 Z M 3.09375 -1.015625 C 3.570312 -1.015625 3.953125 -1.148438 4.234375 -1.421875 C 4.523438 -1.703125 4.671875 -2.03125 4.671875 -2.40625 L 4.671875 -3.1875 C 4.597656 -3.132812 4.46875 -3.085938 4.28125 -3.046875 C 4.09375 -3.003906 3.894531 -2.96875 3.6875 -2.9375 C 3.488281 -2.90625 3.320312 -2.878906 3.1875 -2.859375 C 2.832031 -2.804688 2.539062 -2.707031 2.3125 -2.5625 C 2.082031 -2.425781 1.96875 -2.203125 1.96875 -1.890625 C 1.96875 -1.609375 2.070312 -1.390625 2.28125 -1.234375 C 2.488281 -1.085938 2.757812 -1.015625 3.09375 -1.015625 Z M 3.09375 -1.015625 "/></g></g></g><g fill="#ffffff" fill-opacity="1"><g transform="translate(37.71854, 11.028899)"><g><path d="M 3.921875 -6.6875 L 3.921875 -5.46875 L 2.625 -5.46875 L 2.625 -1.890625 C 2.625 -1.640625 2.675781 -1.457031 2.78125 -1.34375 C 2.882812 -1.226562 3.054688 -1.171875 3.296875 -1.171875 C 3.359375 -1.171875 3.445312 -1.179688 3.5625 -1.203125 C 3.6875 -1.222656 3.785156 -1.238281 3.859375 -1.25 L 4.109375 -0.046875 C 3.929688 0.00390625 3.753906 0.0390625 3.578125 0.0625 C 3.398438 0.0820312 3.226562 0.09375 3.0625 0.09375 C 2.414062 0.09375 1.921875 -0.0664062 1.578125 -0.390625 C 1.242188 -0.710938 1.078125 -1.164062 1.078125 -1.75 L 1.078125 -5.46875 L 0.125 -5.46875 L 0.125 -6.6875 L 1.078125 -6.6875 L 1.078125 -8.28125 L 2.625 -8.28125 L 2.625 -6.6875 Z M 3.921875 -6.6875 "/></g></g></g><g fill="#ffffff" fill-opacity="1"><g transform="translate(42.038223, 11.028899)"><g><path d="M 0.828125 0 L 0.828125 -6.6875 L 2.375 -6.6875 L 2.375 0 Z M 1.59375 -7.625 C 1.351562 -7.625 1.144531 -7.707031 0.96875 -7.875 C 0.789062 -8.039062 0.703125 -8.242188 0.703125 -8.484375 C 0.703125 -8.722656 0.789062 -8.925781 0.96875 -9.09375 C 1.144531 -9.257812 1.351562 -9.34375 1.59375 -9.34375 C 1.851562 -9.34375 2.070312 -9.257812 2.25 -9.09375 C 2.425781 -8.925781 2.515625 -8.722656 2.515625 -8.484375 C 2.515625 -8.242188 2.425781 -8.039062 2.25 -7.875 C 2.070312 -7.707031 1.851562 -7.625 1.59375 -7.625 Z M 1.59375 -7.625 "/></g></g></g><g fill="#ffffff" fill-opacity="1"><g transform="translate(45.240644, 11.028899)"><g><path d="M 3.71875 0.140625 C 3.070312 0.140625 2.507812 -0.00390625 2.03125 -0.296875 C 1.550781 -0.585938 1.179688 -0.988281 0.921875 -1.5 C 0.660156 -2.019531 0.53125 -2.625 0.53125 -3.3125 C 0.53125 -4 0.660156 -4.601562 0.921875 -5.125 C 1.179688 -5.644531 1.550781 -6.046875 2.03125 -6.328125 C 2.507812 -6.617188 3.070312 -6.765625 3.71875 -6.765625 C 4.375 -6.765625 4.941406 -6.617188 5.421875 -6.328125 C 5.898438 -6.046875 6.269531 -5.644531 6.53125 -5.125 C 6.789062 -4.601562 6.921875 -4 6.921875 -3.3125 C 6.921875 -2.625 6.789062 -2.019531 6.53125 -1.5 C 6.269531 -0.988281 5.898438 -0.585938 5.421875 -0.296875 C 4.941406 -0.00390625 4.375 0.140625 3.71875 0.140625 Z M 3.71875 -1.125 C 4.082031 -1.125 4.382812 -1.21875 4.625 -1.40625 C 4.863281 -1.601562 5.039062 -1.867188 5.15625 -2.203125 C 5.28125 -2.535156 5.34375 -2.90625 5.34375 -3.3125 C 5.34375 -3.726562 5.28125 -4.097656 5.15625 -4.421875 C 5.039062 -4.753906 4.863281 -5.019531 4.625 -5.21875 C 4.382812 -5.414062 4.082031 -5.515625 3.71875 -5.515625 C 3.363281 -5.515625 3.066406 -5.414062 2.828125 -5.21875 C 2.585938 -5.019531 2.410156 -4.753906 2.296875 -4.421875 C 2.179688 -4.097656 2.125 -3.726562 2.125 -3.3125 C 2.125 -2.90625 2.179688 -2.535156 2.296875 -2.203125 C 2.410156 -1.867188 2.585938 -1.601562 2.828125 -1.40625 C 3.066406 -1.21875 3.363281 -1.125 3.71875 -1.125 Z M 3.71875 -1.125 "/></g></g></g><g fill="#ffffff" fill-opacity="1"><g transform="translate(52.691052, 11.028899)"><g><path d="M 2.375 -3.921875 L 2.375 0 L 0.828125 0 L 0.828125 -6.6875 L 2.296875 -6.6875 L 2.3125 -5.359375 C 2.707031 -6.296875 3.398438 -6.765625 4.390625 -6.765625 C 5.078125 -6.765625 5.628906 -6.546875 6.046875 -6.109375 C 6.460938 -5.671875 6.671875 -5.050781 6.671875 -4.25 L 6.671875 0 L 5.109375 0 L 5.109375 -4.015625 C 5.109375 -4.460938 4.992188 -4.8125 4.765625 -5.0625 C 4.535156 -5.320312 4.21875 -5.453125 3.8125 -5.453125 C 3.394531 -5.453125 3.050781 -5.316406 2.78125 -5.046875 C 2.507812 -4.773438 2.375 -4.398438 2.375 -3.921875 Z M 2.375 -3.921875 "/></g></g></g></g></g></svg>