<svg xmlns="http://www.w3.org/2000/svg" xmlns:xlink="http://www.w3.org/1999/xlink" width="274" zoomAndPan="magnify" viewBox="0 0 205.5 39.749999" height="53" preserveAspectRatio="xMidYMid meet" version="1.0"><defs><g/><clipPath id="9f23eb5c3d"><path d="M 0.394531 0 L 204 0 L 204 39.105469 L 0.394531 39.105469 Z M 0.394531 0 " clip-rule="nonzero"/></clipPath><clipPath id="0088f9930c"><path d="M 19.945312 0 L 184.347656 0 C 189.535156 0 194.507812 2.058594 198.175781 5.726562 C 201.839844 9.394531 203.902344 14.367188 203.902344 19.550781 C 203.902344 24.738281 201.839844 29.710938 198.175781 33.378906 C 194.507812 37.042969 189.535156 39.105469 184.347656 39.105469 L 19.945312 39.105469 C 14.761719 39.105469 9.789062 37.042969 6.121094 33.378906 C 2.453125 29.710938 0.394531 24.738281 0.394531 19.550781 C 0.394531 14.367188 2.453125 9.394531 6.121094 5.726562 C 9.789062 2.058594 14.761719 0 19.945312 0 Z M 19.945312 0 " clip-rule="nonzero"/></clipPath><clipPath id="382d4aab55"><path d="M 0.394531 0 L 204 0 L 204 39.105469 L 0.394531 39.105469 Z M 0.394531 0 " clip-rule="nonzero"/></clipPath><clipPath id="170fb2eeef"><path d="M 19.945312 0 L 184.347656 0 C 189.535156 0 194.507812 2.058594 198.175781 5.726562 C 201.839844 9.394531 203.902344 14.367188 203.902344 19.550781 C 203.902344 24.738281 201.839844 29.710938 198.175781 33.378906 C 194.507812 37.042969 189.535156 39.105469 184.347656 39.105469 L 19.945312 39.105469 C 14.761719 39.105469 9.789062 37.042969 6.121094 33.378906 C 2.453125 29.710938 0.394531 24.738281 0.394531 19.550781 C 0.394531 14.367188 2.453125 9.394531 6.121094 5.726562 C 9.789062 2.058594 14.761719 0 19.945312 0 Z M 19.945312 0 " clip-rule="nonzero"/></clipPath><clipPath id="4e33418dee"><rect x="0" width="204" y="0" height="40"/></clipPath><clipPath id="df56dbf956"><path d="M 0.421875 0 L 203.863281 0 L 203.863281 38.757812 L 0.421875 38.757812 Z M 0.421875 0 " clip-rule="nonzero"/></clipPath><clipPath id="fc3d9197dc"><path d="M 19.96875 0 L 184.324219 0 C 189.507812 0 194.480469 2.058594 198.148438 5.726562 C 201.8125 9.390625 203.871094 14.363281 203.871094 19.546875 C 203.871094 24.730469 201.8125 29.703125 198.148438 33.367188 C 194.480469 37.035156 189.507812 39.09375 184.324219 39.09375 L 19.96875 39.09375 C 14.785156 39.09375 9.8125 37.035156 6.144531 33.367188 C 2.480469 29.703125 0.421875 24.730469 0.421875 19.546875 C 0.421875 14.363281 2.480469 9.390625 6.144531 5.726562 C 9.8125 2.058594 14.785156 0 19.96875 0 Z M 19.96875 0 " clip-rule="nonzero"/></clipPath></defs><g clip-path="url(#9f23eb5c3d)"><g clip-path="url(#0088f9930c)"><g><g clip-path="url(#4e33418dee)"><g clip-path="url(#382d4aab55)"><g clip-path="url(#170fb2eeef)"><path fill="#5ec269" d="M 0.394531 0 L 203.859375 0 L 203.859375 39.105469 L 0.394531 39.105469 Z M 0.394531 0 " fill-opacity="1" fill-rule="nonzero"/></g></g></g></g></g></g><g clip-path="url(#df56dbf956)"><g clip-path="url(#fc3d9197dc)"><path stroke-linecap="butt" transform="matrix(0.745312, 0, 0, 0.745312, 0.393753, 0.000000000000005296)" fill="none" stroke-linejoin="miter" d="M 26.264149 -0.000000000000007105 L 246.783032 -0.000000000000007105 C 253.737959 -0.000000000000007105 260.409867 2.762055 265.331251 7.683439 C 270.247394 12.599582 273.009449 19.27149 273.009449 26.226417 C 273.009449 33.181344 270.247394 39.853252 265.331251 44.769395 C 260.409867 49.690779 253.737959 52.452834 246.783032 52.452834 L 26.264149 52.452834 C 19.309222 52.452834 12.637314 49.690779 7.71593 44.769395 C 2.799787 39.853252 0.0377324 33.181344 0.0377324 26.226417 C 0.0377324 19.27149 2.799787 12.599582 7.71593 7.683439 C 12.637314 2.762055 19.309222 -0.000000000000007105 26.264149 -0.000000000000007105 Z M 26.264149 -0.000000000000007105 " stroke="#7ee489" stroke-width="4" stroke-opacity="1" stroke-miterlimit="4"/></g></g><g fill="#151620" fill-opacity="1"><g transform="translate(52.115005, 24.595311)"><g><path d="M 0.734375 0 L 0.734375 -11.40625 L 3.828125 -11.40625 L 3.828125 -2.5 L 8.4375 -2.5 L 8.4375 0 Z M 0.734375 0 "/></g></g></g><g fill="#151620" fill-opacity="1"><g transform="translate(62.539053, 24.595311)"><g><path d="M 3.171875 0.140625 C 2.347656 0.140625 1.675781 -0.0625 1.15625 -0.46875 C 0.632812 -0.882812 0.375 -1.515625 0.375 -2.359375 C 0.375 -2.984375 0.515625 -3.488281 0.796875 -3.875 C 1.078125 -4.257812 1.453125 -4.546875 1.921875 -4.734375 C 2.398438 -4.921875 2.929688 -5.035156 3.515625 -5.078125 C 4.234375 -5.128906 4.742188 -5.203125 5.046875 -5.296875 C 5.347656 -5.398438 5.5 -5.578125 5.5 -5.828125 L 5.5 -5.859375 C 5.5 -6.078125 5.410156 -6.242188 5.234375 -6.359375 C 5.054688 -6.484375 4.820312 -6.546875 4.53125 -6.546875 C 4.238281 -6.546875 3.988281 -6.484375 3.78125 -6.359375 C 3.570312 -6.234375 3.441406 -6.039062 3.390625 -5.78125 L 0.625 -6.0625 C 0.707031 -6.539062 0.90625 -6.972656 1.21875 -7.359375 C 1.539062 -7.753906 1.976562 -8.066406 2.53125 -8.296875 C 3.09375 -8.535156 3.773438 -8.65625 4.578125 -8.65625 C 5.390625 -8.65625 6.09375 -8.53125 6.6875 -8.28125 C 7.289062 -8.039062 7.753906 -7.707031 8.078125 -7.28125 C 8.410156 -6.863281 8.578125 -6.390625 8.578125 -5.859375 L 8.578125 0 L 5.6875 0 L 5.6875 -1.203125 L 5.625 -1.203125 C 5.363281 -0.722656 5.023438 -0.378906 4.609375 -0.171875 C 4.203125 0.0351562 3.722656 0.140625 3.171875 0.140625 Z M 4.15625 -1.8125 C 4.507812 -1.8125 4.828125 -1.914062 5.109375 -2.125 C 5.390625 -2.34375 5.53125 -2.644531 5.53125 -3.03125 L 5.53125 -3.734375 C 5.207031 -3.609375 4.796875 -3.503906 4.296875 -3.421875 C 3.941406 -3.367188 3.679688 -3.265625 3.515625 -3.109375 C 3.359375 -2.953125 3.28125 -2.765625 3.28125 -2.546875 C 3.28125 -2.304688 3.359375 -2.125 3.515625 -2 C 3.679688 -1.875 3.894531 -1.8125 4.15625 -1.8125 Z M 4.15625 -1.8125 "/></g></g></g><g fill="#151620" fill-opacity="1"><g transform="translate(73.452576, 24.595311)"><g><path d="M 3.859375 -4.8125 L 3.859375 0 L 0.78125 0 L 0.78125 -8.5625 L 3.671875 -8.5625 L 3.71875 -6.625 C 3.925781 -7.207031 4.242188 -7.691406 4.671875 -8.078125 C 5.097656 -8.460938 5.675781 -8.65625 6.40625 -8.65625 C 7.019531 -8.65625 7.546875 -8.519531 7.984375 -8.25 C 8.429688 -7.976562 8.773438 -7.597656 9.015625 -7.109375 C 9.265625 -6.617188 9.390625 -6.066406 9.390625 -5.453125 L 9.390625 0 L 6.328125 0 L 6.328125 -4.8125 C 6.328125 -5.226562 6.21875 -5.554688 6 -5.796875 C 5.78125 -6.046875 5.476562 -6.171875 5.09375 -6.171875 C 4.71875 -6.171875 4.414062 -6.046875 4.1875 -5.796875 C 3.96875 -5.554688 3.859375 -5.226562 3.859375 -4.8125 Z M 3.859375 -4.8125 "/></g></g></g><g fill="#151620" fill-opacity="1"><g transform="translate(85.192089, 24.595311)"><g><path d="M 3.84375 0.109375 C 3.238281 0.109375 2.675781 -0.046875 2.15625 -0.359375 C 1.644531 -0.679688 1.234375 -1.164062 0.921875 -1.8125 C 0.617188 -2.46875 0.46875 -3.285156 0.46875 -4.265625 C 0.46875 -5.304688 0.628906 -6.148438 0.953125 -6.796875 C 1.273438 -7.441406 1.691406 -7.910156 2.203125 -8.203125 C 2.710938 -8.503906 3.25 -8.65625 3.8125 -8.65625 C 4.445312 -8.65625 4.960938 -8.5 5.359375 -8.1875 C 5.765625 -7.875 6.050781 -7.5 6.21875 -7.0625 L 6.265625 -7.0625 L 6.265625 -11.40625 L 9.328125 -11.40625 L 9.328125 0 L 6.296875 0 L 6.296875 -1.40625 L 6.21875 -1.40625 C 6.039062 -0.96875 5.75 -0.601562 5.34375 -0.3125 C 4.945312 -0.03125 4.445312 0.109375 3.84375 0.109375 Z M 4.96875 -2.25 C 5.394531 -2.25 5.726562 -2.429688 5.96875 -2.796875 C 6.21875 -3.160156 6.34375 -3.648438 6.34375 -4.265625 C 6.34375 -4.898438 6.21875 -5.398438 5.96875 -5.765625 C 5.726562 -6.128906 5.394531 -6.3125 4.96875 -6.3125 C 4.550781 -6.3125 4.222656 -6.128906 3.984375 -5.765625 C 3.753906 -5.398438 3.640625 -4.898438 3.640625 -4.265625 C 3.640625 -3.640625 3.753906 -3.144531 3.984375 -2.78125 C 4.222656 -2.425781 4.550781 -2.25 4.96875 -2.25 Z M 4.96875 -2.25 "/></g></g></g><g fill="#151620" fill-opacity="1"><g transform="translate(96.870417, 24.595311)"><g><path d="M 4.875 0.15625 C 3.507812 0.15625 2.429688 -0.234375 1.640625 -1.015625 C 0.859375 -1.796875 0.46875 -2.875 0.46875 -4.25 C 0.46875 -5.132812 0.644531 -5.90625 1 -6.5625 C 1.351562 -7.226562 1.851562 -7.742188 2.5 -8.109375 C 3.15625 -8.472656 3.925781 -8.65625 4.8125 -8.65625 C 5.664062 -8.65625 6.410156 -8.476562 7.046875 -8.125 C 7.691406 -7.769531 8.1875 -7.265625 8.53125 -6.609375 C 8.882812 -5.953125 9.0625 -5.171875 9.0625 -4.265625 L 9.0625 -3.5625 L 3.484375 -3.5625 C 3.503906 -3.03125 3.644531 -2.632812 3.90625 -2.375 C 4.175781 -2.125 4.519531 -2 4.9375 -2 C 5.257812 -2 5.53125 -2.0625 5.75 -2.1875 C 5.976562 -2.320312 6.140625 -2.507812 6.234375 -2.75 L 8.9375 -2.34375 C 8.71875 -1.570312 8.257812 -0.960938 7.5625 -0.515625 C 6.863281 -0.0664062 5.96875 0.15625 4.875 0.15625 Z M 3.515625 -5.25 L 6.15625 -5.25 C 6.0625 -6.082031 5.625 -6.5 4.84375 -6.5 C 4.050781 -6.5 3.609375 -6.082031 3.515625 -5.25 Z M 3.515625 -5.25 "/></g></g></g><g fill="#151620" fill-opacity="1"><g transform="translate(107.936901, 24.595311)"><g><path d="M 4.59375 0.15625 C 3.4375 0.15625 2.484375 -0.0820312 1.734375 -0.5625 C 0.992188 -1.050781 0.546875 -1.71875 0.390625 -2.5625 L 3.25 -2.984375 C 3.34375 -2.640625 3.503906 -2.375 3.734375 -2.1875 C 3.972656 -2.007812 4.304688 -1.921875 4.734375 -1.921875 C 5.367188 -1.921875 5.6875 -2.101562 5.6875 -2.46875 C 5.6875 -2.769531 5.363281 -2.976562 4.71875 -3.09375 L 3.203125 -3.359375 C 1.460938 -3.671875 0.59375 -4.507812 0.59375 -5.875 C 0.59375 -6.769531 0.941406 -7.457031 1.640625 -7.9375 C 2.347656 -8.414062 3.316406 -8.65625 4.546875 -8.65625 C 5.679688 -8.65625 6.597656 -8.4375 7.296875 -8 C 7.992188 -7.570312 8.410156 -6.96875 8.546875 -6.1875 L 5.828125 -5.796875 C 5.765625 -6.078125 5.617188 -6.28125 5.390625 -6.40625 C 5.171875 -6.539062 4.910156 -6.609375 4.609375 -6.609375 C 4.335938 -6.609375 4.109375 -6.5625 3.921875 -6.46875 C 3.742188 -6.375 3.65625 -6.238281 3.65625 -6.0625 C 3.65625 -5.9375 3.707031 -5.816406 3.8125 -5.703125 C 3.925781 -5.585938 4.144531 -5.503906 4.46875 -5.453125 L 6.21875 -5.140625 C 7.945312 -4.835938 8.8125 -4.066406 8.8125 -2.828125 C 8.8125 -2.210938 8.628906 -1.679688 8.265625 -1.234375 C 7.898438 -0.796875 7.398438 -0.453125 6.765625 -0.203125 C 6.140625 0.0351562 5.414062 0.15625 4.59375 0.15625 Z M 4.59375 0.15625 "/></g></g></g><g fill="#151620" fill-opacity="1"><g transform="translate(118.71276, 24.595311)"><g><path d="M 3.859375 -11.40625 L 3.859375 0 L 0.78125 0 L 0.78125 -11.40625 Z M 3.859375 -11.40625 "/></g></g></g><g fill="#151620" fill-opacity="1"><g transform="translate(124.915084, 24.595311)"><g><path d="M 0.78125 0 L 0.78125 -8.5625 L 3.859375 -8.5625 L 3.859375 0 Z M 2.3125 -9.421875 C 1.882812 -9.421875 1.523438 -9.554688 1.234375 -9.828125 C 0.941406 -10.109375 0.796875 -10.441406 0.796875 -10.828125 C 0.796875 -11.222656 0.941406 -11.554688 1.234375 -11.828125 C 1.523438 -12.109375 1.882812 -12.25 2.3125 -12.25 C 2.726562 -12.25 3.082031 -12.109375 3.375 -11.828125 C 3.675781 -11.554688 3.828125 -11.222656 3.828125 -10.828125 C 3.828125 -10.441406 3.675781 -10.109375 3.375 -9.828125 C 3.082031 -9.554688 2.726562 -9.421875 2.3125 -9.421875 Z M 2.3125 -9.421875 "/></g></g></g><g fill="#151620" fill-opacity="1"><g transform="translate(131.117408, 24.595311)"><g><path d="M 4.859375 3.375 C 3.691406 3.375 2.742188 3.15625 2.015625 2.71875 C 1.296875 2.289062 0.875 1.710938 0.75 0.984375 L 3.453125 0.578125 C 3.492188 0.804688 3.640625 0.984375 3.890625 1.109375 C 4.140625 1.242188 4.457031 1.3125 4.84375 1.3125 C 5.84375 1.3125 6.34375 0.867188 6.34375 -0.015625 L 6.34375 -1.46875 L 6.109375 -1.46875 C 5.953125 -1.03125 5.675781 -0.691406 5.28125 -0.453125 C 4.894531 -0.222656 4.414062 -0.109375 3.84375 -0.109375 C 3.238281 -0.109375 2.679688 -0.25 2.171875 -0.53125 C 1.660156 -0.8125 1.25 -1.257812 0.9375 -1.875 C 0.625 -2.488281 0.46875 -3.285156 0.46875 -4.265625 C 0.46875 -5.304688 0.628906 -6.148438 0.953125 -6.796875 C 1.285156 -7.441406 1.707031 -7.910156 2.21875 -8.203125 C 2.726562 -8.503906 3.265625 -8.65625 3.828125 -8.65625 C 4.460938 -8.65625 4.984375 -8.5 5.390625 -8.1875 C 5.796875 -7.875 6.085938 -7.5 6.265625 -7.0625 L 6.328125 -7.0625 L 6.328125 -8.5625 L 9.359375 -8.5625 L 9.359375 -0.328125 C 9.359375 0.472656 9.171875 1.148438 8.796875 1.703125 C 8.421875 2.253906 7.894531 2.671875 7.21875 2.953125 C 6.550781 3.234375 5.765625 3.375 4.859375 3.375 Z M 4.96875 -2.296875 C 5.394531 -2.296875 5.726562 -2.46875 5.96875 -2.8125 C 6.21875 -3.164062 6.34375 -3.648438 6.34375 -4.265625 C 6.34375 -4.898438 6.21875 -5.398438 5.96875 -5.765625 C 5.726562 -6.128906 5.394531 -6.3125 4.96875 -6.3125 C 4.550781 -6.3125 4.222656 -6.128906 3.984375 -5.765625 C 3.753906 -5.398438 3.640625 -4.898438 3.640625 -4.265625 C 3.640625 -3.640625 3.753906 -3.15625 3.984375 -2.8125 C 4.222656 -2.46875 4.550781 -2.296875 4.96875 -2.296875 Z M 4.96875 -2.296875 "/></g></g></g><g fill="#151620" fill-opacity="1"><g transform="translate(142.826328, 24.595311)"><g><path d="M 3.171875 0.140625 C 2.347656 0.140625 1.675781 -0.0625 1.15625 -0.46875 C 0.632812 -0.882812 0.375 -1.515625 0.375 -2.359375 C 0.375 -2.984375 0.515625 -3.488281 0.796875 -3.875 C 1.078125 -4.257812 1.453125 -4.546875 1.921875 -4.734375 C 2.398438 -4.921875 2.929688 -5.035156 3.515625 -5.078125 C 4.234375 -5.128906 4.742188 -5.203125 5.046875 -5.296875 C 5.347656 -5.398438 5.5 -5.578125 5.5 -5.828125 L 5.5 -5.859375 C 5.5 -6.078125 5.410156 -6.242188 5.234375 -6.359375 C 5.054688 -6.484375 4.820312 -6.546875 4.53125 -6.546875 C 4.238281 -6.546875 3.988281 -6.484375 3.78125 -6.359375 C 3.570312 -6.234375 3.441406 -6.039062 3.390625 -5.78125 L 0.625 -6.0625 C 0.707031 -6.539062 0.90625 -6.972656 1.21875 -7.359375 C 1.539062 -7.753906 1.976562 -8.066406 2.53125 -8.296875 C 3.09375 -8.535156 3.773438 -8.65625 4.578125 -8.65625 C 5.390625 -8.65625 6.09375 -8.53125 6.6875 -8.28125 C 7.289062 -8.039062 7.753906 -7.707031 8.078125 -7.28125 C 8.410156 -6.863281 8.578125 -6.390625 8.578125 -5.859375 L 8.578125 0 L 5.6875 0 L 5.6875 -1.203125 L 5.625 -1.203125 C 5.363281 -0.722656 5.023438 -0.378906 4.609375 -0.171875 C 4.203125 0.0351562 3.722656 0.140625 3.171875 0.140625 Z M 4.15625 -1.8125 C 4.507812 -1.8125 4.828125 -1.914062 5.109375 -2.125 C 5.390625 -2.34375 5.53125 -2.644531 5.53125 -3.03125 L 5.53125 -3.734375 C 5.207031 -3.609375 4.796875 -3.503906 4.296875 -3.421875 C 3.941406 -3.367188 3.679688 -3.265625 3.515625 -3.109375 C 3.359375 -2.953125 3.28125 -2.765625 3.28125 -2.546875 C 3.28125 -2.304688 3.359375 -2.125 3.515625 -2 C 3.679688 -1.875 3.894531 -1.8125 4.15625 -1.8125 Z M 4.15625 -1.8125 "/></g></g></g></svg>