<svg xmlns="http://www.w3.org/2000/svg" xmlns:xlink="http://www.w3.org/1999/xlink" width="274" zoomAndPan="magnify" viewBox="0 0 205.5 38.999999" height="52" preserveAspectRatio="xMidYMid meet" version="1.0"><defs><g/><clipPath id="35a4f200cb"><path d="M 0 0.046875 L 204.328125 0.046875 L 204.328125 38.285156 L 0 38.285156 Z M 0 0.046875 " clip-rule="nonzero"/></clipPath><clipPath id="37b4e068d2"><path d="M 19.117188 0.046875 L 185.171875 0.046875 C 195.730469 0.046875 204.289062 8.605469 204.289062 19.164062 C 204.289062 29.726562 195.730469 38.285156 185.171875 38.285156 L 19.117188 38.285156 C 8.558594 38.285156 0 29.726562 0 19.164062 C 0 8.605469 8.558594 0.046875 19.117188 0.046875 Z M 19.117188 0.046875 " clip-rule="nonzero"/></clipPath><clipPath id="a6f49c3933"><path d="M 0 0.046875 L 204.328125 0.046875 L 204.328125 38.285156 L 0 38.285156 Z M 0 0.046875 " clip-rule="nonzero"/></clipPath><clipPath id="5ac155b01f"><path d="M 19.117188 0.046875 L 185.171875 0.046875 C 195.730469 0.046875 204.289062 8.605469 204.289062 19.164062 C 204.289062 29.726562 195.730469 38.285156 185.171875 38.285156 L 19.117188 38.285156 C 8.558594 38.285156 0 29.726562 0 19.164062 C 0 8.605469 8.558594 0.046875 19.117188 0.046875 Z M 19.117188 0.046875 " clip-rule="nonzero"/></clipPath><clipPath id="1f5d52d591"><rect x="0" width="205" y="0" height="39"/></clipPath><clipPath id="08b380b853"><path d="M 0.0234375 0.046875 L 204.253906 0.046875 L 204.253906 38.203125 L 0.0234375 38.203125 Z M 0.0234375 0.046875 " clip-rule="nonzero"/></clipPath><clipPath id="cff28baf3e"><path d="M 19.136719 0.046875 L 185.148438 0.046875 C 195.707031 0.046875 204.261719 8.605469 204.261719 19.160156 C 204.261719 29.71875 195.707031 38.273438 185.148438 38.273438 L 19.136719 38.273438 C 8.582031 38.273438 0.0234375 29.71875 0.0234375 19.160156 C 0.0234375 8.605469 8.582031 0.046875 19.136719 0.046875 Z M 19.136719 0.046875 " clip-rule="nonzero"/></clipPath></defs><g clip-path="url(#35a4f200cb)"><g clip-path="url(#37b4e068d2)"><g transform="matrix(1, 0, 0, 1, 0, 0.000000000000004434)"><g clip-path="url(#1f5d52d591)"><g clip-path="url(#a6f49c3933)"><g clip-path="url(#5ac155b01f)"><path fill="#382123" d="M 0 0.046875 L 204.328125 0.046875 L 204.328125 38.285156 L 0 38.285156 Z M 0 0.046875 " fill-opacity="1" fill-rule="nonzero"/></g></g></g></g></g></g><g clip-path="url(#08b380b853)"><g clip-path="url(#cff28baf3e)"><path stroke-linecap="butt" transform="matrix(0.74818, 0, 0, 0.74818, -0.0000000017838, 0.0473296)" fill="none" stroke-linejoin="miter" d="M 25.577706 -0.000607604 L 247.465222 -0.000607604 C 261.5776 -0.000607604 273.011602 11.438616 273.011602 25.545773 C 273.011602 39.658151 261.5776 51.092153 247.465222 51.092153 L 25.577706 51.092153 C 11.470549 51.092153 0.031326 39.658151 0.031326 25.545773 C 0.031326 11.438616 11.470549 -0.000607604 25.577706 -0.000607604 Z M 25.577706 -0.000607604 " stroke="#da4140" stroke-width="4" stroke-opacity="1" stroke-miterlimit="4"/></g></g><g fill="#da4140" fill-opacity="1"><g transform="translate(47.664946, 23.989076)"><g><path d="M 0.734375 0 L 0.734375 -11.453125 L 4.125 -11.453125 L 6.84375 -6.953125 C 7.132812 -6.484375 7.398438 -6.007812 7.640625 -5.53125 C 7.878906 -5.050781 8.113281 -4.488281 8.34375 -3.84375 C 8.3125 -4.425781 8.273438 -5.035156 8.234375 -5.671875 C 8.191406 -6.304688 8.171875 -6.832031 8.171875 -7.25 L 8.171875 -11.453125 L 11.375 -11.453125 L 11.375 0 L 7.984375 0 L 5.453125 -4.171875 C 5.097656 -4.765625 4.796875 -5.304688 4.546875 -5.796875 C 4.296875 -6.296875 4.03125 -6.863281 3.75 -7.5 C 3.800781 -6.84375 3.84375 -6.21875 3.875 -5.625 C 3.914062 -5.039062 3.9375 -4.554688 3.9375 -4.171875 L 3.9375 0 Z M 0.734375 0 "/></g></g></g><g fill="#da4140" fill-opacity="1"><g transform="translate(61.338278, 23.989076)"><g><path d="M 4.90625 0.15625 C 3.519531 0.15625 2.429688 -0.234375 1.640625 -1.015625 C 0.859375 -1.796875 0.46875 -2.878906 0.46875 -4.265625 C 0.46875 -5.148438 0.644531 -5.925781 1 -6.59375 C 1.363281 -7.257812 1.867188 -7.773438 2.515625 -8.140625 C 3.171875 -8.515625 3.941406 -8.703125 4.828125 -8.703125 C 5.691406 -8.703125 6.441406 -8.519531 7.078125 -8.15625 C 7.722656 -7.800781 8.21875 -7.296875 8.5625 -6.640625 C 8.914062 -5.984375 9.09375 -5.195312 9.09375 -4.28125 L 9.09375 -3.578125 L 3.5 -3.578125 C 3.519531 -3.046875 3.660156 -2.648438 3.921875 -2.390625 C 4.191406 -2.140625 4.539062 -2.015625 4.96875 -2.015625 C 5.28125 -2.015625 5.546875 -2.078125 5.765625 -2.203125 C 5.992188 -2.335938 6.15625 -2.523438 6.25 -2.765625 L 8.96875 -2.359375 C 8.75 -1.585938 8.289062 -0.972656 7.59375 -0.515625 C 6.894531 -0.0664062 6 0.15625 4.90625 0.15625 Z M 3.53125 -5.265625 L 6.1875 -5.265625 C 6.082031 -6.109375 5.640625 -6.53125 4.859375 -6.53125 C 4.066406 -6.53125 3.625 -6.109375 3.53125 -5.265625 Z M 3.53125 -5.265625 "/></g></g></g><g fill="#da4140" fill-opacity="1"><g transform="translate(72.447333, 23.989076)"><g><path d="M 3.78125 0.109375 C 3.175781 0.109375 2.644531 -0.0234375 2.1875 -0.296875 C 1.738281 -0.578125 1.390625 -0.960938 1.140625 -1.453125 C 0.898438 -1.941406 0.78125 -2.5 0.78125 -3.125 L 0.78125 -8.59375 L 3.875 -8.59375 L 3.875 -3.765625 C 3.875 -3.335938 3.976562 -3 4.1875 -2.75 C 4.40625 -2.507812 4.707031 -2.390625 5.09375 -2.390625 C 5.476562 -2.390625 5.78125 -2.507812 6 -2.75 C 6.226562 -3 6.34375 -3.335938 6.34375 -3.765625 L 6.34375 -8.59375 L 9.4375 -8.59375 L 9.4375 0 L 6.53125 0 L 6.484375 -1.9375 C 6.273438 -1.351562 5.953125 -0.863281 5.515625 -0.46875 C 5.085938 -0.0820312 4.507812 0.109375 3.78125 0.109375 Z M 3.78125 0.109375 "/></g></g></g><g fill="#da4140" fill-opacity="1"><g transform="translate(84.232007, 23.989076)"><g><path d="M 4.90625 0.15625 C 3.519531 0.15625 2.429688 -0.234375 1.640625 -1.015625 C 0.859375 -1.796875 0.46875 -2.878906 0.46875 -4.265625 C 0.46875 -5.148438 0.644531 -5.925781 1 -6.59375 C 1.363281 -7.257812 1.867188 -7.773438 2.515625 -8.140625 C 3.171875 -8.515625 3.941406 -8.703125 4.828125 -8.703125 C 5.691406 -8.703125 6.441406 -8.519531 7.078125 -8.15625 C 7.722656 -7.800781 8.21875 -7.296875 8.5625 -6.640625 C 8.914062 -5.984375 9.09375 -5.195312 9.09375 -4.28125 L 9.09375 -3.578125 L 3.5 -3.578125 C 3.519531 -3.046875 3.660156 -2.648438 3.921875 -2.390625 C 4.191406 -2.140625 4.539062 -2.015625 4.96875 -2.015625 C 5.28125 -2.015625 5.546875 -2.078125 5.765625 -2.203125 C 5.992188 -2.335938 6.15625 -2.523438 6.25 -2.765625 L 8.96875 -2.359375 C 8.75 -1.585938 8.289062 -0.972656 7.59375 -0.515625 C 6.894531 -0.0664062 6 0.15625 4.90625 0.15625 Z M 3.53125 -5.265625 L 6.1875 -5.265625 C 6.082031 -6.109375 5.640625 -6.53125 4.859375 -6.53125 C 4.066406 -6.53125 3.625 -6.109375 3.53125 -5.265625 Z M 3.53125 -5.265625 "/></g></g></g><g fill="#da4140" fill-opacity="1"><g transform="translate(95.341062, 23.989076)"><g><path d="M 4.625 0.15625 C 3.445312 0.15625 2.484375 -0.0859375 1.734375 -0.578125 C 0.992188 -1.066406 0.550781 -1.734375 0.40625 -2.578125 L 3.25 -2.984375 C 3.351562 -2.648438 3.519531 -2.390625 3.75 -2.203125 C 3.988281 -2.023438 4.320312 -1.9375 4.75 -1.9375 C 5.394531 -1.9375 5.71875 -2.113281 5.71875 -2.46875 C 5.71875 -2.769531 5.390625 -2.984375 4.734375 -3.109375 L 3.21875 -3.375 C 1.46875 -3.6875 0.59375 -4.53125 0.59375 -5.90625 C 0.59375 -6.800781 0.945312 -7.488281 1.65625 -7.96875 C 2.363281 -8.457031 3.332031 -8.703125 4.5625 -8.703125 C 5.695312 -8.703125 6.613281 -8.484375 7.3125 -8.046875 C 8.019531 -7.609375 8.441406 -7 8.578125 -6.21875 L 5.859375 -5.828125 C 5.785156 -6.109375 5.632812 -6.3125 5.40625 -6.4375 C 5.1875 -6.570312 4.925781 -6.640625 4.625 -6.640625 C 4.351562 -6.640625 4.125 -6.59375 3.9375 -6.5 C 3.757812 -6.40625 3.671875 -6.265625 3.671875 -6.078125 C 3.671875 -5.953125 3.722656 -5.832031 3.828125 -5.71875 C 3.941406 -5.601562 4.160156 -5.519531 4.484375 -5.46875 L 6.234375 -5.15625 C 7.972656 -4.851562 8.84375 -4.082031 8.84375 -2.84375 C 8.84375 -2.226562 8.660156 -1.695312 8.296875 -1.25 C 7.929688 -0.800781 7.429688 -0.453125 6.796875 -0.203125 C 6.160156 0.0351562 5.4375 0.15625 4.625 0.15625 Z M 4.625 0.15625 "/></g></g></g><g fill="#da4140" fill-opacity="1"><g transform="translate(106.158374, 23.989076)"><g/></g></g><g fill="#da4140" fill-opacity="1"><g transform="translate(110.864419, 23.989076)"><g><path d="M 5.390625 0.140625 C 4.398438 0.140625 3.535156 -0.00390625 2.796875 -0.296875 C 2.054688 -0.597656 1.476562 -1.054688 1.0625 -1.671875 C 0.65625 -2.285156 0.453125 -3.070312 0.453125 -4.03125 L 3.390625 -4.03125 C 3.421875 -3.5 3.601562 -3.09375 3.9375 -2.8125 C 4.28125 -2.539062 4.75 -2.40625 5.34375 -2.40625 C 5.84375 -2.40625 6.222656 -2.492188 6.484375 -2.671875 C 6.742188 -2.859375 6.875 -3.09375 6.875 -3.375 C 6.875 -3.632812 6.742188 -3.847656 6.484375 -4.015625 C 6.222656 -4.191406 5.773438 -4.347656 5.140625 -4.484375 L 4 -4.734375 C 2.988281 -4.953125 2.191406 -5.316406 1.609375 -5.828125 C 1.023438 -6.347656 0.734375 -7.054688 0.734375 -7.953125 C 0.734375 -8.679688 0.929688 -9.316406 1.328125 -9.859375 C 1.722656 -10.410156 2.265625 -10.835938 2.953125 -11.140625 C 3.648438 -11.441406 4.453125 -11.59375 5.359375 -11.59375 C 6.285156 -11.59375 7.085938 -11.4375 7.765625 -11.125 C 8.441406 -10.820312 8.960938 -10.390625 9.328125 -9.828125 C 9.691406 -9.265625 9.875 -8.613281 9.875 -7.875 L 6.90625 -7.875 C 6.875 -8.238281 6.734375 -8.523438 6.484375 -8.734375 C 6.234375 -8.941406 5.859375 -9.046875 5.359375 -9.046875 C 4.878906 -9.046875 4.53125 -8.960938 4.3125 -8.796875 C 4.09375 -8.640625 3.984375 -8.429688 3.984375 -8.171875 C 3.984375 -7.898438 4.101562 -7.679688 4.34375 -7.515625 C 4.582031 -7.347656 4.972656 -7.203125 5.515625 -7.078125 L 6.453125 -6.890625 C 7.710938 -6.617188 8.625 -6.179688 9.1875 -5.578125 C 9.75 -4.984375 10.03125 -4.25 10.03125 -3.375 C 10.03125 -2.25 9.617188 -1.378906 8.796875 -0.765625 C 7.972656 -0.160156 6.835938 0.140625 5.390625 0.140625 Z M 5.390625 0.140625 "/></g></g></g><g fill="#da4140" fill-opacity="1"><g transform="translate(122.910126, 23.989076)"><g><path d="M 0.78125 3.21875 L 0.78125 -8.59375 L 3.84375 -8.59375 L 3.84375 -7.078125 L 3.921875 -7.078125 C 4.085938 -7.523438 4.367188 -7.90625 4.765625 -8.21875 C 5.171875 -8.539062 5.691406 -8.703125 6.328125 -8.703125 C 6.898438 -8.703125 7.441406 -8.550781 7.953125 -8.25 C 8.460938 -7.945312 8.878906 -7.46875 9.203125 -6.8125 C 9.523438 -6.164062 9.6875 -5.320312 9.6875 -4.28125 C 9.6875 -3.289062 9.53125 -2.472656 9.21875 -1.828125 C 8.914062 -1.179688 8.503906 -0.695312 7.984375 -0.375 C 7.472656 -0.0507812 6.910156 0.109375 6.296875 0.109375 C 5.691406 0.109375 5.1875 -0.0351562 4.78125 -0.328125 C 4.382812 -0.617188 4.097656 -0.976562 3.921875 -1.40625 L 3.875 -1.40625 L 3.875 3.21875 Z M 5.15625 -2.265625 C 5.582031 -2.265625 5.910156 -2.441406 6.140625 -2.796875 C 6.378906 -3.148438 6.5 -3.644531 6.5 -4.28125 C 6.5 -4.925781 6.378906 -5.425781 6.140625 -5.78125 C 5.910156 -6.144531 5.582031 -6.328125 5.15625 -6.328125 C 4.738281 -6.328125 4.40625 -6.144531 4.15625 -5.78125 C 3.914062 -5.425781 3.796875 -4.925781 3.796875 -4.28125 C 3.796875 -3.664062 3.914062 -3.175781 4.15625 -2.8125 C 4.40625 -2.445312 4.738281 -2.265625 5.15625 -2.265625 Z M 5.15625 -2.265625 "/></g></g></g><g fill="#da4140" fill-opacity="1"><g transform="translate(134.633379, 23.989076)"><g><path d="M 0.78125 0 L 0.78125 -8.59375 L 3.875 -8.59375 L 3.875 0 Z M 2.3125 -9.46875 C 1.894531 -9.46875 1.535156 -9.601562 1.234375 -9.875 C 0.941406 -10.15625 0.796875 -10.488281 0.796875 -10.875 C 0.796875 -11.269531 0.941406 -11.601562 1.234375 -11.875 C 1.535156 -12.15625 1.894531 -12.296875 2.3125 -12.296875 C 2.738281 -12.296875 3.097656 -12.15625 3.390625 -11.875 C 3.691406 -11.601562 3.84375 -11.269531 3.84375 -10.875 C 3.84375 -10.488281 3.691406 -10.15625 3.390625 -9.875 C 3.097656 -9.601562 2.738281 -9.46875 2.3125 -9.46875 Z M 2.3125 -9.46875 "/></g></g></g><g fill="#da4140" fill-opacity="1"><g transform="translate(140.859563, 23.989076)"><g><path d="M 4.90625 0.15625 C 3.519531 0.15625 2.429688 -0.234375 1.640625 -1.015625 C 0.859375 -1.796875 0.46875 -2.878906 0.46875 -4.265625 C 0.46875 -5.148438 0.644531 -5.925781 1 -6.59375 C 1.363281 -7.257812 1.867188 -7.773438 2.515625 -8.140625 C 3.171875 -8.515625 3.941406 -8.703125 4.828125 -8.703125 C 5.691406 -8.703125 6.441406 -8.519531 7.078125 -8.15625 C 7.722656 -7.800781 8.21875 -7.296875 8.5625 -6.640625 C 8.914062 -5.984375 9.09375 -5.195312 9.09375 -4.28125 L 9.09375 -3.578125 L 3.5 -3.578125 C 3.519531 -3.046875 3.660156 -2.648438 3.921875 -2.390625 C 4.191406 -2.140625 4.539062 -2.015625 4.96875 -2.015625 C 5.28125 -2.015625 5.546875 -2.078125 5.765625 -2.203125 C 5.992188 -2.335938 6.15625 -2.523438 6.25 -2.765625 L 8.96875 -2.359375 C 8.75 -1.585938 8.289062 -0.972656 7.59375 -0.515625 C 6.894531 -0.0664062 6 0.15625 4.90625 0.15625 Z M 3.53125 -5.265625 L 6.1875 -5.265625 C 6.082031 -6.109375 5.640625 -6.53125 4.859375 -6.53125 C 4.066406 -6.53125 3.625 -6.109375 3.53125 -5.265625 Z M 3.53125 -5.265625 "/></g></g></g><g fill="#da4140" fill-opacity="1"><g transform="translate(151.968619, 23.989076)"><g><path d="M 3.875 -11.453125 L 3.875 0 L 0.78125 0 L 0.78125 -11.453125 Z M 3.875 -11.453125 "/></g></g></g></svg>