<svg xmlns="http://www.w3.org/2000/svg" xmlns:xlink="http://www.w3.org/1999/xlink" width="50" zoomAndPan="magnify" viewBox="0 0 37.5 20.25" height="27" preserveAspectRatio="xMidYMid meet" version="1.0"><defs><g/><clipPath id="e34495d7bf"><path d="M 0.429688 0 L 36.257812 0 L 36.257812 19.515625 L 0.429688 19.515625 Z M 0.429688 0 " clip-rule="nonzero"/></clipPath><clipPath id="a55cb45bdb"><path d="M 10.1875 0 L 26.445312 0 C 29.035156 0 31.515625 1.027344 33.347656 2.859375 C 35.175781 4.6875 36.203125 7.167969 36.203125 9.757812 C 36.203125 12.34375 35.175781 14.828125 33.347656 16.65625 C 31.515625 18.488281 29.035156 19.515625 26.445312 19.515625 L 10.1875 19.515625 C 7.597656 19.515625 5.117188 18.488281 3.285156 16.65625 C 1.457031 14.828125 0.429688 12.34375 0.429688 9.757812 C 0.429688 7.167969 1.457031 4.6875 3.285156 2.859375 C 5.117188 1.027344 7.597656 0 10.1875 0 Z M 10.1875 0 " clip-rule="nonzero"/></clipPath><clipPath id="a4d339b221"><path d="M 0.429688 0 L 36.257812 0 L 36.257812 19.515625 L 0.429688 19.515625 Z M 0.429688 0 " clip-rule="nonzero"/></clipPath><clipPath id="226bfa9dc3"><path d="M 10.1875 0 L 26.445312 0 C 29.035156 0 31.515625 1.027344 33.347656 2.859375 C 35.175781 4.6875 36.203125 7.167969 36.203125 9.757812 C 36.203125 12.34375 35.175781 14.828125 33.347656 16.65625 C 31.515625 18.488281 29.035156 19.515625 26.445312 19.515625 L 10.1875 19.515625 C 7.597656 19.515625 5.117188 18.488281 3.285156 16.65625 C 1.457031 14.828125 0.429688 12.34375 0.429688 9.757812 C 0.429688 7.167969 1.457031 4.6875 3.285156 2.859375 C 5.117188 1.027344 7.597656 0 10.1875 0 Z M 10.1875 0 " clip-rule="nonzero"/></clipPath><clipPath id="70033d612a"><rect x="0" width="37" y="0" height="20"/></clipPath><clipPath id="3192049b8b"><path d="M 0.433594 0 L 35.867188 0 L 35.867188 19.527344 L 0.433594 19.527344 Z M 0.433594 0 " clip-rule="nonzero"/></clipPath><clipPath id="e06090c3a3"><path d="M 10.183594 0 L 26.4375 0 C 29.023438 0 31.503906 1.027344 33.332031 2.855469 C 35.160156 4.683594 36.1875 7.164062 36.1875 9.753906 C 36.1875 12.339844 35.160156 14.820312 33.332031 16.648438 C 31.503906 18.476562 29.023438 19.503906 26.4375 19.503906 L 10.183594 19.503906 C 7.597656 19.503906 5.117188 18.476562 3.289062 16.648438 C 1.460938 14.820312 0.433594 12.339844 0.433594 9.753906 C 0.433594 7.164062 1.460938 4.683594 3.289062 2.855469 C 5.117188 1.027344 7.597656 0 10.183594 0 Z M 10.183594 0 " clip-rule="nonzero"/></clipPath></defs><g clip-path="url(#e34495d7bf)"><g clip-path="url(#a55cb45bdb)"><g transform="matrix(1, 0, 0, 1, 0.000000000000000056, 0)"><g clip-path="url(#70033d612a)"><g clip-path="url(#a4d339b221)"><g clip-path="url(#226bfa9dc3)"><path fill="#151620" d="M 0.429688 0 L 36.179688 0 L 36.179688 19.515625 L 0.429688 19.515625 Z M 0.429688 0 " fill-opacity="1" fill-rule="nonzero"/></g></g></g></g></g></g><g clip-path="url(#3192049b8b)"><g clip-path="url(#e06090c3a3)"><path stroke-linecap="butt" transform="matrix(0.723214, 0, 0, 0.723214, 0.428572, 0.000000000000059096)" fill="none" stroke-linejoin="miter" d="M 13.488425 -0.000000000000081712 L 35.962962 -0.000000000000081712 C 39.53858 -0.000000000000081712 42.968364 1.420525 45.496141 3.948302 C 48.023919 6.47608 49.444444 9.905864 49.444444 13.486883 C 49.444444 17.0625 48.023919 20.492284 45.496141 23.020062 C 42.968364 25.547839 39.53858 26.968364 35.962962 26.968364 L 13.488425 26.968364 C 9.912808 26.968364 6.483024 25.547839 3.955246 23.020062 C 1.427469 20.492284 0.00694394 17.0625 0.00694394 13.486883 C 0.00694394 9.905864 1.427469 6.47608 3.955246 3.948302 C 6.483024 1.420525 9.912808 -0.000000000000081712 13.488425 -0.000000000000081712 Z M 13.488425 -0.000000000000081712 " stroke="#5ec269" stroke-width="4" stroke-opacity="1" stroke-miterlimit="4"/></g></g><g fill="#5ec269" fill-opacity="1"><g transform="translate(13.163923, 11.571428)"><g><path d="M 0.265625 0 L 0.265625 -4.21875 L 1.421875 -4.21875 L 1.421875 -0.921875 L 3.125 -0.921875 L 3.125 0 Z M 0.265625 0 "/></g></g></g><g fill="#5ec269" fill-opacity="1"><g transform="translate(16.042169, 11.571428)"><g><path d="M 1.25 0 L 0.125 -4.21875 L 1.40625 -4.21875 L 1.75 -2.578125 C 1.789062 -2.378906 1.828125 -2.160156 1.859375 -1.921875 C 1.890625 -1.691406 1.921875 -1.457031 1.953125 -1.21875 C 1.992188 -1.457031 2.03125 -1.691406 2.0625 -1.921875 C 2.101562 -2.160156 2.144531 -2.378906 2.1875 -2.578125 L 2.5625 -4.21875 L 3.703125 -4.21875 L 4.078125 -2.578125 C 4.128906 -2.378906 4.171875 -2.160156 4.203125 -1.921875 C 4.242188 -1.691406 4.28125 -1.460938 4.3125 -1.234375 C 4.34375 -1.460938 4.375 -1.691406 4.40625 -1.921875 C 4.4375 -2.160156 4.472656 -2.378906 4.515625 -2.578125 L 4.859375 -4.21875 L 6.140625 -4.21875 L 5.03125 0 L 3.734375 0 L 3.3125 -1.71875 C 3.269531 -1.875 3.234375 -2.035156 3.203125 -2.203125 C 3.179688 -2.378906 3.160156 -2.554688 3.140625 -2.734375 C 3.109375 -2.554688 3.078125 -2.378906 3.046875 -2.203125 C 3.023438 -2.035156 3 -1.875 2.96875 -1.71875 L 2.546875 0 Z M 1.25 0 "/></g></g></g><g fill="#5ec269" fill-opacity="1"><g transform="translate(22.305803, 11.571428)"><g/></g></g></svg>