<svg xmlns="http://www.w3.org/2000/svg" xmlns:xlink="http://www.w3.org/1999/xlink" width="132" zoomAndPan="magnify" viewBox="0 0 98.88 72.749999" height="97" preserveAspectRatio="xMidYMid meet" version="1.0"><defs><g/><clipPath id="4aaa4ffa8d"><path d="M 0.109375 28.457031 L 98.476562 28.457031 L 98.476562 72.328125 L 0.109375 72.328125 Z M 0.109375 28.457031 " clip-rule="nonzero"/></clipPath><clipPath id="67b0c19fc4"><path d="M 22.046875 28.457031 L 76.492188 28.457031 C 88.609375 28.457031 98.429688 38.277344 98.429688 50.394531 C 98.429688 62.507812 88.609375 72.328125 76.492188 72.328125 L 22.046875 72.328125 C 9.929688 72.328125 0.109375 62.507812 0.109375 50.394531 C 0.109375 38.277344 9.929688 28.457031 22.046875 28.457031 Z M 22.046875 28.457031 " clip-rule="nonzero"/></clipPath><clipPath id="9b4956b6a9"><path d="M 0.109375 0.457031 L 98.476562 0.457031 L 98.476562 44.328125 L 0.109375 44.328125 Z M 0.109375 0.457031 " clip-rule="nonzero"/></clipPath><clipPath id="89f2dc8c2d"><path d="M 22.046875 0.457031 L 76.492188 0.457031 C 88.609375 0.457031 98.429688 10.277344 98.429688 22.394531 C 98.429688 34.507812 88.609375 44.328125 76.492188 44.328125 L 22.046875 44.328125 C 9.929688 44.328125 0.109375 34.507812 0.109375 22.394531 C 0.109375 10.277344 9.929688 0.457031 22.046875 0.457031 Z M 22.046875 0.457031 " clip-rule="nonzero"/></clipPath><clipPath id="62a4e29de0"><rect x="0" width="99" y="0" height="45"/></clipPath><clipPath id="d8279c2d0f"><path d="M 0.109375 28.457031 L 98.652344 28.457031 L 98.652344 72.5 L 0.109375 72.5 Z M 0.109375 28.457031 " clip-rule="nonzero"/></clipPath><clipPath id="05dc6ee0b2"><path d="M 22.042969 28.457031 L 76.484375 28.457031 C 88.597656 28.457031 98.417969 38.277344 98.417969 50.390625 C 98.417969 62.503906 88.597656 72.324219 76.484375 72.324219 L 22.042969 72.324219 C 9.929688 72.324219 0.113281 62.503906 0.113281 50.390625 C 0.113281 38.277344 9.929688 28.457031 22.042969 28.457031 Z M 22.042969 28.457031 " clip-rule="nonzero"/></clipPath><clipPath id="f62ada818b"><rect x="0" width="19" y="0" height="27"/></clipPath><clipPath id="984d54c1d7"><rect x="0" width="39" y="0" height="16"/></clipPath></defs><g clip-path="url(#4aaa4ffa8d)"><g clip-path="url(#67b0c19fc4)"><g transform="matrix(1, 0, 0, 1, 0, 28)"><g clip-path="url(#62a4e29de0)"><g clip-path="url(#9b4956b6a9)"><g clip-path="url(#89f2dc8c2d)"><path fill="#5ec269" d="M 0.109375 0.457031 L 98.476562 0.457031 L 98.476562 44.328125 L 0.109375 44.328125 Z M 0.109375 0.457031 " fill-opacity="1" fill-rule="nonzero"/></g></g></g></g></g></g><g clip-path="url(#d8279c2d0f)"><g clip-path="url(#05dc6ee0b2)"><path stroke-linecap="butt" transform="matrix(0.747431, 0, 0, 0.747431, 0.109521, 28.458034)" fill="none" stroke-linejoin="miter" d="M 29.345095 -0.00134128 L 102.183086 -0.00134128 C 118.38963 -0.00134128 131.528377 13.137405 131.528377 29.343949 C 131.528377 45.550494 118.38963 58.68924 102.183086 58.68924 L 29.345095 58.68924 C 13.138551 58.68924 0.00503096 45.550494 0.00503096 29.343949 C 0.00503096 13.137405 13.138551 -0.00134128 29.345095 -0.00134128 Z M 29.345095 -0.00134128 " stroke="#4bde80" stroke-width="4" stroke-opacity="1" stroke-miterlimit="4"/></g></g><g fill="#0d1623" fill-opacity="1"><g transform="translate(25.919264, 57.607861)"><g><path d="M 1.609375 0 L 7.59375 -11.84375 L 7.59375 -11.921875 L 0.578125 -11.921875 L 0.578125 -15.25 L 11.890625 -15.25 L 11.890625 -11.921875 L 5.875 0 Z M 1.609375 0 "/></g></g></g><g fill="#0d1623" fill-opacity="1"><g transform="translate(38.174968, 57.607861)"><g><path d="M 6.71875 0.203125 C 5.539062 0.203125 4.5 0 3.59375 -0.40625 C 2.6875 -0.820312 1.972656 -1.394531 1.453125 -2.125 C 0.929688 -2.851562 0.664062 -3.691406 0.65625 -4.640625 L 4.6875 -4.640625 C 4.6875 -4.117188 4.882812 -3.703125 5.28125 -3.390625 C 5.6875 -3.078125 6.164062 -2.921875 6.71875 -2.921875 C 7.34375 -2.921875 7.851562 -3.117188 8.25 -3.515625 C 8.644531 -3.921875 8.84375 -4.453125 8.84375 -5.109375 C 8.84375 -5.785156 8.644531 -6.320312 8.25 -6.71875 C 7.851562 -7.125 7.34375 -7.328125 6.71875 -7.328125 C 6.269531 -7.328125 5.863281 -7.21875 5.5 -7 C 5.132812 -6.789062 4.863281 -6.503906 4.6875 -6.140625 L 1.046875 -6.859375 L 1.640625 -15.25 L 11.890625 -15.25 L 11.890625 -11.921875 L 5.03125 -11.921875 L 4.75 -8.578125 L 4.828125 -8.578125 C 5.066406 -9.035156 5.476562 -9.414062 6.0625 -9.71875 C 6.65625 -10.019531 7.335938 -10.171875 8.109375 -10.171875 C 9.015625 -10.171875 9.820312 -9.957031 10.53125 -9.53125 C 11.238281 -9.113281 11.796875 -8.535156 12.203125 -7.796875 C 12.617188 -7.054688 12.828125 -6.203125 12.828125 -5.234375 C 12.828125 -4.171875 12.570312 -3.226562 12.0625 -2.40625 C 11.5625 -1.59375 10.851562 -0.953125 9.9375 -0.484375 C 9.019531 -0.0234375 7.945312 0.203125 6.71875 0.203125 Z M 6.71875 0.203125 "/></g></g></g><g fill="#0d1623" fill-opacity="1"><g transform="translate(51.310413, 57.607861)"><g><path d="M 3.90625 0.25 C 3.3125 0.25 2.8125 0.0507812 2.40625 -0.34375 C 2 -0.738281 1.796875 -1.234375 1.796875 -1.828125 C 1.796875 -2.421875 2 -2.914062 2.40625 -3.3125 C 2.8125 -3.707031 3.3125 -3.90625 3.90625 -3.90625 C 4.507812 -3.90625 5.007812 -3.707031 5.40625 -3.3125 C 5.8125 -2.914062 6.015625 -2.421875 6.015625 -1.828125 C 6.015625 -1.234375 5.8125 -0.738281 5.40625 -0.34375 C 5.007812 0.0507812 4.507812 0.25 3.90625 0.25 Z M 3.90625 0.25 "/></g></g></g><g fill="#0d1623" fill-opacity="1"><g transform="translate(58.450883, 57.607861)"><g><path d="M 7.328125 0.203125 C 6.441406 0.203125 5.597656 0.0585938 4.796875 -0.21875 C 3.992188 -0.5 3.285156 -0.941406 2.671875 -1.546875 C 2.066406 -2.148438 1.585938 -2.9375 1.234375 -3.90625 C 0.890625 -4.882812 0.71875 -6.066406 0.71875 -7.453125 C 0.71875 -9.085938 0.988281 -10.503906 1.53125 -11.703125 C 2.082031 -12.898438 2.851562 -13.820312 3.84375 -14.46875 C 4.84375 -15.125 6.007812 -15.453125 7.34375 -15.453125 C 8.46875 -15.453125 9.457031 -15.234375 10.3125 -14.796875 C 11.164062 -14.367188 11.84375 -13.789062 12.34375 -13.0625 C 12.851562 -12.34375 13.148438 -11.550781 13.234375 -10.6875 L 9.171875 -10.6875 C 9.078125 -11.125 8.859375 -11.4375 8.515625 -11.625 C 8.171875 -11.820312 7.78125 -11.921875 7.34375 -11.921875 C 6.476562 -11.921875 5.84375 -11.546875 5.4375 -10.796875 C 5.03125 -10.046875 4.828125 -9.0625 4.828125 -7.84375 L 4.90625 -7.84375 C 5.195312 -8.53125 5.703125 -9.070312 6.421875 -9.46875 C 7.140625 -9.863281 7.929688 -10.0625 8.796875 -10.0625 C 9.722656 -10.0625 10.53125 -9.851562 11.21875 -9.4375 C 11.914062 -9.019531 12.457031 -8.445312 12.84375 -7.71875 C 13.226562 -7 13.421875 -6.171875 13.421875 -5.234375 C 13.421875 -4.140625 13.160156 -3.179688 12.640625 -2.359375 C 12.128906 -1.546875 11.414062 -0.914062 10.5 -0.46875 C 9.582031 -0.0195312 8.523438 0.203125 7.328125 0.203125 Z M 7.28125 -2.921875 C 7.90625 -2.921875 8.414062 -3.125 8.8125 -3.53125 C 9.207031 -3.945312 9.40625 -4.46875 9.40625 -5.09375 C 9.40625 -5.71875 9.207031 -6.234375 8.8125 -6.640625 C 8.414062 -7.054688 7.90625 -7.265625 7.28125 -7.265625 C 6.6875 -7.265625 6.1875 -7.054688 5.78125 -6.640625 C 5.375 -6.234375 5.171875 -5.71875 5.171875 -5.09375 C 5.171875 -4.46875 5.375 -3.945312 5.78125 -3.53125 C 6.1875 -3.125 6.6875 -2.921875 7.28125 -2.921875 Z M 7.28125 -2.921875 "/></g></g></g><g transform="matrix(1, 0, 0, 1, 14, 0.000000000000000581)"><g clip-path="url(#f62ada818b)"><g fill="#ffffff" fill-opacity="1"><g transform="translate(0.364398, 20.28306)"><g><path d="M 14.140625 -12.046875 L 4.609375 -2.4375 C 5.859375 -1.363281 7.320312 -0.828125 9 -0.828125 C 10.875 -0.828125 12.472656 -1.488281 13.796875 -2.8125 C 15.128906 -4.144531 15.796875 -5.742188 15.796875 -7.609375 C 15.796875 -9.304688 15.242188 -10.785156 14.140625 -12.046875 Z M 3.8125 -3.265625 L 13.359375 -12.8125 C 12.097656 -13.875 10.644531 -14.40625 9 -14.40625 C 7.132812 -14.40625 5.535156 -13.738281 4.203125 -12.40625 C 2.878906 -11.082031 2.21875 -9.484375 2.21875 -7.609375 C 2.21875 -5.972656 2.75 -4.523438 3.8125 -3.265625 Z M 16.1875 -15.640625 L 16.96875 -14.875 L 14.984375 -12.890625 C 16.316406 -11.398438 16.984375 -9.640625 16.984375 -7.609375 C 16.984375 -5.410156 16.203125 -3.53125 14.640625 -1.96875 C 13.085938 -0.40625 11.207031 0.375 9 0.375 C 6.988281 0.375 5.242188 -0.285156 3.765625 -1.609375 L 1.65625 0.515625 L 0.84375 -0.28125 L 2.953125 -2.421875 C 1.660156 -3.890625 1.015625 -5.617188 1.015625 -7.609375 C 1.015625 -9.816406 1.796875 -11.695312 3.359375 -13.25 C 4.921875 -14.8125 6.800781 -15.59375 9 -15.59375 C 10.976562 -15.59375 12.71875 -14.945312 14.21875 -13.65625 Z M 16.1875 -15.640625 "/></g></g></g></g></g><g transform="matrix(1, 0, 0, 1, 32, 6)"><g clip-path="url(#984d54c1d7)"><g fill="#ffffff" fill-opacity="1"><g transform="translate(0.74196, 12.112755)"><g><path d="M 0.90625 0 L 0.90625 -8.984375 L 4.265625 -8.984375 C 5.296875 -8.984375 6.078125 -8.71875 6.609375 -8.1875 C 7.148438 -7.65625 7.421875 -6.960938 7.421875 -6.109375 C 7.421875 -5.503906 7.285156 -4.976562 7.015625 -4.53125 C 6.742188 -4.09375 6.34375 -3.769531 5.8125 -3.5625 L 7.75 0 L 5.953125 0 L 4.1875 -3.296875 L 2.515625 -3.296875 L 2.515625 0 Z M 2.515625 -4.625 L 4.03125 -4.625 C 4.632812 -4.625 5.078125 -4.75 5.359375 -5 C 5.640625 -5.257812 5.78125 -5.628906 5.78125 -6.109375 C 5.78125 -6.585938 5.640625 -6.957031 5.359375 -7.21875 C 5.078125 -7.488281 4.628906 -7.625 4.015625 -7.625 L 2.515625 -7.625 Z M 2.515625 -4.625 "/></g></g></g><g fill="#ffffff" fill-opacity="1"><g transform="translate(8.727951, 12.112755)"><g><path d="M 2.71875 0.140625 C 2.289062 0.140625 1.90625 0.0585938 1.5625 -0.09375 C 1.21875 -0.25 0.945312 -0.476562 0.75 -0.78125 C 0.550781 -1.082031 0.453125 -1.453125 0.453125 -1.890625 C 0.453125 -2.398438 0.578125 -2.789062 0.828125 -3.0625 C 1.078125 -3.34375 1.394531 -3.546875 1.78125 -3.671875 C 2.175781 -3.804688 2.59375 -3.894531 3.03125 -3.9375 C 3.613281 -4 4.035156 -4.054688 4.296875 -4.109375 C 4.554688 -4.160156 4.6875 -4.304688 4.6875 -4.546875 L 4.6875 -4.578125 C 4.6875 -4.898438 4.585938 -5.15625 4.390625 -5.34375 C 4.191406 -5.53125 3.898438 -5.625 3.515625 -5.625 C 3.117188 -5.625 2.800781 -5.535156 2.5625 -5.359375 C 2.332031 -5.179688 2.179688 -4.984375 2.109375 -4.765625 L 0.65625 -5.0625 C 0.851562 -5.65625 1.207031 -6.097656 1.71875 -6.390625 C 2.238281 -6.679688 2.835938 -6.828125 3.515625 -6.828125 C 3.828125 -6.828125 4.144531 -6.785156 4.46875 -6.703125 C 4.789062 -6.628906 5.085938 -6.503906 5.359375 -6.328125 C 5.628906 -6.160156 5.84375 -5.925781 6 -5.625 C 6.164062 -5.320312 6.25 -4.945312 6.25 -4.5 L 6.25 0 L 4.75 0 L 4.75 -0.921875 L 4.6875 -0.921875 C 4.539062 -0.640625 4.304688 -0.390625 3.984375 -0.171875 C 3.660156 0.0351562 3.238281 0.140625 2.71875 0.140625 Z M 3.109375 -1.03125 C 3.597656 -1.03125 3.984375 -1.164062 4.265625 -1.4375 C 4.554688 -1.71875 4.703125 -2.046875 4.703125 -2.421875 L 4.703125 -3.21875 C 4.628906 -3.15625 4.5 -3.101562 4.3125 -3.0625 C 4.125 -3.019531 3.925781 -2.984375 3.71875 -2.953125 C 3.519531 -2.921875 3.351562 -2.894531 3.21875 -2.875 C 2.863281 -2.832031 2.566406 -2.738281 2.328125 -2.59375 C 2.097656 -2.445312 1.984375 -2.21875 1.984375 -1.90625 C 1.984375 -1.625 2.085938 -1.40625 2.296875 -1.25 C 2.503906 -1.101562 2.773438 -1.03125 3.109375 -1.03125 Z M 3.109375 -1.03125 "/></g></g></g><g fill="#ffffff" fill-opacity="1"><g transform="translate(15.810579, 12.112755)"><g><path d="M 3.953125 -6.734375 L 3.953125 -5.515625 L 2.640625 -5.515625 L 2.640625 -1.90625 C 2.640625 -1.65625 2.691406 -1.472656 2.796875 -1.359375 C 2.898438 -1.242188 3.070312 -1.1875 3.3125 -1.1875 C 3.382812 -1.1875 3.476562 -1.191406 3.59375 -1.203125 C 3.707031 -1.222656 3.804688 -1.242188 3.890625 -1.265625 L 4.140625 -0.046875 C 3.960938 0.00390625 3.78125 0.0390625 3.59375 0.0625 C 3.414062 0.0820312 3.25 0.09375 3.09375 0.09375 C 2.4375 0.09375 1.9375 -0.0664062 1.59375 -0.390625 C 1.25 -0.710938 1.078125 -1.171875 1.078125 -1.765625 L 1.078125 -5.515625 L 0.125 -5.515625 L 0.125 -6.734375 L 1.078125 -6.734375 L 1.078125 -8.34375 L 2.640625 -8.34375 L 2.640625 -6.734375 Z M 3.953125 -6.734375 "/></g></g></g><g fill="#ffffff" fill-opacity="1"><g transform="translate(20.164951, 12.112755)"><g><path d="M 0.828125 0 L 0.828125 -6.734375 L 2.40625 -6.734375 L 2.40625 0 Z M 1.609375 -7.6875 C 1.359375 -7.6875 1.144531 -7.769531 0.96875 -7.9375 C 0.789062 -8.101562 0.703125 -8.304688 0.703125 -8.546875 C 0.703125 -8.785156 0.789062 -8.988281 0.96875 -9.15625 C 1.144531 -9.320312 1.359375 -9.40625 1.609375 -9.40625 C 1.867188 -9.40625 2.085938 -9.320312 2.265625 -9.15625 C 2.441406 -8.988281 2.53125 -8.785156 2.53125 -8.546875 C 2.53125 -8.304688 2.441406 -8.101562 2.265625 -7.9375 C 2.085938 -7.769531 1.867188 -7.6875 1.609375 -7.6875 Z M 1.609375 -7.6875 "/></g></g></g><g fill="#ffffff" fill-opacity="1"><g transform="translate(23.393087, 12.112755)"><g><path d="M 2.40625 -3.953125 L 2.40625 0 L 0.828125 0 L 0.828125 -6.734375 L 2.3125 -6.734375 L 2.328125 -5.390625 C 2.734375 -6.347656 3.429688 -6.828125 4.421875 -6.828125 C 5.109375 -6.828125 5.660156 -6.601562 6.078125 -6.15625 C 6.503906 -5.71875 6.71875 -5.09375 6.71875 -4.28125 L 6.71875 0 L 5.15625 0 L 5.15625 -4.046875 C 5.15625 -4.492188 5.035156 -4.84375 4.796875 -5.09375 C 4.566406 -5.351562 4.25 -5.484375 3.84375 -5.484375 C 3.425781 -5.484375 3.082031 -5.347656 2.8125 -5.078125 C 2.539062 -4.816406 2.40625 -4.441406 2.40625 -3.953125 Z M 2.40625 -3.953125 "/></g></g></g><g fill="#ffffff" fill-opacity="1"><g transform="translate(30.939459, 12.112755)"><g><path d="M 3.734375 2.65625 C 2.921875 2.65625 2.269531 2.503906 1.78125 2.203125 C 1.289062 1.910156 0.960938 1.546875 0.796875 1.109375 L 2.125 0.625 C 2.226562 0.820312 2.398438 1.007812 2.640625 1.1875 C 2.878906 1.375 3.242188 1.46875 3.734375 1.46875 C 4.210938 1.46875 4.597656 1.351562 4.890625 1.125 C 5.191406 0.90625 5.34375 0.550781 5.34375 0.0625 L 5.34375 -1.203125 L 5.203125 -1.203125 C 5.128906 -1.046875 5.015625 -0.878906 4.859375 -0.703125 C 4.710938 -0.535156 4.515625 -0.394531 4.265625 -0.28125 C 4.015625 -0.164062 3.695312 -0.109375 3.3125 -0.109375 C 2.789062 -0.109375 2.320312 -0.226562 1.90625 -0.46875 C 1.488281 -0.707031 1.15625 -1.070312 0.90625 -1.5625 C 0.65625 -2.050781 0.53125 -2.660156 0.53125 -3.390625 C 0.53125 -4.117188 0.65625 -4.738281 0.90625 -5.25 C 1.15625 -5.769531 1.488281 -6.160156 1.90625 -6.421875 C 2.332031 -6.691406 2.804688 -6.828125 3.328125 -6.828125 C 3.722656 -6.828125 4.046875 -6.757812 4.296875 -6.625 C 4.554688 -6.488281 4.757812 -6.328125 4.90625 -6.140625 C 5.0625 -5.953125 5.179688 -5.78125 5.265625 -5.625 L 5.359375 -5.625 L 5.359375 -6.734375 L 6.890625 -6.734375 L 6.890625 0.015625 C 6.890625 0.617188 6.75 1.113281 6.46875 1.5 C 6.195312 1.894531 5.820312 2.1875 5.34375 2.375 C 4.875 2.5625 4.335938 2.65625 3.734375 2.65625 Z M 3.75 -1.34375 C 4.257812 -1.34375 4.648438 -1.523438 4.921875 -1.890625 C 5.203125 -2.253906 5.34375 -2.757812 5.34375 -3.40625 C 5.34375 -4.039062 5.207031 -4.550781 4.9375 -4.9375 C 4.664062 -5.332031 4.269531 -5.53125 3.75 -5.53125 C 3.21875 -5.53125 2.816406 -5.328125 2.546875 -4.921875 C 2.273438 -4.515625 2.140625 -4.007812 2.140625 -3.40625 C 2.140625 -2.78125 2.273438 -2.28125 2.546875 -1.90625 C 2.816406 -1.53125 3.21875 -1.34375 3.75 -1.34375 Z M 3.75 -1.34375 "/></g></g></g></g></g></svg>