<svg xmlns="http://www.w3.org/2000/svg" xmlns:xlink="http://www.w3.org/1999/xlink" width="264" zoomAndPan="magnify" viewBox="0 0 198 23.999999" height="32" preserveAspectRatio="xMidYMid meet" version="1.0"><defs><g/><clipPath id="a6762bd663"><path d="M 75.847656 0 L 99.464844 0 L 99.464844 23.613281 L 75.847656 23.613281 Z M 75.847656 0 " clip-rule="nonzero"/></clipPath><clipPath id="460e935fa1"><path d="M 87.65625 0 C 81.136719 0 75.847656 5.285156 75.847656 11.808594 C 75.847656 18.328125 81.136719 23.613281 87.65625 23.613281 C 94.175781 23.613281 99.464844 18.328125 99.464844 11.808594 C 99.464844 5.285156 94.175781 0 87.65625 0 Z M 87.65625 0 " clip-rule="nonzero"/></clipPath><clipPath id="6cc2550da3"><path d="M 0.847656 0 L 24.464844 0 L 24.464844 23.613281 L 0.847656 23.613281 Z M 0.847656 0 " clip-rule="nonzero"/></clipPath><clipPath id="f988a10aca"><path d="M 12.65625 0 C 6.136719 0 0.847656 5.285156 0.847656 11.808594 C 0.847656 18.328125 6.136719 23.613281 12.65625 23.613281 C 19.175781 23.613281 24.464844 18.328125 24.464844 11.808594 C 24.464844 5.285156 19.175781 0 12.65625 0 Z M 12.65625 0 " clip-rule="nonzero"/></clipPath><clipPath id="25ff65e9db"><rect x="0" width="25" y="0" height="24"/></clipPath><clipPath id="502964b365"><path d="M 108.425781 0 L 132.042969 0 L 132.042969 23.613281 L 108.425781 23.613281 Z M 108.425781 0 " clip-rule="nonzero"/></clipPath><clipPath id="dd15ec7e56"><path d="M 120.234375 0 C 113.714844 0 108.425781 5.285156 108.425781 11.808594 C 108.425781 18.328125 113.714844 23.613281 120.234375 23.613281 C 126.753906 23.613281 132.042969 18.328125 132.042969 11.808594 C 132.042969 5.285156 126.753906 0 120.234375 0 Z M 120.234375 0 " clip-rule="nonzero"/></clipPath><clipPath id="36c4587189"><path d="M 0.425781 0 L 24.042969 0 L 24.042969 23.613281 L 0.425781 23.613281 Z M 0.425781 0 " clip-rule="nonzero"/></clipPath><clipPath id="5f093ba7e0"><path d="M 12.234375 0 C 5.714844 0 0.425781 5.285156 0.425781 11.808594 C 0.425781 18.328125 5.714844 23.613281 12.234375 23.613281 C 18.753906 23.613281 24.042969 18.328125 24.042969 11.808594 C 24.042969 5.285156 18.753906 0 12.234375 0 Z M 12.234375 0 " clip-rule="nonzero"/></clipPath><clipPath id="193f6669de"><rect x="0" width="25" y="0" height="24"/></clipPath><clipPath id="4defc85d16"><path d="M 141.054688 0 L 164.667969 0 L 164.667969 23.613281 L 141.054688 23.613281 Z M 141.054688 0 " clip-rule="nonzero"/></clipPath><clipPath id="8c5d3c080d"><path d="M 152.863281 0 C 146.339844 0 141.054688 5.285156 141.054688 11.808594 C 141.054688 18.328125 146.339844 23.613281 152.863281 23.613281 C 159.382812 23.613281 164.667969 18.328125 164.667969 11.808594 C 164.667969 5.285156 159.382812 0 152.863281 0 Z M 152.863281 0 " clip-rule="nonzero"/></clipPath><clipPath id="12769b35ff"><path d="M 0.0546875 0 L 23.667969 0 L 23.667969 23.613281 L 0.0546875 23.613281 Z M 0.0546875 0 " clip-rule="nonzero"/></clipPath><clipPath id="fcdf5f6b03"><path d="M 11.863281 0 C 5.339844 0 0.0546875 5.285156 0.0546875 11.808594 C 0.0546875 18.328125 5.339844 23.613281 11.863281 23.613281 C 18.382812 23.613281 23.667969 18.328125 23.667969 11.808594 C 23.667969 5.285156 18.382812 0 11.863281 0 Z M 11.863281 0 " clip-rule="nonzero"/></clipPath><clipPath id="a37acfcf45"><rect x="0" width="24" y="0" height="24"/></clipPath><clipPath id="cdb4ec5479"><path d="M 173.855469 0 L 197.46875 0 L 197.46875 23.613281 L 173.855469 23.613281 Z M 173.855469 0 " clip-rule="nonzero"/></clipPath><clipPath id="59672469b9"><path d="M 185.660156 0 C 179.140625 0 173.855469 5.285156 173.855469 11.808594 C 173.855469 18.328125 179.140625 23.613281 185.660156 23.613281 C 192.179688 23.613281 197.46875 18.328125 197.46875 11.808594 C 197.46875 5.285156 192.179688 0 185.660156 0 Z M 185.660156 0 " clip-rule="nonzero"/></clipPath><clipPath id="bd079cef70"><path d="M 0.855469 0 L 24.46875 0 L 24.46875 23.613281 L 0.855469 23.613281 Z M 0.855469 0 " clip-rule="nonzero"/></clipPath><clipPath id="d7413f7e7b"><path d="M 12.660156 0 C 6.140625 0 0.855469 5.285156 0.855469 11.808594 C 0.855469 18.328125 6.140625 23.613281 12.660156 23.613281 C 19.179688 23.613281 24.46875 18.328125 24.46875 11.808594 C 24.46875 5.285156 19.179688 0 12.660156 0 Z M 12.660156 0 " clip-rule="nonzero"/></clipPath><clipPath id="4665ace6db"><rect x="0" width="25" y="0" height="24"/></clipPath></defs><g clip-path="url(#a6762bd663)"><g clip-path="url(#460e935fa1)"><g transform="matrix(1, 0, 0, 1, 75, 0)"><g clip-path="url(#25ff65e9db)"><g clip-path="url(#6cc2550da3)"><g clip-path="url(#f988a10aca)"><path fill="#5ec269" d="M 0.847656 0 L 24.464844 0 L 24.464844 23.613281 L 0.847656 23.613281 Z M 0.847656 0 " fill-opacity="1" fill-rule="nonzero"/></g></g></g></g></g></g><g clip-path="url(#502964b365)"><g clip-path="url(#dd15ec7e56)"><g transform="matrix(1, 0, 0, 1, 108, 0)"><g clip-path="url(#193f6669de)"><g clip-path="url(#36c4587189)"><g clip-path="url(#5f093ba7e0)"><path fill="#8b8b8b" d="M 0.425781 0 L 24.042969 0 L 24.042969 23.613281 L 0.425781 23.613281 Z M 0.425781 0 " fill-opacity="1" fill-rule="nonzero"/></g></g></g></g></g></g><g clip-path="url(#4defc85d16)"><g clip-path="url(#8c5d3c080d)"><g transform="matrix(1, 0, 0, 1, 141, 0)"><g clip-path="url(#a37acfcf45)"><g clip-path="url(#12769b35ff)"><g clip-path="url(#fcdf5f6b03)"><path fill="#8b8b8b" d="M 0.0546875 0 L 23.667969 0 L 23.667969 23.613281 L 0.0546875 23.613281 Z M 0.0546875 0 " fill-opacity="1" fill-rule="nonzero"/></g></g></g></g></g></g><g clip-path="url(#cdb4ec5479)"><g clip-path="url(#59672469b9)"><g transform="matrix(1, 0, 0, 1, 173, 0)"><g clip-path="url(#4665ace6db)"><g clip-path="url(#bd079cef70)"><g clip-path="url(#d7413f7e7b)"><path fill="#8b8b8b" d="M 0.855469 0 L 24.46875 0 L 24.46875 23.613281 L 0.855469 23.613281 Z M 0.855469 0 " fill-opacity="1" fill-rule="nonzero"/></g></g></g></g></g></g><g fill="#ffffff" fill-opacity="1"><g transform="translate(0.02344, 16.106351)"><g><path d="M 4.0625 0.140625 C 3.019531 0.140625 2.1875 -0.0976562 1.5625 -0.578125 C 0.9375 -1.066406 0.609375 -1.753906 0.578125 -2.640625 L 2.15625 -2.640625 C 2.195312 -2.171875 2.394531 -1.816406 2.75 -1.578125 C 3.113281 -1.347656 3.546875 -1.234375 4.046875 -1.234375 C 4.585938 -1.234375 5.023438 -1.351562 5.359375 -1.59375 C 5.691406 -1.832031 5.859375 -2.144531 5.859375 -2.53125 C 5.859375 -2.882812 5.707031 -3.148438 5.40625 -3.328125 C 5.113281 -3.503906 4.722656 -3.65625 4.234375 -3.78125 L 3.21875 -4.046875 C 2.457031 -4.242188 1.867188 -4.535156 1.453125 -4.921875 C 1.035156 -5.316406 0.828125 -5.832031 0.828125 -6.46875 C 0.828125 -7 0.96875 -7.460938 1.25 -7.859375 C 1.539062 -8.253906 1.929688 -8.5625 2.421875 -8.78125 C 2.921875 -9.007812 3.484375 -9.125 4.109375 -9.125 C 4.742188 -9.125 5.300781 -9.007812 5.78125 -8.78125 C 6.269531 -8.5625 6.648438 -8.253906 6.921875 -7.859375 C 7.191406 -7.472656 7.335938 -7.03125 7.359375 -6.53125 L 5.78125 -6.53125 C 5.75 -6.914062 5.578125 -7.210938 5.265625 -7.421875 C 4.960938 -7.640625 4.566406 -7.75 4.078125 -7.75 C 3.578125 -7.75 3.179688 -7.632812 2.890625 -7.40625 C 2.597656 -7.1875 2.453125 -6.90625 2.453125 -6.5625 C 2.453125 -6.3125 2.53125 -6.101562 2.6875 -5.9375 C 2.84375 -5.78125 3.035156 -5.65625 3.265625 -5.5625 C 3.503906 -5.46875 3.742188 -5.390625 3.984375 -5.328125 L 4.828125 -5.109375 C 5.273438 -5.003906 5.695312 -4.847656 6.09375 -4.640625 C 6.5 -4.441406 6.828125 -4.171875 7.078125 -3.828125 C 7.335938 -3.484375 7.46875 -3.050781 7.46875 -2.53125 C 7.46875 -2 7.332031 -1.53125 7.0625 -1.125 C 6.800781 -0.726562 6.414062 -0.414062 5.90625 -0.1875 C 5.394531 0.0273438 4.78125 0.140625 4.0625 0.140625 Z M 4.0625 0.140625 "/></g></g></g><g fill="#ffffff" fill-opacity="1"><g transform="translate(8.072023, 16.106351)"><g><path d="M 0.828125 0 L 0.828125 -6.75 L 2.40625 -6.75 L 2.40625 0 Z M 1.625 -7.703125 C 1.375 -7.703125 1.15625 -7.785156 0.96875 -7.953125 C 0.789062 -8.128906 0.703125 -8.335938 0.703125 -8.578125 C 0.703125 -8.816406 0.789062 -9.019531 0.96875 -9.1875 C 1.15625 -9.351562 1.375 -9.4375 1.625 -9.4375 C 1.875 -9.4375 2.085938 -9.351562 2.265625 -9.1875 C 2.441406 -9.019531 2.53125 -8.816406 2.53125 -8.578125 C 2.53125 -8.335938 2.441406 -8.128906 2.265625 -7.953125 C 2.085938 -7.785156 1.875 -7.703125 1.625 -7.703125 Z M 1.625 -7.703125 "/></g></g></g><g fill="#ffffff" fill-opacity="1"><g transform="translate(11.310793, 16.106351)"><g><path d="M 3.8125 0.140625 C 3.132812 0.140625 2.550781 0 2.0625 -0.28125 C 1.570312 -0.570312 1.191406 -0.976562 0.921875 -1.5 C 0.660156 -2.019531 0.53125 -2.628906 0.53125 -3.328125 C 0.53125 -4.023438 0.660156 -4.632812 0.921875 -5.15625 C 1.179688 -5.6875 1.550781 -6.097656 2.03125 -6.390625 C 2.507812 -6.691406 3.070312 -6.84375 3.71875 -6.84375 C 4.257812 -6.84375 4.765625 -6.722656 5.234375 -6.484375 C 5.710938 -6.242188 6.09375 -5.867188 6.375 -5.359375 C 6.65625 -4.859375 6.796875 -4.21875 6.796875 -3.4375 L 6.796875 -2.9375 L 2.109375 -2.9375 C 2.128906 -2.332031 2.296875 -1.875 2.609375 -1.5625 C 2.921875 -1.25 3.332031 -1.09375 3.84375 -1.09375 C 4.1875 -1.09375 4.476562 -1.164062 4.71875 -1.3125 C 4.96875 -1.46875 5.144531 -1.6875 5.25 -1.96875 L 6.703125 -1.671875 C 6.535156 -1.128906 6.195312 -0.691406 5.6875 -0.359375 C 5.1875 -0.0234375 4.5625 0.140625 3.8125 0.140625 Z M 2.109375 -4 L 5.28125 -4 C 5.226562 -4.488281 5.070312 -4.878906 4.8125 -5.171875 C 4.550781 -5.460938 4.1875 -5.609375 3.71875 -5.609375 C 3.238281 -5.609375 2.859375 -5.453125 2.578125 -5.140625 C 2.296875 -4.835938 2.140625 -4.457031 2.109375 -4 Z M 2.109375 -4 "/></g></g></g><g fill="#ffffff" fill-opacity="1"><g transform="translate(18.628236, 16.106351)"><g><path d="M 3.75 2.671875 C 2.9375 2.671875 2.28125 2.519531 1.78125 2.21875 C 1.289062 1.925781 0.960938 1.554688 0.796875 1.109375 L 2.125 0.625 C 2.226562 0.820312 2.398438 1.007812 2.640625 1.1875 C 2.878906 1.375 3.242188 1.46875 3.734375 1.46875 C 4.222656 1.46875 4.613281 1.351562 4.90625 1.125 C 5.207031 0.90625 5.359375 0.550781 5.359375 0.0625 L 5.359375 -1.203125 L 5.21875 -1.203125 C 5.132812 -1.046875 5.019531 -0.878906 4.875 -0.703125 C 4.726562 -0.535156 4.53125 -0.394531 4.28125 -0.28125 C 4.03125 -0.164062 3.707031 -0.109375 3.3125 -0.109375 C 2.800781 -0.109375 2.332031 -0.226562 1.90625 -0.46875 C 1.488281 -0.707031 1.15625 -1.070312 0.90625 -1.5625 C 0.65625 -2.050781 0.53125 -2.660156 0.53125 -3.390625 C 0.53125 -4.128906 0.65625 -4.753906 0.90625 -5.265625 C 1.15625 -5.785156 1.488281 -6.175781 1.90625 -6.4375 C 2.332031 -6.707031 2.804688 -6.84375 3.328125 -6.84375 C 3.722656 -6.84375 4.050781 -6.773438 4.3125 -6.640625 C 4.570312 -6.503906 4.773438 -6.34375 4.921875 -6.15625 C 5.078125 -5.96875 5.195312 -5.796875 5.28125 -5.640625 L 5.359375 -5.640625 L 5.359375 -6.75 L 6.90625 -6.75 L 6.90625 0.015625 C 6.90625 0.617188 6.765625 1.113281 6.484375 1.5 C 6.210938 1.894531 5.835938 2.1875 5.359375 2.375 C 4.890625 2.570312 4.351562 2.671875 3.75 2.671875 Z M 3.765625 -1.34375 C 4.273438 -1.34375 4.664062 -1.523438 4.9375 -1.890625 C 5.21875 -2.253906 5.359375 -2.757812 5.359375 -3.40625 C 5.359375 -4.050781 5.21875 -4.566406 4.9375 -4.953125 C 4.664062 -5.347656 4.273438 -5.546875 3.765625 -5.546875 C 3.222656 -5.546875 2.816406 -5.34375 2.546875 -4.9375 C 2.273438 -4.53125 2.140625 -4.019531 2.140625 -3.40625 C 2.140625 -2.78125 2.273438 -2.28125 2.546875 -1.90625 C 2.828125 -1.53125 3.234375 -1.34375 3.765625 -1.34375 Z M 3.765625 -1.34375 "/></g></g></g><g fill="#ffffff" fill-opacity="1"><g transform="translate(26.368653, 16.106351)"><g><path d="M 3.8125 0.140625 C 3.132812 0.140625 2.550781 0 2.0625 -0.28125 C 1.570312 -0.570312 1.191406 -0.976562 0.921875 -1.5 C 0.660156 -2.019531 0.53125 -2.628906 0.53125 -3.328125 C 0.53125 -4.023438 0.660156 -4.632812 0.921875 -5.15625 C 1.179688 -5.6875 1.550781 -6.097656 2.03125 -6.390625 C 2.507812 -6.691406 3.070312 -6.84375 3.71875 -6.84375 C 4.257812 -6.84375 4.765625 -6.722656 5.234375 -6.484375 C 5.710938 -6.242188 6.09375 -5.867188 6.375 -5.359375 C 6.65625 -4.859375 6.796875 -4.21875 6.796875 -3.4375 L 6.796875 -2.9375 L 2.109375 -2.9375 C 2.128906 -2.332031 2.296875 -1.875 2.609375 -1.5625 C 2.921875 -1.25 3.332031 -1.09375 3.84375 -1.09375 C 4.1875 -1.09375 4.476562 -1.164062 4.71875 -1.3125 C 4.96875 -1.46875 5.144531 -1.6875 5.25 -1.96875 L 6.703125 -1.671875 C 6.535156 -1.128906 6.195312 -0.691406 5.6875 -0.359375 C 5.1875 -0.0234375 4.5625 0.140625 3.8125 0.140625 Z M 2.109375 -4 L 5.28125 -4 C 5.226562 -4.488281 5.070312 -4.878906 4.8125 -5.171875 C 4.550781 -5.460938 4.1875 -5.609375 3.71875 -5.609375 C 3.238281 -5.609375 2.859375 -5.453125 2.578125 -5.140625 C 2.296875 -4.835938 2.140625 -4.457031 2.109375 -4 Z M 2.109375 -4 "/></g></g></g><g fill="#ffffff" fill-opacity="1"><g transform="translate(33.686096, 16.106351)"><g/></g></g><g fill="#ffffff" fill-opacity="1"><g transform="translate(36.804016, 16.106351)"><g><path d="M 4.328125 -9 L 4.328125 0 L 2.734375 0 L 2.734375 -7.5625 L 2.671875 -7.5625 L 0.5625 -6.046875 L 0.5625 -7.59375 L 2.546875 -9 Z M 4.328125 -9 "/></g></g></g><g fill="#ffffff" fill-opacity="1"><g transform="translate(42.036804, 16.106351)"><g/></g></g><g fill="#ffffff" fill-opacity="1"><g transform="translate(45.154724, 16.106351)"><g><path d="M 4.484375 -9.421875 L 1.578125 1.359375 L 0.203125 1.359375 L 3.109375 -9.421875 Z M 4.484375 -9.421875 "/></g></g></g><g fill="#ffffff" fill-opacity="1"><g transform="translate(49.843688, 16.106351)"><g/></g></g><g fill="#ffffff" fill-opacity="1"><g transform="translate(52.961608, 16.106351)"><g><path d="M 0.640625 -1.671875 L 0.640625 -2.953125 L 4.46875 -9 L 6.484375 -9 L 6.484375 -3 L 7.640625 -3 L 7.640625 -1.671875 L 6.484375 -1.671875 L 6.484375 0 L 4.9375 0 L 4.9375 -1.671875 Z M 4.953125 -3 L 4.953125 -7.171875 L 4.890625 -7.171875 L 2.296875 -3.078125 L 2.296875 -3 Z M 4.953125 -3 "/></g></g></g></svg>