<svg xmlns="http://www.w3.org/2000/svg" xmlns:xlink="http://www.w3.org/1999/xlink" width="226" zoomAndPan="magnify" viewBox="0 0 169.5 40.499999" height="54" preserveAspectRatio="xMidYMid meet" version="1.0"><defs><g/><clipPath id="f5e3b668ae"><path d="M 0.785156 0 L 168.21875 0 L 168.21875 40.007812 L 0.785156 40.007812 Z M 0.785156 0 " clip-rule="nonzero"/></clipPath><clipPath id="0678a689ab"><path d="M 0.785156 0 L 167.625 0 L 167.625 39.878906 L 0.785156 39.878906 Z M 0.785156 0 " clip-rule="nonzero"/></clipPath><clipPath id="34e481b60c"><path d="M 20.726562 0 L 147.652344 0 C 158.664062 0 167.59375 8.925781 167.59375 19.941406 C 167.59375 30.953125 158.664062 39.878906 147.652344 39.878906 L 20.726562 39.878906 C 9.714844 39.878906 0.785156 30.953125 0.785156 19.941406 C 0.785156 8.925781 9.714844 0 20.726562 0 Z M 20.726562 0 " clip-rule="nonzero"/></clipPath><clipPath id="afee01a8b2"><path d="M 0.785156 0 L 167.625 0 L 167.625 39.878906 L 0.785156 39.878906 Z M 0.785156 0 " clip-rule="nonzero"/></clipPath><clipPath id="704de885ab"><path d="M 20.726562 0 L 147.652344 0 C 158.664062 0 167.59375 8.925781 167.59375 19.941406 C 167.59375 30.953125 158.664062 39.878906 147.652344 39.878906 L 20.726562 39.878906 C 9.714844 39.878906 0.785156 30.953125 0.785156 19.941406 C 0.785156 8.925781 9.714844 0 20.726562 0 Z M 20.726562 0 " clip-rule="nonzero"/></clipPath><clipPath id="714a094599"><rect x="0" width="168" y="0" height="40"/></clipPath><clipPath id="21631b3419"><path d="M 0.785156 0 L 167.480469 0 L 167.480469 40 L 0.785156 40 Z M 0.785156 0 " clip-rule="nonzero"/></clipPath><clipPath id="b90aa42143"><path d="M 20.726562 0 L 147.644531 0 C 158.65625 0 167.582031 8.925781 167.582031 19.9375 C 167.582031 30.949219 158.65625 39.878906 147.644531 39.878906 L 20.726562 39.878906 C 9.714844 39.878906 0.785156 30.949219 0.785156 19.9375 C 0.785156 8.925781 9.714844 0 20.726562 0 Z M 20.726562 0 " clip-rule="nonzero"/></clipPath></defs><g clip-path="url(#f5e3b668ae)"><path fill="#ffffff" d="M 0.785156 0 L 168.21875 0 L 168.21875 40.007812 L 0.785156 40.007812 Z M 0.785156 0 " fill-opacity="1" fill-rule="nonzero"/></g><g clip-path="url(#0678a689ab)"><g clip-path="url(#34e481b60c)"><g transform="matrix(1, 0, 0, 1, 0.000000000000000111, 0)"><g clip-path="url(#714a094599)"><g clip-path="url(#afee01a8b2)"><g clip-path="url(#704de885ab)"><path fill="#2f220d" d="M 0.785156 0 L 167.625 0 L 167.625 39.878906 L 0.785156 39.878906 Z M 0.785156 0 " fill-opacity="1" fill-rule="nonzero"/></g></g></g></g></g></g><g clip-path="url(#21631b3419)"><g clip-path="url(#b90aa42143)"><path stroke-linecap="butt" transform="matrix(0.740854, 0, 0, 0.740854, 0.786588, -0.000000000110396)" fill="none" stroke-linejoin="miter" d="M 26.914863 0.000000000149012 L 198.228008 0.000000000149012 C 213.091562 0.000000000149012 225.139531 12.047968 225.139531 26.911523 C 225.139531 41.775078 213.091562 53.828319 198.228008 53.828319 L 26.914863 53.828319 C 12.051308 53.828319 -0.00193293 41.775078 -0.00193293 26.911523 C -0.00193293 12.047968 12.051308 0.000000000149012 26.914863 0.000000000149012 Z M 26.914863 0.000000000149012 " stroke="#ffbd58" stroke-width="4" stroke-opacity="1" stroke-miterlimit="4"/></g></g><g fill="#ffbd58" fill-opacity="1"><g transform="translate(39.031882, 24.448169)"><g><path d="M 0.453125 -9.328125 L 0.453125 -11.9375 L 10.8125 -11.9375 L 10.8125 -9.328125 L 7.25 -9.328125 L 7.25 0 L 4.015625 0 L 4.015625 -9.328125 Z M 0.453125 -9.328125 "/></g></g></g><g fill="#ffbd58" fill-opacity="1"><g transform="translate(51.004644, 24.448169)"><g><path d="M 0.8125 0 L 0.8125 -8.953125 L 3.9375 -8.953125 L 3.9375 -7.234375 L 4.03125 -7.234375 C 4.195312 -7.867188 4.457031 -8.332031 4.8125 -8.625 C 5.164062 -8.914062 5.582031 -9.0625 6.0625 -9.0625 C 6.332031 -9.0625 6.601562 -9.019531 6.875 -8.9375 L 6.875 -6.203125 C 6.71875 -6.253906 6.519531 -6.289062 6.28125 -6.3125 C 6.050781 -6.34375 5.851562 -6.359375 5.6875 -6.359375 C 5.207031 -6.359375 4.8125 -6.203125 4.5 -5.890625 C 4.1875 -5.585938 4.03125 -5.175781 4.03125 -4.65625 L 4.03125 0 Z M 0.8125 0 "/></g></g></g><g fill="#ffbd58" fill-opacity="1"><g transform="translate(59.245273, 24.448169)"><g><path d="M 5.140625 0.15625 C 4.160156 0.15625 3.320312 -0.0351562 2.625 -0.421875 C 1.9375 -0.804688 1.410156 -1.34375 1.046875 -2.03125 C 0.679688 -2.726562 0.5 -3.535156 0.5 -4.453125 C 0.5 -5.367188 0.679688 -6.171875 1.046875 -6.859375 C 1.410156 -7.554688 1.9375 -8.097656 2.625 -8.484375 C 3.320312 -8.867188 4.160156 -9.0625 5.140625 -9.0625 C 6.109375 -9.0625 6.9375 -8.867188 7.625 -8.484375 C 8.3125 -8.097656 8.835938 -7.554688 9.203125 -6.859375 C 9.566406 -6.171875 9.75 -5.367188 9.75 -4.453125 C 9.75 -3.535156 9.566406 -2.726562 9.203125 -2.03125 C 8.835938 -1.34375 8.3125 -0.804688 7.625 -0.421875 C 6.9375 -0.0351562 6.109375 0.15625 5.140625 0.15625 Z M 5.140625 -2.25 C 5.554688 -2.25 5.878906 -2.441406 6.109375 -2.828125 C 6.347656 -3.222656 6.46875 -3.769531 6.46875 -4.46875 C 6.46875 -5.175781 6.347656 -5.71875 6.109375 -6.09375 C 5.878906 -6.476562 5.554688 -6.671875 5.140625 -6.671875 C 4.710938 -6.671875 4.378906 -6.476562 4.140625 -6.09375 C 3.898438 -5.71875 3.78125 -5.175781 3.78125 -4.46875 C 3.78125 -3.769531 3.898438 -3.222656 4.140625 -2.828125 C 4.378906 -2.441406 4.710938 -2.25 5.140625 -2.25 Z M 5.140625 -2.25 "/></g></g></g><g fill="#ffbd58" fill-opacity="1"><g transform="translate(71.138338, 24.448169)"><g><path d="M 0.8125 3.34375 L 0.8125 -8.953125 L 4 -8.953125 L 4 -7.390625 L 4.078125 -7.390625 C 4.253906 -7.847656 4.550781 -8.238281 4.96875 -8.5625 C 5.394531 -8.894531 5.9375 -9.0625 6.59375 -9.0625 C 7.1875 -9.0625 7.75 -8.90625 8.28125 -8.59375 C 8.8125 -8.28125 9.242188 -7.785156 9.578125 -7.109375 C 9.921875 -6.429688 10.09375 -5.550781 10.09375 -4.46875 C 10.09375 -3.4375 9.929688 -2.582031 9.609375 -1.90625 C 9.285156 -1.226562 8.859375 -0.722656 8.328125 -0.390625 C 7.796875 -0.0546875 7.207031 0.109375 6.5625 0.109375 C 5.9375 0.109375 5.410156 -0.0390625 4.984375 -0.34375 C 4.566406 -0.644531 4.265625 -1.019531 4.078125 -1.46875 L 4.03125 -1.46875 L 4.03125 3.34375 Z M 5.390625 -2.359375 C 5.828125 -2.359375 6.164062 -2.546875 6.40625 -2.921875 C 6.65625 -3.296875 6.78125 -3.8125 6.78125 -4.46875 C 6.78125 -5.132812 6.65625 -5.65625 6.40625 -6.03125 C 6.164062 -6.40625 5.828125 -6.59375 5.390625 -6.59375 C 4.941406 -6.59375 4.585938 -6.40625 4.328125 -6.03125 C 4.078125 -5.65625 3.953125 -5.132812 3.953125 -4.46875 C 3.953125 -3.820312 4.078125 -3.304688 4.328125 -2.921875 C 4.585938 -2.546875 4.941406 -2.359375 5.390625 -2.359375 Z M 5.390625 -2.359375 "/></g></g></g><g fill="#ffbd58" fill-opacity="1"><g transform="translate(83.367792, 24.448169)"><g><path d="M 4.03125 -5.03125 L 4.03125 0 L 0.8125 0 L 0.8125 -11.9375 L 3.953125 -11.9375 L 3.953125 -7.09375 C 4.179688 -7.664062 4.515625 -8.132812 4.953125 -8.5 C 5.390625 -8.875 5.976562 -9.0625 6.71875 -9.0625 C 7.351562 -9.0625 7.898438 -8.914062 8.359375 -8.625 C 8.828125 -8.34375 9.191406 -7.945312 9.453125 -7.4375 C 9.710938 -6.9375 9.84375 -6.359375 9.84375 -5.703125 L 9.84375 0 L 6.609375 0 L 6.609375 -5.03125 C 6.609375 -5.476562 6.492188 -5.828125 6.265625 -6.078125 C 6.046875 -6.328125 5.734375 -6.453125 5.328125 -6.453125 C 4.941406 -6.453125 4.628906 -6.328125 4.390625 -6.078125 C 4.148438 -5.828125 4.03125 -5.476562 4.03125 -5.03125 Z M 4.03125 -5.03125 "/></g></g></g><g fill="#ffbd58" fill-opacity="1"><g transform="translate(95.66132, 24.448169)"><g><path d="M 3.3125 0.140625 C 2.457031 0.140625 1.757812 -0.0703125 1.21875 -0.5 C 0.675781 -0.925781 0.40625 -1.582031 0.40625 -2.46875 C 0.40625 -3.125 0.550781 -3.648438 0.84375 -4.046875 C 1.132812 -4.453125 1.523438 -4.753906 2.015625 -4.953125 C 2.515625 -5.148438 3.070312 -5.269531 3.6875 -5.3125 C 4.4375 -5.375 4.96875 -5.457031 5.28125 -5.5625 C 5.59375 -5.664062 5.75 -5.847656 5.75 -6.109375 L 5.75 -6.140625 C 5.75 -6.367188 5.65625 -6.546875 5.46875 -6.671875 C 5.289062 -6.796875 5.050781 -6.859375 4.75 -6.859375 C 4.4375 -6.859375 4.171875 -6.789062 3.953125 -6.65625 C 3.742188 -6.53125 3.613281 -6.332031 3.5625 -6.0625 L 0.65625 -6.34375 C 0.738281 -6.84375 0.945312 -7.296875 1.28125 -7.703125 C 1.613281 -8.117188 2.070312 -8.445312 2.65625 -8.6875 C 3.238281 -8.9375 3.953125 -9.0625 4.796875 -9.0625 C 5.640625 -9.0625 6.375 -8.929688 7 -8.671875 C 7.632812 -8.421875 8.117188 -8.070312 8.453125 -7.625 C 8.796875 -7.1875 8.96875 -6.691406 8.96875 -6.140625 L 8.96875 0 L 5.953125 0 L 5.953125 -1.265625 L 5.890625 -1.265625 C 5.617188 -0.765625 5.265625 -0.40625 4.828125 -0.1875 C 4.398438 0.0273438 3.894531 0.140625 3.3125 0.140625 Z M 4.359375 -1.890625 C 4.722656 -1.890625 5.050781 -2 5.34375 -2.21875 C 5.632812 -2.445312 5.78125 -2.765625 5.78125 -3.171875 L 5.78125 -3.90625 C 5.445312 -3.78125 5.019531 -3.675781 4.5 -3.59375 C 4.125 -3.53125 3.847656 -3.414062 3.671875 -3.25 C 3.503906 -3.082031 3.421875 -2.882812 3.421875 -2.65625 C 3.421875 -2.40625 3.507812 -2.210938 3.6875 -2.078125 C 3.863281 -1.953125 4.085938 -1.890625 4.359375 -1.890625 Z M 3.09375 -9.984375 C 2.695312 -9.984375 2.359375 -10.113281 2.078125 -10.375 C 1.804688 -10.644531 1.671875 -10.96875 1.671875 -11.34375 C 1.671875 -11.71875 1.804688 -12.035156 2.078125 -12.296875 C 2.359375 -12.566406 2.695312 -12.703125 3.09375 -12.703125 C 3.476562 -12.703125 3.804688 -12.566406 4.078125 -12.296875 C 4.359375 -12.035156 4.5 -11.71875 4.5 -11.34375 C 4.5 -10.96875 4.359375 -10.644531 4.078125 -10.375 C 3.804688 -10.113281 3.476562 -9.984375 3.09375 -9.984375 Z M 6.78125 -9.984375 C 6.394531 -9.984375 6.0625 -10.113281 5.78125 -10.375 C 5.507812 -10.644531 5.375 -10.96875 5.375 -11.34375 C 5.375 -11.71875 5.507812 -12.035156 5.78125 -12.296875 C 6.0625 -12.566406 6.394531 -12.703125 6.78125 -12.703125 C 7.175781 -12.703125 7.507812 -12.566406 7.78125 -12.296875 C 8.0625 -12.035156 8.203125 -11.71875 8.203125 -11.34375 C 8.203125 -10.96875 8.0625 -10.644531 7.78125 -10.375 C 7.507812 -10.113281 7.175781 -9.984375 6.78125 -9.984375 Z M 6.78125 -9.984375 "/></g></g></g><g fill="#ffbd58" fill-opacity="1"><g transform="translate(107.089848, 24.448169)"><g><path d="M 5.109375 0.15625 C 3.671875 0.15625 2.539062 -0.25 1.71875 -1.0625 C 0.90625 -1.875 0.5 -3.003906 0.5 -4.453125 C 0.5 -5.378906 0.679688 -6.1875 1.046875 -6.875 C 1.421875 -7.570312 1.945312 -8.109375 2.625 -8.484375 C 3.300781 -8.867188 4.101562 -9.0625 5.03125 -9.0625 C 5.9375 -9.0625 6.722656 -8.875 7.390625 -8.5 C 8.054688 -8.132812 8.570312 -7.609375 8.9375 -6.921875 C 9.300781 -6.234375 9.484375 -5.414062 9.484375 -4.46875 L 9.484375 -3.734375 L 3.65625 -3.734375 C 3.675781 -3.179688 3.820312 -2.769531 4.09375 -2.5 C 4.375 -2.226562 4.734375 -2.09375 5.171875 -2.09375 C 5.503906 -2.09375 5.785156 -2.160156 6.015625 -2.296875 C 6.253906 -2.429688 6.421875 -2.625 6.515625 -2.875 L 9.359375 -2.453125 C 9.128906 -1.648438 8.648438 -1.015625 7.921875 -0.546875 C 7.191406 -0.078125 6.253906 0.15625 5.109375 0.15625 Z M 3.671875 -5.5 L 6.453125 -5.5 C 6.347656 -6.375 5.882812 -6.8125 5.0625 -6.8125 C 4.238281 -6.8125 3.773438 -6.375 3.671875 -5.5 Z M 3.671875 -5.5 "/></g></g></g><g fill="#ffbd58" fill-opacity="1"><g transform="translate(118.678562, 24.448169)"><g><path d="M 4.03125 -5.03125 L 4.03125 0 L 0.8125 0 L 0.8125 -8.953125 L 3.84375 -8.953125 L 3.890625 -6.9375 C 4.109375 -7.539062 4.441406 -8.046875 4.890625 -8.453125 C 5.335938 -8.859375 5.945312 -9.0625 6.71875 -9.0625 C 7.351562 -9.0625 7.898438 -8.914062 8.359375 -8.625 C 8.828125 -8.34375 9.191406 -7.945312 9.453125 -7.4375 C 9.710938 -6.9375 9.84375 -6.359375 9.84375 -5.703125 L 9.84375 0 L 6.609375 0 L 6.609375 -5.03125 C 6.609375 -5.476562 6.492188 -5.828125 6.265625 -6.078125 C 6.046875 -6.328125 5.734375 -6.453125 5.328125 -6.453125 C 4.941406 -6.453125 4.628906 -6.328125 4.390625 -6.078125 C 4.148438 -5.828125 4.03125 -5.476562 4.03125 -5.03125 Z M 4.03125 -5.03125 "/></g></g></g></svg>