<svg xmlns="http://www.w3.org/2000/svg" xmlns:xlink="http://www.w3.org/1999/xlink" width="320" zoomAndPan="magnify" viewBox="0 0 240 50.999998" height="68" preserveAspectRatio="xMidYMid meet" version="1.0"><defs><g/><clipPath id="4ac7fe7e9d"><path d="M 0 0 L 239.535156 0 L 239.535156 50.847656 L 0 50.847656 Z M 0 0 " clip-rule="nonzero"/></clipPath><clipPath id="206546955b"><path d="M 25.421875 0 L 214.003906 0 C 228.046875 0 239.429688 11.382812 239.429688 25.421875 C 239.429688 39.464844 228.046875 50.847656 214.003906 50.847656 L 25.421875 50.847656 C 11.382812 50.847656 0 39.464844 0 25.421875 C 0 11.382812 11.382812 0 25.421875 0 Z M 25.421875 0 " clip-rule="nonzero"/></clipPath><clipPath id="ea26caf96f"><path d="M 0 0 L 239.519531 0 L 239.519531 50.847656 L 0 50.847656 Z M 0 0 " clip-rule="nonzero"/></clipPath><clipPath id="39dc6767bd"><path d="M 25.421875 0 L 214.003906 0 C 228.046875 0 239.429688 11.382812 239.429688 25.421875 C 239.429688 39.464844 228.046875 50.847656 214.003906 50.847656 L 25.421875 50.847656 C 11.382812 50.847656 0 39.464844 0 25.421875 C 0 11.382812 11.382812 0 25.421875 0 Z M 25.421875 0 " clip-rule="nonzero"/></clipPath><clipPath id="5f020af08b"><rect x="0" width="240" y="0" height="51"/></clipPath><clipPath id="e6f2e86200"><path d="M 0.0234375 0 L 239.25 0 L 239.25 51 L 0.0234375 51 Z M 0.0234375 0 " clip-rule="nonzero"/></clipPath><clipPath id="6d147730c6"><path d="M 25.441406 0 L 213.984375 0 C 228.023438 0 239.402344 11.378906 239.402344 25.417969 C 239.402344 39.457031 228.023438 50.835938 213.984375 50.835938 L 25.441406 50.835938 C 11.402344 50.835938 0.0234375 39.457031 0.0234375 25.417969 C 0.0234375 11.378906 11.402344 0 25.441406 0 Z M 25.441406 0 " clip-rule="nonzero"/></clipPath></defs><g clip-path="url(#4ac7fe7e9d)"><g clip-path="url(#206546955b)"><g transform="matrix(1, 0, 0, 1, -0, 0)"><g clip-path="url(#5f020af08b)"><g clip-path="url(#ea26caf96f)"><g clip-path="url(#39dc6767bd)"><path fill="#5ec269" d="M 0 0 L 239.335938 0 L 239.335938 50.847656 L 0 50.847656 Z M 0 0 " fill-opacity="1" fill-rule="nonzero"/></g></g></g></g></g></g><g clip-path="url(#e6f2e86200)"><g clip-path="url(#6d147730c6)"><path stroke-linecap="butt" transform="matrix(0.75, 0, 0, 0.75, 0.00000470767, -0.000000000000031974)" fill="none" stroke-linejoin="miter" d="M 33.921874 0.000000000000042633 L 285.312535 0.000000000000042633 C 304.031288 0.000000000000042633 319.203165 15.171877 319.203165 33.89063 C 319.203165 52.609383 304.031288 67.78126 285.312535 67.78126 L 33.921874 67.78126 C 15.203121 67.78126 0.0312437 52.609383 0.0312437 33.89063 C 0.0312437 15.171877 15.203121 0.000000000000042633 33.921874 0.000000000000042633 Z M 33.921874 0.000000000000042633 " stroke="#4bde80" stroke-width="4" stroke-opacity="1" stroke-miterlimit="4"/></g></g><g fill="#0e1823" fill-opacity="1"><g transform="translate(77.534825, 29.999998)"><g><path d="M 3.390625 0 L 0.359375 -11.46875 L 3.828125 -11.46875 L 4.75 -7.015625 C 4.863281 -6.472656 4.96875 -5.878906 5.0625 -5.234375 C 5.15625 -4.585938 5.238281 -3.945312 5.3125 -3.3125 C 5.414062 -3.945312 5.519531 -4.585938 5.625 -5.234375 C 5.726562 -5.878906 5.835938 -6.472656 5.953125 -7.015625 L 6.96875 -11.46875 L 10.078125 -11.46875 L 11.09375 -7.015625 C 11.21875 -6.484375 11.328125 -5.894531 11.421875 -5.25 C 11.523438 -4.613281 11.628906 -3.976562 11.734375 -3.34375 C 11.816406 -3.976562 11.898438 -4.613281 11.984375 -5.25 C 12.078125 -5.894531 12.179688 -6.484375 12.296875 -7.015625 L 13.21875 -11.46875 L 16.703125 -11.46875 L 13.65625 0 L 10.140625 0 L 9 -4.671875 C 8.90625 -5.097656 8.816406 -5.539062 8.734375 -6 C 8.660156 -6.46875 8.585938 -6.941406 8.515625 -7.421875 C 8.453125 -6.953125 8.382812 -6.484375 8.3125 -6.015625 C 8.25 -5.546875 8.164062 -5.097656 8.0625 -4.671875 L 6.90625 0 Z M 3.390625 0 "/></g></g></g><g fill="#0e1823" fill-opacity="1"><g transform="translate(96.166949, 29.999998)"><g><path d="M 0.734375 0 L 0.734375 -11.46875 L 9 -11.46875 L 9 -8.953125 L 3.84375 -8.953125 L 3.84375 -7.015625 L 8.578125 -7.015625 L 8.578125 -4.578125 L 3.84375 -4.578125 L 3.84375 -2.515625 L 8.96875 -2.515625 L 8.96875 0 Z M 0.734375 0 "/></g></g></g><g fill="#0e1823" fill-opacity="1"><g transform="translate(107.403077, 29.999998)"><g><path d="M 3.84375 -11.46875 L 3.84375 0 L 0.734375 0 L 0.734375 -11.46875 Z M 3.84375 -11.46875 "/></g></g></g><g fill="#0e1823" fill-opacity="1"><g transform="translate(113.567437, 29.999998)"><g><path d="M 0.4375 -8.953125 L 0.4375 -11.46875 L 10.390625 -11.46875 L 10.390625 -8.953125 L 6.96875 -8.953125 L 6.96875 0 L 3.859375 0 L 3.859375 -8.953125 Z M 0.4375 -8.953125 "/></g></g></g><g fill="#0e1823" fill-opacity="1"><g transform="translate(125.965679, 29.999998)"><g><path d="M 0.734375 0 L 0.734375 -11.46875 L 9 -11.46875 L 9 -8.953125 L 3.84375 -8.953125 L 3.84375 -7.015625 L 8.578125 -7.015625 L 8.578125 -4.578125 L 3.84375 -4.578125 L 3.84375 -2.515625 L 8.96875 -2.515625 L 8.96875 0 Z M 0.734375 0 "/></g></g></g><g fill="#0e1823" fill-opacity="1"><g transform="translate(137.201808, 29.999998)"><g><path d="M 0.734375 0 L 0.734375 -11.46875 L 5.6875 -11.46875 C 6.53125 -11.46875 7.269531 -11.3125 7.90625 -11 C 8.550781 -10.6875 9.050781 -10.238281 9.40625 -9.65625 C 9.769531 -9.082031 9.953125 -8.390625 9.953125 -7.578125 C 9.953125 -6.773438 9.773438 -6.097656 9.421875 -5.546875 C 9.078125 -4.992188 8.597656 -4.570312 7.984375 -4.28125 L 10.328125 0 L 6.9375 0 L 4.921875 -3.78125 L 3.84375 -3.78125 L 3.84375 0 Z M 3.84375 -6.203125 L 4.9375 -6.203125 C 5.488281 -6.203125 5.921875 -6.304688 6.234375 -6.515625 C 6.546875 -6.722656 6.703125 -7.078125 6.703125 -7.578125 C 6.703125 -8.066406 6.546875 -8.421875 6.234375 -8.640625 C 5.921875 -8.859375 5.488281 -8.96875 4.9375 -8.96875 L 3.84375 -8.96875 Z M 3.84375 -6.203125 "/></g></g></g></svg>