<svg xmlns="http://www.w3.org/2000/svg" xmlns:xlink="http://www.w3.org/1999/xlink" width="254" zoomAndPan="magnify" viewBox="0 0 190.5 283.500005" height="378" preserveAspectRatio="xMidYMid meet" version="1.0"><defs><g/><clipPath id="4d43070765"><path d="M 0 0.121094 L 189.480469 0.121094 L 189.480469 282.863281 L 0 282.863281 Z M 0 0.121094 " clip-rule="nonzero"/></clipPath><clipPath id="2cda6dcc32"><path d="M 189.480469 14.167969 L 189.480469 268.378906 C 189.480469 272.105469 188 275.679688 185.367188 278.3125 C 182.730469 280.945312 179.160156 282.425781 175.433594 282.425781 L 14.046875 282.425781 C 10.320312 282.425781 6.75 280.945312 4.113281 278.3125 C 1.480469 275.679688 0 272.105469 0 268.378906 L 0 14.167969 C 0 10.445312 1.480469 6.871094 4.113281 4.234375 C 6.75 1.601562 10.320312 0.121094 14.046875 0.121094 L 175.433594 0.121094 C 179.160156 0.121094 182.730469 1.601562 185.367188 4.234375 C 188 6.871094 189.480469 10.445312 189.480469 14.167969 Z M 189.480469 14.167969 " clip-rule="nonzero"/></clipPath><clipPath id="a9ddc3b08c"><path d="M 0 0.121094 L 189.480469 0.121094 L 189.480469 282.582031 L 0 282.582031 Z M 0 0.121094 " clip-rule="nonzero"/></clipPath><clipPath id="45fe8ca7a3"><path d="M 189.480469 14.167969 L 189.480469 268.378906 C 189.480469 272.105469 188 275.679688 185.367188 278.3125 C 182.730469 280.945312 179.160156 282.425781 175.433594 282.425781 L 14.046875 282.425781 C 10.320312 282.425781 6.75 280.945312 4.113281 278.3125 C 1.480469 275.679688 0 272.105469 0 268.378906 L 0 14.167969 C 0 10.445312 1.480469 6.871094 4.113281 4.234375 C 6.75 1.601562 10.320312 0.121094 14.046875 0.121094 L 175.433594 0.121094 C 179.160156 0.121094 182.730469 1.601562 185.367188 4.234375 C 188 6.871094 189.480469 10.445312 189.480469 14.167969 Z M 189.480469 14.167969 " clip-rule="nonzero"/></clipPath><clipPath id="f5e1506174"><rect x="0" width="190" y="0" height="283"/></clipPath><clipPath id="b4635d352d"><path d="M 0 0.125 L 189.253906 0.125 L 189.253906 282.132812 L 0 282.132812 Z M 0 0.125 " clip-rule="nonzero"/></clipPath><clipPath id="061c971efd"><path d="M 189.476562 14.171875 L 189.476562 268.375 C 189.476562 272.101562 187.996094 275.671875 185.359375 278.308594 C 182.726562 280.941406 179.152344 282.421875 175.429688 282.421875 L 14.046875 282.421875 C 10.320312 282.421875 6.75 280.941406 4.113281 278.308594 C 1.480469 275.671875 0 272.101562 0 268.375 L 0 14.171875 C 0 10.445312 1.480469 6.871094 4.113281 4.238281 C 6.75 1.605469 10.320312 0.125 14.046875 0.125 L 175.429688 0.125 C 179.152344 0.125 182.726562 1.605469 185.359375 4.238281 C 187.996094 6.871094 189.476562 10.445312 189.476562 14.171875 Z M 189.476562 14.171875 " clip-rule="nonzero"/></clipPath><clipPath id="8c844b26a7"><path d="M 1.78125 248.121094 L 188.191406 248.121094 L 188.191406 273.984375 L 1.78125 273.984375 Z M 1.78125 248.121094 " clip-rule="nonzero"/></clipPath><clipPath id="7f4fe39a51"><path d="M 0.78125 0.121094 L 187.191406 0.121094 L 187.191406 25.984375 L 0.78125 25.984375 Z M 0.78125 0.121094 " clip-rule="nonzero"/></clipPath><clipPath id="49b199929f"><rect x="0" width="188" y="0" height="26"/></clipPath><clipPath id="258959a6bf"><path d="M 3.402344 262.273438 L 186.40625 262.273438 L 186.40625 276.972656 L 3.402344 276.972656 Z M 3.402344 262.273438 " clip-rule="nonzero"/></clipPath><clipPath id="1828ea2a0f"><path d="M 0.402344 0.273438 L 183.40625 0.273438 L 183.40625 14.972656 L 0.402344 14.972656 Z M 0.402344 0.273438 " clip-rule="nonzero"/></clipPath><clipPath id="f21dd2744d"><rect x="0" width="184" y="0" height="15"/></clipPath><clipPath id="92c2a9f3db"><path d="M 9.800781 266.632812 L 179.675781 266.632812 L 179.675781 281.335938 L 9.800781 281.335938 Z M 9.800781 266.632812 " clip-rule="nonzero"/></clipPath><clipPath id="fde14b7f13"><path d="M 0.800781 0.632812 L 170.675781 0.632812 L 170.675781 15.335938 L 0.800781 15.335938 Z M 0.800781 0.632812 " clip-rule="nonzero"/></clipPath><clipPath id="77e4facd97"><rect x="0" width="171" y="0" height="16"/></clipPath><clipPath id="27eb4232fa"><path d="M 2 270 L 15 270 L 15 282 L 2 282 Z M 2 270 " clip-rule="nonzero"/></clipPath><clipPath id="48ac895576"><path d="M 2.449219 275.304688 L 5.628906 270.78125 L 14.207031 276.808594 L 11.027344 281.332031 Z M 2.449219 275.304688 " clip-rule="nonzero"/></clipPath><clipPath id="fae505e16c"><path d="M 0.394531 0.613281 L 12.363281 0.613281 L 12.363281 11.382812 L 0.394531 11.382812 Z M 0.394531 0.613281 " clip-rule="nonzero"/></clipPath><clipPath id="8ee5cbef18"><path d="M 0.449219 5.304688 L 3.628906 0.78125 L 12.207031 6.808594 L 9.027344 11.332031 Z M 0.449219 5.304688 " clip-rule="nonzero"/></clipPath><clipPath id="1b095e2e29"><rect x="0" width="13" y="0" height="12"/></clipPath><clipPath id="272004d5c3"><path d="M 176 268 L 188 268 L 188 281 L 176 281 Z M 176 268 " clip-rule="nonzero"/></clipPath><clipPath id="c6ef45f40a"><path d="M 180.585938 280.285156 L 176.484375 276.570312 L 183.527344 268.800781 L 187.625 272.515625 Z M 180.585938 280.285156 " clip-rule="nonzero"/></clipPath><clipPath id="3e3ef462d9"><path d="M 0.417969 0.695312 L 11.667969 0.695312 L 11.667969 12.425781 L 0.417969 12.425781 Z M 0.417969 0.695312 " clip-rule="nonzero"/></clipPath><clipPath id="520d95339f"><path d="M 4.585938 12.285156 L 0.484375 8.570312 L 7.527344 0.800781 L 11.625 4.515625 Z M 4.585938 12.285156 " clip-rule="nonzero"/></clipPath><clipPath id="7dcff9d3be"><rect x="0" width="12" y="0" height="13"/></clipPath><clipPath id="8b6ebea8a5"><rect x="0" width="89" y="0" height="16"/></clipPath><clipPath id="ee3830bb05"><rect x="0" width="126" y="0" height="73"/></clipPath></defs><g clip-path="url(#4d43070765)"><g clip-path="url(#2cda6dcc32)"><g transform="matrix(1, 0, 0, 1, -0, -0.000000000000003192)"><g clip-path="url(#f5e1506174)"><g clip-path="url(#a9ddc3b08c)"><g clip-path="url(#45fe8ca7a3)"><path fill="#151620" d="M 0 0.121094 L 189.480469 0.121094 L 189.480469 282.121094 L 0 282.121094 Z M 0 0.121094 " fill-opacity="1" fill-rule="nonzero"/></g></g></g></g></g></g><g clip-path="url(#b4635d352d)"><g clip-path="url(#061c971efd)"><path stroke-linecap="butt" transform="matrix(0.748037, 0, 0, 0.748037, -0.000000000000044908, 0.12174)" fill="none" stroke-linejoin="miter" d="M 253.298512 18.782683 L 253.298512 358.609797 C 253.298512 363.591589 251.319373 368.3645 247.79452 371.889352 C 244.27489 375.408983 239.496756 377.388122 234.520187 377.388122 L 18.778325 377.388122 C 13.796534 377.388122 9.023622 375.408983 5.49877 371.889352 C 1.979139 368.3645 0.000000000000060034 363.591589 0.000000000000060034 358.609797 L 0.000000000000060034 18.782683 C 0.000000000000060034 13.800892 1.979139 9.022758 5.49877 5.503128 C 9.023622 1.983497 13.796534 0.00435778 18.778325 0.00435778 L 234.520187 0.00435778 C 239.496756 0.00435778 244.27489 1.983497 247.79452 5.503128 C 251.319373 9.022758 253.298512 13.800892 253.298512 18.782683 Z M 253.298512 18.782683 " stroke="#6797df" stroke-width="6" stroke-opacity="1" stroke-miterlimit="4"/></g></g><g clip-path="url(#8c844b26a7)"><g transform="matrix(1, 0, 0, 1, 1, 248)"><g clip-path="url(#49b199929f)"><g clip-path="url(#7f4fe39a51)"><path fill="#6797df" d="M 0.78125 0.121094 L 187.179688 0.121094 L 187.179688 25.984375 L 0.78125 25.984375 Z M 0.78125 0.121094 " fill-opacity="1" fill-rule="nonzero"/></g></g></g></g><g clip-path="url(#258959a6bf)"><g transform="matrix(1, 0, 0, 1, 3, 262)"><g clip-path="url(#f21dd2744d)"><g clip-path="url(#1828ea2a0f)"><path fill="#6797df" d="M 0.402344 0.273438 L 183.386719 0.273438 L 183.386719 14.972656 L 0.402344 14.972656 Z M 0.402344 0.273438 " fill-opacity="1" fill-rule="nonzero"/></g></g></g></g><g clip-path="url(#92c2a9f3db)"><g transform="matrix(1, 0, 0, 1, 9, 266)"><g clip-path="url(#77e4facd97)"><g clip-path="url(#fde14b7f13)"><path fill="#6797df" d="M 0.800781 0.632812 L 170.6875 0.632812 L 170.6875 15.335938 L 0.800781 15.335938 Z M 0.800781 0.632812 " fill-opacity="1" fill-rule="nonzero"/></g></g></g></g><g clip-path="url(#27eb4232fa)"><g clip-path="url(#48ac895576)"><g transform="matrix(1, 0, 0, 1, 2, 270)"><g clip-path="url(#1b095e2e29)"><g clip-path="url(#fae505e16c)"><g clip-path="url(#8ee5cbef18)"><path fill="#6797df" d="M 0.449219 5.304688 L 3.628906 0.78125 L 12.203125 6.804688 L 9.023438 11.328125 Z M 0.449219 5.304688 " fill-opacity="1" fill-rule="nonzero"/></g></g></g></g></g></g><g clip-path="url(#272004d5c3)"><g clip-path="url(#c6ef45f40a)"><g transform="matrix(1, 0, 0, 1, 176, 268)"><g clip-path="url(#7dcff9d3be)"><g clip-path="url(#3e3ef462d9)"><g clip-path="url(#520d95339f)"><path fill="#6797df" d="M 4.585938 12.285156 L 0.484375 8.570312 L 7.523438 0.804688 L 11.621094 4.519531 Z M 4.585938 12.285156 " fill-opacity="1" fill-rule="nonzero"/></g></g></g></g></g></g><g transform="matrix(1, 0, 0, 1, 51, 256)"><g clip-path="url(#8b6ebea8a5)"><g fill="#151620" fill-opacity="1"><g transform="translate(1.25644, 11.66963)"><g><path d="M 0.265625 0 L 3.09375 -8.71875 L 6.328125 -8.71875 L 9.25 0 L 6.578125 0 L 6.078125 -1.671875 L 3.390625 -1.671875 L 2.921875 0 Z M 3.890625 -3.4375 L 5.546875 -3.4375 C 5.390625 -3.96875 5.238281 -4.515625 5.09375 -5.078125 C 4.945312 -5.640625 4.8125 -6.207031 4.6875 -6.78125 C 4.5625 -6.207031 4.4375 -5.640625 4.3125 -5.078125 C 4.1875 -4.515625 4.046875 -3.96875 3.890625 -3.4375 Z M 3.890625 -3.4375 "/></g></g></g><g fill="#151620" fill-opacity="1"><g transform="translate(11.783713, 11.66963)"><g><path d="M 4.3125 0.109375 C 3.5625 0.109375 2.90625 -0.0195312 2.34375 -0.28125 C 1.78125 -0.550781 1.34375 -0.925781 1.03125 -1.40625 C 0.71875 -1.894531 0.5625 -2.472656 0.5625 -3.140625 L 0.5625 -8.71875 L 2.921875 -8.71875 L 2.921875 -3.328125 C 2.921875 -2.929688 3.050781 -2.597656 3.3125 -2.328125 C 3.582031 -2.066406 3.914062 -1.9375 4.3125 -1.9375 C 4.726562 -1.9375 5.066406 -2.066406 5.328125 -2.328125 C 5.585938 -2.597656 5.71875 -2.929688 5.71875 -3.328125 L 5.71875 -8.71875 L 8.09375 -8.71875 L 8.09375 -3.140625 C 8.09375 -2.472656 7.929688 -1.894531 7.609375 -1.40625 C 7.296875 -0.925781 6.851562 -0.550781 6.28125 -0.28125 C 5.71875 -0.0195312 5.0625 0.109375 4.3125 0.109375 Z M 4.3125 0.109375 "/></g></g></g><g fill="#151620" fill-opacity="1"><g transform="translate(21.66731, 11.66963)"><g><path d="M 0.5625 0 L 0.5625 -8.71875 L 6.6875 -8.71875 L 6.6875 -6.8125 L 2.921875 -6.8125 L 2.921875 -4.84375 L 6.3125 -4.84375 L 6.3125 -2.984375 L 2.921875 -2.984375 L 2.921875 0 Z M 0.5625 0 "/></g></g></g><g fill="#151620" fill-opacity="1"><g transform="translate(29.900713, 11.66963)"><g><path d="M 3.921875 0 L 0.5625 0 L 0.5625 -8.71875 L 3.890625 -8.71875 C 4.785156 -8.71875 5.554688 -8.539062 6.203125 -8.1875 C 6.859375 -7.84375 7.363281 -7.34375 7.71875 -6.6875 C 8.070312 -6.039062 8.25 -5.265625 8.25 -4.359375 C 8.25 -3.453125 8.070312 -2.671875 7.71875 -2.015625 C 7.363281 -1.367188 6.863281 -0.867188 6.21875 -0.515625 C 5.570312 -0.171875 4.804688 0 3.921875 0 Z M 2.921875 -2.015625 L 3.828125 -2.015625 C 4.265625 -2.015625 4.632812 -2.082031 4.9375 -2.21875 C 5.238281 -2.351562 5.46875 -2.59375 5.625 -2.9375 C 5.789062 -3.28125 5.875 -3.753906 5.875 -4.359375 C 5.875 -4.960938 5.789062 -5.4375 5.625 -5.78125 C 5.46875 -6.125 5.226562 -6.363281 4.90625 -6.5 C 4.59375 -6.632812 4.207031 -6.703125 3.75 -6.703125 L 2.921875 -6.703125 Z M 2.921875 -2.015625 "/></g></g></g><g fill="#151620" fill-opacity="1"><g transform="translate(39.796014, 11.66963)"><g><path d="M 0.5625 0 L 0.5625 -8.71875 L 6.84375 -8.71875 L 6.84375 -6.8125 L 2.921875 -6.8125 L 2.921875 -5.34375 L 6.515625 -5.34375 L 6.515625 -3.46875 L 2.921875 -3.46875 L 2.921875 -1.90625 L 6.828125 -1.90625 L 6.828125 0 Z M 0.5625 0 "/></g></g></g><g fill="#151620" fill-opacity="1"><g transform="translate(48.374674, 11.66963)"><g><path d="M 4.609375 0.109375 C 3.816406 0.109375 3.101562 -0.0546875 2.46875 -0.390625 C 1.832031 -0.734375 1.328125 -1.238281 0.953125 -1.90625 C 0.585938 -2.570312 0.40625 -3.390625 0.40625 -4.359375 C 0.40625 -5.328125 0.59375 -6.144531 0.96875 -6.8125 C 1.34375 -7.476562 1.847656 -7.984375 2.484375 -8.328125 C 3.117188 -8.671875 3.828125 -8.84375 4.609375 -8.84375 C 5.335938 -8.84375 5.984375 -8.710938 6.546875 -8.453125 C 7.117188 -8.191406 7.582031 -7.816406 7.9375 -7.328125 C 8.289062 -6.835938 8.5 -6.238281 8.5625 -5.53125 L 6.171875 -5.53125 C 6.117188 -5.90625 5.96875 -6.207031 5.71875 -6.4375 C 5.46875 -6.664062 5.125 -6.78125 4.6875 -6.78125 C 4.09375 -6.78125 3.632812 -6.566406 3.3125 -6.140625 C 3 -5.710938 2.84375 -5.117188 2.84375 -4.359375 C 2.84375 -3.554688 3 -2.953125 3.3125 -2.546875 C 3.632812 -2.140625 4.085938 -1.9375 4.671875 -1.9375 C 5.097656 -1.9375 5.441406 -2.050781 5.703125 -2.28125 C 5.960938 -2.507812 6.117188 -2.8125 6.171875 -3.1875 L 8.578125 -3.1875 C 8.546875 -2.8125 8.441406 -2.429688 8.265625 -2.046875 C 8.085938 -1.660156 7.832031 -1.300781 7.5 -0.96875 C 7.175781 -0.644531 6.773438 -0.382812 6.296875 -0.1875 C 5.816406 0.0078125 5.253906 0.109375 4.609375 0.109375 Z M 4.609375 0.109375 "/></g></g></g><g fill="#151620" fill-opacity="1"><g transform="translate(58.568419, 11.66963)"><g><path d="M 0.5625 0 L 0.5625 -8.71875 L 2.921875 -8.71875 L 2.921875 -6.84375 L 2.890625 -4.625 C 3.035156 -4.90625 3.203125 -5.1875 3.390625 -5.46875 C 3.585938 -5.757812 3.832031 -6.097656 4.125 -6.484375 L 5.859375 -8.71875 L 8.671875 -8.71875 L 5.625 -4.96875 L 8.828125 0 L 6.046875 0 L 4 -3.40625 L 2.921875 -2.171875 L 2.921875 0 Z M 0.5625 0 "/></g></g></g><g fill="#151620" fill-opacity="1"><g transform="translate(68.902605, 11.66963)"><g><path d="M 0.5625 0 L 0.5625 -8.71875 L 6.84375 -8.71875 L 6.84375 -6.8125 L 2.921875 -6.8125 L 2.921875 -5.34375 L 6.515625 -5.34375 L 6.515625 -3.46875 L 2.921875 -3.46875 L 2.921875 -1.90625 L 6.828125 -1.90625 L 6.828125 0 Z M 0.5625 0 "/></g></g></g><g fill="#151620" fill-opacity="1"><g transform="translate(77.481266, 11.66963)"><g><path d="M 0.5625 0 L 0.5625 -8.71875 L 3.140625 -8.71875 L 5.21875 -5.296875 C 5.4375 -4.929688 5.632812 -4.566406 5.8125 -4.203125 C 6 -3.835938 6.179688 -3.410156 6.359375 -2.921875 C 6.328125 -3.367188 6.296875 -3.832031 6.265625 -4.3125 C 6.234375 -4.800781 6.21875 -5.207031 6.21875 -5.53125 L 6.21875 -8.71875 L 8.65625 -8.71875 L 8.65625 0 L 6.078125 0 L 4.15625 -3.1875 C 3.882812 -3.625 3.648438 -4.03125 3.453125 -4.40625 C 3.265625 -4.789062 3.066406 -5.226562 2.859375 -5.71875 C 2.898438 -5.21875 2.929688 -4.738281 2.953125 -4.28125 C 2.984375 -3.832031 3 -3.46875 3 -3.1875 L 3 0 Z M 0.5625 0 "/></g></g></g></g></g><g transform="matrix(1, 0, 0, 1, 32, 83)"><g clip-path="url(#ee3830bb05)"><g fill="#222a35" fill-opacity="1"><g transform="translate(0.729641, 30.700721)"><g><path d="M 0.859375 -17.875 L 0.859375 -22.875 L 20.71875 -22.875 L 20.71875 -17.875 L 13.890625 -17.875 L 13.890625 0 L 7.6875 0 L 7.6875 -17.875 Z M 0.859375 -17.875 "/></g></g></g><g fill="#222a35" fill-opacity="1"><g transform="translate(22.314188, 30.700721)"><g><path d="M 0.703125 0 L 8.125 -22.875 L 16.59375 -22.875 L 24.28125 0 L 17.25 0 L 15.9375 -4.390625 L 8.90625 -4.390625 L 7.640625 0 Z M 10.21875 -9.03125 L 14.546875 -9.03125 C 14.128906 -10.414062 13.734375 -11.847656 13.359375 -13.328125 C 12.984375 -14.804688 12.628906 -16.296875 12.296875 -17.796875 C 11.972656 -16.296875 11.644531 -14.804688 11.3125 -13.328125 C 10.988281 -11.847656 10.625 -10.414062 10.21875 -9.03125 Z M 10.21875 -9.03125 "/></g></g></g><g fill="#222a35" fill-opacity="1"><g transform="translate(47.306822, 30.700721)"><g><path d="M 12.09375 0.3125 C 10.007812 0.3125 8.132812 -0.132812 6.46875 -1.03125 C 4.800781 -1.9375 3.484375 -3.257812 2.515625 -5 C 1.554688 -6.75 1.078125 -8.890625 1.078125 -11.421875 C 1.078125 -13.972656 1.566406 -16.125 2.546875 -17.875 C 3.523438 -19.625 4.847656 -20.941406 6.515625 -21.828125 C 8.191406 -22.722656 10.050781 -23.171875 12.09375 -23.171875 C 14 -23.171875 15.695312 -22.832031 17.1875 -22.15625 C 18.675781 -21.488281 19.882812 -20.507812 20.8125 -19.21875 C 21.738281 -17.925781 22.289062 -16.359375 22.46875 -14.515625 L 16.171875 -14.515625 C 16.054688 -15.492188 15.664062 -16.28125 15 -16.875 C 14.34375 -17.476562 13.4375 -17.78125 12.28125 -17.78125 C 10.726562 -17.78125 9.535156 -17.21875 8.703125 -16.09375 C 7.867188 -14.96875 7.453125 -13.410156 7.453125 -11.421875 C 7.453125 -9.328125 7.875 -7.75 8.71875 -6.6875 C 9.5625 -5.625 10.738281 -5.09375 12.25 -5.09375 C 13.382812 -5.09375 14.289062 -5.390625 14.96875 -5.984375 C 15.644531 -6.585938 16.054688 -7.375 16.203125 -8.34375 L 22.5 -8.34375 C 22.425781 -7.375 22.15625 -6.382812 21.6875 -5.375 C 21.226562 -4.363281 20.566406 -3.425781 19.703125 -2.5625 C 18.835938 -1.707031 17.769531 -1.015625 16.5 -0.484375 C 15.238281 0.0429688 13.769531 0.3125 12.09375 0.3125 Z M 12.09375 0.3125 "/></g></g></g><g fill="#222a35" fill-opacity="1"><g transform="translate(70.810341, 30.700721)"><g><path d="M 0.859375 -17.875 L 0.859375 -22.875 L 20.71875 -22.875 L 20.71875 -17.875 L 13.890625 -17.875 L 13.890625 0 L 7.6875 0 L 7.6875 -17.875 Z M 0.859375 -17.875 "/></g></g></g><g fill="#222a35" fill-opacity="1"><g transform="translate(92.394889, 30.700721)"><g><path d="M 7.671875 -22.875 L 7.671875 0 L 1.46875 0 L 1.46875 -22.875 Z M 7.671875 -22.875 "/></g></g></g><g fill="#222a35" fill-opacity="1"><g transform="translate(101.544526, 30.700721)"><g><path d="M 12.09375 0.3125 C 10.007812 0.3125 8.132812 -0.132812 6.46875 -1.03125 C 4.800781 -1.9375 3.484375 -3.257812 2.515625 -5 C 1.554688 -6.75 1.078125 -8.890625 1.078125 -11.421875 C 1.078125 -13.972656 1.566406 -16.125 2.546875 -17.875 C 3.523438 -19.625 4.847656 -20.941406 6.515625 -21.828125 C 8.191406 -22.722656 10.050781 -23.171875 12.09375 -23.171875 C 14 -23.171875 15.695312 -22.832031 17.1875 -22.15625 C 18.675781 -21.488281 19.882812 -20.507812 20.8125 -19.21875 C 21.738281 -17.925781 22.289062 -16.359375 22.46875 -14.515625 L 16.171875 -14.515625 C 16.054688 -15.492188 15.664062 -16.28125 15 -16.875 C 14.34375 -17.476562 13.4375 -17.78125 12.28125 -17.78125 C 10.726562 -17.78125 9.535156 -17.21875 8.703125 -16.09375 C 7.867188 -14.96875 7.453125 -13.410156 7.453125 -11.421875 C 7.453125 -9.328125 7.875 -7.75 8.71875 -6.6875 C 9.5625 -5.625 10.738281 -5.09375 12.25 -5.09375 C 13.382812 -5.09375 14.289062 -5.390625 14.96875 -5.984375 C 15.644531 -6.585938 16.054688 -7.375 16.203125 -8.34375 L 22.5 -8.34375 C 22.425781 -7.375 22.15625 -6.382812 21.6875 -5.375 C 21.226562 -4.363281 20.566406 -3.425781 19.703125 -2.5625 C 18.835938 -1.707031 17.769531 -1.015625 16.5 -0.484375 C 15.238281 0.0429688 13.769531 0.3125 12.09375 0.3125 Z M 12.09375 0.3125 "/></g></g></g><g fill="#222a35" fill-opacity="1"><g transform="translate(0.729641, 64.976953)"><g><path d="M 2.53125 0 L 2.53125 -22.875 L 10.734375 -22.875 C 12.492188 -22.875 13.960938 -22.566406 15.140625 -21.953125 C 16.316406 -21.335938 17.195312 -20.488281 17.78125 -19.40625 C 18.363281 -18.332031 18.65625 -17.09375 18.65625 -15.6875 C 18.65625 -14.15625 18.304688 -12.828125 17.609375 -11.703125 C 16.910156 -10.585938 15.863281 -9.765625 14.46875 -9.234375 L 19.515625 0 L 15.53125 0 L 10.90625 -8.640625 C 10.84375 -8.640625 10.773438 -8.640625 10.703125 -8.640625 L 6.03125 -8.640625 L 6.03125 0 Z M 6.03125 -11.640625 L 10.359375 -11.640625 C 12.035156 -11.640625 13.242188 -11.992188 13.984375 -12.703125 C 14.734375 -13.410156 15.109375 -14.40625 15.109375 -15.6875 C 15.109375 -16.976562 14.734375 -18 13.984375 -18.75 C 13.234375 -19.5 12.015625 -19.875 10.328125 -19.875 L 6.03125 -19.875 Z M 6.03125 -11.640625 "/></g></g></g><g fill="#222a35" fill-opacity="1"><g transform="translate(23.774331, 64.976953)"><g><path d="M 12.0625 0.3125 C 10.09375 0.3125 8.328125 -0.15625 6.765625 -1.09375 C 5.203125 -2.039062 3.972656 -3.390625 3.078125 -5.140625 C 2.179688 -6.890625 1.734375 -8.984375 1.734375 -11.421875 C 1.734375 -13.867188 2.179688 -15.96875 3.078125 -17.71875 C 3.972656 -19.476562 5.203125 -20.828125 6.765625 -21.765625 C 8.328125 -22.703125 10.09375 -23.171875 12.0625 -23.171875 C 14.039062 -23.171875 15.800781 -22.703125 17.34375 -21.765625 C 18.894531 -20.828125 20.117188 -19.476562 21.015625 -17.71875 C 21.910156 -15.96875 22.359375 -13.867188 22.359375 -11.421875 C 22.359375 -8.984375 21.910156 -6.882812 21.015625 -5.125 C 20.117188 -3.375 18.894531 -2.03125 17.34375 -1.09375 C 15.800781 -0.15625 14.039062 0.3125 12.0625 0.3125 Z M 12.0625 -2.890625 C 13.363281 -2.890625 14.523438 -3.210938 15.546875 -3.859375 C 16.578125 -4.515625 17.390625 -5.476562 17.984375 -6.75 C 18.585938 -8.019531 18.890625 -9.578125 18.890625 -11.421875 C 18.890625 -13.273438 18.585938 -14.835938 17.984375 -16.109375 C 17.390625 -17.378906 16.578125 -18.34375 15.546875 -19 C 14.523438 -19.65625 13.363281 -19.984375 12.0625 -19.984375 C 10.75 -19.984375 9.578125 -19.65625 8.546875 -19 C 7.515625 -18.34375 6.695312 -17.378906 6.09375 -16.109375 C 5.5 -14.835938 5.203125 -13.273438 5.203125 -11.421875 C 5.203125 -9.578125 5.5 -8.019531 6.09375 -6.75 C 6.695312 -5.476562 7.515625 -4.515625 8.546875 -3.859375 C 9.578125 -3.210938 10.75 -2.890625 12.0625 -2.890625 Z M 12.0625 -2.890625 "/></g></g></g><g fill="#222a35" fill-opacity="1"><g transform="translate(50.54949, 64.976953)"><g><path d="M 12.140625 0.3125 C 10.078125 0.3125 8.257812 -0.160156 6.6875 -1.109375 C 5.125 -2.066406 3.90625 -3.421875 3.03125 -5.171875 C 2.164062 -6.921875 1.734375 -9.003906 1.734375 -11.421875 C 1.734375 -13.859375 2.175781 -15.953125 3.0625 -17.703125 C 3.945312 -19.460938 5.160156 -20.8125 6.703125 -21.75 C 8.253906 -22.695312 10.015625 -23.171875 11.984375 -23.171875 C 13.628906 -23.171875 15.125 -22.851562 16.46875 -22.21875 C 17.8125 -21.582031 18.921875 -20.695312 19.796875 -19.5625 C 20.671875 -18.4375 21.234375 -17.128906 21.484375 -15.640625 L 17.90625 -15.640625 C 17.476562 -16.984375 16.765625 -18.039062 15.765625 -18.8125 C 14.773438 -19.59375 13.523438 -19.984375 12.015625 -19.984375 C 10.722656 -19.984375 9.5625 -19.65625 8.53125 -19 C 7.507812 -18.34375 6.695312 -17.378906 6.09375 -16.109375 C 5.5 -14.835938 5.203125 -13.28125 5.203125 -11.4375 C 5.203125 -9.59375 5.5 -8.035156 6.09375 -6.765625 C 6.695312 -5.492188 7.519531 -4.53125 8.5625 -3.875 C 9.601562 -3.21875 10.800781 -2.890625 12.15625 -2.890625 C 13.96875 -2.890625 15.425781 -3.421875 16.53125 -4.484375 C 17.644531 -5.554688 18.222656 -7.007812 18.265625 -8.84375 L 12.65625 -8.84375 L 12.65625 -11.734375 L 21.6875 -11.734375 L 21.6875 -9.109375 C 21.6875 -7.179688 21.273438 -5.515625 20.453125 -4.109375 C 19.628906 -2.703125 18.5 -1.613281 17.0625 -0.84375 C 15.632812 -0.0703125 13.992188 0.3125 12.140625 0.3125 Z M 12.140625 0.3125 "/></g></g></g><g fill="#222a35" fill-opacity="1"><g transform="translate(76.725936, 64.976953)"><g><path d="M 11.65625 0.359375 C 9.8125 0.359375 8.207031 0.0078125 6.84375 -0.6875 C 5.476562 -1.394531 4.414062 -2.367188 3.65625 -3.609375 C 2.90625 -4.847656 2.53125 -6.265625 2.53125 -7.859375 L 2.53125 -22.875 L 6.03125 -22.875 L 6.03125 -8.15625 C 6.03125 -6.601562 6.535156 -5.328125 7.546875 -4.328125 C 8.554688 -3.328125 9.925781 -2.828125 11.65625 -2.828125 C 13.375 -2.828125 14.726562 -3.328125 15.71875 -4.328125 C 16.71875 -5.328125 17.21875 -6.601562 17.21875 -8.15625 L 17.21875 -22.875 L 20.734375 -22.875 L 20.734375 -7.859375 C 20.734375 -6.265625 20.351562 -4.847656 19.59375 -3.609375 C 18.84375 -2.367188 17.785156 -1.394531 16.421875 -0.6875 C 15.066406 0.0078125 13.476562 0.359375 11.65625 0.359375 Z M 11.65625 0.359375 "/></g></g></g><g fill="#222a35" fill-opacity="1"><g transform="translate(102.6721, 64.976953)"><g><path d="M 2.53125 0 L 2.53125 -22.875 L 16.9375 -22.875 L 16.9375 -19.859375 L 6.03125 -19.859375 L 6.03125 -13.046875 L 16.15625 -13.046875 L 16.15625 -10.046875 L 6.03125 -10.046875 L 6.03125 -3.015625 L 17.03125 -3.015625 L 17.03125 0 Z M 2.53125 0 "/></g></g></g></g></g></svg>