<svg xmlns="http://www.w3.org/2000/svg" xmlns:xlink="http://www.w3.org/1999/xlink" width="385" zoomAndPan="magnify" viewBox="0 0 288.75 71.249999" height="95" preserveAspectRatio="xMidYMid meet" version="1.0"><defs><g/><clipPath id="c6f4961f3f"><path d="M 1.378906 0 L 287 0 L 287 69.996094 L 1.378906 69.996094 Z M 1.378906 0 " clip-rule="nonzero"/></clipPath><clipPath id="90b3bc25b6"><path d="M 15.316406 0 L 272.925781 0 C 276.621094 0 280.167969 1.46875 282.78125 4.082031 C 285.394531 6.695312 286.863281 10.242188 286.863281 13.9375 L 286.863281 56.054688 C 286.863281 59.753906 285.394531 63.296875 282.78125 65.910156 C 280.167969 68.527344 276.621094 69.996094 272.925781 69.996094 L 15.316406 69.996094 C 11.621094 69.996094 8.078125 68.527344 5.460938 65.910156 C 2.847656 63.296875 1.378906 59.753906 1.378906 56.054688 L 1.378906 13.9375 C 1.378906 10.242188 2.847656 6.695312 5.460938 4.082031 C 8.078125 1.46875 11.621094 0 15.316406 0 Z M 15.316406 0 " clip-rule="nonzero"/></clipPath><clipPath id="53ca1787cb"><path d="M 0.378906 0 L 286 0 L 286 69.996094 L 0.378906 69.996094 Z M 0.378906 0 " clip-rule="nonzero"/></clipPath><clipPath id="cb921d9160"><path d="M 14.316406 0 L 271.925781 0 C 275.621094 0 279.167969 1.46875 281.78125 4.082031 C 284.394531 6.695312 285.863281 10.242188 285.863281 13.9375 L 285.863281 56.054688 C 285.863281 59.753906 284.394531 63.296875 281.78125 65.910156 C 279.167969 68.527344 275.621094 69.996094 271.925781 69.996094 L 14.316406 69.996094 C 10.621094 69.996094 7.078125 68.527344 4.460938 65.910156 C 1.847656 63.296875 0.378906 59.753906 0.378906 56.054688 L 0.378906 13.9375 C 0.378906 10.242188 1.847656 6.695312 4.460938 4.082031 C 7.078125 1.46875 10.621094 0 14.316406 0 Z M 14.316406 0 " clip-rule="nonzero"/></clipPath><clipPath id="9d9da8efed"><rect x="0" width="286" y="0" height="70"/></clipPath><clipPath id="0e4b9b11aa"><path d="M 1.394531 0 L 287 0 L 287 69.765625 L 1.394531 69.765625 Z M 1.394531 0 " clip-rule="nonzero"/></clipPath><clipPath id="be5d2638c2"><path d="M 15.328125 0 L 272.90625 0 C 276.601562 0 280.148438 1.46875 282.761719 4.082031 C 285.375 6.695312 286.84375 10.238281 286.84375 13.9375 L 286.84375 56.050781 C 286.84375 59.746094 285.375 63.289062 282.761719 65.902344 C 280.148438 68.519531 276.601562 69.984375 272.90625 69.984375 L 15.328125 69.984375 C 11.632812 69.984375 8.089844 68.519531 5.476562 65.902344 C 2.863281 63.289062 1.394531 59.746094 1.394531 56.050781 L 1.394531 13.9375 C 1.394531 10.238281 2.863281 6.695312 5.476562 4.082031 C 8.089844 1.46875 11.632812 0 15.328125 0 Z M 15.328125 0 " clip-rule="nonzero"/></clipPath><clipPath id="5577dc23a9"><rect x="0" width="206" y="0" height="31"/></clipPath><clipPath id="f678f5fa41"><rect x="0" width="188" y="0" height="13"/></clipPath><clipPath id="2013b2811a"><path d="M 252.523438 23 L 271.820312 23 L 271.820312 46.71875 L 252.523438 46.71875 Z M 252.523438 23 " clip-rule="nonzero"/></clipPath></defs><g clip-path="url(#c6f4961f3f)"><g clip-path="url(#90b3bc25b6)"><g transform="matrix(1, 0, 0, 1, 1, 0.000000000000003143)"><g clip-path="url(#9d9da8efed)"><g clip-path="url(#53ca1787cb)"><g clip-path="url(#cb921d9160)"><path fill="#382123" d="M 0.378906 0 L 285.824219 0 L 285.824219 69.996094 L 0.378906 69.996094 Z M 0.378906 0 " fill-opacity="1" fill-rule="nonzero"/></g></g></g></g></g></g><g clip-path="url(#0e4b9b11aa)"><g clip-path="url(#be5d2638c2)"><path stroke-linecap="butt" transform="matrix(0.742187, 0, 0, 0.742187, 1.38021, 0.000000989583)" fill="none" stroke-linejoin="miter" d="M 18.792982 -0.00000133333 L 365.845655 -0.00000133333 C 370.824603 -0.00000133333 375.603551 1.978946 379.124604 5.499999 C 382.645657 9.021052 384.624605 13.794737 384.624605 18.778948 L 384.624605 75.52106 C 384.624605 80.500008 382.645657 85.273693 379.124604 88.794746 C 375.603551 92.321062 370.824603 94.294747 365.845655 94.294747 L 18.792982 94.294747 C 13.814034 94.294747 9.040349 92.321062 5.519296 88.794746 C 1.998243 85.273693 0.0192955 80.500008 0.0192955 75.52106 L 0.0192955 18.778948 C 0.0192955 13.794737 1.998243 9.021052 5.519296 5.499999 C 9.040349 1.978946 13.814034 -0.00000133333 18.792982 -0.00000133333 Z M 18.792982 -0.00000133333 " stroke="#da4140" stroke-width="4" stroke-opacity="1" stroke-miterlimit="4"/></g></g><g transform="matrix(1, 0, 0, 1, 19, 13)"><g clip-path="url(#5577dc23a9)"><g fill="#da4140" fill-opacity="1"><g transform="translate(0.970575, 24.550117)"><g><path d="M 5.265625 -17.84375 L 5.265625 0 L 1.609375 0 L 1.609375 -17.84375 Z M 5.265625 -17.84375 "/></g></g></g><g fill="#da4140" fill-opacity="1"><g transform="translate(7.854259, 24.550117)"><g><path d="M 1.53125 0 L 1.53125 -13.390625 L 4.859375 -13.390625 L 5 -10.78125 C 5.363281 -11.757812 5.890625 -12.472656 6.578125 -12.921875 C 7.273438 -13.367188 8.023438 -13.59375 8.828125 -13.59375 C 10.515625 -13.59375 11.660156 -12.585938 12.265625 -10.578125 C 12.640625 -11.609375 13.21875 -12.367188 14 -12.859375 C 14.789062 -13.347656 15.644531 -13.59375 16.5625 -13.59375 C 17.789062 -13.59375 18.8125 -13.191406 19.625 -12.390625 C 20.4375 -11.597656 20.84375 -10.476562 20.84375 -9.03125 L 20.84375 0 L 17.25 0 L 17.25 -8.34375 C 17.25 -9.09375 17.039062 -9.648438 16.625 -10.015625 C 16.21875 -10.390625 15.71875 -10.578125 15.125 -10.578125 C 14.4375 -10.578125 13.894531 -10.363281 13.5 -9.9375 C 13.113281 -9.507812 12.921875 -8.941406 12.921875 -8.234375 L 12.921875 0 L 9.4375 0 L 9.4375 -8.4375 C 9.4375 -9.09375 9.242188 -9.613281 8.859375 -10 C 8.472656 -10.382812 7.972656 -10.578125 7.359375 -10.578125 C 6.734375 -10.578125 6.203125 -10.363281 5.765625 -9.9375 C 5.335938 -9.507812 5.125 -8.894531 5.125 -8.09375 L 5.125 0 Z M 1.53125 0 "/></g></g></g><g fill="#da4140" fill-opacity="1"><g transform="translate(30.229215, 24.550117)"><g><path d="M 1.53125 5 L 1.53125 -13.390625 L 5.0625 -13.390625 L 5.0625 -11.125 L 5.234375 -11.125 C 5.390625 -11.476562 5.617188 -11.84375 5.921875 -12.21875 C 6.234375 -12.59375 6.640625 -12.90625 7.140625 -13.15625 C 7.648438 -13.414062 8.285156 -13.546875 9.046875 -13.546875 C 10.035156 -13.546875 10.941406 -13.289062 11.765625 -12.78125 C 12.585938 -12.269531 13.242188 -11.503906 13.734375 -10.484375 C 14.222656 -9.460938 14.46875 -8.191406 14.46875 -6.671875 C 14.46875 -5.179688 14.226562 -3.921875 13.75 -2.890625 C 13.269531 -1.867188 12.617188 -1.09375 11.796875 -0.5625 C 10.972656 -0.03125 10.050781 0.234375 9.03125 0.234375 C 8.300781 0.234375 7.679688 0.105469 7.171875 -0.140625 C 6.671875 -0.390625 6.265625 -0.695312 5.953125 -1.0625 C 5.640625 -1.425781 5.398438 -1.785156 5.234375 -2.140625 L 5.125 -2.140625 L 5.125 5 Z M 7.921875 -2.65625 C 8.859375 -2.65625 9.570312 -3.03125 10.0625 -3.78125 C 10.550781 -4.53125 10.796875 -5.492188 10.796875 -6.671875 C 10.796875 -7.847656 10.550781 -8.804688 10.0625 -9.546875 C 9.582031 -10.296875 8.867188 -10.671875 7.921875 -10.671875 C 6.992188 -10.671875 6.28125 -10.304688 5.78125 -9.578125 C 5.289062 -8.859375 5.046875 -7.890625 5.046875 -6.671875 C 5.046875 -5.460938 5.296875 -4.488281 5.796875 -3.75 C 6.296875 -3.019531 7.003906 -2.65625 7.921875 -2.65625 Z M 7.921875 -2.65625 "/></g></g></g><g fill="#da4140" fill-opacity="1"><g transform="translate(45.684577, 24.550117)"><g><path d="M 7.515625 0.265625 C 6.171875 0.265625 5.007812 -0.0195312 4.03125 -0.59375 C 3.050781 -1.175781 2.296875 -1.984375 1.765625 -3.015625 C 1.234375 -4.054688 0.96875 -5.257812 0.96875 -6.625 C 0.96875 -8.007812 1.234375 -9.21875 1.765625 -10.25 C 2.296875 -11.289062 3.050781 -12.097656 4.03125 -12.671875 C 5.007812 -13.253906 6.171875 -13.546875 7.515625 -13.546875 C 8.859375 -13.546875 10.019531 -13.253906 11 -12.671875 C 11.976562 -12.097656 12.734375 -11.289062 13.265625 -10.25 C 13.796875 -9.21875 14.0625 -8.007812 14.0625 -6.625 C 14.0625 -5.257812 13.796875 -4.054688 13.265625 -3.015625 C 12.734375 -1.984375 11.976562 -1.175781 11 -0.59375 C 10.019531 -0.0195312 8.859375 0.265625 7.515625 0.265625 Z M 7.515625 -2.5625 C 8.472656 -2.5625 9.195312 -2.945312 9.6875 -3.71875 C 10.175781 -4.5 10.421875 -5.472656 10.421875 -6.640625 C 10.421875 -7.828125 10.175781 -8.800781 9.6875 -9.5625 C 9.195312 -10.332031 8.472656 -10.71875 7.515625 -10.71875 C 6.554688 -10.71875 5.832031 -10.332031 5.34375 -9.5625 C 4.863281 -8.800781 4.625 -7.828125 4.625 -6.640625 C 4.625 -5.472656 4.863281 -4.5 5.34375 -3.71875 C 5.832031 -2.945312 6.554688 -2.5625 7.515625 -2.5625 Z M 7.515625 -2.5625 "/></g></g></g><g fill="#da4140" fill-opacity="1"><g transform="translate(60.720927, 24.550117)"><g><path d="M 6.84375 0.265625 C 5.226562 0.265625 3.894531 -0.078125 2.84375 -0.765625 C 1.800781 -1.453125 1.164062 -2.414062 0.9375 -3.65625 L 4.28125 -4.234375 C 4.613281 -2.992188 5.503906 -2.375 6.953125 -2.375 C 7.640625 -2.375 8.179688 -2.5 8.578125 -2.75 C 8.972656 -3.007812 9.171875 -3.34375 9.171875 -3.75 C 9.171875 -4.425781 8.597656 -4.882812 7.453125 -5.125 L 5.140625 -5.609375 C 2.566406 -6.128906 1.28125 -7.390625 1.28125 -9.390625 C 1.28125 -10.679688 1.796875 -11.695312 2.828125 -12.4375 C 3.859375 -13.175781 5.21875 -13.546875 6.90625 -13.546875 C 8.5 -13.546875 9.765625 -13.222656 10.703125 -12.578125 C 11.640625 -11.929688 12.234375 -11.066406 12.484375 -9.984375 L 9.296875 -9.421875 C 9.148438 -9.878906 8.882812 -10.253906 8.5 -10.546875 C 8.125 -10.835938 7.609375 -10.984375 6.953125 -10.984375 C 6.359375 -10.984375 5.863281 -10.851562 5.46875 -10.59375 C 5.070312 -10.34375 4.875 -10.019531 4.875 -9.625 C 4.875 -9.289062 5.003906 -9.003906 5.265625 -8.765625 C 5.523438 -8.535156 5.96875 -8.351562 6.59375 -8.21875 L 9 -7.75 C 11.550781 -7.226562 12.828125 -6.019531 12.828125 -4.125 C 12.828125 -3.25 12.570312 -2.484375 12.0625 -1.828125 C 11.550781 -1.171875 10.84375 -0.65625 9.9375 -0.28125 C 9.039062 0.0820312 8.007812 0.265625 6.84375 0.265625 Z M 6.84375 0.265625 "/></g></g></g><g fill="#da4140" fill-opacity="1"><g transform="translate(74.452376, 24.550117)"><g><path d="M 6.84375 0.265625 C 5.226562 0.265625 3.894531 -0.078125 2.84375 -0.765625 C 1.800781 -1.453125 1.164062 -2.414062 0.9375 -3.65625 L 4.28125 -4.234375 C 4.613281 -2.992188 5.503906 -2.375 6.953125 -2.375 C 7.640625 -2.375 8.179688 -2.5 8.578125 -2.75 C 8.972656 -3.007812 9.171875 -3.34375 9.171875 -3.75 C 9.171875 -4.425781 8.597656 -4.882812 7.453125 -5.125 L 5.140625 -5.609375 C 2.566406 -6.128906 1.28125 -7.390625 1.28125 -9.390625 C 1.28125 -10.679688 1.796875 -11.695312 2.828125 -12.4375 C 3.859375 -13.175781 5.21875 -13.546875 6.90625 -13.546875 C 8.5 -13.546875 9.765625 -13.222656 10.703125 -12.578125 C 11.640625 -11.929688 12.234375 -11.066406 12.484375 -9.984375 L 9.296875 -9.421875 C 9.148438 -9.878906 8.882812 -10.253906 8.5 -10.546875 C 8.125 -10.835938 7.609375 -10.984375 6.953125 -10.984375 C 6.359375 -10.984375 5.863281 -10.851562 5.46875 -10.59375 C 5.070312 -10.34375 4.875 -10.019531 4.875 -9.625 C 4.875 -9.289062 5.003906 -9.003906 5.265625 -8.765625 C 5.523438 -8.535156 5.96875 -8.351562 6.59375 -8.21875 L 9 -7.75 C 11.550781 -7.226562 12.828125 -6.019531 12.828125 -4.125 C 12.828125 -3.25 12.570312 -2.484375 12.0625 -1.828125 C 11.550781 -1.171875 10.84375 -0.65625 9.9375 -0.28125 C 9.039062 0.0820312 8.007812 0.265625 6.84375 0.265625 Z M 6.84375 0.265625 "/></g></g></g><g fill="#da4140" fill-opacity="1"><g transform="translate(88.183825, 24.550117)"><g><path d="M 1.53125 0 L 1.53125 -13.390625 L 5.125 -13.390625 L 5.125 0 Z M 3.328125 -15.125 C 2.785156 -15.125 2.320312 -15.300781 1.9375 -15.65625 C 1.5625 -16.019531 1.375 -16.457031 1.375 -16.96875 C 1.375 -17.476562 1.5625 -17.910156 1.9375 -18.265625 C 2.320312 -18.628906 2.785156 -18.8125 3.328125 -18.8125 C 3.867188 -18.8125 4.332031 -18.628906 4.71875 -18.265625 C 5.113281 -17.910156 5.3125 -17.476562 5.3125 -16.96875 C 5.3125 -16.457031 5.113281 -16.019531 4.71875 -15.65625 C 4.332031 -15.300781 3.867188 -15.125 3.328125 -15.125 Z M 3.328125 -15.125 "/></g></g></g><g fill="#da4140" fill-opacity="1"><g transform="translate(94.828077, 24.550117)"><g><path d="M 9.03125 0.234375 C 8.300781 0.234375 7.679688 0.105469 7.171875 -0.140625 C 6.671875 -0.390625 6.265625 -0.695312 5.953125 -1.0625 C 5.640625 -1.425781 5.398438 -1.785156 5.234375 -2.140625 L 5.0625 -2.140625 L 5.0625 0 L 1.53125 0 L 1.53125 -17.84375 L 5.125 -17.84375 L 5.125 -11.125 L 5.234375 -11.125 C 5.390625 -11.476562 5.617188 -11.84375 5.921875 -12.21875 C 6.234375 -12.59375 6.640625 -12.90625 7.140625 -13.15625 C 7.648438 -13.414062 8.285156 -13.546875 9.046875 -13.546875 C 10.035156 -13.546875 10.941406 -13.289062 11.765625 -12.78125 C 12.585938 -12.269531 13.242188 -11.503906 13.734375 -10.484375 C 14.222656 -9.460938 14.46875 -8.191406 14.46875 -6.671875 C 14.46875 -5.179688 14.226562 -3.921875 13.75 -2.890625 C 13.269531 -1.867188 12.617188 -1.09375 11.796875 -0.5625 C 10.972656 -0.03125 10.050781 0.234375 9.03125 0.234375 Z M 7.921875 -2.65625 C 8.859375 -2.65625 9.570312 -3.03125 10.0625 -3.78125 C 10.550781 -4.53125 10.796875 -5.492188 10.796875 -6.671875 C 10.796875 -7.847656 10.550781 -8.804688 10.0625 -9.546875 C 9.582031 -10.296875 8.867188 -10.671875 7.921875 -10.671875 C 6.992188 -10.671875 6.28125 -10.304688 5.78125 -9.578125 C 5.289062 -8.859375 5.046875 -7.890625 5.046875 -6.671875 C 5.046875 -5.460938 5.296875 -4.488281 5.796875 -3.75 C 6.296875 -3.019531 7.003906 -2.65625 7.921875 -2.65625 Z M 7.921875 -2.65625 "/></g></g></g><g fill="#da4140" fill-opacity="1"><g transform="translate(110.283439, 24.550117)"><g><path d="M 5.125 -17.84375 L 5.125 0 L 1.53125 0 L 1.53125 -17.84375 Z M 5.125 -17.84375 "/></g></g></g><g fill="#da4140" fill-opacity="1"><g transform="translate(116.92769, 24.550117)"><g><path d="M 7.578125 0.265625 C 6.210938 0.265625 5.035156 -0.0078125 4.046875 -0.5625 C 3.054688 -1.125 2.296875 -1.921875 1.765625 -2.953125 C 1.234375 -3.984375 0.96875 -5.207031 0.96875 -6.625 C 0.96875 -8 1.234375 -9.203125 1.765625 -10.234375 C 2.296875 -11.273438 3.039062 -12.085938 4 -12.671875 C 4.96875 -13.253906 6.097656 -13.546875 7.390625 -13.546875 C 8.554688 -13.546875 9.613281 -13.296875 10.5625 -12.796875 C 11.519531 -12.304688 12.28125 -11.554688 12.84375 -10.546875 C 13.40625 -9.546875 13.6875 -8.285156 13.6875 -6.765625 L 13.6875 -5.765625 L 4.53125 -5.765625 C 4.5625 -4.671875 4.859375 -3.84375 5.421875 -3.28125 C 5.992188 -2.71875 6.734375 -2.4375 7.640625 -2.4375 C 8.265625 -2.4375 8.800781 -2.570312 9.25 -2.84375 C 9.707031 -3.113281 10.03125 -3.503906 10.21875 -4.015625 L 13.484375 -3.40625 C 13.148438 -2.300781 12.46875 -1.410156 11.4375 -0.734375 C 10.414062 -0.0664062 9.128906 0.265625 7.578125 0.265625 Z M 4.546875 -8.015625 L 10.21875 -8.015625 C 10.132812 -8.878906 9.851562 -9.566406 9.375 -10.078125 C 8.90625 -10.585938 8.257812 -10.84375 7.4375 -10.84375 C 6.570312 -10.84375 5.890625 -10.578125 5.390625 -10.046875 C 4.898438 -9.515625 4.617188 -8.835938 4.546875 -8.015625 Z M 4.546875 -8.015625 "/></g></g></g><g fill="#da4140" fill-opacity="1"><g transform="translate(131.533063, 24.550117)"><g/></g></g><g fill="#da4140" fill-opacity="1"><g transform="translate(137.339302, 24.550117)"><g><path d="M 1.609375 0 L 1.609375 -17.84375 L 7.21875 -17.84375 L 10.109375 -9.640625 C 10.234375 -9.265625 10.367188 -8.773438 10.515625 -8.171875 C 10.671875 -7.566406 10.828125 -6.914062 10.984375 -6.21875 C 11.148438 -5.519531 11.300781 -4.847656 11.4375 -4.203125 C 11.570312 -4.835938 11.71875 -5.503906 11.875 -6.203125 C 12.039062 -6.898438 12.195312 -7.550781 12.34375 -8.15625 C 12.5 -8.769531 12.640625 -9.265625 12.765625 -9.640625 L 15.609375 -17.84375 L 21.234375 -17.84375 L 21.234375 0 L 17.5625 0 L 17.5625 -8.421875 C 17.5625 -8.859375 17.570312 -9.425781 17.59375 -10.125 C 17.613281 -10.820312 17.632812 -11.566406 17.65625 -12.359375 C 17.675781 -13.160156 17.6875 -13.9375 17.6875 -14.6875 C 17.488281 -13.882812 17.28125 -13.082031 17.0625 -12.28125 C 16.84375 -11.476562 16.632812 -10.738281 16.4375 -10.0625 C 16.238281 -9.382812 16.066406 -8.835938 15.921875 -8.421875 L 12.96875 0 L 9.890625 0 L 6.890625 -8.421875 C 6.742188 -8.828125 6.570312 -9.351562 6.375 -10 C 6.1875 -10.65625 5.976562 -11.375 5.75 -12.15625 C 5.53125 -12.945312 5.316406 -13.742188 5.109375 -14.546875 C 5.128906 -13.828125 5.144531 -13.078125 5.15625 -12.296875 C 5.175781 -11.515625 5.195312 -10.78125 5.21875 -10.09375 C 5.238281 -9.414062 5.25 -8.859375 5.25 -8.421875 L 5.25 0 Z M 1.609375 0 "/></g></g></g><g fill="#da4140" fill-opacity="1"><g transform="translate(160.181155, 24.550117)"><g><path d="M 7.515625 0.265625 C 6.171875 0.265625 5.007812 -0.0195312 4.03125 -0.59375 C 3.050781 -1.175781 2.296875 -1.984375 1.765625 -3.015625 C 1.234375 -4.054688 0.96875 -5.257812 0.96875 -6.625 C 0.96875 -8.007812 1.234375 -9.21875 1.765625 -10.25 C 2.296875 -11.289062 3.050781 -12.097656 4.03125 -12.671875 C 5.007812 -13.253906 6.171875 -13.546875 7.515625 -13.546875 C 8.859375 -13.546875 10.019531 -13.253906 11 -12.671875 C 11.976562 -12.097656 12.734375 -11.289062 13.265625 -10.25 C 13.796875 -9.21875 14.0625 -8.007812 14.0625 -6.625 C 14.0625 -5.257812 13.796875 -4.054688 13.265625 -3.015625 C 12.734375 -1.984375 11.976562 -1.175781 11 -0.59375 C 10.019531 -0.0195312 8.859375 0.265625 7.515625 0.265625 Z M 7.515625 -2.5625 C 8.472656 -2.5625 9.195312 -2.945312 9.6875 -3.71875 C 10.175781 -4.5 10.421875 -5.472656 10.421875 -6.640625 C 10.421875 -7.828125 10.175781 -8.800781 9.6875 -9.5625 C 9.195312 -10.332031 8.472656 -10.71875 7.515625 -10.71875 C 6.554688 -10.71875 5.832031 -10.332031 5.34375 -9.5625 C 4.863281 -8.800781 4.625 -7.828125 4.625 -6.640625 C 4.625 -5.472656 4.863281 -4.5 5.34375 -3.71875 C 5.832031 -2.945312 6.554688 -2.5625 7.515625 -2.5625 Z M 7.515625 -2.5625 "/></g></g></g><g fill="#da4140" fill-opacity="1"><g transform="translate(175.217506, 24.550117)"><g><path d="M 6.421875 0.234375 C 5.398438 0.234375 4.476562 -0.03125 3.65625 -0.5625 C 2.832031 -1.09375 2.175781 -1.867188 1.6875 -2.890625 C 1.207031 -3.921875 0.96875 -5.179688 0.96875 -6.671875 C 0.96875 -8.191406 1.210938 -9.460938 1.703125 -10.484375 C 2.203125 -11.503906 2.863281 -12.269531 3.6875 -12.78125 C 4.507812 -13.289062 5.414062 -13.546875 6.40625 -13.546875 C 7.164062 -13.546875 7.796875 -13.414062 8.296875 -13.15625 C 8.796875 -12.90625 9.195312 -12.59375 9.5 -12.21875 C 9.8125 -11.84375 10.046875 -11.476562 10.203125 -11.125 L 10.328125 -11.125 L 10.328125 -17.84375 L 13.921875 -17.84375 L 13.921875 0 L 10.390625 0 L 10.390625 -2.140625 L 10.203125 -2.140625 C 10.035156 -1.785156 9.796875 -1.425781 9.484375 -1.0625 C 9.179688 -0.695312 8.773438 -0.390625 8.265625 -0.140625 C 7.765625 0.105469 7.148438 0.234375 6.421875 0.234375 Z M 7.53125 -2.65625 C 8.4375 -2.65625 9.140625 -3.019531 9.640625 -3.75 C 10.148438 -4.488281 10.40625 -5.460938 10.40625 -6.671875 C 10.40625 -7.890625 10.15625 -8.859375 9.65625 -9.578125 C 9.15625 -10.304688 8.445312 -10.671875 7.53125 -10.671875 C 6.582031 -10.671875 5.863281 -10.296875 5.375 -9.546875 C 4.894531 -8.804688 4.65625 -7.847656 4.65625 -6.671875 C 4.65625 -5.492188 4.898438 -4.53125 5.390625 -3.78125 C 5.878906 -3.03125 6.59375 -2.65625 7.53125 -2.65625 Z M 7.53125 -2.65625 "/></g></g></g><g fill="#da4140" fill-opacity="1"><g transform="translate(190.672859, 24.550117)"><g><path d="M 7.578125 0.265625 C 6.210938 0.265625 5.035156 -0.0078125 4.046875 -0.5625 C 3.054688 -1.125 2.296875 -1.921875 1.765625 -2.953125 C 1.234375 -3.984375 0.96875 -5.207031 0.96875 -6.625 C 0.96875 -8 1.234375 -9.203125 1.765625 -10.234375 C 2.296875 -11.273438 3.039062 -12.085938 4 -12.671875 C 4.96875 -13.253906 6.097656 -13.546875 7.390625 -13.546875 C 8.554688 -13.546875 9.613281 -13.296875 10.5625 -12.796875 C 11.519531 -12.304688 12.28125 -11.554688 12.84375 -10.546875 C 13.40625 -9.546875 13.6875 -8.285156 13.6875 -6.765625 L 13.6875 -5.765625 L 4.53125 -5.765625 C 4.5625 -4.671875 4.859375 -3.84375 5.421875 -3.28125 C 5.992188 -2.71875 6.734375 -2.4375 7.640625 -2.4375 C 8.265625 -2.4375 8.800781 -2.570312 9.25 -2.84375 C 9.707031 -3.113281 10.03125 -3.503906 10.21875 -4.015625 L 13.484375 -3.40625 C 13.148438 -2.300781 12.46875 -1.410156 11.4375 -0.734375 C 10.414062 -0.0664062 9.128906 0.265625 7.578125 0.265625 Z M 4.546875 -8.015625 L 10.21875 -8.015625 C 10.132812 -8.878906 9.851562 -9.566406 9.375 -10.078125 C 8.90625 -10.585938 8.257812 -10.84375 7.4375 -10.84375 C 6.570312 -10.84375 5.890625 -10.578125 5.390625 -10.046875 C 4.898438 -9.515625 4.617188 -8.835938 4.546875 -8.015625 Z M 4.546875 -8.015625 "/></g></g></g></g></g><g transform="matrix(1, 0, 0, 1, 19, 44)"><g clip-path="url(#f678f5fa41)"><g fill="#da4140" fill-opacity="1"><g transform="translate(0.970575, 9.657942)"><g><path d="M 3.671875 0.09375 C 3.054688 0.09375 2.519531 -0.0507812 2.0625 -0.34375 C 1.601562 -0.632812 1.242188 -1.046875 0.984375 -1.578125 C 0.734375 -2.117188 0.609375 -2.753906 0.609375 -3.484375 C 0.609375 -4.222656 0.738281 -4.859375 1 -5.390625 C 1.257812 -5.929688 1.613281 -6.347656 2.0625 -6.640625 C 2.507812 -6.929688 3.03125 -7.078125 3.625 -7.078125 C 4.132812 -7.078125 4.585938 -6.972656 4.984375 -6.765625 C 5.378906 -6.554688 5.695312 -6.28125 5.9375 -5.9375 C 6.1875 -5.59375 6.351562 -5.210938 6.4375 -4.796875 L 5.75 -4.796875 C 5.664062 -5.109375 5.53125 -5.390625 5.34375 -5.640625 C 5.15625 -5.890625 4.914062 -6.085938 4.625 -6.234375 C 4.34375 -6.390625 4.007812 -6.46875 3.625 -6.46875 C 3.175781 -6.46875 2.769531 -6.347656 2.40625 -6.109375 C 2.050781 -5.867188 1.769531 -5.523438 1.5625 -5.078125 C 1.363281 -4.640625 1.265625 -4.109375 1.265625 -3.484375 C 1.265625 -2.867188 1.363281 -2.335938 1.5625 -1.890625 C 1.769531 -1.453125 2.054688 -1.113281 2.421875 -0.875 C 2.785156 -0.644531 3.203125 -0.53125 3.671875 -0.53125 C 4.097656 -0.53125 4.472656 -0.617188 4.796875 -0.796875 C 5.117188 -0.984375 5.367188 -1.25 5.546875 -1.59375 C 5.722656 -1.9375 5.816406 -2.335938 5.828125 -2.796875 L 3.8125 -2.796875 L 3.8125 -3.390625 L 6.484375 -3.390625 L 6.484375 -2.8125 C 6.484375 -2.21875 6.363281 -1.703125 6.125 -1.265625 C 5.882812 -0.835938 5.550781 -0.503906 5.125 -0.265625 C 4.707031 -0.0234375 4.222656 0.09375 3.671875 0.09375 Z M 3.671875 0.09375 "/></g></g></g><g fill="#da4140" fill-opacity="1"><g transform="translate(8.117176, 9.657942)"><g><path d="M 0.796875 0 L 0.796875 -5.25 L 1.421875 -5.25 L 1.421875 -4.421875 L 1.46875 -4.421875 C 1.570312 -4.691406 1.753906 -4.90625 2.015625 -5.0625 C 2.273438 -5.226562 2.566406 -5.3125 2.890625 -5.3125 C 2.941406 -5.3125 3 -5.3125 3.0625 -5.3125 C 3.125 -5.3125 3.175781 -5.3125 3.21875 -5.3125 L 3.21875 -4.671875 C 3.195312 -4.671875 3.148438 -4.675781 3.078125 -4.6875 C 3.003906 -4.695312 2.925781 -4.703125 2.84375 -4.703125 C 2.4375 -4.703125 2.097656 -4.578125 1.828125 -4.328125 C 1.566406 -4.078125 1.4375 -3.753906 1.4375 -3.359375 L 1.4375 0 Z M 0.796875 0 "/></g></g></g><g fill="#da4140" fill-opacity="1"><g transform="translate(11.570818, 9.657942)"><g><path d="M 2.84375 0.109375 C 2.382812 0.109375 1.984375 -0.00390625 1.640625 -0.234375 C 1.296875 -0.460938 1.023438 -0.78125 0.828125 -1.1875 C 0.628906 -1.59375 0.53125 -2.0625 0.53125 -2.59375 C 0.53125 -3.132812 0.628906 -3.609375 0.828125 -4.015625 C 1.023438 -4.421875 1.296875 -4.738281 1.640625 -4.96875 C 1.984375 -5.195312 2.382812 -5.3125 2.84375 -5.3125 C 3.300781 -5.3125 3.703125 -5.195312 4.046875 -4.96875 C 4.398438 -4.738281 4.675781 -4.421875 4.875 -4.015625 C 5.070312 -3.609375 5.171875 -3.132812 5.171875 -2.59375 C 5.171875 -2.0625 5.070312 -1.59375 4.875 -1.1875 C 4.675781 -0.78125 4.398438 -0.460938 4.046875 -0.234375 C 3.703125 -0.00390625 3.300781 0.109375 2.84375 0.109375 Z M 2.84375 -0.46875 C 3.207031 -0.46875 3.515625 -0.5625 3.765625 -0.75 C 4.015625 -0.945312 4.203125 -1.207031 4.328125 -1.53125 C 4.460938 -1.851562 4.53125 -2.207031 4.53125 -2.59375 C 4.53125 -2.988281 4.460938 -3.347656 4.328125 -3.671875 C 4.203125 -3.992188 4.015625 -4.25 3.765625 -4.4375 C 3.515625 -4.632812 3.207031 -4.734375 2.84375 -4.734375 C 2.488281 -4.734375 2.1875 -4.632812 1.9375 -4.4375 C 1.6875 -4.25 1.492188 -3.992188 1.359375 -3.671875 C 1.234375 -3.347656 1.171875 -2.988281 1.171875 -2.59375 C 1.171875 -2.207031 1.234375 -1.851562 1.359375 -1.53125 C 1.492188 -1.207031 1.6875 -0.945312 1.9375 -0.75 C 2.1875 -0.5625 2.488281 -0.46875 2.84375 -0.46875 Z M 1.875 -6.21875 C 1.75 -6.21875 1.640625 -6.257812 1.546875 -6.34375 C 1.460938 -6.4375 1.421875 -6.539062 1.421875 -6.65625 C 1.421875 -6.78125 1.460938 -6.882812 1.546875 -6.96875 C 1.640625 -7.0625 1.75 -7.109375 1.875 -7.109375 C 1.988281 -7.109375 2.085938 -7.0625 2.171875 -6.96875 C 2.265625 -6.882812 2.3125 -6.78125 2.3125 -6.65625 C 2.3125 -6.539062 2.265625 -6.4375 2.171875 -6.34375 C 2.085938 -6.257812 1.988281 -6.21875 1.875 -6.21875 Z M 3.828125 -6.21875 C 3.703125 -6.21875 3.59375 -6.257812 3.5 -6.34375 C 3.414062 -6.4375 3.375 -6.539062 3.375 -6.65625 C 3.375 -6.78125 3.414062 -6.882812 3.5 -6.96875 C 3.59375 -7.0625 3.703125 -7.109375 3.828125 -7.109375 C 3.941406 -7.109375 4.039062 -7.0625 4.125 -6.96875 C 4.21875 -6.882812 4.265625 -6.78125 4.265625 -6.65625 C 4.265625 -6.539062 4.21875 -6.4375 4.125 -6.34375 C 4.039062 -6.257812 3.941406 -6.21875 3.828125 -6.21875 Z M 3.828125 -6.21875 "/></g></g></g><g fill="#da4140" fill-opacity="1"><g transform="translate(17.267449, 9.657942)"><g><path d="M 0.921875 0 L 0.921875 -5.265625 C 0.921875 -5.828125 1.097656 -6.269531 1.453125 -6.59375 C 1.816406 -6.914062 2.285156 -7.078125 2.859375 -7.078125 C 3.234375 -7.078125 3.566406 -7.003906 3.859375 -6.859375 C 4.148438 -6.722656 4.378906 -6.523438 4.546875 -6.265625 C 4.710938 -6.003906 4.796875 -5.691406 4.796875 -5.328125 C 4.796875 -4.910156 4.691406 -4.5625 4.484375 -4.28125 C 4.273438 -4 3.988281 -3.796875 3.625 -3.671875 L 3.625 -3.625 C 4.09375 -3.570312 4.46875 -3.390625 4.75 -3.078125 C 5.039062 -2.765625 5.1875 -2.367188 5.1875 -1.890625 C 5.1875 -1.523438 5.097656 -1.195312 4.921875 -0.90625 C 4.753906 -0.625 4.515625 -0.398438 4.203125 -0.234375 C 3.898438 -0.078125 3.546875 0 3.140625 0 L 2.46875 0 L 2.46875 -0.59375 L 3.140625 -0.59375 C 3.554688 -0.59375 3.890625 -0.710938 4.140625 -0.953125 C 4.398438 -1.191406 4.53125 -1.503906 4.53125 -1.890625 C 4.53125 -2.296875 4.382812 -2.625 4.09375 -2.875 C 3.8125 -3.132812 3.421875 -3.265625 2.921875 -3.265625 L 2.484375 -3.265625 L 2.484375 -3.859375 L 2.8125 -3.859375 C 3.226562 -3.859375 3.554688 -3.988281 3.796875 -4.25 C 4.035156 -4.519531 4.15625 -4.847656 4.15625 -5.234375 C 4.15625 -5.597656 4.039062 -5.894531 3.8125 -6.125 C 3.582031 -6.363281 3.265625 -6.484375 2.859375 -6.484375 C 2.472656 -6.484375 2.160156 -6.367188 1.921875 -6.140625 C 1.679688 -5.921875 1.5625 -5.625 1.5625 -5.25 L 1.5625 0 Z M 0.921875 0 "/></g></g></g><g fill="#da4140" fill-opacity="1"><g transform="translate(23.057929, 9.657942)"><g><path d="M 2.921875 0.109375 C 2.429688 0.109375 2.003906 -0.00390625 1.640625 -0.234375 C 1.285156 -0.460938 1.007812 -0.78125 0.8125 -1.1875 C 0.625 -1.59375 0.53125 -2.0625 0.53125 -2.59375 C 0.53125 -3.125 0.625 -3.59375 0.8125 -4 C 1.007812 -4.40625 1.28125 -4.722656 1.625 -4.953125 C 1.96875 -5.191406 2.367188 -5.3125 2.828125 -5.3125 C 3.210938 -5.3125 3.570312 -5.21875 3.90625 -5.03125 C 4.25 -4.84375 4.523438 -4.554688 4.734375 -4.171875 C 4.953125 -3.785156 5.0625 -3.296875 5.0625 -2.703125 L 5.0625 -2.4375 L 1.171875 -2.4375 C 1.179688 -1.832031 1.34375 -1.347656 1.65625 -0.984375 C 1.976562 -0.628906 2.40625 -0.453125 2.9375 -0.453125 C 3.300781 -0.453125 3.597656 -0.535156 3.828125 -0.703125 C 4.066406 -0.878906 4.234375 -1.082031 4.328125 -1.3125 L 4.9375 -1.125 C 4.8125 -0.789062 4.578125 -0.5 4.234375 -0.25 C 3.890625 -0.0078125 3.453125 0.109375 2.921875 0.109375 Z M 1.171875 -2.984375 L 4.421875 -2.984375 C 4.390625 -3.492188 4.234375 -3.914062 3.953125 -4.25 C 3.671875 -4.582031 3.296875 -4.75 2.828125 -4.75 C 2.515625 -4.75 2.238281 -4.664062 2 -4.5 C 1.757812 -4.34375 1.566406 -4.128906 1.421875 -3.859375 C 1.273438 -3.597656 1.191406 -3.304688 1.171875 -2.984375 Z M 1.171875 -2.984375 "/></g></g></g><g fill="#da4140" fill-opacity="1"><g transform="translate(28.627868, 9.657942)"><g><path d="M 0.796875 0 L 0.796875 -5.25 L 1.421875 -5.25 L 1.421875 -4.421875 L 1.46875 -4.421875 C 1.570312 -4.691406 1.753906 -4.90625 2.015625 -5.0625 C 2.273438 -5.226562 2.566406 -5.3125 2.890625 -5.3125 C 2.941406 -5.3125 3 -5.3125 3.0625 -5.3125 C 3.125 -5.3125 3.175781 -5.3125 3.21875 -5.3125 L 3.21875 -4.671875 C 3.195312 -4.671875 3.148438 -4.675781 3.078125 -4.6875 C 3.003906 -4.695312 2.925781 -4.703125 2.84375 -4.703125 C 2.4375 -4.703125 2.097656 -4.578125 1.828125 -4.328125 C 1.566406 -4.078125 1.4375 -3.753906 1.4375 -3.359375 L 1.4375 0 Z M 0.796875 0 "/></g></g></g><g fill="#da4140" fill-opacity="1"><g transform="translate(32.08151, 9.657942)"><g><path d="M 2.921875 0.109375 C 2.429688 0.109375 2.003906 -0.00390625 1.640625 -0.234375 C 1.285156 -0.460938 1.007812 -0.78125 0.8125 -1.1875 C 0.625 -1.59375 0.53125 -2.0625 0.53125 -2.59375 C 0.53125 -3.125 0.625 -3.59375 0.8125 -4 C 1.007812 -4.40625 1.28125 -4.722656 1.625 -4.953125 C 1.96875 -5.191406 2.367188 -5.3125 2.828125 -5.3125 C 3.210938 -5.3125 3.570312 -5.21875 3.90625 -5.03125 C 4.25 -4.84375 4.523438 -4.554688 4.734375 -4.171875 C 4.953125 -3.785156 5.0625 -3.296875 5.0625 -2.703125 L 5.0625 -2.4375 L 1.171875 -2.4375 C 1.179688 -1.832031 1.34375 -1.347656 1.65625 -0.984375 C 1.976562 -0.628906 2.40625 -0.453125 2.9375 -0.453125 C 3.300781 -0.453125 3.597656 -0.535156 3.828125 -0.703125 C 4.066406 -0.878906 4.234375 -1.082031 4.328125 -1.3125 L 4.9375 -1.125 C 4.8125 -0.789062 4.578125 -0.5 4.234375 -0.25 C 3.890625 -0.0078125 3.453125 0.109375 2.921875 0.109375 Z M 1.171875 -2.984375 L 4.421875 -2.984375 C 4.390625 -3.492188 4.234375 -3.914062 3.953125 -4.25 C 3.671875 -4.582031 3.296875 -4.75 2.828125 -4.75 C 2.515625 -4.75 2.238281 -4.664062 2 -4.5 C 1.757812 -4.34375 1.566406 -4.128906 1.421875 -3.859375 C 1.273438 -3.597656 1.191406 -3.304688 1.171875 -2.984375 Z M 1.171875 -2.984375 "/></g></g></g><g fill="#da4140" fill-opacity="1"><g transform="translate(37.651449, 9.657942)"><g/></g></g><g fill="#da4140" fill-opacity="1"><g transform="translate(40.354299, 9.657942)"><g><path d="M 0.921875 0 L 0.921875 -6.984375 L 1.59375 -6.984375 L 1.59375 -3.875 L 5.515625 -3.875 L 5.515625 -6.984375 L 6.1875 -6.984375 L 6.1875 0 L 5.515625 0 L 5.515625 -3.28125 L 1.59375 -3.28125 L 1.59375 0 Z M 0.921875 0 "/></g></g></g><g fill="#da4140" fill-opacity="1"><g transform="translate(47.468049, 9.657942)"><g><path d="M 2.921875 0.109375 C 2.429688 0.109375 2.003906 -0.00390625 1.640625 -0.234375 C 1.285156 -0.460938 1.007812 -0.78125 0.8125 -1.1875 C 0.625 -1.59375 0.53125 -2.0625 0.53125 -2.59375 C 0.53125 -3.125 0.625 -3.59375 0.8125 -4 C 1.007812 -4.40625 1.28125 -4.722656 1.625 -4.953125 C 1.96875 -5.191406 2.367188 -5.3125 2.828125 -5.3125 C 3.210938 -5.3125 3.570312 -5.21875 3.90625 -5.03125 C 4.25 -4.84375 4.523438 -4.554688 4.734375 -4.171875 C 4.953125 -3.785156 5.0625 -3.296875 5.0625 -2.703125 L 5.0625 -2.4375 L 1.171875 -2.4375 C 1.179688 -1.832031 1.34375 -1.347656 1.65625 -0.984375 C 1.976562 -0.628906 2.40625 -0.453125 2.9375 -0.453125 C 3.300781 -0.453125 3.597656 -0.535156 3.828125 -0.703125 C 4.066406 -0.878906 4.234375 -1.082031 4.328125 -1.3125 L 4.9375 -1.125 C 4.8125 -0.789062 4.578125 -0.5 4.234375 -0.25 C 3.890625 -0.0078125 3.453125 0.109375 2.921875 0.109375 Z M 1.171875 -2.984375 L 4.421875 -2.984375 C 4.390625 -3.492188 4.234375 -3.914062 3.953125 -4.25 C 3.671875 -4.582031 3.296875 -4.75 2.828125 -4.75 C 2.515625 -4.75 2.238281 -4.664062 2 -4.5 C 1.757812 -4.34375 1.566406 -4.128906 1.421875 -3.859375 C 1.273438 -3.597656 1.191406 -3.304688 1.171875 -2.984375 Z M 1.171875 -2.984375 "/></g></g></g><g fill="#da4140" fill-opacity="1"><g transform="translate(53.037988, 9.657942)"><g><path d="M 0.796875 0 L 0.796875 -5.25 L 1.421875 -5.25 L 1.421875 -4.421875 L 1.46875 -4.421875 C 1.570312 -4.691406 1.753906 -4.90625 2.015625 -5.0625 C 2.273438 -5.226562 2.566406 -5.3125 2.890625 -5.3125 C 2.941406 -5.3125 3 -5.3125 3.0625 -5.3125 C 3.125 -5.3125 3.175781 -5.3125 3.21875 -5.3125 L 3.21875 -4.671875 C 3.195312 -4.671875 3.148438 -4.675781 3.078125 -4.6875 C 3.003906 -4.695312 2.925781 -4.703125 2.84375 -4.703125 C 2.4375 -4.703125 2.097656 -4.578125 1.828125 -4.328125 C 1.566406 -4.078125 1.4375 -3.753906 1.4375 -3.359375 L 1.4375 0 Z M 0.796875 0 "/></g></g></g><g fill="#da4140" fill-opacity="1"><g transform="translate(56.49163, 9.657942)"><g><path d="M 2.1875 0.125 C 1.863281 0.125 1.570312 0.0585938 1.3125 -0.0625 C 1.050781 -0.1875 0.84375 -0.363281 0.6875 -0.59375 C 0.53125 -0.832031 0.453125 -1.125 0.453125 -1.46875 C 0.453125 -1.8125 0.535156 -2.082031 0.703125 -2.28125 C 0.878906 -2.488281 1.117188 -2.644531 1.421875 -2.75 C 1.722656 -2.851562 2.070312 -2.929688 2.46875 -2.984375 C 2.90625 -3.035156 3.242188 -3.082031 3.484375 -3.125 C 3.722656 -3.164062 3.84375 -3.289062 3.84375 -3.5 L 3.84375 -3.625 C 3.84375 -3.96875 3.734375 -4.238281 3.515625 -4.4375 C 3.304688 -4.644531 3.003906 -4.75 2.609375 -4.75 C 2.234375 -4.75 1.925781 -4.664062 1.6875 -4.5 C 1.457031 -4.332031 1.300781 -4.140625 1.21875 -3.921875 L 0.609375 -4.140625 C 0.722656 -4.421875 0.882812 -4.644531 1.09375 -4.8125 C 1.300781 -4.988281 1.535156 -5.113281 1.796875 -5.1875 C 2.054688 -5.269531 2.320312 -5.3125 2.59375 -5.3125 C 2.800781 -5.3125 3.015625 -5.285156 3.234375 -5.234375 C 3.453125 -5.179688 3.65625 -5.085938 3.84375 -4.953125 C 4.03125 -4.828125 4.179688 -4.648438 4.296875 -4.421875 C 4.410156 -4.191406 4.46875 -3.90625 4.46875 -3.5625 L 4.46875 0 L 3.859375 0 L 3.859375 -0.828125 L 3.8125 -0.828125 C 3.6875 -0.585938 3.488281 -0.367188 3.21875 -0.171875 C 2.945312 0.0234375 2.601562 0.125 2.1875 0.125 Z M 2.28125 -0.453125 C 2.59375 -0.453125 2.863281 -0.519531 3.09375 -0.65625 C 3.332031 -0.800781 3.515625 -0.988281 3.640625 -1.21875 C 3.773438 -1.457031 3.84375 -1.722656 3.84375 -2.015625 L 3.84375 -2.765625 C 3.78125 -2.703125 3.664062 -2.648438 3.5 -2.609375 C 3.332031 -2.566406 3.15625 -2.53125 2.96875 -2.5 C 2.78125 -2.476562 2.617188 -2.457031 2.484375 -2.4375 C 2.035156 -2.382812 1.691406 -2.28125 1.453125 -2.125 C 1.210938 -1.976562 1.09375 -1.75 1.09375 -1.4375 C 1.09375 -1.125 1.203125 -0.878906 1.421875 -0.703125 C 1.648438 -0.535156 1.9375 -0.453125 2.28125 -0.453125 Z M 2.28125 -0.453125 "/></g></g></g><g fill="#da4140" fill-opacity="1"><g transform="translate(61.770637, 9.657942)"><g><path d="M 2.59375 0.078125 C 2.0625 0.078125 1.628906 -0.0859375 1.296875 -0.421875 C 0.960938 -0.753906 0.796875 -1.234375 0.796875 -1.859375 L 0.796875 -5.25 L 1.4375 -5.25 L 1.4375 -1.90625 C 1.4375 -1.46875 1.554688 -1.125 1.796875 -0.875 C 2.035156 -0.632812 2.359375 -0.515625 2.765625 -0.515625 C 3.179688 -0.515625 3.523438 -0.644531 3.796875 -0.90625 C 4.078125 -1.164062 4.21875 -1.519531 4.21875 -1.96875 L 4.21875 -5.25 L 4.859375 -5.25 L 4.859375 0 L 4.234375 0 L 4.234375 -0.96875 C 4.078125 -0.601562 3.851562 -0.335938 3.5625 -0.171875 C 3.269531 -0.00390625 2.945312 0.078125 2.59375 0.078125 Z M 2.59375 0.078125 "/></g></g></g><g fill="#da4140" fill-opacity="1"><g transform="translate(67.429729, 9.657942)"><g><path d="M 2.46875 0.109375 C 1.957031 0.109375 1.53125 -0.00390625 1.1875 -0.234375 C 0.851562 -0.472656 0.640625 -0.8125 0.546875 -1.25 L 1.15625 -1.390625 C 1.226562 -1.078125 1.375 -0.84375 1.59375 -0.6875 C 1.820312 -0.53125 2.113281 -0.453125 2.46875 -0.453125 C 2.863281 -0.453125 3.179688 -0.539062 3.421875 -0.71875 C 3.660156 -0.894531 3.78125 -1.117188 3.78125 -1.390625 C 3.78125 -1.816406 3.492188 -2.097656 2.921875 -2.234375 L 2.0625 -2.4375 C 1.164062 -2.65625 0.71875 -3.117188 0.71875 -3.828125 C 0.71875 -4.128906 0.796875 -4.390625 0.953125 -4.609375 C 1.117188 -4.828125 1.335938 -5 1.609375 -5.125 C 1.890625 -5.25 2.207031 -5.3125 2.5625 -5.3125 C 3.050781 -5.3125 3.441406 -5.195312 3.734375 -4.96875 C 4.023438 -4.75 4.226562 -4.453125 4.34375 -4.078125 L 3.765625 -3.921875 C 3.679688 -4.160156 3.546875 -4.359375 3.359375 -4.515625 C 3.171875 -4.679688 2.90625 -4.765625 2.5625 -4.765625 C 2.21875 -4.765625 1.929688 -4.679688 1.703125 -4.515625 C 1.472656 -4.347656 1.359375 -4.132812 1.359375 -3.875 C 1.359375 -3.4375 1.671875 -3.144531 2.296875 -3 L 3.109375 -2.8125 C 3.992188 -2.59375 4.4375 -2.128906 4.4375 -1.421875 C 4.4375 -1.117188 4.351562 -0.851562 4.1875 -0.625 C 4.019531 -0.394531 3.785156 -0.210938 3.484375 -0.078125 C 3.191406 0.0429688 2.851562 0.109375 2.46875 0.109375 Z M 2.46875 0.109375 "/></g></g></g><g fill="#da4140" fill-opacity="1"><g transform="translate(72.38965, 9.657942)"><g><path d="M 2.984375 -5.25 L 2.984375 -4.6875 L 1.734375 -4.6875 L 1.734375 0 L 1.109375 0 L 1.109375 -4.6875 L 0.078125 -4.6875 L 0.078125 -5.25 L 1.109375 -5.25 L 1.109375 -6 C 1.109375 -6.28125 1.171875 -6.519531 1.296875 -6.71875 C 1.421875 -6.914062 1.585938 -7.0625 1.796875 -7.15625 C 2.003906 -7.257812 2.234375 -7.3125 2.484375 -7.3125 C 2.640625 -7.3125 2.773438 -7.296875 2.890625 -7.265625 C 3.003906 -7.242188 3.097656 -7.21875 3.171875 -7.1875 L 2.984375 -6.640625 C 2.929688 -6.660156 2.867188 -6.675781 2.796875 -6.6875 C 2.734375 -6.707031 2.648438 -6.71875 2.546875 -6.71875 C 2.285156 -6.71875 2.082031 -6.644531 1.9375 -6.5 C 1.800781 -6.351562 1.734375 -6.144531 1.734375 -5.875 L 1.734375 -5.25 Z M 2.984375 -5.25 "/></g></g></g><g fill="#da4140" fill-opacity="1"><g transform="translate(75.702518, 9.657942)"><g><path d="M 2.84375 0.109375 C 2.382812 0.109375 1.984375 -0.00390625 1.640625 -0.234375 C 1.296875 -0.460938 1.023438 -0.78125 0.828125 -1.1875 C 0.628906 -1.59375 0.53125 -2.0625 0.53125 -2.59375 C 0.53125 -3.132812 0.628906 -3.609375 0.828125 -4.015625 C 1.023438 -4.421875 1.296875 -4.738281 1.640625 -4.96875 C 1.984375 -5.195312 2.382812 -5.3125 2.84375 -5.3125 C 3.300781 -5.3125 3.703125 -5.195312 4.046875 -4.96875 C 4.398438 -4.738281 4.675781 -4.421875 4.875 -4.015625 C 5.070312 -3.609375 5.171875 -3.132812 5.171875 -2.59375 C 5.171875 -2.0625 5.070312 -1.59375 4.875 -1.1875 C 4.675781 -0.78125 4.398438 -0.460938 4.046875 -0.234375 C 3.703125 -0.00390625 3.300781 0.109375 2.84375 0.109375 Z M 2.84375 -0.46875 C 3.207031 -0.46875 3.515625 -0.5625 3.765625 -0.75 C 4.015625 -0.945312 4.203125 -1.207031 4.328125 -1.53125 C 4.460938 -1.851562 4.53125 -2.207031 4.53125 -2.59375 C 4.53125 -2.988281 4.460938 -3.347656 4.328125 -3.671875 C 4.203125 -3.992188 4.015625 -4.25 3.765625 -4.4375 C 3.515625 -4.632812 3.207031 -4.734375 2.84375 -4.734375 C 2.488281 -4.734375 2.1875 -4.632812 1.9375 -4.4375 C 1.6875 -4.25 1.492188 -3.992188 1.359375 -3.671875 C 1.234375 -3.347656 1.171875 -2.988281 1.171875 -2.59375 C 1.171875 -2.207031 1.234375 -1.851562 1.359375 -1.53125 C 1.492188 -1.207031 1.6875 -0.945312 1.9375 -0.75 C 2.1875 -0.5625 2.488281 -0.46875 2.84375 -0.46875 Z M 2.84375 -0.46875 "/></g></g></g><g fill="#da4140" fill-opacity="1"><g transform="translate(81.399149, 9.657942)"><g><path d="M 0.796875 0 L 0.796875 -5.25 L 1.421875 -5.25 L 1.421875 -4.421875 L 1.46875 -4.421875 C 1.570312 -4.691406 1.753906 -4.90625 2.015625 -5.0625 C 2.273438 -5.226562 2.566406 -5.3125 2.890625 -5.3125 C 2.941406 -5.3125 3 -5.3125 3.0625 -5.3125 C 3.125 -5.3125 3.175781 -5.3125 3.21875 -5.3125 L 3.21875 -4.671875 C 3.195312 -4.671875 3.148438 -4.675781 3.078125 -4.6875 C 3.003906 -4.695312 2.925781 -4.703125 2.84375 -4.703125 C 2.4375 -4.703125 2.097656 -4.578125 1.828125 -4.328125 C 1.566406 -4.078125 1.4375 -3.753906 1.4375 -3.359375 L 1.4375 0 Z M 0.796875 0 "/></g></g></g><g fill="#da4140" fill-opacity="1"><g transform="translate(84.85279, 9.657942)"><g><path d="M 2.671875 0.109375 C 2.242188 0.109375 1.867188 0 1.546875 -0.21875 C 1.222656 -0.445312 0.972656 -0.765625 0.796875 -1.171875 C 0.617188 -1.585938 0.53125 -2.066406 0.53125 -2.609375 C 0.53125 -3.148438 0.617188 -3.625 0.796875 -4.03125 C 0.984375 -4.4375 1.238281 -4.75 1.5625 -4.96875 C 1.882812 -5.195312 2.257812 -5.3125 2.6875 -5.3125 C 3 -5.3125 3.257812 -5.253906 3.46875 -5.140625 C 3.6875 -5.023438 3.859375 -4.882812 3.984375 -4.71875 C 4.117188 -4.550781 4.222656 -4.390625 4.296875 -4.234375 L 4.34375 -4.234375 L 4.34375 -6.984375 L 4.984375 -6.984375 L 4.984375 0 L 4.359375 0 L 4.359375 -0.984375 L 4.296875 -0.984375 C 4.222656 -0.816406 4.117188 -0.648438 3.984375 -0.484375 C 3.859375 -0.316406 3.6875 -0.175781 3.46875 -0.0625 C 3.257812 0.0507812 2.992188 0.109375 2.671875 0.109375 Z M 2.765625 -0.46875 C 3.097656 -0.46875 3.382812 -0.554688 3.625 -0.734375 C 3.863281 -0.921875 4.039062 -1.175781 4.15625 -1.5 C 4.28125 -1.820312 4.34375 -2.191406 4.34375 -2.609375 C 4.34375 -3.023438 4.28125 -3.390625 4.15625 -3.703125 C 4.039062 -4.023438 3.863281 -4.273438 3.625 -4.453125 C 3.382812 -4.640625 3.097656 -4.734375 2.765625 -4.734375 C 2.421875 -4.734375 2.128906 -4.640625 1.890625 -4.453125 C 1.648438 -4.265625 1.46875 -4.007812 1.34375 -3.6875 C 1.226562 -3.375 1.171875 -3.015625 1.171875 -2.609375 C 1.171875 -2.210938 1.234375 -1.847656 1.359375 -1.515625 C 1.484375 -1.191406 1.660156 -0.9375 1.890625 -0.75 C 2.128906 -0.5625 2.421875 -0.46875 2.765625 -0.46875 Z M 2.765625 -0.46875 "/></g></g></g><g fill="#da4140" fill-opacity="1"><g transform="translate(90.638582, 9.657942)"><g><path d="M 2.921875 0.109375 C 2.429688 0.109375 2.003906 -0.00390625 1.640625 -0.234375 C 1.285156 -0.460938 1.007812 -0.78125 0.8125 -1.1875 C 0.625 -1.59375 0.53125 -2.0625 0.53125 -2.59375 C 0.53125 -3.125 0.625 -3.59375 0.8125 -4 C 1.007812 -4.40625 1.28125 -4.722656 1.625 -4.953125 C 1.96875 -5.191406 2.367188 -5.3125 2.828125 -5.3125 C 3.210938 -5.3125 3.570312 -5.21875 3.90625 -5.03125 C 4.25 -4.84375 4.523438 -4.554688 4.734375 -4.171875 C 4.953125 -3.785156 5.0625 -3.296875 5.0625 -2.703125 L 5.0625 -2.4375 L 1.171875 -2.4375 C 1.179688 -1.832031 1.34375 -1.347656 1.65625 -0.984375 C 1.976562 -0.628906 2.40625 -0.453125 2.9375 -0.453125 C 3.300781 -0.453125 3.597656 -0.535156 3.828125 -0.703125 C 4.066406 -0.878906 4.234375 -1.082031 4.328125 -1.3125 L 4.9375 -1.125 C 4.8125 -0.789062 4.578125 -0.5 4.234375 -0.25 C 3.890625 -0.0078125 3.453125 0.109375 2.921875 0.109375 Z M 1.171875 -2.984375 L 4.421875 -2.984375 C 4.390625 -3.492188 4.234375 -3.914062 3.953125 -4.25 C 3.671875 -4.582031 3.296875 -4.75 2.828125 -4.75 C 2.515625 -4.75 2.238281 -4.664062 2 -4.5 C 1.757812 -4.34375 1.566406 -4.128906 1.421875 -3.859375 C 1.273438 -3.597656 1.191406 -3.304688 1.171875 -2.984375 Z M 1.171875 -2.984375 "/></g></g></g><g fill="#da4140" fill-opacity="1"><g transform="translate(96.208522, 9.657942)"><g><path d="M 0.796875 0 L 0.796875 -5.25 L 1.421875 -5.25 L 1.421875 -4.421875 L 1.46875 -4.421875 C 1.570312 -4.691406 1.753906 -4.90625 2.015625 -5.0625 C 2.273438 -5.226562 2.566406 -5.3125 2.890625 -5.3125 C 2.941406 -5.3125 3 -5.3125 3.0625 -5.3125 C 3.125 -5.3125 3.175781 -5.3125 3.21875 -5.3125 L 3.21875 -4.671875 C 3.195312 -4.671875 3.148438 -4.675781 3.078125 -4.6875 C 3.003906 -4.695312 2.925781 -4.703125 2.84375 -4.703125 C 2.4375 -4.703125 2.097656 -4.578125 1.828125 -4.328125 C 1.566406 -4.078125 1.4375 -3.753906 1.4375 -3.359375 L 1.4375 0 Z M 0.796875 0 "/></g></g></g><g fill="#da4140" fill-opacity="1"><g transform="translate(99.662163, 9.657942)"><g><path d="M 2.59375 0.078125 C 2.0625 0.078125 1.628906 -0.0859375 1.296875 -0.421875 C 0.960938 -0.753906 0.796875 -1.234375 0.796875 -1.859375 L 0.796875 -5.25 L 1.4375 -5.25 L 1.4375 -1.90625 C 1.4375 -1.46875 1.554688 -1.125 1.796875 -0.875 C 2.035156 -0.632812 2.359375 -0.515625 2.765625 -0.515625 C 3.179688 -0.515625 3.523438 -0.644531 3.796875 -0.90625 C 4.078125 -1.164062 4.21875 -1.519531 4.21875 -1.96875 L 4.21875 -5.25 L 4.859375 -5.25 L 4.859375 0 L 4.234375 0 L 4.234375 -0.96875 C 4.078125 -0.601562 3.851562 -0.335938 3.5625 -0.171875 C 3.269531 -0.00390625 2.945312 0.078125 2.59375 0.078125 Z M 2.59375 0.078125 "/></g></g></g><g fill="#da4140" fill-opacity="1"><g transform="translate(105.321254, 9.657942)"><g><path d="M 1.4375 -3.265625 L 1.4375 0 L 0.796875 0 L 0.796875 -5.25 L 1.421875 -5.25 L 1.421875 -4.28125 C 1.578125 -4.644531 1.800781 -4.90625 2.09375 -5.0625 C 2.382812 -5.226562 2.707031 -5.3125 3.0625 -5.3125 C 3.59375 -5.3125 4.023438 -5.144531 4.359375 -4.8125 C 4.691406 -4.488281 4.859375 -4.015625 4.859375 -3.390625 L 4.859375 0 L 4.21875 0 L 4.21875 -3.34375 C 4.21875 -3.769531 4.097656 -4.109375 3.859375 -4.359375 C 3.617188 -4.609375 3.296875 -4.734375 2.890625 -4.734375 C 2.472656 -4.734375 2.125 -4.601562 1.84375 -4.34375 C 1.570312 -4.082031 1.4375 -3.722656 1.4375 -3.265625 Z M 1.4375 -3.265625 "/></g></g></g><g fill="#da4140" fill-opacity="1"><g transform="translate(110.975658, 9.657942)"><g><path d="M 2.8125 2.078125 C 2.28125 2.078125 1.84375 1.972656 1.5 1.765625 C 1.15625 1.566406 0.90625 1.316406 0.75 1.015625 L 1.28125 0.6875 C 1.394531 0.894531 1.566406 1.082031 1.796875 1.25 C 2.035156 1.425781 2.375 1.515625 2.8125 1.515625 C 3.269531 1.515625 3.640625 1.398438 3.921875 1.171875 C 4.203125 0.941406 4.34375 0.582031 4.34375 0.09375 L 4.34375 -1.078125 L 4.28125 -1.078125 C 4.21875 -0.910156 4.117188 -0.75 3.984375 -0.59375 C 3.847656 -0.4375 3.671875 -0.304688 3.453125 -0.203125 C 3.242188 -0.109375 2.984375 -0.0625 2.671875 -0.0625 C 2.265625 -0.0625 1.894531 -0.160156 1.5625 -0.359375 C 1.238281 -0.566406 0.984375 -0.863281 0.796875 -1.25 C 0.617188 -1.632812 0.53125 -2.09375 0.53125 -2.625 C 0.53125 -3.164062 0.617188 -3.632812 0.796875 -4.03125 C 0.984375 -4.4375 1.238281 -4.75 1.5625 -4.96875 C 1.882812 -5.195312 2.257812 -5.3125 2.6875 -5.3125 C 3.007812 -5.3125 3.273438 -5.253906 3.484375 -5.140625 C 3.703125 -5.023438 3.875 -4.882812 4 -4.71875 C 4.132812 -4.550781 4.234375 -4.390625 4.296875 -4.234375 L 4.375 -4.234375 L 4.375 -5.25 L 4.984375 -5.25 L 4.984375 0.125 C 4.984375 0.570312 4.890625 0.9375 4.703125 1.21875 C 4.515625 1.507812 4.253906 1.722656 3.921875 1.859375 C 3.597656 2.003906 3.226562 2.078125 2.8125 2.078125 Z M 2.765625 -0.625 C 3.273438 -0.625 3.664062 -0.800781 3.9375 -1.15625 C 4.21875 -1.519531 4.359375 -2.015625 4.359375 -2.640625 C 4.359375 -3.046875 4.296875 -3.40625 4.171875 -3.71875 C 4.046875 -4.039062 3.863281 -4.289062 3.625 -4.46875 C 3.394531 -4.644531 3.109375 -4.734375 2.765625 -4.734375 C 2.421875 -4.734375 2.128906 -4.640625 1.890625 -4.453125 C 1.648438 -4.273438 1.46875 -4.023438 1.34375 -3.703125 C 1.226562 -3.390625 1.171875 -3.035156 1.171875 -2.640625 C 1.171875 -2.046875 1.304688 -1.5625 1.578125 -1.1875 C 1.859375 -0.8125 2.253906 -0.625 2.765625 -0.625 Z M 2.765625 -0.625 "/></g></g></g><g fill="#da4140" fill-opacity="1"><g transform="translate(116.766138, 9.657942)"><g><path d="M 0.65625 1.59375 L 1.09375 -0.875 L 1.8125 -0.875 L 1.15625 1.59375 Z M 0.65625 1.59375 "/></g></g></g><g fill="#da4140" fill-opacity="1"><g transform="translate(119.478372, 9.657942)"><g/></g></g><g fill="#da4140" fill-opacity="1"><g transform="translate(122.181222, 9.657942)"><g><path d="M 0.921875 0 L 0.921875 -6.984375 L 1.875 -6.984375 L 3.828125 -2.203125 C 3.898438 -2.023438 3.976562 -1.796875 4.0625 -1.515625 C 4.15625 -1.242188 4.242188 -0.984375 4.328125 -0.734375 C 4.410156 -0.984375 4.5 -1.242188 4.59375 -1.515625 C 4.6875 -1.785156 4.769531 -2.015625 4.84375 -2.203125 L 6.78125 -6.984375 L 7.734375 -6.984375 L 7.734375 0 L 7.078125 0 L 7.078125 -4.4375 C 7.078125 -4.6875 7.078125 -4.972656 7.078125 -5.296875 C 7.078125 -5.617188 7.082031 -5.941406 7.09375 -6.265625 C 6.976562 -5.921875 6.859375 -5.582031 6.734375 -5.25 C 6.617188 -4.914062 6.519531 -4.644531 6.4375 -4.4375 L 4.609375 0 L 4.03125 0 L 2.203125 -4.4375 C 2.117188 -4.644531 2.019531 -4.910156 1.90625 -5.234375 C 1.789062 -5.554688 1.664062 -5.894531 1.53125 -6.25 C 1.539062 -5.957031 1.546875 -5.644531 1.546875 -5.3125 C 1.554688 -4.976562 1.5625 -4.6875 1.5625 -4.4375 L 1.5625 0 Z M 0.921875 0 "/></g></g></g><g fill="#da4140" fill-opacity="1"><g transform="translate(130.834095, 9.657942)"><g><path d="M 2.921875 0.109375 C 2.429688 0.109375 2.003906 -0.00390625 1.640625 -0.234375 C 1.285156 -0.460938 1.007812 -0.78125 0.8125 -1.1875 C 0.625 -1.59375 0.53125 -2.0625 0.53125 -2.59375 C 0.53125 -3.125 0.625 -3.59375 0.8125 -4 C 1.007812 -4.40625 1.28125 -4.722656 1.625 -4.953125 C 1.96875 -5.191406 2.367188 -5.3125 2.828125 -5.3125 C 3.210938 -5.3125 3.570312 -5.21875 3.90625 -5.03125 C 4.25 -4.84375 4.523438 -4.554688 4.734375 -4.171875 C 4.953125 -3.785156 5.0625 -3.296875 5.0625 -2.703125 L 5.0625 -2.4375 L 1.171875 -2.4375 C 1.179688 -1.832031 1.34375 -1.347656 1.65625 -0.984375 C 1.976562 -0.628906 2.40625 -0.453125 2.9375 -0.453125 C 3.300781 -0.453125 3.597656 -0.535156 3.828125 -0.703125 C 4.066406 -0.878906 4.234375 -1.082031 4.328125 -1.3125 L 4.9375 -1.125 C 4.8125 -0.789062 4.578125 -0.5 4.234375 -0.25 C 3.890625 -0.0078125 3.453125 0.109375 2.921875 0.109375 Z M 1.171875 -2.984375 L 4.421875 -2.984375 C 4.390625 -3.492188 4.234375 -3.914062 3.953125 -4.25 C 3.671875 -4.582031 3.296875 -4.75 2.828125 -4.75 C 2.515625 -4.75 2.238281 -4.664062 2 -4.5 C 1.757812 -4.34375 1.566406 -4.128906 1.421875 -3.859375 C 1.273438 -3.597656 1.191406 -3.304688 1.171875 -2.984375 Z M 1.171875 -2.984375 "/></g></g></g><g fill="#da4140" fill-opacity="1"><g transform="translate(136.404034, 9.657942)"><g><path d="M 1.4375 -3.265625 L 1.4375 0 L 0.796875 0 L 0.796875 -6.984375 L 1.4375 -6.984375 L 1.4375 -4.328125 C 1.601562 -4.671875 1.828125 -4.921875 2.109375 -5.078125 C 2.390625 -5.234375 2.707031 -5.3125 3.0625 -5.3125 C 3.59375 -5.3125 4.023438 -5.144531 4.359375 -4.8125 C 4.691406 -4.488281 4.859375 -4.015625 4.859375 -3.390625 L 4.859375 0 L 4.21875 0 L 4.21875 -3.34375 C 4.21875 -3.769531 4.097656 -4.109375 3.859375 -4.359375 C 3.617188 -4.609375 3.296875 -4.734375 2.890625 -4.734375 C 2.472656 -4.734375 2.125 -4.601562 1.84375 -4.34375 C 1.570312 -4.082031 1.4375 -3.722656 1.4375 -3.265625 Z M 1.4375 -3.265625 "/></g></g></g><g fill="#da4140" fill-opacity="1"><g transform="translate(142.063126, 9.657942)"><g><path d="M 0.796875 0 L 0.796875 -5.25 L 1.421875 -5.25 L 1.421875 -4.421875 L 1.46875 -4.421875 C 1.570312 -4.691406 1.753906 -4.90625 2.015625 -5.0625 C 2.273438 -5.226562 2.566406 -5.3125 2.890625 -5.3125 C 2.941406 -5.3125 3 -5.3125 3.0625 -5.3125 C 3.125 -5.3125 3.175781 -5.3125 3.21875 -5.3125 L 3.21875 -4.671875 C 3.195312 -4.671875 3.148438 -4.675781 3.078125 -4.6875 C 3.003906 -4.695312 2.925781 -4.703125 2.84375 -4.703125 C 2.4375 -4.703125 2.097656 -4.578125 1.828125 -4.328125 C 1.566406 -4.078125 1.4375 -3.753906 1.4375 -3.359375 L 1.4375 0 Z M 0.796875 0 "/></g></g></g><g fill="#da4140" fill-opacity="1"><g transform="translate(145.516767, 9.657942)"><g/></g></g><g fill="#da4140" fill-opacity="1"><g transform="translate(148.219617, 9.657942)"><g><path d="M 0.921875 0 L 0.921875 -6.984375 L 3.203125 -6.984375 C 3.941406 -6.984375 4.503906 -6.785156 4.890625 -6.390625 C 5.273438 -6.003906 5.46875 -5.503906 5.46875 -4.890625 C 5.46875 -4.421875 5.351562 -4.015625 5.125 -3.671875 C 4.90625 -3.335938 4.578125 -3.097656 4.140625 -2.953125 L 5.75 0 L 4.984375 0 L 3.46875 -2.8125 C 3.382812 -2.8125 3.296875 -2.8125 3.203125 -2.8125 L 1.59375 -2.8125 L 1.59375 0 Z M 1.59375 -3.40625 L 3.1875 -3.40625 C 3.726562 -3.40625 4.128906 -3.535156 4.390625 -3.796875 C 4.660156 -4.066406 4.796875 -4.429688 4.796875 -4.890625 C 4.796875 -5.335938 4.660156 -5.695312 4.390625 -5.96875 C 4.128906 -6.25 3.722656 -6.390625 3.171875 -6.390625 L 1.59375 -6.390625 Z M 1.59375 -3.40625 "/></g></g></g><g fill="#da4140" fill-opacity="1"><g transform="translate(154.31511, 9.657942)"><g><path d="M 2.921875 0.109375 C 2.429688 0.109375 2.003906 -0.00390625 1.640625 -0.234375 C 1.285156 -0.460938 1.007812 -0.78125 0.8125 -1.1875 C 0.625 -1.59375 0.53125 -2.0625 0.53125 -2.59375 C 0.53125 -3.125 0.625 -3.59375 0.8125 -4 C 1.007812 -4.40625 1.28125 -4.722656 1.625 -4.953125 C 1.96875 -5.191406 2.367188 -5.3125 2.828125 -5.3125 C 3.210938 -5.3125 3.570312 -5.21875 3.90625 -5.03125 C 4.25 -4.84375 4.523438 -4.554688 4.734375 -4.171875 C 4.953125 -3.785156 5.0625 -3.296875 5.0625 -2.703125 L 5.0625 -2.4375 L 1.171875 -2.4375 C 1.179688 -1.832031 1.34375 -1.347656 1.65625 -0.984375 C 1.976562 -0.628906 2.40625 -0.453125 2.9375 -0.453125 C 3.300781 -0.453125 3.597656 -0.535156 3.828125 -0.703125 C 4.066406 -0.878906 4.234375 -1.082031 4.328125 -1.3125 L 4.9375 -1.125 C 4.8125 -0.789062 4.578125 -0.5 4.234375 -0.25 C 3.890625 -0.0078125 3.453125 0.109375 2.921875 0.109375 Z M 1.171875 -2.984375 L 4.421875 -2.984375 C 4.390625 -3.492188 4.234375 -3.914062 3.953125 -4.25 C 3.671875 -4.582031 3.296875 -4.75 2.828125 -4.75 C 2.515625 -4.75 2.238281 -4.664062 2 -4.5 C 1.757812 -4.34375 1.566406 -4.128906 1.421875 -3.859375 C 1.273438 -3.597656 1.191406 -3.304688 1.171875 -2.984375 Z M 1.171875 -2.984375 "/></g></g></g><g fill="#da4140" fill-opacity="1"><g transform="translate(159.885041, 9.657942)"><g><path d="M 1.921875 0 L 0.359375 -5.25 L 1.03125 -5.25 L 1.828125 -2.421875 C 1.898438 -2.171875 1.972656 -1.898438 2.046875 -1.609375 C 2.117188 -1.316406 2.195312 -1 2.28125 -0.65625 C 2.351562 -0.988281 2.425781 -1.300781 2.5 -1.59375 C 2.582031 -1.882812 2.660156 -2.160156 2.734375 -2.421875 L 3.578125 -5.25 L 4.265625 -5.25 L 5.109375 -2.421875 C 5.179688 -2.171875 5.253906 -1.898438 5.328125 -1.609375 C 5.398438 -1.316406 5.476562 -1.003906 5.5625 -0.671875 C 5.632812 -1.003906 5.707031 -1.3125 5.78125 -1.59375 C 5.851562 -1.882812 5.925781 -2.160156 6 -2.421875 L 6.796875 -5.25 L 7.46875 -5.25 L 5.90625 0 L 5.25 0 L 4.34375 -2.9375 C 4.269531 -3.1875 4.195312 -3.441406 4.125 -3.703125 C 4.050781 -3.972656 3.984375 -4.25 3.921875 -4.53125 C 3.847656 -4.25 3.773438 -3.972656 3.703125 -3.703125 C 3.628906 -3.441406 3.554688 -3.1875 3.484375 -2.9375 L 2.59375 0 Z M 1.921875 0 "/></g></g></g><g fill="#da4140" fill-opacity="1"><g transform="translate(167.716758, 9.657942)"><g><path d="M 2.1875 0.125 C 1.863281 0.125 1.570312 0.0585938 1.3125 -0.0625 C 1.050781 -0.1875 0.84375 -0.363281 0.6875 -0.59375 C 0.53125 -0.832031 0.453125 -1.125 0.453125 -1.46875 C 0.453125 -1.8125 0.535156 -2.082031 0.703125 -2.28125 C 0.878906 -2.488281 1.117188 -2.644531 1.421875 -2.75 C 1.722656 -2.851562 2.070312 -2.929688 2.46875 -2.984375 C 2.90625 -3.035156 3.242188 -3.082031 3.484375 -3.125 C 3.722656 -3.164062 3.84375 -3.289062 3.84375 -3.5 L 3.84375 -3.625 C 3.84375 -3.96875 3.734375 -4.238281 3.515625 -4.4375 C 3.304688 -4.644531 3.003906 -4.75 2.609375 -4.75 C 2.234375 -4.75 1.925781 -4.664062 1.6875 -4.5 C 1.457031 -4.332031 1.300781 -4.140625 1.21875 -3.921875 L 0.609375 -4.140625 C 0.722656 -4.421875 0.882812 -4.644531 1.09375 -4.8125 C 1.300781 -4.988281 1.535156 -5.113281 1.796875 -5.1875 C 2.054688 -5.269531 2.320312 -5.3125 2.59375 -5.3125 C 2.800781 -5.3125 3.015625 -5.285156 3.234375 -5.234375 C 3.453125 -5.179688 3.65625 -5.085938 3.84375 -4.953125 C 4.03125 -4.828125 4.179688 -4.648438 4.296875 -4.421875 C 4.410156 -4.191406 4.46875 -3.90625 4.46875 -3.5625 L 4.46875 0 L 3.859375 0 L 3.859375 -0.828125 L 3.8125 -0.828125 C 3.6875 -0.585938 3.488281 -0.367188 3.21875 -0.171875 C 2.945312 0.0234375 2.601562 0.125 2.1875 0.125 Z M 2.28125 -0.453125 C 2.59375 -0.453125 2.863281 -0.519531 3.09375 -0.65625 C 3.332031 -0.800781 3.515625 -0.988281 3.640625 -1.21875 C 3.773438 -1.457031 3.84375 -1.722656 3.84375 -2.015625 L 3.84375 -2.765625 C 3.78125 -2.703125 3.664062 -2.648438 3.5 -2.609375 C 3.332031 -2.566406 3.15625 -2.53125 2.96875 -2.5 C 2.78125 -2.476562 2.617188 -2.457031 2.484375 -2.4375 C 2.035156 -2.382812 1.691406 -2.28125 1.453125 -2.125 C 1.210938 -1.976562 1.09375 -1.75 1.09375 -1.4375 C 1.09375 -1.125 1.203125 -0.878906 1.421875 -0.703125 C 1.648438 -0.535156 1.9375 -0.453125 2.28125 -0.453125 Z M 2.28125 -0.453125 "/></g></g></g><g fill="#da4140" fill-opacity="1"><g transform="translate(172.995748, 9.657942)"><g><path d="M 0.796875 0 L 0.796875 -5.25 L 1.421875 -5.25 L 1.421875 -4.421875 L 1.46875 -4.421875 C 1.570312 -4.691406 1.753906 -4.90625 2.015625 -5.0625 C 2.273438 -5.226562 2.566406 -5.3125 2.890625 -5.3125 C 2.941406 -5.3125 3 -5.3125 3.0625 -5.3125 C 3.125 -5.3125 3.175781 -5.3125 3.21875 -5.3125 L 3.21875 -4.671875 C 3.195312 -4.671875 3.148438 -4.675781 3.078125 -4.6875 C 3.003906 -4.695312 2.925781 -4.703125 2.84375 -4.703125 C 2.4375 -4.703125 2.097656 -4.578125 1.828125 -4.328125 C 1.566406 -4.078125 1.4375 -3.753906 1.4375 -3.359375 L 1.4375 0 Z M 0.796875 0 "/></g></g></g><g fill="#da4140" fill-opacity="1"><g transform="translate(176.449389, 9.657942)"><g><path d="M 2.671875 0.109375 C 2.242188 0.109375 1.867188 0 1.546875 -0.21875 C 1.222656 -0.445312 0.972656 -0.765625 0.796875 -1.171875 C 0.617188 -1.585938 0.53125 -2.066406 0.53125 -2.609375 C 0.53125 -3.148438 0.617188 -3.625 0.796875 -4.03125 C 0.984375 -4.4375 1.238281 -4.75 1.5625 -4.96875 C 1.882812 -5.195312 2.257812 -5.3125 2.6875 -5.3125 C 3 -5.3125 3.257812 -5.253906 3.46875 -5.140625 C 3.6875 -5.023438 3.859375 -4.882812 3.984375 -4.71875 C 4.117188 -4.550781 4.222656 -4.390625 4.296875 -4.234375 L 4.34375 -4.234375 L 4.34375 -6.984375 L 4.984375 -6.984375 L 4.984375 0 L 4.359375 0 L 4.359375 -0.984375 L 4.296875 -0.984375 C 4.222656 -0.816406 4.117188 -0.648438 3.984375 -0.484375 C 3.859375 -0.316406 3.6875 -0.175781 3.46875 -0.0625 C 3.257812 0.0507812 2.992188 0.109375 2.671875 0.109375 Z M 2.765625 -0.46875 C 3.097656 -0.46875 3.382812 -0.554688 3.625 -0.734375 C 3.863281 -0.921875 4.039062 -1.175781 4.15625 -1.5 C 4.28125 -1.820312 4.34375 -2.191406 4.34375 -2.609375 C 4.34375 -3.023438 4.28125 -3.390625 4.15625 -3.703125 C 4.039062 -4.023438 3.863281 -4.273438 3.625 -4.453125 C 3.382812 -4.640625 3.097656 -4.734375 2.765625 -4.734375 C 2.421875 -4.734375 2.128906 -4.640625 1.890625 -4.453125 C 1.648438 -4.265625 1.46875 -4.007812 1.34375 -3.6875 C 1.226562 -3.375 1.171875 -3.015625 1.171875 -2.609375 C 1.171875 -2.210938 1.234375 -1.847656 1.359375 -1.515625 C 1.484375 -1.191406 1.660156 -0.9375 1.890625 -0.75 C 2.128906 -0.5625 2.421875 -0.46875 2.765625 -0.46875 Z M 2.765625 -0.46875 "/></g></g></g><g fill="#da4140" fill-opacity="1"><g transform="translate(182.235181, 9.657942)"><g><path d="M 2.46875 0.109375 C 1.957031 0.109375 1.53125 -0.00390625 1.1875 -0.234375 C 0.851562 -0.472656 0.640625 -0.8125 0.546875 -1.25 L 1.15625 -1.390625 C 1.226562 -1.078125 1.375 -0.84375 1.59375 -0.6875 C 1.820312 -0.53125 2.113281 -0.453125 2.46875 -0.453125 C 2.863281 -0.453125 3.179688 -0.539062 3.421875 -0.71875 C 3.660156 -0.894531 3.78125 -1.117188 3.78125 -1.390625 C 3.78125 -1.816406 3.492188 -2.097656 2.921875 -2.234375 L 2.0625 -2.4375 C 1.164062 -2.65625 0.71875 -3.117188 0.71875 -3.828125 C 0.71875 -4.128906 0.796875 -4.390625 0.953125 -4.609375 C 1.117188 -4.828125 1.335938 -5 1.609375 -5.125 C 1.890625 -5.25 2.207031 -5.3125 2.5625 -5.3125 C 3.050781 -5.3125 3.441406 -5.195312 3.734375 -4.96875 C 4.023438 -4.75 4.226562 -4.453125 4.34375 -4.078125 L 3.765625 -3.921875 C 3.679688 -4.160156 3.546875 -4.359375 3.359375 -4.515625 C 3.171875 -4.679688 2.90625 -4.765625 2.5625 -4.765625 C 2.21875 -4.765625 1.929688 -4.679688 1.703125 -4.515625 C 1.472656 -4.347656 1.359375 -4.132812 1.359375 -3.875 C 1.359375 -3.4375 1.671875 -3.144531 2.296875 -3 L 3.109375 -2.8125 C 3.992188 -2.59375 4.4375 -2.128906 4.4375 -1.421875 C 4.4375 -1.117188 4.351562 -0.851562 4.1875 -0.625 C 4.019531 -0.394531 3.785156 -0.210938 3.484375 -0.078125 C 3.191406 0.0429688 2.851562 0.109375 2.46875 0.109375 Z M 2.46875 0.109375 "/></g></g></g></g></g><g clip-path="url(#2013b2811a)"><path fill="#da4140" d="M 270.554688 36.691406 L 255.414062 46.179688 C 254.078125 47.015625 252.347656 46.058594 252.347656 44.480469 L 252.347656 25.503906 C 252.347656 23.925781 254.078125 22.96875 255.414062 23.804688 L 270.554688 33.292969 C 271.808594 34.078125 271.808594 35.90625 270.554688 36.691406 " fill-opacity="1" fill-rule="nonzero"/></g></svg>