<svg xmlns="http://www.w3.org/2000/svg" xmlns:xlink="http://www.w3.org/1999/xlink" width="366" zoomAndPan="magnify" viewBox="0 0 274.5 8.25" height="11" preserveAspectRatio="xMidYMid meet" version="1.0"><defs><g/><clipPath id="1098e1bf66"><path d="M 11.207031 0 L 262.832031 0 L 262.832031 7.5625 L 11.207031 7.5625 Z M 11.207031 0 " clip-rule="nonzero"/></clipPath><clipPath id="df3aaa6408"><path d="M 42.980469 1.941406 L 262.480469 1.941406 L 262.480469 5.351562 L 42.980469 5.351562 Z M 42.980469 1.941406 " clip-rule="nonzero"/></clipPath><clipPath id="1e32292a40"><path d="M 44.683594 1.941406 L 260.761719 1.941406 C 261.703125 1.941406 262.46875 2.707031 262.46875 3.648438 C 262.46875 4.585938 261.703125 5.351562 260.761719 5.351562 L 44.683594 5.351562 C 43.742188 5.351562 42.980469 4.585938 42.980469 3.648438 C 42.980469 2.707031 43.742188 1.941406 44.683594 1.941406 Z M 44.683594 1.941406 " clip-rule="nonzero"/></clipPath><clipPath id="7461d10503"><path d="M 0.980469 0.941406 L 220.480469 0.941406 L 220.480469 4.351562 L 0.980469 4.351562 Z M 0.980469 0.941406 " clip-rule="nonzero"/></clipPath><clipPath id="82f95bc849"><path d="M 2.683594 0.941406 L 218.761719 0.941406 C 219.703125 0.941406 220.46875 1.707031 220.46875 2.648438 C 220.46875 3.585938 219.703125 4.351562 218.761719 4.351562 L 2.683594 4.351562 C 1.742188 4.351562 0.980469 3.585938 0.980469 2.648438 C 0.980469 1.707031 1.742188 0.941406 2.683594 0.941406 Z M 2.683594 0.941406 " clip-rule="nonzero"/></clipPath><clipPath id="c36f7a9511"><rect x="0" width="221" y="0" height="5"/></clipPath><clipPath id="afdef3994f"><path d="M 11.207031 0 L 41 0 L 41 7.5625 L 11.207031 7.5625 Z M 11.207031 0 " clip-rule="nonzero"/></clipPath><clipPath id="0e3f449c3f"><path d="M 0.207031 0 L 29.910156 0 L 29.910156 7 L 0.207031 7 Z M 0.207031 0 " clip-rule="nonzero"/></clipPath><clipPath id="bd859b3dc8"><rect x="0" width="30" y="0" height="8"/></clipPath><clipPath id="0abdcdcbbe"><path d="M 42.980469 1.941406 L 207.15625 1.941406 L 207.15625 5.351562 L 42.980469 5.351562 Z M 42.980469 1.941406 " clip-rule="nonzero"/></clipPath><clipPath id="8edbe327c6"><path d="M 44.683594 1.941406 L 205.445312 1.941406 C 206.386719 1.941406 207.148438 2.707031 207.148438 3.648438 C 207.148438 4.585938 206.386719 5.351562 205.445312 5.351562 L 44.683594 5.351562 C 43.742188 5.351562 42.980469 4.585938 42.980469 3.648438 C 42.980469 2.707031 43.742188 1.941406 44.683594 1.941406 Z M 44.683594 1.941406 " clip-rule="nonzero"/></clipPath><clipPath id="d3b3924a47"><path d="M 0.980469 0.941406 L 165.15625 0.941406 L 165.15625 4.351562 L 0.980469 4.351562 Z M 0.980469 0.941406 " clip-rule="nonzero"/></clipPath><clipPath id="17188ccd83"><path d="M 2.683594 0.941406 L 163.445312 0.941406 C 164.386719 0.941406 165.148438 1.707031 165.148438 2.648438 C 165.148438 3.585938 164.386719 4.351562 163.445312 4.351562 L 2.683594 4.351562 C 1.742188 4.351562 0.980469 3.585938 0.980469 2.648438 C 0.980469 1.707031 1.742188 0.941406 2.683594 0.941406 Z M 2.683594 0.941406 " clip-rule="nonzero"/></clipPath><clipPath id="6a62185cde"><rect x="0" width="166" y="0" height="5"/></clipPath></defs><g clip-path="url(#1098e1bf66)"><path fill="#ffffff" d="M 11.207031 0 L 262.832031 0 L 262.832031 7.5625 L 11.207031 7.5625 Z M 11.207031 0 " fill-opacity="1" fill-rule="nonzero"/></g><g clip-path="url(#df3aaa6408)"><g clip-path="url(#1e32292a40)"><g transform="matrix(1, 0, 0, 1, 42, 1)"><g clip-path="url(#c36f7a9511)"><g clip-path="url(#7461d10503)"><g clip-path="url(#82f95bc849)"><path fill="#222a35" d="M 0.980469 0.941406 L 220.464844 0.941406 L 220.464844 4.351562 L 0.980469 4.351562 Z M 0.980469 0.941406 " fill-opacity="1" fill-rule="nonzero"/></g></g></g></g></g></g><g clip-path="url(#afdef3994f)"><g transform="matrix(1, 0, 0, 1, 11, 0.000000000000001257)"><g clip-path="url(#bd859b3dc8)"><g clip-path="url(#0e3f449c3f)"><g fill="#8b8b8b" fill-opacity="1"><g transform="translate(0.208339, 5.791592)"><g><path d="M 2.25 -4.6875 L 2.25 0 L 1.421875 0 L 1.421875 -3.9375 L 1.390625 -3.9375 L 0.296875 -3.15625 L 0.296875 -3.953125 L 1.328125 -4.6875 Z M 2.25 -4.6875 "/></g></g><g transform="translate(2.929433, 5.791592)"><g><path d="M 0.421875 0 L 0.421875 -0.609375 L 2.046875 -2.203125 C 2.273438 -2.429688 2.445312 -2.628906 2.5625 -2.796875 C 2.6875 -2.960938 2.75 -3.144531 2.75 -3.34375 C 2.75 -3.5625 2.671875 -3.734375 2.515625 -3.859375 C 2.367188 -3.992188 2.1875 -4.0625 1.96875 -4.0625 C 1.738281 -4.0625 1.550781 -3.988281 1.40625 -3.84375 C 1.269531 -3.707031 1.203125 -3.519531 1.203125 -3.28125 L 0.390625 -3.28125 C 0.390625 -3.570312 0.457031 -3.828125 0.59375 -4.046875 C 0.726562 -4.273438 0.914062 -4.445312 1.15625 -4.5625 C 1.394531 -4.6875 1.671875 -4.75 1.984375 -4.75 C 2.296875 -4.75 2.566406 -4.6875 2.796875 -4.5625 C 3.035156 -4.445312 3.222656 -4.285156 3.359375 -4.078125 C 3.492188 -3.878906 3.5625 -3.648438 3.5625 -3.390625 C 3.5625 -3.210938 3.523438 -3.039062 3.453125 -2.875 C 3.390625 -2.707031 3.273438 -2.519531 3.109375 -2.3125 C 2.941406 -2.101562 2.703125 -1.851562 2.390625 -1.5625 L 1.578125 -0.734375 L 1.578125 -0.703125 L 3.625 -0.703125 L 3.625 0 Z M 0.421875 0 "/></g></g><g transform="translate(6.938803, 5.791592)"><g><path d="M 2.125 0.0625 C 1.550781 0.0625 1.109375 -0.144531 0.796875 -0.5625 C 0.484375 -0.988281 0.328125 -1.582031 0.328125 -2.34375 C 0.328125 -3.09375 0.484375 -3.679688 0.796875 -4.109375 C 1.109375 -4.535156 1.550781 -4.75 2.125 -4.75 C 2.6875 -4.75 3.125 -4.535156 3.4375 -4.109375 C 3.757812 -3.679688 3.921875 -3.09375 3.921875 -2.34375 C 3.921875 -1.582031 3.765625 -0.988281 3.453125 -0.5625 C 3.140625 -0.144531 2.695312 0.0625 2.125 0.0625 Z M 2.125 -0.640625 C 2.425781 -0.640625 2.660156 -0.785156 2.828125 -1.078125 C 2.992188 -1.378906 3.078125 -1.800781 3.078125 -2.34375 C 3.078125 -2.882812 2.992188 -3.300781 2.828125 -3.59375 C 2.660156 -3.894531 2.425781 -4.046875 2.125 -4.046875 C 1.820312 -4.046875 1.585938 -3.894531 1.421875 -3.59375 C 1.253906 -3.300781 1.171875 -2.882812 1.171875 -2.34375 C 1.171875 -1.800781 1.25 -1.378906 1.40625 -1.078125 C 1.570312 -0.785156 1.8125 -0.640625 2.125 -0.640625 Z M 2.125 -0.640625 "/></g></g><g transform="translate(11.183834, 5.791592)"><g/></g><g transform="translate(12.805179, 5.791592)"><g><path d="M 2.328125 -4.90625 L 0.828125 0.703125 L 0.109375 0.703125 L 1.609375 -4.90625 Z M 2.328125 -4.90625 "/></g></g><g transform="translate(15.243479, 5.791592)"><g/></g><g transform="translate(16.864823, 5.791592)"><g><path d="M 0.421875 0 L 0.421875 -0.609375 L 2.046875 -2.203125 C 2.273438 -2.429688 2.445312 -2.628906 2.5625 -2.796875 C 2.6875 -2.960938 2.75 -3.144531 2.75 -3.34375 C 2.75 -3.5625 2.671875 -3.734375 2.515625 -3.859375 C 2.367188 -3.992188 2.1875 -4.0625 1.96875 -4.0625 C 1.738281 -4.0625 1.550781 -3.988281 1.40625 -3.84375 C 1.269531 -3.707031 1.203125 -3.519531 1.203125 -3.28125 L 0.390625 -3.28125 C 0.390625 -3.570312 0.457031 -3.828125 0.59375 -4.046875 C 0.726562 -4.273438 0.914062 -4.445312 1.15625 -4.5625 C 1.394531 -4.6875 1.671875 -4.75 1.984375 -4.75 C 2.296875 -4.75 2.566406 -4.6875 2.796875 -4.5625 C 3.035156 -4.445312 3.222656 -4.285156 3.359375 -4.078125 C 3.492188 -3.878906 3.5625 -3.648438 3.5625 -3.390625 C 3.5625 -3.210938 3.523438 -3.039062 3.453125 -2.875 C 3.390625 -2.707031 3.273438 -2.519531 3.109375 -2.3125 C 2.941406 -2.101562 2.703125 -1.851562 2.390625 -1.5625 L 1.578125 -0.734375 L 1.578125 -0.703125 L 3.625 -0.703125 L 3.625 0 Z M 0.421875 0 "/></g></g><g transform="translate(20.874194, 5.791592)"><g><path d="M 2.125 0.0625 C 1.550781 0.0625 1.109375 -0.144531 0.796875 -0.5625 C 0.484375 -0.988281 0.328125 -1.582031 0.328125 -2.34375 C 0.328125 -3.09375 0.484375 -3.679688 0.796875 -4.109375 C 1.109375 -4.535156 1.550781 -4.75 2.125 -4.75 C 2.6875 -4.75 3.125 -4.535156 3.4375 -4.109375 C 3.757812 -3.679688 3.921875 -3.09375 3.921875 -2.34375 C 3.921875 -1.582031 3.765625 -0.988281 3.453125 -0.5625 C 3.140625 -0.144531 2.695312 0.0625 2.125 0.0625 Z M 2.125 -0.640625 C 2.425781 -0.640625 2.660156 -0.785156 2.828125 -1.078125 C 2.992188 -1.378906 3.078125 -1.800781 3.078125 -2.34375 C 3.078125 -2.882812 2.992188 -3.300781 2.828125 -3.59375 C 2.660156 -3.894531 2.425781 -4.046875 2.125 -4.046875 C 1.820312 -4.046875 1.585938 -3.894531 1.421875 -3.59375 C 1.253906 -3.300781 1.171875 -2.882812 1.171875 -2.34375 C 1.171875 -1.800781 1.25 -1.378906 1.40625 -1.078125 C 1.570312 -0.785156 1.8125 -0.640625 2.125 -0.640625 Z M 2.125 -0.640625 "/></g></g><g transform="translate(25.119225, 5.791592)"><g><path d="M 2.125 0.0625 C 1.550781 0.0625 1.109375 -0.144531 0.796875 -0.5625 C 0.484375 -0.988281 0.328125 -1.582031 0.328125 -2.34375 C 0.328125 -3.09375 0.484375 -3.679688 0.796875 -4.109375 C 1.109375 -4.535156 1.550781 -4.75 2.125 -4.75 C 2.6875 -4.75 3.125 -4.535156 3.4375 -4.109375 C 3.757812 -3.679688 3.921875 -3.09375 3.921875 -2.34375 C 3.921875 -1.582031 3.765625 -0.988281 3.453125 -0.5625 C 3.140625 -0.144531 2.695312 0.0625 2.125 0.0625 Z M 2.125 -0.640625 C 2.425781 -0.640625 2.660156 -0.785156 2.828125 -1.078125 C 2.992188 -1.378906 3.078125 -1.800781 3.078125 -2.34375 C 3.078125 -2.882812 2.992188 -3.300781 2.828125 -3.59375 C 2.660156 -3.894531 2.425781 -4.046875 2.125 -4.046875 C 1.820312 -4.046875 1.585938 -3.894531 1.421875 -3.59375 C 1.253906 -3.300781 1.171875 -2.882812 1.171875 -2.34375 C 1.171875 -1.800781 1.25 -1.378906 1.40625 -1.078125 C 1.570312 -0.785156 1.8125 -0.640625 2.125 -0.640625 Z M 2.125 -0.640625 "/></g></g></g></g></g></g></g><g clip-path="url(#0abdcdcbbe)"><g clip-path="url(#8edbe327c6)"><g transform="matrix(1, 0, 0, 1, 42, 1)"><g clip-path="url(#6a62185cde)"><g clip-path="url(#d3b3924a47)"><g clip-path="url(#17188ccd83)"><path fill="#5ec269" d="M 0.980469 0.941406 L 165.144531 0.941406 L 165.144531 4.351562 L 0.980469 4.351562 Z M 0.980469 0.941406 " fill-opacity="1" fill-rule="nonzero"/></g></g></g></g></g></g></svg>