<svg xmlns="http://www.w3.org/2000/svg" xmlns:xlink="http://www.w3.org/1999/xlink" width="385" zoomAndPan="magnify" viewBox="0 0 288.75 71.249999" height="95" preserveAspectRatio="xMidYMid meet" version="1.0"><defs><g/><clipPath id="bb669904e5"><path d="M 1.378906 0 L 287.121094 0 L 287.121094 70.507812 L 1.378906 70.507812 Z M 1.378906 0 " clip-rule="nonzero"/></clipPath><clipPath id="9b6e3f35bd"><path d="M 1.378906 0 L 286.984375 0 L 286.984375 69.964844 L 1.378906 69.964844 Z M 1.378906 0 " clip-rule="nonzero"/></clipPath><clipPath id="79ba3e7baa"><path d="M 16.058594 0 L 272.070312 0 C 280.175781 0 286.75 6.574219 286.75 14.679688 L 286.75 55.285156 C 286.75 63.394531 280.175781 69.964844 272.070312 69.964844 L 16.058594 69.964844 C 7.953125 69.964844 1.378906 63.394531 1.378906 55.285156 L 1.378906 14.679688 C 1.378906 6.574219 7.953125 0 16.058594 0 Z M 16.058594 0 " clip-rule="nonzero"/></clipPath><clipPath id="187128db8b"><path d="M 0.378906 0 L 285.855469 0 L 285.855469 69.964844 L 0.378906 69.964844 Z M 0.378906 0 " clip-rule="nonzero"/></clipPath><clipPath id="28510554fd"><path d="M 15.058594 0 L 271.070312 0 C 279.175781 0 285.75 6.574219 285.75 14.679688 L 285.75 55.285156 C 285.75 63.394531 279.175781 69.964844 271.070312 69.964844 L 15.058594 69.964844 C 6.953125 69.964844 0.378906 63.394531 0.378906 55.285156 L 0.378906 14.679688 C 0.378906 6.574219 6.953125 0 15.058594 0 Z M 15.058594 0 " clip-rule="nonzero"/></clipPath><clipPath id="a121c51385"><rect x="0" width="286" y="0" height="70"/></clipPath><clipPath id="6c13440110"><path d="M 1.382812 0 L 286.378906 0 L 286.378906 69.765625 L 1.382812 69.765625 Z M 1.382812 0 " clip-rule="nonzero"/></clipPath><clipPath id="766f1e455c"><path d="M 16.0625 0 L 272.058594 0 C 280.164062 0 286.738281 6.570312 286.738281 14.679688 L 286.738281 55.285156 C 286.738281 63.390625 280.164062 69.960938 272.058594 69.960938 L 16.0625 69.960938 C 7.957031 69.960938 1.382812 63.390625 1.382812 55.285156 L 1.382812 14.679688 C 1.382812 6.570312 7.957031 0 16.0625 0 Z M 16.0625 0 " clip-rule="nonzero"/></clipPath><clipPath id="96bda60558"><path d="M 252.609375 21.046875 L 271.90625 21.046875 L 271.90625 47.765625 L 252.609375 47.765625 Z M 252.609375 21.046875 " clip-rule="nonzero"/></clipPath><clipPath id="f4deaa1560"><rect x="0" width="205" y="0" height="30"/></clipPath><clipPath id="359c6188f2"><path d="M 0.09375 2 L 8 2 L 8 10 L 0.09375 10 Z M 0.09375 2 " clip-rule="nonzero"/></clipPath><clipPath id="815370285c"><rect x="0" width="159" y="0" height="13"/></clipPath></defs><g clip-path="url(#bb669904e5)"><path fill="#ffffff" d="M 1.378906 0 L 287.121094 0 L 287.121094 70.507812 L 1.378906 70.507812 Z M 1.378906 0 " fill-opacity="1" fill-rule="nonzero"/></g><g clip-path="url(#9b6e3f35bd)"><g clip-path="url(#79ba3e7baa)"><g transform="matrix(1, 0, 0, 1, 1, 0.000000000000003143)"><g clip-path="url(#a121c51385)"><g clip-path="url(#187128db8b)"><g clip-path="url(#28510554fd)"><path fill="#232323" d="M 0.378906 0 L 285.710938 0 L 285.710938 69.964844 L 0.378906 69.964844 Z M 0.378906 0 " fill-opacity="1" fill-rule="nonzero"/></g></g></g></g></g></g><g clip-path="url(#6c13440110)"><g clip-path="url(#766f1e455c)"><path stroke-linecap="butt" transform="matrix(0.742187, 0, 0, 0.742187, 1.38021, 0.000000989583)" fill="none" stroke-linejoin="miter" d="M 19.782455 -0.00000133333 L 364.703526 -0.00000133333 C 375.62458 -0.00000133333 384.482475 8.852631 384.482475 19.778947 L 384.482475 74.489477 C 384.482475 85.41053 375.62458 94.263162 364.703526 94.263162 L 19.782455 94.263162 C 8.861401 94.263162 0.00350607 85.41053 0.00350607 74.489477 L 0.00350607 19.778947 C 0.00350607 8.852631 8.861401 -0.00000133333 19.782455 -0.00000133333 Z M 19.782455 -0.00000133333 " stroke="#8b8b8b" stroke-width="4" stroke-opacity="1" stroke-miterlimit="4"/></g></g><g clip-path="url(#96bda60558)"><path fill="#8b8b8b" d="M 262.402344 24.15625 C 264.734375 24.15625 266.625 26.046875 266.625 28.378906 L 266.625 32.609375 L 258.179688 32.609375 L 258.179688 28.378906 C 258.179688 26.046875 260.070312 24.15625 262.402344 24.15625 Z M 269.691406 32.636719 L 269.691406 28.347656 C 269.691406 24.320312 266.429688 21.058594 262.402344 21.058594 C 258.375 21.058594 255.113281 24.320312 255.113281 28.347656 L 255.113281 32.636719 C 253.699219 32.832031 252.609375 34.039062 252.609375 35.507812 L 252.609375 45.160156 C 252.609375 46.761719 253.90625 48.058594 255.507812 48.058594 L 269.296875 48.058594 C 270.898438 48.058594 272.195312 46.761719 272.195312 45.160156 L 272.195312 35.507812 C 272.195312 34.039062 271.105469 32.832031 269.691406 32.636719 " fill-opacity="1" fill-rule="nonzero"/></g><g transform="matrix(1, 0, 0, 1, 21, 14)"><g clip-path="url(#f4deaa1560)"><g fill="#8b8b8b" fill-opacity="1"><g transform="translate(0.10267, 22.953529)"><g><path d="M 5.265625 -17.84375 L 5.265625 0 L 1.609375 0 L 1.609375 -17.84375 Z M 5.265625 -17.84375 "/></g></g><g transform="translate(6.985783, 22.953529)"><g><path d="M 1.53125 0 L 1.53125 -13.390625 L 4.859375 -13.390625 L 5 -10.78125 C 5.363281 -11.757812 5.890625 -12.472656 6.578125 -12.921875 C 7.273438 -13.367188 8.023438 -13.59375 8.828125 -13.59375 C 10.515625 -13.59375 11.660156 -12.585938 12.265625 -10.578125 C 12.640625 -11.609375 13.21875 -12.367188 14 -12.859375 C 14.789062 -13.347656 15.644531 -13.59375 16.5625 -13.59375 C 17.789062 -13.59375 18.8125 -13.191406 19.625 -12.390625 C 20.4375 -11.597656 20.84375 -10.476562 20.84375 -9.03125 L 20.84375 0 L 17.25 0 L 17.25 -8.34375 C 17.25 -9.09375 17.039062 -9.648438 16.625 -10.015625 C 16.21875 -10.390625 15.71875 -10.578125 15.125 -10.578125 C 14.4375 -10.578125 13.894531 -10.363281 13.5 -9.9375 C 13.113281 -9.507812 12.921875 -8.941406 12.921875 -8.234375 L 12.921875 0 L 9.4375 0 L 9.4375 -8.4375 C 9.4375 -9.09375 9.242188 -9.613281 8.859375 -10 C 8.472656 -10.382812 7.972656 -10.578125 7.359375 -10.578125 C 6.734375 -10.578125 6.203125 -10.363281 5.765625 -9.9375 C 5.335938 -9.507812 5.125 -8.894531 5.125 -8.09375 L 5.125 0 Z M 1.53125 0 "/></g></g><g transform="translate(29.358895, 22.953529)"><g><path d="M 1.53125 5 L 1.53125 -13.390625 L 5.0625 -13.390625 L 5.0625 -11.125 L 5.234375 -11.125 C 5.390625 -11.476562 5.617188 -11.84375 5.921875 -12.21875 C 6.234375 -12.59375 6.640625 -12.90625 7.140625 -13.15625 C 7.648438 -13.414062 8.285156 -13.546875 9.046875 -13.546875 C 10.035156 -13.546875 10.941406 -13.289062 11.765625 -12.78125 C 12.585938 -12.269531 13.242188 -11.503906 13.734375 -10.484375 C 14.222656 -9.460938 14.46875 -8.191406 14.46875 -6.671875 C 14.46875 -5.179688 14.226562 -3.921875 13.75 -2.890625 C 13.269531 -1.867188 12.617188 -1.09375 11.796875 -0.5625 C 10.972656 -0.03125 10.050781 0.234375 9.03125 0.234375 C 8.300781 0.234375 7.679688 0.105469 7.171875 -0.140625 C 6.671875 -0.390625 6.265625 -0.695312 5.953125 -1.0625 C 5.640625 -1.425781 5.398438 -1.785156 5.234375 -2.140625 L 5.125 -2.140625 L 5.125 5 Z M 7.921875 -2.65625 C 8.859375 -2.65625 9.570312 -3.03125 10.0625 -3.78125 C 10.550781 -4.53125 10.796875 -5.492188 10.796875 -6.671875 C 10.796875 -7.847656 10.550781 -8.804688 10.0625 -9.546875 C 9.582031 -10.296875 8.867188 -10.671875 7.921875 -10.671875 C 6.992188 -10.671875 6.28125 -10.304688 5.78125 -9.578125 C 5.289062 -8.859375 5.046875 -7.890625 5.046875 -6.671875 C 5.046875 -5.460938 5.296875 -4.488281 5.796875 -3.75 C 6.296875 -3.019531 7.003906 -2.65625 7.921875 -2.65625 Z M 7.921875 -2.65625 "/></g></g><g transform="translate(44.812981, 22.953529)"><g><path d="M 7.515625 0.265625 C 6.171875 0.265625 5.007812 -0.0195312 4.03125 -0.59375 C 3.050781 -1.175781 2.296875 -1.984375 1.765625 -3.015625 C 1.234375 -4.054688 0.96875 -5.257812 0.96875 -6.625 C 0.96875 -8.007812 1.234375 -9.21875 1.765625 -10.25 C 2.296875 -11.289062 3.050781 -12.097656 4.03125 -12.671875 C 5.007812 -13.253906 6.171875 -13.546875 7.515625 -13.546875 C 8.859375 -13.546875 10.019531 -13.253906 11 -12.671875 C 11.976562 -12.097656 12.734375 -11.289062 13.265625 -10.25 C 13.796875 -9.21875 14.0625 -8.007812 14.0625 -6.625 C 14.0625 -5.257812 13.796875 -4.054688 13.265625 -3.015625 C 12.734375 -1.984375 11.976562 -1.175781 11 -0.59375 C 10.019531 -0.0195312 8.859375 0.265625 7.515625 0.265625 Z M 7.515625 -2.5625 C 8.472656 -2.5625 9.195312 -2.945312 9.6875 -3.71875 C 10.175781 -4.5 10.421875 -5.472656 10.421875 -6.640625 C 10.421875 -7.828125 10.175781 -8.800781 9.6875 -9.5625 C 9.195312 -10.332031 8.472656 -10.71875 7.515625 -10.71875 C 6.554688 -10.71875 5.832031 -10.332031 5.34375 -9.5625 C 4.863281 -8.800781 4.625 -7.828125 4.625 -6.640625 C 4.625 -5.472656 4.863281 -4.5 5.34375 -3.71875 C 5.832031 -2.945312 6.554688 -2.5625 7.515625 -2.5625 Z M 7.515625 -2.5625 "/></g></g><g transform="translate(59.848095, 22.953529)"><g><path d="M 6.84375 0.265625 C 5.226562 0.265625 3.894531 -0.078125 2.84375 -0.765625 C 1.800781 -1.453125 1.164062 -2.414062 0.9375 -3.65625 L 4.28125 -4.234375 C 4.613281 -2.992188 5.503906 -2.375 6.953125 -2.375 C 7.640625 -2.375 8.179688 -2.5 8.578125 -2.75 C 8.972656 -3.007812 9.171875 -3.34375 9.171875 -3.75 C 9.171875 -4.425781 8.597656 -4.882812 7.453125 -5.125 L 5.140625 -5.609375 C 2.566406 -6.128906 1.28125 -7.390625 1.28125 -9.390625 C 1.28125 -10.679688 1.796875 -11.695312 2.828125 -12.4375 C 3.859375 -13.175781 5.21875 -13.546875 6.90625 -13.546875 C 8.5 -13.546875 9.765625 -13.222656 10.703125 -12.578125 C 11.640625 -11.929688 12.234375 -11.066406 12.484375 -9.984375 L 9.296875 -9.421875 C 9.148438 -9.878906 8.882812 -10.253906 8.5 -10.546875 C 8.125 -10.835938 7.609375 -10.984375 6.953125 -10.984375 C 6.359375 -10.984375 5.863281 -10.851562 5.46875 -10.59375 C 5.070312 -10.34375 4.875 -10.019531 4.875 -9.625 C 4.875 -9.289062 5.003906 -9.003906 5.265625 -8.765625 C 5.523438 -8.535156 5.96875 -8.351562 6.59375 -8.21875 L 9 -7.75 C 11.550781 -7.226562 12.828125 -6.019531 12.828125 -4.125 C 12.828125 -3.25 12.570312 -2.484375 12.0625 -1.828125 C 11.550781 -1.171875 10.84375 -0.65625 9.9375 -0.28125 C 9.039062 0.0820312 8.007812 0.265625 6.84375 0.265625 Z M 6.84375 0.265625 "/></g></g><g transform="translate(73.578411, 22.953529)"><g><path d="M 6.84375 0.265625 C 5.226562 0.265625 3.894531 -0.078125 2.84375 -0.765625 C 1.800781 -1.453125 1.164062 -2.414062 0.9375 -3.65625 L 4.28125 -4.234375 C 4.613281 -2.992188 5.503906 -2.375 6.953125 -2.375 C 7.640625 -2.375 8.179688 -2.5 8.578125 -2.75 C 8.972656 -3.007812 9.171875 -3.34375 9.171875 -3.75 C 9.171875 -4.425781 8.597656 -4.882812 7.453125 -5.125 L 5.140625 -5.609375 C 2.566406 -6.128906 1.28125 -7.390625 1.28125 -9.390625 C 1.28125 -10.679688 1.796875 -11.695312 2.828125 -12.4375 C 3.859375 -13.175781 5.21875 -13.546875 6.90625 -13.546875 C 8.5 -13.546875 9.765625 -13.222656 10.703125 -12.578125 C 11.640625 -11.929688 12.234375 -11.066406 12.484375 -9.984375 L 9.296875 -9.421875 C 9.148438 -9.878906 8.882812 -10.253906 8.5 -10.546875 C 8.125 -10.835938 7.609375 -10.984375 6.953125 -10.984375 C 6.359375 -10.984375 5.863281 -10.851562 5.46875 -10.59375 C 5.070312 -10.34375 4.875 -10.019531 4.875 -9.625 C 4.875 -9.289062 5.003906 -9.003906 5.265625 -8.765625 C 5.523438 -8.535156 5.96875 -8.351562 6.59375 -8.21875 L 9 -7.75 C 11.550781 -7.226562 12.828125 -6.019531 12.828125 -4.125 C 12.828125 -3.25 12.570312 -2.484375 12.0625 -1.828125 C 11.550781 -1.171875 10.84375 -0.65625 9.9375 -0.28125 C 9.039062 0.0820312 8.007812 0.265625 6.84375 0.265625 Z M 6.84375 0.265625 "/></g></g><g transform="translate(87.308726, 22.953529)"><g><path d="M 1.53125 0 L 1.53125 -13.390625 L 5.125 -13.390625 L 5.125 0 Z M 3.328125 -15.125 C 2.785156 -15.125 2.320312 -15.300781 1.9375 -15.65625 C 1.5625 -16.019531 1.375 -16.457031 1.375 -16.96875 C 1.375 -17.476562 1.5625 -17.910156 1.9375 -18.265625 C 2.320312 -18.628906 2.785156 -18.8125 3.328125 -18.8125 C 3.867188 -18.8125 4.332031 -18.628906 4.71875 -18.265625 C 5.113281 -17.910156 5.3125 -17.476562 5.3125 -16.96875 C 5.3125 -16.457031 5.113281 -16.019531 4.71875 -15.65625 C 4.332031 -15.300781 3.867188 -15.125 3.328125 -15.125 Z M 3.328125 -15.125 "/></g></g><g transform="translate(93.952427, 22.953529)"><g><path d="M 9.03125 0.234375 C 8.300781 0.234375 7.679688 0.105469 7.171875 -0.140625 C 6.671875 -0.390625 6.265625 -0.695312 5.953125 -1.0625 C 5.640625 -1.425781 5.398438 -1.785156 5.234375 -2.140625 L 5.0625 -2.140625 L 5.0625 0 L 1.53125 0 L 1.53125 -17.84375 L 5.125 -17.84375 L 5.125 -11.125 L 5.234375 -11.125 C 5.390625 -11.476562 5.617188 -11.84375 5.921875 -12.21875 C 6.234375 -12.59375 6.640625 -12.90625 7.140625 -13.15625 C 7.648438 -13.414062 8.285156 -13.546875 9.046875 -13.546875 C 10.035156 -13.546875 10.941406 -13.289062 11.765625 -12.78125 C 12.585938 -12.269531 13.242188 -11.503906 13.734375 -10.484375 C 14.222656 -9.460938 14.46875 -8.191406 14.46875 -6.671875 C 14.46875 -5.179688 14.226562 -3.921875 13.75 -2.890625 C 13.269531 -1.867188 12.617188 -1.09375 11.796875 -0.5625 C 10.972656 -0.03125 10.050781 0.234375 9.03125 0.234375 Z M 7.921875 -2.65625 C 8.859375 -2.65625 9.570312 -3.03125 10.0625 -3.78125 C 10.550781 -4.53125 10.796875 -5.492188 10.796875 -6.671875 C 10.796875 -7.847656 10.550781 -8.804688 10.0625 -9.546875 C 9.582031 -10.296875 8.867188 -10.671875 7.921875 -10.671875 C 6.992188 -10.671875 6.28125 -10.304688 5.78125 -9.578125 C 5.289062 -8.859375 5.046875 -7.890625 5.046875 -6.671875 C 5.046875 -5.460938 5.296875 -4.488281 5.796875 -3.75 C 6.296875 -3.019531 7.003906 -2.65625 7.921875 -2.65625 Z M 7.921875 -2.65625 "/></g></g><g transform="translate(109.406513, 22.953529)"><g><path d="M 5.125 -17.84375 L 5.125 0 L 1.53125 0 L 1.53125 -17.84375 Z M 5.125 -17.84375 "/></g></g><g transform="translate(116.050214, 22.953529)"><g><path d="M 7.578125 0.265625 C 6.210938 0.265625 5.035156 -0.0078125 4.046875 -0.5625 C 3.054688 -1.125 2.296875 -1.921875 1.765625 -2.953125 C 1.234375 -3.984375 0.96875 -5.207031 0.96875 -6.625 C 0.96875 -8 1.234375 -9.203125 1.765625 -10.234375 C 2.296875 -11.273438 3.039062 -12.085938 4 -12.671875 C 4.96875 -13.253906 6.097656 -13.546875 7.390625 -13.546875 C 8.554688 -13.546875 9.613281 -13.296875 10.5625 -12.796875 C 11.519531 -12.304688 12.28125 -11.554688 12.84375 -10.546875 C 13.40625 -9.546875 13.6875 -8.285156 13.6875 -6.765625 L 13.6875 -5.765625 L 4.53125 -5.765625 C 4.5625 -4.671875 4.859375 -3.84375 5.421875 -3.28125 C 5.992188 -2.71875 6.734375 -2.4375 7.640625 -2.4375 C 8.265625 -2.4375 8.800781 -2.570312 9.25 -2.84375 C 9.707031 -3.113281 10.03125 -3.503906 10.21875 -4.015625 L 13.484375 -3.40625 C 13.148438 -2.300781 12.46875 -1.410156 11.4375 -0.734375 C 10.414062 -0.0664062 9.128906 0.265625 7.578125 0.265625 Z M 4.546875 -8.015625 L 10.21875 -8.015625 C 10.132812 -8.878906 9.851562 -9.566406 9.375 -10.078125 C 8.90625 -10.585938 8.257812 -10.84375 7.4375 -10.84375 C 6.570312 -10.84375 5.890625 -10.578125 5.390625 -10.046875 C 4.898438 -9.515625 4.617188 -8.835938 4.546875 -8.015625 Z M 4.546875 -8.015625 "/></g></g><g transform="translate(130.654385, 22.953529)"><g/></g><g transform="translate(136.460142, 22.953529)"><g><path d="M 1.609375 0 L 1.609375 -17.84375 L 7.21875 -17.84375 L 10.109375 -9.640625 C 10.234375 -9.265625 10.367188 -8.773438 10.515625 -8.171875 C 10.671875 -7.566406 10.828125 -6.914062 10.984375 -6.21875 C 11.148438 -5.519531 11.300781 -4.847656 11.4375 -4.203125 C 11.570312 -4.835938 11.71875 -5.503906 11.875 -6.203125 C 12.039062 -6.898438 12.195312 -7.550781 12.34375 -8.15625 C 12.5 -8.769531 12.640625 -9.265625 12.765625 -9.640625 L 15.609375 -17.84375 L 21.234375 -17.84375 L 21.234375 0 L 17.5625 0 L 17.5625 -8.421875 C 17.5625 -8.859375 17.570312 -9.425781 17.59375 -10.125 C 17.613281 -10.820312 17.632812 -11.566406 17.65625 -12.359375 C 17.675781 -13.160156 17.6875 -13.9375 17.6875 -14.6875 C 17.488281 -13.882812 17.28125 -13.082031 17.0625 -12.28125 C 16.84375 -11.476562 16.632812 -10.738281 16.4375 -10.0625 C 16.238281 -9.382812 16.066406 -8.835938 15.921875 -8.421875 L 12.96875 0 L 9.890625 0 L 6.890625 -8.421875 C 6.742188 -8.828125 6.570312 -9.351562 6.375 -10 C 6.1875 -10.65625 5.976562 -11.375 5.75 -12.15625 C 5.53125 -12.945312 5.316406 -13.742188 5.109375 -14.546875 C 5.128906 -13.828125 5.144531 -13.078125 5.15625 -12.296875 C 5.175781 -11.515625 5.195312 -10.78125 5.21875 -10.09375 C 5.238281 -9.414062 5.25 -8.859375 5.25 -8.421875 L 5.25 0 Z M 1.609375 0 "/></g></g><g transform="translate(159.300108, 22.953529)"><g><path d="M 7.515625 0.265625 C 6.171875 0.265625 5.007812 -0.0195312 4.03125 -0.59375 C 3.050781 -1.175781 2.296875 -1.984375 1.765625 -3.015625 C 1.234375 -4.054688 0.96875 -5.257812 0.96875 -6.625 C 0.96875 -8.007812 1.234375 -9.21875 1.765625 -10.25 C 2.296875 -11.289062 3.050781 -12.097656 4.03125 -12.671875 C 5.007812 -13.253906 6.171875 -13.546875 7.515625 -13.546875 C 8.859375 -13.546875 10.019531 -13.253906 11 -12.671875 C 11.976562 -12.097656 12.734375 -11.289062 13.265625 -10.25 C 13.796875 -9.21875 14.0625 -8.007812 14.0625 -6.625 C 14.0625 -5.257812 13.796875 -4.054688 13.265625 -3.015625 C 12.734375 -1.984375 11.976562 -1.175781 11 -0.59375 C 10.019531 -0.0195312 8.859375 0.265625 7.515625 0.265625 Z M 7.515625 -2.5625 C 8.472656 -2.5625 9.195312 -2.945312 9.6875 -3.71875 C 10.175781 -4.5 10.421875 -5.472656 10.421875 -6.640625 C 10.421875 -7.828125 10.175781 -8.800781 9.6875 -9.5625 C 9.195312 -10.332031 8.472656 -10.71875 7.515625 -10.71875 C 6.554688 -10.71875 5.832031 -10.332031 5.34375 -9.5625 C 4.863281 -8.800781 4.625 -7.828125 4.625 -6.640625 C 4.625 -5.472656 4.863281 -4.5 5.34375 -3.71875 C 5.832031 -2.945312 6.554688 -2.5625 7.515625 -2.5625 Z M 7.515625 -2.5625 "/></g></g><g transform="translate(174.335223, 22.953529)"><g><path d="M 6.421875 0.234375 C 5.398438 0.234375 4.476562 -0.03125 3.65625 -0.5625 C 2.832031 -1.09375 2.175781 -1.867188 1.6875 -2.890625 C 1.207031 -3.921875 0.96875 -5.179688 0.96875 -6.671875 C 0.96875 -8.191406 1.210938 -9.460938 1.703125 -10.484375 C 2.203125 -11.503906 2.863281 -12.269531 3.6875 -12.78125 C 4.507812 -13.289062 5.414062 -13.546875 6.40625 -13.546875 C 7.164062 -13.546875 7.796875 -13.414062 8.296875 -13.15625 C 8.796875 -12.90625 9.195312 -12.59375 9.5 -12.21875 C 9.8125 -11.84375 10.046875 -11.476562 10.203125 -11.125 L 10.328125 -11.125 L 10.328125 -17.84375 L 13.921875 -17.84375 L 13.921875 0 L 10.390625 0 L 10.390625 -2.140625 L 10.203125 -2.140625 C 10.035156 -1.785156 9.796875 -1.425781 9.484375 -1.0625 C 9.179688 -0.695312 8.773438 -0.390625 8.265625 -0.140625 C 7.765625 0.105469 7.148438 0.234375 6.421875 0.234375 Z M 7.53125 -2.65625 C 8.4375 -2.65625 9.140625 -3.019531 9.640625 -3.75 C 10.148438 -4.488281 10.40625 -5.460938 10.40625 -6.671875 C 10.40625 -7.890625 10.15625 -8.859375 9.65625 -9.578125 C 9.15625 -10.304688 8.445312 -10.671875 7.53125 -10.671875 C 6.582031 -10.671875 5.863281 -10.296875 5.375 -9.546875 C 4.894531 -8.804688 4.65625 -7.847656 4.65625 -6.671875 C 4.65625 -5.492188 4.898438 -4.53125 5.390625 -3.78125 C 5.878906 -3.03125 6.59375 -2.65625 7.53125 -2.65625 Z M 7.53125 -2.65625 "/></g></g><g transform="translate(189.789309, 22.953529)"><g><path d="M 7.578125 0.265625 C 6.210938 0.265625 5.035156 -0.0078125 4.046875 -0.5625 C 3.054688 -1.125 2.296875 -1.921875 1.765625 -2.953125 C 1.234375 -3.984375 0.96875 -5.207031 0.96875 -6.625 C 0.96875 -8 1.234375 -9.203125 1.765625 -10.234375 C 2.296875 -11.273438 3.039062 -12.085938 4 -12.671875 C 4.96875 -13.253906 6.097656 -13.546875 7.390625 -13.546875 C 8.554688 -13.546875 9.613281 -13.296875 10.5625 -12.796875 C 11.519531 -12.304688 12.28125 -11.554688 12.84375 -10.546875 C 13.40625 -9.546875 13.6875 -8.285156 13.6875 -6.765625 L 13.6875 -5.765625 L 4.53125 -5.765625 C 4.5625 -4.671875 4.859375 -3.84375 5.421875 -3.28125 C 5.992188 -2.71875 6.734375 -2.4375 7.640625 -2.4375 C 8.265625 -2.4375 8.800781 -2.570312 9.25 -2.84375 C 9.707031 -3.113281 10.03125 -3.503906 10.21875 -4.015625 L 13.484375 -3.40625 C 13.148438 -2.300781 12.46875 -1.410156 11.4375 -0.734375 C 10.414062 -0.0664062 9.128906 0.265625 7.578125 0.265625 Z M 4.546875 -8.015625 L 10.21875 -8.015625 C 10.132812 -8.878906 9.851562 -9.566406 9.375 -10.078125 C 8.90625 -10.585938 8.257812 -10.84375 7.4375 -10.84375 C 6.570312 -10.84375 5.890625 -10.578125 5.390625 -10.046875 C 4.898438 -9.515625 4.617188 -8.835938 4.546875 -8.015625 Z M 4.546875 -8.015625 "/></g></g></g></g></g><g transform="matrix(1, 0, 0, 1, 21, 43)"><g clip-path="url(#815370285c)"><g clip-path="url(#359c6188f2)"><g fill="#8b8b8b" fill-opacity="1"><g transform="translate(0.10267, 9.74087)"><g><path d="M 3.984375 0.109375 C 3.316406 0.109375 2.734375 -0.0507812 2.234375 -0.375 C 1.742188 -0.695312 1.359375 -1.144531 1.078125 -1.71875 C 0.804688 -2.300781 0.671875 -2.988281 0.671875 -3.78125 C 0.671875 -4.570312 0.804688 -5.257812 1.078125 -5.84375 C 1.359375 -6.425781 1.742188 -6.875 2.234375 -7.1875 C 2.722656 -7.507812 3.285156 -7.671875 3.921875 -7.671875 C 4.472656 -7.671875 4.960938 -7.554688 5.390625 -7.328125 C 5.816406 -7.097656 6.164062 -6.796875 6.4375 -6.421875 C 6.707031 -6.054688 6.882812 -5.648438 6.96875 -5.203125 L 6.21875 -5.203125 C 6.132812 -5.535156 5.988281 -5.835938 5.78125 -6.109375 C 5.582031 -6.378906 5.328125 -6.59375 5.015625 -6.75 C 4.703125 -6.914062 4.34375 -7 3.9375 -7 C 3.445312 -7 3.003906 -6.867188 2.609375 -6.609375 C 2.222656 -6.359375 1.914062 -5.992188 1.6875 -5.515625 C 1.46875 -5.035156 1.359375 -4.457031 1.359375 -3.78125 C 1.359375 -3.113281 1.46875 -2.539062 1.6875 -2.0625 C 1.914062 -1.582031 2.226562 -1.210938 2.625 -0.953125 C 3.019531 -0.703125 3.472656 -0.578125 3.984375 -0.578125 C 4.441406 -0.578125 4.84375 -0.675781 5.1875 -0.875 C 5.539062 -1.070312 5.8125 -1.351562 6 -1.71875 C 6.195312 -2.09375 6.300781 -2.53125 6.3125 -3.03125 L 4.125 -3.03125 L 4.125 -3.671875 L 7.015625 -3.671875 L 7.015625 -3.046875 C 7.015625 -2.410156 6.882812 -1.851562 6.625 -1.375 C 6.375 -0.90625 6.019531 -0.539062 5.5625 -0.28125 C 5.101562 -0.0195312 4.578125 0.109375 3.984375 0.109375 Z M 3.984375 0.109375 "/></g></g></g></g><g fill="#8b8b8b" fill-opacity="1"><g transform="translate(7.833225, 9.74087)"><g><path d="M 3.171875 0.125 C 2.640625 0.125 2.175781 0 1.78125 -0.25 C 1.394531 -0.5 1.097656 -0.84375 0.890625 -1.28125 C 0.679688 -1.726562 0.578125 -2.238281 0.578125 -2.8125 C 0.578125 -3.375 0.679688 -3.878906 0.890625 -4.328125 C 1.097656 -4.773438 1.390625 -5.125 1.765625 -5.375 C 2.140625 -5.625 2.570312 -5.75 3.0625 -5.75 C 3.476562 -5.75 3.867188 -5.644531 4.234375 -5.4375 C 4.609375 -5.238281 4.910156 -4.929688 5.140625 -4.515625 C 5.367188 -4.097656 5.484375 -3.570312 5.484375 -2.9375 L 5.484375 -2.625 L 1.265625 -2.625 C 1.285156 -1.976562 1.460938 -1.460938 1.796875 -1.078125 C 2.140625 -0.691406 2.597656 -0.5 3.171875 -0.5 C 3.566406 -0.5 3.890625 -0.585938 4.140625 -0.765625 C 4.398438 -0.953125 4.582031 -1.171875 4.6875 -1.421875 L 5.34375 -1.21875 C 5.21875 -0.863281 4.96875 -0.550781 4.59375 -0.28125 C 4.21875 -0.0078125 3.742188 0.125 3.171875 0.125 Z M 1.265625 -3.21875 L 4.78125 -3.21875 C 4.75 -3.78125 4.582031 -4.238281 4.28125 -4.59375 C 3.976562 -4.957031 3.570312 -5.140625 3.0625 -5.140625 C 2.71875 -5.140625 2.414062 -5.050781 2.15625 -4.875 C 1.894531 -4.707031 1.6875 -4.476562 1.53125 -4.1875 C 1.375 -3.894531 1.285156 -3.570312 1.265625 -3.21875 Z M 1.265625 -3.21875 "/></g></g></g><g fill="#8b8b8b" fill-opacity="1"><g transform="translate(13.858288, 9.74087)"><g><path d="M 2.09375 0 L 0.390625 -5.6875 L 1.109375 -5.6875 L 1.984375 -2.625 C 2.054688 -2.351562 2.132812 -2.0625 2.21875 -1.75 C 2.300781 -1.4375 2.382812 -1.09375 2.46875 -0.71875 C 2.550781 -1.082031 2.628906 -1.421875 2.703125 -1.734375 C 2.785156 -2.046875 2.867188 -2.34375 2.953125 -2.625 L 3.875 -5.6875 L 4.625 -5.6875 L 5.53125 -2.625 C 5.613281 -2.34375 5.691406 -2.046875 5.765625 -1.734375 C 5.847656 -1.429688 5.929688 -1.09375 6.015625 -0.71875 C 6.097656 -1.082031 6.175781 -1.421875 6.25 -1.734375 C 6.332031 -2.046875 6.414062 -2.34375 6.5 -2.625 L 7.375 -5.6875 L 8.09375 -5.6875 L 6.390625 0 L 5.6875 0 L 4.703125 -3.171875 C 4.628906 -3.453125 4.550781 -3.734375 4.46875 -4.015625 C 4.394531 -4.304688 4.320312 -4.601562 4.25 -4.90625 C 4.164062 -4.601562 4.082031 -4.304688 4 -4.015625 C 3.925781 -3.734375 3.851562 -3.453125 3.78125 -3.171875 L 2.8125 0 Z M 2.09375 0 "/></g></g></g><g fill="#8b8b8b" fill-opacity="1"><g transform="translate(22.329921, 9.74087)"><g><path d="M 0.875 0 L 0.875 -5.6875 L 1.5625 -5.6875 L 1.5625 0 Z M 1.21875 -6.734375 C 1.070312 -6.734375 0.953125 -6.78125 0.859375 -6.875 C 0.765625 -6.96875 0.71875 -7.082031 0.71875 -7.21875 C 0.71875 -7.34375 0.765625 -7.453125 0.859375 -7.546875 C 0.953125 -7.648438 1.070312 -7.703125 1.21875 -7.703125 C 1.351562 -7.703125 1.46875 -7.648438 1.5625 -7.546875 C 1.664062 -7.453125 1.71875 -7.34375 1.71875 -7.21875 C 1.71875 -7.082031 1.664062 -6.96875 1.5625 -6.875 C 1.46875 -6.78125 1.351562 -6.734375 1.21875 -6.734375 Z M 1.21875 -6.734375 "/></g></g></g><g fill="#8b8b8b" fill-opacity="1"><g transform="translate(24.756187, 9.74087)"><g><path d="M 1.5625 -3.546875 L 1.5625 0 L 0.875 0 L 0.875 -5.6875 L 1.53125 -5.6875 L 1.546875 -4.640625 C 1.710938 -5.023438 1.953125 -5.304688 2.265625 -5.484375 C 2.578125 -5.660156 2.925781 -5.75 3.3125 -5.75 C 3.882812 -5.75 4.347656 -5.570312 4.703125 -5.21875 C 5.066406 -4.863281 5.25 -4.347656 5.25 -3.671875 L 5.25 0 L 4.5625 0 L 4.5625 -3.625 C 4.5625 -4.082031 4.429688 -4.445312 4.171875 -4.71875 C 3.910156 -4.988281 3.5625 -5.125 3.125 -5.125 C 2.675781 -5.125 2.300781 -4.976562 2 -4.6875 C 1.707031 -4.40625 1.5625 -4.023438 1.5625 -3.546875 Z M 1.5625 -3.546875 "/></g></g></g><g fill="#8b8b8b" fill-opacity="1"><g transform="translate(30.872616, 9.74087)"><g><path d="M 1.5625 -3.546875 L 1.5625 0 L 0.875 0 L 0.875 -5.6875 L 1.53125 -5.6875 L 1.546875 -4.640625 C 1.710938 -5.023438 1.953125 -5.304688 2.265625 -5.484375 C 2.578125 -5.660156 2.925781 -5.75 3.3125 -5.75 C 3.882812 -5.75 4.347656 -5.570312 4.703125 -5.21875 C 5.066406 -4.863281 5.25 -4.347656 5.25 -3.671875 L 5.25 0 L 4.5625 0 L 4.5625 -3.625 C 4.5625 -4.082031 4.429688 -4.445312 4.171875 -4.71875 C 3.910156 -4.988281 3.5625 -5.125 3.125 -5.125 C 2.675781 -5.125 2.300781 -4.976562 2 -4.6875 C 1.707031 -4.40625 1.5625 -4.023438 1.5625 -3.546875 Z M 1.5625 -3.546875 "/></g></g></g><g fill="#8b8b8b" fill-opacity="1"><g transform="translate(36.989044, 9.74087)"><g><path d="M 3.171875 0.125 C 2.640625 0.125 2.175781 0 1.78125 -0.25 C 1.394531 -0.5 1.097656 -0.84375 0.890625 -1.28125 C 0.679688 -1.726562 0.578125 -2.238281 0.578125 -2.8125 C 0.578125 -3.375 0.679688 -3.878906 0.890625 -4.328125 C 1.097656 -4.773438 1.390625 -5.125 1.765625 -5.375 C 2.140625 -5.625 2.570312 -5.75 3.0625 -5.75 C 3.476562 -5.75 3.867188 -5.644531 4.234375 -5.4375 C 4.609375 -5.238281 4.910156 -4.929688 5.140625 -4.515625 C 5.367188 -4.097656 5.484375 -3.570312 5.484375 -2.9375 L 5.484375 -2.625 L 1.265625 -2.625 C 1.285156 -1.976562 1.460938 -1.460938 1.796875 -1.078125 C 2.140625 -0.691406 2.597656 -0.5 3.171875 -0.5 C 3.566406 -0.5 3.890625 -0.585938 4.140625 -0.765625 C 4.398438 -0.953125 4.582031 -1.171875 4.6875 -1.421875 L 5.34375 -1.21875 C 5.21875 -0.863281 4.96875 -0.550781 4.59375 -0.28125 C 4.21875 -0.0078125 3.742188 0.125 3.171875 0.125 Z M 1.265625 -3.21875 L 4.78125 -3.21875 C 4.75 -3.78125 4.582031 -4.238281 4.28125 -4.59375 C 3.976562 -4.957031 3.570312 -5.140625 3.0625 -5.140625 C 2.71875 -5.140625 2.414062 -5.050781 2.15625 -4.875 C 1.894531 -4.707031 1.6875 -4.476562 1.53125 -4.1875 C 1.375 -3.894531 1.285156 -3.570312 1.265625 -3.21875 Z M 1.265625 -3.21875 "/></g></g></g><g fill="#8b8b8b" fill-opacity="1"><g transform="translate(43.014107, 9.74087)"><g/></g></g><g fill="#8b8b8b" fill-opacity="1"><g transform="translate(45.937809, 9.74087)"><g><path d="M 0.703125 0 L 0.703125 -0.53125 L 3.953125 -4.984375 L 3.953125 -5.03125 L 0.828125 -5.03125 L 0.828125 -5.6875 L 4.828125 -5.6875 L 4.828125 -5.109375 L 1.640625 -0.6875 L 1.640625 -0.640625 L 4.953125 -0.640625 L 4.953125 0 Z M 0.703125 0 "/></g></g></g><g fill="#8b8b8b" fill-opacity="1"><g transform="translate(51.577105, 9.74087)"><g><path d="M 2.8125 0.078125 C 2.238281 0.078125 1.769531 -0.0976562 1.40625 -0.453125 C 1.050781 -0.816406 0.875 -1.332031 0.875 -2 L 0.875 -5.6875 L 1.5625 -5.6875 L 1.5625 -2.0625 C 1.5625 -1.59375 1.691406 -1.222656 1.953125 -0.953125 C 2.210938 -0.679688 2.5625 -0.546875 3 -0.546875 C 3.445312 -0.546875 3.816406 -0.6875 4.109375 -0.96875 C 4.410156 -1.257812 4.5625 -1.648438 4.5625 -2.140625 L 4.5625 -5.6875 L 5.265625 -5.6875 L 5.265625 0 L 4.59375 0 L 4.59375 -1.046875 C 4.414062 -0.648438 4.171875 -0.363281 3.859375 -0.1875 C 3.546875 -0.0078125 3.195312 0.078125 2.8125 0.078125 Z M 2.8125 0.078125 "/></g></g></g><g fill="#8b8b8b" fill-opacity="1"><g transform="translate(57.698605, 9.74087)"><g><path d="M 3.171875 0.125 C 2.640625 0.125 2.175781 0 1.78125 -0.25 C 1.394531 -0.5 1.097656 -0.84375 0.890625 -1.28125 C 0.679688 -1.726562 0.578125 -2.238281 0.578125 -2.8125 C 0.578125 -3.375 0.679688 -3.878906 0.890625 -4.328125 C 1.097656 -4.773438 1.390625 -5.125 1.765625 -5.375 C 2.140625 -5.625 2.570312 -5.75 3.0625 -5.75 C 3.476562 -5.75 3.867188 -5.644531 4.234375 -5.4375 C 4.609375 -5.238281 4.910156 -4.929688 5.140625 -4.515625 C 5.367188 -4.097656 5.484375 -3.570312 5.484375 -2.9375 L 5.484375 -2.625 L 1.265625 -2.625 C 1.285156 -1.976562 1.460938 -1.460938 1.796875 -1.078125 C 2.140625 -0.691406 2.597656 -0.5 3.171875 -0.5 C 3.566406 -0.5 3.890625 -0.585938 4.140625 -0.765625 C 4.398438 -0.953125 4.582031 -1.171875 4.6875 -1.421875 L 5.34375 -1.21875 C 5.21875 -0.863281 4.96875 -0.550781 4.59375 -0.28125 C 4.21875 -0.0078125 3.742188 0.125 3.171875 0.125 Z M 1.265625 -3.21875 L 4.78125 -3.21875 C 4.75 -3.78125 4.582031 -4.238281 4.28125 -4.59375 C 3.976562 -4.957031 3.570312 -5.140625 3.0625 -5.140625 C 2.71875 -5.140625 2.414062 -5.050781 2.15625 -4.875 C 1.894531 -4.707031 1.6875 -4.476562 1.53125 -4.1875 C 1.375 -3.894531 1.285156 -3.570312 1.265625 -3.21875 Z M 1.265625 -3.21875 "/></g></g></g><g fill="#8b8b8b" fill-opacity="1"><g transform="translate(63.723668, 9.74087)"><g><path d="M 0.875 0 L 0.875 -5.6875 L 1.546875 -5.6875 L 1.546875 -4.796875 L 1.59375 -4.796875 C 1.707031 -5.085938 1.90625 -5.316406 2.1875 -5.484375 C 2.46875 -5.660156 2.785156 -5.75 3.140625 -5.75 C 3.191406 -5.75 3.25 -5.75 3.3125 -5.75 C 3.382812 -5.75 3.441406 -5.75 3.484375 -5.75 L 3.484375 -5.0625 C 3.460938 -5.0625 3.410156 -5.066406 3.328125 -5.078125 C 3.253906 -5.085938 3.171875 -5.09375 3.078125 -5.09375 C 2.640625 -5.09375 2.273438 -4.953125 1.984375 -4.671875 C 1.703125 -4.398438 1.5625 -4.054688 1.5625 -3.640625 L 1.5625 0 Z M 0.875 0 "/></g></g></g><g fill="#8b8b8b" fill-opacity="1"><g transform="translate(67.459509, 9.74087)"><g><path d="M 2.671875 0.125 C 2.117188 0.125 1.660156 0 1.296875 -0.25 C 0.929688 -0.507812 0.695312 -0.878906 0.59375 -1.359375 L 1.25 -1.515625 C 1.332031 -1.171875 1.492188 -0.914062 1.734375 -0.75 C 1.984375 -0.582031 2.296875 -0.5 2.671875 -0.5 C 3.097656 -0.5 3.441406 -0.59375 3.703125 -0.78125 C 3.960938 -0.976562 4.09375 -1.21875 4.09375 -1.5 C 4.09375 -1.957031 3.785156 -2.265625 3.171875 -2.421875 L 2.234375 -2.640625 C 1.265625 -2.878906 0.78125 -3.382812 0.78125 -4.15625 C 0.78125 -4.46875 0.863281 -4.742188 1.03125 -4.984375 C 1.207031 -5.222656 1.441406 -5.410156 1.734375 -5.546875 C 2.035156 -5.679688 2.378906 -5.75 2.765625 -5.75 C 3.304688 -5.75 3.734375 -5.628906 4.046875 -5.390625 C 4.359375 -5.148438 4.578125 -4.828125 4.703125 -4.421875 L 4.078125 -4.25 C 3.992188 -4.507812 3.847656 -4.722656 3.640625 -4.890625 C 3.429688 -5.066406 3.144531 -5.15625 2.78125 -5.15625 C 2.394531 -5.15625 2.082031 -5.0625 1.84375 -4.875 C 1.601562 -4.695312 1.484375 -4.46875 1.484375 -4.1875 C 1.484375 -3.71875 1.820312 -3.40625 2.5 -3.25 L 3.359375 -3.03125 C 4.316406 -2.800781 4.796875 -2.304688 4.796875 -1.546875 C 4.796875 -1.222656 4.707031 -0.9375 4.53125 -0.6875 C 4.351562 -0.4375 4.101562 -0.238281 3.78125 -0.09375 C 3.457031 0.0507812 3.085938 0.125 2.671875 0.125 Z M 2.671875 0.125 "/></g></g></g><g fill="#8b8b8b" fill-opacity="1"><g transform="translate(72.824709, 9.74087)"><g><path d="M 2.796875 -5.6875 L 2.796875 -5.078125 L 1.625 -5.078125 L 1.625 -1.34375 C 1.625 -0.769531 1.878906 -0.507812 2.390625 -0.5625 C 2.429688 -0.5625 2.484375 -0.566406 2.546875 -0.578125 C 2.617188 -0.585938 2.6875 -0.601562 2.75 -0.625 L 2.890625 -0.03125 C 2.742188 0.0195312 2.570312 0.0507812 2.375 0.0625 C 1.925781 0.09375 1.570312 -0.015625 1.3125 -0.265625 C 1.0625 -0.515625 0.9375 -0.859375 0.9375 -1.296875 L 0.9375 -5.078125 L 0.09375 -5.078125 L 0.09375 -5.6875 L 0.9375 -5.6875 L 0.9375 -7.03125 L 1.625 -7.03125 L 1.625 -5.6875 Z M 2.796875 -5.6875 "/></g></g></g><g fill="#8b8b8b" fill-opacity="1"><g transform="translate(75.92607, 9.74087)"><g/></g></g><g fill="#8b8b8b" fill-opacity="1"><g transform="translate(78.849772, 9.74087)"><g><path d="M 2.90625 0.125 C 2.4375 0.125 2.023438 0.00390625 1.671875 -0.234375 C 1.328125 -0.484375 1.054688 -0.828125 0.859375 -1.265625 C 0.671875 -1.710938 0.578125 -2.234375 0.578125 -2.828125 C 0.578125 -3.410156 0.671875 -3.921875 0.859375 -4.359375 C 1.054688 -4.796875 1.332031 -5.132812 1.6875 -5.375 C 2.039062 -5.625 2.445312 -5.75 2.90625 -5.75 C 3.25 -5.75 3.535156 -5.6875 3.765625 -5.5625 C 3.992188 -5.445312 4.175781 -5.296875 4.3125 -5.109375 C 4.457031 -4.929688 4.570312 -4.757812 4.65625 -4.59375 L 4.703125 -4.59375 L 4.703125 -7.578125 L 5.390625 -7.578125 L 5.390625 0 L 4.71875 0 L 4.71875 -1.0625 L 4.65625 -1.0625 C 4.570312 -0.882812 4.457031 -0.703125 4.3125 -0.515625 C 4.175781 -0.335938 3.992188 -0.1875 3.765625 -0.0625 C 3.535156 0.0585938 3.25 0.125 2.90625 0.125 Z M 3 -0.5 C 3.363281 -0.5 3.671875 -0.597656 3.921875 -0.796875 C 4.179688 -1.003906 4.375 -1.28125 4.5 -1.625 C 4.632812 -1.976562 4.703125 -2.378906 4.703125 -2.828125 C 4.703125 -3.273438 4.632812 -3.671875 4.5 -4.015625 C 4.375 -4.367188 4.179688 -4.640625 3.921875 -4.828125 C 3.671875 -5.023438 3.363281 -5.125 3 -5.125 C 2.625 -5.125 2.304688 -5.019531 2.046875 -4.8125 C 1.796875 -4.613281 1.601562 -4.34375 1.46875 -4 C 1.332031 -3.65625 1.265625 -3.265625 1.265625 -2.828125 C 1.265625 -2.390625 1.332031 -1.992188 1.46875 -1.640625 C 1.601562 -1.296875 1.796875 -1.019531 2.046875 -0.8125 C 2.304688 -0.601562 2.625 -0.5 3 -0.5 Z M 3 -0.5 "/></g></g></g><g fill="#8b8b8b" fill-opacity="1"><g transform="translate(85.108325, 9.74087)"><g><path d="M 0.875 0 L 0.875 -5.6875 L 1.5625 -5.6875 L 1.5625 0 Z M 1.21875 -6.734375 C 1.070312 -6.734375 0.953125 -6.78125 0.859375 -6.875 C 0.765625 -6.96875 0.71875 -7.082031 0.71875 -7.21875 C 0.71875 -7.34375 0.765625 -7.453125 0.859375 -7.546875 C 0.953125 -7.648438 1.070312 -7.703125 1.21875 -7.703125 C 1.351562 -7.703125 1.46875 -7.648438 1.5625 -7.546875 C 1.664062 -7.453125 1.71875 -7.34375 1.71875 -7.21875 C 1.71875 -7.082031 1.664062 -6.96875 1.5625 -6.875 C 1.46875 -6.78125 1.351562 -6.734375 1.21875 -6.734375 Z M 1.21875 -6.734375 "/></g></g></g><g fill="#8b8b8b" fill-opacity="1"><g transform="translate(87.534591, 9.74087)"><g><path d="M 3.171875 0.125 C 2.640625 0.125 2.175781 0 1.78125 -0.25 C 1.394531 -0.5 1.097656 -0.84375 0.890625 -1.28125 C 0.679688 -1.726562 0.578125 -2.238281 0.578125 -2.8125 C 0.578125 -3.375 0.679688 -3.878906 0.890625 -4.328125 C 1.097656 -4.773438 1.390625 -5.125 1.765625 -5.375 C 2.140625 -5.625 2.570312 -5.75 3.0625 -5.75 C 3.476562 -5.75 3.867188 -5.644531 4.234375 -5.4375 C 4.609375 -5.238281 4.910156 -4.929688 5.140625 -4.515625 C 5.367188 -4.097656 5.484375 -3.570312 5.484375 -2.9375 L 5.484375 -2.625 L 1.265625 -2.625 C 1.285156 -1.976562 1.460938 -1.460938 1.796875 -1.078125 C 2.140625 -0.691406 2.597656 -0.5 3.171875 -0.5 C 3.566406 -0.5 3.890625 -0.585938 4.140625 -0.765625 C 4.398438 -0.953125 4.582031 -1.171875 4.6875 -1.421875 L 5.34375 -1.21875 C 5.21875 -0.863281 4.96875 -0.550781 4.59375 -0.28125 C 4.21875 -0.0078125 3.742188 0.125 3.171875 0.125 Z M 1.265625 -3.21875 L 4.78125 -3.21875 C 4.75 -3.78125 4.582031 -4.238281 4.28125 -4.59375 C 3.976562 -4.957031 3.570312 -5.140625 3.0625 -5.140625 C 2.71875 -5.140625 2.414062 -5.050781 2.15625 -4.875 C 1.894531 -4.707031 1.6875 -4.476562 1.53125 -4.1875 C 1.375 -3.894531 1.285156 -3.570312 1.265625 -3.21875 Z M 1.265625 -3.21875 "/></g></g></g><g fill="#8b8b8b" fill-opacity="1"><g transform="translate(93.559654, 9.74087)"><g/></g></g><g fill="#8b8b8b" fill-opacity="1"><g transform="translate(96.483355, 9.74087)"><g><path d="M 3.28125 0.125 C 2.5 0.125 1.875 -0.0625 1.40625 -0.4375 C 0.945312 -0.8125 0.695312 -1.304688 0.65625 -1.921875 L 1.390625 -1.921875 C 1.429688 -1.460938 1.628906 -1.113281 1.984375 -0.875 C 2.347656 -0.644531 2.78125 -0.53125 3.28125 -0.53125 C 3.65625 -0.53125 3.984375 -0.59375 4.265625 -0.71875 C 4.554688 -0.84375 4.785156 -1.015625 4.953125 -1.234375 C 5.117188 -1.460938 5.203125 -1.726562 5.203125 -2.03125 C 5.203125 -2.40625 5.054688 -2.691406 4.765625 -2.890625 C 4.484375 -3.097656 4.109375 -3.269531 3.640625 -3.40625 L 2.734375 -3.671875 C 2.128906 -3.847656 1.664062 -4.09375 1.34375 -4.40625 C 1.019531 -4.726562 0.859375 -5.128906 0.859375 -5.609375 C 0.859375 -6.015625 0.96875 -6.375 1.1875 -6.6875 C 1.40625 -7 1.703125 -7.238281 2.078125 -7.40625 C 2.453125 -7.582031 2.875 -7.671875 3.34375 -7.671875 C 3.820312 -7.671875 4.242188 -7.582031 4.609375 -7.40625 C 4.972656 -7.238281 5.257812 -7.003906 5.46875 -6.703125 C 5.675781 -6.398438 5.789062 -6.054688 5.8125 -5.671875 L 5.109375 -5.671875 C 5.066406 -6.085938 4.878906 -6.414062 4.546875 -6.65625 C 4.222656 -6.90625 3.816406 -7.03125 3.328125 -7.03125 C 2.804688 -7.03125 2.378906 -6.894531 2.046875 -6.625 C 1.722656 -6.363281 1.5625 -6.035156 1.5625 -5.640625 C 1.5625 -5.378906 1.632812 -5.160156 1.78125 -4.984375 C 1.925781 -4.804688 2.113281 -4.660156 2.34375 -4.546875 C 2.570312 -4.441406 2.8125 -4.351562 3.0625 -4.28125 L 3.84375 -4.046875 C 4.175781 -3.953125 4.5 -3.828125 4.8125 -3.671875 C 5.132812 -3.515625 5.398438 -3.300781 5.609375 -3.03125 C 5.816406 -2.769531 5.921875 -2.429688 5.921875 -2.015625 C 5.921875 -1.609375 5.8125 -1.242188 5.59375 -0.921875 C 5.382812 -0.597656 5.082031 -0.34375 4.6875 -0.15625 C 4.289062 0.0273438 3.820312 0.125 3.28125 0.125 Z M 3.28125 0.125 "/></g></g></g><g fill="#8b8b8b" fill-opacity="1"><g transform="translate(103.051532, 9.74087)"><g><path d="M 2.8125 0.078125 C 2.238281 0.078125 1.769531 -0.0976562 1.40625 -0.453125 C 1.050781 -0.816406 0.875 -1.332031 0.875 -2 L 0.875 -5.6875 L 1.5625 -5.6875 L 1.5625 -2.0625 C 1.5625 -1.59375 1.691406 -1.222656 1.953125 -0.953125 C 2.210938 -0.679688 2.5625 -0.546875 3 -0.546875 C 3.445312 -0.546875 3.816406 -0.6875 4.109375 -0.96875 C 4.410156 -1.257812 4.5625 -1.648438 4.5625 -2.140625 L 4.5625 -5.6875 L 5.265625 -5.6875 L 5.265625 0 L 4.59375 0 L 4.59375 -1.046875 C 4.414062 -0.648438 4.171875 -0.363281 3.859375 -0.1875 C 3.546875 -0.0078125 3.195312 0.078125 2.8125 0.078125 Z M 2.8125 0.078125 "/></g></g></g><g fill="#8b8b8b" fill-opacity="1"><g transform="translate(109.173032, 9.74087)"><g><path d="M 0.875 2.125 L 0.875 -5.6875 L 1.546875 -5.6875 L 1.546875 -4.59375 L 1.609375 -4.59375 C 1.691406 -4.757812 1.800781 -4.929688 1.9375 -5.109375 C 2.070312 -5.296875 2.253906 -5.445312 2.484375 -5.5625 C 2.710938 -5.6875 3.003906 -5.75 3.359375 -5.75 C 3.816406 -5.75 4.21875 -5.625 4.5625 -5.375 C 4.914062 -5.132812 5.191406 -4.796875 5.390625 -4.359375 C 5.585938 -3.921875 5.6875 -3.410156 5.6875 -2.828125 C 5.6875 -2.234375 5.585938 -1.710938 5.390625 -1.265625 C 5.203125 -0.828125 4.929688 -0.484375 4.578125 -0.234375 C 4.234375 0.00390625 3.828125 0.125 3.359375 0.125 C 3.015625 0.125 2.726562 0.0585938 2.5 -0.0625 C 2.269531 -0.1875 2.082031 -0.335938 1.9375 -0.515625 C 1.800781 -0.703125 1.691406 -0.882812 1.609375 -1.0625 L 1.5625 -1.0625 L 1.5625 2.125 Z M 3.265625 -0.5 C 3.640625 -0.5 3.953125 -0.601562 4.203125 -0.8125 C 4.460938 -1.019531 4.660156 -1.296875 4.796875 -1.640625 C 4.929688 -1.992188 5 -2.390625 5 -2.828125 C 5 -3.265625 4.929688 -3.65625 4.796875 -4 C 4.660156 -4.34375 4.460938 -4.613281 4.203125 -4.8125 C 3.953125 -5.019531 3.640625 -5.125 3.265625 -5.125 C 2.898438 -5.125 2.585938 -5.023438 2.328125 -4.828125 C 2.078125 -4.640625 1.882812 -4.367188 1.75 -4.015625 C 1.613281 -3.671875 1.546875 -3.273438 1.546875 -2.828125 C 1.546875 -2.378906 1.613281 -1.976562 1.75 -1.625 C 1.882812 -1.28125 2.078125 -1.003906 2.328125 -0.796875 C 2.585938 -0.597656 2.898438 -0.5 3.265625 -0.5 Z M 3.265625 -0.5 "/></g></g></g><g fill="#8b8b8b" fill-opacity="1"><g transform="translate(115.431585, 9.74087)"><g><path d="M 3.171875 0.125 C 2.640625 0.125 2.175781 0 1.78125 -0.25 C 1.394531 -0.5 1.097656 -0.84375 0.890625 -1.28125 C 0.679688 -1.726562 0.578125 -2.238281 0.578125 -2.8125 C 0.578125 -3.375 0.679688 -3.878906 0.890625 -4.328125 C 1.097656 -4.773438 1.390625 -5.125 1.765625 -5.375 C 2.140625 -5.625 2.570312 -5.75 3.0625 -5.75 C 3.476562 -5.75 3.867188 -5.644531 4.234375 -5.4375 C 4.609375 -5.238281 4.910156 -4.929688 5.140625 -4.515625 C 5.367188 -4.097656 5.484375 -3.570312 5.484375 -2.9375 L 5.484375 -2.625 L 1.265625 -2.625 C 1.285156 -1.976562 1.460938 -1.460938 1.796875 -1.078125 C 2.140625 -0.691406 2.597656 -0.5 3.171875 -0.5 C 3.566406 -0.5 3.890625 -0.585938 4.140625 -0.765625 C 4.398438 -0.953125 4.582031 -1.171875 4.6875 -1.421875 L 5.34375 -1.21875 C 5.21875 -0.863281 4.96875 -0.550781 4.59375 -0.28125 C 4.21875 -0.0078125 3.742188 0.125 3.171875 0.125 Z M 1.265625 -3.21875 L 4.78125 -3.21875 C 4.75 -3.78125 4.582031 -4.238281 4.28125 -4.59375 C 3.976562 -4.957031 3.570312 -5.140625 3.0625 -5.140625 C 2.71875 -5.140625 2.414062 -5.050781 2.15625 -4.875 C 1.894531 -4.707031 1.6875 -4.476562 1.53125 -4.1875 C 1.375 -3.894531 1.285156 -3.570312 1.265625 -3.21875 Z M 1.265625 -3.21875 "/></g></g></g><g fill="#8b8b8b" fill-opacity="1"><g transform="translate(121.456648, 9.74087)"><g><path d="M 0.875 0 L 0.875 -5.6875 L 1.546875 -5.6875 L 1.546875 -4.796875 L 1.59375 -4.796875 C 1.707031 -5.085938 1.90625 -5.316406 2.1875 -5.484375 C 2.46875 -5.660156 2.785156 -5.75 3.140625 -5.75 C 3.191406 -5.75 3.25 -5.75 3.3125 -5.75 C 3.382812 -5.75 3.441406 -5.75 3.484375 -5.75 L 3.484375 -5.0625 C 3.460938 -5.0625 3.410156 -5.066406 3.328125 -5.078125 C 3.253906 -5.085938 3.171875 -5.09375 3.078125 -5.09375 C 2.640625 -5.09375 2.273438 -4.953125 1.984375 -4.671875 C 1.703125 -4.398438 1.5625 -4.054688 1.5625 -3.640625 L 1.5625 0 Z M 0.875 0 "/></g></g></g><g fill="#8b8b8b" fill-opacity="1"><g transform="translate(125.192489, 9.74087)"><g><path d="M 1.5625 -7.578125 L 1.5625 0 L 0.875 0 L 0.875 -7.578125 Z M 1.5625 -7.578125 "/></g></g></g><g fill="#8b8b8b" fill-opacity="1"><g transform="translate(127.618755, 9.74087)"><g><path d="M 3.171875 0.125 C 2.640625 0.125 2.175781 0 1.78125 -0.25 C 1.394531 -0.5 1.097656 -0.84375 0.890625 -1.28125 C 0.679688 -1.726562 0.578125 -2.238281 0.578125 -2.8125 C 0.578125 -3.375 0.679688 -3.878906 0.890625 -4.328125 C 1.097656 -4.773438 1.390625 -5.125 1.765625 -5.375 C 2.140625 -5.625 2.570312 -5.75 3.0625 -5.75 C 3.476562 -5.75 3.867188 -5.644531 4.234375 -5.4375 C 4.609375 -5.238281 4.910156 -4.929688 5.140625 -4.515625 C 5.367188 -4.097656 5.484375 -3.570312 5.484375 -2.9375 L 5.484375 -2.625 L 1.265625 -2.625 C 1.285156 -1.976562 1.460938 -1.460938 1.796875 -1.078125 C 2.140625 -0.691406 2.597656 -0.5 3.171875 -0.5 C 3.566406 -0.5 3.890625 -0.585938 4.140625 -0.765625 C 4.398438 -0.953125 4.582031 -1.171875 4.6875 -1.421875 L 5.34375 -1.21875 C 5.21875 -0.863281 4.96875 -0.550781 4.59375 -0.28125 C 4.21875 -0.0078125 3.742188 0.125 3.171875 0.125 Z M 1.265625 -3.21875 L 4.78125 -3.21875 C 4.75 -3.78125 4.582031 -4.238281 4.28125 -4.59375 C 3.976562 -4.957031 3.570312 -5.140625 3.0625 -5.140625 C 2.71875 -5.140625 2.414062 -5.050781 2.15625 -4.875 C 1.894531 -4.707031 1.6875 -4.476562 1.53125 -4.1875 C 1.375 -3.894531 1.285156 -3.570312 1.265625 -3.21875 Z M 1.265625 -3.21875 "/></g></g></g><g fill="#8b8b8b" fill-opacity="1"><g transform="translate(133.643818, 9.74087)"><g><path d="M 2.359375 0.125 C 2.015625 0.125 1.703125 0.0546875 1.421875 -0.078125 C 1.140625 -0.210938 0.914062 -0.40625 0.75 -0.65625 C 0.582031 -0.90625 0.5 -1.21875 0.5 -1.59375 C 0.5 -1.96875 0.585938 -2.265625 0.765625 -2.484375 C 0.953125 -2.703125 1.207031 -2.867188 1.53125 -2.984375 C 1.863281 -3.097656 2.242188 -3.179688 2.671875 -3.234375 C 3.148438 -3.285156 3.515625 -3.332031 3.765625 -3.375 C 4.023438 -3.425781 4.15625 -3.5625 4.15625 -3.78125 L 4.15625 -3.921875 C 4.15625 -4.296875 4.039062 -4.59375 3.8125 -4.8125 C 3.582031 -5.03125 3.253906 -5.140625 2.828125 -5.140625 C 2.421875 -5.140625 2.09375 -5.050781 1.84375 -4.875 C 1.59375 -4.695312 1.414062 -4.488281 1.3125 -4.25 L 0.65625 -4.46875 C 0.78125 -4.78125 0.957031 -5.03125 1.1875 -5.21875 C 1.414062 -5.40625 1.671875 -5.539062 1.953125 -5.625 C 2.234375 -5.707031 2.519531 -5.75 2.8125 -5.75 C 3.039062 -5.75 3.269531 -5.71875 3.5 -5.65625 C 3.738281 -5.601562 3.957031 -5.503906 4.15625 -5.359375 C 4.363281 -5.222656 4.53125 -5.03125 4.65625 -4.78125 C 4.78125 -4.539062 4.84375 -4.234375 4.84375 -3.859375 L 4.84375 0 L 4.171875 0 L 4.171875 -0.90625 L 4.125 -0.90625 C 4 -0.644531 3.785156 -0.40625 3.484375 -0.1875 C 3.191406 0.0195312 2.816406 0.125 2.359375 0.125 Z M 2.46875 -0.484375 C 2.8125 -0.484375 3.109375 -0.5625 3.359375 -0.71875 C 3.617188 -0.875 3.816406 -1.078125 3.953125 -1.328125 C 4.085938 -1.585938 4.15625 -1.875 4.15625 -2.1875 L 4.15625 -2.984375 C 4.09375 -2.921875 3.972656 -2.867188 3.796875 -2.828125 C 3.617188 -2.785156 3.425781 -2.75 3.21875 -2.71875 C 3.007812 -2.6875 2.832031 -2.660156 2.6875 -2.640625 C 2.207031 -2.585938 1.835938 -2.476562 1.578125 -2.3125 C 1.316406 -2.144531 1.1875 -1.894531 1.1875 -1.5625 C 1.1875 -1.21875 1.304688 -0.953125 1.546875 -0.765625 C 1.796875 -0.578125 2.101562 -0.484375 2.46875 -0.484375 Z M 2.46875 -0.484375 "/></g></g></g><g fill="#8b8b8b" fill-opacity="1"><g transform="translate(139.354177, 9.74087)"><g><path d="M 3.046875 2.25 C 2.460938 2.25 1.984375 2.140625 1.609375 1.921875 C 1.242188 1.703125 0.976562 1.425781 0.8125 1.09375 L 1.390625 0.75 C 1.503906 0.96875 1.6875 1.171875 1.9375 1.359375 C 2.195312 1.546875 2.566406 1.640625 3.046875 1.640625 C 3.546875 1.640625 3.945312 1.515625 4.25 1.265625 C 4.550781 1.015625 4.703125 0.628906 4.703125 0.109375 L 4.703125 -1.171875 L 4.640625 -1.171875 C 4.566406 -0.992188 4.457031 -0.816406 4.3125 -0.640625 C 4.164062 -0.472656 3.976562 -0.332031 3.75 -0.21875 C 3.519531 -0.113281 3.238281 -0.0625 2.90625 -0.0625 C 2.445312 -0.0625 2.039062 -0.171875 1.6875 -0.390625 C 1.34375 -0.617188 1.070312 -0.941406 0.875 -1.359375 C 0.675781 -1.773438 0.578125 -2.269531 0.578125 -2.84375 C 0.578125 -3.425781 0.671875 -3.9375 0.859375 -4.375 C 1.054688 -4.8125 1.332031 -5.148438 1.6875 -5.390625 C 2.039062 -5.628906 2.453125 -5.75 2.921875 -5.75 C 3.265625 -5.75 3.550781 -5.6875 3.78125 -5.5625 C 4.007812 -5.445312 4.191406 -5.296875 4.328125 -5.109375 C 4.472656 -4.929688 4.582031 -4.757812 4.65625 -4.59375 L 4.734375 -4.59375 L 4.734375 -5.6875 L 5.40625 -5.6875 L 5.40625 0.140625 C 5.40625 0.617188 5.300781 1.015625 5.09375 1.328125 C 4.882812 1.640625 4.601562 1.867188 4.25 2.015625 C 3.894531 2.171875 3.492188 2.25 3.046875 2.25 Z M 3 -0.6875 C 3.539062 -0.6875 3.960938 -0.878906 4.265625 -1.265625 C 4.566406 -1.648438 4.71875 -2.179688 4.71875 -2.859375 C 4.71875 -3.296875 4.648438 -3.6875 4.515625 -4.03125 C 4.378906 -4.375 4.1875 -4.640625 3.9375 -4.828125 C 3.6875 -5.023438 3.375 -5.125 3 -5.125 C 2.625 -5.125 2.304688 -5.023438 2.046875 -4.828125 C 1.796875 -4.628906 1.601562 -4.359375 1.46875 -4.015625 C 1.332031 -3.671875 1.265625 -3.285156 1.265625 -2.859375 C 1.265625 -2.210938 1.414062 -1.6875 1.71875 -1.28125 C 2.019531 -0.882812 2.445312 -0.6875 3 -0.6875 Z M 3 -0.6875 "/></g></g></g><g fill="#8b8b8b" fill-opacity="1"><g transform="translate(145.617801, 9.74087)"><g><path d="M 2.8125 0.078125 C 2.238281 0.078125 1.769531 -0.0976562 1.40625 -0.453125 C 1.050781 -0.816406 0.875 -1.332031 0.875 -2 L 0.875 -5.6875 L 1.5625 -5.6875 L 1.5625 -2.0625 C 1.5625 -1.59375 1.691406 -1.222656 1.953125 -0.953125 C 2.210938 -0.679688 2.5625 -0.546875 3 -0.546875 C 3.445312 -0.546875 3.816406 -0.6875 4.109375 -0.96875 C 4.410156 -1.257812 4.5625 -1.648438 4.5625 -2.140625 L 4.5625 -5.6875 L 5.265625 -5.6875 L 5.265625 0 L 4.59375 0 L 4.59375 -1.046875 C 4.414062 -0.648438 4.171875 -0.363281 3.859375 -0.1875 C 3.546875 -0.0078125 3.195312 0.078125 2.8125 0.078125 Z M 2.8125 0.078125 "/></g></g></g><g fill="#8b8b8b" fill-opacity="1"><g transform="translate(151.739292, 9.74087)"><g><path d="M 3.171875 0.125 C 2.640625 0.125 2.175781 0 1.78125 -0.25 C 1.394531 -0.5 1.097656 -0.84375 0.890625 -1.28125 C 0.679688 -1.726562 0.578125 -2.238281 0.578125 -2.8125 C 0.578125 -3.375 0.679688 -3.878906 0.890625 -4.328125 C 1.097656 -4.773438 1.390625 -5.125 1.765625 -5.375 C 2.140625 -5.625 2.570312 -5.75 3.0625 -5.75 C 3.476562 -5.75 3.867188 -5.644531 4.234375 -5.4375 C 4.609375 -5.238281 4.910156 -4.929688 5.140625 -4.515625 C 5.367188 -4.097656 5.484375 -3.570312 5.484375 -2.9375 L 5.484375 -2.625 L 1.265625 -2.625 C 1.285156 -1.976562 1.460938 -1.460938 1.796875 -1.078125 C 2.140625 -0.691406 2.597656 -0.5 3.171875 -0.5 C 3.566406 -0.5 3.890625 -0.585938 4.140625 -0.765625 C 4.398438 -0.953125 4.582031 -1.171875 4.6875 -1.421875 L 5.34375 -1.21875 C 5.21875 -0.863281 4.96875 -0.550781 4.59375 -0.28125 C 4.21875 -0.0078125 3.742188 0.125 3.171875 0.125 Z M 1.265625 -3.21875 L 4.78125 -3.21875 C 4.75 -3.78125 4.582031 -4.238281 4.28125 -4.59375 C 3.976562 -4.957031 3.570312 -5.140625 3.0625 -5.140625 C 2.71875 -5.140625 2.414062 -5.050781 2.15625 -4.875 C 1.894531 -4.707031 1.6875 -4.476562 1.53125 -4.1875 C 1.375 -3.894531 1.285156 -3.570312 1.265625 -3.21875 Z M 1.265625 -3.21875 "/></g></g></g></g></g></svg>