<svg xmlns="http://www.w3.org/2000/svg" xmlns:xlink="http://www.w3.org/1999/xlink" width="182" zoomAndPan="magnify" viewBox="0 0 136.5 58.499998" height="78" preserveAspectRatio="xMidYMid meet" version="1.0"><defs><g/><clipPath id="f9bc3f1a44"><path d="M 0.332031 0 L 135.671875 0 L 135.671875 58.003906 L 0.332031 58.003906 Z M 0.332031 0 " clip-rule="nonzero"/></clipPath><clipPath id="7370218ccb"><path d="M 0.332031 0 L 57.589844 0 L 57.589844 57.261719 L 0.332031 57.261719 Z M 0.332031 0 " clip-rule="nonzero"/></clipPath><clipPath id="d1ca3c4610"><path d="M 10 33 L 48 33 L 48 57.261719 L 10 57.261719 Z M 10 33 " clip-rule="nonzero"/></clipPath></defs><g clip-path="url(#f9bc3f1a44)"><path fill="#ffffff" d="M 0.332031 0 L 135.671875 0 L 135.671875 58.003906 L 0.332031 58.003906 Z M 0.332031 0 " fill-opacity="1" fill-rule="nonzero"/></g><g clip-path="url(#7370218ccb)"><path stroke-linecap="butt" transform="matrix(1.684135, 0, 0, 1.684135, 0.330511, 0)" fill="none" stroke-linejoin="miter" d="M 5.500295 4.001034 L 28.499861 4.001034 C 28.699333 4.001034 28.889527 4.038145 29.075082 4.114686 C 29.258318 4.191228 29.420679 4.297922 29.559845 4.439408 C 29.701331 4.580894 29.810345 4.743255 29.886886 4.92649 C 29.961108 5.109726 30.000539 5.30224 30.000539 5.499392 L 30.000539 28.498958 C 30.000539 28.69843 29.961108 28.890944 29.886886 29.074179 C 29.810345 29.257415 29.701331 29.419776 29.559845 29.561262 C 29.420679 29.700428 29.258318 29.809442 29.075082 29.885983 C 28.889527 29.962525 28.699333 29.999636 28.499861 29.999636 L 5.500295 29.999636 C 5.300823 29.999636 5.110629 29.962525 4.925074 29.885983 C 4.741838 29.809442 4.579477 29.700428 4.440311 29.561262 C 4.298825 29.419776 4.189811 29.257415 4.11327 29.074179 C 4.039048 28.890944 3.999617 28.69843 3.999617 28.498958 L 3.999617 5.499392 C 3.999617 5.30224 4.039048 5.109726 4.11327 4.92649 C 4.189811 4.743255 4.298825 4.580894 4.440311 4.439408 C 4.579477 4.297922 4.741838 4.191228 4.925074 4.114686 C 5.110629 4.038145 5.300823 4.001034 5.500295 4.001034 Z M 5.500295 4.001034 " stroke="#5ec26a" stroke-width="1.3" stroke-opacity="1" stroke-miterlimit="4"/></g><path stroke-linecap="butt" transform="matrix(1.684135, 0, 0, 1.684135, 0.330511, 0)" fill="none" stroke-linejoin="miter" d="M 3.999617 16.999175 L 30.000539 16.999175 " stroke="#5ec26a" stroke-width="1.1" stroke-opacity="1" stroke-miterlimit="4"/><path stroke-linecap="butt" transform="matrix(1.684135, 0, 0, 1.684135, 0.330511, 0)" fill="none" stroke-linejoin="miter" d="M 21.200584 16.999175 C 21.200584 17.275189 21.17275 17.548882 21.119403 17.820257 C 21.066056 18.089312 20.984876 18.351409 20.880501 18.606547 C 20.773807 18.861685 20.646238 19.105227 20.493155 19.332532 C 20.340072 19.562156 20.163794 19.775545 19.968961 19.970378 C 19.774128 20.165211 19.563059 20.339169 19.333435 20.492252 C 19.10381 20.645335 18.862588 20.775223 18.60745 20.879598 C 18.352311 20.986292 18.090215 21.065153 17.81884 21.118501 C 17.549785 21.174167 17.276091 21.199681 17.000078 21.199681 C 16.724065 21.199681 16.450371 21.174167 16.181316 21.118501 C 15.909941 21.065153 15.647845 20.986292 15.392706 20.879598 C 15.137568 20.775223 14.896346 20.645335 14.666721 20.492252 C 14.437097 20.339169 14.226028 20.165211 14.031195 19.970378 C 13.834043 19.775545 13.660085 19.562156 13.507001 19.332532 C 13.353918 19.105227 13.226349 18.861685 13.119655 18.606547 C 13.01528 18.351409 12.9341 18.089312 12.880753 17.820257 C 12.827406 17.548882 12.799572 17.275189 12.799572 16.999175 C 12.799572 16.723162 12.827406 16.451787 12.880753 16.180413 C 12.9341 15.909038 13.01528 15.646942 13.119655 15.391803 C 13.226349 15.138984 13.353918 14.895443 13.507001 14.665819 C 13.660085 14.436194 13.834043 14.225125 14.031195 14.030292 C 14.226028 13.835459 14.437097 13.661501 14.666721 13.508418 C 14.896346 13.355335 15.137568 13.225446 15.392706 13.118752 C 15.647845 13.014377 15.909941 12.935516 16.181316 12.87985 C 16.450371 12.826503 16.724065 12.800989 17.000078 12.800989 C 17.276091 12.800989 17.549785 12.826503 17.81884 12.87985 C 18.090215 12.935516 18.352311 13.014377 18.60745 13.118752 C 18.862588 13.225446 19.10381 13.355335 19.333435 13.508418 C 19.563059 13.661501 19.774128 13.835459 19.968961 14.030292 C 20.163794 14.225125 20.340072 14.436194 20.493155 14.665819 C 20.646238 14.895443 20.773807 15.138984 20.880501 15.391803 C 20.984876 15.646942 21.066056 15.909038 21.119403 16.180413 C 21.17275 16.451787 21.200584 16.723162 21.200584 16.999175 Z M 21.200584 16.999175 " stroke="#5ec26a" stroke-width="1.1" stroke-opacity="1" stroke-miterlimit="4"/><path fill="#5ec26a" d="M 31.65625 28.628906 C 31.65625 28.988281 31.585938 29.332031 31.449219 29.660156 C 31.3125 29.992188 31.117188 30.28125 30.867188 30.535156 C 30.613281 30.789062 30.320312 30.984375 29.992188 31.121094 C 29.660156 31.257812 29.316406 31.324219 28.960938 31.324219 C 28.601562 31.324219 28.257812 31.257812 27.929688 31.121094 C 27.597656 30.984375 27.308594 30.789062 27.054688 30.535156 C 26.804688 30.28125 26.609375 29.992188 26.472656 29.660156 C 26.335938 29.332031 26.265625 28.988281 26.265625 28.628906 C 26.265625 28.273438 26.335938 27.929688 26.472656 27.597656 C 26.609375 27.269531 26.804688 26.976562 27.054688 26.726562 C 27.308594 26.472656 27.597656 26.277344 27.929688 26.140625 C 28.257812 26.003906 28.601562 25.9375 28.960938 25.9375 C 29.316406 25.9375 29.660156 26.003906 29.992188 26.140625 C 30.320312 26.277344 30.613281 26.472656 30.867188 26.726562 C 31.117188 26.976562 31.3125 27.269531 31.449219 27.597656 C 31.585938 27.929688 31.65625 28.273438 31.65625 28.628906 Z M 31.65625 28.628906 " fill-opacity="1" fill-rule="nonzero"/><path stroke-linecap="butt" transform="matrix(1.684135, 0, 0, 1.684135, 0.330511, 0)" fill="none" stroke-linejoin="miter" d="M 10.999687 4.001034 L 23.000469 4.001034 C 23.137316 4.001034 23.255607 4.049742 23.353024 4.147159 C 23.45044 4.244575 23.499149 4.362866 23.499149 4.499713 L 23.499149 9.500426 C 23.499149 9.637273 23.45044 9.755564 23.353024 9.852981 C 23.255607 9.950397 23.137316 9.999106 23.000469 9.999106 L 10.999687 9.999106 C 10.86284 9.999106 10.744549 9.950397 10.647132 9.852981 C 10.549716 9.755564 10.501007 9.637273 10.501007 9.500426 L 10.501007 4.499713 C 10.501007 4.362866 10.549716 4.244575 10.647132 4.147159 C 10.744549 4.049742 10.86284 4.001034 10.999687 4.001034 Z M 10.999687 4.001034 " stroke="#5ec26a" stroke-width="0.75" stroke-opacity="0.5" stroke-miterlimit="4"/><g clip-path="url(#d1ca3c4610)"><path stroke-linecap="butt" transform="matrix(1.684135, 0, 0, 1.684135, 0.330511, 0)" fill="none" stroke-linejoin="miter" d="M 10.999687 23.999245 L 23.000469 23.999245 C 23.137316 23.999245 23.255607 24.047953 23.353024 24.14537 C 23.45044 24.245106 23.499149 24.361078 23.499149 24.500244 L 23.499149 29.500956 C 23.499149 29.637803 23.45044 29.756095 23.353024 29.853511 C 23.255607 29.950928 23.137316 29.999636 23.000469 29.999636 L 10.999687 29.999636 C 10.86284 29.999636 10.744549 29.950928 10.647132 29.853511 C 10.549716 29.756095 10.501007 29.637803 10.501007 29.500956 L 10.501007 24.500244 C 10.501007 24.361078 10.549716 24.245106 10.647132 24.14537 C 10.744549 24.047953 10.86284 23.999245 10.999687 23.999245 Z M 10.999687 23.999245 " stroke="#5ec26a" stroke-width="0.75" stroke-opacity="0.5" stroke-miterlimit="4"/></g><g fill="#5ec269" fill-opacity="1"><g transform="translate(60.066321, 24.662352)"><g><path d="M 0.515625 -10.78125 L 0.515625 -13.796875 L 12.5 -13.796875 L 12.5 -10.78125 L 8.375 -10.78125 L 8.375 0 L 4.640625 0 L 4.640625 -10.78125 Z M 0.515625 -10.78125 "/></g></g></g><g fill="#5ec269" fill-opacity="1"><g transform="translate(73.084811, 24.662352)"><g><path d="M 0.421875 0 L 4.90625 -13.796875 L 10.015625 -13.796875 L 14.65625 0 L 10.40625 0 L 9.609375 -2.65625 L 5.375 -2.65625 L 4.609375 0 Z M 6.171875 -5.453125 L 8.78125 -5.453125 C 8.53125 -6.285156 8.289062 -7.144531 8.0625 -8.03125 C 7.832031 -8.925781 7.617188 -9.828125 7.421875 -10.734375 C 7.222656 -9.828125 7.023438 -8.925781 6.828125 -8.03125 C 6.628906 -7.144531 6.410156 -6.285156 6.171875 -5.453125 Z M 6.171875 -5.453125 "/></g></g></g><g fill="#5ec269" fill-opacity="1"><g transform="translate(88.158853, 24.662352)"><g><path d="M 7.296875 0.1875 C 6.035156 0.1875 4.90625 -0.0820312 3.90625 -0.625 C 2.90625 -1.164062 2.109375 -1.960938 1.515625 -3.015625 C 0.929688 -4.078125 0.640625 -5.367188 0.640625 -6.890625 C 0.640625 -8.429688 0.9375 -9.726562 1.53125 -10.78125 C 2.125 -11.832031 2.925781 -12.628906 3.9375 -13.171875 C 4.945312 -13.710938 6.066406 -13.984375 7.296875 -13.984375 C 8.441406 -13.984375 9.460938 -13.78125 10.359375 -13.375 C 11.265625 -12.96875 11.992188 -12.375 12.546875 -11.59375 C 13.109375 -10.8125 13.445312 -9.867188 13.5625 -8.765625 L 9.765625 -8.765625 C 9.691406 -9.347656 9.453125 -9.816406 9.046875 -10.171875 C 8.648438 -10.535156 8.101562 -10.71875 7.40625 -10.71875 C 6.46875 -10.71875 5.75 -10.378906 5.25 -9.703125 C 4.75 -9.035156 4.5 -8.097656 4.5 -6.890625 C 4.5 -5.628906 4.75 -4.675781 5.25 -4.03125 C 5.757812 -3.394531 6.472656 -3.078125 7.390625 -3.078125 C 8.078125 -3.078125 8.625 -3.253906 9.03125 -3.609375 C 9.4375 -3.972656 9.6875 -4.445312 9.78125 -5.03125 L 13.578125 -5.03125 C 13.535156 -4.445312 13.375 -3.847656 13.09375 -3.234375 C 12.8125 -2.628906 12.410156 -2.066406 11.890625 -1.546875 C 11.367188 -1.023438 10.722656 -0.601562 9.953125 -0.28125 C 9.191406 0.0273438 8.304688 0.1875 7.296875 0.1875 Z M 7.296875 0.1875 "/></g></g></g><g fill="#5ec269" fill-opacity="1"><g transform="translate(102.334749, 24.662352)"><g><path d="M 0.515625 -10.78125 L 0.515625 -13.796875 L 12.5 -13.796875 L 12.5 -10.78125 L 8.375 -10.78125 L 8.375 0 L 4.640625 0 L 4.640625 -10.78125 Z M 0.515625 -10.78125 "/></g></g></g><g fill="#5ec269" fill-opacity="1"><g transform="translate(115.35324, 24.662352)"><g><path d="M 4.625 -13.796875 L 4.625 0 L 0.890625 0 L 0.890625 -13.796875 Z M 4.625 -13.796875 "/></g></g></g><g fill="#5ec269" fill-opacity="1"><g transform="translate(120.871746, 24.662352)"><g><path d="M 7.296875 0.1875 C 6.035156 0.1875 4.90625 -0.0820312 3.90625 -0.625 C 2.90625 -1.164062 2.109375 -1.960938 1.515625 -3.015625 C 0.929688 -4.078125 0.640625 -5.367188 0.640625 -6.890625 C 0.640625 -8.429688 0.9375 -9.726562 1.53125 -10.78125 C 2.125 -11.832031 2.925781 -12.628906 3.9375 -13.171875 C 4.945312 -13.710938 6.066406 -13.984375 7.296875 -13.984375 C 8.441406 -13.984375 9.460938 -13.78125 10.359375 -13.375 C 11.265625 -12.96875 11.992188 -12.375 12.546875 -11.59375 C 13.109375 -10.8125 13.445312 -9.867188 13.5625 -8.765625 L 9.765625 -8.765625 C 9.691406 -9.347656 9.453125 -9.816406 9.046875 -10.171875 C 8.648438 -10.535156 8.101562 -10.71875 7.40625 -10.71875 C 6.46875 -10.71875 5.75 -10.378906 5.25 -9.703125 C 4.75 -9.035156 4.5 -8.097656 4.5 -6.890625 C 4.5 -5.628906 4.75 -4.675781 5.25 -4.03125 C 5.757812 -3.394531 6.472656 -3.078125 7.390625 -3.078125 C 8.078125 -3.078125 8.625 -3.253906 9.03125 -3.609375 C 9.4375 -3.972656 9.6875 -4.445312 9.78125 -5.03125 L 13.578125 -5.03125 C 13.535156 -4.445312 13.375 -3.847656 13.09375 -3.234375 C 12.8125 -2.628906 12.410156 -2.066406 11.890625 -1.546875 C 11.367188 -1.023438 10.722656 -0.601562 9.953125 -0.28125 C 9.191406 0.0273438 8.304688 0.1875 7.296875 0.1875 Z M 7.296875 0.1875 "/></g></g></g><g fill="#ffffff" fill-opacity="1"><g transform="translate(60.066321, 45.484384)"><g><path d="M 1.53125 0 L 1.53125 -13.796875 L 6.46875 -13.796875 C 7.53125 -13.796875 8.414062 -13.609375 9.125 -13.234375 C 9.84375 -12.867188 10.375 -12.359375 10.71875 -11.703125 C 11.070312 -11.054688 11.25 -10.3125 11.25 -9.46875 C 11.25 -8.539062 11.039062 -7.738281 10.625 -7.0625 C 10.207031 -6.382812 9.578125 -5.890625 8.734375 -5.578125 L 11.765625 0 L 9.375 0 L 6.578125 -5.21875 C 6.535156 -5.21875 6.492188 -5.21875 6.453125 -5.21875 L 3.640625 -5.21875 L 3.640625 0 Z M 3.640625 -7.015625 L 6.25 -7.015625 C 7.257812 -7.015625 7.988281 -7.226562 8.4375 -7.65625 C 8.882812 -8.09375 9.109375 -8.695312 9.109375 -9.46875 C 9.109375 -10.25 8.882812 -10.863281 8.4375 -11.3125 C 7.988281 -11.769531 7.253906 -12 6.234375 -12 L 3.640625 -12 Z M 3.640625 -7.015625 "/></g></g></g><g fill="#ffffff" fill-opacity="1"><g transform="translate(73.966107, 45.484384)"><g><path d="M 7.28125 0.1875 C 6.09375 0.1875 5.023438 -0.09375 4.078125 -0.65625 C 3.140625 -1.226562 2.398438 -2.039062 1.859375 -3.09375 C 1.316406 -4.15625 1.046875 -5.421875 1.046875 -6.890625 C 1.046875 -8.367188 1.316406 -9.632812 1.859375 -10.6875 C 2.398438 -11.75 3.140625 -12.5625 4.078125 -13.125 C 5.023438 -13.695312 6.09375 -13.984375 7.28125 -13.984375 C 8.46875 -13.984375 9.53125 -13.695312 10.46875 -13.125 C 11.40625 -12.5625 12.144531 -11.75 12.6875 -10.6875 C 13.226562 -9.632812 13.5 -8.367188 13.5 -6.890625 C 13.5 -5.421875 13.226562 -4.15625 12.6875 -3.09375 C 12.144531 -2.039062 11.40625 -1.226562 10.46875 -0.65625 C 9.53125 -0.09375 8.46875 0.1875 7.28125 0.1875 Z M 7.28125 -1.734375 C 8.0625 -1.734375 8.757812 -1.929688 9.375 -2.328125 C 10 -2.722656 10.492188 -3.300781 10.859375 -4.0625 C 11.222656 -4.832031 11.40625 -5.773438 11.40625 -6.890625 C 11.40625 -8.003906 11.222656 -8.945312 10.859375 -9.71875 C 10.492188 -10.488281 10 -11.070312 9.375 -11.46875 C 8.757812 -11.863281 8.0625 -12.0625 7.28125 -12.0625 C 6.488281 -12.0625 5.78125 -11.863281 5.15625 -11.46875 C 4.53125 -11.070312 4.035156 -10.488281 3.671875 -9.71875 C 3.316406 -8.945312 3.140625 -8.003906 3.140625 -6.890625 C 3.140625 -5.773438 3.316406 -4.832031 3.671875 -4.0625 C 4.035156 -3.300781 4.53125 -2.722656 5.15625 -2.328125 C 5.78125 -1.929688 6.488281 -1.734375 7.28125 -1.734375 Z M 7.28125 -1.734375 "/></g></g></g><g fill="#ffffff" fill-opacity="1"><g transform="translate(90.115889, 45.484384)"><g><path d="M 7.328125 0.1875 C 6.078125 0.1875 4.976562 -0.0976562 4.03125 -0.671875 C 3.09375 -1.242188 2.359375 -2.054688 1.828125 -3.109375 C 1.304688 -4.171875 1.046875 -5.429688 1.046875 -6.890625 C 1.046875 -8.359375 1.3125 -9.617188 1.84375 -10.671875 C 2.382812 -11.734375 3.117188 -12.550781 4.046875 -13.125 C 4.984375 -13.695312 6.046875 -13.984375 7.234375 -13.984375 C 8.222656 -13.984375 9.125 -13.789062 9.9375 -13.40625 C 10.75 -13.019531 11.414062 -12.484375 11.9375 -11.796875 C 12.46875 -11.117188 12.8125 -10.332031 12.96875 -9.4375 L 10.796875 -9.4375 C 10.546875 -10.25 10.117188 -10.890625 9.515625 -11.359375 C 8.910156 -11.828125 8.15625 -12.0625 7.25 -12.0625 C 6.46875 -12.0625 5.765625 -11.863281 5.140625 -11.46875 C 4.523438 -11.070312 4.035156 -10.488281 3.671875 -9.71875 C 3.316406 -8.945312 3.140625 -8.007812 3.140625 -6.90625 C 3.140625 -5.789062 3.316406 -4.847656 3.671875 -4.078125 C 4.035156 -3.316406 4.53125 -2.734375 5.15625 -2.328125 C 5.789062 -1.929688 6.515625 -1.734375 7.328125 -1.734375 C 8.421875 -1.734375 9.300781 -2.054688 9.96875 -2.703125 C 10.644531 -3.347656 10.992188 -4.222656 11.015625 -5.328125 L 7.640625 -5.328125 L 7.640625 -7.078125 L 13.09375 -7.078125 L 13.09375 -5.5 C 13.09375 -4.332031 12.84375 -3.320312 12.34375 -2.46875 C 11.84375 -1.625 11.160156 -0.96875 10.296875 -0.5 C 9.429688 -0.0390625 8.441406 0.1875 7.328125 0.1875 Z M 7.328125 0.1875 "/></g></g></g><g fill="#ffffff" fill-opacity="1"><g transform="translate(105.90456, 45.484384)"><g><path d="M 7.03125 0.21875 C 5.914062 0.21875 4.945312 0.00390625 4.125 -0.421875 C 3.300781 -0.847656 2.660156 -1.429688 2.203125 -2.171875 C 1.753906 -2.921875 1.53125 -3.78125 1.53125 -4.75 L 1.53125 -13.796875 L 3.640625 -13.796875 L 3.640625 -4.921875 C 3.640625 -3.984375 3.941406 -3.210938 4.546875 -2.609375 C 5.160156 -2.003906 5.988281 -1.703125 7.03125 -1.703125 C 8.070312 -1.703125 8.890625 -2.003906 9.484375 -2.609375 C 10.085938 -3.210938 10.390625 -3.984375 10.390625 -4.921875 L 10.390625 -13.796875 L 12.515625 -13.796875 L 12.515625 -4.75 C 12.515625 -3.78125 12.285156 -2.921875 11.828125 -2.171875 C 11.367188 -1.429688 10.726562 -0.847656 9.90625 -0.421875 C 9.082031 0.00390625 8.125 0.21875 7.03125 0.21875 Z M 7.03125 0.21875 "/></g></g></g><g fill="#ffffff" fill-opacity="1"><g transform="translate(121.554343, 45.484384)"><g><path d="M 1.53125 0 L 1.53125 -13.796875 L 10.21875 -13.796875 L 10.21875 -11.984375 L 3.640625 -11.984375 L 3.640625 -7.875 L 9.75 -7.875 L 9.75 -6.0625 L 3.640625 -6.0625 L 3.640625 -1.8125 L 10.265625 -1.8125 L 10.265625 0 Z M 1.53125 0 "/></g></g></g></svg>