<svg xmlns="http://www.w3.org/2000/svg" xmlns:xlink="http://www.w3.org/1999/xlink" width="226" zoomAndPan="magnify" viewBox="0 0 169.5 40.499999" height="54" preserveAspectRatio="xMidYMid meet" version="1.0"><defs><g/><clipPath id="222773434b"><path d="M 0.785156 0 L 168.21875 0 L 168.21875 40.007812 L 0.785156 40.007812 Z M 0.785156 0 " clip-rule="nonzero"/></clipPath><clipPath id="27685f411c"><path d="M 0.785156 0 L 167.625 0 L 167.625 39.878906 L 0.785156 39.878906 Z M 0.785156 0 " clip-rule="nonzero"/></clipPath><clipPath id="6b7ba9fb74"><path d="M 20.726562 0 L 147.652344 0 C 158.664062 0 167.59375 8.925781 167.59375 19.941406 C 167.59375 30.953125 158.664062 39.878906 147.652344 39.878906 L 20.726562 39.878906 C 9.714844 39.878906 0.785156 30.953125 0.785156 19.941406 C 0.785156 8.925781 9.714844 0 20.726562 0 Z M 20.726562 0 " clip-rule="nonzero"/></clipPath><clipPath id="6dc09a5338"><path d="M 0.785156 0 L 167.625 0 L 167.625 39.878906 L 0.785156 39.878906 Z M 0.785156 0 " clip-rule="nonzero"/></clipPath><clipPath id="8ce2c199e1"><path d="M 20.726562 0 L 147.652344 0 C 158.664062 0 167.59375 8.925781 167.59375 19.941406 C 167.59375 30.953125 158.664062 39.878906 147.652344 39.878906 L 20.726562 39.878906 C 9.714844 39.878906 0.785156 30.953125 0.785156 19.941406 C 0.785156 8.925781 9.714844 0 20.726562 0 Z M 20.726562 0 " clip-rule="nonzero"/></clipPath><clipPath id="0cfcc7e3d6"><rect x="0" width="168" y="0" height="40"/></clipPath><clipPath id="e80ea70da9"><path d="M 0.785156 0 L 167.480469 0 L 167.480469 40 L 0.785156 40 Z M 0.785156 0 " clip-rule="nonzero"/></clipPath><clipPath id="21ab4fc7db"><path d="M 20.726562 0 L 147.644531 0 C 158.65625 0 167.582031 8.925781 167.582031 19.9375 C 167.582031 30.949219 158.65625 39.878906 147.644531 39.878906 L 20.726562 39.878906 C 9.714844 39.878906 0.785156 30.949219 0.785156 19.9375 C 0.785156 8.925781 9.714844 0 20.726562 0 Z M 20.726562 0 " clip-rule="nonzero"/></clipPath></defs><g clip-path="url(#222773434b)"><path fill="#ffffff" d="M 0.785156 0 L 168.21875 0 L 168.21875 40.007812 L 0.785156 40.007812 Z M 0.785156 0 " fill-opacity="1" fill-rule="nonzero"/></g><g clip-path="url(#27685f411c)"><g clip-path="url(#6b7ba9fb74)"><g transform="matrix(1, 0, 0, 1, 0.000000000000000111, 0)"><g clip-path="url(#0cfcc7e3d6)"><g clip-path="url(#6dc09a5338)"><g clip-path="url(#8ce2c199e1)"><path fill="#2f220d" d="M 0.785156 0 L 167.625 0 L 167.625 39.878906 L 0.785156 39.878906 Z M 0.785156 0 " fill-opacity="1" fill-rule="nonzero"/></g></g></g></g></g></g><g clip-path="url(#e80ea70da9)"><g clip-path="url(#21ab4fc7db)"><path stroke-linecap="butt" transform="matrix(0.740854, 0, 0, 0.740854, 0.786588, -0.000000000110396)" fill="none" stroke-linejoin="miter" d="M 26.914863 0.000000000149012 L 198.228008 0.000000000149012 C 213.091562 0.000000000149012 225.139531 12.047968 225.139531 26.911523 C 225.139531 41.775078 213.091562 53.828319 198.228008 53.828319 L 26.914863 53.828319 C 12.051308 53.828319 -0.00193293 41.775078 -0.00193293 26.911523 C -0.00193293 12.047968 12.051308 0.000000000149012 26.914863 0.000000000149012 Z M 26.914863 0.000000000149012 " stroke="#ffbd58" stroke-width="4" stroke-opacity="1" stroke-miterlimit="4"/></g></g><g fill="#ffbd58" fill-opacity="1"><g transform="translate(38.800365, 24.448169)"><g><path d="M 0.765625 0 L 0.765625 -11.9375 L 5.90625 -11.9375 C 6.789062 -11.9375 7.566406 -11.773438 8.234375 -11.453125 C 8.898438 -11.128906 9.414062 -10.660156 9.78125 -10.046875 C 10.15625 -9.441406 10.34375 -8.71875 10.34375 -7.875 C 10.34375 -7.050781 10.160156 -6.347656 9.796875 -5.765625 C 9.441406 -5.191406 8.945312 -4.753906 8.3125 -4.453125 L 10.75 0 L 7.21875 0 L 5.125 -3.9375 L 4 -3.9375 L 4 0 Z M 4 -6.453125 L 5.140625 -6.453125 C 5.710938 -6.453125 6.160156 -6.5625 6.484375 -6.78125 C 6.804688 -7 6.96875 -7.363281 6.96875 -7.875 C 6.96875 -8.382812 6.804688 -8.753906 6.484375 -8.984375 C 6.160156 -9.222656 5.710938 -9.34375 5.140625 -9.34375 L 4 -9.34375 Z M 4 -6.453125 "/></g></g></g><g fill="#ffbd58" fill-opacity="1"><g transform="translate(51.318119, 24.448169)"><g><path d="M 3.3125 0.140625 C 2.457031 0.140625 1.757812 -0.0703125 1.21875 -0.5 C 0.675781 -0.925781 0.40625 -1.582031 0.40625 -2.46875 C 0.40625 -3.125 0.550781 -3.648438 0.84375 -4.046875 C 1.132812 -4.453125 1.523438 -4.753906 2.015625 -4.953125 C 2.515625 -5.148438 3.070312 -5.269531 3.6875 -5.3125 C 4.4375 -5.375 4.96875 -5.457031 5.28125 -5.5625 C 5.59375 -5.664062 5.75 -5.847656 5.75 -6.109375 L 5.75 -6.140625 C 5.75 -6.367188 5.65625 -6.546875 5.46875 -6.671875 C 5.289062 -6.796875 5.050781 -6.859375 4.75 -6.859375 C 4.4375 -6.859375 4.171875 -6.789062 3.953125 -6.65625 C 3.742188 -6.53125 3.613281 -6.332031 3.5625 -6.0625 L 0.65625 -6.34375 C 0.738281 -6.84375 0.945312 -7.296875 1.28125 -7.703125 C 1.613281 -8.117188 2.070312 -8.445312 2.65625 -8.6875 C 3.238281 -8.9375 3.953125 -9.0625 4.796875 -9.0625 C 5.640625 -9.0625 6.375 -8.929688 7 -8.671875 C 7.632812 -8.421875 8.117188 -8.070312 8.453125 -7.625 C 8.796875 -7.1875 8.96875 -6.691406 8.96875 -6.140625 L 8.96875 0 L 5.953125 0 L 5.953125 -1.265625 L 5.890625 -1.265625 C 5.617188 -0.765625 5.265625 -0.40625 4.828125 -0.1875 C 4.398438 0.0273438 3.894531 0.140625 3.3125 0.140625 Z M 4.359375 -1.890625 C 4.722656 -1.890625 5.050781 -2 5.34375 -2.21875 C 5.632812 -2.445312 5.78125 -2.765625 5.78125 -3.171875 L 5.78125 -3.90625 C 5.445312 -3.78125 5.019531 -3.675781 4.5 -3.59375 C 4.125 -3.53125 3.847656 -3.414062 3.671875 -3.25 C 3.503906 -3.082031 3.421875 -2.882812 3.421875 -2.65625 C 3.421875 -2.40625 3.507812 -2.210938 3.6875 -2.078125 C 3.863281 -1.953125 4.085938 -1.890625 4.359375 -1.890625 Z M 4.359375 -1.890625 "/></g></g></g><g fill="#ffbd58" fill-opacity="1"><g transform="translate(62.746647, 24.448169)"><g><path d="M 4.03125 -5.03125 L 4.03125 0 L 0.8125 0 L 0.8125 -8.953125 L 3.84375 -8.953125 L 3.890625 -6.9375 C 4.109375 -7.539062 4.441406 -8.046875 4.890625 -8.453125 C 5.335938 -8.859375 5.945312 -9.0625 6.71875 -9.0625 C 7.351562 -9.0625 7.898438 -8.914062 8.359375 -8.625 C 8.828125 -8.34375 9.191406 -7.945312 9.453125 -7.4375 C 9.710938 -6.9375 9.84375 -6.359375 9.84375 -5.703125 L 9.84375 0 L 6.609375 0 L 6.609375 -5.03125 C 6.609375 -5.476562 6.492188 -5.828125 6.265625 -6.078125 C 6.046875 -6.328125 5.734375 -6.453125 5.328125 -6.453125 C 4.941406 -6.453125 4.628906 -6.328125 4.390625 -6.078125 C 4.148438 -5.828125 4.03125 -5.476562 4.03125 -5.03125 Z M 4.03125 -5.03125 "/></g></g></g><g fill="#ffbd58" fill-opacity="1"><g transform="translate(75.040175, 24.448169)"><g><path d="M 5.09375 3.546875 C 3.875 3.546875 2.882812 3.316406 2.125 2.859375 C 1.363281 2.398438 0.914062 1.789062 0.78125 1.03125 L 3.609375 0.609375 C 3.660156 0.847656 3.816406 1.035156 4.078125 1.171875 C 4.335938 1.304688 4.671875 1.375 5.078125 1.375 C 6.117188 1.375 6.640625 0.910156 6.640625 -0.015625 L 6.640625 -1.53125 L 6.40625 -1.53125 C 6.226562 -1.082031 5.9375 -0.734375 5.53125 -0.484375 C 5.125 -0.234375 4.617188 -0.109375 4.015625 -0.109375 C 3.378906 -0.109375 2.796875 -0.253906 2.265625 -0.546875 C 1.734375 -0.847656 1.304688 -1.316406 0.984375 -1.953125 C 0.660156 -2.597656 0.5 -3.4375 0.5 -4.46875 C 0.5 -5.550781 0.664062 -6.429688 1 -7.109375 C 1.34375 -7.785156 1.78125 -8.28125 2.3125 -8.59375 C 2.84375 -8.90625 3.40625 -9.0625 4 -9.0625 C 4.664062 -9.0625 5.210938 -8.894531 5.640625 -8.5625 C 6.066406 -8.238281 6.367188 -7.847656 6.546875 -7.390625 L 6.609375 -7.390625 L 6.609375 -8.953125 L 9.8125 -8.953125 L 9.8125 -0.34375 C 9.8125 0.496094 9.613281 1.207031 9.21875 1.78125 C 8.820312 2.363281 8.269531 2.800781 7.5625 3.09375 C 6.863281 3.394531 6.039062 3.546875 5.09375 3.546875 Z M 5.203125 -2.40625 C 5.648438 -2.40625 6 -2.585938 6.25 -2.953125 C 6.507812 -3.316406 6.640625 -3.820312 6.640625 -4.46875 C 6.640625 -5.132812 6.507812 -5.65625 6.25 -6.03125 C 6 -6.40625 5.648438 -6.59375 5.203125 -6.59375 C 4.765625 -6.59375 4.421875 -6.40625 4.171875 -6.03125 C 3.929688 -5.65625 3.8125 -5.132812 3.8125 -4.46875 C 3.8125 -3.8125 3.929688 -3.300781 4.171875 -2.9375 C 4.421875 -2.582031 4.765625 -2.40625 5.203125 -2.40625 Z M 5.203125 -2.40625 "/></g></g></g><g fill="#ffbd58" fill-opacity="1"><g transform="translate(87.301666, 24.448169)"><g><path d="M 4.03125 -11.9375 L 4.03125 0 L 0.8125 0 L 0.8125 -11.9375 Z M 4.03125 -11.9375 "/></g></g></g><g fill="#ffbd58" fill-opacity="1"><g transform="translate(93.796491, 24.448169)"><g><path d="M 0.8125 0 L 0.8125 -8.953125 L 4.03125 -8.953125 L 4.03125 0 Z M 2.421875 -9.875 C 1.984375 -9.875 1.609375 -10.015625 1.296875 -10.296875 C 0.992188 -10.585938 0.84375 -10.9375 0.84375 -11.34375 C 0.84375 -11.75 0.992188 -12.09375 1.296875 -12.375 C 1.609375 -12.664062 1.984375 -12.8125 2.421875 -12.8125 C 2.859375 -12.8125 3.234375 -12.664062 3.546875 -12.375 C 3.859375 -12.09375 4.015625 -11.75 4.015625 -11.34375 C 4.015625 -10.9375 3.859375 -10.585938 3.546875 -10.296875 C 3.234375 -10.015625 2.859375 -9.875 2.421875 -9.875 Z M 2.421875 -9.875 "/></g></g></g><g fill="#ffbd58" fill-opacity="1"><g transform="translate(100.291316, 24.448169)"><g><path d="M 4.8125 0.15625 C 3.59375 0.15625 2.59375 -0.09375 1.8125 -0.59375 C 1.039062 -1.101562 0.578125 -1.800781 0.421875 -2.6875 L 3.390625 -3.109375 C 3.503906 -2.765625 3.679688 -2.492188 3.921875 -2.296875 C 4.160156 -2.109375 4.503906 -2.015625 4.953125 -2.015625 C 5.617188 -2.015625 5.953125 -2.203125 5.953125 -2.578125 C 5.953125 -2.890625 5.613281 -3.109375 4.9375 -3.234375 L 3.34375 -3.53125 C 1.53125 -3.851562 0.625 -4.726562 0.625 -6.15625 C 0.625 -7.082031 0.988281 -7.796875 1.71875 -8.296875 C 2.457031 -8.804688 3.472656 -9.0625 4.765625 -9.0625 C 5.941406 -9.0625 6.894531 -8.832031 7.625 -8.375 C 8.363281 -7.925781 8.800781 -7.296875 8.9375 -6.484375 L 6.109375 -6.078125 C 6.035156 -6.367188 5.878906 -6.582031 5.640625 -6.71875 C 5.410156 -6.851562 5.140625 -6.921875 4.828125 -6.921875 C 4.546875 -6.921875 4.304688 -6.867188 4.109375 -6.765625 C 3.921875 -6.671875 3.828125 -6.53125 3.828125 -6.34375 C 3.828125 -6.207031 3.882812 -6.082031 4 -5.96875 C 4.113281 -5.851562 4.335938 -5.765625 4.671875 -5.703125 L 6.5 -5.390625 C 8.320312 -5.066406 9.234375 -4.257812 9.234375 -2.96875 C 9.234375 -2.320312 9.039062 -1.765625 8.65625 -1.296875 C 8.269531 -0.828125 7.742188 -0.46875 7.078125 -0.21875 C 6.421875 0.0273438 5.664062 0.15625 4.8125 0.15625 Z M 4.8125 0.15625 "/></g></g></g><g fill="#ffbd58" fill-opacity="1"><g transform="translate(111.575678, 24.448169)"><g><path d="M 6.0625 -8.953125 L 6.0625 -6.609375 L 4.515625 -6.609375 L 4.515625 -2.875 C 4.515625 -2.5 4.71875 -2.3125 5.125 -2.3125 C 5.21875 -2.3125 5.359375 -2.320312 5.546875 -2.34375 C 5.734375 -2.375 5.851562 -2.398438 5.90625 -2.421875 L 6.296875 -0.125 C 5.929688 -0.0195312 5.582031 0.046875 5.25 0.078125 C 4.925781 0.117188 4.617188 0.140625 4.328125 0.140625 C 2.304688 0.140625 1.296875 -0.765625 1.296875 -2.578125 L 1.296875 -6.609375 L 0.15625 -6.609375 L 0.15625 -8.953125 L 1.296875 -8.953125 L 1.296875 -11.09375 L 4.515625 -11.09375 L 4.515625 -8.953125 Z M 6.0625 -8.953125 "/></g></g></g><g fill="#ffbd58" fill-opacity="1"><g transform="translate(119.608213, 24.448169)"><g><path d="M 5.109375 0.15625 C 3.671875 0.15625 2.539062 -0.25 1.71875 -1.0625 C 0.90625 -1.875 0.5 -3.003906 0.5 -4.453125 C 0.5 -5.378906 0.679688 -6.1875 1.046875 -6.875 C 1.421875 -7.570312 1.945312 -8.109375 2.625 -8.484375 C 3.300781 -8.867188 4.101562 -9.0625 5.03125 -9.0625 C 5.9375 -9.0625 6.722656 -8.875 7.390625 -8.5 C 8.054688 -8.132812 8.570312 -7.609375 8.9375 -6.921875 C 9.300781 -6.234375 9.484375 -5.414062 9.484375 -4.46875 L 9.484375 -3.734375 L 3.65625 -3.734375 C 3.675781 -3.179688 3.820312 -2.769531 4.09375 -2.5 C 4.375 -2.226562 4.734375 -2.09375 5.171875 -2.09375 C 5.503906 -2.09375 5.785156 -2.160156 6.015625 -2.296875 C 6.253906 -2.429688 6.421875 -2.625 6.515625 -2.875 L 9.359375 -2.453125 C 9.128906 -1.648438 8.648438 -1.015625 7.921875 -0.546875 C 7.191406 -0.078125 6.253906 0.15625 5.109375 0.15625 Z M 3.671875 -5.5 L 6.453125 -5.5 C 6.347656 -6.375 5.882812 -6.8125 5.0625 -6.8125 C 4.238281 -6.8125 3.773438 -6.375 3.671875 -5.5 Z M 3.671875 -5.5 "/></g></g></g></svg>