<svg xmlns="http://www.w3.org/2000/svg" xmlns:xlink="http://www.w3.org/1999/xlink" width="385" zoomAndPan="magnify" viewBox="0 0 288.75 71.249999" height="95" preserveAspectRatio="xMidYMid meet" version="1.0"><defs><g/><clipPath id="3b1c19c85b"><path d="M 1.378906 0 L 286.984375 0 L 286.984375 69.964844 L 1.378906 69.964844 Z M 1.378906 0 " clip-rule="nonzero"/></clipPath><clipPath id="c8792c4484"><path d="M 15.316406 0 L 272.8125 0 C 276.507812 0 280.054688 1.46875 282.667969 4.082031 C 285.28125 6.695312 286.75 10.242188 286.75 13.9375 L 286.75 56.027344 C 286.75 59.726562 285.28125 63.269531 282.667969 65.882812 C 280.054688 68.5 276.507812 69.964844 272.8125 69.964844 L 15.316406 69.964844 C 11.621094 69.964844 8.078125 68.5 5.460938 65.882812 C 2.847656 63.269531 1.378906 59.726562 1.378906 56.027344 L 1.378906 13.9375 C 1.378906 10.242188 2.847656 6.695312 5.460938 4.082031 C 8.078125 1.46875 11.621094 0 15.316406 0 Z M 15.316406 0 " clip-rule="nonzero"/></clipPath><clipPath id="a6105eb768"><path d="M 0.378906 0 L 285.855469 0 L 285.855469 69.964844 L 0.378906 69.964844 Z M 0.378906 0 " clip-rule="nonzero"/></clipPath><clipPath id="45526625d7"><path d="M 14.316406 0 L 271.8125 0 C 275.507812 0 279.054688 1.46875 281.667969 4.082031 C 284.28125 6.695312 285.75 10.242188 285.75 13.9375 L 285.75 56.027344 C 285.75 59.726562 284.28125 63.269531 281.667969 65.882812 C 279.054688 68.5 275.507812 69.964844 271.8125 69.964844 L 14.316406 69.964844 C 10.621094 69.964844 7.078125 68.5 4.460938 65.882812 C 1.847656 63.269531 0.378906 59.726562 0.378906 56.027344 L 0.378906 13.9375 C 0.378906 10.242188 1.847656 6.695312 4.460938 4.082031 C 7.078125 1.46875 10.621094 0 14.316406 0 Z M 14.316406 0 " clip-rule="nonzero"/></clipPath><clipPath id="8fa17fa0ed"><rect x="0" width="286" y="0" height="70"/></clipPath><clipPath id="800d68b4bc"><path d="M 1.378906 0 L 286.378906 0 L 286.378906 69.765625 L 1.378906 69.765625 Z M 1.378906 0 " clip-rule="nonzero"/></clipPath><clipPath id="f3a9630023"><path d="M 15.320312 0 L 272.800781 0 C 276.496094 0 280.042969 1.46875 282.65625 4.082031 C 285.269531 6.695312 286.738281 10.242188 286.738281 13.9375 L 286.738281 56.027344 C 286.738281 59.722656 285.269531 63.265625 282.65625 65.878906 C 280.042969 68.496094 276.496094 69.960938 272.800781 69.960938 L 15.320312 69.960938 C 11.625 69.960938 8.078125 68.496094 5.464844 65.878906 C 2.851562 63.265625 1.382812 59.722656 1.382812 56.027344 L 1.382812 13.9375 C 1.382812 10.242188 2.851562 6.695312 5.464844 4.082031 C 8.078125 1.46875 11.625 0 15.320312 0 Z M 15.320312 0 " clip-rule="nonzero"/></clipPath><clipPath id="92d9af003d"><path d="M 252.785156 20.160156 L 272 20.160156 L 272 43.910156 L 252.785156 43.910156 Z M 252.785156 20.160156 " clip-rule="nonzero"/></clipPath><clipPath id="e86c328ec1"><rect x="0" width="155" y="0" height="13"/></clipPath><clipPath id="9a86ddffb0"><rect x="0" width="217" y="0" height="31"/></clipPath></defs><g clip-path="url(#3b1c19c85b)"><g clip-path="url(#c8792c4484)"><g transform="matrix(1, 0, 0, 1, 1, 0.000000000000003143)"><g clip-path="url(#8fa17fa0ed)"><g clip-path="url(#a6105eb768)"><g clip-path="url(#45526625d7)"><path fill="#1a2738" d="M 0.378906 0 L 285.710938 0 L 285.710938 69.964844 L 0.378906 69.964844 Z M 0.378906 0 " fill-opacity="1" fill-rule="nonzero"/></g></g></g></g></g></g><g clip-path="url(#800d68b4bc)"><g clip-path="url(#f3a9630023)"><path stroke-linecap="butt" transform="matrix(0.742187, 0, 0, 0.742187, 1.38021, 0.000000989583)" fill="none" stroke-linejoin="miter" d="M 18.782454 -0.00000133333 L 365.703526 -0.00000133333 C 370.682474 -0.00000133333 375.461422 1.978946 378.982475 5.499999 C 382.503527 9.021052 384.482475 13.799999 384.482475 18.778947 L 384.482475 75.489477 C 384.482475 80.468424 382.503527 85.242109 378.982475 88.763162 C 375.461422 92.289477 370.682474 94.263162 365.703526 94.263162 L 18.782454 94.263162 C 13.803507 94.263162 9.024559 92.289477 5.503506 88.763162 C 1.982454 85.242109 0.00350607 80.468424 0.00350607 75.489477 L 0.00350607 18.778947 C 0.00350607 13.799999 1.982454 9.021052 5.503506 5.499999 C 9.024559 1.978946 13.803507 -0.00000133333 18.782454 -0.00000133333 Z M 18.782454 -0.00000133333 " stroke="#6797df" stroke-width="4" stroke-opacity="1" stroke-miterlimit="4"/></g></g><g clip-path="url(#92d9af003d)"><path fill="#6797df" d="M 270.820312 33.875 L 255.683594 43.359375 C 254.351562 44.195312 252.617188 43.234375 252.617188 41.660156 L 252.617188 22.691406 C 252.617188 21.117188 254.351562 20.15625 255.683594 20.992188 L 270.820312 30.476562 C 272.070312 31.261719 272.070312 33.089844 270.820312 33.875 " fill-opacity="1" fill-rule="nonzero"/></g><g transform="matrix(1, 0, 0, 1, 20, 44)"><g clip-path="url(#e86c328ec1)"><g fill="#6797df" fill-opacity="1"><g transform="translate(0.228568, 9.636681)"><g><path d="M 2.984375 0 L 0.921875 0 L 0.921875 -6.984375 L 3.109375 -6.984375 C 3.773438 -6.984375 4.34375 -6.84375 4.8125 -6.5625 C 5.289062 -6.289062 5.65625 -5.894531 5.90625 -5.375 C 6.164062 -4.851562 6.296875 -4.234375 6.296875 -3.515625 C 6.296875 -2.410156 6.003906 -1.546875 5.421875 -0.921875 C 4.847656 -0.304688 4.035156 0 2.984375 0 Z M 1.59375 -0.59375 L 2.953125 -0.59375 C 3.835938 -0.59375 4.507812 -0.847656 4.96875 -1.359375 C 5.425781 -1.878906 5.65625 -2.597656 5.65625 -3.515625 C 5.65625 -4.410156 5.429688 -5.113281 4.984375 -5.625 C 4.546875 -6.132812 3.90625 -6.390625 3.0625 -6.390625 L 1.59375 -6.390625 Z M 1.59375 -0.59375 "/></g></g></g><g fill="#6797df" fill-opacity="1"><g transform="translate(7.137809, 9.636681)"><g><path d="M 0.796875 0 L 0.796875 -5.25 L 1.421875 -5.25 L 1.421875 -4.421875 L 1.46875 -4.421875 C 1.570312 -4.691406 1.753906 -4.90625 2.015625 -5.0625 C 2.273438 -5.226562 2.566406 -5.3125 2.890625 -5.3125 C 2.941406 -5.3125 3 -5.3125 3.0625 -5.3125 C 3.125 -5.3125 3.175781 -5.3125 3.21875 -5.3125 L 3.21875 -4.671875 C 3.195312 -4.671875 3.148438 -4.675781 3.078125 -4.6875 C 3.003906 -4.695312 2.925781 -4.703125 2.84375 -4.703125 C 2.4375 -4.703125 2.097656 -4.578125 1.828125 -4.328125 C 1.566406 -4.078125 1.4375 -3.753906 1.4375 -3.359375 L 1.4375 0 Z M 0.796875 0 "/></g></g></g><g fill="#6797df" fill-opacity="1"><g transform="translate(10.590082, 9.636681)"><g><path d="M 2.1875 0.125 C 1.863281 0.125 1.570312 0.0585938 1.3125 -0.0625 C 1.050781 -0.1875 0.84375 -0.363281 0.6875 -0.59375 C 0.53125 -0.832031 0.453125 -1.125 0.453125 -1.46875 C 0.453125 -1.8125 0.535156 -2.082031 0.703125 -2.28125 C 0.878906 -2.488281 1.117188 -2.644531 1.421875 -2.75 C 1.722656 -2.851562 2.070312 -2.929688 2.46875 -2.984375 C 2.90625 -3.035156 3.242188 -3.082031 3.484375 -3.125 C 3.722656 -3.164062 3.84375 -3.289062 3.84375 -3.5 L 3.84375 -3.625 C 3.84375 -3.96875 3.734375 -4.238281 3.515625 -4.4375 C 3.304688 -4.644531 3.003906 -4.75 2.609375 -4.75 C 2.234375 -4.75 1.925781 -4.664062 1.6875 -4.5 C 1.457031 -4.332031 1.300781 -4.140625 1.21875 -3.921875 L 0.609375 -4.140625 C 0.722656 -4.421875 0.882812 -4.644531 1.09375 -4.8125 C 1.300781 -4.988281 1.535156 -5.113281 1.796875 -5.1875 C 2.054688 -5.269531 2.320312 -5.3125 2.59375 -5.3125 C 2.800781 -5.3125 3.015625 -5.285156 3.234375 -5.234375 C 3.453125 -5.179688 3.65625 -5.085938 3.84375 -4.953125 C 4.03125 -4.828125 4.179688 -4.648438 4.296875 -4.421875 C 4.410156 -4.191406 4.46875 -3.90625 4.46875 -3.5625 L 4.46875 0 L 3.859375 0 L 3.859375 -0.828125 L 3.8125 -0.828125 C 3.6875 -0.585938 3.488281 -0.367188 3.21875 -0.171875 C 2.945312 0.0234375 2.601562 0.125 2.1875 0.125 Z M 2.28125 -0.453125 C 2.59375 -0.453125 2.863281 -0.519531 3.09375 -0.65625 C 3.332031 -0.800781 3.515625 -0.988281 3.640625 -1.21875 C 3.773438 -1.457031 3.84375 -1.722656 3.84375 -2.015625 L 3.84375 -2.765625 C 3.78125 -2.703125 3.664062 -2.648438 3.5 -2.609375 C 3.332031 -2.566406 3.15625 -2.53125 2.96875 -2.5 C 2.78125 -2.476562 2.617188 -2.457031 2.484375 -2.4375 C 2.035156 -2.382812 1.691406 -2.28125 1.453125 -2.125 C 1.210938 -1.976562 1.09375 -1.75 1.09375 -1.4375 C 1.09375 -1.125 1.203125 -0.878906 1.421875 -0.703125 C 1.648438 -0.535156 1.9375 -0.453125 2.28125 -0.453125 Z M 2.28125 -0.453125 "/></g></g></g><g fill="#6797df" fill-opacity="1"><g transform="translate(15.866999, 9.636681)"><g><path d="M 2.984375 -5.25 L 2.984375 -4.6875 L 1.734375 -4.6875 L 1.734375 0 L 1.109375 0 L 1.109375 -4.6875 L 0.078125 -4.6875 L 0.078125 -5.25 L 1.109375 -5.25 L 1.109375 -6 C 1.109375 -6.28125 1.171875 -6.519531 1.296875 -6.71875 C 1.421875 -6.914062 1.585938 -7.0625 1.796875 -7.15625 C 2.003906 -7.257812 2.234375 -7.3125 2.484375 -7.3125 C 2.640625 -7.3125 2.773438 -7.296875 2.890625 -7.265625 C 3.003906 -7.242188 3.097656 -7.21875 3.171875 -7.1875 L 2.984375 -6.640625 C 2.929688 -6.660156 2.867188 -6.675781 2.796875 -6.6875 C 2.734375 -6.707031 2.648438 -6.71875 2.546875 -6.71875 C 2.285156 -6.71875 2.082031 -6.644531 1.9375 -6.5 C 1.800781 -6.351562 1.734375 -6.144531 1.734375 -5.875 L 1.734375 -5.25 Z M 2.984375 -5.25 "/></g></g></g><g fill="#6797df" fill-opacity="1"><g transform="translate(18.957957, 9.636681)"><g><path d="M 2.578125 -5.25 L 2.578125 -4.6875 L 1.5 -4.6875 L 1.5 -1.234375 C 1.5 -0.710938 1.734375 -0.472656 2.203125 -0.515625 C 2.242188 -0.515625 2.296875 -0.519531 2.359375 -0.53125 C 2.421875 -0.539062 2.484375 -0.554688 2.546875 -0.578125 L 2.671875 -0.03125 C 2.535156 0.0195312 2.378906 0.046875 2.203125 0.046875 C 1.785156 0.078125 1.457031 -0.0195312 1.21875 -0.25 C 0.976562 -0.476562 0.859375 -0.796875 0.859375 -1.203125 L 0.859375 -4.6875 L 0.078125 -4.6875 L 0.078125 -5.25 L 0.859375 -5.25 L 0.859375 -6.5 L 1.5 -6.5 L 1.5 -5.25 Z M 2.578125 -5.25 "/></g></g></g><g fill="#6797df" fill-opacity="1"><g transform="translate(21.744122, 9.636681)"><g><path d="M 2.921875 0.109375 C 2.429688 0.109375 2.003906 -0.00390625 1.640625 -0.234375 C 1.285156 -0.460938 1.007812 -0.78125 0.8125 -1.1875 C 0.625 -1.59375 0.53125 -2.0625 0.53125 -2.59375 C 0.53125 -3.125 0.625 -3.59375 0.8125 -4 C 1.007812 -4.40625 1.28125 -4.722656 1.625 -4.953125 C 1.96875 -5.191406 2.367188 -5.3125 2.828125 -5.3125 C 3.210938 -5.3125 3.570312 -5.21875 3.90625 -5.03125 C 4.25 -4.84375 4.523438 -4.554688 4.734375 -4.171875 C 4.953125 -3.785156 5.0625 -3.296875 5.0625 -2.703125 L 5.0625 -2.4375 L 1.171875 -2.4375 C 1.179688 -1.832031 1.34375 -1.347656 1.65625 -0.984375 C 1.976562 -0.628906 2.40625 -0.453125 2.9375 -0.453125 C 3.300781 -0.453125 3.597656 -0.535156 3.828125 -0.703125 C 4.066406 -0.878906 4.234375 -1.082031 4.328125 -1.3125 L 4.9375 -1.125 C 4.8125 -0.789062 4.578125 -0.5 4.234375 -0.25 C 3.890625 -0.0078125 3.453125 0.109375 2.921875 0.109375 Z M 1.171875 -2.984375 L 4.421875 -2.984375 C 4.390625 -3.492188 4.234375 -3.914062 3.953125 -4.25 C 3.671875 -4.582031 3.296875 -4.75 2.828125 -4.75 C 2.515625 -4.75 2.238281 -4.664062 2 -4.5 C 1.757812 -4.34375 1.566406 -4.128906 1.421875 -3.859375 C 1.273438 -3.597656 1.191406 -3.304688 1.171875 -2.984375 Z M 1.171875 -2.984375 "/></g></g></g><g fill="#6797df" fill-opacity="1"><g transform="translate(27.311855, 9.636681)"><g/></g></g><g fill="#6797df" fill-opacity="1"><g transform="translate(30.013634, 9.636681)"><g><path d="M 2.921875 0.109375 C 2.429688 0.109375 2.003906 -0.00390625 1.640625 -0.234375 C 1.285156 -0.460938 1.007812 -0.78125 0.8125 -1.1875 C 0.625 -1.59375 0.53125 -2.0625 0.53125 -2.59375 C 0.53125 -3.125 0.625 -3.59375 0.8125 -4 C 1.007812 -4.40625 1.28125 -4.722656 1.625 -4.953125 C 1.96875 -5.191406 2.367188 -5.3125 2.828125 -5.3125 C 3.210938 -5.3125 3.570312 -5.21875 3.90625 -5.03125 C 4.25 -4.84375 4.523438 -4.554688 4.734375 -4.171875 C 4.953125 -3.785156 5.0625 -3.296875 5.0625 -2.703125 L 5.0625 -2.4375 L 1.171875 -2.4375 C 1.179688 -1.832031 1.34375 -1.347656 1.65625 -0.984375 C 1.976562 -0.628906 2.40625 -0.453125 2.9375 -0.453125 C 3.300781 -0.453125 3.597656 -0.535156 3.828125 -0.703125 C 4.066406 -0.878906 4.234375 -1.082031 4.328125 -1.3125 L 4.9375 -1.125 C 4.8125 -0.789062 4.578125 -0.5 4.234375 -0.25 C 3.890625 -0.0078125 3.453125 0.109375 2.921875 0.109375 Z M 1.171875 -2.984375 L 4.421875 -2.984375 C 4.390625 -3.492188 4.234375 -3.914062 3.953125 -4.25 C 3.671875 -4.582031 3.296875 -4.75 2.828125 -4.75 C 2.515625 -4.75 2.238281 -4.664062 2 -4.5 C 1.757812 -4.34375 1.566406 -4.128906 1.421875 -3.859375 C 1.273438 -3.597656 1.191406 -3.304688 1.171875 -2.984375 Z M 1.171875 -2.984375 "/></g></g></g><g fill="#6797df" fill-opacity="1"><g transform="translate(35.581367, 9.636681)"><g><path d="M 0.796875 0 L 0.796875 -5.25 L 1.4375 -5.25 L 1.4375 0 Z M 1.125 -6.21875 C 1 -6.21875 0.890625 -6.257812 0.796875 -6.34375 C 0.703125 -6.4375 0.65625 -6.539062 0.65625 -6.65625 C 0.65625 -6.78125 0.703125 -6.882812 0.796875 -6.96875 C 0.890625 -7.0625 1 -7.109375 1.125 -7.109375 C 1.25 -7.109375 1.359375 -7.0625 1.453125 -6.96875 C 1.546875 -6.882812 1.59375 -6.78125 1.59375 -6.65625 C 1.59375 -6.539062 1.546875 -6.4375 1.453125 -6.34375 C 1.359375 -6.257812 1.25 -6.21875 1.125 -6.21875 Z M 1.125 -6.21875 "/></g></g></g><g fill="#6797df" fill-opacity="1"><g transform="translate(37.823468, 9.636681)"><g><path d="M 1.4375 -3.265625 L 1.4375 0 L 0.796875 0 L 0.796875 -5.25 L 1.421875 -5.25 L 1.421875 -4.28125 C 1.578125 -4.644531 1.800781 -4.90625 2.09375 -5.0625 C 2.382812 -5.226562 2.707031 -5.3125 3.0625 -5.3125 C 3.59375 -5.3125 4.023438 -5.144531 4.359375 -4.8125 C 4.691406 -4.488281 4.859375 -4.015625 4.859375 -3.390625 L 4.859375 0 L 4.21875 0 L 4.21875 -3.34375 C 4.21875 -3.769531 4.097656 -4.109375 3.859375 -4.359375 C 3.617188 -4.609375 3.296875 -4.734375 2.890625 -4.734375 C 2.472656 -4.734375 2.125 -4.601562 1.84375 -4.34375 C 1.570312 -4.082031 1.4375 -3.722656 1.4375 -3.265625 Z M 1.4375 -3.265625 "/></g></g></g><g fill="#6797df" fill-opacity="1"><g transform="translate(43.475631, 9.636681)"><g/></g></g><g fill="#6797df" fill-opacity="1"><g transform="translate(46.17741, 9.636681)"><g><path d="M 0.5 -6.390625 L 0.5 -6.984375 L 5.609375 -6.984375 L 5.609375 -6.390625 L 3.390625 -6.390625 L 3.390625 0 L 2.71875 0 L 2.71875 -6.390625 Z M 0.5 -6.390625 "/></g></g></g><g fill="#6797df" fill-opacity="1"><g transform="translate(51.533578, 9.636681)"><g><path d="M 2.921875 0.109375 C 2.429688 0.109375 2.003906 -0.00390625 1.640625 -0.234375 C 1.285156 -0.460938 1.007812 -0.78125 0.8125 -1.1875 C 0.625 -1.59375 0.53125 -2.0625 0.53125 -2.59375 C 0.53125 -3.125 0.625 -3.59375 0.8125 -4 C 1.007812 -4.40625 1.28125 -4.722656 1.625 -4.953125 C 1.96875 -5.191406 2.367188 -5.3125 2.828125 -5.3125 C 3.210938 -5.3125 3.570312 -5.21875 3.90625 -5.03125 C 4.25 -4.84375 4.523438 -4.554688 4.734375 -4.171875 C 4.953125 -3.785156 5.0625 -3.296875 5.0625 -2.703125 L 5.0625 -2.4375 L 1.171875 -2.4375 C 1.179688 -1.832031 1.34375 -1.347656 1.65625 -0.984375 C 1.976562 -0.628906 2.40625 -0.453125 2.9375 -0.453125 C 3.300781 -0.453125 3.597656 -0.535156 3.828125 -0.703125 C 4.066406 -0.878906 4.234375 -1.082031 4.328125 -1.3125 L 4.9375 -1.125 C 4.8125 -0.789062 4.578125 -0.5 4.234375 -0.25 C 3.890625 -0.0078125 3.453125 0.109375 2.921875 0.109375 Z M 1.171875 -2.984375 L 4.421875 -2.984375 C 4.390625 -3.492188 4.234375 -3.914062 3.953125 -4.25 C 3.671875 -4.582031 3.296875 -4.75 2.828125 -4.75 C 2.515625 -4.75 2.238281 -4.664062 2 -4.5 C 1.757812 -4.34375 1.566406 -4.128906 1.421875 -3.859375 C 1.273438 -3.597656 1.191406 -3.304688 1.171875 -2.984375 Z M 1.171875 -2.984375 "/></g></g></g><g fill="#6797df" fill-opacity="1"><g transform="translate(57.195185, 9.636681)"><g><path d="M 2.1875 0.125 C 1.863281 0.125 1.570312 0.0585938 1.3125 -0.0625 C 1.050781 -0.1875 0.84375 -0.363281 0.6875 -0.59375 C 0.53125 -0.832031 0.453125 -1.125 0.453125 -1.46875 C 0.453125 -1.8125 0.535156 -2.082031 0.703125 -2.28125 C 0.878906 -2.488281 1.117188 -2.644531 1.421875 -2.75 C 1.722656 -2.851562 2.070312 -2.929688 2.46875 -2.984375 C 2.90625 -3.035156 3.242188 -3.082031 3.484375 -3.125 C 3.722656 -3.164062 3.84375 -3.289062 3.84375 -3.5 L 3.84375 -3.625 C 3.84375 -3.96875 3.734375 -4.238281 3.515625 -4.4375 C 3.304688 -4.644531 3.003906 -4.75 2.609375 -4.75 C 2.234375 -4.75 1.925781 -4.664062 1.6875 -4.5 C 1.457031 -4.332031 1.300781 -4.140625 1.21875 -3.921875 L 0.609375 -4.140625 C 0.722656 -4.421875 0.882812 -4.644531 1.09375 -4.8125 C 1.300781 -4.988281 1.535156 -5.113281 1.796875 -5.1875 C 2.054688 -5.269531 2.320312 -5.3125 2.59375 -5.3125 C 2.800781 -5.3125 3.015625 -5.285156 3.234375 -5.234375 C 3.453125 -5.179688 3.65625 -5.085938 3.84375 -4.953125 C 4.03125 -4.828125 4.179688 -4.648438 4.296875 -4.421875 C 4.410156 -4.191406 4.46875 -3.90625 4.46875 -3.5625 L 4.46875 0 L 3.859375 0 L 3.859375 -0.828125 L 3.8125 -0.828125 C 3.6875 -0.585938 3.488281 -0.367188 3.21875 -0.171875 C 2.945312 0.0234375 2.601562 0.125 2.1875 0.125 Z M 2.28125 -0.453125 C 2.59375 -0.453125 2.863281 -0.519531 3.09375 -0.65625 C 3.332031 -0.800781 3.515625 -0.988281 3.640625 -1.21875 C 3.773438 -1.457031 3.84375 -1.722656 3.84375 -2.015625 L 3.84375 -2.765625 C 3.78125 -2.703125 3.664062 -2.648438 3.5 -2.609375 C 3.332031 -2.566406 3.15625 -2.53125 2.96875 -2.5 C 2.78125 -2.476562 2.617188 -2.457031 2.484375 -2.4375 C 2.035156 -2.382812 1.691406 -2.28125 1.453125 -2.125 C 1.210938 -1.976562 1.09375 -1.75 1.09375 -1.4375 C 1.09375 -1.125 1.203125 -0.878906 1.421875 -0.703125 C 1.648438 -0.535156 1.9375 -0.453125 2.28125 -0.453125 Z M 2.28125 -0.453125 "/></g></g></g><g fill="#6797df" fill-opacity="1"><g transform="translate(62.472102, 9.636681)"><g><path d="M 0.796875 0 L 0.796875 -5.25 L 1.421875 -5.25 L 1.421875 -4.28125 C 1.554688 -4.632812 1.757812 -4.894531 2.03125 -5.0625 C 2.3125 -5.238281 2.609375 -5.328125 2.921875 -5.328125 C 3.273438 -5.328125 3.570312 -5.226562 3.8125 -5.03125 C 4.050781 -4.832031 4.210938 -4.5625 4.296875 -4.21875 C 4.421875 -4.570312 4.628906 -4.84375 4.921875 -5.03125 C 5.222656 -5.226562 5.566406 -5.328125 5.953125 -5.328125 C 6.421875 -5.328125 6.804688 -5.175781 7.109375 -4.875 C 7.421875 -4.570312 7.578125 -4.125 7.578125 -3.53125 L 7.578125 0 L 6.953125 0 L 6.953125 -3.515625 C 6.953125 -3.929688 6.835938 -4.238281 6.609375 -4.4375 C 6.378906 -4.644531 6.101562 -4.75 5.78125 -4.75 C 5.40625 -4.75 5.097656 -4.628906 4.859375 -4.390625 C 4.628906 -4.160156 4.515625 -3.847656 4.515625 -3.453125 L 4.515625 0 L 3.875 0 L 3.875 -3.578125 C 3.875 -3.929688 3.769531 -4.210938 3.5625 -4.421875 C 3.351562 -4.640625 3.078125 -4.75 2.734375 -4.75 C 2.390625 -4.75 2.085938 -4.628906 1.828125 -4.390625 C 1.566406 -4.148438 1.4375 -3.8125 1.4375 -3.375 L 1.4375 0 Z M 0.796875 0 "/></g></g></g><g fill="#6797df" fill-opacity="1"><g transform="translate(70.854188, 9.636681)"><g/></g></g><g fill="#6797df" fill-opacity="1"><g transform="translate(73.555967, 9.636681)"><g><path d="M 2.1875 0.125 C 1.863281 0.125 1.570312 0.0585938 1.3125 -0.0625 C 1.050781 -0.1875 0.84375 -0.363281 0.6875 -0.59375 C 0.53125 -0.832031 0.453125 -1.125 0.453125 -1.46875 C 0.453125 -1.8125 0.535156 -2.082031 0.703125 -2.28125 C 0.878906 -2.488281 1.117188 -2.644531 1.421875 -2.75 C 1.722656 -2.851562 2.070312 -2.929688 2.46875 -2.984375 C 2.90625 -3.035156 3.242188 -3.082031 3.484375 -3.125 C 3.722656 -3.164062 3.84375 -3.289062 3.84375 -3.5 L 3.84375 -3.625 C 3.84375 -3.96875 3.734375 -4.238281 3.515625 -4.4375 C 3.304688 -4.644531 3.003906 -4.75 2.609375 -4.75 C 2.234375 -4.75 1.925781 -4.664062 1.6875 -4.5 C 1.457031 -4.332031 1.300781 -4.140625 1.21875 -3.921875 L 0.609375 -4.140625 C 0.722656 -4.421875 0.882812 -4.644531 1.09375 -4.8125 C 1.300781 -4.988281 1.535156 -5.113281 1.796875 -5.1875 C 2.054688 -5.269531 2.320312 -5.3125 2.59375 -5.3125 C 2.800781 -5.3125 3.015625 -5.285156 3.234375 -5.234375 C 3.453125 -5.179688 3.65625 -5.085938 3.84375 -4.953125 C 4.03125 -4.828125 4.179688 -4.648438 4.296875 -4.421875 C 4.410156 -4.191406 4.46875 -3.90625 4.46875 -3.5625 L 4.46875 0 L 3.859375 0 L 3.859375 -0.828125 L 3.8125 -0.828125 C 3.6875 -0.585938 3.488281 -0.367188 3.21875 -0.171875 C 2.945312 0.0234375 2.601562 0.125 2.1875 0.125 Z M 2.28125 -0.453125 C 2.59375 -0.453125 2.863281 -0.519531 3.09375 -0.65625 C 3.332031 -0.800781 3.515625 -0.988281 3.640625 -1.21875 C 3.773438 -1.457031 3.84375 -1.722656 3.84375 -2.015625 L 3.84375 -2.765625 C 3.78125 -2.703125 3.664062 -2.648438 3.5 -2.609375 C 3.332031 -2.566406 3.15625 -2.53125 2.96875 -2.5 C 2.78125 -2.476562 2.617188 -2.457031 2.484375 -2.4375 C 2.035156 -2.382812 1.691406 -2.28125 1.453125 -2.125 C 1.210938 -1.976562 1.09375 -1.75 1.09375 -1.4375 C 1.09375 -1.125 1.203125 -0.878906 1.421875 -0.703125 C 1.648438 -0.535156 1.9375 -0.453125 2.28125 -0.453125 Z M 2.28125 -0.453125 "/></g></g></g><g fill="#6797df" fill-opacity="1"><g transform="translate(78.832883, 9.636681)"><g><path d="M 2.59375 0.078125 C 2.0625 0.078125 1.628906 -0.0859375 1.296875 -0.421875 C 0.960938 -0.753906 0.796875 -1.234375 0.796875 -1.859375 L 0.796875 -5.25 L 1.4375 -5.25 L 1.4375 -1.90625 C 1.4375 -1.46875 1.554688 -1.125 1.796875 -0.875 C 2.035156 -0.632812 2.359375 -0.515625 2.765625 -0.515625 C 3.179688 -0.515625 3.523438 -0.644531 3.796875 -0.90625 C 4.078125 -1.164062 4.21875 -1.519531 4.21875 -1.96875 L 4.21875 -5.25 L 4.859375 -5.25 L 4.859375 0 L 4.234375 0 L 4.234375 -0.96875 C 4.078125 -0.601562 3.851562 -0.335938 3.5625 -0.171875 C 3.269531 -0.00390625 2.945312 0.078125 2.59375 0.078125 Z M 2.59375 0.078125 "/></g></g></g><g fill="#6797df" fill-opacity="1"><g transform="translate(84.489732, 9.636681)"><g><path d="M 2.46875 0.109375 C 1.957031 0.109375 1.53125 -0.00390625 1.1875 -0.234375 C 0.851562 -0.472656 0.640625 -0.8125 0.546875 -1.25 L 1.15625 -1.390625 C 1.226562 -1.078125 1.375 -0.84375 1.59375 -0.6875 C 1.820312 -0.53125 2.113281 -0.453125 2.46875 -0.453125 C 2.863281 -0.453125 3.179688 -0.539062 3.421875 -0.71875 C 3.660156 -0.894531 3.78125 -1.117188 3.78125 -1.390625 C 3.78125 -1.816406 3.492188 -2.097656 2.921875 -2.234375 L 2.0625 -2.4375 C 1.164062 -2.65625 0.71875 -3.117188 0.71875 -3.828125 C 0.71875 -4.128906 0.796875 -4.390625 0.953125 -4.609375 C 1.117188 -4.828125 1.335938 -5 1.609375 -5.125 C 1.890625 -5.25 2.207031 -5.3125 2.5625 -5.3125 C 3.050781 -5.3125 3.441406 -5.195312 3.734375 -4.96875 C 4.023438 -4.75 4.226562 -4.453125 4.34375 -4.078125 L 3.765625 -3.921875 C 3.679688 -4.160156 3.546875 -4.359375 3.359375 -4.515625 C 3.171875 -4.679688 2.90625 -4.765625 2.5625 -4.765625 C 2.21875 -4.765625 1.929688 -4.679688 1.703125 -4.515625 C 1.472656 -4.347656 1.359375 -4.132812 1.359375 -3.875 C 1.359375 -3.4375 1.671875 -3.144531 2.296875 -3 L 3.109375 -2.8125 C 3.992188 -2.59375 4.4375 -2.128906 4.4375 -1.421875 C 4.4375 -1.117188 4.351562 -0.851562 4.1875 -0.625 C 4.019531 -0.394531 3.785156 -0.210938 3.484375 -0.078125 C 3.191406 0.0429688 2.851562 0.109375 2.46875 0.109375 Z M 2.46875 0.109375 "/></g></g></g><g fill="#6797df" fill-opacity="1"><g transform="translate(89.447689, 9.636681)"><g/></g></g><g fill="#6797df" fill-opacity="1"><g transform="translate(92.149468, 9.636681)"><g><path d="M 2.671875 0.109375 C 2.242188 0.109375 1.867188 0 1.546875 -0.21875 C 1.222656 -0.445312 0.972656 -0.765625 0.796875 -1.171875 C 0.617188 -1.585938 0.53125 -2.066406 0.53125 -2.609375 C 0.53125 -3.148438 0.617188 -3.625 0.796875 -4.03125 C 0.984375 -4.4375 1.238281 -4.75 1.5625 -4.96875 C 1.882812 -5.195312 2.257812 -5.3125 2.6875 -5.3125 C 3 -5.3125 3.257812 -5.253906 3.46875 -5.140625 C 3.6875 -5.023438 3.859375 -4.882812 3.984375 -4.71875 C 4.117188 -4.550781 4.222656 -4.390625 4.296875 -4.234375 L 4.34375 -4.234375 L 4.34375 -6.984375 L 4.984375 -6.984375 L 4.984375 0 L 4.359375 0 L 4.359375 -0.984375 L 4.296875 -0.984375 C 4.222656 -0.816406 4.117188 -0.648438 3.984375 -0.484375 C 3.859375 -0.316406 3.6875 -0.175781 3.46875 -0.0625 C 3.257812 0.0507812 2.992188 0.109375 2.671875 0.109375 Z M 2.765625 -0.46875 C 3.097656 -0.46875 3.382812 -0.554688 3.625 -0.734375 C 3.863281 -0.921875 4.039062 -1.175781 4.15625 -1.5 C 4.28125 -1.820312 4.34375 -2.191406 4.34375 -2.609375 C 4.34375 -3.023438 4.28125 -3.390625 4.15625 -3.703125 C 4.039062 -4.023438 3.863281 -4.273438 3.625 -4.453125 C 3.382812 -4.640625 3.097656 -4.734375 2.765625 -4.734375 C 2.421875 -4.734375 2.128906 -4.640625 1.890625 -4.453125 C 1.648438 -4.265625 1.46875 -4.007812 1.34375 -3.6875 C 1.226562 -3.375 1.171875 -3.015625 1.171875 -2.609375 C 1.171875 -2.210938 1.234375 -1.847656 1.359375 -1.515625 C 1.484375 -1.191406 1.660156 -0.9375 1.890625 -0.75 C 2.128906 -0.5625 2.421875 -0.46875 2.765625 -0.46875 Z M 2.765625 -0.46875 "/></g></g></g><g fill="#6797df" fill-opacity="1"><g transform="translate(97.932967, 9.636681)"><g><path d="M 2.921875 0.109375 C 2.429688 0.109375 2.003906 -0.00390625 1.640625 -0.234375 C 1.285156 -0.460938 1.007812 -0.78125 0.8125 -1.1875 C 0.625 -1.59375 0.53125 -2.0625 0.53125 -2.59375 C 0.53125 -3.125 0.625 -3.59375 0.8125 -4 C 1.007812 -4.40625 1.28125 -4.722656 1.625 -4.953125 C 1.96875 -5.191406 2.367188 -5.3125 2.828125 -5.3125 C 3.210938 -5.3125 3.570312 -5.21875 3.90625 -5.03125 C 4.25 -4.84375 4.523438 -4.554688 4.734375 -4.171875 C 4.953125 -3.785156 5.0625 -3.296875 5.0625 -2.703125 L 5.0625 -2.4375 L 1.171875 -2.4375 C 1.179688 -1.832031 1.34375 -1.347656 1.65625 -0.984375 C 1.976562 -0.628906 2.40625 -0.453125 2.9375 -0.453125 C 3.300781 -0.453125 3.597656 -0.535156 3.828125 -0.703125 C 4.066406 -0.878906 4.234375 -1.082031 4.328125 -1.3125 L 4.9375 -1.125 C 4.8125 -0.789062 4.578125 -0.5 4.234375 -0.25 C 3.890625 -0.0078125 3.453125 0.109375 2.921875 0.109375 Z M 1.171875 -2.984375 L 4.421875 -2.984375 C 4.390625 -3.492188 4.234375 -3.914062 3.953125 -4.25 C 3.671875 -4.582031 3.296875 -4.75 2.828125 -4.75 C 2.515625 -4.75 2.238281 -4.664062 2 -4.5 C 1.757812 -4.34375 1.566406 -4.128906 1.421875 -3.859375 C 1.273438 -3.597656 1.191406 -3.304688 1.171875 -2.984375 Z M 1.171875 -2.984375 "/></g></g></g><g fill="#6797df" fill-opacity="1"><g transform="translate(103.5007, 9.636681)"><g><path d="M 0.796875 0 L 0.796875 -5.25 L 1.4375 -5.25 L 1.4375 0 Z M 1.125 -6.21875 C 1 -6.21875 0.890625 -6.257812 0.796875 -6.34375 C 0.703125 -6.4375 0.65625 -6.539062 0.65625 -6.65625 C 0.65625 -6.78125 0.703125 -6.882812 0.796875 -6.96875 C 0.890625 -7.0625 1 -7.109375 1.125 -7.109375 C 1.25 -7.109375 1.359375 -7.0625 1.453125 -6.96875 C 1.546875 -6.882812 1.59375 -6.78125 1.59375 -6.65625 C 1.59375 -6.539062 1.546875 -6.4375 1.453125 -6.34375 C 1.359375 -6.257812 1.25 -6.21875 1.125 -6.21875 Z M 1.125 -6.21875 "/></g></g></g><g fill="#6797df" fill-opacity="1"><g transform="translate(105.742801, 9.636681)"><g><path d="M 1.4375 -3.265625 L 1.4375 0 L 0.796875 0 L 0.796875 -5.25 L 1.421875 -5.25 L 1.421875 -4.28125 C 1.578125 -4.644531 1.800781 -4.90625 2.09375 -5.0625 C 2.382812 -5.226562 2.707031 -5.3125 3.0625 -5.3125 C 3.59375 -5.3125 4.023438 -5.144531 4.359375 -4.8125 C 4.691406 -4.488281 4.859375 -4.015625 4.859375 -3.390625 L 4.859375 0 L 4.21875 0 L 4.21875 -3.34375 C 4.21875 -3.769531 4.097656 -4.109375 3.859375 -4.359375 C 3.617188 -4.609375 3.296875 -4.734375 2.890625 -4.734375 C 2.472656 -4.734375 2.125 -4.601562 1.84375 -4.34375 C 1.570312 -4.082031 1.4375 -3.722656 1.4375 -3.265625 Z M 1.4375 -3.265625 "/></g></g></g><g fill="#6797df" fill-opacity="1"><g transform="translate(111.394965, 9.636681)"><g><path d="M 2.921875 0.109375 C 2.429688 0.109375 2.003906 -0.00390625 1.640625 -0.234375 C 1.285156 -0.460938 1.007812 -0.78125 0.8125 -1.1875 C 0.625 -1.59375 0.53125 -2.0625 0.53125 -2.59375 C 0.53125 -3.125 0.625 -3.59375 0.8125 -4 C 1.007812 -4.40625 1.28125 -4.722656 1.625 -4.953125 C 1.96875 -5.191406 2.367188 -5.3125 2.828125 -5.3125 C 3.210938 -5.3125 3.570312 -5.21875 3.90625 -5.03125 C 4.25 -4.84375 4.523438 -4.554688 4.734375 -4.171875 C 4.953125 -3.785156 5.0625 -3.296875 5.0625 -2.703125 L 5.0625 -2.4375 L 1.171875 -2.4375 C 1.179688 -1.832031 1.34375 -1.347656 1.65625 -0.984375 C 1.976562 -0.628906 2.40625 -0.453125 2.9375 -0.453125 C 3.300781 -0.453125 3.597656 -0.535156 3.828125 -0.703125 C 4.066406 -0.878906 4.234375 -1.082031 4.328125 -1.3125 L 4.9375 -1.125 C 4.8125 -0.789062 4.578125 -0.5 4.234375 -0.25 C 3.890625 -0.0078125 3.453125 0.109375 2.921875 0.109375 Z M 1.171875 -2.984375 L 4.421875 -2.984375 C 4.390625 -3.492188 4.234375 -3.914062 3.953125 -4.25 C 3.671875 -4.582031 3.296875 -4.75 2.828125 -4.75 C 2.515625 -4.75 2.238281 -4.664062 2 -4.5 C 1.757812 -4.34375 1.566406 -4.128906 1.421875 -3.859375 C 1.273438 -3.597656 1.191406 -3.304688 1.171875 -2.984375 Z M 1.171875 -2.984375 "/></g></g></g><g fill="#6797df" fill-opacity="1"><g transform="translate(116.962698, 9.636681)"><g><path d="M 1.4375 -3.265625 L 1.4375 0 L 0.796875 0 L 0.796875 -5.25 L 1.421875 -5.25 L 1.421875 -4.28125 C 1.578125 -4.644531 1.800781 -4.90625 2.09375 -5.0625 C 2.382812 -5.226562 2.707031 -5.3125 3.0625 -5.3125 C 3.59375 -5.3125 4.023438 -5.144531 4.359375 -4.8125 C 4.691406 -4.488281 4.859375 -4.015625 4.859375 -3.390625 L 4.859375 0 L 4.21875 0 L 4.21875 -3.34375 C 4.21875 -3.769531 4.097656 -4.109375 3.859375 -4.359375 C 3.617188 -4.609375 3.296875 -4.734375 2.890625 -4.734375 C 2.472656 -4.734375 2.125 -4.601562 1.84375 -4.34375 C 1.570312 -4.082031 1.4375 -3.722656 1.4375 -3.265625 Z M 1.4375 -3.265625 "/></g></g></g><g fill="#6797df" fill-opacity="1"><g transform="translate(122.614861, 9.636681)"><g/></g></g><g fill="#6797df" fill-opacity="1"><g transform="translate(125.31664, 9.636681)"><g><path d="M 0.921875 0 L 0.921875 -6.984375 L 1.59375 -6.984375 L 1.59375 -4.5625 L 1.578125 -3.140625 C 1.796875 -3.398438 2.007812 -3.648438 2.21875 -3.890625 C 2.425781 -4.140625 2.648438 -4.390625 2.890625 -4.640625 L 5.0625 -6.984375 L 5.9375 -6.984375 L 3.109375 -3.953125 L 5.9375 0 L 5.140625 0 L 2.65625 -3.5 L 1.59375 -2.375 L 1.59375 0 Z M 0.921875 0 "/></g></g></g><g fill="#6797df" fill-opacity="1"><g transform="translate(131.531674, 9.636681)"><g><path d="M 2.1875 0.125 C 1.863281 0.125 1.570312 0.0585938 1.3125 -0.0625 C 1.050781 -0.1875 0.84375 -0.363281 0.6875 -0.59375 C 0.53125 -0.832031 0.453125 -1.125 0.453125 -1.46875 C 0.453125 -1.8125 0.535156 -2.082031 0.703125 -2.28125 C 0.878906 -2.488281 1.117188 -2.644531 1.421875 -2.75 C 1.722656 -2.851562 2.070312 -2.929688 2.46875 -2.984375 C 2.90625 -3.035156 3.242188 -3.082031 3.484375 -3.125 C 3.722656 -3.164062 3.84375 -3.289062 3.84375 -3.5 L 3.84375 -3.625 C 3.84375 -3.96875 3.734375 -4.238281 3.515625 -4.4375 C 3.304688 -4.644531 3.003906 -4.75 2.609375 -4.75 C 2.234375 -4.75 1.925781 -4.664062 1.6875 -4.5 C 1.457031 -4.332031 1.300781 -4.140625 1.21875 -3.921875 L 0.609375 -4.140625 C 0.722656 -4.421875 0.882812 -4.644531 1.09375 -4.8125 C 1.300781 -4.988281 1.535156 -5.113281 1.796875 -5.1875 C 2.054688 -5.269531 2.320312 -5.3125 2.59375 -5.3125 C 2.800781 -5.3125 3.015625 -5.285156 3.234375 -5.234375 C 3.453125 -5.179688 3.65625 -5.085938 3.84375 -4.953125 C 4.03125 -4.828125 4.179688 -4.648438 4.296875 -4.421875 C 4.410156 -4.191406 4.46875 -3.90625 4.46875 -3.5625 L 4.46875 0 L 3.859375 0 L 3.859375 -0.828125 L 3.8125 -0.828125 C 3.6875 -0.585938 3.488281 -0.367188 3.21875 -0.171875 C 2.945312 0.0234375 2.601562 0.125 2.1875 0.125 Z M 2.28125 -0.453125 C 2.59375 -0.453125 2.863281 -0.519531 3.09375 -0.65625 C 3.332031 -0.800781 3.515625 -0.988281 3.640625 -1.21875 C 3.773438 -1.457031 3.84375 -1.722656 3.84375 -2.015625 L 3.84375 -2.765625 C 3.78125 -2.703125 3.664062 -2.648438 3.5 -2.609375 C 3.332031 -2.566406 3.15625 -2.53125 2.96875 -2.5 C 2.78125 -2.476562 2.617188 -2.457031 2.484375 -2.4375 C 2.035156 -2.382812 1.691406 -2.28125 1.453125 -2.125 C 1.210938 -1.976562 1.09375 -1.75 1.09375 -1.4375 C 1.09375 -1.125 1.203125 -0.878906 1.421875 -0.703125 C 1.648438 -0.535156 1.9375 -0.453125 2.28125 -0.453125 Z M 2.28125 -0.453125 "/></g></g></g><g fill="#6797df" fill-opacity="1"><g transform="translate(136.80859, 9.636681)"><g><path d="M 0.796875 0 L 0.796875 -5.25 L 1.421875 -5.25 L 1.421875 -4.421875 L 1.46875 -4.421875 C 1.570312 -4.691406 1.753906 -4.90625 2.015625 -5.0625 C 2.273438 -5.226562 2.566406 -5.3125 2.890625 -5.3125 C 2.941406 -5.3125 3 -5.3125 3.0625 -5.3125 C 3.125 -5.3125 3.175781 -5.3125 3.21875 -5.3125 L 3.21875 -4.671875 C 3.195312 -4.671875 3.148438 -4.675781 3.078125 -4.6875 C 3.003906 -4.695312 2.925781 -4.703125 2.84375 -4.703125 C 2.4375 -4.703125 2.097656 -4.578125 1.828125 -4.328125 C 1.566406 -4.078125 1.4375 -3.753906 1.4375 -3.359375 L 1.4375 0 Z M 0.796875 0 "/></g></g></g><g fill="#6797df" fill-opacity="1"><g transform="translate(140.411061, 9.636681)"><g><path d="M 2.578125 -5.25 L 2.578125 -4.6875 L 1.5 -4.6875 L 1.5 -1.234375 C 1.5 -0.710938 1.734375 -0.472656 2.203125 -0.515625 C 2.242188 -0.515625 2.296875 -0.519531 2.359375 -0.53125 C 2.421875 -0.539062 2.484375 -0.554688 2.546875 -0.578125 L 2.671875 -0.03125 C 2.535156 0.0195312 2.378906 0.046875 2.203125 0.046875 C 1.785156 0.078125 1.457031 -0.0195312 1.21875 -0.25 C 0.976562 -0.476562 0.859375 -0.796875 0.859375 -1.203125 L 0.859375 -4.6875 L 0.078125 -4.6875 L 0.078125 -5.25 L 0.859375 -5.25 L 0.859375 -6.5 L 1.5 -6.5 L 1.5 -5.25 Z M 2.578125 -5.25 "/></g></g></g><g fill="#6797df" fill-opacity="1"><g transform="translate(143.197225, 9.636681)"><g><path d="M 2.921875 0.109375 C 2.429688 0.109375 2.003906 -0.00390625 1.640625 -0.234375 C 1.285156 -0.460938 1.007812 -0.78125 0.8125 -1.1875 C 0.625 -1.59375 0.53125 -2.0625 0.53125 -2.59375 C 0.53125 -3.125 0.625 -3.59375 0.8125 -4 C 1.007812 -4.40625 1.28125 -4.722656 1.625 -4.953125 C 1.96875 -5.191406 2.367188 -5.3125 2.828125 -5.3125 C 3.210938 -5.3125 3.570312 -5.21875 3.90625 -5.03125 C 4.25 -4.84375 4.523438 -4.554688 4.734375 -4.171875 C 4.953125 -3.785156 5.0625 -3.296875 5.0625 -2.703125 L 5.0625 -2.4375 L 1.171875 -2.4375 C 1.179688 -1.832031 1.34375 -1.347656 1.65625 -0.984375 C 1.976562 -0.628906 2.40625 -0.453125 2.9375 -0.453125 C 3.300781 -0.453125 3.597656 -0.535156 3.828125 -0.703125 C 4.066406 -0.878906 4.234375 -1.082031 4.328125 -1.3125 L 4.9375 -1.125 C 4.8125 -0.789062 4.578125 -0.5 4.234375 -0.25 C 3.890625 -0.0078125 3.453125 0.109375 2.921875 0.109375 Z M 1.171875 -2.984375 L 4.421875 -2.984375 C 4.390625 -3.492188 4.234375 -3.914062 3.953125 -4.25 C 3.671875 -4.582031 3.296875 -4.75 2.828125 -4.75 C 2.515625 -4.75 2.238281 -4.664062 2 -4.5 C 1.757812 -4.34375 1.566406 -4.128906 1.421875 -3.859375 C 1.273438 -3.597656 1.191406 -3.304688 1.171875 -2.984375 Z M 1.171875 -2.984375 "/></g></g></g><g fill="#6797df" fill-opacity="1"><g transform="translate(148.764958, 9.636681)"><g><path d="M 1.4375 -3.265625 L 1.4375 0 L 0.796875 0 L 0.796875 -5.25 L 1.421875 -5.25 L 1.421875 -4.28125 C 1.578125 -4.644531 1.800781 -4.90625 2.09375 -5.0625 C 2.382812 -5.226562 2.707031 -5.3125 3.0625 -5.3125 C 3.59375 -5.3125 4.023438 -5.144531 4.359375 -4.8125 C 4.691406 -4.488281 4.859375 -4.015625 4.859375 -3.390625 L 4.859375 0 L 4.21875 0 L 4.21875 -3.34375 C 4.21875 -3.769531 4.097656 -4.109375 3.859375 -4.359375 C 3.617188 -4.609375 3.296875 -4.734375 2.890625 -4.734375 C 2.472656 -4.734375 2.125 -4.601562 1.84375 -4.34375 C 1.570312 -4.082031 1.4375 -3.722656 1.4375 -3.265625 Z M 1.4375 -3.265625 "/></g></g></g></g></g><g transform="matrix(1, 0, 0, 1, 20, 13)"><g clip-path="url(#9a86ddffb0)"><g fill="#6797df" fill-opacity="1"><g transform="translate(0.228568, 24.535241)"><g><path d="M 8.15625 0.265625 C 6.007812 0.265625 4.296875 -0.222656 3.015625 -1.203125 C 1.734375 -2.191406 1.066406 -3.632812 1.015625 -5.53125 L 4.578125 -5.53125 C 4.640625 -4.625 5 -3.945312 5.65625 -3.5 C 6.3125 -3.050781 7.128906 -2.828125 8.109375 -2.828125 C 9.085938 -2.828125 9.875 -3.035156 10.46875 -3.453125 C 11.0625 -3.867188 11.359375 -4.414062 11.359375 -5.09375 C 11.359375 -5.707031 11.085938 -6.175781 10.546875 -6.5 C 10.015625 -6.832031 9.257812 -7.117188 8.28125 -7.359375 L 6.328125 -7.859375 C 4.816406 -8.222656 3.632812 -8.796875 2.78125 -9.578125 C 1.925781 -10.367188 1.5 -11.410156 1.5 -12.703125 C 1.5 -13.773438 1.785156 -14.710938 2.359375 -15.515625 C 2.941406 -16.328125 3.738281 -16.957031 4.75 -17.40625 C 5.757812 -17.851562 6.910156 -18.078125 8.203125 -18.078125 C 9.515625 -18.078125 10.660156 -17.847656 11.640625 -17.390625 C 12.628906 -16.941406 13.394531 -16.316406 13.9375 -15.515625 C 14.488281 -14.710938 14.773438 -13.789062 14.796875 -12.75 L 11.265625 -12.75 C 11.203125 -13.46875 10.894531 -14.019531 10.34375 -14.40625 C 9.800781 -14.800781 9.070312 -15 8.15625 -15 C 7.226562 -15 6.507812 -14.804688 6 -14.421875 C 5.5 -14.035156 5.25 -13.539062 5.25 -12.9375 C 5.25 -12.28125 5.53125 -11.785156 6.09375 -11.453125 C 6.664062 -11.128906 7.332031 -10.875 8.09375 -10.6875 L 9.703125 -10.296875 C 10.703125 -10.066406 11.601562 -9.734375 12.40625 -9.296875 C 13.21875 -8.859375 13.859375 -8.296875 14.328125 -7.609375 C 14.796875 -6.921875 15.03125 -6.078125 15.03125 -5.078125 C 15.03125 -3.453125 14.425781 -2.15625 13.21875 -1.1875 C 12.007812 -0.21875 10.320312 0.265625 8.15625 0.265625 Z M 8.15625 0.265625 "/></g></g></g><g fill="#6797df" fill-opacity="1"><g transform="translate(16.27615, 24.535241)"><g><path d="M 5.265625 0.265625 C 3.992188 0.265625 2.929688 -0.0703125 2.078125 -0.75 C 1.234375 -1.425781 0.8125 -2.425781 0.8125 -3.75 C 0.8125 -4.75 1.050781 -5.53125 1.53125 -6.09375 C 2.007812 -6.65625 2.628906 -7.066406 3.390625 -7.328125 C 4.160156 -7.597656 4.984375 -7.773438 5.859375 -7.859375 C 7.015625 -7.960938 7.84375 -8.078125 8.34375 -8.203125 C 8.851562 -8.328125 9.109375 -8.609375 9.109375 -9.046875 L 9.109375 -9.109375 C 9.109375 -9.671875 8.925781 -10.109375 8.5625 -10.421875 C 8.195312 -10.734375 7.679688 -10.890625 7.015625 -10.890625 C 6.316406 -10.890625 5.753906 -10.738281 5.328125 -10.4375 C 4.910156 -10.144531 4.628906 -9.78125 4.484375 -9.34375 L 1.203125 -9.90625 C 1.546875 -11.0625 2.226562 -11.957031 3.25 -12.59375 C 4.269531 -13.226562 5.53125 -13.546875 7.03125 -13.546875 C 7.988281 -13.546875 8.898438 -13.394531 9.765625 -13.09375 C 10.628906 -12.789062 11.332031 -12.304688 11.875 -11.640625 C 12.425781 -10.972656 12.703125 -10.097656 12.703125 -9.015625 L 12.703125 0 L 9.296875 0 L 9.296875 -1.859375 L 9.1875 -1.859375 C 8.851562 -1.234375 8.363281 -0.722656 7.71875 -0.328125 C 7.070312 0.0664062 6.253906 0.265625 5.265625 0.265625 Z M 6.28125 -2.265625 C 7.125 -2.265625 7.8125 -2.503906 8.34375 -2.984375 C 8.875 -3.472656 9.140625 -4.070312 9.140625 -4.78125 L 9.140625 -6.234375 C 8.992188 -6.128906 8.757812 -6.039062 8.4375 -5.96875 C 8.113281 -5.894531 7.769531 -5.828125 7.40625 -5.765625 C 7.050781 -5.703125 6.738281 -5.65625 6.46875 -5.625 C 5.8125 -5.53125 5.28125 -5.34375 4.875 -5.0625 C 4.46875 -4.78125 4.265625 -4.375 4.265625 -3.84375 C 4.265625 -3.320312 4.453125 -2.925781 4.828125 -2.65625 C 5.210938 -2.394531 5.695312 -2.265625 6.28125 -2.265625 Z M 6.28125 -2.265625 "/></g></g></g><g fill="#6797df" fill-opacity="1"><g transform="translate(30.504767, 24.535241)"><g><path d="M 1.53125 0 L 1.53125 -13.390625 L 4.859375 -13.390625 L 5 -10.78125 C 5.363281 -11.757812 5.890625 -12.472656 6.578125 -12.921875 C 7.273438 -13.367188 8.023438 -13.59375 8.828125 -13.59375 C 10.515625 -13.59375 11.660156 -12.585938 12.265625 -10.578125 C 12.640625 -11.609375 13.21875 -12.367188 14 -12.859375 C 14.789062 -13.347656 15.644531 -13.59375 16.5625 -13.59375 C 17.789062 -13.59375 18.8125 -13.191406 19.625 -12.390625 C 20.4375 -11.597656 20.84375 -10.476562 20.84375 -9.03125 L 20.84375 0 L 17.25 0 L 17.25 -8.34375 C 17.25 -9.09375 17.039062 -9.648438 16.625 -10.015625 C 16.21875 -10.390625 15.71875 -10.578125 15.125 -10.578125 C 14.4375 -10.578125 13.894531 -10.363281 13.5 -9.9375 C 13.113281 -9.507812 12.921875 -8.941406 12.921875 -8.234375 L 12.921875 0 L 9.4375 0 L 9.4375 -8.4375 C 9.4375 -9.09375 9.242188 -9.613281 8.859375 -10 C 8.472656 -10.382812 7.972656 -10.578125 7.359375 -10.578125 C 6.734375 -10.578125 6.203125 -10.363281 5.765625 -9.9375 C 5.335938 -9.507812 5.125 -8.894531 5.125 -8.09375 L 5.125 0 Z M 1.53125 0 "/></g></g></g><g fill="#6797df" fill-opacity="1"><g transform="translate(52.870858, 24.535241)"><g><path d="M 1.53125 0 L 1.53125 -13.390625 L 4.859375 -13.390625 L 5 -10.78125 C 5.363281 -11.757812 5.890625 -12.472656 6.578125 -12.921875 C 7.273438 -13.367188 8.023438 -13.59375 8.828125 -13.59375 C 10.515625 -13.59375 11.660156 -12.585938 12.265625 -10.578125 C 12.640625 -11.609375 13.21875 -12.367188 14 -12.859375 C 14.789062 -13.347656 15.644531 -13.59375 16.5625 -13.59375 C 17.789062 -13.59375 18.8125 -13.191406 19.625 -12.390625 C 20.4375 -11.597656 20.84375 -10.476562 20.84375 -9.03125 L 20.84375 0 L 17.25 0 L 17.25 -8.34375 C 17.25 -9.09375 17.039062 -9.648438 16.625 -10.015625 C 16.21875 -10.390625 15.71875 -10.578125 15.125 -10.578125 C 14.4375 -10.578125 13.894531 -10.363281 13.5 -9.9375 C 13.113281 -9.507812 12.921875 -8.941406 12.921875 -8.234375 L 12.921875 0 L 9.4375 0 L 9.4375 -8.4375 C 9.4375 -9.09375 9.242188 -9.613281 8.859375 -10 C 8.472656 -10.382812 7.972656 -10.578125 7.359375 -10.578125 C 6.734375 -10.578125 6.203125 -10.363281 5.765625 -9.9375 C 5.335938 -9.507812 5.125 -8.894531 5.125 -8.09375 L 5.125 0 Z M 1.53125 0 "/></g></g></g><g fill="#6797df" fill-opacity="1"><g transform="translate(75.23695, 24.535241)"><g><path d="M 5.125 -17.84375 L 5.125 0 L 1.53125 0 L 1.53125 -17.84375 Z M 5.125 -17.84375 "/></g></g></g><g fill="#6797df" fill-opacity="1"><g transform="translate(81.878569, 24.535241)"><g><path d="M 6.140625 0.171875 C 4.753906 0.171875 3.640625 -0.273438 2.796875 -1.171875 C 1.953125 -2.066406 1.53125 -3.300781 1.53125 -4.875 L 1.53125 -13.390625 L 5.125 -13.390625 L 5.125 -5.5 C 5.125 -4.664062 5.335938 -4.015625 5.765625 -3.546875 C 6.203125 -3.078125 6.796875 -2.84375 7.546875 -2.84375 C 8.304688 -2.84375 8.925781 -3.085938 9.40625 -3.578125 C 9.894531 -4.066406 10.140625 -4.753906 10.140625 -5.640625 L 10.140625 -13.390625 L 13.734375 -13.390625 L 13.734375 0 L 10.34375 0 L 10.296875 -2.78125 C 9.921875 -1.832031 9.382812 -1.101562 8.6875 -0.59375 C 8 -0.0820312 7.148438 0.171875 6.140625 0.171875 Z M 6.140625 0.171875 "/></g></g></g><g fill="#6797df" fill-opacity="1"><g transform="translate(97.136337, 24.535241)"><g><path d="M 5.125 -7.75 L 5.125 0 L 1.53125 0 L 1.53125 -13.390625 L 4.921875 -13.390625 L 4.96875 -10.625 C 5.34375 -11.550781 5.875 -12.269531 6.5625 -12.78125 C 7.25 -13.289062 8.109375 -13.546875 9.140625 -13.546875 C 10.523438 -13.546875 11.632812 -13.097656 12.46875 -12.203125 C 13.3125 -11.316406 13.734375 -10.085938 13.734375 -8.515625 L 13.734375 0 L 10.140625 0 L 10.140625 -7.890625 C 10.140625 -8.722656 9.925781 -9.375 9.5 -9.84375 C 9.070312 -10.3125 8.476562 -10.546875 7.71875 -10.546875 C 6.957031 -10.546875 6.332031 -10.300781 5.84375 -9.8125 C 5.363281 -9.320312 5.125 -8.632812 5.125 -7.75 Z M 5.125 -7.75 "/></g></g></g><g fill="#6797df" fill-opacity="1"><g transform="translate(112.394105, 24.535241)"><g><path d="M 7.484375 5.296875 C 5.804688 5.296875 4.457031 4.988281 3.4375 4.375 C 2.414062 3.757812 1.753906 2.972656 1.453125 2.015625 L 4.546875 1.15625 C 4.710938 1.53125 5.019531 1.878906 5.46875 2.203125 C 5.925781 2.523438 6.585938 2.6875 7.453125 2.6875 C 8.367188 2.6875 9.085938 2.472656 9.609375 2.046875 C 10.140625 1.628906 10.40625 0.976562 10.40625 0.09375 L 10.40625 -2.375 L 10.125 -2.375 C 9.875 -1.832031 9.460938 -1.332031 8.890625 -0.875 C 8.328125 -0.414062 7.503906 -0.1875 6.421875 -0.1875 C 5.410156 -0.1875 4.492188 -0.421875 3.671875 -0.890625 C 2.847656 -1.367188 2.191406 -2.085938 1.703125 -3.046875 C 1.210938 -4.015625 0.96875 -5.238281 0.96875 -6.71875 C 0.96875 -8.226562 1.21875 -9.488281 1.71875 -10.5 C 2.21875 -11.507812 2.878906 -12.269531 3.703125 -12.78125 C 4.523438 -13.289062 5.429688 -13.546875 6.421875 -13.546875 C 7.171875 -13.546875 7.800781 -13.414062 8.3125 -13.15625 C 8.820312 -12.90625 9.234375 -12.59375 9.546875 -12.21875 C 9.867188 -11.84375 10.109375 -11.476562 10.265625 -11.125 L 10.421875 -11.125 L 10.421875 -13.390625 L 13.953125 -13.390625 L 13.953125 -0.109375 C 13.953125 1.097656 13.675781 2.101562 13.125 2.90625 C 12.570312 3.707031 11.804688 4.304688 10.828125 4.703125 C 9.847656 5.097656 8.734375 5.296875 7.484375 5.296875 Z M 7.546875 -2.921875 C 8.460938 -2.921875 9.171875 -3.253906 9.671875 -3.921875 C 10.171875 -4.597656 10.421875 -5.535156 10.421875 -6.734375 C 10.421875 -7.921875 10.171875 -8.875 9.671875 -9.59375 C 9.179688 -10.3125 8.472656 -10.671875 7.546875 -10.671875 C 6.597656 -10.671875 5.878906 -10.300781 5.390625 -9.5625 C 4.898438 -8.832031 4.65625 -7.890625 4.65625 -6.734375 C 4.65625 -5.566406 4.898438 -4.640625 5.390625 -3.953125 C 5.890625 -3.265625 6.609375 -2.921875 7.546875 -2.921875 Z M 7.546875 -2.921875 "/></g></g></g><g fill="#6797df" fill-opacity="1"><g transform="translate(127.87924, 24.535241)"><g><path d="M 6.84375 0.265625 C 5.226562 0.265625 3.894531 -0.078125 2.84375 -0.765625 C 1.800781 -1.453125 1.164062 -2.414062 0.9375 -3.65625 L 4.28125 -4.234375 C 4.613281 -2.992188 5.503906 -2.375 6.953125 -2.375 C 7.640625 -2.375 8.179688 -2.5 8.578125 -2.75 C 8.972656 -3.007812 9.171875 -3.34375 9.171875 -3.75 C 9.171875 -4.425781 8.597656 -4.882812 7.453125 -5.125 L 5.140625 -5.609375 C 2.566406 -6.128906 1.28125 -7.390625 1.28125 -9.390625 C 1.28125 -10.679688 1.796875 -11.695312 2.828125 -12.4375 C 3.859375 -13.175781 5.21875 -13.546875 6.90625 -13.546875 C 8.5 -13.546875 9.765625 -13.222656 10.703125 -12.578125 C 11.640625 -11.929688 12.234375 -11.066406 12.484375 -9.984375 L 9.296875 -9.421875 C 9.148438 -9.878906 8.882812 -10.253906 8.5 -10.546875 C 8.125 -10.835938 7.609375 -10.984375 6.953125 -10.984375 C 6.359375 -10.984375 5.863281 -10.851562 5.46875 -10.59375 C 5.070312 -10.34375 4.875 -10.019531 4.875 -9.625 C 4.875 -9.289062 5.003906 -9.003906 5.265625 -8.765625 C 5.523438 -8.535156 5.96875 -8.351562 6.59375 -8.21875 L 9 -7.75 C 11.550781 -7.226562 12.828125 -6.019531 12.828125 -4.125 C 12.828125 -3.25 12.570312 -2.484375 12.0625 -1.828125 C 11.550781 -1.171875 10.84375 -0.65625 9.9375 -0.28125 C 9.039062 0.0820312 8.007812 0.265625 6.84375 0.265625 Z M 6.84375 0.265625 "/></g></g></g><g fill="#6797df" fill-opacity="1"><g transform="translate(141.605249, 24.535241)"><g/></g></g><g fill="#6797df" fill-opacity="1"><g transform="translate(147.409195, 24.535241)"><g><path d="M 1.609375 0 L 1.609375 -17.84375 L 7.21875 -17.84375 L 10.109375 -9.640625 C 10.234375 -9.265625 10.367188 -8.773438 10.515625 -8.171875 C 10.671875 -7.566406 10.828125 -6.914062 10.984375 -6.21875 C 11.148438 -5.519531 11.300781 -4.847656 11.4375 -4.203125 C 11.570312 -4.835938 11.71875 -5.503906 11.875 -6.203125 C 12.039062 -6.898438 12.195312 -7.550781 12.34375 -8.15625 C 12.5 -8.769531 12.640625 -9.265625 12.765625 -9.640625 L 15.609375 -17.84375 L 21.234375 -17.84375 L 21.234375 0 L 17.5625 0 L 17.5625 -8.421875 C 17.5625 -8.859375 17.570312 -9.425781 17.59375 -10.125 C 17.613281 -10.820312 17.632812 -11.566406 17.65625 -12.359375 C 17.675781 -13.160156 17.6875 -13.9375 17.6875 -14.6875 C 17.488281 -13.882812 17.28125 -13.082031 17.0625 -12.28125 C 16.84375 -11.476562 16.632812 -10.738281 16.4375 -10.0625 C 16.238281 -9.382812 16.066406 -8.835938 15.921875 -8.421875 L 12.96875 0 L 9.890625 0 L 6.890625 -8.421875 C 6.742188 -8.828125 6.570312 -9.351562 6.375 -10 C 6.1875 -10.65625 5.976562 -11.375 5.75 -12.15625 C 5.53125 -12.945312 5.316406 -13.742188 5.109375 -14.546875 C 5.128906 -13.828125 5.144531 -13.078125 5.15625 -12.296875 C 5.175781 -11.515625 5.195312 -10.78125 5.21875 -10.09375 C 5.238281 -9.414062 5.25 -8.859375 5.25 -8.421875 L 5.25 0 Z M 1.609375 0 "/></g></g></g><g fill="#6797df" fill-opacity="1"><g transform="translate(170.241973, 24.535241)"><g><path d="M 7.515625 0.265625 C 6.171875 0.265625 5.007812 -0.0195312 4.03125 -0.59375 C 3.050781 -1.175781 2.296875 -1.984375 1.765625 -3.015625 C 1.234375 -4.054688 0.96875 -5.257812 0.96875 -6.625 C 0.96875 -8.007812 1.234375 -9.21875 1.765625 -10.25 C 2.296875 -11.289062 3.050781 -12.097656 4.03125 -12.671875 C 5.007812 -13.253906 6.171875 -13.546875 7.515625 -13.546875 C 8.859375 -13.546875 10.019531 -13.253906 11 -12.671875 C 11.976562 -12.097656 12.734375 -11.289062 13.265625 -10.25 C 13.796875 -9.21875 14.0625 -8.007812 14.0625 -6.625 C 14.0625 -5.257812 13.796875 -4.054688 13.265625 -3.015625 C 12.734375 -1.984375 11.976562 -1.175781 11 -0.59375 C 10.019531 -0.0195312 8.859375 0.265625 7.515625 0.265625 Z M 7.515625 -2.5625 C 8.472656 -2.5625 9.195312 -2.945312 9.6875 -3.71875 C 10.175781 -4.5 10.421875 -5.472656 10.421875 -6.640625 C 10.421875 -7.828125 10.175781 -8.800781 9.6875 -9.5625 C 9.195312 -10.332031 8.472656 -10.71875 7.515625 -10.71875 C 6.554688 -10.71875 5.832031 -10.332031 5.34375 -9.5625 C 4.863281 -8.800781 4.625 -7.828125 4.625 -6.640625 C 4.625 -5.472656 4.863281 -4.5 5.34375 -3.71875 C 5.832031 -2.945312 6.554688 -2.5625 7.515625 -2.5625 Z M 7.515625 -2.5625 "/></g></g></g><g fill="#6797df" fill-opacity="1"><g transform="translate(185.272366, 24.535241)"><g><path d="M 6.421875 0.234375 C 5.398438 0.234375 4.476562 -0.03125 3.65625 -0.5625 C 2.832031 -1.09375 2.175781 -1.867188 1.6875 -2.890625 C 1.207031 -3.921875 0.96875 -5.179688 0.96875 -6.671875 C 0.96875 -8.191406 1.210938 -9.460938 1.703125 -10.484375 C 2.203125 -11.503906 2.863281 -12.269531 3.6875 -12.78125 C 4.507812 -13.289062 5.414062 -13.546875 6.40625 -13.546875 C 7.164062 -13.546875 7.796875 -13.414062 8.296875 -13.15625 C 8.796875 -12.90625 9.195312 -12.59375 9.5 -12.21875 C 9.8125 -11.84375 10.046875 -11.476562 10.203125 -11.125 L 10.328125 -11.125 L 10.328125 -17.84375 L 13.921875 -17.84375 L 13.921875 0 L 10.390625 0 L 10.390625 -2.140625 L 10.203125 -2.140625 C 10.035156 -1.785156 9.796875 -1.425781 9.484375 -1.0625 C 9.179688 -0.695312 8.773438 -0.390625 8.265625 -0.140625 C 7.765625 0.105469 7.148438 0.234375 6.421875 0.234375 Z M 7.53125 -2.65625 C 8.4375 -2.65625 9.140625 -3.019531 9.640625 -3.75 C 10.148438 -4.488281 10.40625 -5.460938 10.40625 -6.671875 C 10.40625 -7.890625 10.15625 -8.859375 9.65625 -9.578125 C 9.15625 -10.304688 8.445312 -10.671875 7.53125 -10.671875 C 6.582031 -10.671875 5.863281 -10.296875 5.375 -9.546875 C 4.894531 -8.804688 4.65625 -7.847656 4.65625 -6.671875 C 4.65625 -5.492188 4.898438 -4.53125 5.390625 -3.78125 C 5.878906 -3.03125 6.59375 -2.65625 7.53125 -2.65625 Z M 7.53125 -2.65625 "/></g></g></g><g fill="#6797df" fill-opacity="1"><g transform="translate(200.721613, 24.535241)"><g><path d="M 7.578125 0.265625 C 6.210938 0.265625 5.035156 -0.0078125 4.046875 -0.5625 C 3.054688 -1.125 2.296875 -1.921875 1.765625 -2.953125 C 1.234375 -3.984375 0.96875 -5.207031 0.96875 -6.625 C 0.96875 -8 1.234375 -9.203125 1.765625 -10.234375 C 2.296875 -11.273438 3.039062 -12.085938 4 -12.671875 C 4.96875 -13.253906 6.097656 -13.546875 7.390625 -13.546875 C 8.554688 -13.546875 9.613281 -13.296875 10.5625 -12.796875 C 11.519531 -12.304688 12.28125 -11.554688 12.84375 -10.546875 C 13.40625 -9.546875 13.6875 -8.285156 13.6875 -6.765625 L 13.6875 -5.765625 L 4.53125 -5.765625 C 4.5625 -4.671875 4.859375 -3.84375 5.421875 -3.28125 C 5.992188 -2.71875 6.734375 -2.4375 7.640625 -2.4375 C 8.265625 -2.4375 8.800781 -2.570312 9.25 -2.84375 C 9.707031 -3.113281 10.03125 -3.503906 10.21875 -4.015625 L 13.484375 -3.40625 C 13.148438 -2.300781 12.46875 -1.410156 11.4375 -0.734375 C 10.414062 -0.0664062 9.128906 0.265625 7.578125 0.265625 Z M 4.546875 -8.015625 L 10.21875 -8.015625 C 10.132812 -8.878906 9.851562 -9.566406 9.375 -10.078125 C 8.90625 -10.585938 8.257812 -10.84375 7.4375 -10.84375 C 6.570312 -10.84375 5.890625 -10.578125 5.390625 -10.046875 C 4.898438 -9.515625 4.617188 -8.835938 4.546875 -8.015625 Z M 4.546875 -8.015625 "/></g></g></g></g></g></svg>