<svg xmlns="http://www.w3.org/2000/svg" xmlns:xlink="http://www.w3.org/1999/xlink" width="270" zoomAndPan="magnify" viewBox="0 0 202.5 40.499999" height="54" preserveAspectRatio="xMidYMid meet" version="1.0"><defs><g/><clipPath id="b2a61d7e4c"><path d="M 0.988281 0 L 201.019531 0 L 201.019531 40.007812 L 0.988281 40.007812 Z M 0.988281 0 " clip-rule="nonzero"/></clipPath><clipPath id="041c940df0"><path d="M 0.988281 0 L 200.851562 0 L 200.851562 39.878906 L 0.988281 39.878906 Z M 0.988281 0 " clip-rule="nonzero"/></clipPath><clipPath id="b527750438"><path d="M 20.925781 0 L 180.804688 0 C 191.820312 0 200.746094 8.925781 200.746094 19.941406 C 200.746094 30.953125 191.820312 39.878906 180.804688 39.878906 L 20.925781 39.878906 C 9.914062 39.878906 0.988281 30.953125 0.988281 19.941406 C 0.988281 8.925781 9.914062 0 20.925781 0 Z M 20.925781 0 " clip-rule="nonzero"/></clipPath><clipPath id="484e14e99d"><path d="M 0.988281 0 L 200.839844 0 L 200.839844 39.878906 L 0.988281 39.878906 Z M 0.988281 0 " clip-rule="nonzero"/></clipPath><clipPath id="54d66854bb"><path d="M 20.925781 0 L 180.804688 0 C 191.820312 0 200.746094 8.925781 200.746094 19.941406 C 200.746094 30.953125 191.820312 39.878906 180.804688 39.878906 L 20.925781 39.878906 C 9.914062 39.878906 0.988281 30.953125 0.988281 19.941406 C 0.988281 8.925781 9.914062 0 20.925781 0 Z M 20.925781 0 " clip-rule="nonzero"/></clipPath><clipPath id="6d848b4791"><rect x="0" width="201" y="0" height="40"/></clipPath><clipPath id="c5d0497ca3"><path d="M 0.988281 0 L 201 0 L 201 40 L 0.988281 40 Z M 0.988281 0 " clip-rule="nonzero"/></clipPath><clipPath id="92ca1c0c3d"><path d="M 20.925781 0 L 180.800781 0 C 191.8125 0 200.742188 8.925781 200.742188 19.9375 C 200.742188 30.953125 191.8125 39.878906 180.800781 39.878906 L 20.925781 39.878906 C 9.914062 39.878906 0.988281 30.953125 0.988281 19.9375 C 0.988281 8.925781 9.914062 0 20.925781 0 Z M 20.925781 0 " clip-rule="nonzero"/></clipPath></defs><g clip-path="url(#b2a61d7e4c)"><path fill="#ffffff" d="M 0.988281 0 L 201.019531 0 L 201.019531 40.007812 L 0.988281 40.007812 Z M 0.988281 0 " fill-opacity="1" fill-rule="nonzero"/></g><g clip-path="url(#041c940df0)"><g clip-path="url(#b527750438)"><g transform="matrix(1, 0, 0, 1, 0.000000000000000111, 0)"><g clip-path="url(#6d848b4791)"><g clip-path="url(#484e14e99d)"><g clip-path="url(#54d66854bb)"><path fill="#1a2738" d="M 0.988281 0 L 200.695312 0 L 200.695312 39.878906 L 0.988281 39.878906 Z M 0.988281 0 " fill-opacity="1" fill-rule="nonzero"/></g></g></g></g></g></g><g clip-path="url(#c5d0497ca3)"><g clip-path="url(#92ca1c0c3d)"><path stroke-linecap="butt" transform="matrix(0.740854, 0, 0, 0.740854, 0.987808, 0)" fill="none" stroke-linejoin="miter" d="M 26.912163 0 L 242.710533 0 C 257.574089 0 269.627331 12.047969 269.627331 26.911525 C 269.627331 41.780353 257.574089 53.828322 242.710533 53.828322 L 26.912163 53.828322 C 12.048607 53.828322 0.000638326 41.780353 0.000638326 26.911525 C 0.000638326 12.047969 12.048607 0 26.912163 0 Z M 26.912163 0 " stroke="#6797df" stroke-width="4" stroke-opacity="1" stroke-miterlimit="4"/></g></g><g fill="#6797df" fill-opacity="1"><g transform="translate(23.883542, 24.448169)"><g><path d="M 5.625 0.140625 C 4.582031 0.140625 3.675781 -0.0078125 2.90625 -0.3125 C 2.132812 -0.625 1.535156 -1.097656 1.109375 -1.734375 C 0.679688 -2.378906 0.46875 -3.203125 0.46875 -4.203125 L 3.546875 -4.203125 C 3.566406 -3.648438 3.753906 -3.226562 4.109375 -2.9375 C 4.460938 -2.65625 4.953125 -2.515625 5.578125 -2.515625 C 6.097656 -2.515625 6.488281 -2.609375 6.75 -2.796875 C 7.019531 -2.984375 7.15625 -3.226562 7.15625 -3.53125 C 7.15625 -3.789062 7.019531 -4.007812 6.75 -4.1875 C 6.488281 -4.375 6.03125 -4.535156 5.375 -4.671875 L 4.171875 -4.9375 C 3.117188 -5.15625 2.285156 -5.535156 1.671875 -6.078125 C 1.066406 -6.617188 0.765625 -7.359375 0.765625 -8.296875 C 0.765625 -9.054688 0.96875 -9.71875 1.375 -10.28125 C 1.789062 -10.851562 2.359375 -11.296875 3.078125 -11.609375 C 3.804688 -11.929688 4.644531 -12.09375 5.59375 -12.09375 C 6.5625 -12.09375 7.394531 -11.929688 8.09375 -11.609375 C 8.789062 -11.285156 9.332031 -10.832031 9.71875 -10.25 C 10.101562 -9.664062 10.296875 -8.984375 10.296875 -8.203125 L 7.1875 -8.203125 C 7.164062 -8.585938 7.023438 -8.890625 6.765625 -9.109375 C 6.503906 -9.328125 6.113281 -9.4375 5.59375 -9.4375 C 5.09375 -9.4375 4.726562 -9.347656 4.5 -9.171875 C 4.269531 -9.003906 4.15625 -8.789062 4.15625 -8.53125 C 4.15625 -8.238281 4.28125 -8.003906 4.53125 -7.828125 C 4.78125 -7.648438 5.1875 -7.503906 5.75 -7.390625 L 6.734375 -7.171875 C 8.046875 -6.898438 8.992188 -6.453125 9.578125 -5.828125 C 10.171875 -5.203125 10.46875 -4.4375 10.46875 -3.53125 C 10.46875 -2.34375 10.035156 -1.429688 9.171875 -0.796875 C 8.316406 -0.171875 7.132812 0.140625 5.625 0.140625 Z M 5.625 0.140625 "/></g></g></g><g fill="#6797df" fill-opacity="1"><g transform="translate(36.449385, 24.448169)"><g><path d="M 3.3125 0.140625 C 2.457031 0.140625 1.757812 -0.0703125 1.21875 -0.5 C 0.675781 -0.925781 0.40625 -1.582031 0.40625 -2.46875 C 0.40625 -3.125 0.550781 -3.648438 0.84375 -4.046875 C 1.132812 -4.453125 1.523438 -4.753906 2.015625 -4.953125 C 2.515625 -5.148438 3.070312 -5.269531 3.6875 -5.3125 C 4.4375 -5.375 4.96875 -5.457031 5.28125 -5.5625 C 5.59375 -5.664062 5.75 -5.847656 5.75 -6.109375 L 5.75 -6.140625 C 5.75 -6.367188 5.65625 -6.546875 5.46875 -6.671875 C 5.289062 -6.796875 5.050781 -6.859375 4.75 -6.859375 C 4.4375 -6.859375 4.171875 -6.789062 3.953125 -6.65625 C 3.742188 -6.53125 3.613281 -6.332031 3.5625 -6.0625 L 0.65625 -6.34375 C 0.738281 -6.84375 0.945312 -7.296875 1.28125 -7.703125 C 1.613281 -8.117188 2.070312 -8.445312 2.65625 -8.6875 C 3.238281 -8.9375 3.953125 -9.0625 4.796875 -9.0625 C 5.640625 -9.0625 6.375 -8.929688 7 -8.671875 C 7.632812 -8.421875 8.117188 -8.070312 8.453125 -7.625 C 8.796875 -7.1875 8.96875 -6.691406 8.96875 -6.140625 L 8.96875 0 L 5.953125 0 L 5.953125 -1.265625 L 5.890625 -1.265625 C 5.617188 -0.765625 5.265625 -0.40625 4.828125 -0.1875 C 4.398438 0.0273438 3.894531 0.140625 3.3125 0.140625 Z M 4.359375 -1.890625 C 4.722656 -1.890625 5.050781 -2 5.34375 -2.21875 C 5.632812 -2.445312 5.78125 -2.765625 5.78125 -3.171875 L 5.78125 -3.90625 C 5.445312 -3.78125 5.019531 -3.675781 4.5 -3.59375 C 4.125 -3.53125 3.847656 -3.414062 3.671875 -3.25 C 3.503906 -3.082031 3.421875 -2.882812 3.421875 -2.65625 C 3.421875 -2.40625 3.507812 -2.210938 3.6875 -2.078125 C 3.863281 -1.953125 4.085938 -1.890625 4.359375 -1.890625 Z M 4.359375 -1.890625 "/></g></g></g><g fill="#6797df" fill-opacity="1"><g transform="translate(47.877913, 24.448169)"><g><path d="M 0.8125 0 L 0.8125 -8.953125 L 3.75 -8.953125 L 3.921875 -7.125 C 4.171875 -7.820312 4.53125 -8.316406 5 -8.609375 C 5.46875 -8.910156 5.972656 -9.0625 6.515625 -9.0625 C 7.085938 -9.0625 7.554688 -8.898438 7.921875 -8.578125 C 8.285156 -8.253906 8.59375 -7.695312 8.84375 -6.90625 C 9.125 -7.695312 9.53125 -8.253906 10.0625 -8.578125 C 10.601562 -8.898438 11.175781 -9.0625 11.78125 -9.0625 C 12.632812 -9.0625 13.328125 -8.785156 13.859375 -8.234375 C 14.390625 -7.691406 14.65625 -6.960938 14.65625 -6.046875 L 14.65625 0 L 11.4375 0 L 11.4375 -5.21875 C 11.4375 -5.613281 11.335938 -5.921875 11.140625 -6.140625 C 10.941406 -6.359375 10.675781 -6.46875 10.34375 -6.46875 C 10.019531 -6.46875 9.757812 -6.359375 9.5625 -6.140625 C 9.375 -5.921875 9.28125 -5.613281 9.28125 -5.21875 L 9.28125 0 L 6.203125 0 L 6.203125 -5.21875 C 6.203125 -5.613281 6.101562 -5.921875 5.90625 -6.140625 C 5.707031 -6.359375 5.441406 -6.46875 5.109375 -6.46875 C 4.773438 -6.46875 4.507812 -6.359375 4.3125 -6.140625 C 4.125 -5.921875 4.03125 -5.613281 4.03125 -5.21875 L 4.03125 0 Z M 0.8125 0 "/></g></g></g><g fill="#6797df" fill-opacity="1"><g transform="translate(64.993015, 24.448169)"><g><path d="M 0.8125 0 L 0.8125 -8.953125 L 3.75 -8.953125 L 3.921875 -7.125 C 4.171875 -7.820312 4.53125 -8.316406 5 -8.609375 C 5.46875 -8.910156 5.972656 -9.0625 6.515625 -9.0625 C 7.085938 -9.0625 7.554688 -8.898438 7.921875 -8.578125 C 8.285156 -8.253906 8.59375 -7.695312 8.84375 -6.90625 C 9.125 -7.695312 9.53125 -8.253906 10.0625 -8.578125 C 10.601562 -8.898438 11.175781 -9.0625 11.78125 -9.0625 C 12.632812 -9.0625 13.328125 -8.785156 13.859375 -8.234375 C 14.390625 -7.691406 14.65625 -6.960938 14.65625 -6.046875 L 14.65625 0 L 11.4375 0 L 11.4375 -5.21875 C 11.4375 -5.613281 11.335938 -5.921875 11.140625 -6.140625 C 10.941406 -6.359375 10.675781 -6.46875 10.34375 -6.46875 C 10.019531 -6.46875 9.757812 -6.359375 9.5625 -6.140625 C 9.375 -5.921875 9.28125 -5.613281 9.28125 -5.21875 L 9.28125 0 L 6.203125 0 L 6.203125 -5.21875 C 6.203125 -5.613281 6.101562 -5.921875 5.90625 -6.140625 C 5.707031 -6.359375 5.441406 -6.46875 5.109375 -6.46875 C 4.773438 -6.46875 4.507812 -6.359375 4.3125 -6.140625 C 4.125 -5.921875 4.03125 -5.613281 4.03125 -5.21875 L 4.03125 0 Z M 0.8125 0 "/></g></g></g><g fill="#6797df" fill-opacity="1"><g transform="translate(82.108117, 24.448169)"><g><path d="M 4.03125 -11.9375 L 4.03125 0 L 0.8125 0 L 0.8125 -11.9375 Z M 4.03125 -11.9375 "/></g></g></g><g fill="#6797df" fill-opacity="1"><g transform="translate(88.602942, 24.448169)"><g><path d="M 3.9375 0.109375 C 3.3125 0.109375 2.765625 -0.03125 2.296875 -0.3125 C 1.828125 -0.601562 1.460938 -1.003906 1.203125 -1.515625 C 0.941406 -2.023438 0.8125 -2.601562 0.8125 -3.25 L 0.8125 -8.953125 L 4.03125 -8.953125 L 4.03125 -3.921875 C 4.03125 -3.484375 4.140625 -3.132812 4.359375 -2.875 C 4.585938 -2.625 4.90625 -2.5 5.3125 -2.5 C 5.707031 -2.5 6.019531 -2.625 6.25 -2.875 C 6.488281 -3.132812 6.609375 -3.484375 6.609375 -3.921875 L 6.609375 -8.953125 L 9.84375 -8.953125 L 9.84375 0 L 6.8125 0 L 6.765625 -2.015625 C 6.546875 -1.410156 6.210938 -0.90625 5.765625 -0.5 C 5.316406 -0.09375 4.707031 0.109375 3.9375 0.109375 Z M 3.9375 0.109375 "/></g></g></g><g fill="#6797df" fill-opacity="1"><g transform="translate(100.89647, 24.448169)"><g><path d="M 4.03125 -5.03125 L 4.03125 0 L 0.8125 0 L 0.8125 -8.953125 L 3.84375 -8.953125 L 3.890625 -6.9375 C 4.109375 -7.539062 4.441406 -8.046875 4.890625 -8.453125 C 5.335938 -8.859375 5.945312 -9.0625 6.71875 -9.0625 C 7.351562 -9.0625 7.898438 -8.914062 8.359375 -8.625 C 8.828125 -8.34375 9.191406 -7.945312 9.453125 -7.4375 C 9.710938 -6.9375 9.84375 -6.359375 9.84375 -5.703125 L 9.84375 0 L 6.609375 0 L 6.609375 -5.03125 C 6.609375 -5.476562 6.492188 -5.828125 6.265625 -6.078125 C 6.046875 -6.328125 5.734375 -6.453125 5.328125 -6.453125 C 4.941406 -6.453125 4.628906 -6.328125 4.390625 -6.078125 C 4.148438 -5.828125 4.03125 -5.476562 4.03125 -5.03125 Z M 4.03125 -5.03125 "/></g></g></g><g fill="#6797df" fill-opacity="1"><g transform="translate(113.189998, 24.448169)"><g><path d="M 5.09375 3.546875 C 3.875 3.546875 2.882812 3.316406 2.125 2.859375 C 1.363281 2.398438 0.914062 1.789062 0.78125 1.03125 L 3.609375 0.609375 C 3.660156 0.847656 3.816406 1.035156 4.078125 1.171875 C 4.335938 1.304688 4.671875 1.375 5.078125 1.375 C 6.117188 1.375 6.640625 0.910156 6.640625 -0.015625 L 6.640625 -1.53125 L 6.40625 -1.53125 C 6.226562 -1.082031 5.9375 -0.734375 5.53125 -0.484375 C 5.125 -0.234375 4.617188 -0.109375 4.015625 -0.109375 C 3.378906 -0.109375 2.796875 -0.253906 2.265625 -0.546875 C 1.734375 -0.847656 1.304688 -1.316406 0.984375 -1.953125 C 0.660156 -2.597656 0.5 -3.4375 0.5 -4.46875 C 0.5 -5.550781 0.664062 -6.429688 1 -7.109375 C 1.34375 -7.785156 1.78125 -8.28125 2.3125 -8.59375 C 2.84375 -8.90625 3.40625 -9.0625 4 -9.0625 C 4.664062 -9.0625 5.210938 -8.894531 5.640625 -8.5625 C 6.066406 -8.238281 6.367188 -7.847656 6.546875 -7.390625 L 6.609375 -7.390625 L 6.609375 -8.953125 L 9.8125 -8.953125 L 9.8125 -0.34375 C 9.8125 0.496094 9.613281 1.207031 9.21875 1.78125 C 8.820312 2.363281 8.269531 2.800781 7.5625 3.09375 C 6.863281 3.394531 6.039062 3.546875 5.09375 3.546875 Z M 5.203125 -2.40625 C 5.648438 -2.40625 6 -2.585938 6.25 -2.953125 C 6.507812 -3.316406 6.640625 -3.820312 6.640625 -4.46875 C 6.640625 -5.132812 6.507812 -5.65625 6.25 -6.03125 C 6 -6.40625 5.648438 -6.59375 5.203125 -6.59375 C 4.765625 -6.59375 4.421875 -6.40625 4.171875 -6.03125 C 3.929688 -5.65625 3.8125 -5.132812 3.8125 -4.46875 C 3.8125 -3.8125 3.929688 -3.300781 4.171875 -2.9375 C 4.421875 -2.582031 4.765625 -2.40625 5.203125 -2.40625 Z M 5.203125 -2.40625 "/></g></g></g><g fill="#6797df" fill-opacity="1"><g transform="translate(125.45149, 24.448169)"><g/></g></g><g fill="#6797df" fill-opacity="1"><g transform="translate(130.360481, 24.448169)"><g><path d="M 0.1875 0 L 2.859375 -4.59375 L 0.34375 -8.953125 L 3.71875 -8.953125 L 4.265625 -7.8125 C 4.398438 -7.539062 4.523438 -7.257812 4.640625 -6.96875 C 4.765625 -6.6875 4.882812 -6.40625 5 -6.125 C 5.132812 -6.40625 5.265625 -6.6875 5.390625 -6.96875 C 5.523438 -7.257812 5.660156 -7.539062 5.796875 -7.8125 L 6.390625 -8.953125 L 9.703125 -8.953125 L 7.109375 -4.59375 L 9.8125 0 L 6.46875 0 L 5.75 -1.40625 C 5.601562 -1.6875 5.460938 -1.972656 5.328125 -2.265625 C 5.203125 -2.554688 5.070312 -2.847656 4.9375 -3.140625 C 4.820312 -2.847656 4.703125 -2.554688 4.578125 -2.265625 C 4.453125 -1.972656 4.320312 -1.6875 4.1875 -1.40625 L 3.484375 0 Z M 0.1875 0 "/></g></g></g><g fill="#6797df" fill-opacity="1"><g transform="translate(141.99725, 24.448169)"><g><path d="M 0.78125 0 L 0.78125 -2.328125 L 5.234375 -6.015625 C 5.679688 -6.367188 6.03125 -6.703125 6.28125 -7.015625 C 6.539062 -7.335938 6.671875 -7.710938 6.671875 -8.140625 C 6.671875 -8.585938 6.523438 -8.941406 6.234375 -9.203125 C 5.953125 -9.460938 5.585938 -9.59375 5.140625 -9.59375 C 4.691406 -9.59375 4.328125 -9.457031 4.046875 -9.1875 C 3.773438 -8.925781 3.640625 -8.546875 3.640625 -8.046875 L 0.5625 -8.046875 C 0.5625 -8.878906 0.75 -9.597656 1.125 -10.203125 C 1.5 -10.804688 2.03125 -11.269531 2.71875 -11.59375 C 3.40625 -11.925781 4.210938 -12.09375 5.140625 -12.09375 C 6.097656 -12.09375 6.925781 -11.941406 7.625 -11.640625 C 8.320312 -11.335938 8.863281 -10.910156 9.25 -10.359375 C 9.632812 -9.804688 9.828125 -9.15625 9.828125 -8.40625 C 9.828125 -7.945312 9.726562 -7.492188 9.53125 -7.046875 C 9.34375 -6.597656 9.003906 -6.097656 8.515625 -5.546875 C 8.023438 -4.992188 7.320312 -4.34375 6.40625 -3.59375 L 5.28125 -2.65625 L 5.28125 -2.578125 L 9.953125 -2.578125 L 9.953125 0 Z M 0.78125 0 "/></g></g></g><g fill="#6797df" fill-opacity="1"><g transform="translate(154.242723, 24.448169)"><g><path d="M 5.453125 0.15625 C 4.503906 0.15625 3.664062 -0.00390625 2.9375 -0.328125 C 2.207031 -0.648438 1.632812 -1.09375 1.21875 -1.65625 C 0.8125 -2.226562 0.609375 -2.890625 0.609375 -3.640625 L 3.859375 -3.640625 C 3.859375 -3.285156 4.007812 -3 4.3125 -2.78125 C 4.625 -2.5625 5.015625 -2.453125 5.484375 -2.453125 C 5.929688 -2.453125 6.289062 -2.566406 6.5625 -2.796875 C 6.84375 -3.023438 6.984375 -3.328125 6.984375 -3.703125 C 6.984375 -4.066406 6.820312 -4.363281 6.5 -4.59375 C 6.175781 -4.820312 5.75 -4.9375 5.21875 -4.9375 L 4 -4.9375 L 4 -7.171875 L 5.21875 -7.171875 C 5.695312 -7.171875 6.085938 -7.285156 6.390625 -7.515625 C 6.703125 -7.753906 6.859375 -8.050781 6.859375 -8.40625 C 6.859375 -8.757812 6.726562 -9.046875 6.46875 -9.265625 C 6.21875 -9.484375 5.890625 -9.59375 5.484375 -9.59375 C 5.035156 -9.59375 4.664062 -9.476562 4.375 -9.25 C 4.082031 -9.019531 3.9375 -8.722656 3.9375 -8.359375 L 0.828125 -8.359375 C 0.828125 -9.085938 1.023438 -9.734375 1.421875 -10.296875 C 1.828125 -10.859375 2.378906 -11.296875 3.078125 -11.609375 C 3.773438 -11.929688 4.578125 -12.09375 5.484375 -12.09375 C 6.359375 -12.09375 7.132812 -11.941406 7.8125 -11.640625 C 8.5 -11.347656 9.03125 -10.9375 9.40625 -10.40625 C 9.789062 -9.882812 9.984375 -9.289062 9.984375 -8.625 C 9.984375 -7.957031 9.75 -7.410156 9.28125 -6.984375 C 8.820312 -6.554688 8.238281 -6.300781 7.53125 -6.21875 L 7.53125 -6.140625 C 8.488281 -6.023438 9.207031 -5.726562 9.6875 -5.25 C 10.175781 -4.769531 10.421875 -4.160156 10.421875 -3.421875 C 10.421875 -2.722656 10.207031 -2.101562 9.78125 -1.5625 C 9.351562 -1.019531 8.765625 -0.597656 8.015625 -0.296875 C 7.273438 0.00390625 6.421875 0.15625 5.453125 0.15625 Z M 5.453125 0.15625 "/></g></g></g><g fill="#6797df" fill-opacity="1"><g transform="translate(166.856621, 24.448169)"><g><path d="M 5.453125 0.15625 C 4.503906 0.15625 3.664062 -0.00390625 2.9375 -0.328125 C 2.207031 -0.648438 1.632812 -1.09375 1.21875 -1.65625 C 0.8125 -2.226562 0.609375 -2.890625 0.609375 -3.640625 L 3.859375 -3.640625 C 3.859375 -3.285156 4.007812 -3 4.3125 -2.78125 C 4.625 -2.5625 5.015625 -2.453125 5.484375 -2.453125 C 5.929688 -2.453125 6.289062 -2.566406 6.5625 -2.796875 C 6.84375 -3.023438 6.984375 -3.328125 6.984375 -3.703125 C 6.984375 -4.066406 6.820312 -4.363281 6.5 -4.59375 C 6.175781 -4.820312 5.75 -4.9375 5.21875 -4.9375 L 4 -4.9375 L 4 -7.171875 L 5.21875 -7.171875 C 5.695312 -7.171875 6.085938 -7.285156 6.390625 -7.515625 C 6.703125 -7.753906 6.859375 -8.050781 6.859375 -8.40625 C 6.859375 -8.757812 6.726562 -9.046875 6.46875 -9.265625 C 6.21875 -9.484375 5.890625 -9.59375 5.484375 -9.59375 C 5.035156 -9.59375 4.664062 -9.476562 4.375 -9.25 C 4.082031 -9.019531 3.9375 -8.722656 3.9375 -8.359375 L 0.828125 -8.359375 C 0.828125 -9.085938 1.023438 -9.734375 1.421875 -10.296875 C 1.828125 -10.859375 2.378906 -11.296875 3.078125 -11.609375 C 3.773438 -11.929688 4.578125 -12.09375 5.484375 -12.09375 C 6.359375 -12.09375 7.132812 -11.941406 7.8125 -11.640625 C 8.5 -11.347656 9.03125 -10.9375 9.40625 -10.40625 C 9.789062 -9.882812 9.984375 -9.289062 9.984375 -8.625 C 9.984375 -7.957031 9.75 -7.410156 9.28125 -6.984375 C 8.820312 -6.554688 8.238281 -6.300781 7.53125 -6.21875 L 7.53125 -6.140625 C 8.488281 -6.023438 9.207031 -5.726562 9.6875 -5.25 C 10.175781 -4.769531 10.421875 -4.160156 10.421875 -3.421875 C 10.421875 -2.722656 10.207031 -2.101562 9.78125 -1.5625 C 9.351562 -1.019531 8.765625 -0.597656 8.015625 -0.296875 C 7.273438 0.00390625 6.421875 0.15625 5.453125 0.15625 Z M 5.453125 0.15625 "/></g></g></g></svg>