<svg xmlns="http://www.w3.org/2000/svg" xmlns:xlink="http://www.w3.org/1999/xlink" width="191" zoomAndPan="magnify" viewBox="0 0 143.25 154.499994" height="206" preserveAspectRatio="xMidYMid meet" version="1.0"><defs><g/><clipPath id="a2f5ddbe4b"><path d="M 0 0.152344 L 142.503906 0.152344 L 142.503906 153.847656 L 0 153.847656 Z M 0 0.152344 " clip-rule="nonzero"/></clipPath><clipPath id="b91a84b27a"><path d="M 0 0.152344 L 142.078125 0.152344 L 142.078125 153.332031 L 0 153.332031 Z M 0 0.152344 " clip-rule="nonzero"/></clipPath><clipPath id="fbb6d27db4"><path d="M 14.757812 0.152344 L 127.320312 0.152344 C 135.472656 0.152344 142.078125 6.761719 142.078125 14.910156 L 142.078125 138.390625 C 142.078125 146.539062 135.472656 153.144531 127.320312 153.144531 L 14.757812 153.144531 C 6.605469 153.144531 0 146.539062 0 138.390625 L 0 14.910156 C 0 6.761719 6.605469 0.152344 14.757812 0.152344 Z M 14.757812 0.152344 " clip-rule="nonzero"/></clipPath><clipPath id="35a93a5e4c"><path d="M 0 0.152344 L 142.078125 0.152344 L 142.078125 153.191406 L 0 153.191406 Z M 0 0.152344 " clip-rule="nonzero"/></clipPath><clipPath id="51fde3fd5f"><path d="M 14.757812 0.152344 L 127.320312 0.152344 C 135.472656 0.152344 142.078125 6.761719 142.078125 14.910156 L 142.078125 138.390625 C 142.078125 146.539062 135.472656 153.144531 127.320312 153.144531 L 14.757812 153.144531 C 6.605469 153.144531 0 146.539062 0 138.390625 L 0 14.910156 C 0 6.761719 6.605469 0.152344 14.757812 0.152344 Z M 14.757812 0.152344 " clip-rule="nonzero"/></clipPath><clipPath id="1009d648c6"><rect x="0" width="143" y="0" height="154"/></clipPath><clipPath id="eb8e5117f3"><path d="M 0 0.152344 L 141.757812 0.152344 L 141.757812 153.101562 L 0 153.101562 Z M 0 0.152344 " clip-rule="nonzero"/></clipPath><clipPath id="eac5e0a20f"><path d="M 14.757812 0.152344 L 127.316406 0.152344 C 135.464844 0.152344 142.070312 6.761719 142.070312 14.910156 L 142.070312 138.382812 C 142.070312 146.53125 135.464844 153.136719 127.316406 153.136719 L 14.757812 153.136719 C 6.605469 153.136719 0 146.53125 0 138.382812 L 0 14.910156 C 0 6.761719 6.605469 0.152344 14.757812 0.152344 Z M 14.757812 0.152344 " clip-rule="nonzero"/></clipPath><clipPath id="aaa699da8b"><path d="M 49 62 L 92.933594 62 L 92.933594 114 L 49 114 Z M 49 62 " clip-rule="nonzero"/></clipPath><clipPath id="0c1c3d9381"><rect x="0" width="102" y="0" height="34"/></clipPath></defs><g clip-path="url(#a2f5ddbe4b)"><path fill="#ffffff" d="M 0 0.152344 L 142.503906 0.152344 L 142.503906 153.847656 L 0 153.847656 Z M 0 0.152344 " fill-opacity="1" fill-rule="nonzero"/></g><g clip-path="url(#b91a84b27a)"><g clip-path="url(#fbb6d27db4)"><g transform="matrix(1, 0, 0, 1, -0, 0.000000000000006939)"><g clip-path="url(#1009d648c6)"><g clip-path="url(#35a93a5e4c)"><g clip-path="url(#51fde3fd5f)"><path fill="#112413" d="M 0 0.152344 L 142.078125 0.152344 L 142.078125 153.332031 L 0 153.332031 Z M 0 0.152344 " fill-opacity="1" fill-rule="nonzero"/></g></g></g></g></g></g><g clip-path="url(#eb8e5117f3)"><g clip-path="url(#eac5e0a20f)"><path stroke-linecap="butt" transform="matrix(0.746094, 0, 0, 0.746094, 0.000000000000002665, 0.153642)" fill="none" stroke-linejoin="miter" d="M 19.780106 -0.00173985 L 170.643986 -0.00173985 C 181.565453 -0.00173985 190.418856 8.856899 190.418856 19.778366 L 190.418856 185.270519 C 190.418856 196.191986 181.565453 205.045389 170.643986 205.045389 L 19.780106 205.045389 C 8.853404 205.045389 -0.000000000000003571 196.191986 -0.000000000000003571 185.270519 L -0.000000000000003571 19.778366 C -0.000000000000003571 8.856899 8.853404 -0.00173985 19.780106 -0.00173985 Z M 19.780106 -0.00173985 " stroke="#5abe6b" stroke-width="4" stroke-opacity="1" stroke-miterlimit="4"/></g></g><g clip-path="url(#aaa699da8b)"><path fill="#5ec269" d="M 90.09375 91.933594 L 56.054688 113.265625 C 53.054688 115.144531 49.15625 112.988281 49.15625 109.445312 L 49.15625 66.78125 C 49.15625 63.238281 53.054688 61.082031 56.054688 62.964844 L 90.09375 84.296875 C 92.910156 86.0625 92.910156 90.164062 90.09375 91.933594 " fill-opacity="1" fill-rule="nonzero"/></g><g transform="matrix(1, 0, 0, 1, 20, 13)"><g clip-path="url(#0c1c3d9381)"><g fill="#5ec269" fill-opacity="1"><g transform="translate(1.185507, 26.960536)"><g><path d="M 9.1875 0.296875 C 6.769531 0.296875 4.835938 -0.253906 3.390625 -1.359375 C 1.953125 -2.472656 1.203125 -4.097656 1.140625 -6.234375 L 5.15625 -6.234375 C 5.226562 -5.210938 5.632812 -4.445312 6.375 -3.9375 C 7.113281 -3.4375 8.035156 -3.1875 9.140625 -3.1875 C 10.242188 -3.1875 11.128906 -3.421875 11.796875 -3.890625 C 12.460938 -4.359375 12.796875 -4.976562 12.796875 -5.75 C 12.796875 -6.4375 12.492188 -6.960938 11.890625 -7.328125 C 11.285156 -7.703125 10.429688 -8.023438 9.328125 -8.296875 L 7.125 -8.84375 C 5.425781 -9.257812 4.09375 -9.910156 3.125 -10.796875 C 2.164062 -11.679688 1.6875 -12.851562 1.6875 -14.3125 C 1.6875 -15.519531 2.007812 -16.578125 2.65625 -17.484375 C 3.3125 -18.398438 4.207031 -19.109375 5.34375 -19.609375 C 6.476562 -20.117188 7.773438 -20.375 9.234375 -20.375 C 10.722656 -20.375 12.019531 -20.117188 13.125 -19.609375 C 14.226562 -19.097656 15.085938 -18.390625 15.703125 -17.484375 C 16.328125 -16.578125 16.648438 -15.535156 16.671875 -14.359375 L 12.6875 -14.359375 C 12.613281 -15.171875 12.269531 -15.796875 11.65625 -16.234375 C 11.039062 -16.679688 10.222656 -16.90625 9.203125 -16.90625 C 8.148438 -16.90625 7.335938 -16.6875 6.765625 -16.25 C 6.191406 -15.8125 5.90625 -15.253906 5.90625 -14.578125 C 5.90625 -13.835938 6.226562 -13.28125 6.875 -12.90625 C 7.519531 -12.539062 8.269531 -12.253906 9.125 -12.046875 L 10.9375 -11.59375 C 12.0625 -11.332031 13.078125 -10.957031 13.984375 -10.46875 C 14.890625 -9.976562 15.609375 -9.34375 16.140625 -8.5625 C 16.671875 -7.789062 16.9375 -6.84375 16.9375 -5.71875 C 16.9375 -3.894531 16.253906 -2.4375 14.890625 -1.34375 C 13.535156 -0.25 11.632812 0.296875 9.1875 0.296875 Z M 9.1875 0.296875 "/></g></g></g><g fill="#5ec269" fill-opacity="1"><g transform="translate(19.277464, 26.960536)"><g><path d="M 9.21875 -15.078125 L 9.21875 -11.984375 L 6.390625 -11.984375 L 6.390625 -4.40625 C 6.390625 -3.476562 6.847656 -3.015625 7.765625 -3.015625 C 7.921875 -3.015625 8.132812 -3.03125 8.40625 -3.0625 C 8.6875 -3.101562 8.898438 -3.144531 9.046875 -3.1875 L 9.625 -0.140625 C 9.175781 -0.015625 8.726562 0.0703125 8.28125 0.125 C 7.84375 0.1875 7.421875 0.21875 7.015625 0.21875 C 5.503906 0.21875 4.347656 -0.144531 3.546875 -0.875 C 2.742188 -1.613281 2.34375 -2.675781 2.34375 -4.0625 L 2.34375 -11.984375 L 0.265625 -11.984375 L 0.265625 -15.078125 L 2.34375 -15.078125 L 2.34375 -18.671875 L 6.390625 -18.671875 L 6.390625 -15.078125 Z M 9.21875 -15.078125 "/></g></g></g><g fill="#5ec269" fill-opacity="1"><g transform="translate(29.530928, 26.960536)"><g><path d="M 5.9375 0.296875 C 4.5 0.296875 3.300781 -0.0820312 2.34375 -0.84375 C 1.394531 -1.601562 0.921875 -2.726562 0.921875 -4.21875 C 0.921875 -5.34375 1.1875 -6.222656 1.71875 -6.859375 C 2.257812 -7.503906 2.960938 -7.972656 3.828125 -8.265625 C 4.691406 -8.566406 5.617188 -8.757812 6.609375 -8.84375 C 7.898438 -8.96875 8.832031 -9.097656 9.40625 -9.234375 C 9.976562 -9.378906 10.265625 -9.703125 10.265625 -10.203125 L 10.265625 -10.265625 C 10.265625 -10.898438 10.054688 -11.394531 9.640625 -11.75 C 9.234375 -12.101562 8.65625 -12.28125 7.90625 -12.28125 C 7.125 -12.28125 6.492188 -12.109375 6.015625 -11.765625 C 5.535156 -11.429688 5.21875 -11.019531 5.0625 -10.53125 L 1.34375 -11.15625 C 1.726562 -12.457031 2.5 -13.46875 3.65625 -14.1875 C 4.8125 -14.90625 6.234375 -15.265625 7.921875 -15.265625 C 8.992188 -15.265625 10.019531 -15.09375 11 -14.75 C 11.976562 -14.414062 12.773438 -13.867188 13.390625 -13.109375 C 14.003906 -12.359375 14.3125 -11.375 14.3125 -10.15625 L 14.3125 0 L 10.484375 0 L 10.484375 -2.09375 L 10.34375 -2.09375 C 9.976562 -1.382812 9.429688 -0.804688 8.703125 -0.359375 C 7.972656 0.0742188 7.050781 0.296875 5.9375 0.296875 Z M 7.078125 -2.546875 C 8.023438 -2.546875 8.796875 -2.816406 9.390625 -3.359375 C 9.992188 -3.910156 10.296875 -4.585938 10.296875 -5.390625 L 10.296875 -7.03125 C 10.128906 -6.914062 9.863281 -6.8125 9.5 -6.71875 C 9.132812 -6.632812 8.75 -6.554688 8.34375 -6.484375 C 7.945312 -6.421875 7.597656 -6.375 7.296875 -6.34375 C 6.546875 -6.226562 5.941406 -6.015625 5.484375 -5.703125 C 5.023438 -5.390625 4.796875 -4.929688 4.796875 -4.328125 C 4.796875 -3.742188 5.007812 -3.300781 5.4375 -3 C 5.863281 -2.695312 6.410156 -2.546875 7.078125 -2.546875 Z M 7.078125 -2.546875 "/></g></g></g><g fill="#5ec269" fill-opacity="1"><g transform="translate(45.572194, 26.960536)"><g><path d="M 1.734375 0 L 1.734375 -15.078125 L 5.640625 -15.078125 L 5.640625 -12.453125 L 5.796875 -12.453125 C 6.078125 -13.378906 6.539062 -14.082031 7.1875 -14.5625 C 7.84375 -15.039062 8.59375 -15.28125 9.4375 -15.28125 C 9.894531 -15.28125 10.332031 -15.234375 10.75 -15.140625 L 10.75 -11.53125 C 10.570312 -11.582031 10.304688 -11.628906 9.953125 -11.671875 C 9.609375 -11.710938 9.289062 -11.734375 9 -11.734375 C 8.0625 -11.734375 7.285156 -11.441406 6.671875 -10.859375 C 6.066406 -10.273438 5.765625 -9.515625 5.765625 -8.578125 L 5.765625 0 Z M 1.734375 0 "/></g></g></g><g fill="#5ec269" fill-opacity="1"><g transform="translate(57.363685, 26.960536)"><g><path d="M 9.21875 -15.078125 L 9.21875 -11.984375 L 6.390625 -11.984375 L 6.390625 -4.40625 C 6.390625 -3.476562 6.847656 -3.015625 7.765625 -3.015625 C 7.921875 -3.015625 8.132812 -3.03125 8.40625 -3.0625 C 8.6875 -3.101562 8.898438 -3.144531 9.046875 -3.1875 L 9.625 -0.140625 C 9.175781 -0.015625 8.726562 0.0703125 8.28125 0.125 C 7.84375 0.1875 7.421875 0.21875 7.015625 0.21875 C 5.503906 0.21875 4.347656 -0.144531 3.546875 -0.875 C 2.742188 -1.613281 2.34375 -2.675781 2.34375 -4.0625 L 2.34375 -11.984375 L 0.265625 -11.984375 L 0.265625 -15.078125 L 2.34375 -15.078125 L 2.34375 -18.671875 L 6.390625 -18.671875 L 6.390625 -15.078125 Z M 9.21875 -15.078125 "/></g></g></g><g fill="#5ec269" fill-opacity="1"><g transform="translate(67.212391, 26.960536)"><g><path d="M 8.53125 0.296875 C 7 0.296875 5.675781 -0.015625 4.5625 -0.640625 C 3.445312 -1.273438 2.585938 -2.171875 1.984375 -3.328125 C 1.390625 -4.492188 1.09375 -5.867188 1.09375 -7.453125 C 1.09375 -9.015625 1.390625 -10.378906 1.984375 -11.546875 C 2.585938 -12.710938 3.429688 -13.625 4.515625 -14.28125 C 5.597656 -14.9375 6.875 -15.265625 8.34375 -15.265625 C 9.65625 -15.265625 10.84375 -14.984375 11.90625 -14.421875 C 12.976562 -13.867188 13.832031 -13.023438 14.46875 -11.890625 C 15.101562 -10.765625 15.421875 -9.34375 15.421875 -7.625 L 15.421875 -6.484375 L 5.09375 -6.484375 C 5.144531 -5.253906 5.488281 -4.320312 6.125 -3.6875 C 6.757812 -3.0625 7.585938 -2.75 8.609375 -2.75 C 9.316406 -2.75 9.925781 -2.898438 10.4375 -3.203125 C 10.945312 -3.503906 11.304688 -3.945312 11.515625 -4.53125 L 15.1875 -3.84375 C 14.820312 -2.59375 14.0625 -1.585938 12.90625 -0.828125 C 11.75 -0.078125 10.289062 0.296875 8.53125 0.296875 Z M 5.125 -9.03125 L 11.515625 -9.03125 C 11.421875 -10.007812 11.109375 -10.785156 10.578125 -11.359375 C 10.046875 -11.929688 9.3125 -12.21875 8.375 -12.21875 C 7.40625 -12.21875 6.640625 -11.914062 6.078125 -11.3125 C 5.523438 -10.71875 5.207031 -9.957031 5.125 -9.03125 Z M 5.125 -9.03125 "/></g></g></g><g fill="#5ec269" fill-opacity="1"><g transform="translate(83.671886, 26.960536)"><g><path d="M 5.765625 -8.734375 L 5.765625 0 L 1.734375 0 L 1.734375 -15.078125 L 5.546875 -15.078125 L 5.59375 -11.96875 C 6.019531 -13.019531 6.617188 -13.832031 7.390625 -14.40625 C 8.160156 -14.976562 9.128906 -15.265625 10.296875 -15.265625 C 11.859375 -15.265625 13.109375 -14.757812 14.046875 -13.75 C 14.992188 -12.75 15.46875 -11.363281 15.46875 -9.59375 L 15.46875 0 L 11.421875 0 L 11.421875 -8.890625 C 11.421875 -9.828125 11.179688 -10.5625 10.703125 -11.09375 C 10.222656 -11.625 9.554688 -11.890625 8.703125 -11.890625 C 7.835938 -11.890625 7.128906 -11.609375 6.578125 -11.046875 C 6.035156 -10.492188 5.765625 -9.722656 5.765625 -8.734375 Z M 5.765625 -8.734375 "/></g></g></g></g></g></svg>