<svg xmlns="http://www.w3.org/2000/svg" xmlns:xlink="http://www.w3.org/1999/xlink" width="420" zoomAndPan="magnify" viewBox="0 0 315 21.75" height="29" preserveAspectRatio="xMidYMid meet" version="1.0"><defs><g/><clipPath id="803cd30163"><path d="M 1.789062 0 L 313.210938 0 L 313.210938 21.503906 L 1.789062 21.503906 Z M 1.789062 0 " clip-rule="nonzero"/></clipPath><clipPath id="a6cb25abb1"><path d="M 1.789062 0 L 313.179688 0 L 313.179688 9.46875 L 1.789062 9.46875 Z M 1.789062 0 " clip-rule="nonzero"/></clipPath><clipPath id="9227be0267"><path d="M 6.523438 0 L 308.433594 0 C 311.050781 0 313.167969 2.121094 313.167969 4.734375 C 313.167969 7.347656 311.050781 9.46875 308.433594 9.46875 L 6.523438 9.46875 C 3.910156 9.46875 1.789062 7.347656 1.789062 4.734375 C 1.789062 2.121094 3.910156 0 6.523438 0 Z M 6.523438 0 " clip-rule="nonzero"/></clipPath><clipPath id="9b67792041"><path d="M 0.789062 0 L 312.179688 0 L 312.179688 9.46875 L 0.789062 9.46875 Z M 0.789062 0 " clip-rule="nonzero"/></clipPath><clipPath id="399fd06228"><path d="M 5.523438 0 L 307.433594 0 C 310.050781 0 312.167969 2.121094 312.167969 4.734375 C 312.167969 7.347656 310.050781 9.46875 307.433594 9.46875 L 5.523438 9.46875 C 2.910156 9.46875 0.789062 7.347656 0.789062 4.734375 C 0.789062 2.121094 2.910156 0 5.523438 0 Z M 5.523438 0 " clip-rule="nonzero"/></clipPath><clipPath id="4f051f68db"><rect x="0" width="313" y="0" height="10"/></clipPath><clipPath id="22a6bc1062"><path d="M 1.789062 0 L 161.070312 0 L 161.070312 9.46875 L 1.789062 9.46875 Z M 1.789062 0 " clip-rule="nonzero"/></clipPath><clipPath id="f92e297062"><path d="M 6.523438 0 L 156.3125 0 C 158.925781 0 161.046875 2.121094 161.046875 4.734375 C 161.046875 7.347656 158.925781 9.46875 156.3125 9.46875 L 6.523438 9.46875 C 3.910156 9.46875 1.789062 7.347656 1.789062 4.734375 C 1.789062 2.121094 3.910156 0 6.523438 0 Z M 6.523438 0 " clip-rule="nonzero"/></clipPath><clipPath id="ef14e2cffa"><path d="M 0.789062 0 L 160.070312 0 L 160.070312 9.46875 L 0.789062 9.46875 Z M 0.789062 0 " clip-rule="nonzero"/></clipPath><clipPath id="7b34489437"><path d="M 5.523438 0 L 155.3125 0 C 157.925781 0 160.046875 2.121094 160.046875 4.734375 C 160.046875 7.347656 157.925781 9.46875 155.3125 9.46875 L 5.523438 9.46875 C 2.910156 9.46875 0.789062 7.347656 0.789062 4.734375 C 0.789062 2.121094 2.910156 0 5.523438 0 Z M 5.523438 0 " clip-rule="nonzero"/></clipPath><clipPath id="610a76ddd6"><rect x="0" width="161" y="0" height="10"/></clipPath><clipPath id="d524db5ac9"><path d="M 1.789062 12 L 49 12 L 49 21.503906 L 1.789062 21.503906 Z M 1.789062 12 " clip-rule="nonzero"/></clipPath><clipPath id="ad0795facf"><rect x="0" width="48" y="0" height="10"/></clipPath></defs><g clip-path="url(#803cd30163)"><path fill="#ffffff" d="M 1.789062 0 L 313.210938 0 L 313.210938 21.503906 L 1.789062 21.503906 Z M 1.789062 0 " fill-opacity="1" fill-rule="nonzero"/></g><g clip-path="url(#a6cb25abb1)"><g clip-path="url(#9227be0267)"><g transform="matrix(1, 0, 0, 1, 1, 0)"><g clip-path="url(#4f051f68db)"><g clip-path="url(#9b67792041)"><g clip-path="url(#399fd06228)"><path fill="#222a35" d="M 0.789062 0 L 312.179688 0 L 312.179688 9.46875 L 0.789062 9.46875 Z M 0.789062 0 " fill-opacity="1" fill-rule="nonzero"/></g></g></g></g></g></g><g clip-path="url(#22a6bc1062)"><g clip-path="url(#f92e297062)"><g transform="matrix(1, 0, 0, 1, 1, 0)"><g clip-path="url(#610a76ddd6)"><g clip-path="url(#ef14e2cffa)"><g clip-path="url(#7b34489437)"><path fill="#5ec269" d="M 0.789062 0 L 160.035156 0 L 160.035156 9.46875 L 0.789062 9.46875 Z M 0.789062 0 " fill-opacity="1" fill-rule="nonzero"/></g></g></g></g></g></g><g clip-path="url(#d524db5ac9)"><g transform="matrix(1, 0, 0, 1, 1, 12)"><g clip-path="url(#ad0795facf)"><g fill="#8b8b8b" fill-opacity="1"><g transform="translate(0.789776, 7.360401)"><g><path d="M 2.28125 0.078125 C 1.914062 0.078125 1.59375 0.015625 1.3125 -0.109375 C 1.039062 -0.234375 0.820312 -0.40625 0.65625 -0.625 C 0.5 -0.84375 0.414062 -1.09375 0.40625 -1.375 L 1.234375 -1.375 C 1.242188 -1.144531 1.347656 -0.960938 1.546875 -0.828125 C 1.742188 -0.691406 1.984375 -0.625 2.265625 -0.625 C 2.578125 -0.625 2.832031 -0.703125 3.03125 -0.859375 C 3.226562 -1.015625 3.328125 -1.21875 3.328125 -1.46875 C 3.328125 -1.738281 3.222656 -1.957031 3.015625 -2.125 C 2.816406 -2.289062 2.539062 -2.375 2.1875 -2.375 L 1.734375 -2.375 L 1.734375 -3.03125 L 2.1875 -3.03125 C 2.476562 -3.03125 2.710938 -3.101562 2.890625 -3.25 C 3.078125 -3.40625 3.171875 -3.609375 3.171875 -3.859375 C 3.171875 -4.109375 3.085938 -4.304688 2.921875 -4.453125 C 2.765625 -4.597656 2.550781 -4.671875 2.28125 -4.671875 C 2.03125 -4.671875 1.804688 -4.601562 1.609375 -4.46875 C 1.410156 -4.332031 1.304688 -4.144531 1.296875 -3.90625 L 0.515625 -3.90625 C 0.523438 -4.1875 0.609375 -4.4375 0.765625 -4.65625 C 0.929688 -4.875 1.144531 -5.039062 1.40625 -5.15625 C 1.675781 -5.28125 1.972656 -5.34375 2.296875 -5.34375 C 2.628906 -5.34375 2.921875 -5.273438 3.171875 -5.140625 C 3.421875 -5.015625 3.613281 -4.84375 3.75 -4.625 C 3.882812 -4.40625 3.953125 -4.164062 3.953125 -3.90625 C 3.953125 -3.613281 3.867188 -3.363281 3.703125 -3.15625 C 3.535156 -2.945312 3.316406 -2.804688 3.046875 -2.734375 L 3.046875 -2.703125 C 3.398438 -2.648438 3.671875 -2.507812 3.859375 -2.28125 C 4.046875 -2.050781 4.140625 -1.773438 4.140625 -1.453125 C 4.140625 -1.160156 4.054688 -0.898438 3.890625 -0.671875 C 3.734375 -0.441406 3.515625 -0.257812 3.234375 -0.125 C 2.953125 0.0078125 2.632812 0.078125 2.28125 0.078125 Z M 2.28125 0.078125 "/></g></g></g><g fill="#8b8b8b" fill-opacity="1"><g transform="translate(5.335535, 7.360401)"><g><path d="M 0.40625 -1.03125 L 0.40625 -1.671875 L 2.671875 -5.28125 L 3.671875 -5.28125 L 3.671875 -1.71875 L 4.375 -1.71875 L 4.375 -1.03125 L 3.671875 -1.03125 L 3.671875 0 L 2.90625 0 L 2.90625 -1.03125 Z M 2.90625 -1.71875 L 2.90625 -4.3125 L 2.859375 -4.3125 L 1.25 -1.75 L 1.25 -1.71875 Z M 2.90625 -1.71875 "/></g></g></g><g fill="#8b8b8b" fill-opacity="1"><g transform="translate(10.093712, 7.360401)"><g><path d="M 2.34375 0.078125 C 1.726562 0.078125 1.25 -0.15625 0.90625 -0.625 C 0.570312 -1.101562 0.40625 -1.773438 0.40625 -2.640625 C 0.40625 -3.492188 0.570312 -4.15625 0.90625 -4.625 C 1.25 -5.101562 1.726562 -5.34375 2.34375 -5.34375 C 2.945312 -5.34375 3.421875 -5.101562 3.765625 -4.625 C 4.109375 -4.15625 4.28125 -3.492188 4.28125 -2.640625 C 4.28125 -1.773438 4.109375 -1.101562 3.765625 -0.625 C 3.429688 -0.15625 2.957031 0.078125 2.34375 0.078125 Z M 2.34375 -0.625 C 2.707031 -0.625 2.988281 -0.796875 3.1875 -1.140625 C 3.382812 -1.492188 3.484375 -1.992188 3.484375 -2.640625 C 3.484375 -3.273438 3.382812 -3.769531 3.1875 -4.125 C 2.988281 -4.476562 2.707031 -4.65625 2.34375 -4.65625 C 1.976562 -4.65625 1.695312 -4.476562 1.5 -4.125 C 1.300781 -3.769531 1.203125 -3.273438 1.203125 -2.640625 C 1.203125 -1.992188 1.300781 -1.492188 1.5 -1.140625 C 1.695312 -0.796875 1.976562 -0.625 2.34375 -0.625 Z M 2.34375 -0.625 "/></g></g></g><g fill="#8b8b8b" fill-opacity="1"><g transform="translate(14.774002, 7.360401)"><g/></g></g><g fill="#8b8b8b" fill-opacity="1"><g transform="translate(16.707011, 7.360401)"><g><path d="M 2.53125 -5.515625 L 0.84375 0.796875 L 0.140625 0.796875 L 1.84375 -5.515625 Z M 2.53125 -5.515625 "/></g></g></g><g fill="#8b8b8b" fill-opacity="1"><g transform="translate(19.387031, 7.360401)"><g/></g></g><g fill="#8b8b8b" fill-opacity="1"><g transform="translate(21.32004, 7.360401)"><g><path d="M 2.28125 0.078125 C 1.90625 0.078125 1.578125 0.015625 1.296875 -0.109375 C 1.015625 -0.242188 0.796875 -0.421875 0.640625 -0.640625 C 0.484375 -0.867188 0.40625 -1.125 0.40625 -1.40625 C 0.40625 -1.625 0.445312 -1.828125 0.53125 -2.015625 C 0.625 -2.203125 0.75 -2.359375 0.90625 -2.484375 C 1.070312 -2.617188 1.257812 -2.703125 1.46875 -2.734375 L 1.46875 -2.765625 C 1.195312 -2.828125 0.984375 -2.96875 0.828125 -3.1875 C 0.671875 -3.40625 0.59375 -3.65625 0.59375 -3.9375 C 0.59375 -4.207031 0.664062 -4.445312 0.8125 -4.65625 C 0.957031 -4.875 1.15625 -5.039062 1.40625 -5.15625 C 1.664062 -5.28125 1.957031 -5.34375 2.28125 -5.34375 C 2.601562 -5.34375 2.890625 -5.28125 3.140625 -5.15625 C 3.398438 -5.039062 3.601562 -4.875 3.75 -4.65625 C 3.894531 -4.445312 3.96875 -4.207031 3.96875 -3.9375 C 3.96875 -3.65625 3.882812 -3.40625 3.71875 -3.1875 C 3.5625 -2.96875 3.351562 -2.828125 3.09375 -2.765625 L 3.09375 -2.734375 C 3.289062 -2.703125 3.46875 -2.617188 3.625 -2.484375 C 3.789062 -2.359375 3.921875 -2.203125 4.015625 -2.015625 C 4.117188 -1.828125 4.171875 -1.625 4.171875 -1.40625 C 4.171875 -1.125 4.085938 -0.867188 3.921875 -0.640625 C 3.765625 -0.421875 3.539062 -0.242188 3.25 -0.109375 C 2.96875 0.015625 2.644531 0.078125 2.28125 0.078125 Z M 2.28125 -0.578125 C 2.601562 -0.578125 2.859375 -0.65625 3.046875 -0.8125 C 3.242188 -0.976562 3.34375 -1.191406 3.34375 -1.453125 C 3.34375 -1.722656 3.238281 -1.945312 3.03125 -2.125 C 2.832031 -2.300781 2.582031 -2.390625 2.28125 -2.390625 C 1.96875 -2.390625 1.710938 -2.300781 1.515625 -2.125 C 1.316406 -1.957031 1.21875 -1.734375 1.21875 -1.453125 C 1.21875 -1.191406 1.3125 -0.976562 1.5 -0.8125 C 1.6875 -0.65625 1.945312 -0.578125 2.28125 -0.578125 Z M 2.28125 -3.03125 C 2.539062 -3.03125 2.753906 -3.109375 2.921875 -3.265625 C 3.097656 -3.421875 3.1875 -3.617188 3.1875 -3.859375 C 3.1875 -4.109375 3.101562 -4.304688 2.9375 -4.453125 C 2.769531 -4.609375 2.550781 -4.6875 2.28125 -4.6875 C 2.007812 -4.6875 1.789062 -4.609375 1.625 -4.453125 C 1.457031 -4.304688 1.375 -4.109375 1.375 -3.859375 C 1.375 -3.617188 1.457031 -3.421875 1.625 -3.265625 C 1.789062 -3.109375 2.007812 -3.03125 2.28125 -3.03125 Z M 2.28125 -3.03125 "/></g></g></g><g fill="#8b8b8b" fill-opacity="1"><g transform="translate(25.883504, 7.360401)"><g><path d="M 0.40625 -1.03125 L 0.40625 -1.671875 L 2.671875 -5.28125 L 3.671875 -5.28125 L 3.671875 -1.71875 L 4.375 -1.71875 L 4.375 -1.03125 L 3.671875 -1.03125 L 3.671875 0 L 2.90625 0 L 2.90625 -1.03125 Z M 2.90625 -1.71875 L 2.90625 -4.3125 L 2.859375 -4.3125 L 1.25 -1.75 L 1.25 -1.71875 Z M 2.90625 -1.71875 "/></g></g></g><g fill="#8b8b8b" fill-opacity="1"><g transform="translate(30.641681, 7.360401)"><g><path d="M 2.34375 0.078125 C 1.726562 0.078125 1.25 -0.15625 0.90625 -0.625 C 0.570312 -1.101562 0.40625 -1.773438 0.40625 -2.640625 C 0.40625 -3.492188 0.570312 -4.15625 0.90625 -4.625 C 1.25 -5.101562 1.726562 -5.34375 2.34375 -5.34375 C 2.945312 -5.34375 3.421875 -5.101562 3.765625 -4.625 C 4.109375 -4.15625 4.28125 -3.492188 4.28125 -2.640625 C 4.28125 -1.773438 4.109375 -1.101562 3.765625 -0.625 C 3.429688 -0.15625 2.957031 0.078125 2.34375 0.078125 Z M 2.34375 -0.625 C 2.707031 -0.625 2.988281 -0.796875 3.1875 -1.140625 C 3.382812 -1.492188 3.484375 -1.992188 3.484375 -2.640625 C 3.484375 -3.273438 3.382812 -3.769531 3.1875 -4.125 C 2.988281 -4.476562 2.707031 -4.65625 2.34375 -4.65625 C 1.976562 -4.65625 1.695312 -4.476562 1.5 -4.125 C 1.300781 -3.769531 1.203125 -3.273438 1.203125 -2.640625 C 1.203125 -1.992188 1.300781 -1.492188 1.5 -1.140625 C 1.695312 -0.796875 1.976562 -0.625 2.34375 -0.625 Z M 2.34375 -0.625 "/></g></g></g><g fill="#8b8b8b" fill-opacity="1"><g transform="translate(35.321972, 7.360401)"><g/></g></g><g fill="#8b8b8b" fill-opacity="1"><g transform="translate(37.254981, 7.360401)"><g><path d="M 0.1875 0 L 2.078125 -2.703125 L 0.328125 -5.28125 L 1.265625 -5.28125 L 1.96875 -4.234375 C 2.113281 -4.015625 2.222656 -3.832031 2.296875 -3.6875 C 2.378906 -3.550781 2.460938 -3.398438 2.546875 -3.234375 C 2.628906 -3.398438 2.710938 -3.550781 2.796875 -3.6875 C 2.878906 -3.832031 2.992188 -4.015625 3.140625 -4.234375 L 3.859375 -5.28125 L 4.765625 -5.28125 L 3.015625 -2.71875 L 4.890625 0 L 3.9375 0 L 3.078125 -1.265625 C 2.953125 -1.453125 2.851562 -1.609375 2.78125 -1.734375 C 2.707031 -1.859375 2.628906 -2 2.546875 -2.15625 C 2.460938 -2 2.378906 -1.859375 2.296875 -1.734375 C 2.222656 -1.609375 2.125 -1.453125 2 -1.265625 L 1.125 0 Z M 0.1875 0 "/></g></g></g><g fill="#8b8b8b" fill-opacity="1"><g transform="translate(42.335331, 7.360401)"><g><path d="M 0.578125 0 L 0.578125 -5.28125 L 2.46875 -5.28125 C 2.875 -5.28125 3.210938 -5.203125 3.484375 -5.046875 C 3.753906 -4.898438 3.957031 -4.695312 4.09375 -4.4375 C 4.226562 -4.175781 4.296875 -3.882812 4.296875 -3.5625 C 4.296875 -3.238281 4.226562 -2.945312 4.09375 -2.6875 C 3.957031 -2.425781 3.753906 -2.21875 3.484375 -2.0625 C 3.210938 -1.914062 2.875 -1.84375 2.46875 -1.84375 L 1.390625 -1.84375 L 1.390625 0 Z M 1.390625 -2.53125 L 2.390625 -2.53125 C 2.773438 -2.53125 3.050781 -2.625 3.21875 -2.8125 C 3.394531 -3.007812 3.484375 -3.257812 3.484375 -3.5625 C 3.484375 -3.851562 3.394531 -4.09375 3.21875 -4.28125 C 3.050781 -4.476562 2.769531 -4.578125 2.375 -4.578125 L 1.390625 -4.578125 Z M 1.390625 -2.53125 "/></g></g></g></g></g></g></svg>